<svg width="114" height="31" viewBox="0 0 114 31" fill="none" xmlns="http://www.w3.org/2000/svg">
<path d="M62.2373 11.7344C62.1006 11.7116 61.9525 11.7002 61.793 11.7002C61.2005 11.7002 60.7985 11.9525 60.5869 12.457V16.207H59.6836V10.9238H60.5625L60.5771 11.5342C60.8734 11.0622 61.2933 10.8262 61.8369 10.8262C62.0127 10.8262 62.1462 10.849 62.2373 10.8945V11.7344Z" fill="white"/>
<path d="M65.167 16.3047C64.4508 16.3047 63.8682 16.0703 63.4189 15.6016C62.9697 15.1296 62.7451 14.4997 62.7451 13.7119V13.5459C62.7451 13.0218 62.8444 12.5547 63.043 12.1445C63.2448 11.7311 63.5247 11.4089 63.8828 11.1777C64.2441 10.9434 64.6348 10.8262 65.0547 10.8262C65.7415 10.8262 66.2754 11.0524 66.6562 11.5049C67.0371 11.9574 67.2275 12.6051 67.2275 13.4482V13.8242H63.6484C63.6615 14.3451 63.8128 14.7666 64.1025 15.0889C64.3955 15.4079 64.7666 15.5674 65.2158 15.5674C65.5348 15.5674 65.805 15.5023 66.0264 15.3721C66.2477 15.2419 66.4414 15.0693 66.6074 14.8545L67.1592 15.2842C66.7165 15.9645 66.0524 16.3047 65.167 16.3047ZM65.0547 11.5684C64.6901 11.5684 64.3841 11.7018 64.1367 11.9688C63.8893 12.2324 63.7363 12.6035 63.6777 13.082H66.3242V13.0137C66.2982 12.5547 66.1745 12.1999 65.9531 11.9492C65.7318 11.6953 65.4323 11.5684 65.0547 11.5684Z" fill="white"/>
<path d="M73.6484 13.9512C73.5605 14.7031 73.2822 15.2842 72.8135 15.6943C72.348 16.1012 71.7279 16.3047 70.9531 16.3047C70.1133 16.3047 69.4395 16.0036 68.9316 15.4014C68.4271 14.7992 68.1748 13.9935 68.1748 12.9844V12.3008C68.1748 11.64 68.292 11.0589 68.5264 10.5576C68.764 10.0563 69.0993 9.6722 69.5322 9.40527C69.9652 9.13509 70.4665 9 71.0361 9C71.7913 9 72.3968 9.21159 72.8525 9.63477C73.3083 10.0547 73.5736 10.6374 73.6484 11.3828H72.7061C72.6247 10.8164 72.4473 10.4062 72.1738 10.1523C71.9036 9.89844 71.5244 9.77148 71.0361 9.77148C70.4372 9.77148 69.9668 9.99284 69.625 10.4355C69.2865 10.8783 69.1172 11.5081 69.1172 12.3252V13.0137C69.1172 13.7852 69.2783 14.3988 69.6006 14.8545C69.9229 15.3102 70.3737 15.5381 70.9531 15.5381C71.474 15.5381 71.8727 15.4209 72.1494 15.1865C72.4294 14.9489 72.6149 14.5371 72.7061 13.9512H73.6484Z" fill="white"/>
<path d="M78.8584 14.3516H75.8799L75.2109 16.207H74.2441L76.959 9.09766H77.7793L80.499 16.207H79.5371L78.8584 14.3516ZM76.1631 13.5801H78.5801L77.3691 10.2549L76.1631 13.5801Z" fill="white"/>
<path d="M82.3936 13.4238V16.207H81.4561V9.09766H84.0781C84.8561 9.09766 85.4648 9.29622 85.9043 9.69336C86.347 10.0905 86.5684 10.6162 86.5684 11.2705C86.5684 11.9606 86.3519 12.4928 85.9189 12.8672C85.4893 13.2383 84.8724 13.4238 84.0684 13.4238H82.3936ZM82.3936 12.6572H84.0781C84.5794 12.6572 84.9635 12.54 85.2305 12.3057C85.4974 12.068 85.6309 11.7262 85.6309 11.2803C85.6309 10.8571 85.4974 10.5186 85.2305 10.2646C84.9635 10.0107 84.5973 9.87891 84.1318 9.86914H82.3936V12.6572Z" fill="white"/>
<path d="M92.6768 9.86914H90.3916V16.207H89.459V9.86914H87.1787V9.09766H92.6768V9.86914Z" fill="white"/>
<path d="M98.8242 13.9512C98.7363 14.7031 98.458 15.2842 97.9893 15.6943C97.5238 16.1012 96.9036 16.3047 96.1289 16.3047C95.2891 16.3047 94.6152 16.0036 94.1074 15.4014C93.6029 14.7992 93.3506 13.9935 93.3506 12.9844V12.3008C93.3506 11.64 93.4678 11.0589 93.7021 10.5576C93.9398 10.0563 94.2751 9.6722 94.708 9.40527C95.141 9.13509 95.6423 9 96.2119 9C96.9671 9 97.5726 9.21159 98.0283 9.63477C98.484 10.0547 98.7493 10.6374 98.8242 11.3828H97.8818C97.8005 10.8164 97.623 10.4062 97.3496 10.1523C97.0794 9.89844 96.7002 9.77148 96.2119 9.77148C95.613 9.77148 95.1426 9.99284 94.8008 10.4355C94.4622 10.8783 94.293 11.5081 94.293 12.3252V13.0137C94.293 13.7852 94.4541 14.3988 94.7764 14.8545C95.0986 15.3102 95.5495 15.5381 96.1289 15.5381C96.6497 15.5381 97.0485 15.4209 97.3252 15.1865C97.6051 14.9489 97.7907 14.5371 97.8818 13.9512H98.8242Z" fill="white"/>
<path d="M105.572 16.207H104.63V12.9209H101.046V16.207H100.108V9.09766H101.046V12.1543H104.63V9.09766H105.572V16.207Z" fill="white"/>
<path d="M111.251 14.3516H108.272L107.604 16.207H106.637L109.352 9.09766H110.172L112.892 16.207H111.93L111.251 14.3516ZM108.556 13.5801H110.973L109.762 10.2549L108.556 13.5801Z" fill="white"/>
<path d="M58.75 24.7461V26.9727H58V21.2852H60.0977C60.7201 21.2852 61.207 21.444 61.5586 21.7617C61.9128 22.0794 62.0898 22.5 62.0898 23.0234C62.0898 23.5755 61.9167 24.0013 61.5703 24.3008C61.2266 24.5977 60.7331 24.7461 60.0898 24.7461H58.75ZM58.75 24.1328H60.0977C60.4987 24.1328 60.806 24.0391 61.0195 23.8516C61.2331 23.6615 61.3398 23.388 61.3398 23.0312C61.3398 22.6927 61.2331 22.4219 61.0195 22.2188C60.806 22.0156 60.513 21.9102 60.1406 21.9023H58.75V24.1328Z" fill="white"/>
<path d="M64.9766 23.3945C64.8672 23.3763 64.7487 23.3672 64.6211 23.3672C64.1471 23.3672 63.8255 23.569 63.6562 23.9727V26.9727H62.9336V22.7461H63.6367L63.6484 23.2344C63.8854 22.8568 64.2214 22.668 64.6562 22.668C64.7969 22.668 64.9036 22.6862 64.9766 22.7227V23.3945Z" fill="white"/>
<path d="M66.4297 26.9727H65.707V22.7461H66.4297V26.9727ZM65.6484 21.625C65.6484 21.5078 65.6836 21.4089 65.7539 21.3281C65.8268 21.2474 65.9336 21.207 66.0742 21.207C66.2148 21.207 66.3216 21.2474 66.3945 21.3281C66.4674 21.4089 66.5039 21.5078 66.5039 21.625C66.5039 21.7422 66.4674 21.8398 66.3945 21.918C66.3216 21.9961 66.2148 22.0352 66.0742 22.0352C65.9336 22.0352 65.8268 21.9961 65.7539 21.918C65.6836 21.8398 65.6484 21.7422 65.6484 21.625Z" fill="white"/>
<path d="M68.9844 25.9922L70.0312 22.7461H70.7695L69.2539 26.9727H68.7031L67.1719 22.7461H67.9102L68.9844 25.9922Z" fill="white"/>
<path d="M74.0117 26.9727C73.9701 26.8893 73.9362 26.7409 73.9102 26.5273C73.5742 26.8763 73.1732 27.0508 72.707 27.0508C72.2904 27.0508 71.9479 26.9336 71.6797 26.6992C71.4141 26.4622 71.2812 26.1628 71.2812 25.8008C71.2812 25.3607 71.4479 25.0195 71.7812 24.7773C72.1172 24.5326 72.5885 24.4102 73.1953 24.4102H73.8984V24.0781C73.8984 23.8255 73.8229 23.625 73.6719 23.4766C73.5208 23.3255 73.2982 23.25 73.0039 23.25C72.7461 23.25 72.5299 23.3151 72.3555 23.4453C72.181 23.5755 72.0938 23.7331 72.0938 23.918H71.3672C71.3672 23.707 71.4414 23.5039 71.5898 23.3086C71.7409 23.1107 71.944 22.9544 72.1992 22.8398C72.457 22.7253 72.7396 22.668 73.0469 22.668C73.5339 22.668 73.9154 22.7904 74.1914 23.0352C74.4674 23.2773 74.6107 23.612 74.6211 24.0391V25.9844C74.6211 26.3724 74.6706 26.681 74.7695 26.9102V26.9727H74.0117ZM72.8125 26.4219C73.0391 26.4219 73.2539 26.3633 73.457 26.2461C73.6602 26.1289 73.8073 25.9766 73.8984 25.7891V24.9219H73.332C72.4466 24.9219 72.0039 25.181 72.0039 25.6992C72.0039 25.9258 72.0794 26.1029 72.2305 26.2305C72.3815 26.3581 72.5755 26.4219 72.8125 26.4219Z" fill="white"/>
<path d="M77.4492 26.4609C77.707 26.4609 77.9323 26.3828 78.125 26.2266C78.3177 26.0703 78.4245 25.875 78.4453 25.6406H79.1289C79.1159 25.8828 79.0326 26.1133 78.8789 26.332C78.7253 26.5508 78.5195 26.7253 78.2617 26.8555C78.0065 26.9857 77.7357 27.0508 77.4492 27.0508C76.8737 27.0508 76.4154 26.8594 76.0742 26.4766C75.7357 26.0911 75.5664 25.5651 75.5664 24.8984V24.7773C75.5664 24.3659 75.6419 24 75.793 23.6797C75.944 23.3594 76.1602 23.1107 76.4414 22.9336C76.7253 22.7565 77.0599 22.668 77.4453 22.668C77.9193 22.668 78.3125 22.8099 78.625 23.0938C78.9401 23.3776 79.1081 23.7461 79.1289 24.1992H78.4453C78.4245 23.9258 78.3203 23.7018 78.1328 23.5273C77.9479 23.3503 77.7188 23.2617 77.4453 23.2617C77.0781 23.2617 76.793 23.3945 76.5898 23.6602C76.3893 23.9232 76.2891 24.3047 76.2891 24.8047V24.9414C76.2891 25.4284 76.3893 25.8034 76.5898 26.0664C76.7904 26.3294 77.0768 26.4609 77.4492 26.4609Z" fill="white"/>
<path d="M81.3242 25.9141L82.3086 22.7461H83.082L81.3828 27.625C81.1198 28.3281 80.7018 28.6797 80.1289 28.6797L79.9922 28.668L79.7227 28.6172V28.0312L79.918 28.0469C80.1628 28.0469 80.3529 27.9974 80.4883 27.8984C80.6263 27.7995 80.7396 27.6185 80.8281 27.3555L80.9883 26.9258L79.4805 22.7461H80.2695L81.3242 25.9141Z" fill="white"/>
<path d="M95.9297 21.9023H94.1016V26.9727H93.3555V21.9023H91.5312V21.2852H95.9297V21.9023Z" fill="white"/>
<path d="M98.0234 27.0508C97.4505 27.0508 96.9844 26.8633 96.625 26.4883C96.2656 26.1107 96.0859 25.6068 96.0859 24.9766V24.8438C96.0859 24.4245 96.1654 24.0508 96.3242 23.7227C96.4857 23.3919 96.7096 23.1341 96.9961 22.9492C97.2852 22.7617 97.5977 22.668 97.9336 22.668C98.4831 22.668 98.9102 22.849 99.2148 23.2109C99.5195 23.5729 99.6719 24.0911 99.6719 24.7656V25.0664H96.8086C96.819 25.4831 96.9401 25.8203 97.1719 26.0781C97.4062 26.3333 97.7031 26.4609 98.0625 26.4609C98.3177 26.4609 98.5339 26.4089 98.7109 26.3047C98.888 26.2005 99.043 26.0625 99.1758 25.8906L99.6172 26.2344C99.263 26.7786 98.7318 27.0508 98.0234 27.0508ZM97.9336 23.2617C97.6419 23.2617 97.3971 23.3685 97.1992 23.582C97.0013 23.793 96.8789 24.0898 96.832 24.4727H98.9492V24.418C98.9284 24.0508 98.8294 23.7669 98.6523 23.5664C98.4753 23.3633 98.2357 23.2617 97.9336 23.2617Z" fill="white"/>
<path d="M102.555 23.3945C102.445 23.3763 102.327 23.3672 102.199 23.3672C101.725 23.3672 101.404 23.569 101.234 23.9727V26.9727H100.512V22.7461H101.215L101.227 23.2344C101.464 22.8568 101.799 22.668 102.234 22.668C102.375 22.668 102.482 22.6862 102.555 22.7227V23.3945Z" fill="white"/>
<path d="M103.902 22.7461L103.922 23.2148C104.232 22.8503 104.65 22.668 105.176 22.668C105.767 22.668 106.169 22.8945 106.383 23.3477C106.523 23.1445 106.706 22.9805 106.93 22.8555C107.156 22.7305 107.423 22.668 107.73 22.668C108.658 22.668 109.129 23.1589 109.145 24.1406V26.9727H108.422V24.1836C108.422 23.8815 108.353 23.6562 108.215 23.5078C108.077 23.3568 107.845 23.2812 107.52 23.2812C107.251 23.2812 107.029 23.362 106.852 23.5234C106.674 23.6823 106.572 23.8971 106.543 24.168V26.9727H105.816V24.2031C105.816 23.5885 105.516 23.2812 104.914 23.2812C104.44 23.2812 104.116 23.4831 103.941 23.8867V26.9727H103.219V22.7461H103.902Z" fill="white"/>
<path d="M112.699 25.8516C112.699 25.6562 112.625 25.5052 112.477 25.3984C112.331 25.2891 112.074 25.1953 111.707 25.1172C111.342 25.0391 111.052 24.9453 110.836 24.8359C110.622 24.7266 110.464 24.5964 110.359 24.4453C110.258 24.2943 110.207 24.1146 110.207 23.9062C110.207 23.5599 110.353 23.2669 110.645 23.0273C110.939 22.7878 111.314 22.668 111.77 22.668C112.249 22.668 112.637 22.7917 112.934 23.0391C113.233 23.2865 113.383 23.6029 113.383 23.9883H112.656C112.656 23.7904 112.572 23.6198 112.402 23.4766C112.236 23.3333 112.025 23.2617 111.77 23.2617C111.507 23.2617 111.301 23.319 111.152 23.4336C111.004 23.5482 110.93 23.6979 110.93 23.8828C110.93 24.0573 110.999 24.1888 111.137 24.2773C111.275 24.3659 111.523 24.4505 111.883 24.5312C112.245 24.612 112.538 24.7083 112.762 24.8203C112.986 24.9323 113.151 25.0677 113.258 25.2266C113.367 25.3828 113.422 25.5742 113.422 25.8008C113.422 26.1784 113.271 26.4818 112.969 26.7109C112.667 26.9375 112.275 27.0508 111.793 27.0508C111.454 27.0508 111.155 26.9909 110.895 26.8711C110.634 26.7513 110.43 26.5846 110.281 26.3711C110.135 26.1549 110.062 25.9219 110.062 25.6719H110.785C110.798 25.9141 110.895 26.1068 111.074 26.25C111.257 26.3906 111.496 26.4609 111.793 26.4609C112.066 26.4609 112.285 26.4062 112.449 26.2969C112.616 26.1849 112.699 26.0365 112.699 25.8516Z" fill="white"/>
<path d="M88.3281 25.1719H86.2773V24.4062H88.3281V25.1719Z" fill="white"/>
<g filter="url(#filter0_d_164_7537)">
<path d="M44.4015 6.33783C44.266 6.16908 44.1264 6.0031 43.9829 5.84004C41.6881 3.234 38.5219 1.55399 35.0774 1.1147C31.6329 0.675412 28.1464 1.50698 25.271 3.45365L29.3875 9.53409C30.7835 8.58899 32.4762 8.18526 34.1485 8.39854C35.8208 8.61181 37.3579 9.42745 38.4721 10.6927C38.7218 10.9763 38.9464 11.2781 39.1446 11.5947L35.5008 15.2385H47.6102V3.12915L44.4015 6.33783Z" fill="#1C3AA9"/>
</g>
<g filter="url(#filter1_d_164_7537)">
<path d="M33.2385 1H21.1291L24.301 4.17182C21.9308 6.08727 20.227 8.71941 19.4568 11.6897C18.5853 15.0509 18.9691 18.6146 20.5364 21.7132L27.0888 18.399C26.3279 16.8947 26.1415 15.1645 26.5646 13.5326C26.9878 11.9008 27.9913 10.4791 29.3873 9.53403C29.4424 9.49675 29.4979 9.46032 29.5539 9.42473L33.2385 13.1093V1Z" fill="#4285F4"/>
</g>
<g filter="url(#filter2_d_164_7537)">
<path d="M19 15.3711H31.1093L27.4507 19.0297C28.2265 20.2313 29.3592 21.1689 30.6981 21.7045C32.2634 22.3307 34.0032 22.3647 35.5917 21.8002C37.1803 21.2358 38.5085 20.1115 39.3277 18.6381L44.6238 23.9208C42.9537 26.1127 40.6744 27.7868 38.0504 28.7192C34.7784 29.8819 31.1948 29.8118 27.9708 28.522C25.7029 27.6148 23.7224 26.1477 22.2016 24.2788L19 27.4804V15.3711Z" fill="white"/>
</g>
<defs>
<filter id="filter0_d_164_7537" x="24.271" y="0" width="24.3394" height="16.2383" filterUnits="userSpaceOnUse" color-interpolation-filters="sRGB">
<feFlood flood-opacity="0" result="BackgroundImageFix"/>
<feColorMatrix in="SourceAlpha" type="matrix" values="0 0 0 0 0 0 0 0 0 0 0 0 0 0 0 0 0 0 127 0" result="hardAlpha"/>
<feOffset/>
<feGaussianBlur stdDeviation="0.5"/>
<feColorMatrix type="matrix" values="0 0 0 0 0 0 0 0 0 0 0 0 0 0 0 0 0 0 0.38 0"/>
<feBlend mode="normal" in2="BackgroundImageFix" result="effect1_dropShadow_164_7537"/>
<feBlend mode="normal" in="SourceGraphic" in2="effect1_dropShadow_164_7537" result="shape"/>
</filter>
<filter id="filter1_d_164_7537" x="18" y="0" width="16.2383" height="22.7129" filterUnits="userSpaceOnUse" color-interpolation-filters="sRGB">
<feFlood flood-opacity="0" result="BackgroundImageFix"/>
<feColorMatrix in="SourceAlpha" type="matrix" values="0 0 0 0 0 0 0 0 0 0 0 0 0 0 0 0 0 0 127 0" result="hardAlpha"/>
<feOffset/>
<feGaussianBlur stdDeviation="0.5"/>
<feColorMatrix type="matrix" values="0 0 0 0 0 0 0 0 0 0 0 0 0 0 0 0 0 0 0.38 0"/>
<feBlend mode="normal" in2="BackgroundImageFix" result="effect1_dropShadow_164_7537"/>
<feBlend mode="normal" in="SourceGraphic" in2="effect1_dropShadow_164_7537" result="shape"/>
</filter>
<filter id="filter2_d_164_7537" x="18" y="14.3711" width="27.6235" height="16.1719" filterUnits="userSpaceOnUse" color-interpolation-filters="sRGB">
<feFlood flood-opacity="0" result="BackgroundImageFix"/>
<feColorMatrix in="SourceAlpha" type="matrix" values="0 0 0 0 0 0 0 0 0 0 0 0 0 0 0 0 0 0 127 0" result="hardAlpha"/>
<feOffset/>
<feGaussianBlur stdDeviation="0.5"/>
<feColorMatrix type="matrix" values="0 0 0 0 0 0 0 0 0 0 0 0 0 0 0 0 0 0 0.38 0"/>
<feBlend mode="normal" in2="BackgroundImageFix" result="effect1_dropShadow_164_7537"/>
<feBlend mode="normal" in="SourceGraphic" in2="effect1_dropShadow_164_7537" result="shape"/>
</filter>
</defs>
</svg>
