<svg width="15" height="30" viewBox="0 0 15 30" fill="none" xmlns="http://www.w3.org/2000/svg">
<path fill-rule="evenodd" clip-rule="evenodd" d="M14.6103 29.9512C14.8603 29.8444 15.0312 29.4978 14.9877 29.1859C14.9734 29.083 12.9592 26.9434 8.24139 22.0194L1.5155 14.9995L8.23908 7.97959C13.206 2.79383 14.9697 0.917534 14.9895 0.798473C15.0809 0.247316 14.5593 -0.179213 14.1055 0.0756149C14.0079 0.130484 10.8026 3.43825 6.98283 7.42626C1.85015 12.785 0.0307732 14.7192 0.0110445 14.8383C-0.00368118 14.9269 -0.00368118 15.072 0.0110445 15.1607C0.0307732 15.2798 1.85245 17.2174 6.98677 22.5802C10.8087 26.5723 14.0041 29.8764 14.0875 29.9226C14.2545 30.0149 14.4374 30.0249 14.6103 29.9512Z" fill="#222222"/>
</svg>
