<svg width="15" height="30" viewBox="0 0 15 30" fill="none" xmlns="http://www.w3.org/2000/svg">
<path fill-rule="evenodd" clip-rule="evenodd" d="M0.389739 0.0488356C0.139737 0.155585 -0.0312405 0.502213 0.0122626 0.814137C0.026595 0.916959 2.04083 3.05664 6.75861 7.9806L13.4845 15.0005L6.76092 22.0204C1.79398 27.2062 0.0303047 29.0825 0.0105203 29.2015C-0.0808698 29.7527 0.440717 30.1792 0.894464 29.9244C0.99215 29.8695 4.19738 26.5617 8.01717 22.5737C13.1499 17.215 14.9692 15.2808 14.989 15.1617C15.0037 15.0731 15.0037 14.928 14.989 14.8393C14.9692 14.7202 13.1475 12.7826 8.01323 7.41977C4.19125 3.42771 0.995916 0.123636 0.912451 0.0774428C0.74552 -0.0149444 0.562571 -0.0249101 0.389739 0.0488356Z" fill="#222222"/>
</svg>
