<svg width="40" height="73" viewBox="0 0 40 73" fill="none" xmlns="http://www.w3.org/2000/svg">
<path d="M19.5515 0.000592595C16.9709 -0.0195774 14.4122 0.475332 12.0252 1.45636C9.6383 2.43739 7.471 3.8848 5.6504 5.71385C3.8298 7.54289 2.3924 9.71679 1.4225 12.1083C0.4525 14.4998 -0.0305991 17.0608 0.00150087 19.6413C0.00150087 30.6403 10.737 45.1696 19.5515 62.0506C28.366 45.1724 39.1015 30.6403 39.1015 19.6413C39.1337 17.0608 38.6506 14.4998 37.6806 12.1083C36.7106 9.71679 35.2733 7.54289 33.4527 5.71385C31.6321 3.8848 29.4648 2.43739 27.0779 1.45636C24.6909 0.475332 22.1322 -0.0195774 19.5515 0.000592595ZM19.5515 28.0506C17.8704 28.0506 16.227 27.5521 14.8292 26.6181C13.4314 25.6841 12.3419 24.3566 11.6986 22.8034C11.0552 21.2502 10.8869 19.5412 11.2149 17.8923C11.5428 16.2435 12.3524 14.7289 13.5411 13.5402C14.7299 12.3515 16.2444 11.5419 17.8933 11.2139C19.5421 10.886 21.2512 11.0543 22.8044 11.6976C24.3575 12.341 25.685 13.4304 26.619 14.8283C27.553 16.2261 28.0515 17.8695 28.0515 19.5506C28.0515 21.8049 27.156 23.967 25.562 25.561C23.9679 27.1551 21.8059 28.0506 19.5515 28.0506Z" fill="#FF6C4F"/>
<path d="M20 73C21.6569 73 23 71.6569 23 70C23 68.3431 21.6569 67 20 67C18.3431 67 17 68.3431 17 70C17 71.6569 18.3431 73 20 73Z" fill="#FF6C4F"/>
</svg>
