<svg width="61" height="61" viewBox="0 0 61 61" fill="none" xmlns="http://www.w3.org/2000/svg">
<g clip-path="url(#clip0_227_705)">
<path d="M31.2234 11C27.7898 11 25 13.7898 25 17.2234C25 18.7256 25.5901 23.6346 26.5558 28.1948C28.3263 36.4569 29.9626 37.5299 31.1966 37.5299C32.4305 37.5299 34.0937 36.4569 35.8373 28.1948C36.803 23.6614 37.3931 18.7524 37.3931 17.2234C37.4468 13.763 34.657 11 31.2234 11Z" fill="#71AD9F"/>
<path d="M31.1504 40C28.3069 40 26 42.3069 26 45.1504C26 47.9938 28.3069 50.3008 31.1504 50.3008C33.9938 50.3008 36.3008 47.9938 36.3008 45.1504C36.3008 42.3069 33.9938 40 31.1504 40Z" fill="#71AD9F"/>
<path d="M30.5 0C13.6807 0 0 13.6807 0 30.5C0 47.3193 13.6807 61 30.5 61C47.3193 61 61 47.3193 61 30.5C61 13.6807 47.3193 0 30.5 0ZM30.5 56.1715C16.3364 56.1715 4.8285 44.6636 4.8285 30.5C4.8285 16.3364 16.3364 4.8285 30.5 4.8285C44.6636 4.8285 56.1715 16.3364 56.1715 30.5C56.1715 44.6636 44.6636 56.1715 30.5 56.1715Z" fill="#71AD9F"/>
</g>
<defs>
<clipPath id="clip0_227_705">
<rect width="61" height="61" fill="white"/>
</clipPath>
</defs>
</svg>
