<svg width="230" height="53" viewBox="0 0 230 53" fill="none" xmlns="http://www.w3.org/2000/svg">
<path d="M218.917 12.5691C215.634 9.28054 211.659 5.6837 205.782 3.8339C198.178 1.3675 187.808 1.6758 179.685 1.26473C138.206 -0.687837 96.5537 -0.379537 55.0745 2.18963C38.6556 3.2173 20.5084 4.4505 8.58314 12.158C-1.78667 18.7351 -2.82366 27.9841 5.81785 35.4861C16.3605 44.6323 36.9273 48.1264 54.3831 49.8734C72.7031 51.826 91.196 51.6205 109.516 49.6679C110.207 51.1066 112.454 52.3398 115.738 51.9288C136.65 49.2568 157.563 46.5849 178.475 43.913C188.327 42.6798 198.351 41.4466 208.202 40.1106C214.078 39.2884 220.473 38.158 224.794 35.4861C234.818 29.2173 225.139 18.6323 218.917 12.5691ZM214.597 32.5058C208.548 34.7667 199.215 35.075 192.474 35.8971C183.66 37.0276 174.846 38.158 166.031 39.2884C151.168 41.1383 136.477 43.0908 121.614 44.9406C120.923 43.3991 118.676 42.1659 115.392 42.6798C87.2209 46.7904 51.0994 46.8932 25.5205 37.8497C11.3484 32.9169 4.60804 22.9485 17.7431 15.4466C28.9771 9.07501 47.1243 8.86948 61.8148 8.04734C93.0971 6.19754 124.725 5.78647 156.007 6.60861C163.785 6.81414 171.735 7.12244 179.512 7.43074C186.944 7.73904 197.141 7.22521 203.19 10.2054C208.029 12.5691 211.486 16.8853 214.078 20.1738C217.189 23.9762 222.028 29.7311 214.597 32.5058Z" fill="#71AD9F"/>
</svg>
