<svg width="15" height="15" viewBox="0 0 15 15" fill="none" xmlns="http://www.w3.org/2000/svg">
<path fill-rule="evenodd" clip-rule="evenodd" d="M1.41338 0.0593824C0.891704 0.196412 0.438927 0.561677 0.207743 1.03197C-0.0144659 1.484 0.000199399 1.02715 0.000199399 7.5C0.000199399 12.4877 0.00627084 13.3379 0.0431395 13.5147C0.185716 14.198 0.734551 14.7649 1.42491 14.942C1.64272 14.9979 1.76118 15 4.63236 15H7.61361L7.76282 14.9254C7.97374 14.8201 8.07413 14.6616 8.08818 14.4118C8.10156 14.1741 8.01973 13.9995 7.83304 13.8676L7.70812 13.7794L4.71158 13.7647L1.71502 13.75L1.59769 13.6867C1.45042 13.6072 1.36387 13.5149 1.30579 13.3755C1.26535 13.2785 1.26039 12.6384 1.26039 7.5C1.26039 2.36165 1.26535 1.72153 1.30579 1.62447C1.36387 1.48506 1.45042 1.39279 1.59769 1.31332L1.71502 1.25L4.71158 1.23529L7.70812 1.22059L7.83304 1.13235C8.01973 1.00047 8.10156 0.825941 8.08818 0.588235C8.07413 0.338441 7.97374 0.179941 7.76282 0.0745588L7.61361 0L4.62033 0.00161765C1.77195 0.00314706 1.61667 0.00597059 1.41338 0.0593824ZM10.4306 3.14621C10.0326 3.27362 9.85462 3.75403 10.0843 4.08068C10.1272 4.14168 10.7628 4.78674 11.4968 5.51418C12.2308 6.24162 12.8357 6.84706 12.8411 6.85959C12.8465 6.87212 11.1895 6.88235 9.15899 6.88235H5.46711L5.33794 6.94853C5.07848 7.08147 4.93989 7.37362 5.01008 7.63971C5.05765 7.82003 5.17577 7.96838 5.33794 8.05147L5.46711 8.11765H9.15899C11.1895 8.11765 12.8465 8.12788 12.8411 8.14041C12.8357 8.15294 12.2308 8.75838 11.4968 9.48582C10.7628 10.2133 10.1272 10.8583 10.0843 10.9193C9.72689 11.4276 10.333 12.0929 10.8903 11.8039C11.0079 11.7429 14.8886 7.89885 14.9519 7.78053C15.016 7.66094 15.016 7.33906 14.9519 7.21947C14.887 7.09821 11.0064 3.25629 10.8857 3.19368C10.7691 3.13321 10.5444 3.10976 10.4306 3.14621Z" fill="white"/>
</svg>
