<svg width="52" height="49" viewBox="0 0 52 49" fill="none" xmlns="http://www.w3.org/2000/svg">
<path d="M51.5339 14.4056C51.4126 11.7968 50.9676 10.0129 50.3305 8.4592C49.6732 6.80956 48.662 5.34215 47.3473 4.11451C46.0529 2.86769 44.4854 1.899 42.7764 1.29478C41.1281 0.690547 39.2572 0.268546 36.5066 0.153455C33.7357 0.0287728 32.8559 0 25.8378 0C18.8196 0 17.9398 0.0287728 15.1892 0.143864C12.4385 0.258955 10.5576 0.680956 8.91934 1.28518C7.17996 1.90859 5.63273 2.86769 4.33832 4.11451C3.02368 5.34215 2.0023 6.82874 1.3652 8.44961C0.728109 10.0129 0.283154 11.7873 0.161802 14.396C0.0303379 17.0239 0 17.8583 0 24.5048C0 31.1513 0.0303379 31.9953 0.151689 34.6041C0.273041 37.2128 0.717996 38.9967 1.35509 40.5504C2.01241 42.2001 3.03379 43.6675 4.33832 44.8951C5.63273 46.142 7.20019 47.1106 8.90922 47.7149C10.5576 48.3191 12.4284 48.7411 15.1791 48.8562C17.9297 48.9713 18.8095 49.0001 25.8276 49.0001C32.8458 49.0001 33.7256 48.9713 36.4762 48.8562C39.2269 48.7411 41.1078 48.3191 42.7461 47.7149C46.2147 46.4393 48.9653 43.8401 50.3103 40.5409C50.9474 38.9775 51.3924 37.2032 51.5137 34.5945C51.6351 31.9762 51.6654 31.1513 51.6654 24.4952C51.6654 17.8391 51.6553 17.0239 51.5339 14.4056ZM46.8821 34.4218C46.7709 36.8196 46.3462 38.1048 45.9922 38.9679C45.1225 41.1067 43.3326 42.7947 41.0876 43.6195C40.1775 43.9552 38.8021 44.3581 36.2942 44.4636C33.5638 44.5786 32.7548 44.6074 25.858 44.6074C18.9612 44.6074 18.1319 44.5786 15.4218 44.4636C12.8936 44.3581 11.5385 43.9552 10.6284 43.6195C9.50587 43.2263 8.48449 42.6029 7.66537 41.7877C6.8058 40.9916 6.14848 40.0325 5.73386 38.9775C5.37992 38.1144 4.95519 36.81 4.84395 34.4314C4.7226 31.8419 4.69226 31.0746 4.69226 24.5336C4.69226 17.9926 4.7226 17.2061 4.84395 14.6358C4.95519 12.238 5.37992 10.9528 5.73386 10.0897C6.13836 9.01547 6.79568 8.05638 7.66537 7.26993C8.50472 6.4547 9.51598 5.83129 10.6284 5.43806C11.5385 5.10237 12.9138 4.69956 15.4218 4.59406C18.1522 4.47896 18.9612 4.45019 25.858 4.45019C32.7649 4.45019 33.584 4.47896 36.2942 4.59406C38.8224 4.69956 40.1775 5.10237 41.0876 5.43806C42.2101 5.83129 43.2315 6.4547 44.0506 7.26993C44.9102 8.06597 45.5675 9.02506 45.9821 10.0897C46.3361 10.9528 46.7608 12.2572 46.872 14.6358C46.9934 17.2253 47.0237 17.9926 47.0237 24.5336C47.0237 31.0746 47.0035 31.8323 46.8821 34.4218Z" fill="#DD8178"/>
<path d="M25.8374 11.9216C18.5058 11.9216 12.5596 17.5611 12.5596 24.5145C12.5596 31.4679 18.5058 37.1074 25.8374 37.1074C33.1691 37.1074 39.1153 31.4679 39.1153 24.5145C39.1153 17.5611 33.1691 11.9216 25.8374 11.9216ZM25.8374 32.6764C21.0845 32.6764 17.2215 29.0223 17.2215 24.5049C17.2215 19.9876 21.0744 16.3335 25.8374 16.3335C30.5904 16.3335 34.4534 19.9876 34.4534 24.5049C34.4534 29.0223 30.6005 32.6764 25.8374 32.6764Z" fill="#DD8178"/>
<path d="M42.746 11.4226C42.746 13.0435 41.3606 14.3575 39.6516 14.3575C37.9425 14.3575 36.5571 13.0435 36.5571 11.4226C36.5571 9.80179 37.9425 8.48784 39.6516 8.48784C41.3505 8.47825 42.746 9.80179 42.746 11.4226Z" fill="#DD8178"/>
</svg>
