<svg width="266" height="42" viewBox="0 0 266 42" fill="none" xmlns="http://www.w3.org/2000/svg">
<path fill-rule="evenodd" clip-rule="evenodd" d="M22.4061 4.33927C20.8672 6.88646 19.6374 9.06378 19.6732 9.17803C19.8599 9.77446 30.8361 27.6784 31.3129 28.1645C31.6215 28.479 32.3646 28.9373 32.9641 29.1831C33.972 29.5963 34.4054 29.6258 38.7204 29.5724L43.3867 29.5147L38.5971 21.6135C35.9627 17.2678 32.004 10.7333 29.7998 7.09231C27.5959 3.45134 25.6601 0.300458 25.4981 0.0903276C25.2357 -0.250493 24.9 0.210768 22.4061 4.33927ZM167.031 1.03933C162.138 1.57063 158.703 6.46385 159.511 11.7498C160.013 15.0333 161.827 17.5621 164.602 18.8466C165.817 19.4088 166.161 19.4671 168.295 19.4723C170.41 19.4774 170.784 19.4176 171.992 18.8797C175.097 17.498 176.898 14.7426 177.186 10.9362C177.343 8.86369 177.021 7.2418 176.106 5.49755C174.395 2.23455 171.069 0.600705 167.031 1.03933ZM224.25 1.03997C221.533 1.38955 219.057 3.22477 217.772 5.84221C215.379 10.7149 217.368 16.8249 222.025 18.9038C223.165 19.4131 223.575 19.4774 225.663 19.4757C227.777 19.474 228.158 19.4116 229.413 18.8611C233.324 17.1457 235.431 12.2913 234.281 7.64476C233.14 3.03044 229.158 0.408726 224.25 1.03997ZM63.1946 10.2955V19.1577H64.7955H66.3965L66.2555 11.8437C66.1558 6.67248 66.1833 4.68607 66.349 5.06362C66.4778 5.35725 67.2868 8.14403 68.1464 11.2565C69.0063 14.3689 69.8614 17.4244 70.047 18.0462L70.384 19.1769L71.8863 19.1139L73.3887 19.0509L75.3103 12.1107C76.3671 8.29352 77.3009 5.02625 77.3854 4.85007C77.4699 4.6739 77.4829 7.82094 77.4138 11.8437L77.2888 19.1577H78.8693H80.4499V10.2955V1.43332H77.9848C76.6291 1.43332 75.5198 1.49162 75.5198 1.56295C75.5198 1.96911 72.0909 14.1714 71.9332 14.3266C71.8269 14.4313 71.643 14.1481 71.5168 13.686C70.464 9.83063 68.6963 3.46351 68.4261 2.55444L68.0929 1.43332H65.6437H63.1946V10.2955ZM84.9318 10.2955V19.1577H86.6125H88.2932V18.1056V17.0534L92.3829 12.4092C94.6324 9.85476 96.5988 7.7257 96.7527 7.67765C96.9721 7.60953 97.0329 8.84319 97.0329 13.3742V19.1577H98.7136H100.394V10.2955V1.43332H98.7136H97.0329V2.352C97.0329 3.22797 96.8551 3.47355 93.2098 7.63729C91.1069 10.0388 89.1405 12.242 88.84 12.5328L88.2932 13.062V7.24756V1.43332H86.6125H84.9318V10.2955ZM104.876 10.3049V19.1765L106.501 19.1137L108.126 19.0509L108.167 15.1003L108.208 11.1497L112.369 11.0916L116.529 11.0335V15.0956V19.1577H118.21H119.89V10.2955V1.43332H118.21H116.529V4.7433V8.05328H112.383H108.238L108.211 4.90346C108.196 3.17095 108.196 1.68168 108.211 1.59348C108.226 1.50529 107.481 1.43332 106.557 1.43332H104.876V10.3049ZM124.372 10.2955V19.1577H125.941H127.51V11.6836V4.20943H131.655H135.801V11.6836V19.1577H137.37H138.938V10.2955V1.43332H131.655H124.372V10.2955ZM143.644 10.2804V19.1577H145.189C146.391 19.1577 146.764 19.0828 146.87 18.8199C146.945 18.6341 147.006 17.2407 147.006 15.7235V12.9649H149.654C153.115 12.9649 154.325 12.6317 155.723 11.2938C156.916 10.1524 157.314 9.14407 157.314 7.26572C157.314 4.88253 156.214 3.09365 154.079 2.00456C153.241 1.57704 152.79 1.53455 148.406 1.47155L143.644 1.403V10.2804ZM180.844 10.2955V19.1577H182.413H183.982L183.834 11.8971C183.752 7.90379 183.733 4.63653 183.793 4.63653C183.852 4.63653 184.801 7.90379 185.902 11.8969L187.903 19.1573L189.401 19.1575C190.632 19.1577 190.919 19.0913 191.018 18.784C191.084 18.5784 191.959 15.4313 192.964 11.7903C193.968 8.14937 194.877 5.02625 194.984 4.85007C195.094 4.66813 195.116 7.68982 195.034 11.8437L194.89 19.1577H196.495H198.099V10.2955V1.43332H195.643H193.187L192.925 2.3409C192.781 2.83996 191.991 5.72818 191.17 8.75883C190.349 11.7895 189.586 14.2692 189.474 14.2694C189.253 14.2696 189.182 14.0386 187.106 6.50506L185.708 1.43332H183.276H180.844V10.2955ZM201.013 2.82138V4.20943H203.59H206.167V11.6836V19.1577H207.848H209.528V11.6836V4.20943H212.105H214.682V2.82138V1.43332H207.848H201.013V2.82138ZM238.212 10.2955V19.1577H239.893H241.574V16.0613V12.9649H244.347C248.397 12.9649 250.24 12.2226 251.344 10.1477C252.619 7.74918 252.219 4.9372 250.348 3.15472C248.724 1.60694 247.948 1.43332 242.654 1.43332H238.212V10.2955ZM255.019 10.2955V19.1577H256.588H258.157V11.6836V4.20943H262.078H266V2.82138V1.43332H260.51H255.019V10.2955ZM171.304 4.60428C171.853 4.98375 172.521 5.76576 172.998 6.58856C173.728 7.84806 173.789 8.09449 173.832 9.98886C173.907 13.2681 173.142 14.8033 170.773 16.1273C169.956 16.5843 169.507 16.681 168.258 16.6701C167.422 16.6628 166.6 16.5477 166.431 16.4143C166.263 16.2808 166.079 16.2153 166.023 16.2682C165.925 16.3624 164.394 15.0311 163.902 14.4232C163.299 13.6783 162.829 11.7442 162.848 10.082C162.873 7.81496 163.475 6.20247 164.7 5.12277C165.894 4.06977 166.912 3.76504 168.841 3.88292C170.112 3.96044 170.562 4.09241 171.304 4.60428ZM228.254 4.33649C230.105 5.47064 231.143 7.44702 231.241 10.0262C231.395 14.0642 229.259 16.5951 225.697 16.5951C224.931 16.5951 223.976 16.4647 223.576 16.3054C222.514 15.8825 221.413 14.7384 220.773 13.3947C219.997 11.7613 219.965 8.69712 220.709 7.07117C221.31 5.75872 222.796 4.32325 223.87 4.01809C225.051 3.68261 227.473 3.85858 228.254 4.33649ZM152.242 4.29037C153.461 4.77576 153.953 5.56503 153.953 7.03551C153.953 9.71467 153.002 10.4215 149.191 10.5742L146.782 10.6707V7.3332V3.99589H149.142C150.641 3.99589 151.772 4.1033 152.242 4.29037ZM247.044 4.43109C248.161 4.96582 248.595 5.7412 248.595 7.19909C248.595 9.61537 247.436 10.4014 243.871 10.4019L241.574 10.4023V7.17538V3.94869L243.983 4.03368C245.482 4.08664 246.638 4.23677 247.044 4.43109ZM16.6489 13.8609C15.9179 15.0711 11.873 21.7476 7.65999 28.6977C3.44702 35.6478 0 41.3894 0 41.4571C0 41.5248 2.54616 41.5793 5.65838 41.5782L11.3168 41.5763L16.8736 32.3989C19.9298 27.3513 22.5383 22.9266 22.6701 22.5663C22.8018 22.2059 22.8677 21.3577 22.8164 20.6812C22.733 19.5833 22.4737 19.0388 20.4056 15.6207C19.1312 13.5141 18.0636 11.7611 18.0333 11.7254C18.0028 11.6898 17.3801 12.6507 16.6489 13.8609ZM85.1252 23.7515C79.2355 25.5462 77.0356 33.6445 81.0292 38.8286C82.0447 40.1472 84.0434 41.4368 85.6347 41.8007C87.4313 42.2114 90.2748 41.9647 91.7678 41.2686C94.9046 39.8062 96.8126 36.531 96.8061 32.6197C96.7998 28.7996 94.9114 25.6329 91.7646 24.1658C90.6264 23.6351 90.1323 23.5388 88.3006 23.4908C86.88 23.4536 85.8163 23.541 85.1252 23.7515ZM104.852 23.9313C103.272 24.5506 102.397 25.1421 101.56 26.1554C99.5586 28.5792 98.8498 31.8447 99.5965 35.2017C100.228 38.04 101.948 40.2423 104.384 41.3303C105.513 41.8347 105.932 41.9005 108.013 41.9005C110.075 41.9005 110.519 41.8323 111.599 41.3493C113.082 40.6864 114.625 39.2683 115.466 37.7957L116.082 36.7147L114.623 36.1577C112.849 35.4812 112.801 35.4793 112.639 36.0813C112.439 36.8294 111.197 38.1322 110.242 38.5967C109.697 38.8615 108.936 39.0159 108.191 39.0129C104.903 38.9998 102.957 36.5169 103.004 32.3976C103.027 30.4095 103.412 29.1301 104.333 27.9791C105.418 26.6239 107.695 25.9342 109.53 26.4049C110.664 26.6957 112.01 27.8969 112.196 28.7829C112.277 29.1679 112.467 29.4069 112.691 29.4054C113.139 29.4024 115.412 28.8348 115.567 28.6877C115.833 28.4338 114.455 26.136 113.513 25.2632C112.085 23.9407 110.555 23.4272 108.061 23.4338C106.543 23.4376 105.829 23.5484 104.852 23.9313ZM124.221 23.7359C120.6 24.8148 118.322 28.2843 118.322 32.7179C118.322 36.786 120.126 39.8833 123.312 41.2854C124.556 41.8334 124.953 41.9005 126.949 41.9005C128.946 41.9005 129.343 41.8334 130.587 41.2854C131.434 40.9128 132.375 40.2728 132.976 39.661C134.075 38.5416 135.043 36.9163 134.755 36.6765C134.652 36.5912 133.97 36.2959 133.238 36.0202C132.277 35.6578 131.883 35.5908 131.817 35.7785C131.767 35.9211 131.408 36.4866 131.019 37.035C129.37 39.358 125.858 39.7415 123.835 37.8196C122.165 36.2327 121.463 32.873 122.235 30.1564C122.923 27.7333 124.885 26.1956 127.269 26.2095C128.946 26.2193 130.955 27.6193 131.24 28.9766L131.361 29.5532L132.853 29.1596C133.673 28.9431 134.42 28.7423 134.512 28.7133C134.605 28.6842 134.393 28.0818 134.042 27.3746C133.233 25.7448 131.57 24.2805 129.97 23.788C128.573 23.358 125.58 23.3311 124.221 23.7359ZM63.1946 32.7179V41.5801H64.8753H66.556V38.4837V35.3873H69.3487C71.5934 35.3873 72.3769 35.3033 73.3402 34.96C75.7096 34.1152 76.9365 32.3203 76.9381 29.6965C76.9399 27.0038 75.6572 25.2056 73.0655 24.267C72.0851 23.9121 71.3313 23.8557 67.562 23.8557H63.1946V32.7179ZM137.818 32.7179V41.5801H139.499H141.179V40.5096V39.4391L145.381 34.6349L149.583 29.831L149.643 35.7055L149.702 41.5801H151.379H153.056V32.7179V23.8557H151.376H149.695V24.8765C149.695 25.8889 149.661 25.9368 145.493 30.679L141.291 35.4605L141.232 29.658L141.172 23.8557H139.495H137.818V32.7179ZM157.538 32.7179V41.5801H159.219H160.9V40.5431C160.9 39.5104 160.916 39.4876 165.054 34.7774C167.338 32.1766 169.305 30.0486 169.423 30.0486C169.557 30.0486 169.639 32.2565 169.639 35.8144V41.5801H171.32H173.001V32.7179V23.8557H171.32H169.639V24.7753C169.639 25.6549 169.461 25.8987 165.509 30.4127C163.237 33.0077 161.27 35.1942 161.139 35.2717C160.972 35.3702 160.9 33.6738 160.9 29.6341V23.8557H159.219H157.538V32.7179ZM89.4932 26.4356C90.6775 26.7491 92.1722 28.1239 92.7883 29.4663C93.4964 31.0091 93.6497 33.842 93.1092 35.3928C92.6402 36.7388 91.4231 38.0874 90.198 38.6191C88.9717 39.1512 86.7465 39.147 85.6511 38.6101C83.652 37.6302 82.652 35.8195 82.5154 32.9315C82.4396 31.3363 82.5071 30.8003 82.9111 29.7782C83.1789 29.1011 83.6542 28.2569 83.9675 27.902C85.2181 26.4858 87.447 25.8943 89.4932 26.4356ZM72.0002 26.9445C72.4679 27.1565 72.9972 27.6007 73.1767 27.9313C73.6594 28.8207 73.5939 30.6512 73.0489 31.5029C72.3939 32.5266 71.437 32.8247 68.8041 32.8247H66.556V29.5935V26.3624L68.853 26.4606C70.4257 26.5279 71.418 26.6805 72.0002 26.9445ZM20.9338 32.6152C20.4305 32.8531 19.7642 33.3101 19.4536 33.6304C18.8492 34.2536 14.4933 41.3685 14.6343 41.5026C14.6804 41.5466 22.8011 41.5581 32.6804 41.528L50.6424 41.4734L47.8598 36.8821L45.0773 32.2908L33.4633 32.2366C22.1883 32.1839 21.8225 32.195 20.9338 32.6152Z" fill="white"/>
</svg>
