<svg width="52" height="84" viewBox="0 0 52 84" fill="none" xmlns="http://www.w3.org/2000/svg">
<g clip-path="url(#clip0_1_233)">
<path fill-rule="evenodd" clip-rule="evenodd" d="M0 0H52V84L26 77.7L0 84V0ZM34.1411 74.55L31.5931 72.5445L36.2918 66.0618L35.6387 60.9966L43.8058 58.9701L45.1131 57.688L36.6184 54.5139L37.857 52.5556L42.691 51.8217L45.3055 50.0661L44.3903 43.9215L39.0322 41.1526L34.3273 35.4805L34.9159 40.95L31.1823 45.1626L26.2943 47.6931L28.6468 39.9955L24.7915 30.136L7.28 27.3L12.116 34.6605L13.2257 42.0882L9.17488 53.1636L11.6584 66.129L22.9382 74.55H34.1411Z" fill="white"/>
</g>
<defs>
<clipPath id="clip0_1_233">
<rect width="52" height="84" fill="white"/>
</clipPath>
</defs>
</svg>
