<svg width="104" height="91" viewBox="0 0 104 91" fill="none" xmlns="http://www.w3.org/2000/svg">
<g clip-path="url(#clip0_227_710)">
<path d="M104.764 28.6014L77.0916 0.82959L27.8302 50.2676L55.5027 78.0394L104.764 28.6014Z" fill="#71AD9F"/>
<path d="M75.5492 21.7663C78.1791 21.7663 80.311 19.6267 80.311 16.9874C80.311 14.3481 78.1791 12.2085 75.5492 12.2085C72.9193 12.2085 70.7874 14.3481 70.7874 16.9874C70.7874 19.6267 72.9193 21.7663 75.5492 21.7663Z" fill="white"/>
<path d="M80.8499 27.3737L62.6562 45.6326L66.6741 49.6648L84.8677 31.406L80.8499 27.3737Z" fill="white"/>
<path d="M8.4834 65.4993C8.4834 65.4993 16.6465 60.2786 18.0071 57.0659C19.3676 53.8933 22.6488 37.9503 24.0494 36.5849C25.4899 35.2195 40.8558 21.0836 43.0167 20.8828C45.1775 20.6418 55.4214 22.4891 55.4214 22.4891L40.2156 37.7495C40.2156 37.7495 38.615 50.279 40.8959 52.0862C43.1767 53.8933 45.2175 53.8933 51.3399 48.6727C57.4622 43.452 65.3053 39.0747 69.5469 43.2111C73.7885 47.3475 68.1063 49.1546 64.9451 52.3272C61.7839 55.4997 54.341 61.885 53.3807 63.9331C52.4603 65.9812 47.4584 71.6837 45.4176 73.0491C43.3768 74.4145 29.5315 78.9525 29.5315 78.9525L25.69 83.0487L8.4834 65.4993Z" fill="#FCD7C3"/>
<path d="M63.9046 53.331C63.9046 53.331 58.9827 49.556 59.863 48.1906C60.7433 46.8252 64.1847 43.8535 66.4255 45.0181C68.7064 46.1425 69.8669 48.2709 69.8669 48.2709C69.8669 48.2709 66.1454 51.2427 63.9046 53.331Z" fill="#F9BFA0"/>
<path d="M19.3675 89.3133L1.08047 67.4669C-0.560165 65.4991 -0.320073 62.5274 1.64068 60.8809L1.9608 60.5997C3.92156 58.9532 6.8827 59.1942 8.52333 61.162L26.8104 83.0084C28.451 84.9762 28.2109 87.9479 26.2501 89.5944L25.93 89.8756C23.9693 91.5622 21.0081 91.3213 19.3675 89.3133Z" fill="#589387"/>
</g>
<defs>
<clipPath id="clip0_227_710">
<rect width="104" height="91" fill="white"/>
</clipPath>
</defs>
</svg>
