<svg width="150" height="150" viewBox="0 0 150 150" fill="none" xmlns="http://www.w3.org/2000/svg">
<path fill-rule="evenodd" clip-rule="evenodd" d="M0 20.9781V41.9561H20.9781H41.9561V20.9781V0H20.9781H0V20.9781ZM47.989 12.0658V24.1316H54.0219H60.0548V21.1152V18.0987H63.0713H66.0878V21.1152V24.1316H69.1042H72.1207V18.0987V12.0658H69.1042H66.0878V6.03291V0H57.0384H47.989V12.0658ZM72.1207 3.01645V6.03291H75H77.8793V17.9616V29.8903H71.9835H66.0878V32.9068V35.9232H63.0713H60.0548V38.9397V41.9561H57.0384H54.0219V35.9232V29.8903H51.0055H47.989V35.9232V41.9561H51.0055H54.0219V44.9726V47.989H57.0384H60.0548V44.9726V41.9561H63.0713H66.0878V38.9397V35.9232H69.1042H72.1207V41.9561V47.989H69.1042H66.0878V51.0055V54.0219H57.0384H47.989V63.0713V72.1207H38.9397H29.8903V75V77.8793H27.011H24.1316V71.9835V66.0878H33.0439H41.9561V63.0713V60.0548H38.9397H35.9232V57.0384V54.0219H38.9397H41.9561V51.0055V47.989H33.0439H24.1316V51.0055V54.0219H18.0987H12.0658V51.0055V47.989H6.03291H0V51.0055V54.0219H6.03291H12.0658V57.0384V60.0548H6.03291H0V71.9835V83.9122H9.04936H18.0987V86.9287V89.9452H21.1152H24.1316V86.9287V83.9122H27.011H29.8903V80.8958V77.8793H38.9397H47.989V80.8958V83.9122H41.9561H35.9232V86.9287V89.9452H32.9068H29.8903V95.9781V102.011H38.9397H47.989V105.027V108.044H51.0055H54.0219V111.06V114.077H51.0055H47.989V119.973V125.868H51.0055H54.0219V128.885V131.901H57.0384H60.0548V128.885V125.868H63.0713H66.0878V122.989V120.11H69.1042H72.1207V122.989V125.868H75H77.8793V128.885V131.901H83.9122H89.9452V134.918V137.934H86.9287H83.9122V140.951V143.967H80.8958H77.8793V140.951V137.934H75H72.1207V140.951V143.967H69.1042H66.0878V146.984V150H69.1042H72.1207V146.984V143.967H75H77.8793V146.984V150H83.9122H89.9452V146.984V143.967H92.9616H95.9781V146.984V150H122.989H150V146.984V143.967H146.984H143.967V137.934V131.901H146.984H150V122.989V114.077H146.984H143.967V119.973V125.868H140.951H137.934V128.885V131.901H131.901H125.868V128.885V125.868H128.885H131.901V122.989V120.11H128.885H125.868V114.077V108.044H128.885H131.901V98.9945V89.9452H134.918H137.934V86.9287V83.9122H143.967H150V75V66.0878H146.984H143.967V63.0713V60.0548H129.022H114.077V57.0384V54.0219H117.093H120.11V51.0055V47.989H117.093H114.077V51.0055V54.0219H108.044H102.011V44.9726V35.9232H98.9945H95.9781V30.0274V24.1316H92.9616H89.9452V27.011V29.8903H86.9287H83.9122V20.9781V12.0658H89.9452H95.9781V15.0823V18.0987H98.9945H102.011V15.0823V12.0658H98.9945H95.9781V9.04936V6.03291H98.9945H102.011V3.01645V0H98.9945H95.9781V3.01645V6.03291H89.9452H83.9122V3.01645V0H78.0164H72.1207V3.01645ZM108.044 20.9781V41.9561H129.022H150V20.9781V0H129.022H108.044V20.9781ZM35.9232 20.9781V35.9232H20.9781H6.03291V20.9781V6.03291H20.9781H35.9232V20.9781ZM143.967 20.9781V35.9232H129.022H114.077V20.9781V6.03291H129.022H143.967V20.9781ZM12.0658 20.9781V29.8903H20.9781H29.8903V20.9781V12.0658H20.9781H12.0658V20.9781ZM60.0548 15.0823V18.0987H57.0384H54.0219V15.0823V12.0658H57.0384H60.0548V15.0823ZM120.11 20.9781V29.8903H129.022H137.934V20.9781V12.0658H129.022H120.11V20.9781ZM83.9122 38.9397V41.9561H86.9287H89.9452V38.9397V35.9232H92.9616H95.9781V38.9397V41.9561H92.9616H89.9452V44.9726V47.989H92.9616H95.9781V57.0384V66.0878H92.9616H89.9452V71.9835V77.8793H92.9616H95.9781V75V72.1207H102.011H108.044V66.0878V60.0548H111.06H114.077V63.0713V66.0878H126.005H137.934V69.1042V72.1207H140.951H143.967V75V77.8793H140.951H137.934V80.8958V83.9122H131.901H125.868V89.9452V95.9781H119.973H114.077V89.9452V83.9122H111.06H108.044V80.8958V77.8793H105.027H102.011V83.9122V89.9452H105.027H108.044V92.9616V95.9781H105.027H102.011V92.9616V89.9452H92.9616H83.9122V92.9616V95.9781H80.8958H77.8793V98.9945V102.011H83.9122H89.9452V98.9945V95.9781H92.9616H95.9781V98.9945V102.011H92.9616H89.9452V105.027V108.044H83.9122H77.8793V105.027V102.011H75H72.1207V105.027V108.044H69.1042H66.0878V114.077V120.11H63.0713H60.0548V122.989V125.868H57.0384H54.0219V119.973V114.077H57.0384H60.0548V111.06V108.044H57.0384H54.0219V98.9945V89.9452H51.0055H47.989V92.9616V95.9781H41.9561H35.9232V92.9616V89.9452H41.9561H47.989V86.9287V83.9122H51.0055H54.0219V86.9287V89.9452H57.0384H60.0548V95.9781V102.011H66.0878H72.1207V98.9945V95.9781H69.1042H66.0878V89.9452V83.9122H63.0713H60.0548V80.8958V77.8793H54.0219H47.989V75V72.1207H51.0055H54.0219V66.0878V60.0548H60.0548H66.0878V57.0384V54.0219H69.1042H72.1207V51.0055V47.989H75H77.8793V41.9561V35.9232H80.8958H83.9122V38.9397ZM77.8793 51.0055V54.0219H75H72.1207V57.0384V60.0548H69.1042H66.0878V63.0713V66.0878H63.0713H60.0548V71.9835V77.8793H63.0713H66.0878V75V72.1207H69.1042H72.1207V75V77.8793H75H77.8793V80.8958V83.9122H83.9122H89.9452V80.8958V77.8793H86.9287H83.9122V71.9835V66.0878H86.9287H89.9452V57.0384V47.989H83.9122H77.8793V51.0055ZM125.868 51.0055V54.0219H137.934H150V51.0055V47.989H137.934H125.868V51.0055ZM83.9122 57.0384V60.0548H80.8958H77.8793V57.0384V54.0219H80.8958H83.9122V57.0384ZM18.0987 63.0713V66.0878H15.0823H12.0658V69.1042V72.1207H15.0823H18.0987V75V77.8793H21.1152H24.1316V80.8958V83.9122H21.1152H18.0987V80.8958V77.8793H15.0823H12.0658V75V72.1207H9.04936H6.03291V69.1042V66.0878H9.04936H12.0658V63.0713V60.0548H15.0823H18.0987V63.0713ZM77.8793 69.1042V72.1207H75H72.1207V69.1042V66.0878H75H77.8793V69.1042ZM125.868 75V77.8793H128.885H131.901V75V72.1207H128.885H125.868V75ZM114.077 80.8958V83.9122H117.093H120.11V80.8958V77.8793H117.093H114.077V80.8958ZM72.1207 92.9616V95.9781H75H77.8793V92.9616V89.9452H75H72.1207V92.9616ZM0 98.9945V102.011H12.0658H24.1316V98.9945V95.9781H12.0658H0V98.9945ZM143.967 98.9945V102.011H140.951H137.934V105.027V108.044H143.967H150V102.011V95.9781H146.984H143.967V98.9945ZM120.11 111.06V120.11H111.06H102.011V111.06V102.011H111.06H120.11V111.06ZM0 129.022V150H20.9781H41.9561V129.022V108.044H20.9781H0V129.022ZM108.044 111.06V114.077H111.06H114.077V111.06V108.044H111.06H108.044V111.06ZM35.9232 129.022V143.967H20.9781H6.03291V129.022V114.077H20.9781H35.9232V129.022ZM77.8793 117.093V120.11H75H72.1207V117.093V114.077H75H77.8793V117.093ZM95.9781 117.093V120.11H92.9616H89.9452V122.989V125.868H86.9287H83.9122V119.973V114.077H89.9452H95.9781V117.093ZM12.0658 129.022V137.934H20.9781H29.8903V129.022V120.11H20.9781H12.0658V129.022ZM120.11 128.885V131.901H117.093H114.077V134.918V137.934H119.973H125.868V140.951V143.967H116.956H108.044V140.951V137.934H105.027H102.011V134.918V131.901H105.027H108.044V128.885V125.868H114.077H120.11V128.885ZM47.989 143.967V150H51.0055H54.0219V143.967V137.934H51.0055H47.989V143.967ZM137.934 140.951V143.967H134.918H131.901V140.951V137.934H134.918H137.934V140.951Z" fill="white"/>
</svg>
