<svg width="26" height="26" viewBox="0 0 26 26" fill="none" xmlns="http://www.w3.org/2000/svg">
<g clip-path="url(#clip0_1006_26)">
<path d="M21.5657 16.2223C22.0101 15.0359 21.7106 13.8864 20.8074 13.2746L17.3589 10.9385L18.1318 7.67563C18.3491 6.4706 17.9241 5.50654 17.103 4.95032C16.282 4.39411 15.1034 4.54236 14.292 5.20972L11.9204 7.11913L9.12876 5.22799C8.12415 4.41222 6.53025 4.81999 5.71396 6.02499C4.83488 7.32268 5.11016 8.86144 6.11477 9.67722L7.59272 10.6784L4.47251 13.1625C3.66106 13.8298 3.21668 15.0163 3.41469 15.9618C3.49195 16.5551 3.85902 17.0742 4.26956 17.3523C4.59799 17.5748 4.98922 17.7046 5.44323 17.7417L10.7707 17.8347L10.4277 19.2251C10.0848 20.6155 10.9396 22.006 12.3017 22.1173C13.6009 22.3213 15.0355 21.2646 15.2963 19.8186L15.7262 17.9462L18.9478 17.9649C20.0828 18.0576 21.102 17.2605 21.5657 16.2223Z" fill="#FDCA15"/>
</g>
<defs>
<clipPath id="clip0_1006_26">
<rect width="18.8431" height="17.4655" fill="white" transform="translate(9.79541) rotate(34.1145)"/>
</clipPath>
</defs>
</svg>
