<svg width="47" height="46" viewBox="0 0 47 46" fill="none" xmlns="http://www.w3.org/2000/svg">
<g clip-path="url(#clip0_1006_8)">
<path d="M40.0513 29.9027C40.7671 27.8325 40.1103 25.7616 38.3847 24.5927L31.7963 20.1295L32.9338 14.3963C33.228 12.2728 32.3554 10.5203 30.7868 9.45767C29.2181 8.39501 27.0513 8.55312 25.61 9.66726L21.3939 12.8505L16.0604 9.23742C14.1289 7.69675 11.217 8.27919 9.81484 10.349C8.30486 12.578 8.95186 15.3391 10.8833 16.8797L13.7069 18.7925L8.15743 22.9307C6.71613 24.0448 6.00033 26.115 6.45127 27.8141C6.64733 28.876 7.37283 29.8321 8.15717 30.3634C8.78465 30.7885 9.51998 31.0543 10.3632 31.1609L20.2265 31.8033L19.7166 34.2452C19.2067 36.6871 20.9126 39.2364 23.4421 39.5563C25.8638 40.0354 28.4229 38.2848 28.7759 35.7366L29.4035 32.4453L35.3647 32.7671C37.4726 33.0336 39.2865 31.7073 40.0513 29.9027Z" fill="#FDCA15"/>
</g>
<defs>
<clipPath id="clip0_1006_8">
<rect width="36" height="30" fill="white" transform="translate(16.8254) rotate(34.1145)"/>
</clipPath>
</defs>
</svg>
