<svg width="26" height="22" viewBox="0 0 26 22" fill="none" xmlns="http://www.w3.org/2000/svg">
<g clip-path="url(#clip0_1006_6)">
<path d="M25.7 8.2C25.3 6.8 24 5.8 22.6 5.8H16.9L15.2 2C14.6 0.7 13.4 0 12 0C10.7 0.1 9.5 0.9 9.1 2.2L7.9 5.6H3.3C1.5 5.6 0 7.1 0 8.8C0 10.6 1.4 12.1 3.2 12.1H5.6L4 16.8C3.6 18.1 4 19.5 5 20.4C5.6 20.9 6.3 21.1 7.1 21.1C7.7 21.1 8.2 21 8.7 20.7L14.7 17.2L15.4 18.8C16.1 20.4 18 21.2 19.7 20.5C21.3 19.8 22.1 17.9 21.4 16.2L20.4 14L24.1 11.9C25.4 11.1 26 9.6 25.7 8.2Z" fill="#517AE0"/>
</g>
<defs>
<clipPath id="clip0_1006_6">
<rect width="25.8" height="21.1" fill="white"/>
</clipPath>
</defs>
</svg>
