<svg width="24" height="22" viewBox="0 0 24 22" fill="none" xmlns="http://www.w3.org/2000/svg">
<path d="M4.65281 15.0782L6.75281 13.9782L7.45281 18.7782C7.65281 20.0782 8.65281 21.1782 9.95281 21.4782C10.1528 21.4782 10.4528 21.5782 10.6528 21.5782C11.7528 21.5782 12.7528 21.0782 13.3528 20.0782L17.0528 14.2782L18.3528 15.3782C19.7528 16.4782 21.7528 16.2782 22.8528 14.8782C23.9528 13.4782 23.7528 11.4782 22.3528 10.3782L20.4528 8.87818L22.7528 5.37818C23.5528 4.17818 23.4528 2.57818 22.4528 1.47818C21.4528 0.378183 19.8528 0.0781834 18.5528 0.778183L13.4528 3.37818L10.2528 0.778183C9.45281 -0.121817 7.95281 -0.221817 6.85281 0.378183C5.65281 1.07818 5.05281 2.37818 5.25281 3.67818L5.75281 7.27818L1.75281 9.37818C0.152809 10.1782 -0.447191 12.1782 0.352809 13.6782C1.15281 15.2782 3.05281 15.8782 4.65281 15.0782Z" fill="#B0D0C9"/>
</svg>
