<svg width="28" height="28" viewBox="0 0 28 28" fill="none" xmlns="http://www.w3.org/2000/svg">
<path d="M25.0455 26.7715C26.4186 25.6446 26.803 23.8005 26.0341 22.2638L22.9034 16.2704L26.1989 12.5822C27.2424 11.4041 27.4072 9.71364 26.6383 8.33057C25.8144 6.94749 24.2216 6.17912 22.5739 6.38402L18.0701 6.94749L15.5436 2.13235C15.5436 2.13235 15.5436 2.13235 15.5436 2.08113C14.5549 0.237029 12.1383 -0.531346 10.1061 0.390703C8.07386 1.31275 7.25 3.56665 8.23864 5.46197L9.55682 7.97199L3.51515 8.68915C1.8125 8.89405 0.494318 10.0722 0.109849 11.609C-0.109848 12.4798 -6.22011e-07 13.4018 0.439393 14.1702C0.768939 14.7337 1.20833 15.2459 1.8125 15.6045L9.00758 20.0611L7.63447 21.5978C6.20644 23.1858 6.42614 25.5934 8.18371 26.9252C9.88636 28.2571 12.4678 28.0522 13.8958 26.413L15.8182 24.2615L20.2121 26.9764C21.6402 28.0009 23.6723 27.8985 25.0455 26.7715Z" fill="#F9AE16"/>
</svg>
