<svg width="16" height="16" viewBox="0 0 16 16" fill="none" xmlns="http://www.w3.org/2000/svg">
<g clip-path="url(#clip0_16_22563)">
<path d="M15.6431 2.08221C15.6722 1.90736 15.6066 1.73016 15.4707 1.61645C15.3347 1.50274 15.1487 1.46952 14.9817 1.52914L0.981738 6.52914C0.793111 6.5965 0.662889 6.76994 0.650816 6.96987C0.638743 7.1698 0.747149 7.35765 0.9263 7.44722L4.9263 9.44722C5.08678 9.52746 5.27796 9.51556 5.42725 9.41603L8.74765 7.20244L6.75947 9.68766C6.67193 9.79709 6.63432 9.93824 6.65582 10.0767C6.67732 10.2152 6.75595 10.3383 6.87255 10.416L12.8726 14.416C13.0137 14.5101 13.193 14.5262 13.3487 14.4588C13.5044 14.3914 13.6152 14.2496 13.6431 14.0822L15.6431 2.08221Z" fill="white"/>
</g>
<defs>
<clipPath id="clip0_16_22563">
<rect width="15" height="15" fill="white" transform="translate(0.649902 0.5)"/>
</clipPath>
</defs>
</svg>
