<svg width="18" height="18" viewBox="0 0 18 18" fill="none" xmlns="http://www.w3.org/2000/svg">
<g clip-path="url(#clip0_16_22559)">
<path d="M16.5326 11.6702C16.1734 11.2389 15.7651 10.8524 15.3703 10.4787C15.2299 10.3457 15.0848 10.2083 14.9449 10.0716C14.5432 9.67886 14.5285 9.53131 14.8466 9.08518C15.0666 8.77766 15.2999 8.46973 15.5256 8.17193C15.7302 7.90175 15.9419 7.62234 16.1447 7.34203L16.1863 7.2844C16.574 6.74798 16.975 6.1933 17.1883 5.52417C17.2437 5.34764 17.3019 5.08785 17.1689 4.87063C17.036 4.65358 16.7781 4.58736 16.5956 4.55643C16.5054 4.54113 16.4158 4.53904 16.3326 4.53904L13.7938 4.53722L13.7728 4.53704C13.3889 4.53704 13.1302 4.71793 12.982 5.09012C12.8405 5.44574 12.685 5.82443 12.5076 6.18449C12.1546 6.90149 11.7062 7.7273 11.0575 8.41605L11.03 8.44534C10.9534 8.52768 10.8666 8.62092 10.8032 8.62092C10.7934 8.62092 10.7829 8.61906 10.7709 8.61529C10.6365 8.56293 10.5463 8.23761 10.5504 8.08628C10.5504 8.08419 10.5505 8.0821 10.5505 8.08001L10.5487 5.14562C10.5487 5.13545 10.548 5.12537 10.5467 5.11529C10.4821 4.63827 10.339 4.34134 9.79845 4.23547C9.7841 4.23261 9.76943 4.2312 9.75481 4.2312H7.11491C6.68481 4.2312 6.44782 4.40601 6.22505 4.66766C6.16492 4.7376 6.03975 4.88321 6.10179 5.05983C6.16474 5.23909 6.36907 5.27742 6.43561 5.28987C6.76588 5.35273 6.95204 5.55474 7.00477 5.90772C7.09683 6.52067 7.10814 7.1749 7.04038 7.96665C7.02148 8.18669 6.98411 8.35664 6.92252 8.50184C6.90821 8.53572 6.85748 8.64631 6.80575 8.64636C6.78931 8.64636 6.74176 8.63991 6.65515 8.58023C6.45037 8.43994 6.30054 8.23974 6.12586 7.99245C5.53163 7.15264 5.03291 6.2275 4.60099 5.16352C4.44081 4.77184 4.14164 4.55257 3.75823 4.54612C3.33695 4.53972 2.95499 4.53663 2.5907 4.53663C2.19267 4.53663 1.82366 4.54031 1.46332 4.5478C1.15485 4.55325 0.941479 4.64572 0.829209 4.82285C0.716756 5.00011 0.724069 5.23296 0.850963 5.51482C1.86676 7.77308 2.78777 9.41504 3.83735 10.8389C4.57279 11.8353 5.31045 12.525 6.15856 13.0091C7.05209 13.5203 8.05345 13.7688 9.21975 13.7688C9.35196 13.7688 9.48867 13.7656 9.6265 13.7592C10.3042 13.7261 10.5556 13.4808 10.5874 12.821C10.6026 12.4838 10.6394 12.1301 10.8052 11.8285C10.9099 11.6385 11.0074 11.6385 11.0395 11.6385C11.1012 11.6385 11.1778 11.6669 11.2601 11.7202C11.4076 11.8165 11.5341 11.9454 11.6377 12.0581C11.7353 12.1652 11.8319 12.2733 11.9285 12.3815C12.1369 12.615 12.3525 12.8564 12.5776 13.0853C13.0705 13.5868 13.6135 13.8073 14.2371 13.7594H16.5648C16.5697 13.7594 16.5747 13.7593 16.5797 13.7589C16.8116 13.7436 17.0125 13.615 17.1308 13.406C17.2774 13.147 17.2744 12.8167 17.1229 12.5221C16.951 12.1891 16.728 11.9045 16.5326 11.6702Z" fill="white"/>
</g>
<defs>
<clipPath id="clip0_16_22559">
<rect width="16.5" height="16.5" fill="white" transform="translate(0.75 0.75)"/>
</clipPath>
</defs>
</svg>
