<svg width="349" height="113" viewBox="0 0 349 113" fill="none" xmlns="http://www.w3.org/2000/svg" xmlns:xlink="http://www.w3.org/1999/xlink">
<path d="M174.5 113L148.086 75.5L200.914 75.5L174.5 113Z" fill="#E90C3B"/>
<path d="M14.9503 2.59714C15.5353 1.03507 17.0282 0 18.6962 0H330.483C332.176 0 333.686 1.0662 334.252 2.66194L347.925 41.1795C348.232 42.0451 348.232 42.9901 347.925 43.8556L334.252 82.3732C333.686 83.969 332.176 85.0352 330.483 85.0352H18.6962C17.0282 85.0352 15.5353 84.0001 14.9503 82.438L0.525374 43.9204C0.186613 43.0159 0.186613 42.0193 0.525374 41.1147L14.9503 2.59714Z" fill="url(#paint0_linear_2_302)"/>
<rect x="46.1997" y="15.0352" width="89" height="57" fill="url(#pattern0)"/>
<path d="M156.325 40.582H161.637C163.418 40.582 164.955 40.8789 166.247 41.4727C167.549 42.0664 168.543 42.8997 169.231 43.9727C169.929 45.0456 170.278 46.2956 170.278 47.7227C170.278 48.806 170.08 49.7956 169.684 50.6914C169.288 51.5768 168.715 52.3477 167.965 53.0039C167.215 53.6497 166.309 54.1497 165.247 54.5039C164.184 54.8581 162.981 55.0352 161.637 55.0352H153.262V32.2852H157.965V51.3789H161.637C162.523 51.3789 163.257 51.2122 163.84 50.8789C164.434 50.5456 164.877 50.1029 165.168 49.5508C165.46 48.9883 165.606 48.3685 165.606 47.6914C165.606 47.0456 165.46 46.4622 165.168 45.9414C164.877 45.4102 164.434 44.9935 163.84 44.6914C163.257 44.3893 162.523 44.2383 161.637 44.2383H156.325V40.582ZM176.965 32.2852V55.0352H172.293V32.2852H176.965ZM192.34 44.957V48.457H183.747V44.957H192.34ZM185.247 38.1289V55.0352H180.747V38.1289H185.247ZM195.387 38.1289V55.0352H190.872V38.1289H195.387ZM205.872 51.832C206.424 51.832 206.913 51.7279 207.34 51.5195C207.767 51.3008 208.101 50.9987 208.34 50.6133C208.59 50.2174 208.721 49.7539 208.731 49.2227H212.965C212.955 50.4102 212.637 51.4674 212.012 52.3945C211.387 53.3112 210.549 54.0352 209.497 54.5664C208.444 55.0872 207.267 55.3477 205.965 55.3477C204.653 55.3477 203.507 55.1289 202.528 54.6914C201.559 54.2539 200.752 53.6497 200.106 52.8789C199.46 52.0977 198.976 51.1914 198.653 50.1602C198.33 49.1185 198.168 48.0039 198.168 46.8164V46.3633C198.168 45.1654 198.33 44.0508 198.653 43.0195C198.976 41.9779 199.46 41.0716 200.106 40.3008C200.752 39.5195 201.559 38.9102 202.528 38.4727C203.497 38.0352 204.632 37.8164 205.934 37.8164C207.319 37.8164 208.533 38.082 209.575 38.6133C210.627 39.1445 211.45 39.9049 212.043 40.8945C212.648 41.8737 212.955 43.0352 212.965 44.3789H208.731C208.721 43.8164 208.601 43.306 208.372 42.8477C208.153 42.3893 207.83 42.0247 207.403 41.7539C206.986 41.4727 206.471 41.332 205.856 41.332C205.2 41.332 204.663 41.4727 204.247 41.7539C203.83 42.0247 203.507 42.3997 203.278 42.8789C203.049 43.3477 202.887 43.8841 202.793 44.4883C202.71 45.082 202.668 45.707 202.668 46.3633V46.8164C202.668 47.4727 202.71 48.1029 202.793 48.707C202.877 49.3112 203.033 49.8477 203.262 50.3164C203.502 50.7852 203.83 51.1549 204.247 51.4258C204.663 51.6966 205.205 51.832 205.872 51.832ZM224.7 51.2227V43.6914C224.7 43.1497 224.611 42.6862 224.434 42.3008C224.257 41.9049 223.981 41.5977 223.606 41.3789C223.241 41.1602 222.767 41.0508 222.184 41.0508C221.684 41.0508 221.252 41.1393 220.887 41.3164C220.523 41.4831 220.241 41.7279 220.043 42.0508C219.846 42.3633 219.747 42.7331 219.747 43.1602H215.247C215.247 42.4414 215.413 41.7591 215.747 41.1133C216.08 40.4674 216.564 39.8997 217.2 39.4102C217.835 38.9102 218.59 38.5195 219.465 38.2383C220.351 37.957 221.34 37.8164 222.434 37.8164C223.747 37.8164 224.913 38.0352 225.934 38.4727C226.955 38.9102 227.757 39.5664 228.34 40.4414C228.934 41.3164 229.231 42.4102 229.231 43.7227V50.957C229.231 51.8841 229.288 52.6445 229.403 53.2383C229.517 53.8216 229.684 54.332 229.903 54.7695V55.0352H225.356C225.137 54.5768 224.971 54.0039 224.856 53.3164C224.752 52.6185 224.7 51.9206 224.7 51.2227ZM225.293 44.7383L225.325 47.2852H222.809C222.215 47.2852 221.7 47.3529 221.262 47.4883C220.825 47.6237 220.465 47.8164 220.184 48.0664C219.903 48.306 219.694 48.5872 219.559 48.9102C219.434 49.2331 219.372 49.5872 219.372 49.9727C219.372 50.3581 219.46 50.707 219.637 51.0195C219.814 51.3216 220.069 51.5612 220.403 51.7383C220.736 51.9049 221.127 51.9883 221.575 51.9883C222.252 51.9883 222.84 51.8529 223.34 51.582C223.84 51.3112 224.226 50.9779 224.497 50.582C224.778 50.1862 224.924 49.8112 224.934 49.457L226.122 51.3633C225.955 51.7904 225.726 52.2331 225.434 52.6914C225.153 53.1497 224.793 53.582 224.356 53.9883C223.918 54.3841 223.392 54.7122 222.778 54.9727C222.163 55.2227 221.434 55.3477 220.59 55.3477C219.517 55.3477 218.543 55.1341 217.668 54.707C216.804 54.2695 216.116 53.6706 215.606 52.9102C215.106 52.1393 214.856 51.2643 214.856 50.2852C214.856 49.3997 215.023 48.6133 215.356 47.9258C215.689 47.2383 216.179 46.6602 216.825 46.1914C217.481 45.7122 218.299 45.3529 219.278 45.1133C220.257 44.8633 221.392 44.7383 222.684 44.7383H225.293ZM244.075 38.1289V41.6602H235.887V38.1289H244.075ZM237.184 38.1289V55.0352H232.684V38.1289H237.184ZM247.356 38.1289V55.0352H242.84V38.1289H247.356ZM255.793 32.2852V55.0352H251.106V32.2852H255.793ZM269.418 32.2852L260.403 43.5195L255.2 49.1133L254.356 44.6758L257.872 39.8633L263.668 32.2852H269.418ZM264.09 55.0352L257.387 44.5195L260.856 41.6133L269.637 55.0352H264.09ZM287.903 51.3789V55.0352H271.778V51.3789H287.903ZM287.668 34.8945L273.856 55.0352H270.559V52.3477L284.481 32.2852H287.668V34.8945ZM286.059 32.2852V35.957H270.575V32.2852H286.059Z" fill="white"/>
<defs>
<pattern id="pattern0" patternContentUnits="objectBoundingBox" width="1" height="1">
<use xlink:href="#image0_2_302" transform="scale(0.000806611 0.00125945)"/>
</pattern>
<linearGradient id="paint0_linear_2_302" x1="174.2" y1="0" x2="174.2" y2="85.0352" gradientUnits="userSpaceOnUse">
<stop offset="0.0001" stop-color="#FA436A"/>
<stop offset="1" stop-color="#E70636"/>
</linearGradient>
</svg>
