<svg width="14" height="14" viewBox="0 0 14 14" fill="none" xmlns="http://www.w3.org/2000/svg">
<path fill-rule="evenodd" clip-rule="evenodd" d="M6.47268 0.0131741C5.43517 0.112536 4.66351 0.331969 3.78988 0.776061C2.75498 1.30209 1.82632 2.13392 1.14919 3.14135C0.862485 3.56791 0.512133 4.28801 0.343911 4.79647C0.208129 5.20688 0.10027 5.67396 0.0343494 6.13698C-0.0114498 6.45873 -0.0114498 7.53874 0.0343494 7.86049C0.149053 8.6663 0.362171 9.37218 0.695139 10.0491C1.07185 10.8149 1.44085 11.3294 2.05003 11.9382C2.65257 12.5404 3.17544 12.9164 3.91307 13.278C4.42776 13.5303 4.76007 13.6531 5.28184 13.7839C6.651 14.1271 8.02418 14.0613 9.36186 13.5884C9.76734 13.445 10.4752 13.0905 10.8391 12.8485C11.6572 12.3045 12.4082 11.5351 12.9442 10.692C13.1413 10.3818 13.4582 9.7273 13.5875 9.36329C14.2306 7.55231 14.1186 5.6086 13.2735 3.91028C12.9324 3.2249 12.5526 2.68774 12.0195 2.13641C11.4282 1.52497 10.8483 1.10312 10.0726 0.720061C9.26166 0.319686 8.50613 0.10597 7.60876 0.0231048C7.32986 -0.00263843 6.69581 -0.00819197 6.47268 0.0131741ZM7.26503 2.9841C7.32917 3.018 7.42042 3.09922 7.46783 3.1646L7.55401 3.2835L7.5614 5.16161L7.56882 7.03972L9.00094 8.47601C10.2286 9.70722 10.4376 9.92838 10.465 10.0249C10.5139 10.1975 10.5036 10.3121 10.4251 10.4696C10.3023 10.7157 10.0448 10.8352 9.77268 10.7722C9.63873 10.7413 9.5874 10.6933 8.07896 9.19096C7.20757 8.32305 6.49997 7.59655 6.47016 7.53915C6.41858 7.43987 6.41716 7.37132 6.42428 5.35973L6.43161 3.28282L6.51374 3.1663C6.67958 2.93103 7.01206 2.8504 7.26503 2.9841Z" fill="white"/>
</svg>
