<svg width="11" height="14" viewBox="0 0 11 14" fill="none" xmlns="http://www.w3.org/2000/svg">
<path fill-rule="evenodd" clip-rule="evenodd" d="M5.07857 0.00823375C5.03993 0.0147175 4.89454 0.0338133 4.75547 0.0506931C2.8015 0.287858 1.05802 1.63788 0.355683 3.45764C-0.275767 5.09375 -0.0584188 6.90117 0.943726 8.34739C1.06226 8.5184 2.08183 9.86022 3.20944 11.3292L5.2597 14H5.5H5.7403L7.79056 11.3292C8.91817 9.86022 9.93774 8.5184 10.0563 8.34739C11.0584 6.90117 11.2758 5.09375 10.6443 3.45764C10.161 2.20537 9.17952 1.1554 7.91623 0.539167C7.49344 0.332916 6.89835 0.152026 6.34248 0.0608154C6.08852 0.0191495 5.22711 -0.0167166 5.07857 0.00823375ZM5.8512 3.61782C6.60936 3.77283 7.18476 4.46332 7.18476 5.21814C7.18476 6.10333 6.40906 6.85866 5.5 6.85866C4.72481 6.85866 4.01571 6.29837 3.85652 5.56012C3.73646 5.00325 3.90009 4.47303 4.31743 4.06663C4.73501 3.66001 5.27897 3.50084 5.8512 3.61782Z" fill="white"/>
</svg>
