<svg width="43" height="43" viewBox="0 0 43 43" fill="none" xmlns="http://www.w3.org/2000/svg">
<path d="M23.636 7.56816L18.5906 2.52272M23.636 2.52272L18.5906 7.56816L23.636 2.52272Z" stroke="#1D262D" stroke-width="1.68049" stroke-miterlimit="10"/>
<path d="M7.56816 7.56816L2.52272 2.52272M7.56816 2.52272L2.52272 7.56816L7.56816 2.52272Z" stroke="#1D262D" stroke-width="1.68049" stroke-miterlimit="10"/>
<path d="M40.102 7.56816L35.0566 2.52272M40.102 2.52272L35.0566 7.56816L40.102 2.52272Z" stroke="#1D262D" stroke-width="1.68049" stroke-miterlimit="10"/>
<path d="M23.636 23.5682L18.5906 18.5227M23.636 18.5227L18.5906 23.5682L23.636 18.5227Z" stroke="#1D262D" stroke-width="1.68049" stroke-miterlimit="10"/>
<path d="M40.102 23.5682L35.0565 18.5227M40.102 18.5227L35.0565 23.5682L40.102 18.5227Z" stroke="#1D262D" stroke-width="1.68049" stroke-miterlimit="10"/>
<path d="M39.5682 39.5682L34.5227 34.5227M39.5682 34.5227L34.5227 39.5682L39.5682 34.5227Z" stroke="#1D262D" stroke-width="1.68049" stroke-miterlimit="10"/>
</svg>
