<svg width="43" height="43" viewBox="0 0 43 43" fill="none" xmlns="http://www.w3.org/2000/svg">
<path d="M18.9887 34.5227L24.0342 39.5681M18.9887 39.5681L24.0342 34.5227L18.9887 39.5681Z" stroke="#1D262D" stroke-width="1.68049" stroke-miterlimit="10"/>
<path d="M35.0566 34.5227L40.102 39.5681M35.0566 39.5681L40.102 34.5227L35.0566 39.5681Z" stroke="#1D262D" stroke-width="1.68049" stroke-miterlimit="10"/>
<path d="M2.52272 34.5227L7.56816 39.5681M2.52272 39.5681L7.56816 34.5227L2.52272 39.5681Z" stroke="#1D262D" stroke-width="1.68049" stroke-miterlimit="10"/>
<path d="M18.9887 18.5227L24.0342 23.5681M18.9887 23.5681L24.0342 18.5227L18.9887 23.5681Z" stroke="#1D262D" stroke-width="1.68049" stroke-miterlimit="10"/>
<path d="M2.52278 18.5227L7.56822 23.5681M2.52278 23.5681L7.56822 18.5227L2.52278 23.5681Z" stroke="#1D262D" stroke-width="1.68049" stroke-miterlimit="10"/>
<path d="M3.0566 2.52266L8.10204 7.5681M3.0566 7.5681L8.10204 2.52266L3.0566 7.5681Z" stroke="#1D262D" stroke-width="1.68049" stroke-miterlimit="10"/>
</svg>
