<svg width="95" height="102" viewBox="0 0 95 102" fill="none" xmlns="http://www.w3.org/2000/svg">
<path fill-rule="evenodd" clip-rule="evenodd" d="M66.8377 51.4934C67.4623 49.6447 67.8802 47.7022 68.0895 45.775C68.499 42.0054 68.1536 36.7061 66.5432 32.2827C65.4394 29.2507 63.7376 26.6331 61.3189 25.135C56.712 22.2817 51.0426 23.4623 45.9035 26.6956C42.1553 29.0538 38.692 32.4935 36.1595 36.1481C36.69 32.8757 36.8129 28.8549 35.8964 25.3383C34.872 21.3951 32.5592 18.084 28.1615 17.0042C18.9693 14.7486 12.8241 19.9042 9.74516 27.248C6.72139 34.4623 6.7026 43.7959 9.64762 50.0536C9.8044 50.3841 10.1994 50.5261 10.5301 50.3704C10.8607 50.2148 11.0028 49.82 10.8461 49.4897C8.04199 43.5265 8.08471 34.6344 10.9671 27.7601C13.7944 21.0157 19.4044 16.2188 27.8443 18.2911C31.7177 19.2421 33.7136 22.1979 34.6161 25.6712C35.5547 29.2847 35.3284 33.4573 34.7222 36.6848C34.5591 37.5585 34.4024 38.4368 34.2333 39.3132C32.8059 42.0287 31.9766 44.7301 31.9663 47.0814C31.9655 47.6646 32.3885 47.7745 32.5087 47.7995C32.6724 47.8338 32.9158 47.8353 33.14 47.5969C33.1822 47.5521 33.2559 47.4531 33.3216 47.3014C33.4093 47.0949 33.5489 46.6557 33.6264 46.4661C33.9505 45.6824 34.2101 44.8588 34.4591 44.0508C34.8945 42.6454 35.2114 41.2071 35.4929 39.7622C35.6222 39.5221 35.7543 39.2831 35.8911 39.0442C38.35 34.7652 42.281 30.5394 46.6086 27.8166C51.2851 24.8745 56.4295 23.6647 60.6214 26.2612C62.8035 27.6126 64.3028 30.0005 65.2986 32.7359C66.8378 36.9637 67.1642 42.0292 66.7728 45.6319C66.5336 47.8325 66.0097 50.0544 65.2013 52.1172C64.933 52.8018 64.5858 53.4646 64.2308 54.1084C64.1917 54.1792 64.1322 54.2788 64.0631 54.3907C63.8442 54.6957 63.6403 55.0078 63.4522 55.327C63.3532 55.4951 63.332 55.5926 63.3282 55.6103C63.229 56.0749 63.53 56.266 63.6766 56.3403C63.7202 56.3623 64.1805 56.5779 64.5148 56.1373C64.5824 56.0479 64.9259 55.5199 65.1788 55.1069C67.5207 51.8705 71.666 49.5833 75.5688 49.1634C78.0429 48.8974 80.4246 49.3842 82.1489 50.9233C83.2954 51.9469 84.1422 53.4322 84.5483 55.4425C85.5278 60.2905 84.3531 65.0986 82.4174 69.7109C80.4372 74.4292 77.6576 78.9434 75.4704 83.0905C75.2998 83.4137 75.4238 83.8147 75.7472 83.9852C76.0704 84.1557 76.4714 84.0317 76.6419 83.7083C78.8462 79.5293 81.6431 74.9782 83.6389 70.2235C85.6788 65.3626 86.879 60.2896 85.8466 55.1801C85.3741 52.8413 84.3648 51.1261 83.031 49.9352C81.035 48.1532 78.2915 47.5384 75.4273 47.8466C72.4341 48.1686 69.3146 49.5027 66.8377 51.4934Z" fill="black"/>
</svg>
