<svg width="61" height="31" viewBox="0 0 61 31" fill="none" xmlns="http://www.w3.org/2000/svg">
<path fill-rule="evenodd" clip-rule="evenodd" d="M57.7539 4.12345C46.305 25.4124 23.4347 34.0675 2.19312 22.0824C1.48598 21.6833 0.589253 21.9328 0.190163 22.6312C-0.208927 23.3421 0.0405311 24.24 0.747669 24.6391C23.5157 37.4973 48.071 28.3307 60.343 5.52026C60.7271 4.80938 60.459 3.91131 59.7444 3.52469C59.0298 3.15054 58.138 3.41257 57.7539 4.12345Z" fill="black"/>
<path d="M20.0685 12.952C22.4335 12.952 24.3507 11.0348 24.3507 8.66984C24.3507 6.30488 22.4335 4.38773 20.0685 4.38773C17.7035 4.38773 15.7864 6.30488 15.7864 8.66984C15.7864 11.0348 17.7035 12.952 20.0685 12.952Z" fill="black"/>
<path d="M37.7959 8.39685C40.1146 8.39685 41.9944 6.51717 41.9944 4.19842C41.9944 1.87968 40.1146 0 37.7959 0C35.4772 0 33.5975 1.87968 33.5975 4.19842C33.5975 6.51717 35.4772 8.39685 37.7959 8.39685Z" fill="black"/>
</svg>
