<svg width="42" height="56" viewBox="0 0 42 56" fill="none" xmlns="http://www.w3.org/2000/svg">
<path fill-rule="evenodd" clip-rule="evenodd" d="M1.66901 41.4347C2.01428 43.5318 2.33743 45.6095 2.74364 47.6955C2.8294 48.1446 3.26043 48.4361 3.70634 48.3495C4.15543 48.2637 4.44783 47.8295 4.36123 47.3836C3.95886 45.3088 3.63787 43.2489 3.2956 41.1661C3.22025 40.7164 2.79575 40.4129 2.35003 40.4859C1.90027 40.5612 1.59366 40.9849 1.66901 41.4347Z" fill="black"/>
<path fill-rule="evenodd" clip-rule="evenodd" d="M15.27 30.2998C20.4432 34.5826 25.8296 38.6013 31.0908 42.771C31.4492 43.0535 31.9667 42.9927 32.2484 42.6374C32.5309 42.279 32.4732 41.7624 32.1157 41.4767C26.8624 37.316 21.4839 33.3063 16.3226 29.03C15.9699 28.7388 15.4517 28.7891 15.1613 29.1386C14.8701 29.4913 14.9205 30.0095 15.27 30.2998Z" fill="black"/>
<path fill-rule="evenodd" clip-rule="evenodd" d="M22.9842 7.34907C28.6336 7.91363 34.3076 8.32097 39.9505 8.94863C40.4017 8.99647 40.8085 8.67101 40.8595 8.22061C40.9114 7.76702 40.5828 7.35941 40.1324 7.30838C34.4822 6.68222 28.8018 6.27319 23.1452 5.71013C22.6931 5.66548 22.2886 5.99496 22.244 6.44704C22.1985 6.90232 22.5289 7.30357 22.9842 7.34907Z" fill="black"/>
</svg>
