<svg width="83" height="91" viewBox="0 0 83 91" fill="none" xmlns="http://www.w3.org/2000/svg">
<path fill-rule="evenodd" clip-rule="evenodd" d="M46.9286 46.1208C48.3331 44.7051 49.2304 43.3334 49.8531 42.2345C55.7666 31.7018 49.3088 22.1045 40.9894 15.59C38.7613 13.8433 34.7549 11.9191 31.1975 11.8208C28.6977 11.7508 26.4182 12.5618 25.0308 14.8376C23.5089 17.3128 23.7129 20.6065 24.824 23.9433C26.4271 28.7708 29.9076 33.6937 32.3297 36.1906C35.1243 39.0698 39.9138 43.0453 45.0847 46.3076C43.4495 47.7153 41.2576 49.1228 38.2603 50.2862C36.9299 50.808 35.2853 51.0541 33.5174 51.0762C33.249 48.3977 32.4389 45.6526 31.0401 42.9607C29.861 40.6995 26.4952 36.4175 22.9314 34.1051C20.3862 32.4565 17.7394 31.8277 15.622 33.3006C12.9952 35.1336 12.6605 37.6757 13.5061 40.246C14.6949 43.8657 18.3147 47.5322 20.718 49.0324C23.515 50.7762 28.1885 52.0252 32.4619 52.1715C32.8925 61.2701 26.7738 69.3592 16.6511 71.1428C16.3505 71.1991 16.1462 71.4915 16.1934 71.7951C16.2503 72.1026 16.5475 72.3089 16.848 72.2526C27.558 70.3632 34.0483 61.8116 33.604 52.1833C35.4855 52.1551 37.2478 51.8932 38.6697 51.3367C41.9706 50.053 44.3477 48.4864 46.0868 46.9282C47.0659 47.5228 48.0564 48.0884 49.0513 48.6146C53.5181 50.9804 57.9872 52.4934 61.4611 52.1262C69.4888 51.2789 74.0527 45.1276 75.4397 37.9131C76.8109 30.767 75.0545 22.602 70.5559 17.6633C70.3461 17.4332 69.9857 17.4154 69.758 17.6257C69.5303 17.8362 69.5122 18.1924 69.7221 18.4223C74.0033 23.1219 75.644 30.9026 74.3325 37.6997C73.0369 44.4285 68.8288 50.214 61.346 51.0064C58.0372 51.3504 53.824 49.8662 49.578 47.6181C48.6938 47.15 47.8113 46.6492 46.9286 46.1208ZM32.3755 51.0635C32.1054 48.5586 31.3461 45.9957 30.0341 43.4788C28.9124 41.3263 25.7192 37.2558 22.314 35.0493C20.2037 33.6815 18.0225 33.0012 16.2699 34.2267C14.1231 35.7176 13.8912 37.8018 14.5795 39.8958C15.6772 43.2666 19.0748 46.6777 21.3174 48.077C23.944 49.7168 28.3493 50.9118 32.3755 51.0635ZM45.9425 45.5158C47.361 44.121 48.2532 42.7625 48.8686 41.682C54.4773 31.6963 48.1796 22.653 40.2943 16.4774C38.2197 14.8496 34.4904 13.0416 31.1652 12.9472C29.0829 12.8915 27.1519 13.5247 25.99 15.426C24.6255 17.6436 24.8969 20.597 25.8892 23.5857C27.4363 28.2445 30.8056 32.9977 33.1401 35.4063C35.9346 38.2857 40.7514 42.2764 45.9425 45.5158Z" fill="black"/>
<path fill-rule="evenodd" clip-rule="evenodd" d="M17.2485 71.5536C17.6381 71.1305 18.7546 69.9087 18.9184 69.7194C19.3735 69.1864 19.5266 68.8548 19.6441 68.5003C19.7347 68.2143 19.7898 67.9053 20.0254 67.3926C20.1587 67.1112 20.0243 66.7742 19.741 66.6458C19.4576 66.5173 19.1286 66.6458 18.9953 66.9273C18.7887 67.3947 18.6987 67.7077 18.6234 67.9831C18.5323 68.299 18.4484 68.5398 18.0605 68.9869C17.8738 69.2061 16.7025 70.3128 16.2727 70.9227C16.0472 71.2402 15.9913 71.5231 16.0131 71.6654C16.0441 71.8691 16.156 72.0936 16.3836 72.307C16.6769 72.5796 17.2238 72.8866 17.8287 73.2443C18.3981 73.5791 19.0342 73.9703 19.5305 74.4622C19.9453 74.8786 20.2542 75.3656 20.2587 75.9753C20.2587 76.2859 20.5049 76.5367 20.8165 76.5371C21.1281 76.5375 21.3834 76.2853 21.3834 75.9747C21.389 75.0572 20.955 74.2948 20.3241 73.6641C19.7648 73.1062 19.0522 72.6547 18.401 72.2732C18.0129 72.0433 17.6476 71.8402 17.3759 71.654C17.3319 71.6244 17.2902 71.589 17.2485 71.5536Z" fill="black"/>
</svg>
