<svg width="20" height="20" viewBox="0 0 20 20" fill="none" xmlns="http://www.w3.org/2000/svg">
<path d="M9.53535 2.62214C12.0821 2.62214 12.383 2.63203 13.3882 2.6753C14.3177 2.7161 14.8222 2.86571 15.159 2.99182C15.6046 3.15874 15.9221 3.35903 16.255 3.6805C16.5892 4.0032 16.7954 4.30982 16.9682 4.73885C17.0988 5.06279 17.2538 5.55117 17.296 6.44879C17.3421 7.41937 17.3511 7.71116 17.3511 10.1691C17.3511 12.6271 17.3408 12.9189 17.296 13.8894C17.2538 14.7871 17.0988 15.2742 16.9682 15.5994C16.7954 16.0297 16.5892 16.3363 16.255 16.6577C15.9208 16.9804 15.6033 17.1795 15.159 17.3464C14.8235 17.4725 14.3177 17.6221 13.3882 17.6629C12.383 17.7074 12.0808 17.7161 9.53535 17.7161C6.98986 17.7161 6.68768 17.7062 5.68254 17.6629C4.75295 17.6221 4.24846 17.4725 3.91171 17.3464C3.46612 17.1795 3.14857 16.9792 2.81566 16.6577C2.48147 16.335 2.27532 16.0284 2.10246 15.5994C1.97186 15.2755 1.81693 14.7871 1.77467 13.8894C1.72858 12.9189 1.71961 12.6271 1.71961 10.1691C1.71961 7.71116 1.72986 7.41937 1.77467 6.44879C1.81693 5.55117 1.97186 5.06403 2.10246 4.73885C2.27532 4.30859 2.48147 4.00196 2.81566 3.6805C3.14985 3.3578 3.4674 3.15874 3.91171 2.99182C4.24718 2.86571 4.75295 2.7161 5.68254 2.6753C6.68768 2.63203 6.98986 2.62214 9.53535 2.62214ZM9.53535 0.962891C6.94504 0.962891 6.62109 0.974018 5.60315 1.01853C4.58905 1.06304 3.89634 1.21883 3.28942 1.44632C2.66201 1.68124 2.13063 1.99652 1.60054 2.50839C1.07044 3.02026 0.743929 3.53337 0.500647 4.1392C0.265049 4.72525 0.103715 5.39415 0.0576193 6.37461C0.0115238 7.35755 0 7.67036 0 10.1716C0 12.6728 0.0115238 12.9856 0.0576193 13.9686C0.103715 14.949 0.265049 15.6179 0.500647 16.204C0.743929 16.8098 1.07044 17.3229 1.60054 17.8348C2.13063 18.3467 2.66201 18.6619 3.28942 18.8969C3.89634 19.1244 4.58905 19.2801 5.60443 19.3247C6.62109 19.3692 6.94632 19.3803 9.53663 19.3803C12.1269 19.3803 12.4509 19.3692 13.4688 19.3247C14.4842 19.2801 15.1769 19.1244 15.7838 18.8969C16.4112 18.6619 16.9426 18.3467 17.4727 17.8348C18.0028 17.3229 18.3293 16.8098 18.5726 16.204C18.8082 15.6179 18.9695 14.949 19.0156 13.9686C19.0617 12.9869 19.0733 12.6728 19.0733 10.1716C19.0733 7.67036 19.0617 7.35755 19.0156 6.37461C18.9695 5.39415 18.8082 4.72525 18.5726 4.1392C18.3293 3.53337 18.0028 3.02026 17.4727 2.50839C16.9426 1.99652 16.4112 1.68124 15.7838 1.44632C15.1769 1.21883 14.4842 1.06304 13.4688 1.01853C12.4509 0.974018 12.1257 0.962891 9.53535 0.962891Z" fill="white"/>
<path d="M9.53503 5.44141C6.83076 5.44141 4.63867 7.55812 4.63867 10.1694C4.63867 12.7807 6.83076 14.8974 9.53503 14.8974C12.2393 14.8974 14.4314 12.7807 14.4314 10.1694C14.4314 7.55812 12.2406 5.44141 9.53503 5.44141ZM9.53503 13.2394C7.77956 13.2394 6.35701 11.8657 6.35701 10.1706C6.35701 8.47553 7.77956 7.10189 9.53503 7.10189C11.2905 7.10189 12.7143 8.47553 12.7143 10.1706C12.7143 11.8657 11.2905 13.2394 9.53503 13.2394Z" fill="white"/>
<path d="M14.6271 6.36107C15.2593 6.36107 15.7718 5.86619 15.7718 5.25573C15.7718 4.64527 15.2593 4.15039 14.6271 4.15039C13.9949 4.15039 13.4824 4.64527 13.4824 5.25573C13.4824 5.86619 13.9949 6.36107 14.6271 6.36107Z" fill="white"/>
</svg>
