<svg width="36" height="36" viewBox="0 0 36 36" fill="none" xmlns="http://www.w3.org/2000/svg">
<g clip-path="url(#clip0_104_4796)">
<circle cx="18" cy="18" r="18" fill="#1DA1F3"/>
<path d="M25.6455 14.6282C25.6455 14.7988 25.6455 14.9695 25.6455 15.1157C25.6455 20.1613 21.7943 25.987 14.7743 25.987C12.6049 25.987 10.6062 25.3532 8.8999 24.2807C9.1924 24.3051 9.50928 24.3295 9.80178 24.3295C11.5812 24.3295 13.2387 23.7201 14.5549 22.6963C12.873 22.672 11.4593 21.5507 10.9962 20.0395C11.2399 20.0882 11.4593 20.1126 11.7274 20.1126C12.0687 20.1126 12.4099 20.0638 12.7268 19.9663C10.9718 19.6251 9.65553 18.0895 9.65553 16.237C9.65553 16.2126 9.65553 16.2126 9.65553 16.1882C10.1674 16.4807 10.7524 16.6513 11.3862 16.6757C10.3624 15.9932 9.6799 14.8232 9.6799 13.4826C9.6799 12.7757 9.8749 12.1176 10.1918 11.557C12.0687 13.8726 14.8962 15.3838 18.0649 15.5545C17.9918 15.2863 17.9674 14.9695 17.9674 14.677C17.9674 12.5563 19.6736 10.8501 21.7943 10.8501C22.8911 10.8501 23.8905 11.3132 24.573 12.0445C25.4505 11.8738 26.2549 11.557 27.0105 11.1182C26.718 12.0201 26.1086 12.7513 25.3286 13.2388C26.1086 13.1413 26.8399 12.9463 27.5224 12.6295C27.0349 13.4095 26.4011 14.092 25.6455 14.6282Z" fill="#FAFBFC"/>
</g>
<defs>
<clipPath id="clip0_104_4796">
<rect width="36" height="36" fill="white"/>
</clipPath>
</defs>
</svg>
