<svg width="45" height="27" viewBox="0 0 45 27" fill="none" xmlns="http://www.w3.org/2000/svg">
<g clip-path="url(#clip0_104_4542)">
<rect x="0.733154" y="0.367676" width="44" height="26.4" rx="4" fill="#26337A"/>
<path fill-rule="evenodd" clip-rule="evenodd" d="M18.9888 17.7681L20.3417 9.37549H22.5042L21.1514 17.7681H18.9888Z" fill="#FFFFFE"/>
<path fill-rule="evenodd" clip-rule="evenodd" d="M28.9956 9.58162C28.568 9.41318 27.8955 9.22949 27.0578 9.22949C24.9197 9.22949 23.4147 10.3684 23.4022 11.9993C23.3886 13.2056 24.4762 13.8784 25.2961 14.2793C26.1388 14.6903 26.4219 14.9533 26.4186 15.3208C26.4127 15.8829 25.7459 16.1405 25.1242 16.1405C24.2584 16.1405 23.7984 16.0137 23.0872 15.7003L22.809 15.5667L22.5066 17.4453C23.0109 17.6791 23.9457 17.882 24.9159 17.8927C27.1881 17.8927 28.6646 16.7675 28.6819 15.026C28.6897 14.0694 28.1134 13.3443 26.8654 12.7457C26.1097 12.3565 25.6459 12.0987 25.6512 11.7048C25.6517 11.356 26.043 10.9826 26.89 10.9826C27.5974 10.9711 28.1095 11.1345 28.5085 11.3051L28.7027 11.401L28.9956 9.58162Z" fill="#FFFFFE"/>
<path fill-rule="evenodd" clip-rule="evenodd" d="M31.8752 14.7928C32.0544 14.3104 32.7366 12.4469 32.7366 12.4469C32.724 12.4691 32.9149 11.9608 33.0241 11.6463L33.17 12.3701C33.17 12.3701 33.585 14.3733 33.6705 14.7928C33.3338 14.7928 32.2974 14.7928 31.8752 14.7928ZM34.5431 9.38428H32.8718C32.3535 9.38428 31.9655 9.53276 31.7384 10.08L28.5269 17.7713H30.7982C30.7982 17.7713 31.1688 16.7366 31.2529 16.5095C31.5007 16.5095 33.7077 16.5139 34.0227 16.5139C34.0876 16.8068 34.2861 17.7713 34.2861 17.7713H36.2933L34.5431 9.38428Z" fill="#FFFFFE"/>
<path fill-rule="evenodd" clip-rule="evenodd" d="M17.1745 9.38281L15.0579 15.1045L14.8311 13.9415C14.4367 12.6014 13.2089 11.1489 11.8354 10.4211L13.7719 17.761L16.0606 17.7597L19.4662 9.38281H17.1745Z" fill="#FFFFFE"/>
<path fill-rule="evenodd" clip-rule="evenodd" d="M13.0929 9.37695H9.6056L9.5769 9.55085C12.2905 10.246 14.0859 11.9241 14.8311 13.9413L14.0733 10.085C13.9425 9.5532 13.5626 9.39554 13.0929 9.37695Z" fill="#EC982D"/>
</g>
<defs>
<clipPath id="clip0_104_4542">
<rect width="44" height="26.4" fill="white" transform="translate(0.733154 0.367676)"/>
</clipPath>
</defs>
</svg>
