<svg width="45" height="27" viewBox="0 0 45 27" fill="none" xmlns="http://www.w3.org/2000/svg">
<g clip-path="url(#clip0_104_4551)">
<rect x="0.733154" y="0.367676" width="44" height="26.4" rx="4" fill="#000066"/>
<path fill-rule="evenodd" clip-rule="evenodd" d="M25.4298 13.781C25.4298 18.5235 21.5857 22.3675 16.8434 22.3675C12.101 22.3675 8.25659 18.5235 8.25659 13.781C8.25659 9.03873 12.101 5.19434 16.8434 5.19434C21.5857 5.19434 25.4298 9.03873 25.4298 13.781Z" fill="#CC0000"/>
<path fill-rule="evenodd" clip-rule="evenodd" d="M28.3714 5.19434C26.1522 5.19434 24.1309 6.03606 22.6068 7.4169C22.2967 7.69833 22.0073 8.00229 21.7401 8.32592H23.475C23.7119 8.61441 23.9302 8.91769 24.1296 9.23536H21.0854C20.9033 9.52724 20.7377 9.83052 20.5906 10.1448H24.624C24.7619 10.4391 24.8832 10.7423 24.9877 11.0538H20.2269C20.1279 11.3499 20.0443 11.6533 19.9775 11.9627H25.2368C25.3628 12.5489 25.4298 13.1571 25.4298 13.781C25.4298 14.7343 25.2744 15.6519 24.9877 16.5088H20.2269C20.3314 16.8201 20.4527 17.1236 20.5903 17.4184H24.624C24.4767 17.7318 24.3119 18.0354 24.1287 18.3277H21.0854C21.2839 18.6444 21.5026 18.9481 21.7401 19.2361H23.4744C23.2078 19.56 22.9181 19.864 22.6071 20.1454C24.1311 21.5263 26.1522 22.3675 28.3714 22.3675C33.1136 22.3675 36.9578 18.5235 36.9578 13.781C36.9578 9.03914 33.1136 5.19434 28.3714 5.19434Z" fill="#FF9900"/>
<path fill-rule="evenodd" clip-rule="evenodd" d="M14.8381 14.7212C14.7402 14.71 14.6971 14.7065 14.6299 14.7065C14.1015 14.7065 13.8343 14.8878 13.8343 15.2459C13.8343 15.4664 13.9647 15.6066 14.1683 15.6066C14.5481 15.6066 14.8218 15.2451 14.8381 14.7212ZM15.5162 16.2994C15.3919 16.2994 14.7436 16.2994 14.7436 16.2994L14.7614 15.9323C14.5258 16.2222 14.2114 16.3606 13.7844 16.3606C13.2793 16.3606 12.9329 15.9663 12.9329 15.3932C12.9329 14.5306 13.5352 14.0276 14.5694 14.0276C14.6753 14.0276 14.8108 14.0374 14.9494 14.0549C14.9782 13.9379 14.9858 13.8882 14.9858 13.8251C14.9858 13.5906 14.8235 13.5027 14.3881 13.5027C13.932 13.4981 13.5558 13.6117 13.4013 13.6624C13.4111 13.6035 13.5306 12.8658 13.5306 12.8658C13.995 12.7292 14.3014 12.6782 14.6462 12.6782C15.4468 12.6782 15.8708 13.0375 15.8699 13.7168C15.8715 13.8991 15.8412 14.1231 15.7944 14.4187C15.7135 14.9316 15.5399 16.0317 15.5162 16.2994Z" fill="#000066"/>
<path fill-rule="evenodd" clip-rule="evenodd" d="M12.5428 16.2998H11.6105L12.1448 12.9519L10.9522 16.2998H10.317L10.2384 12.9706L9.67721 16.2998H8.80469L9.53351 11.9443H10.874L10.9551 14.3822L11.7729 11.9443H13.2638L12.5428 16.2998Z" fill="#000066"/>
<path fill-rule="evenodd" clip-rule="evenodd" d="M29.5231 14.7212C29.4252 14.71 29.3826 14.7065 29.3156 14.7065C28.7868 14.7065 28.5199 14.8878 28.5199 15.2459C28.5199 15.4664 28.6497 15.6066 28.8538 15.6066C29.2334 15.6066 29.5072 15.2451 29.5231 14.7212ZM30.2016 16.2994C30.0771 16.2994 29.4293 16.2994 29.4293 16.2994L29.4468 15.9323C29.2112 16.2222 28.8969 16.3606 28.4702 16.3606C27.9644 16.3606 27.6184 15.9663 27.6184 15.3932C27.6184 14.5306 28.221 14.0276 29.2549 14.0276C29.3607 14.0276 29.4959 14.0374 29.6347 14.0549C29.6636 13.9379 29.6711 13.8882 29.6711 13.8251C29.6711 13.5906 29.5088 13.5027 29.0733 13.5027C28.6173 13.4981 28.2413 13.6117 28.0862 13.6624C28.0965 13.6035 28.2163 12.8658 28.2163 12.8658C28.6804 12.7292 28.987 12.6782 29.3313 12.6782C30.1324 12.6782 30.5559 13.0375 30.5551 13.7168C30.5568 13.8991 30.5268 14.1231 30.4797 14.4187C30.3991 14.9316 30.225 16.0317 30.2016 16.2994Z" fill="#000066"/>
<path fill-rule="evenodd" clip-rule="evenodd" d="M19.659 16.246C19.4037 16.3263 19.2049 16.3611 18.9892 16.3611C18.5127 16.3611 18.2526 16.0872 18.2526 15.5829C18.246 15.4263 18.3211 15.0144 18.3803 14.6388C18.4343 14.3079 18.7847 12.2217 18.7847 12.2217H19.7111L19.6029 12.7578H20.1627L20.0363 13.6092H19.4747C19.3671 14.2826 19.2136 15.1218 19.2118 15.233C19.2118 15.4157 19.3093 15.4955 19.5311 15.4955C19.6374 15.4955 19.7196 15.4846 19.7824 15.4621L19.659 16.246Z" fill="#000066"/>
<path fill-rule="evenodd" clip-rule="evenodd" d="M22.5 16.2169C22.1817 16.3142 21.8749 16.3617 21.5493 16.3606C20.5119 16.3592 19.9712 15.8178 19.9712 14.7804C19.9712 13.5697 20.659 12.6782 21.593 12.6782C22.3569 12.6782 22.845 13.1773 22.845 13.9597C22.845 14.2199 22.8116 14.4733 22.7306 14.831H20.8854C20.8231 15.3449 21.1517 15.5589 21.6911 15.5589C22.0224 15.5589 22.3217 15.4905 22.6543 15.3362L22.5 16.2169ZM21.9793 14.1171C21.9846 14.0432 22.0774 13.4848 21.5478 13.4848C21.253 13.4848 21.0418 13.7098 20.9561 14.1171H21.9793Z" fill="#000066"/>
<path fill-rule="evenodd" clip-rule="evenodd" d="M16.0754 13.8772C16.0754 14.3249 16.2925 14.6339 16.785 14.866C17.1624 15.0437 17.2212 15.0962 17.2212 15.257C17.2212 15.4775 17.0545 15.5776 16.6859 15.5776C16.4075 15.5776 16.1489 15.5339 15.8505 15.4375C15.8505 15.4375 15.7282 16.2185 15.7224 16.2558C15.9342 16.3017 16.1231 16.3445 16.6925 16.3606C17.676 16.3606 18.1303 15.9861 18.1303 15.1767C18.1303 14.69 17.9404 14.4044 17.4733 14.1895C17.0826 14.0102 17.0374 13.97 17.0374 13.8048C17.0374 13.6133 17.1925 13.5155 17.4937 13.5155C17.6767 13.5155 17.9265 13.535 18.1636 13.5685L18.2962 12.747C18.0549 12.7086 17.6888 12.6782 17.4757 12.6782C16.4331 12.6782 16.072 13.2228 16.0754 13.8772Z" fill="#000066"/>
<path fill-rule="evenodd" clip-rule="evenodd" d="M27.0338 12.7721C27.2927 12.7721 27.5345 12.8394 27.8668 13.0073L28.0195 12.062C27.8824 12.0083 27.4019 11.6934 26.9948 11.6934C26.3712 11.6934 25.8433 12.0033 25.4727 12.5136C24.9316 12.3345 24.7089 12.6966 24.4364 13.0575L24.1942 13.114C24.2125 12.9952 24.2292 12.8773 24.2239 12.7578H23.3674C23.2507 13.8543 23.0435 14.9646 22.8813 16.0615L22.8389 16.2998H23.7715C23.9271 15.2883 24.0122 14.6409 24.0641 14.2024L24.4152 14.0078C24.468 13.8123 24.6318 13.7466 24.9613 13.7546C24.9183 13.9855 24.8949 14.2288 24.8949 14.4806C24.8949 15.6395 25.521 16.361 26.5241 16.361C26.7826 16.361 27.0046 16.3271 27.3483 16.2335L27.5117 15.241C27.2026 15.3928 26.9495 15.4643 26.72 15.4643C26.1781 15.4643 25.8501 15.0642 25.8501 14.4032C25.8501 13.444 26.3375 12.7721 27.0338 12.7721Z" fill="#000066"/>
<path fill-rule="evenodd" clip-rule="evenodd" d="M34.926 11.9443L34.7188 13.2026C34.4643 12.8673 34.1905 12.6244 33.829 12.6244C33.3587 12.6244 32.9306 12.9811 32.6502 13.5062C32.2598 13.4252 31.8564 13.2875 31.8564 13.2875L31.8561 13.2908C31.8872 12.9973 31.9004 12.8188 31.8973 12.7577H31.0409C30.9246 13.8543 30.7171 14.9645 30.5551 16.0615L30.5122 16.2998H31.4451C31.571 15.4823 31.6673 14.8028 31.7382 14.2646C32.0571 13.9764 32.2167 13.7258 32.5381 13.742C32.3955 14.087 32.3123 14.484 32.3123 14.8914C32.3123 15.7765 32.7599 16.361 33.4378 16.361C33.7795 16.361 34.0417 16.243 34.2973 15.97L34.2533 16.2995H35.1354L35.8455 11.9443H34.926ZM33.7602 15.4815C33.443 15.4815 33.2823 15.2462 33.2823 14.7832C33.2823 14.087 33.5826 13.5935 34.0053 13.5935C34.3257 13.5935 34.4994 13.8372 34.4994 14.2871C34.4994 14.9894 34.1941 15.4815 33.7602 15.4815Z" fill="#000066"/>
<path fill-rule="evenodd" clip-rule="evenodd" d="M12.8108 16.0411H11.8787L12.4129 12.6932L11.2205 16.0411H10.5851L10.5067 12.7126L9.94528 16.0411H9.07275L9.80158 11.686H11.1421L11.1796 14.382L12.0841 11.686H13.5319L12.8108 16.0411Z" fill="white"/>
<path fill-rule="evenodd" clip-rule="evenodd" d="M15.1064 14.4634C15.0087 14.452 14.9655 14.4488 14.8984 14.4488C14.37 14.4488 14.1026 14.6299 14.1026 14.9877C14.1026 15.2079 14.2332 15.3489 14.4369 15.3489C14.8165 15.3489 15.0902 14.9874 15.1064 14.4634ZM15.7843 16.0411C15.6601 16.0411 15.012 16.0411 15.012 16.0411L15.0297 15.6743C14.7941 15.964 14.4797 16.1026 14.0527 16.1026C13.5475 16.1026 13.2012 15.7077 13.2012 15.1348C13.2012 14.272 13.8037 13.7697 14.8378 13.7697C14.9435 13.7697 15.0789 13.7793 15.2177 13.7972C15.2465 13.68 15.2541 13.6302 15.2541 13.5668C15.2541 13.3325 15.0918 13.2452 14.6564 13.2452C14.2002 13.2398 13.8242 13.3534 13.6695 13.404C13.6794 13.3454 13.7988 12.6076 13.7988 12.6076C14.2633 12.4714 14.5697 12.4199 14.9145 12.4199C15.7149 12.4199 16.1389 12.7797 16.1382 13.4587C16.1397 13.6406 16.1097 13.8658 16.0627 14.1605C15.9817 14.673 15.808 15.7738 15.7843 16.0411Z" fill="white"/>
<path fill-rule="evenodd" clip-rule="evenodd" d="M28.2875 11.8034L28.1348 12.7485C27.8019 12.5812 27.5608 12.5134 27.3022 12.5134C26.6062 12.5134 26.1179 13.1861 26.1179 14.1455C26.1179 14.8064 26.4461 15.2058 26.988 15.2058C27.2176 15.2058 27.4712 15.1348 27.7797 14.9824L27.6159 15.9749C27.2727 16.0684 27.0506 16.1026 26.7922 16.1026C25.7885 16.1026 25.1633 15.381 25.1633 14.2223C25.1633 12.6653 26.0276 11.5771 27.263 11.5771C27.67 11.5771 28.1508 11.7496 28.2875 11.8034Z" fill="white"/>
<path fill-rule="evenodd" clip-rule="evenodd" d="M29.7912 14.4634C29.6941 14.452 29.6508 14.4488 29.5838 14.4488C29.0556 14.4488 28.7882 14.6299 28.7882 14.9877C28.7882 15.2079 28.9186 15.3489 29.1221 15.3489C29.5017 15.3489 29.7756 14.9874 29.7912 14.4634ZM30.4697 16.0411C30.3457 16.0411 29.6974 16.0411 29.6974 16.0411L29.715 15.6743C29.4794 15.964 29.165 16.1026 28.7383 16.1026C28.2326 16.1026 27.8867 15.7077 27.8867 15.1348C27.8867 14.272 28.4887 13.7697 29.5231 13.7697C29.6288 13.7697 29.7639 13.7793 29.9026 13.7972C29.9315 13.68 29.9391 13.6302 29.9391 13.5668C29.9391 13.3325 29.7772 13.2452 29.3415 13.2452C28.8857 13.2398 28.5098 13.3534 28.3549 13.404C28.3646 13.3454 28.4842 12.6076 28.4842 12.6076C28.9487 12.4714 29.2548 12.4199 29.5996 12.4199C30.4001 12.4199 30.8244 12.7797 30.8233 13.4587C30.8252 13.6406 30.795 13.8658 30.748 14.1605C30.6673 14.673 30.4936 15.7738 30.4697 16.0411Z" fill="white"/>
<path fill-rule="evenodd" clip-rule="evenodd" d="M19.9273 15.9874C19.6723 16.0678 19.4732 16.1026 19.2577 16.1026C18.7812 16.1026 18.5209 15.8287 18.5209 15.3248C18.5144 15.1677 18.5897 14.7565 18.649 14.3805C18.7026 14.0493 19.0531 11.9634 19.0531 11.9634H19.9798L19.8713 12.4994H20.3471L20.2204 13.3505H19.7431C19.6355 14.0246 19.482 14.8632 19.4801 14.9745C19.4801 15.1577 19.578 15.2369 19.7996 15.2369C19.9058 15.2369 19.9879 15.2265 20.051 15.2034L19.9273 15.9874Z" fill="white"/>
<path fill-rule="evenodd" clip-rule="evenodd" d="M22.7685 15.9593C22.45 16.0568 22.1425 16.1028 21.8174 16.1026C20.7798 16.1019 20.2395 15.5598 20.2395 14.5225C20.2395 13.3114 20.9272 12.4199 21.8605 12.4199C22.6252 12.4199 23.113 12.919 23.113 13.7024C23.113 13.962 23.0791 14.2153 22.999 14.5731H21.1535C21.091 15.087 21.4201 15.3014 21.9589 15.3014C22.2904 15.3014 22.5896 15.2328 22.9226 15.0781L22.7685 15.9593ZM22.2476 13.8588C22.2526 13.7848 22.3458 13.2266 21.8163 13.2266C21.5213 13.2266 21.3101 13.452 21.2242 13.8588H22.2476Z" fill="white"/>
<path fill-rule="evenodd" clip-rule="evenodd" d="M16.3434 13.6189C16.3434 14.0674 16.5608 14.3757 17.0535 14.6082C17.4309 14.7856 17.4893 14.8382 17.4893 14.9991C17.4893 15.2199 17.3228 15.3195 16.9539 15.3195C16.6759 15.3195 16.4171 15.2763 16.1185 15.1801C16.1185 15.1801 15.9964 15.9606 15.9907 15.9974C16.2024 16.0438 16.3914 16.0862 16.9605 16.1026C17.9443 16.1026 18.3986 15.7282 18.3986 14.9188C18.3986 14.4319 18.2084 14.1464 17.7415 13.932C17.3507 13.7522 17.3058 13.7124 17.3058 13.5469C17.3058 13.3554 17.4607 13.2569 17.7621 13.2569C17.9447 13.2569 18.1948 13.2772 18.4318 13.3106L18.5645 12.4893C18.3231 12.4511 17.9572 12.4199 17.744 12.4199C16.7011 12.4199 16.3403 12.9646 16.3434 13.6189Z" fill="white"/>
<path fill-rule="evenodd" clip-rule="evenodd" d="M35.4037 16.0411H34.522L34.5657 15.7115C34.3099 15.9846 34.0478 16.1025 33.7062 16.1025C33.0288 16.1025 32.5806 15.5188 32.5806 14.6327C32.5806 13.4546 33.2755 12.4615 34.0974 12.4615C34.4589 12.4615 34.7326 12.6092 34.9875 12.9446L35.1943 11.686H36.1137L35.4037 16.0411ZM34.0284 15.2227C34.4628 15.2227 34.7676 14.7308 34.7676 14.0293C34.7676 13.5792 34.594 13.3346 34.2737 13.3346C33.8508 13.3346 33.5507 13.8283 33.5507 14.5248C33.5507 14.9884 33.7115 15.2227 34.0284 15.2227Z" fill="white"/>
<path fill-rule="evenodd" clip-rule="evenodd" d="M31.3095 12.4995C31.193 13.5957 30.9856 14.706 30.8235 15.8031L30.781 16.0413H31.7134C32.0469 13.8753 32.1271 13.4526 32.6504 13.5054C32.7335 13.062 32.8886 12.6738 33.0041 12.4781C32.6137 12.3967 32.3957 12.6174 32.1099 13.0367C32.1327 12.8552 32.1738 12.6792 32.1661 12.4995H31.3095Z" fill="white"/>
<path fill-rule="evenodd" clip-rule="evenodd" d="M23.6359 12.4995C23.5188 13.5957 23.3112 14.706 23.1493 15.8031L23.1069 16.0413H24.0396C24.3732 13.8753 24.4532 13.4526 24.9756 13.5054C25.0593 13.062 25.2147 12.6738 25.3299 12.4781C24.9399 12.3967 24.7214 12.6174 24.4362 13.0367C24.4587 12.8552 24.5001 12.6792 24.492 12.4995H23.6359Z" fill="white"/>
</g>
<defs>
<clipPath id="clip0_104_4551">
<rect width="44" height="26.4" fill="white" transform="translate(0.733154 0.367676)"/>
</clipPath>
</defs>
</svg>
