<svg width="45" height="28" viewBox="0 0 45 28" fill="none" xmlns="http://www.w3.org/2000/svg">
<g clip-path="url(#clip0_104_4619)">
<rect x="0.733154" y="0.767578" width="44" height="26.4" rx="4" fill="#0069AA"/>
<path fill-rule="evenodd" clip-rule="evenodd" d="M9.3343 16.6C9.3343 16.069 9.05688 16.1039 8.7915 16.0983V15.9448C9.02161 15.956 9.25755 15.956 9.48827 15.956C9.73613 15.956 10.0727 15.9448 10.5099 15.9448C12.0389 15.9448 12.8718 16.9658 12.8718 18.0114C12.8718 18.5965 12.5293 20.0664 10.4389 20.0664C10.138 20.0664 9.86006 20.0547 9.58265 20.0547C9.31715 20.0547 9.05688 20.0602 8.7915 20.0664V19.9128C9.14542 19.8771 9.31715 19.8655 9.3343 19.464V16.6ZM9.91292 19.3693C9.91292 19.8241 10.238 19.877 10.5272 19.877C11.803 19.877 12.2216 18.9148 12.2216 18.0351C12.2216 16.9309 11.5132 16.1339 10.3737 16.1339C10.1311 16.1339 10.0195 16.1512 9.91292 16.1575V19.3693Z" fill="white"/>
<path fill-rule="evenodd" clip-rule="evenodd" d="M13.0786 19.9128H13.1905C13.3558 19.9128 13.474 19.9128 13.474 19.7175V18.1174C13.474 17.858 13.3856 17.8221 13.1668 17.7044V17.6102C13.4443 17.5267 13.7753 17.4153 13.7986 17.3976C13.8402 17.3738 13.8751 17.3675 13.9051 17.3675C13.9341 17.3675 13.9463 17.403 13.9463 17.4507V19.7175C13.9463 19.9128 14.0764 19.9128 14.2419 19.9128H14.3419V20.0664C14.1411 20.0664 13.9341 20.0547 13.7222 20.0547C13.5096 20.0547 13.2969 20.0602 13.0786 20.0664V19.9128ZM13.7103 16.4586C13.5565 16.4586 13.421 16.3169 13.421 16.1634C13.421 16.0155 13.5629 15.8794 13.7103 15.8794C13.8636 15.8794 13.9998 16.0038 13.9998 16.1634C13.9998 16.3231 13.8695 16.4586 13.7103 16.4586Z" fill="white"/>
<path fill-rule="evenodd" clip-rule="evenodd" d="M14.9031 18.1531C14.9031 17.935 14.8379 17.8761 14.5609 17.7637V17.6515C14.8143 17.569 15.0562 17.4919 15.34 17.3677C15.3578 17.3677 15.375 17.3795 15.375 17.4267V17.8106C15.7121 17.569 16.0015 17.3677 16.3977 17.3677C16.8989 17.3677 17.076 17.7339 17.076 18.1945V19.7176C17.076 19.913 17.2062 19.913 17.3714 19.913H17.4779V20.0666C17.2706 20.0666 17.0642 20.0549 16.8518 20.0549C16.6391 20.0549 16.4264 20.0604 16.2138 20.0666V19.913H16.3203C16.4857 19.913 16.6034 19.913 16.6034 19.7176V18.189C16.6034 17.852 16.3977 17.6868 16.0607 17.6868C15.8716 17.6868 15.5704 17.8401 15.375 17.9705V19.7176C15.375 19.913 15.5055 19.913 15.6709 19.913H15.7769V20.0666C15.5704 20.0666 15.3637 20.0549 15.1507 20.0549C14.9386 20.0549 14.7258 20.0604 14.5134 20.0666V19.913H14.62C14.7851 19.913 14.9031 19.913 14.9031 19.7176V18.1531Z" fill="white"/>
<path fill-rule="evenodd" clip-rule="evenodd" d="M17.9266 18.437C17.9146 18.4901 17.9146 18.5785 17.9266 18.7794C17.9614 19.3402 18.3224 19.8006 18.7942 19.8006C19.1195 19.8006 19.3735 19.6234 19.5916 19.4053L19.674 19.488C19.4023 19.8481 19.0659 20.1553 18.5821 20.1553C17.643 20.1553 17.4541 19.2455 17.4541 18.8679C17.4541 17.7104 18.2333 17.3677 18.6462 17.3677C19.125 17.3677 19.6391 17.6688 19.6446 18.2949C19.6446 18.3308 19.6446 18.3658 19.6391 18.4013L19.5857 18.437H17.9266ZM18.9722 18.2478C19.1195 18.2478 19.1368 18.171 19.1368 18.0998C19.1368 17.7992 18.9539 17.557 18.623 17.557C18.2632 17.557 18.0151 17.8223 17.9443 18.2478H18.9722Z" fill="white"/>
<path fill-rule="evenodd" clip-rule="evenodd" d="M19.7808 19.913H19.9403C20.105 19.913 20.2232 19.913 20.2232 19.7176V18.0587C20.2232 17.8761 20.0049 17.8401 19.9162 17.7929V17.7046C20.3473 17.5214 20.5836 17.3677 20.6376 17.3677C20.6721 17.3677 20.6899 17.3854 20.6899 17.4448V17.9763H20.7023C20.8494 17.746 21.0979 17.3677 21.4579 17.3677C21.6054 17.3677 21.7942 17.468 21.7942 17.6807C21.7942 17.8401 21.6825 17.9825 21.5173 17.9825C21.3336 17.9825 21.3336 17.8401 21.1267 17.8401C21.0265 17.8401 20.6958 17.9763 20.6958 18.3308V19.7176C20.6958 19.913 20.8138 19.913 20.9792 19.913H21.3095V20.0666C20.9848 20.0604 20.7377 20.0549 20.4835 20.0549C20.2413 20.0549 19.9932 20.0604 19.7808 20.0666V19.913Z" fill="white"/>
<path fill-rule="evenodd" clip-rule="evenodd" d="M22.0538 19.2454C22.1308 19.635 22.3665 19.9662 22.7984 19.9662C23.1462 19.9662 23.276 19.7534 23.276 19.5469C23.276 18.8497 21.9891 19.0744 21.9891 18.1238C21.9891 17.7927 22.255 17.3677 22.9045 17.3677C23.0932 17.3677 23.347 17.4212 23.5771 17.5394L23.6186 18.1412H23.4828C23.4239 17.7694 23.2175 17.5569 22.8391 17.5569C22.6029 17.5569 22.3788 17.6925 22.3788 17.9465C22.3788 18.6378 23.7483 18.4248 23.7483 19.3519C23.7483 19.7413 23.4358 20.1552 22.7328 20.1552C22.4969 20.1552 22.2188 20.0724 22.0128 19.9543L21.9475 19.2752L22.0538 19.2454Z" fill="white"/>
<path fill-rule="evenodd" clip-rule="evenodd" d="M29.0803 17.0134H28.9331C28.8207 16.3232 28.3306 16.0453 27.6697 16.0453C26.9898 16.0453 26.0041 16.4997 26.0041 17.9168C26.0041 19.11 26.8547 19.9664 27.7638 19.9664C28.3478 19.9664 28.8331 19.5647 28.9509 18.9443L29.0868 18.9795L28.9509 19.8419C28.703 19.9957 28.0355 20.1554 27.6453 20.1554C26.2642 20.1554 25.3904 19.2635 25.3904 17.9351C25.3904 16.7242 26.471 15.856 27.6283 15.856C28.1064 15.856 28.5669 16.0099 29.0216 16.1695L29.0803 17.0134Z" fill="white"/>
<path fill-rule="evenodd" clip-rule="evenodd" d="M29.2935 19.9128H29.4052C29.5711 19.9128 29.689 19.9128 29.689 19.7175V16.4294C29.689 16.0452 29.6006 16.0335 29.3759 15.9684V15.8738C29.612 15.7972 29.8602 15.6911 29.9845 15.6198C30.0486 15.5848 30.0963 15.5547 30.1137 15.5547C30.1498 15.5547 30.1615 15.5906 30.1615 15.638V19.7175C30.1615 19.9128 30.2915 19.9128 30.4566 19.9128H30.5566V20.0664C30.3564 20.0664 30.1498 20.0548 29.9371 20.0548C29.7246 20.0548 29.5123 20.0602 29.2935 20.0664V19.9128Z" fill="white"/>
<path fill-rule="evenodd" clip-rule="evenodd" d="M33.0848 19.7413C33.0848 19.848 33.1493 19.8536 33.2494 19.8536C33.3207 19.8536 33.4089 19.848 33.4862 19.848V19.9723C33.2322 19.9956 32.7478 20.1197 32.6354 20.1552L32.6059 20.1372V19.6588C32.252 19.9481 31.9801 20.1552 31.5603 20.1552C31.2415 20.1552 30.911 19.9481 30.911 19.4527V17.9406C30.911 17.7869 30.8876 17.6392 30.5574 17.6101V17.4977C30.7701 17.4918 31.2415 17.4565 31.3185 17.4565C31.384 17.4565 31.384 17.4977 31.384 17.6278V19.1511C31.384 19.3284 31.384 19.8357 31.8976 19.8357C32.0981 19.8357 32.3638 19.6826 32.6117 19.4762V17.8873C32.6117 17.7694 32.3284 17.7044 32.1162 17.6457V17.5395C32.6471 17.5035 32.9781 17.4565 33.0371 17.4565C33.0848 17.4565 33.0848 17.4977 33.0848 17.5628V19.7413Z" fill="white"/>
<path fill-rule="evenodd" clip-rule="evenodd" d="M34.2595 17.7927C34.4956 17.5924 34.8146 17.3676 35.1394 17.3676C35.8244 17.3676 36.2378 17.9646 36.2378 18.6081C36.2378 19.3814 35.6707 20.1552 34.8259 20.1552C34.3894 20.1552 34.1591 20.0131 34.0052 19.9481L33.8286 20.084L33.7048 20.0193C33.7576 19.6709 33.7874 19.3285 33.7874 18.9681V16.4294C33.7874 16.0452 33.6985 16.0335 33.4741 15.9684V15.8738C33.7106 15.7972 33.9583 15.6911 34.0822 15.6198C34.1474 15.5848 34.1945 15.5547 34.2125 15.5547C34.2476 15.5547 34.2595 15.5907 34.2595 15.638V17.7927ZM34.2595 19.399C34.2595 19.6232 34.4722 20.0015 34.8677 20.0015C35.4994 20.0015 35.765 19.3813 35.765 18.8556C35.765 18.218 35.2813 17.6867 34.8209 17.6867C34.6015 17.6867 34.4188 17.8286 34.2595 17.9646V19.399Z" fill="white"/>
<path fill-rule="evenodd" clip-rule="evenodd" d="M8.78491 23.4998H8.83003C8.94557 23.4998 9.06768 23.4839 9.06768 23.3167V21.6335C9.06768 21.466 8.94557 21.4501 8.83003 21.4501H8.78491V21.3535C8.91018 21.3535 9.10295 21.3663 9.26081 21.3663C9.42135 21.3663 9.61388 21.3535 9.76493 21.3535V21.4501H9.71957C9.60451 21.4501 9.48216 21.466 9.48216 21.6335V23.3167C9.48216 23.4839 9.60451 23.4998 9.71957 23.4998H9.76493V23.5963C9.61084 23.5963 9.41758 23.5839 9.25753 23.5839C9.09979 23.5839 8.91018 23.5963 8.78491 23.5963V23.4998Z" fill="white"/>
<path fill-rule="evenodd" clip-rule="evenodd" d="M9.765 23.6104C9.60957 23.6104 9.41729 23.5975 9.25736 23.5975C9.1001 23.5975 8.9111 23.6104 8.78498 23.6104H8.771V23.4862H8.82986C8.94649 23.4834 9.05255 23.474 9.05352 23.317V21.6338C9.05255 21.4765 8.94649 21.4663 8.82986 21.4643H8.771V21.3398H8.78498C8.9111 21.3398 9.10375 21.3524 9.26088 21.3524C9.42069 21.3524 9.6131 21.3398 9.765 21.3398H9.77935V21.4643H9.72025C9.60349 21.4663 9.49683 21.4765 9.49622 21.6338V23.317C9.49683 23.474 9.60349 23.4834 9.72025 23.4862H9.77935V23.6104H9.765ZM9.75108 23.5829L9.7512 23.5145H9.72018C9.60525 23.5145 9.46867 23.4943 9.46794 23.317V21.6338C9.46867 21.4561 9.60525 21.4363 9.72018 21.4363H9.75108V21.3677C9.60282 21.3678 9.41662 21.3807 9.26082 21.3807C9.10819 21.3807 8.92345 21.3687 8.79903 21.3677V21.4363H8.8298C8.94437 21.4363 9.08119 21.4561 9.08119 21.6338V23.317C9.08119 23.4943 8.94437 23.5145 8.8298 23.5145H8.79903V23.5829C8.92345 23.5818 9.1049 23.57 9.2573 23.57C9.41382 23.57 9.59954 23.582 9.75108 23.5829Z" fill="white"/>
<path fill-rule="evenodd" clip-rule="evenodd" d="M11.9723 22.963L11.9787 22.9567V21.7522C11.9787 21.4885 11.7953 21.45 11.699 21.45H11.6282V21.3535C11.7795 21.3535 11.9273 21.3663 12.0781 21.3663C12.2098 21.3663 12.3421 21.3535 12.4733 21.3535V21.45H12.4256C12.2902 21.45 12.1391 21.4756 12.1391 21.858V23.3199C12.1391 23.4325 12.1423 23.5449 12.1581 23.6446H12.036L10.3816 21.8V23.1241C10.3816 23.4038 10.436 23.4998 10.6833 23.4998H10.7381V23.5963C10.5999 23.5963 10.4619 23.5838 10.3237 23.5838C10.1795 23.5838 10.0314 23.5963 9.88672 23.5963V23.4998H9.93184C10.1534 23.4998 10.2209 23.3487 10.2209 23.0924V21.7387C10.2209 21.5589 10.0727 21.45 9.92868 21.45H9.88672V21.3535C10.0086 21.3535 10.1341 21.3663 10.256 21.3663C10.3526 21.3663 10.4458 21.3535 10.5421 21.3535L11.9723 22.963Z" fill="white"/>
<path fill-rule="evenodd" clip-rule="evenodd" d="M12.1579 23.6584L12.0256 23.6539L10.395 21.8365V23.1244C10.3989 23.4037 10.4414 23.4832 10.6833 23.4862H10.7521V23.6104H10.7379C10.5989 23.6104 10.4606 23.5975 10.3235 23.5975C10.1796 23.5975 10.032 23.6104 9.88642 23.6104H9.87231V23.4862H9.93167C10.144 23.485 10.2047 23.3485 10.207 23.0926V21.7395C10.2064 21.5684 10.0661 21.4643 9.92862 21.4643H9.87231V21.3398H9.88642C10.0093 21.3398 10.135 21.3524 10.2555 21.3524C10.3514 21.3524 10.4442 21.3398 10.5525 21.3448L11.9646 22.9343V21.7525C11.963 21.4973 11.7925 21.4663 11.6989 21.4643H11.6139V21.3398H11.6282C11.7799 21.3398 11.9278 21.3524 12.0779 21.3524C12.2086 21.3524 12.3404 21.3398 12.4732 21.3398H12.4873V21.4643H12.4254C12.2927 21.4677 12.1566 21.4793 12.1527 21.8583V23.3202C12.1527 23.4327 12.1562 23.5448 12.1717 23.6424L12.1746 23.6584H12.1579ZM12.036 23.6304H12.1422C12.1279 23.5338 12.1253 23.4271 12.1253 23.3202V21.8583C12.1253 21.4726 12.287 21.4363 12.4254 21.436H12.4592V21.3677C12.3326 21.3687 12.2057 21.3803 12.0779 21.3803C11.9307 21.3803 11.7877 21.3687 11.6425 21.3677L11.6421 21.436H11.6989C11.7977 21.4363 11.9924 21.4802 11.9924 21.7525L11.9882 22.9671L11.9818 22.9733L11.9709 22.9837L10.542 21.3677C10.4465 21.3677 10.3536 21.3803 10.2555 21.3803C10.1378 21.3803 10.0172 21.3687 9.90066 21.3677L9.90005 21.436H9.92863C10.0793 21.4363 10.2344 21.5513 10.2344 21.7395V23.0926C10.2344 23.3497 10.1627 23.5139 9.93167 23.5148L9.90066 23.5139V23.5829C10.0398 23.5818 10.1832 23.57 10.3235 23.57C10.4576 23.57 10.5913 23.5818 10.7239 23.5829V23.5148H10.6833C10.4304 23.5139 10.3678 23.4037 10.3676 23.1244V21.7643L12.036 23.6304ZM11.9722 22.9633L11.9823 22.9541L11.9722 22.9633ZM11.9645 22.957V22.9558L11.962 22.9537L11.9645 22.957Z" fill="white"/>
<path fill-rule="evenodd" clip-rule="evenodd" d="M12.9548 21.5142C12.7135 21.5142 12.7042 21.5723 12.656 21.8065H12.5596C12.5722 21.7166 12.5882 21.6267 12.5981 21.5335C12.611 21.4431 12.6175 21.3535 12.6175 21.2606H12.6944C12.7204 21.357 12.8006 21.3535 12.8878 21.3535H14.545C14.6322 21.3535 14.7124 21.3504 14.7189 21.2539L14.7957 21.267C14.7833 21.3535 14.7701 21.4404 14.7608 21.5273C14.7545 21.614 14.7545 21.7005 14.7545 21.7872L14.6579 21.823C14.6513 21.7043 14.6354 21.5142 14.4201 21.5142H13.8931V23.2236C13.8931 23.4714 14.0058 23.4998 14.1597 23.4998H14.221V23.5963C14.0956 23.5963 13.8706 23.5839 13.6975 23.5839C13.5044 23.5839 13.2793 23.5963 13.1539 23.5963V23.4998H13.2152C13.3923 23.4998 13.4818 23.4839 13.4818 23.2302V21.5142H12.9548Z" fill="white"/>
<path fill-rule="evenodd" clip-rule="evenodd" d="M14.2212 23.6102C14.0946 23.6102 13.8699 23.5975 13.6974 23.5975C13.5046 23.5975 13.2799 23.6102 13.1539 23.6102H13.1401V23.4861H13.2152C13.3922 23.4819 13.4634 23.4796 13.4674 23.2304V21.5281H12.9548V21.5H13.4953V23.2304C13.4953 23.4884 13.3913 23.5144 13.2152 23.5147H13.1676V23.5825C13.2943 23.5817 13.5108 23.5699 13.6974 23.5699C13.8646 23.5699 14.0793 23.5817 14.2066 23.5825V23.5147H14.1597C14.0042 23.5144 13.8792 23.4762 13.8792 23.2237V21.5H14.4201C14.6356 21.5009 14.6642 21.684 14.6708 21.8036L14.7404 21.7779C14.7404 21.694 14.7408 21.61 14.7465 21.5255C14.756 21.4425 14.7677 21.3609 14.7797 21.2785L14.7309 21.2704C14.716 21.3639 14.6254 21.3689 14.5448 21.3677H12.871C12.7953 21.3678 12.713 21.3642 12.6841 21.2745H12.631C12.6305 21.3633 12.6245 21.4495 12.6123 21.5352C12.6027 21.6235 12.588 21.7082 12.5763 21.7934H12.6449C12.6871 21.5692 12.7146 21.4968 12.9548 21.5V21.5281C12.7168 21.5328 12.722 21.5726 12.6696 21.81L12.6673 21.821H12.5435L12.5452 21.8043C12.5583 21.7147 12.5746 21.6244 12.584 21.5311C12.5973 21.442 12.6034 21.3528 12.6034 21.2608V21.2465H12.7055L12.7079 21.2566C12.7295 21.3376 12.789 21.3383 12.871 21.3397H14.5448C14.6344 21.3383 14.6995 21.337 14.705 21.253L14.7061 21.2378L14.7207 21.2407L14.8116 21.2551L14.8092 21.2693C14.7965 21.3555 14.784 21.442 14.7742 21.5281C14.7683 21.6142 14.7683 21.7006 14.7683 21.7874V21.7971L14.7589 21.8009L14.6452 21.8425L14.6445 21.8239C14.6356 21.703 14.6232 21.5281 14.4201 21.5281H13.9072V23.2237C13.9104 23.466 14.0064 23.483 14.1597 23.4861H14.2348V23.6102H14.2212Z" fill="white"/>
<path fill-rule="evenodd" clip-rule="evenodd" d="M14.8982 23.4998H14.9434C15.0587 23.4998 15.1812 23.4839 15.1812 23.3167V21.6335C15.1812 21.466 15.0587 21.4501 14.9434 21.4501H14.8982V21.3535C15.0935 21.3535 15.4285 21.3663 15.6978 21.3663C15.9682 21.3663 16.3019 21.3535 16.5204 21.3535C16.5148 21.4917 16.5178 21.7043 16.5273 21.8453L16.4305 21.8709C16.415 21.6619 16.3765 21.4953 16.039 21.4953H15.5929V22.3366H15.9745C16.1673 22.3366 16.2093 22.2277 16.2284 22.0541H16.3247C16.3182 22.1796 16.3148 22.3048 16.3148 22.43C16.3148 22.5523 16.3182 22.6743 16.3247 22.7962L16.2284 22.8154C16.2093 22.6229 16.1997 22.4976 15.9777 22.4976H15.5929V23.2458C15.5929 23.455 15.7785 23.455 15.9843 23.455C16.3699 23.455 16.5401 23.4291 16.6365 23.0633L16.7262 23.0854C16.6844 23.256 16.6461 23.4258 16.6173 23.5963C16.4114 23.5963 16.0419 23.5839 15.7533 23.5839C15.4635 23.5839 15.0815 23.5963 14.8982 23.5963V23.4998Z" fill="white"/>
<path fill-rule="evenodd" clip-rule="evenodd" d="M16.6173 23.6104C16.4111 23.6104 16.0414 23.597 15.7531 23.597C15.4637 23.597 15.0818 23.6104 14.8983 23.6104H14.8848V23.4862H14.9435C15.0598 23.4843 15.1656 23.474 15.167 23.317V21.6338C15.1656 21.4768 15.0598 21.4663 14.9435 21.4643H14.8848V21.3398H14.8983C15.0946 21.3398 15.4288 21.3524 15.698 21.3524C15.9682 21.3524 16.3018 21.3398 16.5206 21.3398H16.5348L16.5343 21.3547C16.5322 21.4027 16.5309 21.4599 16.5309 21.5203C16.5309 21.6314 16.5343 21.7531 16.5406 21.8446L16.5412 21.856L16.5304 21.8593L16.4174 21.8888L16.4169 21.8723C16.398 21.6638 16.37 21.5122 16.0392 21.509H15.6061L15.6059 22.3228H15.9746C16.1598 22.3208 16.1929 22.2262 16.2148 22.0529L16.2155 22.04H16.3391L16.3389 22.0547C16.3327 22.1802 16.3289 22.3051 16.3289 22.4303C16.3289 22.5518 16.3327 22.6738 16.3389 22.7959L16.3391 22.8076L16.3274 22.8102L16.2155 22.8325L16.2148 22.8174C16.1926 22.6212 16.1911 22.5137 15.9779 22.5114H15.6061V23.2461C15.6066 23.4414 15.7749 23.4404 15.9843 23.4414C16.3712 23.4391 16.5262 23.4202 16.623 23.0598L16.6263 23.0468L16.6397 23.049L16.7428 23.0757L16.7398 23.089C16.6981 23.259 16.6598 23.4289 16.6308 23.5989L16.6283 23.6104H16.6173ZM16.6054 23.5826C16.6335 23.4202 16.6701 23.2579 16.7095 23.0962L16.6462 23.0802C16.55 23.4396 16.3636 23.4717 15.9844 23.4693C15.7819 23.4693 15.5795 23.4693 15.5784 23.2461V22.4839H15.9779C16.2023 22.4816 16.2249 22.6169 16.241 22.7996L16.3103 22.7854C16.3041 22.667 16.301 22.548 16.301 22.4303C16.301 22.3096 16.3041 22.1892 16.3103 22.068H16.241C16.2229 22.2358 16.1705 22.3529 15.9747 22.3509H15.5784V21.4812H16.0392C16.3733 21.4785 16.4287 21.6514 16.4433 21.8536L16.5125 21.8347C16.5069 21.7441 16.5031 21.6276 16.5031 21.5203C16.5031 21.4653 16.5046 21.4132 16.5064 21.3677C16.2881 21.3687 15.9622 21.3803 15.6981 21.3803C15.434 21.3803 15.1091 21.3687 14.9124 21.3677V21.436H14.9436C15.0579 21.4363 15.1946 21.4561 15.1953 21.6338V23.317C15.1946 23.4943 15.0579 23.5139 14.9436 23.5148H14.9124V23.5826C15.0995 23.582 15.4709 23.57 15.7532 23.57C16.0368 23.57 16.3983 23.582 16.6054 23.5826Z" fill="white"/>
<path fill-rule="evenodd" clip-rule="evenodd" d="M17.1602 21.6938C17.1602 21.4596 17.0315 21.45 16.9318 21.45H16.8738V21.3535C16.9767 21.3535 17.1759 21.3663 17.3721 21.3663C17.5645 21.3663 17.7189 21.3535 17.8892 21.3535C18.2935 21.3535 18.6541 21.4626 18.6541 21.9192C18.6541 22.2081 18.4612 22.3846 18.2075 22.4848L18.7566 23.3069C18.8468 23.4428 18.9106 23.4809 19.0684 23.4998V23.5963C18.9621 23.5963 18.8594 23.5839 18.7537 23.5839C18.6541 23.5839 18.5508 23.5963 18.4517 23.5963C18.2041 23.272 17.9918 22.9251 17.7831 22.555H17.5714V23.243C17.5714 23.4904 17.6868 23.4998 17.8341 23.4998H17.8924V23.5963C17.7088 23.5963 17.5232 23.5839 17.3397 23.5839C17.1855 23.5839 17.0344 23.5963 16.8738 23.5963V23.4998H16.9318C17.0511 23.4998 17.1602 23.4454 17.1602 23.3267V21.6938ZM17.5714 22.4391H17.7284C18.0501 22.4391 18.2233 22.3174 18.2233 21.938C18.2233 21.6524 18.0401 21.4692 17.7538 21.4692C17.6574 21.4692 17.6162 21.479 17.5714 21.4822V22.4391Z" fill="white"/>
<path fill-rule="evenodd" clip-rule="evenodd" d="M19.0685 23.6104C18.9607 23.6104 18.8586 23.5975 18.7529 23.5975C18.655 23.5975 18.5522 23.6104 18.4403 23.605C18.1938 23.2815 17.9825 22.9366 17.7751 22.5698H17.5852V23.2427C17.5887 23.4846 17.6857 23.4828 17.8342 23.4862H17.9063V23.6104H17.8921C17.7084 23.6104 17.5217 23.5975 17.3397 23.5975C17.1862 23.5975 17.0352 23.6104 16.8738 23.6104H16.8599V23.4862H16.9319C17.0474 23.4854 17.1451 23.435 17.1456 23.327V21.6941C17.1431 21.4663 17.0316 21.4674 16.9319 21.4643H16.8599V21.3398H16.8738C16.9778 21.3398 17.1762 21.3524 17.3721 21.3524C17.5639 21.3524 17.718 21.3398 17.8893 21.3398C18.2944 21.3407 18.6671 21.4522 18.6681 21.919C18.6681 22.2089 18.4764 22.3902 18.2287 22.4912L18.7682 23.2995C18.8581 23.4328 18.914 23.4661 19.0703 23.4862L19.082 23.488V23.6104H19.0685ZM17.5713 22.5414H17.7909L17.7949 22.5486C18.0041 22.9177 18.2152 23.2647 18.4518 23.5829C18.5495 23.5829 18.6528 23.57 18.7529 23.57C18.8554 23.57 18.9547 23.5812 19.0544 23.5826V23.5121C18.9038 23.4937 18.833 23.4482 18.7454 23.3151L18.186 22.4787L18.2018 22.4722C18.4535 22.3731 18.6399 22.2015 18.64 21.919C18.6399 21.4733 18.2932 21.3699 17.8893 21.3677C17.7201 21.3677 17.5656 21.3807 17.3721 21.3807C17.1834 21.3807 16.9927 21.3687 16.8876 21.3677V21.436H16.9319C17.0316 21.4363 17.1735 21.4528 17.1735 21.6941V23.327C17.1735 23.4559 17.0528 23.5145 16.9319 23.5148H16.8876V23.5826C17.0421 23.582 17.1887 23.57 17.3397 23.57C17.5191 23.57 17.7005 23.582 17.8782 23.5826V23.5148H17.8342C17.6879 23.5145 17.5571 23.4964 17.5571 23.2427V22.5414H17.5713ZM17.5714 22.4532H17.5572V21.4695L17.5694 21.4685C17.6135 21.465 17.6568 21.4561 17.7539 21.4561C18.0466 21.4561 18.2371 21.6462 18.2374 21.9392C18.2365 22.3228 18.0526 22.4531 17.7285 22.4532H17.5714ZM17.7285 22.4259C18.0465 22.4227 18.2068 22.3124 18.21 21.9392C18.208 21.6585 18.0337 21.4843 17.7539 21.4831C17.6672 21.4831 17.6262 21.4911 17.5852 21.4951V22.4259H17.7285Z" fill="white"/>
<path fill-rule="evenodd" clip-rule="evenodd" d="M21.2496 22.963L21.2552 22.9567V21.7522C21.2552 21.4885 21.0727 21.45 20.9762 21.45H20.9058V21.3535C21.0568 21.3535 21.2041 21.3663 21.3555 21.3663C21.4876 21.3663 21.6184 21.3535 21.7511 21.3535V21.45H21.7026C21.5676 21.45 21.4167 21.4756 21.4167 21.858V23.3199C21.4167 23.4325 21.4199 23.5449 21.4357 23.6446H21.3141L19.6595 21.8V23.1241C19.6595 23.4038 19.7138 23.4998 19.9612 23.4998H20.0159V23.5963C19.8779 23.5963 19.7394 23.5838 19.6014 23.5838C19.4563 23.5838 19.3088 23.5963 19.1643 23.5963V23.4998H19.2089C19.4308 23.4998 19.4986 23.3487 19.4986 23.0924V21.7387C19.4986 21.5589 19.3506 21.45 19.2061 21.45H19.1643V21.3535C19.2859 21.3535 19.4122 21.3663 19.534 21.3663C19.6295 21.3663 19.7232 21.3535 19.8197 21.3535L21.2496 22.963Z" fill="white"/>
<path fill-rule="evenodd" clip-rule="evenodd" d="M21.4356 23.6584L21.3037 23.6539L19.6729 21.8368V23.1243C19.6766 23.4041 19.719 23.4832 19.9612 23.4862H20.0293V23.6104H20.0154C19.8765 23.6104 19.7385 23.597 19.6009 23.597C19.4575 23.597 19.309 23.6104 19.1643 23.6104H19.1499V23.4862H19.209C19.4212 23.4854 19.482 23.3485 19.4841 23.0919V21.739C19.4838 21.5678 19.3436 21.4643 19.2062 21.4643H19.1499V21.3398H19.1643C19.287 21.3398 19.4127 21.3524 19.534 21.3524C19.6284 21.3524 19.7214 21.3398 19.8292 21.344L21.2417 22.9343V21.7525C21.2408 21.4973 21.0697 21.4657 20.9763 21.4643H20.8915V21.3398H20.9055C21.0573 21.3398 21.2054 21.3524 21.3556 21.3524C21.4865 21.3524 21.6181 21.3398 21.7505 21.3398H21.7647V21.4643H21.7027C21.5702 21.4674 21.4336 21.4793 21.4304 21.8583V23.3202C21.4304 23.4327 21.4332 23.5441 21.4496 23.6426L21.4512 23.6584H21.4356ZM21.314 23.6304H21.4193C21.4052 23.5344 21.4024 23.4271 21.4024 23.3202V21.8583C21.4026 21.4726 21.5651 21.4369 21.7027 21.436H21.7365V21.3677C21.61 21.3687 21.483 21.3803 21.3556 21.3803C21.2079 21.3803 21.0648 21.3687 20.9194 21.3677V21.436H20.9762C21.0752 21.4369 21.2698 21.4802 21.2698 21.7525L21.2652 22.9671L21.2593 22.9733L21.2493 22.9839L19.8197 21.3677C19.7241 21.3677 19.631 21.3803 19.5339 21.3803C19.4147 21.3803 19.2947 21.3687 19.1779 21.3677V21.436H19.2062C19.3573 21.4369 19.5119 21.5508 19.5119 21.739V23.0919C19.5119 23.3497 19.4393 23.5139 19.2089 23.5148L19.1779 23.5145V23.5828C19.3167 23.5818 19.4599 23.57 19.6008 23.57C19.7356 23.57 19.8691 23.5818 20.0019 23.5828V23.5148H19.9612C19.7083 23.5145 19.6453 23.4041 19.6446 23.1243V21.7648L21.314 23.6304ZM21.2493 22.9633L21.2598 22.9541L21.2493 22.9633ZM21.2417 22.957V22.9562L21.2394 22.9537L21.2417 22.957Z" fill="white"/>
<path fill-rule="evenodd" clip-rule="evenodd" d="M22.2677 23.1369C22.2353 23.2458 22.1965 23.3302 22.1965 23.3872C22.1965 23.4839 22.3319 23.4998 22.4376 23.4998H22.4735V23.5963C22.3444 23.5893 22.2133 23.5839 22.084 23.5839C21.9684 23.5839 21.8533 23.5893 21.7373 23.5963V23.4998H21.7569C21.8819 23.4998 21.9883 23.4258 22.036 23.2908L22.5501 21.8165C22.5921 21.6973 22.6499 21.5367 22.6695 21.4176C22.7717 21.3824 22.9007 21.3186 22.9615 21.2795C22.9715 21.2762 22.9775 21.2729 22.9872 21.2729C22.9969 21.2729 23.0029 21.2729 23.0099 21.283C23.0194 21.3085 23.0288 21.3374 23.0388 21.3631L23.6302 23.0437C23.6688 23.1559 23.7069 23.2747 23.7481 23.3716C23.7872 23.4618 23.8547 23.4998 23.9611 23.4998H23.9804V23.5963C23.8356 23.5893 23.6907 23.5839 23.5372 23.5839C23.3797 23.5839 23.2185 23.5893 23.0547 23.5963V23.4998H23.0901C23.1635 23.4998 23.2897 23.4871 23.2897 23.4067C23.2897 23.3652 23.2606 23.2784 23.2247 23.1751L23.0996 22.8026H22.3703L22.2677 23.1369ZM22.7367 21.7135H22.7301L22.4315 22.6229H23.0318L22.7367 21.7135Z" fill="white"/>
<path fill-rule="evenodd" clip-rule="evenodd" d="M23.9793 23.6101C23.835 23.6039 23.6901 23.5968 23.5371 23.5968C23.3796 23.5968 23.2193 23.6039 23.0554 23.6101L23.0405 23.6109V23.4854H23.09C23.1645 23.4854 23.2749 23.4687 23.2751 23.4068C23.2759 23.3702 23.2471 23.2821 23.2117 23.18L23.0893 22.8164H22.3806L22.2807 23.1412C22.2483 23.2504 22.2093 23.3353 22.2099 23.3876C22.211 23.466 22.3309 23.4854 22.4375 23.4854H22.4869V23.6109L22.4723 23.6101C22.3439 23.6039 22.2128 23.5968 22.0842 23.5968C21.9695 23.5968 21.8534 23.6039 21.7383 23.6101L21.7234 23.6109V23.4854H21.7567C21.8761 23.4851 21.9759 23.4169 22.0223 23.2864L22.5369 21.8116C22.5784 21.6927 22.6368 21.5329 22.6645 21.4044C22.7653 21.3703 22.8946 21.3054 22.9563 21.2666C22.9653 21.2635 22.9741 21.2593 22.987 21.2593C22.9949 21.2589 23.0122 21.2609 23.0227 21.2777C23.0318 21.3041 23.042 21.3329 23.0517 21.3588L23.6433 23.0393C23.6811 23.1518 23.7195 23.2705 23.7616 23.3657C23.7988 23.4513 23.8578 23.4851 23.9611 23.4854H23.9936V23.6109L23.9793 23.6101ZM23.0687 23.5815C23.2277 23.5759 23.3837 23.5697 23.5372 23.5697C23.6862 23.5697 23.8263 23.5759 23.9659 23.5815V23.5143H23.9612C23.851 23.515 23.7752 23.4717 23.7358 23.377C23.694 23.2799 23.6549 23.1606 23.617 23.0481L23.0254 21.3676C23.0157 21.3419 23.0066 21.3132 22.9982 21.2903C22.995 21.2872 22.9957 21.2872 22.9932 21.2872H22.9871C22.9807 21.2872 22.9768 21.2891 22.9685 21.2912C22.9067 21.3313 22.7779 21.3947 22.6823 21.4197C22.6627 21.5415 22.6048 21.702 22.5631 21.8211L22.049 23.2955C22.0002 23.4351 21.8872 23.5145 21.7568 23.5143H21.7514V23.5815C21.8616 23.5759 21.9728 23.5697 22.0843 23.5697C22.2086 23.5697 22.3353 23.5759 22.4583 23.5815V23.5143H22.4376C22.3327 23.5128 22.1865 23.5014 22.1828 23.3876C22.1831 23.3238 22.2225 23.2416 22.254 23.133L22.2676 23.137L22.254 23.1326L22.3598 22.7893H23.109L23.2376 23.1708C23.2738 23.2742 23.3029 23.3598 23.3029 23.4068C23.2982 23.5052 23.163 23.5125 23.0901 23.5143H23.0687V23.5815ZM22.4118 22.6368L22.7194 21.6994H22.7367V21.7136L22.7333 21.7146L22.7367 21.7136V21.6994H22.7463L23.0517 22.6368H22.4118ZM22.4503 22.6087H23.0128L22.7332 21.7478L22.4503 22.6087ZM22.7227 21.7177L22.7302 21.7154L22.7227 21.7177Z" fill="white"/>
<path fill-rule="evenodd" clip-rule="evenodd" d="M24.1215 21.5142C23.8805 21.5142 23.8708 21.5723 23.8224 21.8065H23.7258C23.7385 21.7166 23.7549 21.6267 23.7649 21.5335C23.7774 21.4431 23.7836 21.3535 23.7836 21.2606H23.8613C23.8865 21.357 23.967 21.3535 24.0537 21.3535H25.7119C25.7982 21.3535 25.8785 21.3504 25.8848 21.2539L25.9617 21.267C25.9498 21.3535 25.937 21.4404 25.9269 21.5273C25.9199 21.614 25.9199 21.7005 25.9199 21.7872L25.8239 21.823C25.8182 21.7043 25.802 21.5142 25.5863 21.5142H25.0594V23.2236C25.0594 23.4714 25.172 23.4998 25.326 23.4998H25.3874V23.5963C25.2619 23.5963 25.0374 23.5839 24.8635 23.5839C24.6711 23.5839 24.4456 23.5963 24.3203 23.5963V23.4998H24.3815C24.5586 23.4998 24.6482 23.4839 24.6482 23.2302V21.5142H24.1215Z" fill="white"/>
<path fill-rule="evenodd" clip-rule="evenodd" d="M25.3875 23.6102C25.2612 23.6102 25.036 23.5975 24.8633 23.5975C24.6714 23.5975 24.4464 23.6102 24.3205 23.6102H24.3063V23.4861H24.3815C24.5588 23.4819 24.6298 23.4796 24.634 23.2304L24.6338 21.5281H24.1215V21.5H24.6621V23.2304C24.6621 23.4884 24.558 23.5138 24.3815 23.5144H24.3342V23.5828C24.4612 23.5817 24.6771 23.5699 24.8633 23.5699C25.0312 23.5699 25.2463 23.5817 25.3731 23.5828V23.5144H25.3259C25.1711 23.5138 25.046 23.4766 25.0457 23.2237V21.5H25.5863C25.8022 21.5009 25.8303 21.684 25.8365 21.8036L25.9063 21.7779C25.9063 21.694 25.9068 21.61 25.9134 21.5259C25.922 21.4431 25.9342 21.3609 25.9458 21.2789L25.8973 21.2704C25.8826 21.3639 25.7919 21.3691 25.712 21.3677H24.0374C23.9616 21.3685 23.8796 21.3642 23.8504 21.2743H23.7979C23.7972 21.3632 23.7908 21.4495 23.7782 21.5352C23.7694 21.6238 23.754 21.7088 23.7417 21.7934H23.8108C23.853 21.5692 23.8808 21.4965 24.1215 21.5V21.5281C23.8833 21.5322 23.8885 21.5726 23.8361 21.81L23.8338 21.821H23.7097L23.7117 21.805C23.7252 21.7147 23.741 21.6244 23.7503 21.5319C23.7635 21.442 23.7694 21.3528 23.7694 21.2608V21.2465H23.8715L23.8741 21.2566C23.8966 21.3376 23.9551 21.3383 24.0374 21.3397H25.712C25.8009 21.3383 25.8657 21.337 25.8714 21.2532L25.8719 21.2378L25.8868 21.2407L25.9781 21.2551L25.9759 21.2693C25.9626 21.3555 25.9505 21.442 25.9407 21.5281C25.9342 21.6142 25.9342 21.7007 25.9342 21.7874V21.7971L25.9248 21.8009L25.8111 21.8425L25.8106 21.8239C25.8022 21.703 25.7894 21.5281 25.5863 21.5281H25.0733V23.2237C25.0766 23.466 25.1728 23.483 25.3259 23.4861H25.4009V23.6102H25.3875Z" fill="white"/>
<path fill-rule="evenodd" clip-rule="evenodd" d="M26.0808 23.4998H26.1258C26.2416 23.4998 26.3632 23.4839 26.3632 23.3167V21.6335C26.3632 21.466 26.2416 21.4501 26.1258 21.4501H26.0808V21.3535C26.2062 21.3535 26.3986 21.3663 26.5559 21.3663C26.7169 21.3663 26.9098 21.3535 27.0611 21.3535V21.4501H27.0159C26.8998 21.4501 26.7777 21.466 26.7777 21.6335V23.3167C26.7777 23.4839 26.8998 23.4998 27.0159 23.4998H27.0611V23.5963C26.9067 23.5963 26.7137 23.5839 26.5533 23.5839C26.3956 23.5839 26.2062 23.5963 26.0808 23.5963V23.4998Z" fill="white"/>
<path fill-rule="evenodd" clip-rule="evenodd" d="M27.0611 23.6104C26.9058 23.6104 26.7137 23.597 26.5534 23.597C26.3961 23.597 26.2064 23.6104 26.0809 23.6104H26.0671V23.4862H26.126C26.2418 23.4843 26.3486 23.474 26.3493 23.317V21.6338C26.3486 21.4768 26.2418 21.4663 26.126 21.4643H26.0671V21.3398H26.0809C26.2064 21.3398 26.3997 21.3524 26.5559 21.3524C26.7161 21.3524 26.9089 21.3398 27.0611 21.3398H27.0745V21.4643H27.0161C26.8985 21.4663 26.7929 21.4768 26.7918 21.6338V23.317C26.7929 23.474 26.8985 23.4843 27.0161 23.4862H27.0745V23.6104H27.0611ZM27.0466 23.5826V23.5145H27.0162C26.9009 23.5145 26.7645 23.4943 26.7645 23.317V21.6338C26.7645 21.4561 26.9009 21.4363 27.0162 21.436H27.0466V21.3677C26.8984 21.3687 26.7123 21.3803 26.5559 21.3803C26.4034 21.3803 26.2195 21.3687 26.0949 21.3677V21.436H26.126C26.2401 21.4363 26.377 21.4561 26.3774 21.6338V23.317C26.377 23.4943 26.2401 23.5145 26.126 23.5145H26.0949V23.5826C26.2187 23.5812 26.4004 23.57 26.5534 23.57C26.7092 23.57 26.895 23.5818 27.0466 23.5826Z" fill="white"/>
<path fill-rule="evenodd" clip-rule="evenodd" d="M28.3422 21.3057C29.0271 21.3057 29.5731 21.7302 29.5731 22.4146C29.5731 23.1537 29.0428 23.6449 28.3587 23.6449C27.6773 23.6449 27.157 23.1821 27.157 22.4912C27.157 21.8233 27.6741 21.3057 28.3422 21.3057ZM28.3907 23.5035C29.0142 23.5035 29.1229 22.9536 29.1229 22.4852C29.1229 22.0156 28.8697 21.4471 28.3361 21.4471C27.7739 21.4471 27.6067 21.9485 27.6067 22.3786C27.6067 22.9536 27.8704 23.5035 28.3907 23.5035Z" fill="white"/>
<path fill-rule="evenodd" clip-rule="evenodd" d="M27.1426 22.491C27.1439 21.8153 27.667 21.2926 28.342 21.2915V21.3196C27.6815 21.3196 27.1706 21.8302 27.1698 22.491C27.1712 23.1742 27.6839 23.63 28.3588 23.6303C29.036 23.63 29.5586 23.1459 29.5594 22.4139C29.5588 21.7381 29.0215 21.3202 28.342 21.3196V21.2915C29.0318 21.2922 29.5856 21.7209 29.5868 22.4139C29.5861 23.1607 29.0495 23.657 28.3588 23.6582C27.6715 23.657 27.1439 23.1896 27.1426 22.491ZM27.5926 22.3784C27.5936 21.946 27.7623 21.4326 28.336 21.4326C28.8816 21.4338 29.136 22.0128 29.1371 22.4849C29.136 22.9534 29.0258 23.5164 28.3908 23.5164V23.4892C29.0017 23.4887 29.1079 22.9534 29.1089 22.4849C29.1089 22.0195 28.8582 21.4617 28.336 21.4609C27.7848 21.4615 27.6219 21.9504 27.6205 22.3784C27.6207 22.9507 27.882 23.4883 28.3908 23.4892V23.5164C27.8575 23.5159 27.5936 22.9568 27.5926 22.3784Z" fill="white"/>
<path fill-rule="evenodd" clip-rule="evenodd" d="M31.7381 22.963L31.7448 22.9567V21.7522C31.7448 21.4885 31.5611 21.45 31.4647 21.45H31.3948V21.3535C31.5454 21.3535 31.6935 21.3663 31.8441 21.3663C31.9762 21.3663 32.1079 21.3535 32.2397 21.3535V21.45H32.1914C32.0568 21.45 31.9051 21.4756 31.9051 21.858V23.3199C31.9051 23.4325 31.9085 23.5449 31.9248 23.6446H31.8026L30.1476 21.8V23.1241C30.1476 23.4038 30.2024 23.4998 30.4493 23.4998H30.5044V23.5963C30.3661 23.5963 30.2282 23.5838 30.0901 23.5838C29.9453 23.5838 29.7974 23.5963 29.6528 23.5963V23.4998H29.698C29.92 23.4998 29.987 23.3487 29.987 23.0924V21.7387C29.987 21.5589 29.8398 21.45 29.6944 21.45H29.6528V21.3535C29.7749 21.3535 29.9001 21.3663 30.0224 21.3663C30.1186 21.3663 30.2113 21.3535 30.3081 21.3535L31.7381 22.963Z" fill="white"/>
<path fill-rule="evenodd" clip-rule="evenodd" d="M31.925 23.6584L31.7921 23.6539L30.1615 21.8368V23.1244C30.1653 23.4041 30.2077 23.4828 30.449 23.4856H30.5182V23.6104H30.5046C30.3655 23.6104 30.2276 23.5975 30.0901 23.5975C29.9461 23.5975 29.7982 23.6104 29.6525 23.6104H29.6394V23.4856H29.6979C29.9096 23.485 29.9707 23.3485 29.9733 23.0926V21.739C29.9731 21.5678 29.8327 21.4643 29.6946 21.4643H29.6394V21.3398H29.6525C29.7757 21.3398 29.901 21.3524 30.0224 21.3524C30.1177 21.3524 30.21 21.3398 30.319 21.3448L31.7308 22.9343V21.7525C31.7297 21.4973 31.5586 21.4663 31.4648 21.4643H31.3802V21.3398H31.3949C31.5458 21.3398 31.6941 21.3524 31.8438 21.3524C31.9752 21.3524 32.1064 21.3398 32.2399 21.3398H32.2534V21.4643H32.1914C32.0589 21.4677 31.9222 21.4798 31.9195 21.8583V23.3202C31.9195 23.4327 31.9221 23.5448 31.9377 23.6426L31.9405 23.6584H31.925ZM31.8027 23.6304H31.908C31.8944 23.5338 31.8912 23.4271 31.8912 23.3202V21.8583C31.8912 21.472 32.0535 21.4369 32.1914 21.436H32.2262V21.3677C32.0986 21.3687 31.9722 21.3803 31.8438 21.3803C31.6975 21.3803 31.5539 21.3687 31.4084 21.3677V21.436H31.4648C31.5641 21.4369 31.7581 21.4808 31.7581 21.7525L31.7547 22.9671L31.7485 22.9733L31.7382 22.9839L30.3084 21.3677C30.2132 21.3677 30.1197 21.3803 30.0224 21.3803C29.904 21.3803 29.7833 21.3687 29.6664 21.3677V21.436H29.6947C29.8457 21.4369 30.0009 21.5508 30.0009 21.739V23.0926C30.0009 23.3497 29.9291 23.5139 29.6979 23.5148L29.6664 23.5145V23.5828C29.8059 23.5818 29.949 23.57 30.0902 23.57C30.2242 23.57 30.3574 23.5818 30.4905 23.5828V23.5148H30.4491C30.197 23.5145 30.1337 23.4041 30.1337 23.1244V21.7643L31.8027 23.6304ZM31.7382 22.9633L31.7484 22.9541L31.7382 22.9633ZM31.7308 22.957V22.9562L31.7283 22.9537L31.7308 22.957Z" fill="white"/>
<path fill-rule="evenodd" clip-rule="evenodd" d="M32.7559 23.1369C32.7244 23.2458 32.6856 23.3302 32.6856 23.3872C32.6856 23.4839 32.8209 23.4998 32.9262 23.4998H32.9621V23.5963C32.8334 23.5893 32.7016 23.5839 32.5729 23.5839C32.4573 23.5839 32.3417 23.5893 32.2266 23.5963V23.4998H32.2448C32.3708 23.4998 32.4772 23.4258 32.5242 23.2908L33.0394 21.8165C33.0808 21.6973 33.139 21.5367 33.1574 21.4176C33.2607 21.3824 33.3889 21.3186 33.4508 21.2795C33.4598 21.2762 33.4662 21.2729 33.4762 21.2729C33.4856 21.2729 33.4917 21.2729 33.4982 21.283C33.508 21.3085 33.5176 21.3374 33.5273 21.3631L34.1185 23.0437C34.1568 23.1559 34.1956 23.2747 34.2376 23.3716C34.2761 23.4618 34.3435 23.4998 34.4494 23.4998H34.4692V23.5963C34.3244 23.5893 34.1797 23.5839 34.0253 23.5839C33.8682 23.5839 33.7073 23.5893 33.5432 23.5963V23.4998H33.5789C33.6523 23.4998 33.7783 23.4871 33.7783 23.4067C33.7783 23.3652 33.7495 23.2784 33.7136 23.1751L33.5883 22.8026H32.8591L32.7559 23.1369ZM33.2257 21.7135H33.2193L32.9198 22.6229H33.5215L33.2257 21.7135Z" fill="white"/>
<path fill-rule="evenodd" clip-rule="evenodd" d="M34.4679 23.61C34.323 23.6042 34.1788 23.5971 34.0255 23.5971C33.8688 23.5971 33.7077 23.6042 33.544 23.61L33.5298 23.6107V23.4858H33.5787C33.6534 23.4858 33.764 23.4685 33.7642 23.4066C33.765 23.37 33.7359 23.2823 33.6998 23.1798L33.578 22.8163H32.8687L32.7694 23.141C32.7371 23.2511 32.6991 23.3351 32.6995 23.3872C32.6995 23.4658 32.82 23.4858 32.9262 23.4858H32.9753V23.6107L32.9609 23.61C32.8325 23.6042 32.701 23.5971 32.573 23.5971C32.4578 23.5971 32.3425 23.6042 32.2266 23.61L32.2126 23.6107V23.4858H32.2449C32.3647 23.4852 32.4649 23.4166 32.512 23.2862L33.0258 21.8114C33.067 21.6925 33.125 21.5327 33.1533 21.4047C33.2542 21.3697 33.3832 21.3053 33.4458 21.2665C33.454 21.2633 33.463 21.2594 33.4762 21.2594C33.4844 21.2587 33.5013 21.2607 33.5112 21.2783C33.5209 21.3035 33.5304 21.3327 33.5409 21.3586L34.1317 23.0391C34.1704 23.1516 34.2087 23.2703 34.2504 23.3661C34.2882 23.4511 34.3464 23.4849 34.4491 23.4858H34.4823V23.6107L34.4679 23.61ZM33.5571 23.5816C33.716 23.5758 33.8723 23.5696 34.0256 23.5696C34.1749 23.5696 34.3146 23.5758 34.4549 23.5814L34.4545 23.5141H34.4492C34.3403 23.5144 34.2645 23.4716 34.2244 23.3768C34.1821 23.2798 34.1439 23.1605 34.1053 23.0483L33.5141 21.3674C33.5047 21.3417 33.4944 21.313 33.4869 21.2908C33.4842 21.287 33.4845 21.287 33.4825 21.287H33.4762C33.4693 21.287 33.4657 21.2892 33.4581 21.2914C33.3952 21.3307 33.2666 21.3951 33.1718 21.4196C33.1518 21.5413 33.0935 21.7016 33.0521 21.8209L32.5375 23.2953C32.4886 23.435 32.3764 23.5144 32.2449 23.5141H32.2402V23.5814C32.3508 23.5758 32.4613 23.5696 32.573 23.5696C32.6975 23.5696 32.8246 23.5758 32.948 23.5814V23.5141H32.9262C32.8218 23.5127 32.6753 23.5016 32.6712 23.3872C32.672 23.3237 32.7116 23.2417 32.7431 23.1329L32.756 23.1369L32.7431 23.1325L32.8488 22.7892H33.5977L33.7267 23.1707C33.7621 23.2741 33.7914 23.3597 33.7914 23.4066C33.7868 23.505 33.6517 23.5123 33.5787 23.5141H33.5571V23.5816ZM32.9005 22.6365L33.209 21.6992H33.2257V21.7134L33.2221 21.7144L33.2257 21.7134V21.6992H33.2354L33.5392 22.6365H32.9005ZM32.9393 22.6086H33.5014L33.2219 21.7481L32.9393 22.6086ZM33.2124 21.7176L33.2187 21.7153L33.2124 21.7176Z" fill="white"/>
<path fill-rule="evenodd" clip-rule="evenodd" d="M35.2786 23.2812C35.2786 23.4104 35.3678 23.4484 35.471 23.4618C35.6024 23.4714 35.7472 23.4714 35.8954 23.455C36.0302 23.4388 36.1458 23.3622 36.2035 23.2812C36.2546 23.2107 36.2835 23.1207 36.3032 23.0501H36.3961C36.3607 23.2333 36.3159 23.4134 36.2773 23.5963C35.9951 23.5963 35.7115 23.5839 35.4292 23.5839C35.1462 23.5839 34.8637 23.5963 34.5811 23.5963V23.4998H34.6256C34.7415 23.4998 34.8672 23.4839 34.8672 23.2847V21.6335C34.8672 21.466 34.7415 21.45 34.6256 21.45H34.5811V21.3535C34.7511 21.3535 34.9184 21.3663 35.0885 21.3663C35.2526 21.3663 35.4129 21.3535 35.5773 21.3535V21.45H35.4965C35.3744 21.45 35.2786 21.4534 35.2786 21.6236V23.2812Z" fill="white"/>
<path fill-rule="evenodd" clip-rule="evenodd" d="M36.2774 23.6104C35.994 23.6104 35.711 23.5975 35.4292 23.5975C35.1465 23.5975 34.8638 23.6104 34.5804 23.6104H34.5669V23.4862H34.6255C34.7417 23.4834 34.852 23.4753 34.8533 23.285V21.6332C34.852 21.4768 34.7421 21.4663 34.6255 21.4643H34.5669V21.3398H34.5804C34.7515 21.3398 34.9187 21.3524 35.0882 21.3524C35.2517 21.3524 35.4118 21.3398 35.5772 21.3398H35.5901V21.4643H35.4964C35.3718 21.4674 35.2944 21.4618 35.2916 21.6239V23.2815C35.2925 23.4017 35.3712 23.4338 35.4716 23.4481C35.5282 23.452 35.588 23.4541 35.6498 23.4541C35.7284 23.4541 35.81 23.4504 35.893 23.4417C36.0239 23.4261 36.1365 23.3505 36.1921 23.2739C36.2417 23.2051 36.2697 23.1171 36.2892 23.0472L36.2918 23.0366H36.413L36.4102 23.0535C36.3738 23.2371 36.3295 23.4164 36.2906 23.5996L36.2881 23.6104H36.2774ZM36.2656 23.5826C36.3029 23.4081 36.3448 23.2375 36.3796 23.0642H36.3133C36.2936 23.1341 36.2649 23.2203 36.2146 23.2903C36.1545 23.3735 36.0355 23.452 35.8962 23.4693C35.8121 23.4778 35.7286 23.4822 35.6499 23.4822C35.5876 23.4822 35.5275 23.4794 35.469 23.4752C35.3646 23.4638 35.2635 23.4189 35.2636 23.2815V21.6239C35.2636 21.4453 35.3766 21.436 35.4965 21.436H35.5627V21.3677C35.4045 21.3687 35.2482 21.3807 35.0882 21.3807C34.9222 21.3807 34.7594 21.3687 34.5949 21.3677V21.436H34.6256C34.7402 21.436 34.8804 21.4561 34.8804 21.6332V23.285C34.8804 23.493 34.7408 23.5145 34.6256 23.5145H34.5949V23.5826C34.8725 23.582 35.1503 23.57 35.4293 23.57C35.7086 23.57 35.9875 23.582 36.2656 23.5826Z" fill="white"/>
<path fill-rule="evenodd" clip-rule="evenodd" d="M36.357 21.2627C36.5509 21.2627 36.6955 21.4116 36.6955 21.6018C36.6955 21.7919 36.5509 21.9392 36.357 21.9392C36.1636 21.9392 36.0188 21.7919 36.0188 21.6018C36.0188 21.4116 36.1636 21.2627 36.357 21.2627ZM36.357 21.8763C36.5088 21.8763 36.6247 21.7472 36.6247 21.6018C36.6247 21.4561 36.5102 21.326 36.357 21.326C36.2048 21.326 36.089 21.4561 36.089 21.6018C36.089 21.7472 36.2048 21.8763 36.357 21.8763ZM36.1888 21.7802V21.7638C36.2301 21.7578 36.2379 21.7589 36.2379 21.7336V21.4828C36.2379 21.4476 36.2344 21.4354 36.1901 21.4374V21.4201H36.3633C36.4228 21.4201 36.4776 21.4485 36.4776 21.5101C36.4776 21.5603 36.4446 21.5977 36.3976 21.6121L36.4533 21.6897C36.4792 21.7247 36.5088 21.7578 36.5277 21.7695V21.7802H36.4619C36.4303 21.7802 36.4024 21.7138 36.3403 21.6247H36.3029V21.7368C36.3029 21.7589 36.3107 21.7578 36.3522 21.7638V21.7802H36.1888ZM36.3029 21.6018H36.3428C36.3864 21.6018 36.4066 21.5688 36.4066 21.5155C36.4066 21.4617 36.3755 21.4426 36.3406 21.4426H36.3029V21.6018Z" fill="white"/>
<path fill-rule="evenodd" clip-rule="evenodd" d="M16.2888 10.0105C16.2888 7.00515 18.7251 4.56885 21.7304 4.56885C24.7357 4.56885 27.172 7.00515 27.172 10.0105C27.172 13.0159 24.7357 15.4523 21.7304 15.4523C18.7251 15.4523 16.2888 13.0159 16.2888 10.0105Z" fill="#0069AA"/>
<path fill-rule="evenodd" clip-rule="evenodd" d="M25.0213 9.90329C25.0191 8.50976 24.1481 7.32128 22.9207 6.85061V12.9557C24.1481 12.4844 25.0191 11.2971 25.0213 9.90329ZM20.5792 12.9544V6.85115C19.3529 7.32328 18.4832 8.51005 18.4799 9.90322C18.4832 11.296 19.3529 12.4827 20.5792 12.9544ZM21.7505 4.743C18.9007 4.7441 16.5919 7.05343 16.5914 9.90324C16.5919 12.7527 18.9007 15.0617 21.7505 15.0621C24.6003 15.0617 26.9097 12.7527 26.9104 9.90324C26.9097 7.05343 24.6003 4.7441 21.7505 4.743ZM21.7379 15.5491C18.6194 15.564 16.0527 13.0376 16.0527 9.96213C16.0527 6.60103 18.6194 4.27625 21.7379 4.27686H23.1993C26.2809 4.27625 29.0934 6.59993 29.0934 9.96213C29.0934 13.0365 26.2809 15.5491 23.1993 15.5491H21.7379Z" fill="white"/>
</g>
<defs>
<clipPath id="clip0_104_4619">
<rect width="44" height="26.4" fill="white" transform="translate(0.733154 0.767578)"/>
</clipPath>
</defs>
</svg>
