<svg width="45" height="28" viewBox="0 0 45 28" fill="none" xmlns="http://www.w3.org/2000/svg">
<g clip-path="url(#clip0_104_4720)">
<rect x="0.733154" y="0.767578" width="44" height="26.4" rx="4" fill="#862165"/>
<path fill-rule="evenodd" clip-rule="evenodd" d="M28.3687 11.6774C28.9542 11.6774 29.4284 11.2033 29.4284 10.6185C29.4284 10.0336 28.9542 9.55905 28.3687 9.55905C27.7844 9.55905 27.3102 10.0336 27.3102 10.6185C27.3102 11.2033 27.7844 11.6774 28.3687 11.6774ZM20.2535 12.249C20.2056 12.3693 19.8616 13.3413 19.0292 14.3488V10.0411L16.8116 10.4793V18.2878H19.0292V15.8741C19.6716 16.8373 19.9887 18.2878 19.9887 18.2878H22.6449C22.3822 17.1955 21.2328 15.1813 21.2328 15.1813C22.2643 13.8736 22.7174 12.4801 22.7894 12.249H20.2535ZM26.0834 12.1676C24.0973 12.2315 23.0888 13.1226 23.0888 14.8941V18.2878H25.256V15.5202C25.256 14.4596 25.3948 14.0048 26.6534 13.9615V12.1988C26.4416 12.1537 26.0834 12.1676 26.0834 12.1676ZM13.0924 13.109C12.8208 13.0913 12.1919 13.0506 12.1919 12.4844C12.1919 11.8013 13.0973 11.8013 13.4369 11.8013C14.0339 11.8013 14.8072 11.9775 15.3595 12.1428C15.3595 12.1428 15.6676 12.2515 15.9298 12.3626L15.9541 12.3693V12.3445V10.4982L15.9207 10.4884C15.2689 10.2605 14.511 10.0411 13.1061 10.0411C10.6835 10.0411 9.8252 11.4523 9.8252 12.6612C9.8252 13.3581 10.1238 14.9985 12.8984 15.1877C13.1334 15.2021 13.7576 15.2381 13.7576 15.8231C13.7576 16.3062 13.2466 16.5909 12.3872 16.5909C11.4454 16.5909 10.5315 16.3508 9.97662 16.123V18.0499C10.8075 18.2676 11.7439 18.3765 12.8416 18.3765C15.2104 18.3765 16.2712 17.0412 16.2712 15.7179C16.2712 14.2175 15.084 13.2424 13.0924 13.109ZM27.2946 18.2878H29.4439V12.256H27.2946V18.2878ZM33.4913 10.4255V18.2878H35.6412V10.0411L33.4913 10.4255ZM30.3546 10.4255L32.5022 10.0411V18.2878H30.3546V10.4255Z" fill="white"/>
</g>
<defs>
<clipPath id="clip0_104_4720">
<rect width="44" height="26.4" fill="white" transform="translate(0.733154 0.767578)"/>
</clipPath>
</defs>
</svg>
