<svg width="77" height="103" viewBox="0 0 77 103" fill="none" xmlns="http://www.w3.org/2000/svg">
<path d="M5.28618 83.7646C4.37998 85.4307 3.47377 87.2482 2.86963 89.0657H73.2518C72.4966 87.2482 71.7414 85.4307 70.8352 83.7646H5.28618Z" fill="#7A7AC4"/>
<path d="M65.7 76.949C59.6587 70.7391 50.7476 66.9526 38.3628 66.8011C38.2117 66.8011 38.2117 66.8011 38.2117 66.8011C38.0607 66.8011 38.0607 66.8011 37.9097 66.8011C31.8683 66.8011 26.5821 67.8614 22.051 69.5274V76.949H65.7Z" fill="#7A7AC4"/>
<path d="M0 102.091H37.7587H76.1215C75.9704 99.9708 75.6684 97.8503 75.2153 95.8813H0.906208C0.453104 98.0018 0.151035 99.9708 0 102.091Z" fill="#7A7AC4"/>
<path d="M0.90625 95.8814H75.2153C74.7622 93.458 74.007 91.1861 73.2519 89.0657H2.8697C2.11453 91.3376 1.35935 93.6095 0.90625 95.8814Z" fill="#D1D1E8"/>
<path d="M65.7001 76.949H10.4214C8.45798 78.918 6.64557 81.3413 5.28625 83.7647H70.6843C69.325 81.3413 67.6636 79.0694 65.7001 76.949Z" fill="#D1D1E8"/>
<path d="M54.0704 69.6788V77.1004V84.219L38.0607 83.9161H37.9097H37.7586L21.749 84.219V77.1004V69.6788C18.7283 70.7391 16.0097 72.2537 13.7441 74.0712V77.1004V102.091H37.7586H37.9097H61.9242V76.9489V73.9197C59.6587 72.2537 56.94 70.7391 54.0704 69.6788Z" fill="#424296"/>
<path d="M70.5332 41.9617C70.0801 41.9617 69.4759 41.9617 69.0228 41.9617C66.1532 27.4216 53.4663 16.365 38.0607 16.365C22.6552 16.365 9.81725 27.4216 7.09862 41.9617C6.64552 41.9617 6.19242 41.8102 5.58828 41.9617C2.26552 42.2646 -0.302074 45.2938 -4.73112e-06 48.6259C0.302065 51.2007 4.38 55.4416 7.8538 57.4106C11.7807 70.4361 23.8635 79.8267 38.0607 79.8267C52.258 79.8267 64.3408 70.4361 68.2677 57.4106C71.7415 55.5931 75.8194 51.2007 76.1215 48.6259C76.4235 45.1423 73.8559 42.2646 70.5332 41.9617Z" fill="#FFDEB3"/>
<path d="M39.5711 71.3449C39.2691 71.3449 38.816 71.1935 38.6649 70.8906C36.5504 68.6187 35.3422 65.5895 35.3422 62.4088C35.3422 61.6515 35.9463 61.0457 36.7015 61.0457C37.4566 61.0457 38.0608 61.6515 38.0608 62.4088C38.0608 64.9836 38.967 67.2555 40.6284 69.2245C41.0815 69.6789 41.0815 70.5876 40.4773 71.042C40.1753 71.1935 39.8732 71.3449 39.5711 71.3449Z" fill="#EAC79D"/>
<path d="M23.944 63.0681C27.7047 61.4626 29.8528 58.0398 28.7419 55.4229C27.631 52.8061 23.6818 51.9863 19.9211 53.5918C16.1604 55.1973 14.0123 58.6201 15.1231 61.237C16.234 63.8538 20.1833 64.6736 23.944 63.0681Z" fill="#F9BFA0"/>
<path d="M49.6904 15.9106C48.3311 21.6661 44.7063 26.5128 38.0608 26.5128C32.1704 26.5128 25.827 21.0602 27.3373 15.3048C28.8476 9.70076 33.5297 10.4581 38.0608 7.12594C42.8939 3.4909 41.2325 0.00732422 41.2325 0.00732422C41.2325 0.00732422 51.8049 6.82302 49.6904 15.9106Z" fill="#7F523E"/>
<path d="M30.0558 46.3541C28.3945 44.9909 26.28 44.5366 24.1655 44.991C22.3531 45.4453 20.9938 46.5055 19.9365 47.8687" stroke="black" stroke-width="1.5194" stroke-miterlimit="10" stroke-linecap="round" stroke-linejoin="round"/>
<path d="M46.0656 46.3541C47.7269 44.9909 49.8414 44.5366 51.9559 44.991C53.7683 45.4453 55.1276 46.5055 56.1849 47.8687" stroke="black" stroke-width="1.5194" stroke-miterlimit="10" stroke-linecap="round" stroke-linejoin="round"/>
<path d="M50.8986 71.3449C56.4874 71.3449 61.0179 66.8016 61.0179 61.1971C61.0179 55.5926 56.4874 51.0493 50.8986 51.0493C45.3099 51.0493 40.7793 55.5926 40.7793 61.1971C40.7793 66.8016 45.3099 71.3449 50.8986 71.3449Z" fill="#ADACE5"/>
<path d="M63.5856 62.8631C66.3042 61.8029 67.6635 58.7737 66.7573 56.0475C65.7 53.3212 62.6793 51.958 59.9607 52.8668C59.5076 53.0183 59.2055 53.1697 58.9035 53.4726L58.7524 53.6241C58.6014 53.7756 58.2993 53.927 58.1483 54.0785C54.3724 56.9562 50.8986 59.0767 50.8986 59.0767C49.9924 59.531 49.6904 60.8942 50.1435 62.1059C50.5966 63.469 51.6538 64.2263 52.7111 63.9234C52.7111 63.9234 56.638 63.1661 61.4711 63.0146C61.7731 63.0146 62.0752 63.0146 62.2262 63.0146C62.3773 63.0146 62.3773 63.0146 62.5283 63.0146C62.8304 63.0146 63.1324 62.8631 63.5856 62.8631Z" fill="#7A7AC4"/>
<path d="M10.4214 76.9489H13.8952V73.9197C12.6869 74.9799 11.4786 75.8887 10.4214 76.9489Z" fill="#7A7AC4"/>
</svg>
