<svg width="107" height="119" viewBox="0 0 107 119" fill="none" xmlns="http://www.w3.org/2000/svg">
<path d="M98.0145 118.848C91.52 104.763 73.849 94.6149 53.0062 94.6149C32.1634 94.6149 14.4923 104.763 7.9978 118.848H98.0145Z" fill="#ED8EA9"/>
<path d="M27.0281 77.0455C28.0853 74.9251 28.3874 72.8047 28.2363 70.9871C30.1998 70.2298 32.0122 68.4123 33.2205 65.989C35.1839 61.7481 34.4287 57.2043 31.257 55.6897C28.2363 54.1751 24.0074 56.447 22.0439 60.6879C20.8357 63.1112 20.6846 65.686 21.2888 67.655C19.7784 68.5638 18.2681 70.2298 17.2108 72.3503C15.8515 75.0766 15.7005 77.8028 16.4557 79.7718C15.0963 80.5291 13.737 81.8922 12.6798 83.8612C11.0184 87.3448 11.4715 90.9798 13.7371 92.1915C16.0026 93.4032 19.1743 91.2828 20.8356 87.7992C21.7418 85.8302 22.0439 83.8612 21.7419 82.3466C23.8563 81.7408 25.8198 79.7718 27.0281 77.0455Z" fill="#603B2D"/>
<path d="M15.2475 103.551C12.6799 107.943 0.748142 114.456 0.748142 114.456C0.748142 114.456 0.446073 100.825 3.01366 96.4324C5.58125 92.04 10.2633 90.0711 13.7371 92.04C17.0599 94.009 17.664 99.1587 15.2475 103.551Z" fill="#603B2D"/>
<path d="M14.7944 94.4635L9.96134 92.1916C9.20617 91.7372 8.75307 90.8284 9.20617 89.9197C9.65927 89.1624 10.5655 88.708 11.4717 89.1624L16.3047 91.4343C17.0599 91.8886 17.513 92.7974 17.0599 93.7062C16.6068 94.4635 15.5496 94.7664 14.7944 94.4635Z" fill="#CE4573"/>
<path d="M79.5882 77.0455C78.531 74.9251 78.2289 72.8047 78.3799 70.9871C76.4165 70.2298 74.6041 68.4123 73.3958 65.989C71.4324 61.7481 72.1875 57.2043 75.3593 55.6897C78.3799 54.1751 82.6089 56.447 84.5724 60.6879C85.7806 63.1112 85.9317 65.686 85.3275 67.655C86.8379 68.5638 88.3482 70.2298 89.4054 72.3503C90.7647 75.0766 90.9158 77.8028 90.1606 79.7718C91.5199 80.5291 92.8792 81.8922 93.9365 83.8612C95.5978 87.3448 95.1448 90.9798 92.8793 92.1915C90.6137 93.4032 87.442 91.2828 85.7806 87.7992C84.8744 85.8302 84.5723 83.8612 84.8744 82.3466C82.911 81.7408 80.9475 79.7718 79.5882 77.0455Z" fill="#603B2D"/>
<path d="M91.5201 103.551C94.0877 107.943 106.019 114.456 106.019 114.456C106.019 114.456 106.321 100.825 103.754 96.4324C101.186 92.04 96.5042 90.0711 93.0304 92.04C89.7077 94.009 88.9525 99.1587 91.5201 103.551Z" fill="#603B2D"/>
<path d="M91.9731 94.4635L96.8062 92.1916C97.5614 91.7372 98.0145 90.8284 97.5614 89.9197C97.1083 89.1624 96.2021 88.708 95.2959 89.1624L90.4628 91.4343C89.7076 91.8886 89.2545 92.7974 89.7076 93.7062C90.1607 94.4635 91.218 94.7664 91.9731 94.4635Z" fill="#CE4573"/>
<path d="M40.0171 72.0474V97.0382C40.0171 101.128 45.6054 104.46 52.704 104.46C59.6516 104.46 65.3909 101.128 65.3909 97.0382V72.0474H40.0171Z" fill="#EFC797"/>
<path d="M52.8551 7.97986C30.653 7.97986 12.6798 26.7609 12.6798 49.9342C12.6798 73.1076 41.5275 89.4653 52.8551 89.4653C64.1827 89.4653 93.0303 73.1076 93.0303 49.9342C93.0303 26.7609 75.2082 7.97986 52.8551 7.97986Z" fill="#FFDEB3"/>
<path d="M75.5104 42.6642C75.2083 42.6642 75.0573 42.5127 74.7552 42.3613C72.7918 40.6952 68.7138 39.635 68.7138 39.635C68.1097 39.4835 67.8076 38.8777 67.9587 38.2718C68.1097 37.666 68.7138 37.3631 69.318 37.5145C69.469 37.5145 73.849 38.8777 76.1145 40.6952C76.5676 41.1496 76.5676 41.7554 76.2656 42.2098C76.1145 42.6642 75.8125 42.6642 75.5104 42.6642Z" fill="#7F523E"/>
<path d="M30.351 42.6642C30.653 42.6642 30.8041 42.5127 31.1061 42.3613C33.0696 40.6952 37.1475 39.635 37.1475 39.635C37.7516 39.4835 38.0537 38.8777 37.9027 38.2718C37.7516 37.666 37.1475 37.3631 36.5433 37.5145C36.3923 37.5145 32.0123 38.8777 29.7468 40.6952C29.2937 41.1496 29.2937 41.7554 29.5958 42.2098C29.7468 42.6642 30.0489 42.6642 30.351 42.6642Z" fill="#7F523E"/>
<path d="M36.8454 53.1149C38.6805 53.1149 40.1682 51.6231 40.1682 49.7828C40.1682 47.9425 38.6805 46.4507 36.8454 46.4507C35.0103 46.4507 33.5226 47.9425 33.5226 49.7828C33.5226 51.6231 35.0103 53.1149 36.8454 53.1149Z" fill="black"/>
<path d="M69.0156 53.1149C70.8508 53.1149 72.3384 51.6231 72.3384 49.7828C72.3384 47.9425 70.8508 46.4507 69.0156 46.4507C67.1805 46.4507 65.6929 47.9425 65.6929 49.7828C65.6929 51.6231 67.1805 53.1149 69.0156 53.1149Z" fill="black"/>
<path d="M84.0004 65.2343C85.1324 61.9093 82.5942 58.0308 78.3313 56.5714C74.0684 55.1119 69.6949 56.6242 68.563 59.9491C67.4311 63.2741 69.9692 67.1526 74.2321 68.6121C78.4951 70.0715 82.8685 68.5592 84.0004 65.2343Z" fill="#F9BFA0"/>
<path d="M32.2018 68.1673C36.2449 66.1762 38.2706 62.0056 36.7263 58.8521C35.182 55.6986 30.6525 54.7563 26.6094 56.7474C22.5663 58.7385 20.5406 62.9091 22.0849 66.0626C23.6292 69.2161 28.1587 70.1584 32.2018 68.1673Z" fill="#F9BFA0"/>
<path d="M17.513 46.905C17.513 50.0857 16.7579 56.7499 13.7372 56.7499C10.7165 56.7499 6.33643 49.9342 6.33643 46.905C6.33643 43.8759 8.90403 41.301 11.9247 41.301C14.9454 41.1496 17.513 43.7244 17.513 46.905Z" fill="#FFDEB3"/>
<path d="M89.2544 46.905C89.2544 50.0857 90.0096 56.7499 93.0302 56.7499C96.202 56.7499 100.431 49.9342 100.431 46.905C100.431 43.8758 97.8633 41.301 94.8426 41.301C91.8219 41.301 89.2544 43.7244 89.2544 46.905Z" fill="#FFDEB3"/>
<path d="M37.9027 15.2499C37.9027 15.2499 41.2254 22.9744 57.0841 30.3959C71.4324 37.0602 87.14 37.666 87.14 37.666L88.6503 51.7518L92.1241 41.301C92.1241 41.301 99.2228 23.4288 80.1924 8.13134C60.2558 -8.07487 36.9965 5.40506 36.9965 5.40506C36.9965 5.40506 27.6323 5.40506 21.2889 11.7664C9.81023 22.9744 12.0757 32.3649 13.435 41.7554C13.284 41.604 29.5958 34.4853 37.9027 15.2499Z" fill="#603B2D"/>
<path d="M47.5689 72.9562C47.1158 72.8047 46.6627 72.6533 46.2096 72.3503C45.7565 72.0474 45.4544 71.4416 45.7565 70.9872C46.0585 70.5328 46.6627 70.2299 47.1158 70.5328C50.7406 72.5018 55.1206 72.5018 58.5944 70.8357C59.0475 70.5328 59.8027 70.8357 59.9537 71.2901C60.2558 71.7445 59.9537 72.5018 59.5006 72.6533C55.8758 74.4708 51.4958 74.4708 47.5689 72.9562Z" fill="#EAC79D"/>
<path d="M55.8758 60.8394C55.2716 60.8394 54.8185 60.385 54.8185 59.7792C54.8185 58.5675 53.7613 57.5073 52.553 57.5073C51.3447 57.5073 50.2875 58.5675 50.2875 59.7792C50.2875 60.385 49.8344 60.8394 49.2302 60.8394C48.6261 60.8394 48.173 60.385 48.173 59.7792C48.173 57.3558 50.1364 55.3868 52.553 55.3868C54.9695 55.3868 56.933 57.3558 56.933 59.7792C56.933 60.385 56.4799 60.8394 55.8758 60.8394Z" fill="#EAC79D"/>
</svg>
