<svg width="95" height="117" viewBox="0 0 95 117" fill="none" xmlns="http://www.w3.org/2000/svg">
<path d="M64.7513 81.407C62.1838 88.3741 55.5382 93.3723 47.8354 93.3723C40.1327 93.3723 33.3361 88.3741 30.9196 81.407C16.4202 87.4654 6.3009 101.097 6.3009 116.849H89.37C89.2189 100.945 79.0996 87.4654 64.7513 81.407Z" fill="#71AD9F"/>
<path d="M47.6844 93.2208C55.5382 93.2208 62.1837 88.2226 64.6003 81.2555C59.4651 79.135 53.7258 77.9233 47.6844 77.9233C41.643 77.9233 35.9037 79.135 30.7686 81.2555C33.3361 88.2226 39.8306 93.2208 47.6844 93.2208Z" fill="#EFC797"/>
<path d="M87.8597 40.6643C86.5003 40.5128 85.141 40.8158 83.9328 41.4216C81.2141 23.0949 66.1107 9.16064 47.8355 9.16064C29.5603 9.16064 14.4568 23.0949 11.7382 41.4216C10.5299 40.8158 9.17058 40.5128 7.81126 40.6643C3.58229 40.9672 0.561597 44.7537 1.0147 48.8431C1.31677 52.7811 9.17058 60.2026 13.5506 60.657C18.6858 75.1971 32.1278 85.6479 47.8355 85.6479C63.5431 85.6479 76.9852 75.1971 82.1204 60.657C86.5004 60.2026 94.3541 52.7811 94.6562 48.8431C94.9583 44.7537 91.9376 40.9672 87.8597 40.6643Z" fill="#FFDEB3"/>
<path d="M63.241 28.2446C66.2617 25.8212 70.0376 19.3084 62.7879 11.1296C47.8355 -5.37953 27.7479 2.95076 27.7479 2.95076L33.4872 11.281C33.4872 11.281 25.6334 7.94893 21.8575 4.16243C21.8575 4.16243 22.3106 20.2172 33.9403 27.9416C46.0231 36.1205 57.5017 33.0913 63.241 28.2446Z" fill="#7F523E"/>
<path d="M34.0913 50.9635C35.1756 50.9635 36.0547 49.3361 36.0547 47.3285C36.0547 45.3209 35.1756 43.6935 34.0913 43.6935C33.0069 43.6935 32.1278 45.3209 32.1278 47.3285C32.1278 49.3361 33.0069 50.9635 34.0913 50.9635Z" fill="black"/>
<path d="M61.2775 50.9635C62.3619 50.9635 63.241 49.3361 63.241 47.3285C63.241 45.3209 62.3619 43.6935 61.2775 43.6935C60.1932 43.6935 59.3141 45.3209 59.3141 47.3285C59.3141 49.3361 60.1932 50.9635 61.2775 50.9635Z" fill="black"/>
<path d="M29.2657 63.4496C32.5613 61.0252 33.593 56.8181 31.5701 54.0528C29.5472 51.2875 25.2357 51.0112 21.9401 53.4356C18.6445 55.86 17.6128 60.0672 19.6357 62.8324C21.6586 65.5977 25.9701 65.8741 29.2657 63.4496Z" fill="#F9BFA0"/>
<path d="M75.632 62.7867C77.6549 60.0214 76.6232 55.8143 73.3276 53.3899C70.032 50.9654 65.7205 51.2417 63.6976 54.007C61.6747 56.7723 62.7064 60.9794 66.002 63.4039C69.2976 65.8283 73.6091 65.552 75.632 62.7867Z" fill="#F9BFA0"/>
<path d="M52.6686 72.4709C52.2155 72.4709 51.6113 72.4709 51.1582 72.4709C50.5541 72.4709 50.101 71.8651 50.101 71.2592C50.101 70.6534 50.7051 70.199 51.3092 70.199C55.8403 70.6534 60.2203 68.9873 62.9389 65.8067C63.392 65.3523 64.1472 65.3523 64.6003 65.6552C65.0534 66.1096 65.0534 66.8669 64.7513 67.3213C61.7306 70.6534 57.1996 72.4709 52.6686 72.4709Z" fill="#EAC79D"/>
<path d="M69.2823 40.5128C68.9803 40.5128 68.6782 40.3613 68.5272 40.2098C66.4127 38.3923 62.0327 37.1806 62.0327 37.1806C61.4285 37.0292 61.1265 36.4233 61.2775 35.8175C61.4285 35.2117 62.0327 34.9087 62.6368 35.0602C62.7878 35.0602 67.621 36.4233 70.0375 38.5438C70.4906 38.9982 70.6416 39.7555 70.1885 40.2098C69.8865 40.3613 69.5844 40.5128 69.2823 40.5128Z" fill="#7F523E"/>
<path d="M25.6334 41.573C25.9354 41.573 26.0865 41.4216 26.3885 41.2701C28.201 39.3011 32.4299 37.4836 32.4299 37.3322C33.0341 37.0293 33.3362 36.4234 33.0341 35.8176C32.732 35.2117 32.1279 34.9088 31.5237 35.2117C31.3727 35.3632 26.8417 37.3322 24.7272 39.6041C24.2741 40.0584 24.274 40.8157 24.8782 41.2701C24.8782 41.573 25.3313 41.7245 25.6334 41.573Z" fill="#7F523E"/>
<path d="M18.9878 116.849C18.9878 116.849 21.5554 104.126 24.274 99.885L21.5554 116.849H18.9878Z" fill="#59897D"/>
<path d="M76.532 116.849C76.532 116.849 73.9645 104.126 71.2458 99.885L73.9645 116.849H76.532Z" fill="#59897D"/>
</svg>
