<svg width="110" height="143" viewBox="0 0 110 143" fill="none" xmlns="http://www.w3.org/2000/svg">
<path d="M109.607 142.849C101.602 127.551 80.3058 116.646 55.0831 116.646C29.8603 116.646 8.41337 127.551 0.55957 142.849H109.607Z" fill="#609FD8"/>
<path d="M37.261 88.323V123.159C37.261 128.914 45.1148 133.61 54.9321 133.61C64.7493 133.61 72.6031 128.914 72.6031 123.159V88.323H37.261Z" fill="#EFC797"/>
<path d="M94.503 30.7682H54.9319H15.5119C15.5119 30.7682 11.585 66.5127 13.8505 75.2974C15.965 84.0821 28.6519 94.3813 37.2609 103.015C46.0209 111.648 50.2498 111.648 55.0829 111.648C59.916 111.648 64.1451 111.799 72.9051 103.015C81.6651 94.3813 94.201 84.0821 96.3155 75.2974C98.4299 66.5127 94.503 30.7682 94.503 30.7682Z" fill="#FFDEB3"/>
<path d="M78.1915 59.3942C77.8894 59.3942 77.5874 59.3942 77.4363 59.3942C75.0198 58.1825 70.3377 58.1825 70.3377 58.1825C69.7335 58.1825 69.1294 57.7281 69.1294 56.9708C69.1294 56.365 69.5825 55.7592 70.3377 55.7592C70.4887 55.7592 75.4728 55.7592 78.3425 57.1223C78.9467 57.4252 79.0977 58.0311 78.9467 58.6369C78.7957 59.0913 78.4936 59.3942 78.1915 59.3942Z" fill="#7F523E"/>
<path d="M31.8237 59.5457C32.1258 59.5457 32.4279 59.5457 32.5789 59.3942C34.9955 58.1825 39.5266 58.0311 39.6776 58.0311C40.2818 58.0311 40.7348 57.4252 40.7348 56.8194C40.7348 56.2135 40.1307 55.7592 39.5265 55.7592C39.3755 55.7592 34.3913 55.9106 31.5216 57.4252C30.9175 57.7281 30.7664 58.334 31.0685 58.9398C31.2196 59.2427 31.5216 59.5457 31.8237 59.5457Z" fill="#7F523E"/>
<path d="M37.7141 71.8139C39.7161 71.8139 41.339 70.1864 41.339 68.1789C41.339 66.1713 39.7161 64.5438 37.7141 64.5438C35.7122 64.5438 34.0894 66.1713 34.0894 68.1789C34.0894 70.1864 35.7122 71.8139 37.7141 71.8139Z" fill="black"/>
<path d="M72.3011 71.8139C74.3031 71.8139 75.926 70.1864 75.926 68.1789C75.926 66.1713 74.3031 64.5438 72.3011 64.5438C70.2992 64.5438 68.6763 66.1713 68.6763 68.1789C68.6763 70.1864 70.2992 71.8139 72.3011 71.8139Z" fill="black"/>
<path d="M87.4638 81.7835C88.3532 79.1711 85.2984 75.7606 80.6407 74.166C75.9831 72.5714 71.4863 73.3965 70.5969 76.009C69.7076 78.6215 72.7623 82.0319 77.42 83.6265C82.0776 85.2211 86.5744 84.396 87.4638 81.7835Z" fill="#F9BFA0"/>
<path d="M32.5319 83.657C37.1895 82.0624 40.2443 78.652 39.3549 76.0395C38.4655 73.427 33.9688 72.6019 29.3111 74.1965C24.6534 75.7911 21.5987 79.2016 22.4881 81.814C23.3775 84.4265 27.8742 85.2516 32.5319 83.657Z" fill="#F9BFA0"/>
<path d="M17.1732 64.9981C17.1732 68.3302 16.4181 75.7518 12.9443 75.7518C9.62154 75.7518 4.93945 68.4817 4.93945 64.9981C4.93945 61.5146 7.65807 58.9397 10.9808 58.9397C14.4546 58.7883 17.1732 61.5146 17.1732 64.9981Z" fill="#FFDEB3"/>
<path d="M94.8052 64.9981C94.8052 68.3302 95.5603 75.7517 99.0341 75.7517C102.508 75.7517 107.039 68.4817 107.039 64.9981C107.039 61.5145 104.32 58.9397 100.998 58.9397C97.6748 58.9397 94.8052 61.5145 94.8052 64.9981Z" fill="#FFDEB3"/>
<path d="M33.7871 30.9197C33.7871 30.9197 56.2913 24.7098 69.5824 35.312C82.8735 45.9142 88.4617 44.2482 88.4617 44.2482L90.7273 55.7591L93.8989 64.2409L97.6748 52.8814C97.6748 52.8814 99.9403 15.3193 62.9368 12.1387C36.0526 9.86677 11.434 20.3175 12.3402 53.3358C12.4912 53.3358 24.725 51.8211 33.7871 30.9197Z" fill="black"/>
<path d="M76.2278 42.4306C80.7588 38.6441 86.8003 28.4963 75.6237 16.0766C52.6665 -9.52008 21.5533 3.50546 21.5533 3.50546L30.4643 16.531C30.4643 16.531 18.3816 11.3814 12.4912 5.47444C12.4912 5.47444 13.2464 30.3139 31.2195 42.2792C49.6457 54.5474 67.3168 49.7007 76.2278 42.4306Z" fill="black"/>
<path d="M41.0367 31.5256C34.0891 26.9818 29.7091 20.469 26.9905 14.2591C23.0636 12.2902 16.267 8.65512 12.3401 4.71716C12.3401 4.71716 13.0953 29.5566 31.0684 41.5219C49.6457 53.7902 67.3167 49.0949 76.0768 41.6734C77.7381 40.3102 79.5505 38.0383 80.7588 35.1606C71.2436 40.1588 56.4422 41.6734 41.0367 31.5256Z" fill="#2B2320"/>
<path d="M55.6872 95.4415C55.2341 95.4415 54.63 95.2901 54.1769 95.2901C53.5728 95.1386 53.1197 94.5328 53.2707 93.9269C53.4218 93.3211 54.0258 92.8667 54.63 93.0182C59.01 93.7755 63.5411 92.4123 66.5618 89.3831C67.0149 88.9288 67.77 88.9288 68.2231 89.3831C68.6762 89.8375 68.6762 90.5948 68.2231 91.0492C64.9003 94.2299 60.3693 95.8959 55.6872 95.4415Z" fill="#EAC79D"/>
<path d="M53.4217 82.1131C52.9686 82.1131 52.6665 81.9616 52.3644 81.6587C51.4582 80.5985 51.1562 79.2353 51.4583 77.7207C51.7603 76.3576 52.5155 75.1459 53.7238 74.2372C54.9321 73.3284 56.2913 72.874 57.6506 72.874C59.161 72.874 60.3693 73.6313 61.2755 74.6915C61.7286 75.2974 61.5775 76.0547 61.1244 76.5091C60.5203 76.9634 59.7652 76.812 59.3121 76.3576C58.859 75.9032 58.4058 75.6003 57.6506 75.6003C56.8955 75.6003 56.1403 75.9032 55.3851 76.3576C54.781 76.812 54.3279 77.5693 54.1769 78.3266C54.0258 79.0839 54.1768 79.6897 54.6299 80.1441C55.083 80.7499 54.9321 81.5072 54.4789 81.9616C53.8748 81.9616 53.7238 82.1131 53.4217 82.1131Z" fill="#EAC79D"/>
<path d="M55.0829 133.307C69.0131 133.307 80.3057 129.577 80.3057 124.976C80.3057 120.376 69.0131 116.646 55.0829 116.646C41.1527 116.646 29.8601 120.376 29.8601 124.976C29.8601 129.577 41.1527 133.307 55.0829 133.307Z" fill="#EFC797"/>
</svg>
