<svg width="159" height="166" viewBox="0 0 159 166" fill="none" xmlns="http://www.w3.org/2000/svg">
<path d="M81.2172 0.302884C81.2172 0.302884 34.0943 -6.81573 28.8081 45.135C23.5219 95.8741 11.2881 101.932 0.413574 116.624C0.413574 116.624 35.6047 145.401 74.7227 134.496L81.2172 0.302884Z" fill="#261A15"/>
<path d="M79.1025 0.302884C79.1025 0.302884 125.168 -6.81573 130.605 45.135C135.892 95.8741 148.125 101.932 159 116.624C159 116.624 123.809 145.401 84.6908 134.496L79.1025 0.302884Z" fill="#261A15"/>
<path d="M115.502 50.4361C120.486 103.144 131.814 112.686 142.386 127.075C152.656 121.925 159 116.776 159 116.776C148.125 101.932 135.892 95.8741 130.605 45.2865C125.168 -6.66424 79.1025 0.454373 79.1025 0.454373V1.36313C93.4508 4.39233 112.028 15.2974 115.502 50.4361Z" fill="#3F2B25"/>
<path d="M145.407 165.848C135.892 148.582 110.367 136.162 80.3107 136.162C50.2548 136.162 24.579 148.582 15.2148 165.848H145.407Z" fill="#D36A8D" stroke="#D36A8D" stroke-width="0.1938" stroke-miterlimit="10"/>
<path d="M62.4888 104.507V139.343C62.4888 145.098 70.3426 149.794 80.1599 149.794C89.9771 149.794 97.8309 145.098 97.8309 139.343V104.507H62.4888Z" fill="#EFC797"/>
<path d="M80.1599 152.823C94.09 152.823 105.383 149.093 105.383 144.493C105.383 139.892 94.09 136.162 80.1599 136.162C66.2297 136.162 54.937 139.892 54.937 144.493C54.937 149.093 66.2297 152.823 80.1599 152.823Z" fill="#EFC797"/>
<path d="M80.1598 123.894C105.601 123.894 126.225 97.9225 126.225 65.885C126.225 33.8474 105.601 7.87585 80.1598 7.87585C54.7185 7.87585 34.0942 33.8474 34.0942 65.885C34.0942 97.9225 54.7185 123.894 80.1598 123.894Z" fill="#FFDEB3"/>
<path d="M120.457 88.3062C121.143 85.6328 116.46 82.1136 109.997 80.446C103.534 78.7784 97.7391 79.5938 97.0531 82.2672C96.3671 84.9407 101.05 88.4599 107.513 90.1275C113.976 91.7952 119.771 90.9797 120.457 88.3062Z" fill="#F2AE8F"/>
<path d="M50.947 90.2178C57.41 88.5501 62.0931 85.031 61.4072 82.3575C60.7212 79.6841 54.9259 78.8687 48.4629 80.5363C42 82.2039 37.3168 85.7231 38.0028 88.3965C38.6888 91.07 44.4841 91.8854 50.947 90.2178Z" fill="#F2AE8F"/>
<path d="M130.454 64.3704C130.454 63.7645 129.85 63.3101 129.246 63.3101H128.491C128.642 62.0985 128.642 60.8868 128.642 59.8266C128.642 59.2207 128.038 58.6149 127.283 58.6149C122.903 58.4634 108.252 54.5255 91.1852 57.7061C80.4618 59.6751 80.4618 59.6751 70.4935 57.7061C52.8224 54.374 37.4169 58.4634 33.0369 58.7663C32.2818 58.7663 31.6777 59.3722 31.6777 59.978C31.6777 61.0382 31.8287 62.2499 31.8287 63.4616H31.0735C30.4694 63.4616 29.8652 63.916 29.8652 64.5218V66.3393C29.8652 66.9452 30.4694 67.3996 31.0735 67.3996H32.2818C33.339 73.3065 35.1514 79.2134 36.5107 82.5455C37.87 85.7262 41.0417 88.1496 44.8176 88.7554C50.2548 89.5127 57.0514 89.0583 61.7335 88.6039C65.9625 88.1496 69.5873 85.8777 71.2486 82.3941C73.9673 76.9415 75.9308 69.8229 76.3839 68.0054C76.3839 67.7025 76.686 67.551 76.988 67.551H79.8576H80.1597H83.0294C83.3315 67.551 83.6335 67.7025 83.6335 68.0054C84.0866 69.8229 86.0501 76.9415 88.7687 82.3941C90.5811 85.8777 94.2059 88.1496 98.2839 88.4525C102.966 88.9069 109.763 89.3612 115.2 88.6039C118.976 87.9981 122.147 85.7262 123.507 82.3941C124.866 79.062 126.678 73.3065 127.736 67.2481H128.944C129.548 67.2481 130.152 66.7937 130.152 66.1879L130.454 64.3704ZM74.5714 66.4908C74.5714 66.4908 74.5714 66.6423 74.5714 66.4908C74.5714 66.6423 74.5714 66.6423 74.5714 66.6423L71.3997 76.6386C71.2487 77.093 71.0977 77.6988 70.9467 78.1532C68.228 90.7244 45.1197 86.635 45.1197 86.635C35.1514 84.8174 36.2087 66.3393 36.3597 64.6733C36.5107 64.0674 36.8128 63.6131 37.1149 63.1587C40.8907 59.2207 55.39 59.5236 55.39 59.5236C55.9942 59.5236 56.7494 59.5236 57.3535 59.5236C58.5618 59.5236 59.7701 59.6751 60.8273 59.6751C61.4315 59.6751 61.8846 59.8266 62.3377 59.8266C65.3584 60.1295 67.6238 60.5839 69.2852 61.1897C72.1549 62.0985 73.5142 63.3101 74.1183 64.3704C74.2694 64.6733 74.4204 64.9762 74.4204 65.2791C74.4204 65.4306 74.5714 65.582 74.5714 65.7335C74.7225 66.0364 74.7225 66.3393 74.5714 66.4908ZM115.351 86.4835C115.351 86.4835 91.9405 90.7244 89.0708 78.0018C88.9198 77.5474 88.9197 76.9415 88.6176 76.4872L85.2949 66.3393V66.1879C85.2949 66.0364 85.2949 65.7335 85.2949 65.4306C85.2949 65.2791 85.2949 65.1277 85.4459 64.9762C85.4459 64.6733 85.597 64.3704 85.748 64.0674C86.3522 63.0072 87.7115 61.7955 90.5812 60.8868C92.3936 60.2809 94.659 59.8266 97.6797 59.5236C98.1328 59.5236 98.7369 59.3722 99.19 59.3722C100.247 59.2207 101.456 59.2207 102.664 59.2207C103.268 59.2207 104.023 59.2207 104.627 59.2207C104.627 59.2207 119.278 58.7663 123.054 62.8558C123.507 63.3101 123.809 63.7645 123.96 64.3704C124.262 65.885 125.47 84.666 115.351 86.4835Z" fill="#A8436A"/>
<path d="M67.0198 71.1861C67.0198 71.1861 60.5254 67.854 50.5571 74.0638" stroke="black" stroke-width="1.5194" stroke-miterlimit="10" stroke-linecap="round" stroke-linejoin="round"/>
<path d="M93.6021 71.1861C93.6021 71.1861 100.096 67.854 110.065 74.0638" stroke="black" stroke-width="1.5194" stroke-miterlimit="10" stroke-linecap="round" stroke-linejoin="round"/>
<path d="M75.9309 85.4233C75.9309 85.4233 80.3109 90.2701 84.2378 91.0274" stroke="#EAC79D" stroke-width="0.7597" stroke-miterlimit="10"/>
<path d="M126.225 50.739C122.147 19.8412 104.778 0.302856 80.1598 0.302856C55.3901 0.302856 34.8494 19.6897 31.9797 50.739H126.225Z" fill="#261A15"/>
<path d="M89.8261 0.757236C87.7116 0.454316 85.5971 0.302856 83.4826 0.302856C58.7129 0.302856 38.1722 19.6897 35.3025 50.739H59.166C61.5825 24.6879 73.8164 6.66417 89.8261 0.757236Z" fill="#3F2B25"/>
<path d="M80.1597 108.9C74.2694 108.9 69.4362 105.265 68.53 100.569C69.5873 106.931 74.4204 111.777 80.1597 111.777C85.8991 111.777 90.8832 106.931 91.7894 100.569C90.8832 105.265 86.0501 108.9 80.1597 108.9Z" fill="#F9BFA0"/>
<path d="M89.0709 106.022C91.0343 104.356 92.0916 102.235 92.0916 99.812H68.228C68.228 102.235 69.2853 104.356 71.2487 106.022C73.3632 104.507 76.535 103.447 80.0088 103.447C83.6336 103.447 86.8053 104.507 89.0709 106.022Z" fill="#A07865"/>
<path d="M89.0709 106.022C86.9564 104.356 83.6337 103.447 80.1599 103.447C76.6861 103.447 73.5144 104.507 71.3999 106.022C73.5144 107.991 76.8371 109.202 80.3109 109.202C83.6336 109.202 86.8054 107.991 89.0709 106.022Z" fill="#CE7676"/>
<path d="M68.228 99.812C68.228 100.872 68.5301 101.932 68.9832 102.993H91.3364C91.7895 102.084 92.0916 101.024 92.0916 99.812H68.228Z" fill="white"/>
</svg>
