<svg width="21" height="19" viewBox="0 0 21 19" fill="none" xmlns="http://www.w3.org/2000/svg">
<path d="M15.7103 0C14.7141 0 13.8711 0.240506 13.0281 0.721519C11.8019 1.44304 10.8823 2.72574 10.4991 4.16878C10.1159 2.72574 9.19629 1.44304 7.97012 0.721519C7.20376 0.240506 6.36077 0 5.3645 0C2.37571 0 0 2.48523 0 5.61181C0 6.65401 0.229907 7.53586 0.689722 8.41772C0.689722 8.49789 1.37944 9.37975 2.22244 10.3418C4.44487 12.9072 9.04302 17.557 10.3458 18.8397C10.4225 18.9198 10.4991 19 10.4991 19C10.5757 18.9198 10.5757 18.9198 10.6524 18.8397C11.9552 17.557 16.63 12.9072 18.7758 10.3418C19.6188 9.37975 20.2318 8.49789 20.3085 8.41772C20.7683 7.61603 20.9982 6.65401 20.9982 5.61181C21.0748 2.48523 18.6991 0 15.7103 0Z" fill="#B2D3CC"/>
</svg>
