<svg width="72" height="46" viewBox="0 0 72 46" fill="none" xmlns="http://www.w3.org/2000/svg">
<path d="M64.3169 9.51325C61.3484 5.97479 57.2158 3.24844 52.6758 2.2043C47.3209 0.928135 41.6168 1.85626 36.1455 1.27618C30.8488 0.754112 25.4939 -0.232016 20.139 0.0580214C15.1334 0.348059 8.90542 1.33419 5.35489 5.22069C1.62975 9.28122 1.62975 16.4162 1.0477 21.5788C0.465643 26.8575 0 45.942 0 45.942L72 46C72 46 71.8836 43.5057 71.9418 40.3733C72.1746 29.4679 71.6508 18.2144 64.3169 9.51325ZM14.7842 12.7037C14.726 12.8197 14.6095 12.8777 14.5513 12.9937C14.6095 12.8197 14.6677 12.7037 14.7842 12.7037Z" fill="#B2D3CC"/>
</svg>
