<svg width="21" height="19" viewBox="0 0 21 19" fill="none" xmlns="http://www.w3.org/2000/svg">
<path d="M18.3922 10.021C16.3614 12.4489 12.0259 16.7805 10.4993 18.2883C8.98268 16.7842 4.70837 12.4477 2.60035 10.0144L2.60035 10.0144L2.59849 10.0122C2.18179 9.53671 1.80399 9.08212 1.53191 8.7386C1.39536 8.56621 1.28852 8.42567 1.21755 8.32629C1.19827 8.29931 1.18299 8.27722 1.17121 8.25969L1.13307 8.18655C0.709171 7.37357 0.5 6.57074 0.5 5.61181C0.5 2.7399 2.67285 0.5 5.3645 0.5C6.27251 0.5 7.02235 0.716974 7.70431 1.14501L7.71037 1.14882L7.71655 1.15245C8.81765 1.80038 9.66279 2.9675 10.0158 4.2971L10.4991 6.11701L10.9824 4.2971C11.3351 2.96864 12.1791 1.80237 13.2788 1.15411C14.0497 0.71483 14.807 0.5 15.7103 0.5C18.4037 0.5 20.5685 2.73918 20.4983 5.59956L20.4982 5.59956V5.61181C20.4982 6.56483 20.2916 7.42451 19.896 8.1314C19.8815 8.14944 19.8685 8.16652 19.8588 8.17921L19.858 8.18022C19.8303 8.21652 19.795 8.26364 19.7547 8.31762L19.7362 8.34233C19.6569 8.44853 19.5547 8.58524 19.4323 8.74531C19.168 9.0909 18.8114 9.54247 18.3997 10.0122L18.3996 10.0122L18.3922 10.021Z" stroke="black"/>
</svg>
