<svg width="18" height="18" viewBox="0 0 18 18" fill="none" xmlns="http://www.w3.org/2000/svg">
<path d="M8.99996 0.666687C4.41663 0.666687 0.666626 4.41669 0.666626 9.00002C0.666626 13.5834 4.41663 17.3334 8.99996 17.3334C13.5833 17.3334 17.3333 13.5834 17.3333 9.00002C17.3333 4.41669 13.5833 0.666687 8.99996 0.666687ZM8.99996 15.6667C5.32496 15.6667 2.33329 12.675 2.33329 9.00002C2.33329 5.32502 5.32496 2.33335 8.99996 2.33335C12.675 2.33335 15.6666 5.32502 15.6666 9.00002C15.6666 12.675 12.675 15.6667 8.99996 15.6667ZM12.825 5.31669L7.33329 10.8084L5.17496 8.65835L3.99996 9.83335L7.33329 13.1667L14 6.50002L12.825 5.31669Z" fill="#00BA69"/>
</svg>
