<svg width="45" height="84" viewBox="0 0 45 84" fill="none" xmlns="http://www.w3.org/2000/svg">
<g clip-path="url(#clip0_514_274)">
<path d="M38.6719 -1.1878e-05C35.8594 -1.21239e-05 33.75 0.565646 32.3438 1.69696L3.73975e-06 41.2929C3.71503e-06 41.5757 3.66557e-06 42.1414 3.61612e-06 42.7071L32.3438 82.303C33.75 83.7171 37.2656 84.2828 40.7813 84C44.2969 83.4343 45.7031 82.0202 45 80.8889L12.6563 41.8586L44.2969 3.1111C45.7031 1.69696 43.5938 0.282818 40.0781 -1.1755e-05C40.0781 -1.1755e-05 39.375 -1.18165e-05 38.6719 -1.1878e-05Z" fill="#B2D3CC"/>
</g>
<defs>
<clipPath id="clip0_514_274">
<rect width="45" height="84" fill="white" transform="matrix(1 8.74228e-08 8.74228e-08 -1 0 84)"/>
</clipPath>
</defs>
</svg>
