<svg width="45" height="84" viewBox="0 0 45 84" fill="none" xmlns="http://www.w3.org/2000/svg">
<g clip-path="url(#clip0_514_271)">
<path d="M6.32813 -1.86396e-05C9.14063 -1.83937e-05 11.25 0.56564 12.6563 1.69695L45 41.2929C45 41.5757 45 42.1414 45 42.7071L12.6562 82.303C11.25 83.7171 7.73437 84.2828 4.21874 84C0.703117 83.4343 -0.703132 82.0202 -7.35123e-06 80.8889L32.3438 41.8586L0.703124 3.1111C-0.703125 1.69695 1.40625 0.28281 4.92188 -1.87625e-05C4.92188 -1.87625e-05 5.625 -1.87011e-05 6.32813 -1.86396e-05Z" fill="#B2D3CC"/>
</g>
<defs>
<clipPath id="clip0_514_271">
<rect width="45" height="84" fill="white" transform="translate(45 84) rotate(-180)"/>
</clipPath>
</defs>
</svg>
