<svg width="86" height="86" viewBox="0 0 86 86" fill="none" xmlns="http://www.w3.org/2000/svg">
<path d="M43 86C66.7482 86 86 66.7482 86 43C86 19.2518 66.7482 0 43 0C19.2518 0 0 19.2518 0 43C0 66.7482 19.2518 86 43 86Z" fill="#FF6C4F"/>
<path d="M48.7105 42.6457L48.3547 43.0001L48.7105 43.3544L58.6005 53.2014L58.6012 53.2021C58.9574 53.5553 59.2401 53.9756 59.433 54.4387C59.6259 54.9017 59.7253 55.3984 59.7253 55.9001C59.7253 56.4017 59.6259 56.8984 59.433 57.3615C59.2401 57.8245 58.9574 58.2448 58.6012 58.5981L58.5983 58.601C58.2451 58.9571 57.8248 59.2398 57.3617 59.4328C56.8987 59.6257 56.402 59.725 55.9003 59.725C55.3987 59.725 54.902 59.6257 54.4389 59.4328C53.9759 59.2398 53.5556 58.9571 53.2023 58.601L53.2016 58.6003L43.3546 48.7103L43.0003 48.3544L42.646 48.7103L32.799 58.6003L32.7983 58.601C32.4451 58.9571 32.0248 59.2398 31.5617 59.4328C31.0986 59.6257 30.602 59.725 30.1003 59.725C29.5987 59.725 29.102 59.6257 28.6389 59.4328C28.1759 59.2398 27.7556 58.9571 27.4023 58.601L27.3994 58.5981C27.0433 58.2448 26.7606 57.8245 26.5676 57.3615C26.3747 56.8984 26.2754 56.4017 26.2754 55.9001C26.2754 55.3984 26.3747 54.9017 26.5676 54.4387C26.7606 53.9756 27.0433 53.5553 27.3994 53.2021L27.4001 53.2014L37.2901 43.3544L37.646 43.0001L37.2901 42.6457L27.4009 32.7995C27.4007 32.7994 27.4006 32.7992 27.4005 32.7991C26.6848 32.0832 26.2827 31.1124 26.2827 30.1001C26.2827 29.0876 26.6849 28.1166 27.4009 27.4006C28.1168 26.6847 29.0878 26.2825 30.1003 26.2825C31.1126 26.2825 32.0835 26.6845 32.7994 27.4002C32.7995 27.4004 32.7996 27.4005 32.7998 27.4006L42.646 37.2898L43.0003 37.6457L43.3546 37.2898L53.2009 27.4006C53.201 27.4005 53.201 27.4005 53.2011 27.4004C53.917 26.6846 54.8879 26.2825 55.9003 26.2825C56.9128 26.2825 57.8838 26.6847 58.5998 27.4006C59.3157 28.1166 59.7179 29.0876 59.7179 30.1001C59.7179 31.1124 59.3159 32.0832 58.6002 32.7991C58.6001 32.7992 58.5999 32.7994 58.5998 32.7995L48.7105 42.6457Z" fill="white" stroke="#FF6C4F"/>
</svg>
