<svg width="86" height="87" viewBox="0 0 86 87" fill="none" xmlns="http://www.w3.org/2000/svg">
<path d="M43 86.2704C66.7482 86.2704 86 66.9581 86 43.1352C86 19.3123 66.7482 0 43 0C19.2518 0 0 19.3123 0 43.1352C0 66.9581 19.2518 86.2704 43 86.2704Z" fill="#FF6C4F"/>
<path d="M66.5463 22.209C64.9159 21.0731 62.6871 21.4757 61.5583 23.1076L41.506 52.0082L27.3554 40.3545C25.8289 39.0928 23.5678 39.3193 22.3137 40.8542C21.0559 42.389 21.2781 44.6536 22.8117 45.9118L39.9616 60.0349C40.6066 60.5634 41.4092 60.8509 42.2334 60.8509C42.3946 60.8509 42.5595 60.8401 42.7243 60.8186C43.7133 60.6784 44.602 60.1356 45.1753 59.3124L67.4422 27.2162C68.5709 25.5843 68.1696 23.3448 66.5463 22.209Z" fill="white"/>
</svg>
