<svg width="60" height="60" viewBox="0 0 60 60" fill="none" xmlns="http://www.w3.org/2000/svg">
<circle cx="30" cy="30" r="29.5" transform="rotate(-180 30 30)" stroke="#E1202E"/>
<g clip-path="url(#clip0_7_405)">
<path d="M24.8572 19.176C24.6722 19.176 24.4832 19.2489 24.3416 19.3912C24.0576 19.6745 24.0576 20.1385 24.3416 20.4225L34.0484 30.1293L24.4839 39.6945C24.1999 39.9784 24.1999 40.4418 24.4839 40.7257C24.7678 41.0096 25.2312 41.0096 25.5151 40.7257L35.6001 30.6449C35.8833 30.361 35.8833 29.8969 35.6001 29.6136L25.3776 19.3912C25.2319 19.2448 25.0469 19.176 24.8579 19.176L24.8572 19.176Z" fill="#E1202E"/>
</g>
<defs>
<clipPath id="clip0_7_405">
<rect width="22" height="22" fill="white" transform="translate(41 19) rotate(90)"/>
</clipPath>
</defs>
</svg>
