<svg width="259" height="152" viewBox="0 0 259 152" fill="none" xmlns="http://www.w3.org/2000/svg">
<g clip-path="url(#clip0_1_3197)">
<path d="M59.3335 56.7242C58.4341 57.7329 56.4773 58.4579 54.4417 58.4579C49.7865 58.4579 46.5674 55.3687 46.5674 50.7034C46.5674 46.4007 49.25 42.949 54.4259 42.949C56.4142 42.949 58.1185 43.6267 59.0179 44.5093L57.503 47.0784C56.6825 46.5898 55.8461 46.1642 54.4417 46.1642C52.122 46.1642 50.2442 47.7561 50.2442 50.7034C50.2442 53.3671 52.0904 55.2426 54.7889 55.2426C55.8619 55.2426 57.0454 54.8959 58.0554 54.1551L59.3335 56.7242Z" fill="#006937"/>
<path d="M65.7559 51.8383H69.1171L67.4444 47.5985L65.7559 51.8383ZM66.0084 43.2012H69.0697L75.3187 58.2057H71.6419L70.3953 55.0535H64.4461L63.1995 58.2057H59.7437L66.0084 43.2012Z" fill="#006937"/>
<path d="M77.2441 43.2012H80.7L85.3394 49.5214L89.7105 43.2012H92.9454V58.19H89.5211V48.6388L85.3394 54.4861H84.8344L80.6842 48.7018V58.19H77.2441V43.2012Z" fill="#006937"/>
<path d="M108.505 43.2012H111.945V58.2057H108.505V43.2012ZM100.236 51.129V54.9432C100.615 54.9905 100.93 55.022 101.246 55.022C102.65 55.022 103.392 54.36 103.392 52.9415C103.392 51.6176 102.54 51.0187 101.262 51.0187C100.993 51.0187 100.662 51.066 100.236 51.129ZM100.236 47.8822C100.772 47.8192 101.246 47.8034 101.561 47.8034C105.254 47.8034 107.037 49.7893 107.037 52.8627C107.037 56.078 104.812 58.2373 100.835 58.2373C99.289 58.2373 97.6794 58.19 96.8115 58.19V43.1854H100.236V47.8822Z" fill="#006937"/>
<path d="M121.365 39.3397C121.365 40.1593 121.744 40.4115 122.691 40.4115C123.511 40.4115 123.937 40.2539 123.937 39.3397H127.157C127.204 41.4202 125.373 42.7756 122.691 42.7756C119.803 42.7756 118.146 41.4044 118.146 39.3397H121.365ZM115.795 58.19V43.1854H119.219V52.5002L125.863 43.1854H128.861V58.19H125.452V48.8752L118.809 58.19H115.795Z" fill="#006937"/>
<path d="M51.0802 77.182V80.1609C51.6325 80.2239 51.9797 80.2712 52.3742 80.2712C53.7944 80.2712 54.2362 79.562 54.2362 78.7266C54.2362 77.844 53.7628 77.0559 52.5162 77.0559C52.0901 77.0559 51.601 77.1032 51.0802 77.182ZM47.6401 68.3716H56.698V71.5868H51.0802V73.9668C51.4905 73.888 52.3268 73.8407 52.8003 73.8407C55.7038 73.8407 57.6763 75.6374 57.6763 78.4744C57.6763 81.6109 55.5933 83.4865 51.8377 83.4865C49.8651 83.4865 48.5396 83.3761 47.6559 83.3761V68.3716H47.6401Z" fill="#006937"/>
<path d="M72.5728 68.3716H76.0129V83.3761H72.5728V68.3716ZM64.3198 76.2994V80.1136C64.6985 80.1609 65.0141 80.1924 65.3297 80.1924C66.7342 80.1924 67.4758 79.5304 67.4758 78.1119C67.4758 76.788 66.6237 76.1891 65.3613 76.1891C65.0615 76.1891 64.7459 76.2364 64.3198 76.2994ZM64.3198 73.0684C64.8563 73.0053 65.3297 72.9896 65.6453 72.9896C69.3379 72.9896 71.1211 74.9755 71.1211 78.0489C71.1211 81.2642 68.8961 83.4234 64.9195 83.4234C63.373 83.4234 61.7634 83.3761 60.8955 83.3761V68.3716H64.3198V73.0684Z" fill="#006937"/>
<path d="M91.5567 81.8947C90.6572 82.9034 88.7005 83.6284 86.6648 83.6284C82.0097 83.6284 78.7905 80.5392 78.7905 75.874C78.7905 71.5712 81.4732 68.1195 86.6491 68.1195C88.6374 68.1195 90.3416 68.7972 91.2411 69.6799L89.7262 72.2489C88.9056 71.7603 88.0693 71.3348 86.6648 71.3348C84.3451 71.3348 82.4673 72.9266 82.4673 75.874C82.4673 78.5376 84.3136 80.4132 87.012 80.4132C88.085 80.4132 89.2686 80.0664 90.2785 79.3256L91.5567 81.8947Z" fill="#006937"/>
<path d="M92.2036 68.3716H104.638V71.5868H100.141V83.3761H96.701V71.5868H92.2036V68.3716Z" fill="#006937"/>
<path d="M110.208 71.5869V75.0228C110.698 75.0859 111.282 75.1331 111.771 75.1331C112.67 75.1331 113.791 74.7549 113.791 73.2891C113.791 71.9652 112.938 71.5554 111.708 71.5554C111.266 71.5396 110.919 71.5711 110.208 71.5869ZM106.784 83.3762V68.3716C107.621 68.3716 110.208 68.3243 111.376 68.3243C115.952 68.3243 117.452 70.7043 117.452 73.2891C117.452 75.9685 115.369 78.3169 111.897 78.3169C111.581 78.3169 110.761 78.3169 110.224 78.2538V83.3447H106.784V83.3762Z" fill="#006937"/>
<path d="M127.141 80.4132C129.997 80.4132 131.481 78.3957 131.481 75.874C131.481 73.1315 129.571 71.3348 127.141 71.3348C124.648 71.3348 122.801 73.1315 122.801 75.874C122.801 78.443 124.742 80.4132 127.141 80.4132ZM127.141 68.1195C131.717 68.1195 135.126 71.0984 135.126 75.874C135.126 80.4132 131.717 83.6284 127.141 83.6284C122.565 83.6284 119.156 80.6496 119.156 75.874C119.156 71.5239 122.36 68.1195 127.141 68.1195Z" fill="#006937"/>
<path d="M141.343 71.5869V75.0228C141.832 75.0859 142.416 75.1331 142.905 75.1331C143.805 75.1331 144.925 74.7549 144.925 73.2891C144.925 71.9652 144.073 71.5554 142.842 71.5554C142.384 71.5396 142.053 71.5711 141.343 71.5869ZM137.903 83.3762V68.3716C138.739 68.3716 141.327 68.3243 142.495 68.3243C147.071 68.3243 148.57 70.7043 148.57 73.2891C148.57 75.9685 146.487 78.3169 143.016 78.3169C142.7 78.3169 141.879 78.3169 141.343 78.2538V83.3447H137.903V83.3762Z" fill="#006937"/>
<path d="M154.046 77.0087H157.407L155.735 72.7689L154.046 77.0087ZM154.299 68.3716H157.36L163.609 83.3761H159.948L158.701 80.2239H152.752L151.506 83.3761H148.05L154.299 68.3716Z" fill="#006937"/>
<path d="M176.707 81.8947C175.807 82.9034 173.85 83.6284 171.815 83.6284C167.16 83.6284 163.94 80.5392 163.94 75.874C163.94 71.5712 166.623 68.1195 171.799 68.1195C173.787 68.1195 175.492 68.7972 176.391 69.6799L174.876 72.2489C174.056 71.7603 173.219 71.3348 171.815 71.3348C169.495 71.3348 167.617 72.9266 167.617 75.874C167.617 78.5376 169.463 80.4132 172.162 80.4132C173.235 80.4132 174.418 80.0664 175.428 79.3256L176.707 81.8947Z" fill="#006937"/>
<path d="M177.354 68.3716H189.788V71.5868H185.291V83.3761H181.851V71.5868H177.354V68.3716Z" fill="#006937"/>
<path d="M199.793 79.8141C198.767 82.0995 197.473 83.3761 195.39 83.3761C194.506 83.3761 193.528 83.0294 193.118 82.7142L194.317 79.7984C194.727 80.0821 194.932 80.1609 195.374 80.1609C195.927 80.1609 196.29 79.9875 196.495 79.562L196.684 79.1049L190.23 68.3716H194.112L198.341 75.7005L201.387 68.3716H204.842L199.793 79.8141Z" fill="#006937"/>
<path d="M206.973 68.3716H210.413V80.1609H214.058V68.3716H217.482V80.1609H221.127V68.3716H224.568V80.1609H226.603V85.9452H223.384V83.3761H206.973V68.3716Z" fill="#006937"/>
<path d="M228.97 83.3761V68.3716H232.395V77.7021L239.038 68.3716H242.052V83.3761H238.612V74.0613L231.968 83.3761H228.97Z" fill="#006937"/>
<path d="M251.489 64.5259C251.489 65.3455 251.867 65.5976 252.814 65.5976C253.635 65.5976 254.061 65.44 254.061 64.5259H257.28C257.327 66.6063 255.497 67.9618 252.814 67.9618C249.926 67.9618 248.269 66.5906 248.269 64.5259H251.489ZM245.902 83.3762V68.3716H249.327V77.6864L255.97 68.3716H258.968V83.3762H255.528V74.0613L248.885 83.3762H245.902Z" fill="#006937"/>
<path d="M51.0802 102.353V105.331C51.6325 105.394 51.9797 105.442 52.3742 105.442C53.7944 105.442 54.2362 104.732 54.2362 103.897C54.2362 103.015 53.7628 102.226 52.5162 102.226C52.0901 102.226 51.601 102.274 51.0802 102.353ZM47.6401 93.5579H56.698V96.7731H51.0802V99.153C51.4905 99.0742 52.3268 99.027 52.8003 99.027C55.7038 99.027 57.6763 100.824 57.6763 103.661C57.6763 106.797 55.5933 108.673 51.8377 108.673C49.8651 108.673 48.5396 108.562 47.6559 108.562V93.5579H47.6401Z" fill="#006937"/>
<path d="M64.32 96.7731V100.209C64.8091 100.272 65.393 100.319 65.8822 100.319C66.7817 100.319 67.9021 99.9411 67.9021 98.4753C67.9021 97.1514 67.0499 96.7416 65.8191 96.7416C65.3614 96.7258 65.0143 96.7416 64.32 96.7731ZM60.8799 108.547V93.5421C61.7162 93.5421 64.3042 93.4948 65.4719 93.4948C70.0482 93.4948 71.5473 95.8747 71.5473 98.4596C71.5473 101.139 69.4643 103.503 65.9927 103.503C65.6771 103.503 64.8565 103.503 64.32 103.44V108.531H60.8799V108.547Z" fill="#006937"/>
<path d="M74.3247 93.5579H83.2247V96.7731H77.7648V99.4052H82.5935V102.62H77.7648V105.331H83.4457V108.547H74.3247V93.5579Z" fill="#006937"/>
<path d="M95.5646 102.51H90.0889V108.547H86.6646V93.5579H90.0889V99.2949H95.5646V93.5579H99.0047V108.547H95.5646V102.51Z" fill="#006937"/>
<path d="M106.532 105.331H111.424V96.7731H108.378L108.141 99.2949C107.905 101.895 107.037 104.669 106.532 105.331ZM101.135 105.331H102.744C103.344 104.559 104.701 101.454 104.906 96.5525L105.033 93.5579H114.832V105.347H116.868V111.131H113.649V108.562H104.338V111.131H101.119V105.331H101.135Z" fill="#006937"/>
<path d="M126.967 102.494V105.3C127.204 105.363 127.488 105.426 128.135 105.426C129.461 105.426 130.123 104.843 130.123 103.834C130.123 102.888 129.413 102.479 128.309 102.479H126.967V102.494ZM126.967 96.7731V99.4998H128.103C128.987 99.4998 129.697 99.1373 129.697 98.0497C129.697 97.1514 128.877 96.6943 128.04 96.6943C127.614 96.6785 127.346 96.7258 126.967 96.7731ZM123.543 93.5893C124.379 93.5421 126.462 93.4633 128.088 93.4633C131.67 93.4633 133.137 95.1182 133.137 97.1986C133.137 98.759 132.538 99.815 131.417 100.54V100.587C132.506 100.997 133.563 102.085 133.563 104.023C133.563 107.175 131.117 108.657 127.851 108.657C126.415 108.657 124.427 108.61 123.543 108.531V93.5893Z" fill="#006937"/>
<path d="M144.483 96.7731V100.209C144.973 100.272 145.556 100.319 146.046 100.319C146.945 100.319 148.065 99.9411 148.065 98.4753C148.065 97.1514 147.213 96.7416 145.983 96.7416C145.541 96.7258 145.193 96.7416 144.483 96.7731ZM141.059 108.547V93.5421C141.895 93.5421 144.483 93.4948 145.651 93.4948C150.227 93.4948 151.726 95.8747 151.726 98.4596C151.726 101.139 149.643 103.503 146.172 103.503C145.856 103.503 145.036 103.503 144.499 103.44V108.531H141.059V108.547Z" fill="#006937"/>
<path d="M161.415 105.599C164.272 105.599 165.755 103.582 165.755 101.06C165.755 98.3177 163.846 96.5209 161.415 96.5209C158.922 96.5209 157.076 98.3177 157.076 101.06C157.076 103.629 159.017 105.599 161.415 105.599ZM161.415 93.2899C165.992 93.2899 169.4 96.2688 169.4 101.044C169.4 105.584 165.992 108.799 161.415 108.799C156.839 108.799 153.431 105.82 153.431 101.044C153.431 96.7101 156.634 93.2899 161.415 93.2899Z" fill="#006937"/>
<path d="M183.871 107.081C182.971 108.09 181.014 108.815 178.979 108.815C174.324 108.815 171.104 105.725 171.104 101.06C171.104 96.7573 173.787 93.3057 178.963 93.3057C180.951 93.3057 182.656 93.9834 183.555 94.866L182.04 97.4351C181.22 96.9465 180.383 96.5209 178.979 96.5209C176.659 96.5209 174.781 98.1128 174.781 101.06C174.781 103.724 176.628 105.599 179.326 105.599C180.399 105.599 181.583 105.253 182.592 104.512L183.871 107.081Z" fill="#006937"/>
<path d="M197.284 107.081C196.384 108.09 194.428 108.815 192.392 108.815C187.737 108.815 184.518 105.725 184.518 101.06C184.518 96.7573 187.2 93.3057 192.376 93.3057C194.364 93.3057 196.069 93.9834 196.968 94.866L195.453 97.4351C194.633 96.9465 193.796 96.5209 192.392 96.5209C190.072 96.5209 188.194 98.1128 188.194 101.06C188.194 103.724 190.041 105.599 192.739 105.599C193.812 105.599 194.996 105.253 196.006 104.512L197.284 107.081Z" fill="#006937"/>
<path d="M199.635 108.547V93.5579H203.075V102.873L209.718 93.5579H212.717V108.547H209.292V99.2319L202.633 108.547H199.635Z" fill="#006937"/>
<path d="M216.583 108.547V93.5579H220.023V102.873L226.667 93.5579H229.665V108.547H226.24V99.2319L219.581 108.547H216.583Z" fill="#006937"/>
<path d="M49.7863 131.999V133.512C50.0545 133.528 50.5122 133.575 50.9382 133.575C51.7114 133.575 52.1691 133.26 52.1691 132.787C52.1691 132.267 51.6957 131.999 50.8751 131.999H49.7863ZM49.7863 129.43V130.943H50.9382C51.5221 130.943 51.9955 130.691 51.9955 130.155C51.9955 129.651 51.5536 129.414 50.9067 129.414C50.4648 129.399 49.9598 129.414 49.7863 129.43ZM48.0347 128.059C48.6343 128.043 49.66 127.98 50.7331 127.98C52.7214 127.98 53.8418 128.532 53.8418 129.777C53.8418 130.596 53.2421 131.195 52.5636 131.306V131.337C53.5262 131.574 54.0311 132.125 54.0311 132.913C54.0311 134.269 52.9739 134.978 50.7646 134.978C49.9125 134.978 48.6659 134.899 48.0347 134.899V128.059Z" fill="#006937"/>
<path d="M58.9072 128.059H60.501L62.8365 130.927L65.0457 128.059H66.5764V134.915H64.8248V130.723L62.8049 133.292H62.7576L60.6588 130.723V134.915H58.9072V128.059Z" fill="#006937"/>
<path d="M71.8312 133.449C72.92 133.449 73.709 132.677 73.709 131.479C73.709 130.329 72.9043 129.525 71.8312 129.525C70.7897 129.525 69.9691 130.281 69.9691 131.479C69.9849 132.63 70.7739 133.449 71.8312 133.449ZM71.8312 127.901C74.1036 127.901 75.5711 129.446 75.5711 131.495C75.5711 133.544 74.1036 135.088 71.8312 135.088C69.5589 135.088 68.0913 133.544 68.0913 131.495C68.0913 129.446 69.5589 127.901 71.8312 127.901Z" fill="#006937"/>
<path d="M81.3784 129.808H79.5637L79.5163 130.533C79.185 134.269 78.2697 135.041 76.4234 135.041L76.2656 133.339C76.8653 133.402 77.6701 132.835 77.8279 130.187L77.9383 128.059H83.13V134.915H81.3784V129.808Z" fill="#006937"/>
<path d="M88.3849 133.449C89.458 133.449 90.2628 132.677 90.2628 131.479C90.2628 130.329 89.458 129.525 88.3849 129.525C87.3434 129.525 86.5229 130.281 86.5229 131.479C86.5386 132.63 87.3276 133.449 88.3849 133.449ZM88.3849 127.901C90.6573 127.901 92.1248 129.446 92.1248 131.495C92.1248 133.544 90.6573 135.088 88.3849 135.088C86.1126 135.088 84.645 133.544 84.645 131.495C84.645 129.446 86.1126 127.901 88.3849 127.901Z" fill="#006937"/>
<path d="M99.1785 134.915H97.4269V132.551C97.0008 132.787 96.3696 132.945 95.7226 132.945C93.9552 132.945 93.2451 131.983 93.2451 130.25V128.059H95.123V130.029C95.123 130.88 95.5332 131.29 96.2434 131.29C96.6852 131.29 97.1902 131.164 97.4426 131.006V128.043H99.1942V134.915H99.1785Z" fill="#006937"/>
<path d="M105.885 132.299H102.887V134.915H101.135V128.059H102.887V130.644H105.885V128.059H107.637V134.915H105.885V132.299Z" fill="#006937"/>
<path d="M116.189 128.059H117.941V134.915H116.189V128.059ZM111.345 131.337V133.386H112.023C112.97 133.386 113.349 132.992 113.349 132.362C113.349 131.731 112.986 131.321 112.039 131.321H111.345V131.337ZM109.593 128.059H111.345V129.934H112.197C114.532 129.934 115.211 131.085 115.211 132.314C115.211 133.623 114.39 134.915 112.055 134.915H109.593V128.059Z" fill="#006937"/>
<path d="M124.158 131.337L126.604 134.915H124.458L122.864 132.44L121.208 134.915H119.172L121.618 131.432L119.33 128.059H121.476L122.928 130.329L124.411 128.059H126.447L124.158 131.337Z" fill="#006937"/>
<path d="M134.936 131.321L137.887 134.915H135.599L132.885 131.463L135.347 128.075H137.556L134.936 131.321ZM131.086 128.059H132.838V134.915H131.086V128.059Z" fill="#006937"/>
<path d="M142.542 132.898V132.188C142.242 131.968 141.848 131.857 141.343 131.857C140.759 131.857 140.238 132.125 140.238 132.708C140.238 133.229 140.664 133.512 141.217 133.512C141.943 133.528 142.321 133.213 142.542 132.898ZM139.023 128.548C139.623 128.201 140.554 127.901 141.453 127.901C143.473 127.901 144.199 128.942 144.199 130.754V134.931H142.668V134.143C142.305 134.663 141.564 135.025 140.649 135.025C139.402 135.025 138.502 134.253 138.502 132.929C138.502 131.416 139.607 130.707 140.996 130.707C141.611 130.707 142.211 130.912 142.558 131.148C142.605 130.013 142.305 129.383 141.28 129.383C140.491 129.383 139.986 129.619 139.481 129.856L139.023 128.548Z" fill="#006937"/>
<path d="M145.272 128.059H151.521V129.808H149.281V134.915H147.529V129.808H145.272V128.059Z" fill="#006937"/>
<path d="M153.888 130.849H157.25C157.265 130.013 156.682 129.351 155.687 129.351C154.63 129.351 154.062 129.95 153.888 130.849ZM158.433 134.221C157.755 134.805 156.776 135.073 155.814 135.073C153.604 135.073 152.121 133.638 152.121 131.479C152.121 129.493 153.494 127.885 155.751 127.885C157.518 127.885 159.001 129.146 159.001 131.069C159.001 131.495 158.97 131.747 158.891 132.015H153.936C154.094 133.055 154.914 133.607 155.987 133.607C156.824 133.607 157.534 133.307 157.928 132.976L158.433 134.221Z" fill="#006937"/>
<path d="M160.421 128.059H165.013V129.714H162.173V134.915H160.421V128.059Z" fill="#006937"/>
<path d="M169.211 133.449C170.299 133.449 171.088 132.677 171.088 131.479C171.088 130.329 170.284 129.525 169.211 129.525C168.169 129.525 167.349 130.281 167.349 131.479C167.349 132.63 168.153 133.449 169.211 133.449ZM169.211 127.901C171.483 127.901 172.951 129.446 172.951 131.495C172.951 133.544 171.483 135.088 169.211 135.088C166.938 135.088 165.471 133.544 165.471 131.495C165.471 129.446 166.938 127.901 169.211 127.901Z" fill="#006937"/>
<path d="M176.217 130.281V133.055C176.691 133.355 177.085 133.449 177.669 133.449C178.884 133.449 179.594 132.567 179.594 131.432C179.594 130.344 178.947 129.54 177.795 129.54C177.196 129.54 176.659 129.808 176.217 130.281ZM174.466 128.059H176.217V128.721C176.643 128.264 177.448 127.901 178.332 127.901C180.226 127.901 181.441 129.367 181.441 131.385C181.441 133.465 180.005 135.088 177.811 135.088C177.196 135.088 176.612 134.978 176.217 134.757V137.973H174.466V128.059Z" fill="#006937"/>
<path d="M182.971 134.915V128.059H184.723V132.409L187.926 128.059H189.678V134.915H187.926V130.581L184.723 134.915H182.971Z" fill="#006937"/>
<path d="M194.554 131.558H195.469V129.572H194.696C193.844 129.572 193.449 130.092 193.449 130.612C193.449 131.18 194.017 131.558 194.554 131.558ZM197.221 128.059V134.915H195.469V132.866H194.491L193.07 134.915H191.066L192.897 132.488C192.297 132.283 191.571 131.637 191.571 130.518C191.571 129.194 192.518 128.075 194.98 128.075H197.221V128.059Z" fill="#006937"/>
<path d="M203.438 131.337L205.884 134.915H203.754L202.144 132.44L200.487 134.915H198.467L200.897 131.432L198.609 128.059H200.771L202.207 130.329L203.706 128.059H205.726L203.438 131.337Z" fill="#006937"/>
<path d="M54.0469 149.384C53.463 150.156 52.4373 150.566 51.3169 150.566C49.0919 150.566 47.5928 149.131 47.5928 146.972C47.5928 144.986 49.0603 143.379 51.1433 143.379C52.2637 143.379 53.2579 143.662 53.9048 144.309L53.0843 145.696C52.5635 145.191 51.9954 145.018 51.38 145.018C50.4016 145.018 49.4706 145.759 49.4706 146.972C49.4706 148.186 50.4174 148.942 51.4589 148.942C52.2006 148.942 52.7845 148.596 53.2263 148.107L54.0469 149.384Z" fill="#006937"/>
<path d="M58.276 149.005C60.0119 147.303 62.7103 144.844 62.7103 142.764C62.7103 141.913 62.2369 141.377 61.3532 141.377C60.5957 141.377 60.0434 141.913 59.8067 142.811L58.3392 142.165C58.6232 140.605 59.8541 139.643 61.5425 139.643C63.5624 139.643 64.5565 141.015 64.5565 142.433C64.5565 145.412 61.369 148.107 60.5326 148.801H64.9668V150.424H58.2603V149.005H58.276Z" fill="#006937"/>
<path d="M69.9535 148.895C71.1686 148.895 71.6262 147.713 71.6262 145.081C71.6262 142.449 71.137 141.282 69.9219 141.282C68.7227 141.282 68.2177 142.512 68.2177 145.081C68.2177 147.681 68.8016 148.895 69.9535 148.895ZM69.9219 139.628C72.3521 139.628 73.4883 141.818 73.4883 145.081C73.4883 148.343 72.3837 150.534 69.9535 150.534C67.5076 150.534 66.3398 148.343 66.3398 145.081C66.3398 141.818 67.4602 139.628 69.9219 139.628Z" fill="#006937"/>
<path d="M77.1966 139.722H78.4748V150.408H76.7232V142.212L75.3977 143.205L74.4824 141.755L77.1966 139.722Z" fill="#006937"/>
<path d="M84.0608 141.33C83.0666 141.33 82.3881 142.149 82.3881 143C82.3881 143.93 83.0351 144.781 84.1713 144.781C85.1338 144.781 85.7019 144.198 85.986 143.631C85.986 142.417 85.339 141.33 84.0608 141.33ZM82.3723 150.582L81.7885 149.195C83.9819 148.753 85.339 147.461 85.765 145.475C85.3232 146.09 84.6447 146.436 83.7294 146.436C81.9305 146.436 80.5103 145.018 80.5103 143.127C80.5103 140.888 82.3408 139.58 84.045 139.58C86.4278 139.58 87.8323 141.267 87.8323 143.647C87.848 147.745 85.4179 150.203 82.3723 150.582Z" fill="#006937"/>
<path d="M92.7402 143.552H97.3323V145.207H94.4918V150.408H92.7402V143.552Z" fill="#006937"/>
<path d="M101.529 148.942C102.618 148.942 103.407 148.17 103.407 146.972C103.407 145.822 102.602 145.018 101.529 145.018C100.488 145.018 99.6674 145.774 99.6674 146.972C99.6674 148.123 100.456 148.942 101.529 148.942ZM101.529 143.394C103.802 143.394 105.269 144.939 105.269 146.988C105.269 149.037 103.802 150.581 101.529 150.581C99.2571 150.581 97.7896 149.037 97.7896 146.988C97.7896 144.939 99.2571 143.394 101.529 143.394Z" fill="#006937"/>
<path d="M108.425 148.785H110.966V145.207H109.293L109.246 145.9C109.12 147.35 108.741 148.343 108.425 148.785ZM105.727 148.785H106.595C107.084 148.139 107.463 146.767 107.558 145.207L107.668 143.568H112.733V148.785H113.885V152.016H112.244V150.424H107.384V152.016H105.727V148.785Z" fill="#006937"/>
<path d="M118.651 148.391V147.681C118.351 147.461 117.957 147.35 117.452 147.35C116.868 147.35 116.347 147.618 116.347 148.202C116.347 148.722 116.773 149.005 117.326 149.005C118.052 149.021 118.43 148.706 118.651 148.391ZM115.116 144.041C115.716 143.694 116.647 143.394 117.547 143.394C119.566 143.394 120.292 144.435 120.292 146.247V150.424H118.762V149.636C118.399 150.156 117.657 150.518 116.742 150.518C115.495 150.518 114.596 149.746 114.596 148.422C114.596 146.909 115.7 146.2 117.089 146.2C117.704 146.2 118.304 146.405 118.651 146.641C118.699 145.506 118.383 144.876 117.373 144.876C116.584 144.876 116.079 145.112 115.574 145.349L115.116 144.041Z" fill="#006937"/>
<path d="M127.393 143.111C128.009 143.111 128.498 143.631 128.498 144.23C128.498 144.829 127.993 145.317 127.393 145.317C126.794 145.317 126.289 144.829 126.289 144.23C126.273 143.631 126.794 143.111 127.393 143.111ZM127.393 140.652C128.009 140.652 128.498 141.172 128.498 141.771C128.498 142.386 127.993 142.874 127.393 142.874C126.794 142.874 126.289 142.386 126.289 141.771C126.273 141.172 126.794 140.652 127.393 140.652ZM125.263 139.596C125.863 139.596 126.352 140.1 126.352 140.699C126.352 141.33 125.847 141.818 125.263 141.818C124.632 141.818 124.143 141.33 124.143 140.699C124.143 140.1 124.632 139.596 125.263 139.596ZM125.216 144.23C125.815 144.23 126.32 144.75 126.32 145.349C126.32 145.948 125.815 146.436 125.216 146.436C124.6 146.436 124.111 145.948 124.111 145.349C124.111 144.75 124.6 144.23 125.216 144.23ZM123.054 143.111C123.685 143.111 124.174 143.631 124.174 144.23C124.174 144.829 123.669 145.317 123.054 145.317C122.454 145.317 121.949 144.829 121.949 144.23C121.949 143.631 122.454 143.111 123.054 143.111ZM123.054 140.652C123.685 140.652 124.174 141.172 124.174 141.771C124.174 142.386 123.669 142.874 123.054 142.874C122.454 142.874 121.949 142.386 121.949 141.771C121.949 141.172 122.454 140.652 123.054 140.652Z" fill="#006937"/>
<path d="M33.2961 116.853V62.3666L31.3551 63.3911C30.8186 63.6591 18.2733 70.1053 9.43643 61.2318C1.70414 53.4774 2.52471 41.6566 2.935 38.2995C6.28039 37.8739 18.0208 37.0543 25.7689 44.8246C28.5462 47.6143 30.2031 50.8926 30.6608 54.5649L33.2961 54.3915V36.8337C35.5526 37.7163 42.4959 39.7337 48.2083 34.0124C54.9149 27.2825 53.037 16.9747 52.9581 16.5334L52.7846 15.6508L51.9009 15.4774C51.459 15.3986 41.1861 13.5073 34.4638 20.2372C34.0062 20.6943 33.6274 21.1671 33.2487 21.6557V4.27126L40.1131 11.3953L42.0225 9.56698L33.1856 0.409788L32.7911 0H31.6707L22.4551 9.56698L24.3645 11.3953L30.6292 4.9017V28.4015H33.2803V28.1808H33.3118C33.5959 25.8955 34.6374 23.8465 36.3732 22.0971C41.0126 17.4318 48.0032 17.6839 50.4964 17.9361C50.7647 20.4421 51.0014 27.4558 46.3463 32.1211C40.839 37.6533 34.0693 34.2804 33.7379 34.1228L30.6608 32.657V46.7159C29.8402 45.3762 28.8303 44.1153 27.6468 42.9332C17.5948 32.8461 2.16177 35.6831 1.51478 35.8092L0.631092 35.9983L0.45751 36.881C0.331269 37.5429 -2.49338 53.0046 7.55859 63.0917C15.5749 71.1456 26.3054 68.2455 30.6608 66.5749V116.853H10.1781V119.343H258.81V116.853H33.2961Z" fill="#006937"/>
</g>
<defs>
<clipPath id="clip0_1_3197">
<rect width="259" height="152" fill="white"/>
</clipPath>
</defs>
</svg>
