<svg width="281" height="125" viewBox="0 0 281 125" fill="none" xmlns="http://www.w3.org/2000/svg">
<g clip-path="url(#clip0_1_3095)">
<path d="M73.4333 102.497C72.8503 103.279 71.826 103.7 70.6599 103.7C69.5253 103.7 68.6113 103.357 67.918 102.7C67.2246 102.044 66.8779 101.169 66.8779 100.075C66.8779 99.0437 67.2246 98.1842 67.9022 97.4966C68.5798 96.809 69.4465 96.4496 70.4866 96.4496C71.7315 96.4496 72.6612 96.7621 73.2915 97.3872L72.4563 98.778C71.9993 98.3248 71.4163 98.106 70.7229 98.106C70.2187 98.106 69.7459 98.2936 69.352 98.653C68.9738 99.0124 68.7847 99.4812 68.7847 100.059C68.7847 100.653 68.9895 101.138 69.3677 101.497C69.7774 101.857 70.2502 102.028 70.786 102.028C71.4636 102.028 72.0781 101.747 72.5824 101.185L73.4333 102.497Z" fill="#006937"/>
<path d="M74.9617 97.1059C75.7181 96.6527 76.5375 96.4496 77.42 96.4496C79.4055 96.4496 80.2092 97.4185 80.2092 99.3249V103.529H78.6649V102.732C78.2394 103.325 77.546 103.622 76.6005 103.622C75.2926 103.622 74.4102 102.81 74.4102 101.497C74.4102 100.044 75.466 99.2624 76.9472 99.2624C77.5776 99.2624 78.1133 99.4187 78.523 99.7C78.5703 98.4811 78.2079 97.9185 77.2151 97.9185C76.7108 97.9185 76.0805 98.0748 75.3872 98.3873L74.9617 97.1059ZM78.5388 101.497V100.794C78.2394 100.559 77.8297 100.45 77.3097 100.45C76.6793 100.45 76.1908 100.763 76.1908 101.31C76.1908 101.81 76.6163 102.122 77.1836 102.122C77.7982 102.138 78.2394 101.919 78.5388 101.497Z" fill="#006937"/>
<path d="M82.0371 103.529V96.6215H83.6444L86.0082 99.5124L88.2616 96.6215H89.8217V103.529H88.041V99.3093L85.9767 101.888H85.9294L83.802 99.3093V103.529H82.0371Z" fill="#006937"/>
<path d="M91.8232 103.529V96.6215H93.6039V98.5123H94.4706C96.6452 98.5123 97.5435 99.5124 97.5435 100.903C97.5435 102.388 96.5507 103.529 94.3288 103.529H91.8232ZM93.6039 99.9187V101.997H94.2973C95.1955 101.997 95.6525 101.653 95.6525 100.966C95.6525 100.278 95.1955 99.9187 94.313 99.9187H93.6039ZM98.5205 103.529V96.6215H100.301V103.529H98.5205Z" fill="#006937"/>
<path d="M108.952 96.6215L106.636 99.9187L109.11 103.529H106.935L105.312 101.044L103.626 103.529H101.562L104.051 100.013L101.735 96.6215H103.91L105.375 98.903L106.888 96.6215H108.952Z" fill="#006937"/>
<path d="M120.393 96.6215L117.651 103.529C117.162 104.732 116.705 105.544 116.327 105.951C115.933 106.388 115.492 106.591 114.956 106.591C114.452 106.591 113.947 106.404 113.459 106.06L114.026 104.732C114.31 104.904 114.546 104.982 114.751 104.982C115.177 104.982 115.523 104.622 115.823 103.904L115.98 103.529L112.766 96.6215H114.909L116.532 100.403C116.595 100.559 116.705 100.888 116.879 101.403C116.957 100.95 117.052 100.622 117.131 100.388L118.391 96.6215H120.393Z" fill="#006937"/>
<path d="M122.142 103.372C121.575 103.138 121.149 102.872 120.897 102.544L121.811 101.435C122.236 101.903 123.119 102.278 123.781 102.278C124.695 102.278 125.199 101.935 125.199 101.435C125.199 100.966 124.821 100.653 124.143 100.653H122.851V99.4656H124.08C124.632 99.4656 125.01 99.0905 125.01 98.6217C125.01 98.1217 124.6 97.8716 123.781 97.8716C123.15 97.8716 122.52 98.1373 121.874 98.6686L121.133 97.606C121.795 96.8246 122.804 96.434 124.127 96.434C125.94 96.434 126.917 97.1684 126.917 98.403C126.917 99.0749 126.444 99.6844 125.624 99.9344V99.9657C126.57 100.153 127.09 100.778 127.09 101.591C127.09 102.888 125.845 103.685 123.938 103.685C123.324 103.7 122.725 103.591 122.142 103.372Z" fill="#006937"/>
<path d="M133.614 103.529V100.888H130.557V103.529H128.776V96.6215H130.557V99.2312H133.614V96.6215H135.394V103.529H133.614Z" fill="#006937"/>
<path d="M137.475 97.1059C138.231 96.6527 139.051 96.4496 139.933 96.4496C141.919 96.4496 142.722 97.4185 142.722 99.3249V103.529H141.178V102.732C140.768 103.325 140.059 103.622 139.114 103.622C137.821 103.622 136.939 102.81 136.939 101.497C136.939 100.044 137.995 99.2624 139.476 99.2624C140.106 99.2624 140.642 99.4187 141.052 99.7C141.099 98.4811 140.737 97.9185 139.76 97.9185C139.255 97.9185 138.625 98.0748 137.932 98.3873L137.475 97.1059ZM141.052 101.497V100.794C140.752 100.559 140.343 100.45 139.823 100.45C139.192 100.45 138.704 100.763 138.704 101.31C138.704 101.81 139.129 102.122 139.697 102.122C140.311 102.138 140.752 101.919 141.052 101.497Z" fill="#006937"/>
<path d="M144.55 96.6215C144.944 96.6215 146.409 96.5433 147.292 96.5433C149.403 96.5433 150.459 97.1372 150.459 98.3561C150.459 99.153 149.892 99.7781 149.151 99.8875V99.9188C150.144 100.153 150.632 100.684 150.632 101.513C150.632 102.904 149.529 103.607 147.323 103.607C147.008 103.607 146.52 103.591 145.858 103.56C145.196 103.544 144.755 103.529 144.566 103.529V96.6215H144.55ZM146.33 97.9966V99.5125H147.497C148.111 99.5125 148.568 99.2155 148.568 98.7155C148.568 98.2154 148.19 97.9654 147.449 97.9654C146.961 97.9654 146.583 97.981 146.33 97.9966ZM146.33 100.591V102.122C147.024 102.169 147.434 102.185 147.512 102.185C148.3 102.185 148.757 101.872 148.757 101.388C148.757 100.856 148.316 100.591 147.449 100.591H146.33Z" fill="#006937"/>
<path d="M152.429 97.1059C153.185 96.6527 154.005 96.4496 154.887 96.4496C156.873 96.4496 157.676 97.4185 157.676 99.3249V103.529H156.132V102.732C155.707 103.325 155.013 103.622 154.068 103.622C152.76 103.622 151.877 102.81 151.877 101.497C151.877 100.044 152.933 99.2624 154.415 99.2624C155.045 99.2624 155.581 99.4187 155.99 99.7C156.038 98.4811 155.675 97.9185 154.682 97.9185C154.178 97.9185 153.548 98.0748 152.854 98.3873L152.429 97.1059ZM156.006 101.497V100.794C155.707 100.559 155.297 100.45 154.777 100.45C154.147 100.45 153.658 100.763 153.658 101.31C153.658 101.81 154.084 102.122 154.651 102.122C155.265 102.138 155.707 101.919 156.006 101.497Z" fill="#006937"/>
<path d="M165.477 102.841C164.799 103.404 163.917 103.7 162.814 103.7C161.679 103.7 160.781 103.357 160.088 102.7C159.41 102.044 159.063 101.169 159.063 100.075C159.063 99.0437 159.41 98.1842 160.072 97.4966C160.734 96.809 161.632 96.4496 162.751 96.4496C163.665 96.4496 164.453 96.7621 165.083 97.3559C165.713 97.9498 166.044 98.7155 166.044 99.6531C166.044 100.044 166.013 100.356 165.934 100.606H160.907C161.049 101.638 161.884 102.216 163.003 102.216C163.791 102.216 164.437 101.997 164.973 101.591L165.477 102.841ZM160.86 99.4343H164.279C164.295 98.5749 163.681 97.9341 162.688 97.9341C161.679 97.9185 161.049 98.4342 160.86 99.4343Z" fill="#006937"/>
<path d="M167.494 103.529V96.6215H169.101L171.465 99.5124L173.719 96.6215H175.279V103.529H173.498V99.3093L171.434 101.888H171.386L169.259 99.3093V103.529H167.494Z" fill="#006937"/>
<path d="M177.28 103.529V96.6215H179.06V98.5123H179.927C182.102 98.5123 183 99.5124 183 100.903C183 102.388 182.007 103.529 179.785 103.529H177.28ZM179.06 99.9187V101.997H179.754C180.652 101.997 181.109 101.653 181.109 100.966C181.109 100.278 180.652 99.9187 179.77 99.9187H179.06ZM183.993 103.529V96.6215H185.773V103.529H183.993Z" fill="#006937"/>
<path d="M194.409 96.6215L192.093 99.9187L194.567 103.529H192.392L190.769 101.044L189.083 103.529H187.019L189.493 100.013L187.176 96.6215H189.351L190.816 98.903L192.329 96.6215H194.409Z" fill="#006937"/>
<path d="M67.3193 118.53V111.623H68.9267L71.2904 114.514L73.5438 111.623H75.1039V118.53H73.3232V114.311L71.2589 116.89H71.2274L69.1 114.311V118.53H67.3193Z" fill="#006937"/>
<path d="M76.6636 115.077C76.6636 114.014 77.0103 113.155 77.7036 112.483C78.397 111.795 79.3267 111.451 80.4613 111.451C81.5959 111.451 82.5099 111.795 83.2032 112.483C83.8966 113.155 84.259 114.014 84.259 115.077C84.259 116.14 83.8966 116.999 83.2032 117.687C82.5099 118.359 81.5959 118.702 80.4613 118.702C79.3267 118.702 78.397 118.359 77.7036 117.687C77.0103 116.999 76.6636 116.14 76.6636 115.077ZM80.4613 117.062C81.5801 117.062 82.368 116.265 82.368 115.077C82.368 113.921 81.5644 113.108 80.4613 113.108C79.3897 113.108 78.5703 113.905 78.5703 115.077C78.5703 116.233 79.3582 117.062 80.4613 117.062Z" fill="#006937"/>
<path d="M90.1528 118.53V113.389H88.3091L88.2619 114.124C87.8521 117.905 87.0485 118.655 85.1102 118.671L84.9526 116.952C85.189 116.968 85.3939 116.905 85.583 116.765C86.0084 116.452 86.4181 115.421 86.5285 113.764L86.6388 111.608H91.9178V118.515H90.1528V118.53Z" fill="#006937"/>
<path d="M93.4937 115.077C93.4937 114.014 93.8403 113.155 94.5337 112.483C95.2271 111.795 96.1568 111.451 97.2914 111.451C98.426 111.451 99.3399 111.795 100.033 112.483C100.727 113.155 101.089 114.014 101.089 115.077C101.089 116.14 100.727 116.999 100.033 117.687C99.3399 118.359 98.426 118.702 97.2914 118.702C96.1568 118.702 95.2271 118.359 94.5337 117.687C93.8403 116.999 93.4937 116.14 93.4937 115.077ZM97.2914 117.062C98.4102 117.062 99.1981 116.265 99.1981 115.077C99.1981 113.921 98.3944 113.108 97.2914 113.108C96.2198 113.108 95.4004 113.905 95.4004 115.077C95.4004 116.233 96.1883 117.062 97.2914 117.062Z" fill="#006937"/>
<path d="M108.259 111.623V118.53H106.478V116.155C105.958 116.421 105.391 116.561 104.745 116.561C102.996 116.561 102.224 115.639 102.224 113.842V111.623H104.13V113.624C104.13 114.467 104.509 114.905 105.265 114.905C105.753 114.905 106.163 114.811 106.494 114.624V111.623H108.259Z" fill="#006937"/>
<path d="M115.082 118.53V115.89H112.025V118.53H110.245V111.623H112.025V114.233H115.082V111.623H116.863V118.53H115.082Z" fill="#006937"/>
<path d="M118.849 118.53V111.623H120.629V113.514H121.496C123.671 113.514 124.569 114.514 124.569 115.905C124.569 117.39 123.576 118.53 121.354 118.53H118.849ZM120.629 114.921V116.999H121.323C122.221 116.999 122.678 116.655 122.678 115.968C122.678 115.28 122.221 114.921 121.338 114.921H120.629ZM125.546 118.53V111.623H127.327V118.53H125.546Z" fill="#006937"/>
<path d="M135.978 111.623L133.661 114.921L136.135 118.53H133.96L132.337 116.046L130.651 118.53H128.587L131.061 115.014L128.744 111.623H130.919L132.385 113.905L133.897 111.623H135.978Z" fill="#006937"/>
<path d="M146.867 109.061C146.599 109.389 146.299 109.592 145.937 109.733C145.574 109.858 145.18 109.967 144.692 110.076C144.235 110.17 143.825 110.295 143.479 110.467C142.612 110.873 142.108 111.733 141.981 113.045H142.013C142.454 112.295 143.447 111.748 144.456 111.748C145.417 111.748 146.189 112.061 146.756 112.67C147.324 113.28 147.623 114.108 147.623 115.139C147.623 116.14 147.292 116.983 146.599 117.671C145.921 118.359 145.039 118.702 143.967 118.702C142.801 118.702 141.871 118.296 141.194 117.515C140.532 116.733 140.185 115.655 140.185 114.327C140.185 111.358 141.068 109.514 142.817 108.764C143.195 108.592 143.636 108.467 144.077 108.389C144.991 108.201 145.464 108.092 145.905 107.607L146.867 109.061ZM143.936 117.062C145.039 117.062 145.732 116.265 145.732 115.218C145.732 114.155 145.117 113.389 144.014 113.389C143.069 113.389 142.36 113.936 142.108 114.686C142.123 116.061 142.832 117.062 143.936 117.062Z" fill="#006937"/>
<path d="M149.183 121.609V111.623H150.964V112.28C151.421 111.811 152.24 111.451 153.123 111.451C154.068 111.451 154.84 111.78 155.423 112.436C155.991 113.092 156.29 113.936 156.29 114.968C156.29 116.046 155.943 116.937 155.266 117.64C154.588 118.343 153.706 118.702 152.603 118.702C151.909 118.702 151.358 118.593 150.98 118.359V121.593H149.183V121.609ZM150.964 113.858V116.655C151.389 116.921 151.862 117.062 152.429 117.062C153.627 117.062 154.383 116.202 154.383 115.014C154.383 113.889 153.721 113.108 152.555 113.108C151.957 113.108 151.421 113.358 150.964 113.858Z" fill="#006937"/>
<path d="M163.807 117.843C163.129 118.405 162.247 118.702 161.144 118.702C160.009 118.702 159.111 118.359 158.417 117.702C157.74 117.046 157.393 116.171 157.393 115.077C157.393 114.046 157.74 113.186 158.402 112.498C159.063 111.811 159.962 111.451 161.08 111.451C161.994 111.451 162.782 111.764 163.413 112.358C164.043 112.952 164.374 113.717 164.374 114.655C164.374 115.046 164.342 115.358 164.264 115.608H159.237C159.379 116.64 160.214 117.218 161.333 117.218C162.121 117.218 162.767 116.999 163.302 116.593L163.807 117.843ZM159.174 114.436H162.593C162.609 113.577 161.994 112.936 161.002 112.936C160.009 112.92 159.379 113.436 159.174 114.436Z" fill="#006937"/>
<path d="M170.661 118.53V115.89H167.604V118.53H165.824V111.623H167.604V114.233H170.661V111.623H172.442V118.53H170.661Z" fill="#006937"/>
<path d="M173.592 120.14V116.89H174.475C175.011 116.171 175.341 114.968 175.452 113.28L175.562 111.623H180.699V116.89H181.865V120.14H180.195V118.53H175.263V120.14H173.592ZM177.169 113.983C177.043 115.327 176.76 116.28 176.334 116.89H178.919V113.28H177.217L177.169 113.983Z" fill="#006937"/>
<path d="M182.606 115.077C182.606 114.014 182.953 113.155 183.646 112.483C184.339 111.795 185.269 111.451 186.404 111.451C187.538 111.451 188.452 111.795 189.146 112.483C189.839 113.155 190.201 114.014 190.201 115.077C190.201 116.14 189.839 116.999 189.146 117.687C188.452 118.359 187.538 118.702 186.404 118.702C185.269 118.702 184.339 118.359 183.646 117.687C182.953 116.999 182.606 116.14 182.606 115.077ZM186.404 117.062C187.523 117.062 188.31 116.265 188.31 115.077C188.31 113.921 187.507 113.108 186.404 113.108C185.332 113.108 184.513 113.905 184.513 115.077C184.513 116.233 185.301 117.062 186.404 117.062Z" fill="#006937"/>
<path d="M191.762 111.623C192.156 111.623 193.621 111.545 194.504 111.545C196.615 111.545 197.671 112.139 197.671 113.358C197.671 114.155 197.104 114.78 196.363 114.889V114.921C197.356 115.155 197.844 115.686 197.844 116.515C197.844 117.905 196.741 118.609 194.535 118.609C194.22 118.609 193.731 118.593 193.07 118.562C192.408 118.546 191.967 118.53 191.777 118.53V111.623H191.762ZM193.527 112.999V114.514H194.693C195.307 114.514 195.764 114.217 195.764 113.717C195.764 113.217 195.386 112.967 194.645 112.967C194.157 112.967 193.779 112.983 193.527 112.999ZM193.527 115.593V117.124C194.22 117.171 194.63 117.187 194.708 117.187C195.496 117.187 195.953 116.874 195.953 116.39C195.953 115.858 195.512 115.593 194.645 115.593H193.527Z" fill="#006937"/>
<path d="M202.824 111.623C203.218 111.623 204.683 111.545 205.566 111.545C207.677 111.545 208.733 112.139 208.733 113.358C208.733 114.155 208.166 114.78 207.425 114.889V114.921C208.418 115.155 208.906 115.686 208.906 116.515C208.906 117.905 207.803 118.609 205.597 118.609C205.282 118.609 204.793 118.593 204.132 118.562C203.47 118.546 203.029 118.53 202.839 118.53V111.623H202.824ZM204.604 112.999V114.514H205.771C206.385 114.514 206.842 114.217 206.842 113.717C206.842 113.217 206.464 112.967 205.723 112.967C205.219 112.967 204.841 112.983 204.604 112.999ZM204.604 115.593V117.124C205.298 117.171 205.707 117.187 205.786 117.187C206.574 117.187 207.031 116.874 207.031 116.39C207.031 115.858 206.59 115.593 205.723 115.593H204.604Z" fill="#006937"/>
<path d="M216.297 118.53H214.39V107.779C214.579 107.779 215.068 107.779 215.856 107.763C216.659 107.748 217.195 107.748 217.463 107.748C220.63 107.748 221.655 109.42 221.655 111.201C221.655 112.17 221.308 112.999 220.599 113.67C219.906 114.342 218.928 114.686 217.684 114.686C217.053 114.686 216.581 114.671 216.281 114.639V118.53H216.297ZM216.297 109.545V112.842C216.785 112.889 217.242 112.92 217.636 112.92C218.834 112.92 219.653 112.342 219.653 111.186C219.653 110.061 218.992 109.514 217.652 109.514C217.431 109.514 216.974 109.529 216.297 109.545Z" fill="#006937"/>
<path d="M222.001 115.077C222.001 114.014 222.348 113.155 223.041 112.483C223.735 111.795 224.665 111.451 225.799 111.451C226.934 111.451 227.848 111.795 228.541 112.483C229.234 113.155 229.597 114.014 229.597 115.077C229.597 116.14 229.234 116.999 228.541 117.687C227.848 118.359 226.934 118.702 225.799 118.702C224.665 118.702 223.735 118.359 223.041 117.687C222.348 116.999 222.001 116.14 222.001 115.077ZM225.799 117.062C226.918 117.062 227.706 116.265 227.706 115.077C227.706 113.921 226.902 113.108 225.799 113.108C224.728 113.108 223.908 113.905 223.908 115.077C223.908 116.233 224.696 117.062 225.799 117.062Z" fill="#006937"/>
<path d="M237.256 117.499C236.673 118.28 235.648 118.702 234.482 118.702C233.348 118.702 232.434 118.359 231.74 117.702C231.047 117.046 230.7 116.171 230.7 115.077C230.7 114.046 231.047 113.186 231.724 112.498C232.402 111.811 233.269 111.451 234.309 111.451C235.554 111.451 236.483 111.764 237.114 112.389L236.279 113.78C235.822 113.327 235.239 113.108 234.545 113.108C234.041 113.108 233.568 113.295 233.174 113.655C232.796 114.014 232.607 114.483 232.607 115.061C232.607 115.655 232.812 116.14 233.19 116.499C233.6 116.858 234.072 117.03 234.608 117.03C235.286 117.03 235.9 116.749 236.405 116.186L237.256 117.499Z" fill="#006937"/>
<path d="M244.441 117.499C243.874 118.28 242.834 118.702 241.668 118.702C240.533 118.702 239.619 118.359 238.926 117.702C238.232 117.046 237.886 116.171 237.886 115.077C237.886 114.046 238.232 113.186 238.91 112.498C239.588 111.811 240.454 111.451 241.494 111.451C242.739 111.451 243.669 111.764 244.299 112.389L243.464 113.78C243.007 113.327 242.424 113.108 241.731 113.108C241.226 113.108 240.754 113.295 240.36 113.655C239.966 114.014 239.792 114.483 239.792 115.061C239.792 115.655 239.997 116.14 240.376 116.499C240.785 116.858 241.258 117.03 241.794 117.03C242.471 117.03 243.07 116.749 243.59 116.186L244.441 117.499Z" fill="#006937"/>
<path d="M247.64 118.53H245.859V111.623H247.64V115.999L250.886 111.623H252.667V118.53H250.886V114.155L247.64 118.53Z" fill="#006937"/>
<path d="M256.449 118.53H254.668V111.623H256.449V115.999L259.695 111.623H261.476V118.53H259.695V114.155L256.449 118.53Z" fill="#006937"/>
<path d="M267.101 108.685C267.732 108.685 268.252 109.186 268.252 109.811C268.252 110.42 267.747 110.92 267.101 110.92C266.502 110.92 265.982 110.436 265.982 109.811C265.982 109.201 266.487 108.685 267.101 108.685ZM267.101 111.17C267.732 111.17 268.252 111.686 268.252 112.311C268.252 112.905 267.747 113.405 267.101 113.405C266.502 113.405 265.982 112.92 265.982 112.311C265.982 111.701 266.487 111.17 267.101 111.17ZM269.292 112.295C269.89 112.295 270.41 112.811 270.41 113.436C270.41 114.03 269.906 114.53 269.292 114.53C268.677 114.53 268.173 114.046 268.173 113.436C268.173 112.811 268.677 112.295 269.292 112.295ZM269.339 107.623C269.938 107.623 270.458 108.123 270.458 108.732C270.458 109.342 269.969 109.858 269.339 109.858C268.709 109.858 268.204 109.373 268.204 108.732C268.204 108.123 268.724 107.623 269.339 107.623ZM271.514 108.685C272.128 108.685 272.648 109.201 272.648 109.811C272.648 110.42 272.144 110.92 271.514 110.92C270.883 110.92 270.379 110.436 270.379 109.811C270.379 109.201 270.899 108.685 271.514 108.685ZM271.514 111.17C272.128 111.17 272.648 111.686 272.648 112.311C272.648 112.905 272.144 113.405 271.514 113.405C270.915 113.405 270.379 112.92 270.379 112.311C270.379 111.701 270.899 111.17 271.514 111.17Z" fill="#006937"/>
<path d="M275.469 108.685C276.099 108.685 276.619 109.186 276.619 109.811C276.619 110.42 276.115 110.92 275.469 110.92C274.87 110.92 274.35 110.436 274.35 109.811C274.35 109.201 274.854 108.685 275.469 108.685ZM275.469 111.17C276.099 111.17 276.619 111.686 276.619 112.311C276.619 112.905 276.115 113.405 275.469 113.405C274.87 113.405 274.35 112.92 274.35 112.311C274.35 111.701 274.854 111.17 275.469 111.17ZM277.659 112.295C278.258 112.295 278.778 112.811 278.778 113.436C278.778 114.03 278.274 114.53 277.659 114.53C277.045 114.53 276.54 114.046 276.54 113.436C276.54 112.811 277.045 112.295 277.659 112.295ZM277.707 107.623C278.305 107.623 278.825 108.123 278.825 108.732C278.825 109.342 278.337 109.858 277.707 109.858C277.076 109.858 276.572 109.373 276.572 108.732C276.572 108.123 277.092 107.623 277.707 107.623ZM279.881 108.685C280.496 108.685 281.016 109.201 281.016 109.811C281.016 110.42 280.512 110.92 279.881 110.92C279.267 110.92 278.747 110.436 278.747 109.811C278.747 109.201 279.267 108.685 279.881 108.685ZM279.881 111.17C280.496 111.17 281.016 111.686 281.016 112.311C281.016 112.905 280.512 113.405 279.881 113.405C279.282 113.405 278.747 112.92 278.747 112.311C278.747 111.701 279.267 111.17 279.881 111.17Z" fill="#006937"/>
<path d="M66.4995 36.2701H96.6607V42.224H84.7948V72.5403H78.3654V42.224H66.4995V36.2701Z" fill="#006937"/>
<path d="M116.894 67.1491C124.584 67.1491 129.17 61.5546 129.17 54.3975C129.17 46.8809 123.78 41.6459 116.894 41.6459C109.882 41.6459 104.666 46.8809 104.666 54.3975C104.666 61.664 110.055 67.1491 116.894 67.1491ZM116.894 35.692C127.767 35.692 135.977 43.0992 135.977 54.4131C135.977 65.2895 127.767 73.1186 116.894 73.1186C106.021 73.1186 97.874 65.7114 97.874 54.4131C97.874 43.8805 105.659 35.692 116.894 35.692Z" fill="#006937"/>
<path d="M166.138 42.224H149.829V72.5403H143.399V36.2701H172.568V72.5403H166.138V42.224Z" fill="#006937"/>
<path d="M194.062 55.6007H180.888V61.1483H194.062V55.6007Z" fill="#006937"/>
<path d="M222.726 85.792H65.2389V85.9326L65.1286 85.7764L25.9695 117.155L42.0113 71.2433L8.09971 46.6465H51.4032L68.7845 0.92199L66.3105 0L49.5753 44.0211H0L38.8754 72.2122L20.4226 125L66.0426 88.2454H222.726V85.792Z" fill="#006937"/>
<path d="M198.317 67.3678L201.736 62.9923C203.785 66.0239 206.417 67.5397 209.631 67.5397C213.413 67.5397 215.572 65.3988 215.572 62.4766C215.572 59.1324 212.988 57.3197 208.733 57.3197H206.101V51.3189H208.465C211.617 51.3189 214.154 49.2874 214.154 46.3027C214.154 43.5836 212.578 41.8646 209.474 41.8646C206.637 41.8646 204.321 43.1617 202.524 45.7714L199.152 41.5521C201.201 37.7391 204.841 35.8639 210.041 35.8639C216.407 35.8639 220.615 39.4581 220.615 45.1463C220.615 49.2718 218.724 52.1941 214.989 53.8036V53.9599C219.464 54.7412 222.033 58.2417 222.033 62.6797C222.033 65.9614 220.883 68.6336 218.613 70.6182C216.344 72.556 213.461 73.5405 209.994 73.5405C204.51 73.5249 200.255 71.1652 198.317 67.3678Z" fill="#006937"/>
</g>
<defs>
<clipPath id="clip0_1_3095">
<rect width="281" height="125" fill="white"/>
</clipPath>
</defs>
</svg>
