<svg width="212" height="136" viewBox="0 0 212 136" fill="none" xmlns="http://www.w3.org/2000/svg">
<g clip-path="url(#clip0_1_3149)">
<path d="M57.8813 101.17V91.1126H59.6621V91.7736C60.1191 91.3015 60.9543 90.9395 61.821 90.9395C62.7665 90.9395 63.5387 91.27 64.106 91.931C64.6733 92.592 64.9727 93.4419 64.9727 94.4807C64.9727 95.5667 64.626 96.4638 63.9484 97.1721C63.2708 97.8803 62.3883 98.2423 61.2852 98.2423C60.5918 98.2423 60.0403 98.1321 59.6621 97.8961V101.154H57.8813V101.17ZM59.6621 93.3632V96.1805C60.0875 96.4481 60.5603 96.5897 61.1276 96.5897C62.3253 96.5897 63.0817 95.7241 63.0817 94.5279C63.0817 93.3947 62.4198 92.6078 61.2537 92.6078C60.6549 92.6078 60.1191 92.8596 59.6621 93.3632Z" fill="#006937"/>
<path d="M72.5055 97.3767C71.8279 97.9433 70.9454 98.2423 69.8423 98.2423C68.7077 98.2423 67.8095 97.8961 67.1161 97.235C66.4385 96.574 66.0918 95.6926 66.0918 94.5909C66.0918 93.5521 66.4385 92.6865 67.1004 91.994C67.7622 91.3015 68.6604 90.9395 69.7793 90.9395C70.6933 90.9395 71.4812 91.2542 72.1116 91.8523C72.7419 92.4504 73.0728 93.2216 73.0728 94.1659C73.0728 94.5594 73.0413 94.8742 72.9625 95.126H67.9356C68.0774 96.1648 68.9126 96.7471 70.0314 96.7471C70.8194 96.7471 71.4655 96.5268 72.0013 96.1176L72.5055 97.3767ZM67.8725 93.9456H71.2921C71.3079 93.0799 70.6933 92.4347 69.7005 92.4347C68.692 92.4189 68.0774 92.9383 67.8725 93.9456Z" fill="#006937"/>
<path d="M76.3032 98.0692H74.5225V91.1126H76.3032V95.5195L79.5494 91.1126H81.3302V98.0692H79.5494V93.6623L76.3032 98.0692ZM77.1857 87.6343C77.1857 88.2638 77.4378 88.7675 77.9893 88.7675C78.4779 88.7675 78.73 88.2796 78.73 87.6343H80.3689C80.3689 89.035 79.5022 90.0266 78.0051 90.0266C76.3505 90.0266 75.5783 89.0665 75.5783 87.6343H77.1857Z" fill="#006937"/>
<path d="M82.6064 92.8911V91.1126H88.9572V92.8911H86.6722V98.0692H84.8914V92.8911H82.6064Z" fill="#006937"/>
<path d="M91.9985 98.0692H90.2178V91.1126H91.9985V95.5195L95.2448 91.1126H97.0255V98.0692H95.2448V93.6623L91.9985 98.0692Z" fill="#006937"/>
<path d="M103.865 98.0692V95.4093H100.808V98.0692H99.0269V91.1126H100.808V93.741H103.865V91.1126H105.645V98.0692H103.865Z" fill="#006937"/>
<path d="M107.631 98.0692V91.1126H112.312V92.7809H109.412V98.0692H107.631Z" fill="#006937"/>
<path d="M113.509 91.6005C114.265 91.1441 115.085 90.9395 115.967 90.9395C117.953 90.9395 118.757 91.9153 118.757 93.8354V98.0692H117.212V97.2665C116.803 97.8646 116.093 98.1636 115.148 98.1636C113.84 98.1636 112.958 97.3452 112.958 96.0231C112.958 94.5594 114.013 93.7725 115.495 93.7725C116.125 93.7725 116.661 93.9299 117.071 94.2132C117.118 92.9855 116.755 92.4189 115.763 92.4189C115.243 92.4189 114.628 92.5763 113.935 92.8911L113.509 91.6005ZM117.086 96.0231V95.3149C116.787 95.0788 116.377 94.9686 115.857 94.9686C115.227 94.9686 114.738 95.2834 114.738 95.8343C114.738 96.3379 115.164 96.6527 115.731 96.6527C116.346 96.6684 116.803 96.4481 117.086 96.0231Z" fill="#006937"/>
<path d="M126.447 97.7229L123.453 94.2289V94.1659L126.51 90.6719L127.676 91.7106L125.517 94.1974L127.66 96.7156L126.447 97.7229ZM129.709 97.7229L126.715 94.2289V94.1659L129.772 90.6719L130.938 91.7106L128.779 94.1974L130.922 96.7156L129.709 97.7229Z" fill="#006937"/>
<path d="M139.479 98.0692V89.0193H136.327L136.107 91.0654C135.476 97.361 134.058 98.3683 131.931 98.0692L131.978 96.1806C132.388 96.2435 132.624 96.212 133.05 95.7241C133.254 95.4723 133.443 95.126 133.57 94.6539C133.885 93.7253 134.2 91.8996 134.389 89.4128L134.547 87.2408H141.37V98.0692H139.479Z" fill="#006937"/>
<path d="M143.876 98.0692V91.1126H145.767V93.6308H147.012C147.39 92.0097 148.698 90.9395 150.542 90.9395C151.661 90.9395 152.559 91.2857 153.252 91.9782C153.946 92.655 154.292 93.5206 154.292 94.5909C154.292 95.6454 153.93 96.511 153.237 97.2035C152.543 97.8961 151.645 98.2423 150.542 98.2423C148.635 98.2423 147.311 97.1248 146.98 95.4093H145.767V98.0692H143.876ZM150.573 96.4638C151.582 96.4638 152.26 95.7556 152.26 94.5909C152.26 93.4262 151.613 92.718 150.573 92.718C149.581 92.718 148.903 93.4577 148.903 94.5909C148.903 95.7556 149.581 96.4638 150.573 96.4638Z" fill="#006937"/>
<path d="M161.998 88.5314C161.73 88.8619 161.431 89.0665 161.068 89.2082C160.706 89.3341 160.312 89.4443 159.823 89.5544C159.366 89.6489 158.957 89.7748 158.61 89.9479C157.743 90.3571 157.255 91.2228 157.113 92.5448H157.144C157.586 91.7894 158.578 91.2385 159.587 91.2385C160.548 91.2385 161.32 91.5533 161.888 92.1671C162.455 92.7809 162.754 93.6151 162.754 94.6538C162.754 95.6611 162.408 96.511 161.73 97.2035C161.053 97.8961 160.17 98.2423 159.098 98.2423C157.932 98.2423 157.003 97.8331 156.325 97.0462C155.663 96.2592 155.316 95.1732 155.316 93.8354C155.316 90.845 156.199 88.9878 157.948 88.2324C158.342 88.0592 158.768 87.9333 159.225 87.8546C160.139 87.6658 160.611 87.5556 161.053 87.0677L161.998 88.5314ZM159.067 96.5897C160.17 96.5897 160.863 95.787 160.863 94.7325C160.863 93.6623 160.249 92.8911 159.146 92.8911C158.2 92.8911 157.491 93.4419 157.239 94.1974C157.255 95.5824 157.98 96.5897 159.067 96.5897Z" fill="#006937"/>
<path d="M166.111 98.0692H164.331V91.1126H166.111V95.5195L169.358 91.1126H171.138V98.0692H169.358V93.6623L166.111 98.0692Z" fill="#006937"/>
<path d="M173.124 98.0692V91.1126H174.731L177.095 94.0243L179.332 91.1126H180.893V98.0692H179.112V93.8197L177.047 96.4166H177L174.873 93.8197V98.0692H173.124Z" fill="#006937"/>
<path d="M182.91 98.0692V91.1126H184.69V93.017H185.557C187.732 93.017 188.63 94.0243 188.63 95.4251C188.63 96.9203 187.637 98.0692 185.431 98.0692H182.91ZM184.69 94.4335V96.5268H185.384C186.282 96.5268 186.723 96.1805 186.723 95.488C186.723 94.7955 186.282 94.4335 185.4 94.4335H184.69ZM189.607 98.0692V91.1126H191.388V98.0692H189.607Z" fill="#006937"/>
<path d="M199.362 97.3767C198.684 97.9433 197.802 98.2423 196.699 98.2423C195.564 98.2423 194.666 97.8961 193.973 97.235C193.295 96.574 192.948 95.6926 192.948 94.5909C192.948 93.5521 193.295 92.6865 193.957 91.994C194.619 91.3015 195.517 90.9395 196.636 90.9395C197.55 90.9395 198.338 91.2542 198.968 91.8523C199.598 92.4504 199.929 93.2216 199.929 94.1659C199.929 94.5594 199.898 94.8742 199.819 95.126H194.792C194.934 96.1648 195.769 96.7471 196.888 96.7471C197.676 96.7471 198.322 96.5268 198.858 96.1176L199.362 97.3767ZM194.729 93.9456H198.149C198.164 93.0799 197.55 92.4347 196.557 92.4347C195.548 92.4189 194.934 92.9383 194.729 93.9456Z" fill="#006937"/>
<path d="M64.043 103.641C63.7751 103.971 63.4756 104.176 63.1132 104.318C62.7508 104.443 62.3568 104.554 61.8683 104.664C61.4113 104.758 61.0016 104.884 60.6549 105.057C59.7881 105.466 59.2996 106.332 59.1578 107.654H59.1893C59.6306 106.899 60.6234 106.348 61.6319 106.348C62.5932 106.348 63.3653 106.663 63.9326 107.276C64.5 107.89 64.7994 108.724 64.7994 109.763C64.7994 110.771 64.4527 111.62 63.7751 112.313C63.0974 113.005 62.215 113.352 61.1434 113.352C59.9772 113.352 59.0475 112.942 58.3699 112.156C57.708 111.369 57.3613 110.283 57.3613 108.945C57.3613 105.954 58.2438 104.097 59.993 103.342C60.387 103.169 60.8125 103.043 61.2695 102.964C62.1834 102.775 62.6562 102.665 63.0974 102.177L64.043 103.641ZM61.1119 111.699C62.215 111.699 62.9083 110.896 62.9083 109.842C62.9083 108.772 62.2938 108 61.1907 108C60.2451 108 59.536 108.551 59.2839 109.307C59.3154 110.692 60.0245 111.699 61.1119 111.699Z" fill="#006937"/>
<path d="M66.375 116.279V106.222H68.1557V106.883C68.6127 106.411 69.4479 106.049 70.3146 106.049C71.2602 106.049 72.0323 106.379 72.5996 107.04C73.1669 107.701 73.4664 108.551 73.4664 109.59C73.4664 110.676 73.1197 111.573 72.4421 112.281C71.7644 112.99 70.8819 113.352 69.7789 113.352C69.0855 113.352 68.5339 113.242 68.1557 113.005V116.263H66.375V116.279ZM68.1557 108.473V111.29C68.5812 111.557 69.054 111.699 69.6213 111.699C70.8189 111.699 71.5753 110.833 71.5753 109.637C71.5753 108.504 70.9135 107.717 69.7473 107.717C69.1485 107.717 68.597 107.969 68.1557 108.473Z" fill="#006937"/>
<path d="M80.9992 112.486C80.3216 113.053 79.4391 113.352 78.336 113.352C77.2014 113.352 76.3031 113.005 75.6098 112.344C74.9321 111.683 74.5854 110.802 74.5854 109.7C74.5854 108.661 74.9321 107.796 75.594 107.103C76.2559 106.411 77.1541 106.049 78.2729 106.049C79.1869 106.049 79.9749 106.364 80.6052 106.962C81.2356 107.56 81.5665 108.331 81.5665 109.275C81.5665 109.669 81.535 109.984 81.4562 110.235H76.4292C76.571 111.274 77.4062 111.856 78.5251 111.856C79.313 111.856 79.9591 111.636 80.4949 111.227L80.9992 112.486ZM76.3662 109.055H79.7858C79.8015 108.189 79.1869 107.544 78.1942 107.544C77.1856 107.528 76.571 108.048 76.3662 109.055Z" fill="#006937"/>
<path d="M87.854 113.179V110.519H84.7968V113.179H83.0161V106.222H84.7968V108.85H87.854V106.222H89.6347V113.179H87.854Z" fill="#006937"/>
<path d="M90.7852 114.8V111.526H91.6676C92.2034 110.802 92.5344 109.59 92.6447 107.89L92.755 106.222H97.8923V111.526H99.0584V114.8H97.388V113.179H92.4556V114.8H90.7852ZM94.3624 108.599C94.2363 109.952 93.9526 110.912 93.5271 111.526H96.1116V107.89H94.4096L94.3624 108.599Z" fill="#006937"/>
<path d="M100.24 113.179V106.222H102.021V108.126H102.888C105.062 108.126 105.961 109.134 105.961 110.534C105.961 112.03 104.968 113.179 102.762 113.179H100.24ZM102.021 109.543V111.636H102.714C103.613 111.636 104.054 111.29 104.054 110.597C104.054 109.905 103.613 109.543 102.73 109.543H102.021ZM106.938 113.179V106.222H108.718V113.179H106.938Z" fill="#006937"/>
<path d="M113.998 116.279V106.222H115.778V106.883C116.235 106.411 117.07 106.049 117.937 106.049C118.883 106.049 119.655 106.379 120.222 107.04C120.79 107.701 121.089 108.551 121.089 109.59C121.089 110.676 120.742 111.573 120.065 112.281C119.387 112.99 118.505 113.352 117.401 113.352C116.708 113.352 116.156 113.242 115.778 113.005V116.263H113.998V116.279ZM115.778 108.473V111.29C116.204 111.557 116.677 111.699 117.244 111.699C118.441 111.699 119.198 110.833 119.198 109.637C119.198 108.504 118.536 107.717 117.37 107.717C116.771 107.717 116.22 107.969 115.778 108.473Z" fill="#006937"/>
<path d="M122.208 109.7C122.208 108.63 122.555 107.764 123.248 107.088C123.941 106.395 124.871 106.049 126.006 106.049C127.14 106.049 128.054 106.395 128.748 107.088C129.441 107.764 129.804 108.63 129.804 109.7C129.804 110.771 129.441 111.636 128.748 112.329C128.054 113.005 127.14 113.352 126.006 113.352C124.871 113.352 123.941 113.005 123.248 112.329C122.555 111.636 122.208 110.771 122.208 109.7ZM126.006 111.699C127.125 111.699 127.913 110.896 127.913 109.7C127.913 108.536 127.109 107.717 126.006 107.717C124.934 107.717 124.115 108.52 124.115 109.7C124.115 110.865 124.903 111.699 126.006 111.699Z" fill="#006937"/>
<path d="M137.462 112.14C136.895 112.927 135.855 113.352 134.689 113.352C133.554 113.352 132.64 113.005 131.947 112.344C131.253 111.683 130.907 110.802 130.907 109.7C130.907 108.661 131.253 107.796 131.931 107.103C132.609 106.411 133.475 106.049 134.515 106.049C135.76 106.049 136.69 106.364 137.32 106.993L136.485 108.394C136.028 107.938 135.445 107.717 134.752 107.717C134.248 107.717 133.775 107.906 133.381 108.268C132.987 108.63 132.814 109.102 132.814 109.685C132.814 110.283 133.018 110.771 133.397 111.133C133.806 111.494 134.279 111.668 134.815 111.668C135.492 111.668 136.107 111.384 136.611 110.818L137.462 112.14Z" fill="#006937"/>
<path d="M144.648 112.14C144.081 112.927 143.04 113.352 141.874 113.352C140.74 113.352 139.826 113.005 139.132 112.344C138.439 111.683 138.092 110.802 138.092 109.7C138.092 108.661 138.439 107.796 139.117 107.103C139.794 106.411 140.661 106.049 141.701 106.049C142.946 106.049 143.876 106.364 144.506 106.993L143.671 108.394C143.214 107.938 142.631 107.717 141.937 107.717C141.433 107.717 140.96 107.906 140.566 108.268C140.172 108.63 139.999 109.102 139.999 109.685C139.999 110.283 140.204 110.771 140.582 111.133C140.992 111.494 141.465 111.668 142 111.668C142.678 111.668 143.293 111.384 143.797 110.818L144.648 112.14Z" fill="#006937"/>
<path d="M147.863 113.179H146.082V106.222H147.863V110.629L151.109 106.222H152.89V113.179H151.109V108.772L147.863 113.179Z" fill="#006937"/>
<path d="M160.564 106.222V113.179H158.784V111.085H157.791L156.357 113.179H154.308L156.168 110.708C155.474 110.456 154.828 109.747 154.828 108.693C154.828 107.229 155.931 106.222 158.295 106.222H160.564ZM157.854 109.779H158.784V107.764H157.996C157.192 107.764 156.719 108.237 156.719 108.819C156.719 109.37 157.271 109.779 157.854 109.779Z" fill="#006937"/>
<path d="M167.372 113.179V110.519H164.315V113.179H162.534V106.222H164.315V108.85H167.372V106.222H169.153V113.179H167.372Z" fill="#006937"/>
<path d="M175.015 109.338L172.021 112.832L170.807 111.825L172.95 109.307L170.792 106.82L171.958 105.781L175.015 109.275V109.338ZM178.277 109.338L175.283 112.832L174.069 111.825L176.212 109.307L174.054 106.82L175.22 105.781L178.277 109.275V109.338Z" fill="#006937"/>
<path d="M183.461 103.263C184.091 103.263 184.612 103.767 184.612 104.396C184.612 105.01 184.107 105.514 183.461 105.514C182.862 105.514 182.342 105.026 182.342 104.396C182.342 103.782 182.862 103.263 183.461 103.263ZM183.461 105.766C184.091 105.766 184.612 106.285 184.612 106.914C184.612 107.513 184.107 108.016 183.461 108.016C182.862 108.016 182.342 107.528 182.342 106.914C182.342 106.301 182.862 105.766 183.461 105.766ZM185.667 106.899C186.266 106.899 186.786 107.418 186.786 108.048C186.786 108.646 186.282 109.149 185.667 109.149C185.053 109.149 184.548 108.662 184.548 108.048C184.548 107.418 185.037 106.899 185.667 106.899ZM185.715 102.193C186.313 102.193 186.833 102.696 186.833 103.31C186.833 103.924 186.345 104.443 185.715 104.443C185.084 104.443 184.58 103.956 184.58 103.31C184.58 102.696 185.084 102.193 185.715 102.193ZM187.874 103.263C188.488 103.263 189.008 103.782 189.008 104.396C189.008 105.01 188.504 105.514 187.874 105.514C187.259 105.514 186.739 105.026 186.739 104.396C186.755 103.782 187.275 103.263 187.874 103.263ZM187.874 105.766C188.488 105.766 189.008 106.285 189.008 106.914C189.008 107.513 188.504 108.016 187.874 108.016C187.275 108.016 186.739 107.528 186.739 106.914C186.755 106.301 187.275 105.766 187.874 105.766Z" fill="#006937"/>
<path d="M191.829 103.263C192.46 103.263 192.98 103.767 192.98 104.396C192.98 105.01 192.475 105.514 191.829 105.514C191.23 105.514 190.71 105.026 190.71 104.396C190.726 103.782 191.23 103.263 191.829 103.263ZM191.829 105.766C192.46 105.766 192.98 106.285 192.98 106.914C192.98 107.513 192.475 108.016 191.829 108.016C191.23 108.016 190.71 107.528 190.71 106.914C190.726 106.301 191.23 105.766 191.829 105.766ZM194.036 106.899C194.634 106.899 195.154 107.418 195.154 108.048C195.154 108.646 194.65 109.149 194.036 109.149C193.421 109.149 192.917 108.662 192.917 108.048C192.917 107.418 193.421 106.899 194.036 106.899ZM194.083 102.193C194.682 102.193 195.202 102.696 195.202 103.31C195.202 103.924 194.713 104.443 194.083 104.443C193.452 104.443 192.948 103.956 192.948 103.31C192.948 102.696 193.468 102.193 194.083 102.193ZM196.242 103.263C196.856 103.263 197.376 103.782 197.376 104.396C197.376 105.01 196.872 105.514 196.242 105.514C195.627 105.514 195.107 105.026 195.107 104.396C195.123 103.782 195.643 103.263 196.242 103.263ZM196.242 105.766C196.856 105.766 197.376 106.285 197.376 106.914C197.376 107.513 196.872 108.016 196.242 108.016C195.643 108.016 195.107 107.528 195.107 106.914C195.123 106.301 195.643 105.766 196.242 105.766Z" fill="#006937"/>
<path d="M200.197 103.263C200.827 103.263 201.347 103.767 201.347 104.396C201.347 105.01 200.827 105.514 200.197 105.514C199.598 105.514 199.078 105.026 199.078 104.396C199.078 103.782 199.598 103.263 200.197 103.263ZM200.197 105.766C200.827 105.766 201.347 106.285 201.347 106.914C201.347 107.513 200.827 108.016 200.197 108.016C199.598 108.016 199.078 107.528 199.078 106.914C199.078 106.301 199.598 105.766 200.197 105.766ZM202.403 106.899C203.002 106.899 203.522 107.418 203.522 108.048C203.522 108.646 203.018 109.149 202.403 109.149C201.789 109.149 201.284 108.662 201.284 108.048C201.284 107.418 201.773 106.899 202.403 106.899ZM202.45 102.193C203.049 102.193 203.569 102.696 203.569 103.31C203.569 103.924 203.081 104.443 202.45 104.443C201.82 104.443 201.316 103.956 201.316 103.31C201.316 102.696 201.82 102.193 202.45 102.193ZM204.609 103.263C205.224 103.263 205.744 103.782 205.744 104.396C205.744 105.01 205.24 105.514 204.609 105.514C203.995 105.514 203.475 105.026 203.475 104.396C203.491 103.782 204.011 103.263 204.609 103.263ZM204.609 105.766C205.224 105.766 205.744 106.285 205.744 106.914C205.744 107.513 205.24 108.016 204.609 108.016C204.011 108.016 203.475 107.528 203.475 106.914C203.491 106.301 204.011 105.766 204.609 105.766Z" fill="#006937"/>
<path d="M55.7852 30.3289H85.9471V36.3254H74.0808V66.8589H67.6514V36.3254H55.7852V30.3289Z" fill="#006937"/>
<path d="M106.181 61.429C113.871 61.429 118.457 55.7945 118.457 48.5861C118.457 41.0156 113.068 35.7431 106.181 35.7431C99.1687 35.7431 93.9526 41.0156 93.9526 48.5861C93.9526 55.9047 99.3263 61.429 106.181 61.429ZM106.181 29.7466C117.055 29.7466 125.265 37.2068 125.265 48.6018C125.265 59.5561 117.055 67.4413 106.181 67.4413C95.3078 67.4413 87.1607 59.981 87.1607 48.6018C87.1449 37.9938 94.9454 29.7466 106.181 29.7466Z" fill="#006937"/>
<path d="M155.427 36.3254H139.117V66.8589H132.687V30.3289H161.856V66.8589H155.427V36.3254Z" fill="#006937"/>
<path d="M183.351 49.798H170.177V55.3853H183.351V49.798Z" fill="#006937"/>
<path d="M193.231 30.3289H210.534V36.3254H198.511L197.47 43.581C198.038 43.4709 198.826 43.3764 199.566 43.3764C206.043 43.3764 211.07 47.8148 211.07 55.0232C211.07 62.9084 205.429 67.4412 198.479 67.4412C194.555 67.4412 190.017 65.6627 187.763 62.2159L191.214 57.6674C192.79 59.9652 195.863 61.429 198.637 61.429C202.135 61.429 204.641 58.8635 204.641 55.275C204.641 51.6236 201.773 48.8063 196.856 48.8063C194.508 48.8063 191.939 49.2785 190.836 49.7507L193.231 30.3289Z" fill="#006937"/>
<path d="M212 80.1426H54.5088V82.6136H212V80.1426Z" fill="#006937"/>
<path d="M70.7557 133.136L50.3641 116.83L39.9161 107.292C39.4749 106.868 39.0179 106.427 38.5767 106.002C38.1354 105.561 37.6784 105.136 37.2372 104.696L35.8977 103.358C35.4565 102.901 34.9995 102.461 34.5582 102.004C34.117 101.548 33.6758 101.091 33.2345 100.635C32.7933 100.178 32.352 99.7221 31.9108 99.2499C31.4696 98.7935 31.0283 98.3213 30.6028 97.8491C30.1616 97.377 29.7361 96.9048 29.2949 96.4326C28.8694 95.9605 28.4281 95.4883 28.0027 95.0161C27.5772 94.544 27.1517 94.0561 26.7262 93.5682C26.3007 93.0802 25.891 92.6081 25.4655 92.1202C25.0558 91.6323 24.6303 91.1444 24.2364 90.6564C23.8266 90.1685 23.4169 89.6806 23.023 89.177C22.629 88.6891 22.2193 88.1854 21.8253 87.6975C21.4313 87.2096 21.0374 86.706 20.6592 86.2023C20.281 85.7144 19.887 85.2108 19.5088 84.7071C19.1306 84.2035 18.7681 83.7156 18.3899 83.2119C18.0275 82.7083 17.665 82.2047 17.3026 81.701C16.9559 81.1974 16.5935 80.6937 16.2468 80.1901C15.9001 79.6864 15.5692 79.1828 15.2225 78.6634C14.9388 78.144 14.6079 77.6404 14.2927 77.121C13.9775 76.6173 13.6624 76.1137 13.3472 75.5943C13.0478 75.0907 12.7484 74.587 12.449 74.0676C12.1653 73.564 11.8659 73.0603 11.598 72.541C11.3143 72.0531 11.0307 71.5337 10.7628 71.03C10.4949 70.5264 10.2428 70.0227 9.99062 69.5033C9.73849 68.9997 9.50211 68.4961 9.26573 67.9924C9.02935 67.4888 8.80873 66.9851 8.58811 66.4815C8.36749 65.9778 8.16263 65.4742 7.97353 64.9705C-5.4055 30.9745 9.5809 14.4486 19.6979 7.61792C23.937 4.75344 30.0355 2.66016 36.9378 2.66016C46.9287 2.66016 58.5743 7.0828 68.6125 20.0202C68.9907 20.5081 69.3374 20.9803 69.6841 21.4524L70.7557 22.9162L71.8272 21.4524C72.1739 20.9803 72.5364 20.4924 72.8988 20.0202C89.855 -1.87264 111.444 0.614105 121.829 7.61792C123.673 8.8613 125.659 10.4194 127.628 12.3553H131.3C128.653 9.4279 125.848 7.14576 123.31 5.43021C112.106 -2.12447 88.8938 -4.91026 70.8187 18.3991C70.8029 18.4148 70.7872 18.4463 70.7714 18.462C70.7557 18.4463 70.7399 18.4148 70.7084 18.3991C52.6491 -4.92599 29.4209 -2.14021 18.2166 5.43021C7.43774 12.7016 -8.54145 30.2347 5.51519 65.9306C5.72005 66.4657 5.94067 66.9851 6.16129 67.5045C6.38191 68.0396 6.61829 68.559 6.85467 69.0784C7.10681 69.6135 7.34318 70.1329 7.61108 70.6523C7.87898 71.1874 8.13111 71.7068 8.41477 72.2262C8.68266 72.7613 8.96632 73.2807 9.24997 73.8001C9.53363 74.3352 9.83304 74.8546 10.1325 75.374C10.4319 75.8933 10.747 76.4285 11.0622 76.9479C11.3774 77.4672 11.7083 78.0024 12.0235 78.5217C12.3544 79.0411 12.6853 79.5763 13.032 80.0799C13.3787 80.5993 13.7254 81.1187 14.0721 81.6381C14.4345 82.1574 14.7812 82.6768 15.1437 83.1805C15.5061 83.6999 15.8686 84.2192 16.2468 84.7229C16.625 85.2423 17.0032 85.7459 17.3814 86.2496C17.7754 86.7689 18.1536 87.2726 18.5475 87.7762C18.9415 88.2799 19.3355 88.7993 19.7294 89.3029C20.1234 89.8066 20.5331 90.3102 20.9428 90.8138C21.3526 91.3175 21.7623 91.8211 22.1878 92.309C22.5975 92.8127 23.023 93.3006 23.4484 93.7885C23.8739 94.2764 24.2994 94.78 24.7249 95.268C25.1504 95.7559 25.5758 96.2438 26.0171 96.7317C26.4583 97.2196 26.8838 97.7075 27.325 98.1797C27.7663 98.6676 28.2075 99.1397 28.6488 99.6119C29.09 100.084 29.5312 100.556 29.9725 101.028C30.4137 101.501 30.855 101.957 31.312 102.429C31.7532 102.886 32.2102 103.358 32.6514 103.814C33.0927 104.271 33.5497 104.727 34.0067 105.183L35.3619 106.521C35.8189 106.962 36.2602 107.403 36.7172 107.843C37.1584 108.284 37.6154 108.725 38.0724 109.15L40.7671 111.747L51.1205 120.97L62.8291 130.476L69.8101 135.701C70.0938 135.906 70.3932 136 70.7241 136C71.0078 136 71.2915 135.922 71.5909 135.764L84.9226 125.266H80.983L70.7557 133.136Z" fill="#006937"/>
</g>
<defs>
<clipPath id="clip0_1_3149">
<rect width="212" height="136" fill="white"/>
</clipPath>
</defs>
</svg>
