<svg width="45" height="27" viewBox="0 0 45 27" fill="none" xmlns="http://www.w3.org/2000/svg">
<g clip-path="url(#clip0_104_4589)">
<rect x="0.733154" y="0.367676" width="44" height="26.4" rx="4" fill="#000066"/>
<path fill-rule="evenodd" clip-rule="evenodd" d="M37.5419 13.5604C37.5419 18.4247 33.6145 22.3675 28.7687 22.3675C23.9238 22.3675 19.9958 18.4247 19.9958 13.5604C19.9958 8.69588 23.9238 4.75293 28.7687 4.75293C33.6145 4.75293 37.5419 8.69588 37.5419 13.5604Z" fill="#CC0000"/>
<path fill-rule="evenodd" clip-rule="evenodd" d="M21.9916 19.1533C21.7493 18.8584 21.5262 18.5468 21.3234 18.2205H24.4327C24.6193 17.9216 24.7878 17.6101 24.9382 17.2879H20.8181C20.6776 16.9861 20.5529 16.6749 20.4466 16.3555H25.309C25.6018 15.4772 25.76 14.5377 25.76 13.5604C25.76 12.9204 25.6921 12.2963 25.5632 11.6953H20.1932C20.2611 11.3775 20.3468 11.0666 20.4477 10.7626H25.3084C25.2018 10.4432 25.0777 10.1321 24.9374 9.83037H20.8189C20.9694 9.50816 21.1383 9.19722 21.3243 8.89756H24.4317C24.229 8.57214 24.0053 8.26107 23.7635 7.96572H21.9927C22.2652 7.63376 22.5612 7.32213 22.8782 7.0336C21.321 5.61629 19.2543 4.75293 16.9874 4.75293C12.1418 4.75293 8.21387 8.69588 8.21387 13.5604C8.21387 18.4247 12.1418 22.3675 16.9874 22.3675C19.2544 22.3675 21.3213 21.5042 22.8782 20.0874C23.1956 19.7983 23.492 19.486 23.7645 19.1533H21.9916Z" fill="#0066CC"/>
<path fill-rule="evenodd" clip-rule="evenodd" d="M22.7532 15.9404C22.3782 16.04 22.0157 16.0887 21.6324 16.0879C20.4096 16.0868 19.7727 15.5277 19.7727 14.4585C19.7727 13.2093 20.5834 12.2905 21.684 12.2905C22.5842 12.2905 23.1588 12.8056 23.1588 13.6128C23.1588 13.8806 23.1199 14.1415 23.0247 14.5104H20.8501C20.7727 15.0326 21.1525 15.2618 21.7991 15.2618C22.1863 15.2618 22.5365 15.192 22.9244 15.0354L22.7532 15.9404ZM22.1684 13.7737C22.1684 13.6949 22.2893 13.1343 21.66 13.1222C21.3125 13.1222 21.0633 13.3541 20.9625 13.7737H22.1684Z" fill="#000066"/>
<path fill-rule="evenodd" clip-rule="evenodd" d="M23.49 13.5291C23.49 13.9905 23.7488 14.3094 24.3371 14.5467C24.7868 14.7315 24.8575 14.7851 24.8575 14.9503C24.8575 15.1793 24.6589 15.2842 24.2177 15.2815C23.8865 15.2791 23.584 15.2386 23.2273 15.1394L23.0693 15.981C23.3866 16.0549 23.8313 16.0791 24.2255 16.0883C25.3998 16.0883 25.9419 15.7024 25.9419 14.8681C25.9419 14.3665 25.7158 14.0715 25.1581 13.8516C24.6919 13.6646 24.6373 13.6243 24.6373 13.4549C24.6373 13.2562 24.822 13.1557 25.1821 13.1557C25.4005 13.1557 25.6993 13.1757 25.983 13.2103L26.142 12.364C25.853 12.3238 25.4147 12.2915 25.1609 12.2915C23.9168 12.2915 23.4863 12.8537 23.49 13.5291Z" fill="#000066"/>
<path fill-rule="evenodd" clip-rule="evenodd" d="M19.1766 16.0276H18.2644L18.2862 15.644C18.008 15.9466 17.6374 16.0876 17.1346 16.0876C16.5395 16.0876 16.1318 15.6791 16.1318 15.0916C16.1318 14.1986 16.8405 13.6835 18.0591 13.6835C18.1843 13.6835 18.3436 13.6929 18.5072 13.7115C18.541 13.5919 18.5502 13.5404 18.5502 13.4755C18.5502 13.2311 18.3584 13.1411 17.8457 13.1411C17.3401 13.143 16.999 13.2183 16.6825 13.3036L16.8383 12.4844C17.3857 12.3447 17.744 12.2905 18.1496 12.2905C19.0932 12.2905 19.5915 12.6621 19.5915 13.36C19.5994 13.5464 19.5349 13.9202 19.5024 14.0839C19.4655 14.3218 19.204 15.7019 19.1766 16.0276ZM18.3758 14.3983C18.2603 14.3869 18.21 14.3834 18.1308 14.3834C17.5087 14.3834 17.1932 14.5694 17.1932 14.9364C17.1932 15.1669 17.3471 15.311 17.5872 15.311C18.0342 15.311 18.357 14.9356 18.3758 14.3983Z" fill="#000066"/>
<path fill-rule="evenodd" clip-rule="evenodd" d="M27.864 15.9698C27.5647 16.052 27.3314 16.0879 27.0792 16.0879C26.5204 16.0879 26.2152 15.8012 26.2152 15.2907C26.1976 15.1504 26.3342 14.5023 26.3652 14.3218C26.396 14.1407 26.8801 11.501 26.8801 11.501H27.9658L27.8016 12.3745H28.3584L28.2072 13.2657H27.6478C27.6478 13.2657 27.341 14.813 27.341 14.9313C27.341 15.1188 27.4541 15.2004 27.7141 15.2004C27.8383 15.2004 27.9344 15.1887 28.0086 15.1664L27.864 15.9698Z" fill="#000066"/>
<path fill-rule="evenodd" clip-rule="evenodd" d="M32.715 12.2907C31.9193 12.2907 31.2975 12.6198 30.9363 13.1688L31.2498 12.3543C30.6722 12.1415 30.2997 12.4453 29.9632 12.8771C29.9632 12.8771 29.9068 12.9487 29.8505 13.0143V12.3742H28.8311C28.693 13.5039 28.4488 14.6497 28.2578 15.782L28.2117 16.0282H29.3083C29.4125 15.4536 29.4979 14.9874 29.583 14.6155C29.816 13.5952 30.2081 13.2835 30.7967 13.4215C30.6608 13.7145 30.5863 14.0541 30.5863 14.4298C30.5863 15.3419 31.0794 16.088 32.3045 16.088C33.5405 16.088 34.4355 15.4252 34.4355 13.9138C34.4355 13.0023 33.839 12.2907 32.715 12.2907ZM32.3959 15.2016C32.0086 15.2075 31.7737 14.8813 31.7737 14.393C31.7737 13.8146 32.1163 13.1608 32.667 13.1608C33.1112 13.1608 33.2633 13.5145 33.2633 13.8913C33.2633 14.7141 32.9274 15.2016 32.3959 15.2016Z" fill="#000066"/>
<path fill-rule="evenodd" clip-rule="evenodd" d="M15.6207 16.0283H14.5285L15.1776 12.5955L13.6833 16.0283H12.6877L12.5058 12.6156L11.8546 16.0283H10.8638L11.7076 11.563H13.4144L13.5565 14.0523L14.6378 11.563H16.4815L15.6207 16.0283Z" fill="#000066"/>
<path fill-rule="evenodd" clip-rule="evenodd" d="M23.0271 15.6653C22.6524 15.7651 22.2897 15.8138 21.9066 15.813C20.6837 15.8119 20.0469 15.2526 20.0469 14.1836C20.0469 12.9344 20.8575 12.0156 21.9579 12.0156C22.8582 12.0156 23.4329 12.5307 23.4329 13.3377C23.4329 13.6055 23.394 13.8659 23.2988 14.2355H21.1244C21.0469 14.7571 21.4264 14.9868 22.073 14.9868C22.4602 14.9868 22.8106 14.9169 23.1985 14.7601L23.0271 15.6653ZM22.4423 13.4988C22.4423 13.4199 22.5632 12.8594 21.9341 12.8471C21.5866 12.8471 21.3375 13.079 21.2364 13.4988H22.4423Z" fill="white"/>
<path fill-rule="evenodd" clip-rule="evenodd" d="M23.7642 13.2536C23.7642 13.7151 24.0228 14.0337 24.611 14.2713C25.061 14.4563 25.1315 14.5097 25.1315 14.6745C25.1315 14.9039 24.9328 15.0089 24.492 15.0062C24.1604 15.0037 23.858 14.9632 23.5015 14.864L23.3433 15.7053C23.6607 15.7795 24.1056 15.8037 24.4994 15.8131C25.6737 15.8131 26.2161 15.427 26.2161 14.5924C26.2161 14.0911 25.9898 13.7959 25.4322 13.5762C24.966 13.3893 24.9112 13.3485 24.9112 13.1797C24.9112 12.9809 25.0962 12.88 25.4561 12.88C25.6745 12.88 25.9732 12.9005 26.257 12.935L26.4161 12.0888C26.1271 12.048 25.6888 12.0161 25.4352 12.0161C24.1909 12.0161 23.7603 12.578 23.7642 13.2536Z" fill="white"/>
<path fill-rule="evenodd" clip-rule="evenodd" d="M19.4509 15.7526H18.5383L18.5604 15.369C18.2821 15.6713 17.9117 15.8122 17.4088 15.8122C16.8138 15.8122 16.4058 15.4038 16.4058 14.8163C16.4058 13.9236 17.1146 13.4084 18.3331 13.4084C18.4583 13.4084 18.6175 13.418 18.7814 13.4359C18.8152 13.3166 18.8243 13.2655 18.8243 13.2005C18.8243 12.9555 18.6326 12.8659 18.12 12.8659C17.6143 12.868 17.2732 12.9433 16.9568 13.0287L17.1122 12.2094C17.6598 12.0696 18.018 12.0156 18.4238 12.0156C19.3674 12.0156 19.8656 12.3868 19.8656 13.085C19.8738 13.2715 19.8089 13.6446 19.7767 13.8089C19.7394 14.0467 19.478 15.4269 19.4509 15.7526ZM18.65 14.1234C18.5347 14.1115 18.4842 14.1084 18.4049 14.1084C17.783 14.1084 17.4674 14.2941 17.4674 14.6608C17.4674 14.8917 17.6216 15.0361 17.8612 15.0361C18.3085 15.0361 18.6313 14.6603 18.65 14.1234Z" fill="white"/>
<path fill-rule="evenodd" clip-rule="evenodd" d="M28.138 15.6949C27.8387 15.7773 27.6054 15.8132 27.3531 15.8132C26.7943 15.8132 26.4894 15.5263 26.4894 15.0158C26.4716 14.8755 26.6082 14.2274 26.6391 14.0469C26.6702 13.8658 27.1542 11.2261 27.1542 11.2261H28.2398L28.0758 12.0993H28.6326L28.4812 12.9908H27.922C27.922 12.9908 27.6149 14.5381 27.6149 14.6559C27.6149 14.844 27.7282 14.925 27.9881 14.925C28.1124 14.925 28.2083 14.9139 28.2829 14.8914L28.138 15.6949Z" fill="white"/>
<path fill-rule="evenodd" clip-rule="evenodd" d="M33.5378 13.6155C33.5378 14.4391 33.2014 14.9265 32.6699 14.9265C32.2827 14.9321 32.0479 14.6062 32.0479 14.118C32.0479 13.5395 32.3905 12.8856 32.941 12.8856C33.3854 12.8856 33.5378 13.2393 33.5378 13.6155ZM34.7098 13.6387C34.7098 12.7273 34.1131 12.0156 32.9894 12.0156C31.6967 12.0156 30.8606 12.8805 30.8606 14.1547C30.8606 15.0667 31.3537 15.813 32.5789 15.813C33.8149 15.813 34.7098 15.1502 34.7098 13.6387Z" fill="white"/>
<path fill-rule="evenodd" clip-rule="evenodd" d="M29.1052 12.0987C28.9672 13.2287 28.7229 14.3743 28.5321 15.5065L28.4861 15.7531H29.5826C29.9778 13.5664 30.1105 12.9435 30.9387 13.1627L31.3371 12.1282C30.7593 11.9154 30.3875 12.2193 30.051 12.6514C30.0814 12.4569 30.1385 12.2692 30.1248 12.0987H29.1052Z" fill="white"/>
<path fill-rule="evenodd" clip-rule="evenodd" d="M15.8949 15.753H14.803L15.4519 12.3202L13.9574 15.753H12.9619L12.7798 12.3402L12.1287 15.753H11.1379L11.9817 11.2876H13.6886L13.7787 14.0521L14.9802 11.2876H16.7557L15.8949 15.753Z" fill="white"/>
</g>
<defs>
<clipPath id="clip0_104_4589">
<rect width="44" height="26.4" fill="white" transform="translate(0.733154 0.367676)"/>
</clipPath>
</defs>
</svg>
