<svg width="45" height="28" viewBox="0 0 45 28" fill="none" xmlns="http://www.w3.org/2000/svg">
<g clip-path="url(#clip0_104_4730)">
<rect x="0.733154" y="0.767578" width="44" height="26.4" rx="4" fill="#F7931A"/>
<g clip-path="url(#clip1_104_4730)">
<path fill-rule="evenodd" clip-rule="evenodd" d="M16.069 11.3045C16.3507 11.3045 16.5938 11.3546 16.7983 11.4533C17.0036 11.5528 17.1733 11.6869 17.3092 11.8556C17.4433 12.0251 17.5432 12.2233 17.6076 12.4503C17.6717 12.6781 17.7038 12.9227 17.7038 13.1849C17.7038 13.5872 17.6298 13.9677 17.48 14.3261C17.3305 14.685 17.1273 14.9964 16.869 15.262C16.6109 15.5274 16.3062 15.7364 15.9548 15.8908C15.6039 16.0456 15.2225 16.1227 14.8129 16.1227C14.76 16.1227 14.6669 16.1214 14.5353 16.1184C14.4038 16.1158 14.2525 16.1024 14.0832 16.0796C13.9128 16.056 13.7327 16.021 13.5423 15.9742C13.3522 15.9282 13.1716 15.8636 13.0015 15.7818L14.5221 9.42495L15.8841 9.21484L15.3397 11.4705C15.4563 11.4183 15.5737 11.3777 15.6909 11.3483C15.8087 11.3198 15.9344 11.3045 16.069 11.3045ZM14.9266 15.048C15.1317 15.048 15.3249 14.9979 15.5065 14.8992C15.6886 14.8008 15.8458 14.6675 15.9773 14.5015C16.1088 14.335 16.2132 14.1471 16.2892 13.9372C16.3652 13.7276 16.4036 13.5088 16.4036 13.281C16.4036 13.0014 16.3567 12.783 16.2629 12.6254C16.1692 12.4682 15.996 12.3894 15.7442 12.3894C15.6617 12.3894 15.5554 12.4049 15.4236 12.4328C15.2914 12.4628 15.1731 12.5243 15.067 12.617L14.4873 15.0128C14.5222 15.0187 14.5533 15.0247 14.5795 15.0301C14.6054 15.0359 14.6338 15.0403 14.6622 15.0433C14.6924 15.0467 14.7267 15.0482 14.7681 15.0482C14.8096 15.0482 14.8621 15.048 14.9266 15.048Z" fill="white"/>
<path fill-rule="evenodd" clip-rule="evenodd" d="M19.1169 16.0007H17.8159L18.9146 11.4014H20.2245L19.1169 16.0007ZM19.7498 10.8415C19.5681 10.8415 19.4036 10.7875 19.2575 10.68C19.1102 10.5729 19.0372 10.4079 19.0372 10.1857C19.0372 10.0635 19.0622 9.94861 19.1117 9.84064C19.1618 9.73267 19.2276 9.63938 19.3099 9.56057C19.3921 9.48218 19.4872 9.41956 19.5953 9.37227C19.704 9.32584 19.8197 9.30273 19.943 9.30273C20.1244 9.30273 20.2883 9.3565 20.4348 9.46426C20.5809 9.57244 20.6545 9.73742 20.6545 9.95833C20.6545 10.081 20.6297 10.1963 20.5796 10.3043C20.5299 10.4122 20.4643 10.5051 20.3821 10.5843C20.3007 10.6627 20.2045 10.7251 20.0966 10.772C19.9879 10.8191 19.8729 10.8415 19.7498 10.8415Z" fill="white"/>
<path fill-rule="evenodd" clip-rule="evenodd" d="M21.3641 10.256L22.7267 10.0459L22.392 11.4013H23.8512L23.5877 12.4679H22.1372L21.7509 14.0768C21.7153 14.2109 21.6951 14.3362 21.6894 14.4524C21.6832 14.5694 21.6979 14.6698 21.7331 14.7542C21.768 14.8389 21.831 14.9041 21.9221 14.9505C22.0128 14.9974 22.1429 15.0209 22.313 15.0209C22.4532 15.0209 22.59 15.0077 22.7222 14.9812C22.8535 14.9555 22.9867 14.9192 23.1215 14.8719L23.2185 15.8693C23.0427 15.9335 22.8524 15.9888 22.6473 16.0352C22.4419 16.082 22.1986 16.1047 21.9176 16.1047C21.5134 16.1047 21.2 16.0453 20.9769 15.9264C20.754 15.8065 20.5964 15.643 20.502 15.436C20.4089 15.2297 20.3674 14.9918 20.3791 14.7238C20.3913 14.4552 20.4319 14.1727 20.502 13.8754L21.3641 10.256Z" fill="white"/>
<path fill-rule="evenodd" clip-rule="evenodd" d="M23.7937 14.1648C23.7937 13.7685 23.8582 13.3952 23.9871 13.0451C24.1156 12.6951 24.3009 12.3891 24.5414 12.1263C24.781 11.8648 25.0728 11.6577 25.4161 11.5059C25.758 11.3545 26.1406 11.2783 26.5626 11.2783C26.8265 11.2783 27.0624 11.3029 27.2699 11.3528C27.4783 11.4029 27.6669 11.4679 27.8373 11.5493L27.3886 12.5645C27.2714 12.5172 27.1497 12.4755 27.024 12.4375C26.8981 12.399 26.7444 12.3805 26.5628 12.3805C26.1287 12.3805 25.7853 12.5293 25.5299 12.826C25.2755 13.1231 25.1472 13.5228 25.1472 14.0244C25.1472 14.3218 25.2117 14.5619 25.341 14.7459C25.4697 14.9296 25.7074 15.021 26.0527 15.021C26.2231 15.021 26.3874 15.0033 26.545 14.9687C26.7036 14.9337 26.8436 14.8899 26.9671 14.8376L27.0642 15.878C26.8996 15.9417 26.7182 15.9992 26.5192 16.0493C26.3197 16.0979 26.0822 16.1227 25.8068 16.1227C25.4435 16.1227 25.1357 16.07 24.8841 15.9657C24.6324 15.8599 24.4242 15.7193 24.2604 15.5414C24.0956 15.363 23.9773 15.1546 23.9042 14.9156C23.8308 14.6774 23.7937 14.4265 23.7937 14.1648H23.7937Z" fill="white"/>
<path fill-rule="evenodd" clip-rule="evenodd" d="M29.5724 16.123C29.2618 16.123 28.9923 16.0761 28.7635 15.983C28.5354 15.8898 28.3466 15.7591 28.197 15.5896C28.0475 15.421 27.9353 15.221 27.8586 14.9908C27.7818 14.7608 27.7451 14.5058 27.7451 14.2266C27.7451 13.8761 27.8018 13.5259 27.9159 13.1765C28.0297 12.8267 28.1983 12.5123 28.4219 12.2326C28.6435 11.9525 28.9167 11.7236 29.2388 11.5451C29.5603 11.368 29.9303 11.2788 30.3458 11.2788C30.6505 11.2788 30.919 11.3259 31.1508 11.419C31.3815 11.5122 31.5716 11.6437 31.7221 11.8124C31.8707 11.9819 31.9838 12.181 32.0598 12.4116C32.1364 12.6412 32.174 12.8968 32.174 13.1763C32.174 13.5257 32.1182 13.8759 32.0075 14.2264C31.8966 14.5749 31.7323 14.8902 31.5152 15.1702C31.2986 15.4499 31.0277 15.6786 30.7024 15.8565C30.377 16.034 30 16.123 29.5724 16.123ZM30.2225 12.3808C30.0296 12.3808 29.8592 12.4365 29.7131 12.5466C29.5666 12.6578 29.4435 12.7978 29.3443 12.9664C29.2441 13.1357 29.1696 13.321 29.1195 13.5216C29.0698 13.7231 29.0452 13.9133 29.0452 14.0943C29.0452 14.386 29.0926 14.6132 29.1855 14.7769C29.2799 14.9395 29.4492 15.0213 29.6955 15.0213C29.8891 15.0213 30.0586 14.966 30.2056 14.8548C30.3512 14.7445 30.4743 14.6045 30.5743 14.4355C30.674 14.267 30.7491 14.0813 30.7992 13.8803C30.8485 13.6795 30.8734 13.4881 30.8734 13.3076C30.8734 13.0165 30.8263 12.7889 30.7326 12.6255C30.6388 12.4624 30.4686 12.3808 30.2225 12.3808Z" fill="white"/>
<path fill-rule="evenodd" clip-rule="evenodd" d="M33.5914 16.0007H32.2896L33.3882 11.4014H34.6988L33.5914 16.0007ZM34.2234 10.8415C34.0419 10.8415 33.8774 10.7875 33.7315 10.68C33.5848 10.5729 33.5112 10.4079 33.5112 10.1857C33.5112 10.0635 33.5364 9.94861 33.5861 9.84064C33.6358 9.73267 33.7018 9.63938 33.7841 9.56057C33.8659 9.48218 33.9618 9.41956 34.0697 9.37227C34.1778 9.32584 34.2935 9.30273 34.4165 9.30273C34.5984 9.30273 34.7627 9.3565 34.909 9.46426C35.0555 9.57244 35.1293 9.73742 35.1293 9.95833C35.1293 10.081 35.1031 10.1963 35.0538 10.3043C35.0045 10.4122 34.9388 10.5051 34.8567 10.5843C34.7742 10.6627 34.6796 10.7251 34.5715 10.772C34.4626 10.8191 34.3471 10.8415 34.2234 10.8415Z" fill="white"/>
<path fill-rule="evenodd" clip-rule="evenodd" d="M35.6355 11.611C35.7343 11.5822 35.8445 11.5477 35.9646 11.5101C36.085 11.4725 36.2194 11.4376 36.3696 11.406C36.5183 11.3736 36.6858 11.3475 36.8703 11.3268C37.0548 11.306 37.2647 11.2959 37.4984 11.2959C38.1843 11.2959 38.6575 11.4946 38.9186 11.891C39.1792 12.2875 39.2246 12.8299 39.0551 13.5173L38.4569 16.0006H37.1475L37.7274 13.5695C37.7626 13.4177 37.7906 13.2709 37.811 13.1275C37.8318 12.9856 37.8305 12.8604 37.8064 12.752C37.7836 12.6449 37.7289 12.5574 37.6445 12.4894C37.5586 12.4222 37.4288 12.389 37.2527 12.389C37.0832 12.389 36.9107 12.4071 36.7344 12.4421L35.8817 16.0006H34.5718L35.6355 11.611Z" fill="white"/>
</g>
<g clip-path="url(#clip2_104_4730)">
<path fill-rule="evenodd" clip-rule="evenodd" d="M20.2796 19.0878L20.013 19.5696H19.7246C19.9278 19.2051 20.1259 18.8695 20.3191 18.5627C20.5122 18.256 20.7031 17.9663 20.8918 17.6938H21.1502C21.1774 17.8292 21.2024 17.9661 21.2251 18.1039C21.2477 18.242 21.2699 18.3868 21.2917 18.5384C21.3135 18.6899 21.3343 18.8508 21.3543 19.0204C21.3742 19.19 21.3951 19.373 21.4169 19.5699H21.1502C21.1412 19.4887 21.133 19.407 21.1257 19.3249C21.1185 19.2428 21.1103 19.1639 21.1013 19.0881H20.2796V19.0878ZM21.0767 18.8765C21.0622 18.7305 21.0454 18.585 21.0264 18.4407C21.0073 18.2963 20.9851 18.1474 20.9597 17.994C20.8962 18.0861 20.8173 18.205 20.723 18.35C20.6287 18.4955 20.5217 18.6707 20.402 18.8765H21.0767Z" fill="white"/>
<path fill-rule="evenodd" clip-rule="evenodd" d="M22.3808 19.6101C22.2629 19.6101 22.1591 19.593 22.0693 19.5587C21.9795 19.5244 21.9047 19.4757 21.8448 19.4125C21.785 19.3496 21.7401 19.2731 21.7102 19.1838C21.6802 19.0945 21.6653 18.9939 21.6653 18.882C21.6653 18.7196 21.6911 18.5644 21.7428 18.4164C21.7945 18.2687 21.868 18.1378 21.9632 18.0242C22.0584 17.9105 22.1731 17.8198 22.3074 17.7519C22.4416 17.6842 22.591 17.6504 22.7563 17.6504C22.8977 17.6504 23.0106 17.6648 23.095 17.6937C23.1793 17.7226 23.2396 17.7496 23.2759 17.7749L23.1671 17.9914C23.1251 17.9644 23.0687 17.9387 22.997 17.9143C22.9254 17.8902 22.8406 17.8778 22.7427 17.8778C22.6175 17.8778 22.5051 17.9071 22.4053 17.966C22.3055 18.0246 22.2212 18.1004 22.1523 18.1933C22.0834 18.2863 22.0308 18.3909 21.9945 18.5073C21.9582 18.6237 21.9401 18.7387 21.9401 18.8524C21.9401 19.2043 22.0933 19.3802 22.3999 19.3802C22.4652 19.3802 22.5236 19.3755 22.5753 19.3665C22.627 19.3577 22.6728 19.3471 22.7127 19.3354C22.7526 19.3236 22.788 19.3108 22.8188 19.2961C22.8497 19.2817 22.8769 19.269 22.9005 19.2582L22.9331 19.4856C22.9113 19.4982 22.8828 19.5117 22.8474 19.5262C22.812 19.5406 22.7708 19.5542 22.7236 19.567C22.6765 19.5796 22.6239 19.59 22.5658 19.5981C22.5078 19.6063 22.4461 19.6101 22.3808 19.6101Z" fill="white"/>
<path fill-rule="evenodd" clip-rule="evenodd" d="M23.9096 19.6101C23.7917 19.6101 23.6879 19.593 23.5981 19.5587C23.5083 19.5244 23.4335 19.4757 23.3737 19.4125C23.3138 19.3496 23.2689 19.2731 23.239 19.1838C23.2091 19.0945 23.1941 18.9939 23.1941 18.882C23.1941 18.7196 23.2199 18.5644 23.2716 18.4164C23.3233 18.2687 23.3968 18.1378 23.492 18.0242C23.5872 17.9105 23.7019 17.8198 23.8362 17.7519C23.9704 17.6842 24.1198 17.6504 24.2851 17.6504C24.4265 17.6504 24.5395 17.6648 24.6238 17.6937C24.7081 17.7226 24.7684 17.7496 24.8047 17.7749L24.6959 17.9914C24.6539 17.9644 24.5975 17.9387 24.5259 17.9143C24.4542 17.8902 24.3694 17.8778 24.2715 17.8778C24.1463 17.8778 24.0339 17.9071 23.9341 17.966C23.8344 18.0246 23.75 18.1004 23.6811 18.1933C23.6122 18.2863 23.5596 18.3909 23.5233 18.5073C23.487 18.6237 23.4689 18.7387 23.4689 18.8524C23.4689 19.2043 23.6221 19.3802 23.9287 19.3802C23.994 19.3802 24.0525 19.3755 24.1042 19.3665C24.1558 19.3577 24.2016 19.3471 24.2415 19.3354C24.2814 19.3236 24.3168 19.3108 24.3476 19.2961C24.3785 19.2817 24.4057 19.269 24.4293 19.2582L24.4619 19.4856C24.4402 19.4982 24.4116 19.5117 24.3762 19.5262C24.3408 19.5406 24.2996 19.5542 24.2524 19.567C24.2053 19.5796 24.1527 19.59 24.0946 19.5981C24.0366 19.6063 23.9749 19.6101 23.9096 19.6101Z" fill="white"/>
<path fill-rule="evenodd" clip-rule="evenodd" d="M24.6401 19.5696L25.0918 17.6938H26.2045L26.1528 17.9131H25.3013L25.1652 18.4788H25.9216L25.8699 18.6926H25.1163L24.9557 19.3504H25.8699L25.8182 19.5696H24.6401H24.6401Z" fill="white"/>
<path fill-rule="evenodd" clip-rule="evenodd" d="M26.992 17.6748C27.2115 17.6748 27.377 17.7163 27.4885 17.7993C27.6001 17.8823 27.6558 18.0032 27.6558 18.162C27.6558 18.2847 27.6327 18.391 27.5865 18.4801C27.5402 18.5694 27.4745 18.6429 27.3892 18.7009C27.304 18.7586 27.2015 18.8013 27.0818 18.8292C26.9621 18.8572 26.8287 18.8714 26.6818 18.8714H26.4941L26.3254 19.5698H26.0615L26.5077 17.7183C26.5839 17.7003 26.6646 17.6886 26.7499 17.6832C26.8351 17.6775 26.9158 17.6748 26.992 17.6748ZM26.9595 17.8968C26.8307 17.8968 26.7527 17.9004 26.7255 17.9076L26.5459 18.652H26.7173C26.7935 18.652 26.8715 18.6455 26.9513 18.6317C27.0311 18.6182 27.1027 18.5943 27.1662 18.5602C27.2297 18.5259 27.2819 18.4786 27.3227 18.4179C27.3635 18.3574 27.3839 18.2796 27.3839 18.184C27.3839 18.0811 27.3458 18.0076 27.2696 17.9631C27.1934 17.9189 27.09 17.8968 26.9595 17.8968Z" fill="white"/>
<path fill-rule="evenodd" clip-rule="evenodd" d="M29.2653 17.6938L29.2136 17.9131H28.645L28.2451 19.5696H27.9812L28.3811 17.9131H27.8125L27.8642 17.6938H29.2653Z" fill="white"/>
<path fill-rule="evenodd" clip-rule="evenodd" d="M29.0205 19.5696L29.4721 17.6938H30.5849L30.5332 17.9131H29.6816L29.5456 18.4788H30.3019L30.2502 18.6926H29.4966L29.3361 19.3504H30.2502L30.1986 19.5696H29.0205H29.0205Z" fill="white"/>
<path fill-rule="evenodd" clip-rule="evenodd" d="M31.3686 17.6748C31.6479 17.6748 31.8565 17.7402 31.9943 17.871C32.1322 18.0019 32.2011 18.1783 32.2011 18.4002C32.2011 18.5554 32.1766 18.7047 32.1277 18.848C32.0787 18.9917 32.0025 19.1182 31.8991 19.2285C31.7957 19.3383 31.6638 19.4261 31.5033 19.4911C31.3427 19.556 31.1509 19.5885 30.9278 19.5885C30.8517 19.5885 30.7691 19.5849 30.6803 19.5777C30.5914 19.5704 30.5134 19.5578 30.4463 19.5398L30.8843 17.7181C30.9605 17.7001 31.0412 17.6883 31.1265 17.6829C31.2117 17.6775 31.2924 17.6748 31.3686 17.6748ZM31.3468 17.8968C31.2108 17.8968 31.1292 17.9004 31.102 17.9076L30.7537 19.3531C30.7682 19.3567 30.7927 19.3598 30.8272 19.3625C30.8616 19.3652 30.9179 19.3666 30.9959 19.3666C31.1392 19.3666 31.2684 19.3429 31.3836 19.2951C31.4987 19.2473 31.5962 19.1805 31.676 19.0946C31.7558 19.0089 31.8175 18.9071 31.861 18.7889C31.9046 18.6707 31.9263 18.5413 31.9263 18.4005C31.9263 18.2417 31.8801 18.1181 31.7876 18.0295C31.6951 17.9413 31.5482 17.8968 31.3468 17.8968Z" fill="white"/>
<path fill-rule="evenodd" clip-rule="evenodd" d="M34.2334 19.5696H33.9695L34.179 18.6981H33.3057L33.0962 19.5696H32.8323L33.2839 17.6938H33.5478L33.3574 18.4788H34.2309L34.4214 17.6938H34.6853L34.2334 19.5696Z" fill="white"/>
<path fill-rule="evenodd" clip-rule="evenodd" d="M34.6494 19.5696L35.101 17.6938H36.2138L36.1619 17.9131H35.3103L35.1743 18.4788H35.9306L35.8787 18.6926H35.1251L34.9648 19.3504H35.8787L35.8268 19.5696H34.6494H34.6494Z" fill="white"/>
<path fill-rule="evenodd" clip-rule="evenodd" d="M37.0015 17.6748C37.2028 17.6748 37.3625 17.7154 37.4803 17.7966C37.5982 17.8778 37.657 17.9969 37.657 18.1537C37.657 18.3125 37.6105 18.4458 37.5171 18.5532C37.4237 18.6605 37.2926 18.7377 37.1239 18.7844C37.1457 18.8225 37.1711 18.8707 37.2001 18.9294C37.2291 18.988 37.2591 19.053 37.2899 19.1243C37.3205 19.1953 37.3507 19.2695 37.3797 19.346C37.4087 19.4229 37.4339 19.4971 37.4559 19.5693H37.1865C37.1614 19.5008 37.1348 19.4313 37.1076 19.3609C37.0806 19.2905 37.0528 19.2229 37.0249 19.1579C36.9965 19.0929 36.9686 19.032 36.9403 18.9752C36.9124 18.9183 36.8863 18.868 36.8628 18.825C36.8392 18.8268 36.8156 18.8281 36.792 18.829C36.7684 18.8299 36.7451 18.8304 36.7213 18.8304H36.5118L36.3349 19.5693H36.071L36.5175 17.7179C36.5936 17.6998 36.6741 17.6881 36.7596 17.6827C36.8446 17.6775 36.9253 17.6748 37.0015 17.6748ZM36.9689 17.8968C36.8401 17.8968 36.7622 17.9004 36.7347 17.9076L36.5633 18.6171H36.7241C36.7984 18.6171 36.8746 18.6116 36.9526 18.6008C37.0306 18.59 37.1018 18.5688 37.1659 18.5372C37.2303 18.5056 37.2829 18.4614 37.3237 18.4046C37.3646 18.3477 37.3852 18.2724 37.3852 18.1786C37.3852 18.0775 37.3466 18.0053 37.2696 17.962C37.1925 17.9185 37.092 17.8968 36.9689 17.8968Z" fill="white"/>
<path fill-rule="evenodd" clip-rule="evenodd" d="M37.6772 19.5696L38.1289 17.6938H39.2416L39.1897 17.9131H38.3381L38.2021 18.4788H38.9584L38.9065 18.6926H38.1529L37.9926 19.3504H38.9065L38.8546 19.5696H37.6772H37.6772Z" fill="white"/>
</g>
<path fill-rule="evenodd" clip-rule="evenodd" d="M9.19338 16.3182C11.1865 16.3182 12.8023 14.7107 12.8023 12.7277C12.8023 10.7447 11.1865 9.13721 9.19338 9.13721C7.20023 9.13721 5.58447 10.7447 5.58447 12.7277C5.58447 14.7107 7.20023 16.3182 9.19338 16.3182ZM9.99051 11.3096C10.4905 11.4811 10.8563 11.7379 10.7845 12.2158C10.7324 12.5658 10.5375 12.7351 10.2784 12.7943C10.6338 12.9784 10.8148 13.2606 10.6424 13.7502C10.4287 14.3581 9.92078 14.4093 9.24522 14.2823L9.08117 14.9358L8.68517 14.8374L8.84696 14.1927C8.74429 14.1673 8.63937 14.1402 8.53129 14.1112L8.36883 14.7591L7.97328 14.6607L8.13709 14.0059C8.10223 13.997 8.06711 13.9879 8.03173 13.9787L8.03161 13.9787C7.97337 13.9635 7.91444 13.9482 7.85482 13.9334L7.33945 13.8057L7.53621 13.3544C7.53621 13.3544 7.82819 13.4314 7.82413 13.4258C7.93627 13.4534 7.98614 13.3807 8.00577 13.3324L8.26481 12.2989L8.27057 12.3003C8.28315 12.3034 8.29522 12.3063 8.30677 12.3094C8.29075 12.3027 8.27654 12.2989 8.26548 12.2962L8.45028 11.5587C8.45525 11.475 8.42614 11.3695 8.26571 11.3295C8.2718 11.3253 7.97802 11.2584 7.97802 11.2584L8.08339 10.8375L8.62967 10.9731L8.62922 10.9751C8.71135 10.9955 8.79596 11.0148 8.88216 11.0343L9.04462 10.3869L9.44039 10.4852L9.28132 11.1199C9.38782 11.1439 9.49477 11.1684 9.59879 11.1942L9.75674 10.5636L10.1527 10.6619L9.99051 11.3096ZM9.87952 13.4786C9.76709 13.9277 9.06047 13.7418 8.73738 13.6568L8.73737 13.6568C8.70839 13.6492 8.68249 13.6424 8.66039 13.6369L8.87791 12.7695C8.90489 12.7762 8.93786 12.7835 8.97521 12.7919C9.30949 12.8665 9.9946 13.0194 9.87952 13.4786ZM9.04312 12.3896C9.31287 12.461 9.89985 12.6165 10.0022 12.2089C10.1065 11.7919 9.53626 11.666 9.25705 11.6043C9.2254 11.5973 9.1975 11.5912 9.17474 11.5855L8.97753 12.3726C8.99631 12.3772 9.01838 12.3831 9.04312 12.3896Z" fill="white"/>
</g>
<defs>
<clipPath id="clip0_104_4730">
<rect width="44" height="26.4" fill="white" transform="translate(0.733154 0.767578)"/>
</clipPath>
<clipPath id="clip1_104_4730">
<rect width="27.28" height="7.48" fill="white" transform="translate(12.9319 9.01904)"/>
</clipPath>
<clipPath id="clip2_104_4730">
<rect width="19.8" height="2.2" fill="white" transform="translate(19.4417 17.5498)"/>
</clipPath>
</defs>
</svg>
