<svg width="65" height="105" viewBox="0 0 65 105" fill="none" xmlns="http://www.w3.org/2000/svg">
<path d="M0.310547 104.492V91.0364C12.7422 78.8967 20.7863 70.5598 24.7351 66.0257C36.8743 52.1309 42.8708 40.5762 42.8708 31.0693C42.8708 22.7324 38.1906 17.7595 29.8541 17.7595C22.6876 17.7595 17.2761 22.7324 15.0823 31.508L1.04182 25.2188C3.82067 10.1539 15.5211 0.939453 31.7554 0.939453C40.9695 0.939453 47.9897 3.57217 53.1086 8.83757C58.2276 14.103 60.7139 20.3922 60.7139 27.7052C60.7139 33.1169 59.5439 38.6749 57.35 44.5253C55.1562 50.2295 52.5236 55.3486 49.5985 59.5902C46.6734 63.8318 43.1633 68.2196 38.9219 72.7537C34.8267 77.2878 31.6091 80.5055 29.2691 82.6995C27.0752 84.7471 24.5889 86.7948 22.1026 88.8424H64.6628V104.492H0.310547Z" fill="#006937"/>
</svg>
