<svg width="141" height="107" viewBox="0 0 141 107" fill="none" xmlns="http://www.w3.org/2000/svg">
<path d="M0.595703 104.932V91.4758C13.0274 79.3362 21.0715 70.9993 25.0203 66.4652C37.1595 52.5704 43.156 41.0157 43.156 31.5087C43.156 23.1718 38.4758 18.199 30.1392 18.199C22.9727 18.199 17.5613 23.1719 15.3675 31.9475L1.32695 25.6583C4.1058 10.5934 15.8061 1.37891 32.0405 1.37891C41.2545 1.37891 48.2748 4.01162 53.3937 9.27703C58.5126 14.5424 60.999 20.8317 60.999 28.1447C60.999 33.5564 59.8289 39.1143 57.6351 44.9648C55.4413 50.669 52.8087 55.7881 49.8836 60.0297C46.9585 64.2713 43.4484 68.6591 39.207 73.1932C35.1118 77.7273 31.8943 80.945 29.5542 83.139C27.3604 85.1866 24.8741 87.2343 22.3877 89.2819H64.9478V104.932H0.595703Z" fill="#006937"/>
<path d="M75.0391 89.2812L84.5457 76.9953C90.2496 85.4784 97.5624 89.72 106.484 89.72C117.014 89.72 123.011 83.7233 123.011 75.5327C123.011 66.172 115.844 61.0528 103.998 61.0528H96.6848V44.2328H103.266C112.042 44.2328 119.062 38.5286 119.062 30.1917C119.062 22.5861 114.674 17.7595 106.045 17.7595C98.1474 17.7595 91.7121 21.416 86.7394 28.7291L77.3792 16.8819C83.0831 6.20484 93.1747 0.939453 107.654 0.939453C125.351 0.939453 137.051 11.0315 137.051 26.9739C137.051 38.5286 131.786 46.7192 121.402 51.2533V51.6921C133.834 53.886 141 63.6855 141 76.1177C141 85.3322 137.783 92.7915 131.494 98.3494C125.205 103.761 117.161 106.54 107.508 106.54C92.2972 106.54 80.4505 99.9583 75.0391 89.2812Z" fill="#006937"/>
</svg>
