<svg width="142" height="107" viewBox="0 0 142 107" fill="none" xmlns="http://www.w3.org/2000/svg">
<path d="M0.927734 104.42V90.9641C13.3594 78.8244 21.4035 70.4875 25.3524 65.9534C37.4916 52.0586 43.4879 40.504 43.4879 30.997C43.4879 22.6601 38.8078 17.6872 30.4712 17.6872C23.3047 17.6872 17.8933 22.6601 15.6995 31.4358L1.65905 25.1465C4.4379 10.0816 16.1382 0.867188 32.3726 0.867188C41.5866 0.867188 48.6069 3.4999 53.7258 8.76531C58.8448 14.0307 61.3311 20.3199 61.3311 27.633C61.3311 33.0446 60.161 38.6026 57.9672 44.453C55.7734 50.1572 53.1408 55.2764 50.2157 59.5179C47.2906 63.7595 43.7805 68.1473 39.5391 72.6814C35.4439 77.2155 32.2263 80.4333 29.8863 82.6272C27.6924 84.6749 25.2061 86.7225 22.7197 88.7702H65.28V104.42H0.927734Z" fill="#006937"/>
<path d="M75.3711 88.7695L84.8777 76.4836C90.5816 84.9668 97.8944 89.2083 106.816 89.2083C117.346 89.2083 123.343 83.2116 123.343 75.021C123.343 65.6603 116.176 60.5411 104.33 60.5411H97.0168V43.7211H103.598C112.374 43.7211 119.394 38.0169 119.394 29.68C119.394 22.0744 115.006 17.2478 106.377 17.2478C98.4794 17.2478 92.0441 20.9043 87.0715 28.2174L77.7112 16.3702C83.4151 5.69316 93.5067 0.427734 107.986 0.427734C125.683 0.427734 137.383 10.5198 137.383 26.4623C137.383 38.0169 132.118 46.2075 121.734 50.7416V51.1804C134.166 53.3743 141.332 63.1738 141.332 75.606C141.332 84.8205 138.115 92.2798 131.826 97.8377C125.537 103.249 117.492 106.028 107.84 106.028C92.6291 106.028 80.7825 99.4466 75.3711 88.7695Z" fill="#006937"/>
</svg>
