<svg width="72" height="106" viewBox="0 0 72 106" fill="none" xmlns="http://www.w3.org/2000/svg">
<path d="M18.4627 51.6908V51.252C10.1262 47.7417 3.83724 38.5272 3.83724 26.9726C3.83724 19.0745 6.90859 12.639 13.1976 7.66612C19.4865 2.54698 27.0918 0.0605469 36.3059 0.0605469C45.52 0.0605469 53.2714 2.54698 59.5604 7.66612C65.8494 12.639 69.067 19.0745 69.067 26.9726C69.067 37.0646 63.0705 47.0104 53.2714 51.1057V51.5445C63.8018 53.7384 71.8458 63.2454 71.8458 76.1164C71.8458 85.3308 68.482 92.4976 61.7543 97.7631C55.1728 103.028 46.69 105.661 36.4521 105.661C26.2143 105.661 17.7315 103.175 11.0037 98.0556C4.27601 92.9364 0.912109 86.0622 0.912109 77.579C0.912109 64.8543 8.07864 55.201 18.4627 51.6908ZM35.4283 59.8814C26.5068 59.8814 18.9015 65.5856 18.9015 74.3612C18.9015 82.6981 25.6293 88.8411 36.3059 88.8411C48.0063 88.8411 54.1489 82.9907 54.0027 74.3612C53.8564 65.1468 47.275 59.8814 37.9147 59.8814H35.4283ZM37.9147 43.0613C45.52 43.0613 51.0776 36.9184 51.0776 29.8979C51.0776 21.7072 45.0812 16.8806 36.1596 16.8806C27.3843 16.8806 21.6804 22.2923 21.6804 29.8979C21.6804 36.9184 27.3843 43.0613 35.1358 43.0613H37.9147Z" fill="#006937"/>
</svg>
