<svg width="270" height="287" viewBox="0 0 270 287" fill="none" xmlns="http://www.w3.org/2000/svg">
<g clip-path="url(#clip0_122_917)">
<path d="M231.072 51.5832C229.986 49.7296 227.813 48.8986 225.767 49.4739L217.777 51.7111L213.942 47.1088C212.727 45.6387 210.682 45.1273 208.828 45.6387C206.974 46.2779 205.696 47.9398 205.632 49.8574L205.376 55.1627L198.984 56.9525C198.984 56.9525 198.984 56.9525 198.921 56.9525C196.428 57.6556 194.957 60.2763 195.661 62.7692C196.364 65.2621 198.984 66.7322 201.477 66.0291L204.801 65.0703L204.418 72.1654C204.29 74.1469 205.44 75.9367 207.23 76.7676C208.253 77.2151 209.403 77.279 210.426 76.9594C211.193 76.7037 211.896 76.3202 212.536 75.681L219.567 68.4581L221.165 70.3757C222.827 72.3572 225.831 72.6129 227.813 70.9509C229.794 69.289 230.05 66.2848 228.388 64.3033L226.151 61.6187L230.433 57.2082C231.903 55.738 232.159 53.4369 231.072 51.5832Z" fill="#FFFB76"/>
<path d="M44.8082 160.694C46.4063 159.288 46.8537 156.987 45.9588 155.069L42.3153 147.591L46.1506 142.989C47.3651 141.518 47.5568 139.409 46.6619 137.683C45.7031 135.957 43.8494 134.999 41.9318 135.254L36.6904 135.957L33.75 129.949C33.75 129.949 33.75 129.949 33.75 129.885C32.5994 127.584 29.7869 126.625 27.4219 127.776C25.0568 128.926 24.098 131.739 25.2486 134.104L26.7827 137.236L19.7514 138.131C17.7699 138.386 16.2358 139.857 15.7884 141.774C15.5327 142.861 15.6605 144.011 16.1719 144.97C16.5554 145.673 17.0668 146.312 17.7699 146.76L26.1435 152.321L24.5455 154.239C22.8835 156.22 23.1392 159.224 25.1847 160.886C27.1662 162.548 30.1705 162.292 31.8324 160.247L34.0696 157.562L39.1832 160.95C40.8452 162.228 43.2102 162.101 44.8082 160.694Z" fill="#F9AE16"/>
<path d="M65.4545 284.891H165.043C172.841 284.891 179.169 278.563 179.169 270.764V202.69C179.169 194.892 172.841 188.563 165.043 188.563H65.4545C57.6562 188.563 51.3281 194.892 51.3281 202.69V270.764C51.3281 278.563 57.6562 284.891 65.4545 284.891Z" fill="#ED8EA9"/>
<path d="M158.715 284.891H162.038C169.773 284.891 176.037 278.626 176.037 270.892V202.626C176.037 194.891 169.773 188.627 162.038 188.627H158.715C150.98 188.627 144.716 194.891 144.716 202.626V270.892C144.716 278.626 150.98 284.891 158.715 284.891Z" fill="#F4B3C1"/>
<path d="M87.571 0.639177C86.6122 -0.12786 85.2698 -0.19178 84.2471 0.511338L80.348 3.19597L77.4076 1.40622C76.4488 0.830937 75.2343 0.958776 74.3394 1.59797C73.4445 2.30109 73.061 3.45165 73.3806 4.53829L74.2116 7.4786L71.0795 9.65187C69.865 10.5467 69.5454 12.2087 70.4403 13.4231C71.2712 14.6376 72.9971 14.9572 74.2116 14.1263L75.8735 12.9757L77.0241 16.9387C77.3437 18.0254 78.3025 18.7924 79.4531 18.8563C80.0923 18.9202 80.7315 18.7285 81.2428 18.345C81.6264 18.0893 81.946 17.7058 82.1377 17.2583L84.5667 12.0169L85.7812 12.72C87.0596 13.4871 88.7215 13.0396 89.4886 11.7612C90.2556 10.4828 89.8082 8.82091 88.5298 8.05388L86.8039 7.03116L88.2741 3.83517C88.7855 2.74853 88.5298 1.40622 87.571 0.639177Z" fill="#91B4F9"/>
<path d="M248.075 119.978C250.476 119.978 252.422 118.032 252.422 115.631C252.422 113.23 250.476 111.284 248.075 111.284C245.675 111.284 243.729 113.23 243.729 115.631C243.729 118.032 245.675 119.978 248.075 119.978Z" fill="#91B4F9"/>
<path d="M4.41051 193.869C6.84637 193.869 8.82102 191.894 8.82102 189.458C8.82102 187.022 6.84637 185.048 4.41051 185.048C1.97465 185.048 0 187.022 0 189.458C0 191.894 1.97465 193.869 4.41051 193.869Z" fill="#91B4F9"/>
<path d="M27.9972 59.6372C30.433 59.6372 32.4077 57.6626 32.4077 55.2268C32.4077 52.7909 30.433 50.8163 27.9972 50.8163C25.5613 50.8163 23.5867 52.7909 23.5867 55.2268C23.5867 57.6626 25.5613 59.6372 27.9972 59.6372Z" fill="#B0D0C9"/>
<path d="M176.037 132.953C178.473 132.953 180.447 130.979 180.447 128.543C180.447 126.107 178.473 124.132 176.037 124.132C173.601 124.132 171.626 126.107 171.626 128.543C171.626 130.979 173.601 132.953 176.037 132.953Z" fill="#589387"/>
<path d="M98.5014 69.6087C99.737 69.6087 100.739 68.607 100.739 67.3715C100.739 66.1359 99.737 65.1343 98.5014 65.1343C97.2658 65.1343 96.2642 66.1359 96.2642 67.3715C96.2642 68.607 97.2658 69.6087 98.5014 69.6087Z" fill="#FF7391"/>
<path d="M153.729 81.3699H72.6136V187.924H153.729V81.3699Z" fill="#609FD8"/>
<path d="M153.729 109.047H72.6136V133.848H153.729V109.047Z" fill="white"/>
<path d="M225.192 140.368H198.473V284.891H225.192V140.368Z" fill="#ED8EA9"/>
<path d="M175.526 187.924H156.861V134.487C156.861 134.296 156.925 134.168 156.925 133.976V109.942C156.925 109.75 156.925 109.559 156.861 109.431V84.5659C156.861 82.8401 155.455 81.4338 153.729 81.4338H74.2117C72.4858 81.4338 71.0796 82.8401 71.0796 84.5659V108.664C70.9518 109.047 70.8239 109.431 70.8239 109.878V133.912C70.8239 134.359 70.8878 134.743 71.0796 135.126V187.924H52.4148C50.3694 187.924 48.7714 189.586 48.7714 191.568V276.965C48.7714 282.526 53.3097 287.064 58.8708 287.064H169.134C174.695 287.064 179.233 282.526 179.233 276.965V191.568C179.169 189.522 177.507 187.924 175.526 187.924ZM150.533 87.6341V106.618H77.3438V87.6341H150.533ZM150.341 113.202V130.716H77.4077V113.202H150.341ZM77.3438 137.236H150.597V187.924H77.3438V137.236ZM56.0583 276.965V195.211H110.327V279.713H58.8069C57.2728 279.713 56.0583 278.435 56.0583 276.965ZM171.882 276.965C171.882 278.499 170.668 279.713 169.134 279.713H117.614V195.211H171.882V276.965Z" fill="black"/>
<path d="M241.172 210.424C249.034 207.612 258.75 203.137 263.161 197.512C271.151 187.221 272.301 172.52 265.845 164.146C262.905 160.375 258.814 158.329 254.212 158.329C248.267 158.329 242.259 161.717 237.72 167.598C235.803 170.091 234.077 173.926 232.543 178.336V143.947C232.543 138.386 228.004 133.848 222.443 133.848H204.673C199.112 133.848 194.574 138.386 194.574 143.947V276.965C194.574 282.526 199.112 287.064 204.673 287.064H222.443C228.004 287.064 232.543 282.526 232.543 276.965V242.576C234.077 246.986 235.803 250.821 237.72 253.314C242.259 259.195 248.267 262.583 254.212 262.583C258.814 262.583 262.969 260.537 265.845 256.766C272.365 248.392 271.151 233.691 263.161 223.4C258.814 217.711 249.098 213.3 241.172 210.424ZM243.473 172.072C246.605 168.045 250.568 165.616 254.148 165.616C256.513 165.616 258.494 166.639 260.029 168.62C264.439 174.309 263.225 185.495 257.344 193.102C253.381 198.215 241.428 202.818 233.374 205.374C235.355 194.7 239.19 177.569 243.473 172.072ZM204.673 141.135H222.443C223.977 141.135 225.192 142.349 225.192 143.883V206.717H201.861V143.883C201.925 142.413 203.139 141.135 204.673 141.135ZM222.443 279.713H204.673C203.139 279.713 201.925 278.499 201.925 276.965V214.131H225.256V276.965C225.192 278.435 223.977 279.713 222.443 279.713ZM260.029 252.228C258.494 254.209 256.513 255.232 254.148 255.232C250.568 255.232 246.541 252.803 243.473 248.776C239.19 243.215 235.355 226.084 233.438 215.474C241.492 218.03 253.445 222.633 257.408 227.746C263.225 235.353 264.439 246.539 260.029 252.228Z" fill="black"/>
<path d="M111.925 54.971C113.715 54.971 115.185 53.5009 115.185 51.7111V26.5906C115.185 24.8008 113.715 23.3307 111.925 23.3307C110.135 23.3307 108.665 24.8008 108.665 26.5906V51.7111C108.601 53.5009 110.071 54.971 111.925 54.971Z" fill="black"/>
<path d="M153.665 68.2663C154.624 68.2663 155.582 67.8828 156.222 67.0518L172.138 47.6202C173.288 46.214 173.097 44.1685 171.69 43.018C170.284 41.8674 168.239 42.0592 167.088 43.4654L151.172 62.897C150.021 64.3033 150.213 66.3487 151.619 67.4993C152.195 68.0106 152.962 68.2663 153.665 68.2663Z" fill="black"/>
<path d="M172.841 96.6467C173.097 98.3086 174.503 99.4592 176.101 99.4592C176.229 99.4592 176.42 99.4592 176.548 99.3953L201.413 95.8797C203.203 95.624 204.482 93.9621 204.226 92.1723C203.97 90.3826 202.308 89.1042 200.518 89.3598L175.653 92.8754C173.864 93.195 172.585 94.8569 172.841 96.6467Z" fill="black"/>
<path d="M71.6549 67.0518C72.2941 67.8189 73.2529 68.2663 74.2117 68.2663C74.9149 68.2663 75.6819 68.0106 76.2572 67.4993C77.6634 66.3487 77.8552 64.3033 76.7046 62.897L60.8524 43.4654C59.7018 42.0592 57.6563 41.8674 56.2501 43.018C54.8438 44.1685 54.6521 46.214 55.8026 47.6202L71.6549 67.0518Z" fill="black"/>
<path d="M51.7756 99.5231C53.3736 99.5231 54.7799 98.3086 55.0356 96.7106C55.2912 94.9208 54.0128 93.2589 52.2231 93.0032L27.358 89.4877C25.5682 89.232 23.9063 90.5104 23.6506 92.3001C23.3949 94.0899 24.6733 95.7518 26.4631 96.0075L51.3282 99.5231C51.456 99.4591 51.6478 99.5231 51.7756 99.5231Z" fill="black"/>
<path d="M137.621 157.498H90.5114C89.2969 157.498 88.2742 156.476 88.2742 155.261C88.2742 154.047 89.2969 153.024 90.5114 153.024H137.621C138.835 153.024 139.858 154.047 139.858 155.261C139.858 156.476 138.835 157.498 137.621 157.498Z" fill="black"/>
</g>
<defs>
<clipPath id="clip0_122_917">
<rect width="270" height="287" fill="white"/>
</clipPath>
</defs>
</svg>
