<svg width="374" height="242" viewBox="0 0 374 242" fill="none" xmlns="http://www.w3.org/2000/svg">
<g clip-path="url(#clip0_224_877)">
<path d="M111.857 67.4896V230.542C111.857 234.896 115.402 238.448 119.749 238.448H139.878C144.225 238.448 147.77 234.896 147.77 230.542V67.4896C147.77 63.1355 144.225 59.5834 139.878 59.5834H119.749C115.402 59.5834 111.857 63.0782 111.857 67.4896Z" fill="#91B4F9"/>
<path d="M39.9163 67.4896V230.542C39.9163 234.896 43.4618 238.448 47.808 238.448H67.9377C72.2838 238.448 75.8294 234.896 75.8294 230.542V67.4896C75.8294 63.1355 72.2838 59.5834 67.9377 59.5834H47.808C43.4618 59.5834 39.9163 63.0782 39.9163 67.4896Z" fill="#FF7B94"/>
<path d="M75.8866 67.4896V230.542C75.8866 234.896 79.4322 238.448 83.7783 238.448H103.908C108.254 238.448 111.8 234.896 111.8 230.542V67.4896C111.8 63.1355 108.254 59.5834 103.908 59.5834H83.7783C79.4322 59.5834 75.8866 63.0782 75.8866 67.4896Z" fill="#EDA635"/>
<path d="M146.512 67.4896V230.542C146.512 234.896 150.058 238.448 154.404 238.448H174.533C178.88 238.448 182.425 234.896 182.425 230.542V67.4896C182.425 63.1355 178.88 59.5834 174.533 59.5834H154.404C150 59.5834 146.512 63.0782 146.512 67.4896Z" fill="#B2D3CC"/>
<path d="M185.056 74.25V223.781C185.056 231.859 191.632 238.448 199.695 238.448H294.168C302.231 238.448 308.807 231.859 308.807 223.781V74.25C308.807 66.1719 302.231 59.5834 294.168 59.5834H199.695C191.632 59.5834 185.056 66.1146 185.056 74.25Z" fill="#ADACE5"/>
<path d="M174.362 92.9844H46.8358C42.9471 92.9844 39.8019 96.1354 39.8019 100.031V121.917C39.8019 125.813 42.9471 128.964 46.8358 128.964H174.362C178.25 128.964 181.396 125.813 181.396 121.917V100.031C181.339 96.1354 178.193 92.9844 174.362 92.9844Z" fill="white"/>
<path d="M286.333 164.542H201.297C198.38 164.542 196.035 166.891 196.035 169.813V189.063C196.035 191.984 198.38 194.333 201.297 194.333H286.39C289.307 194.333 291.651 191.984 291.651 189.063V169.813C291.594 166.891 289.249 164.542 286.333 164.542Z" fill="white"/>
<path d="M8.52079 158.583C13.2267 158.583 17.0416 154.761 17.0416 150.047C17.0416 145.332 13.2267 141.51 8.52079 141.51C3.81489 141.51 0 145.332 0 150.047C0 154.761 3.81489 158.583 8.52079 158.583Z" fill="#91B4F9"/>
<path d="M249.962 33.2865C252.331 33.2865 254.251 31.3627 254.251 28.9896C254.251 26.6165 252.331 24.6927 249.962 24.6927C247.594 24.6927 245.673 26.6165 245.673 28.9896C245.673 31.3627 247.594 33.2865 249.962 33.2865Z" fill="#589387"/>
<path d="M264.145 95.7916C262.887 93.6718 260.313 92.6406 257.969 93.3281L248.647 95.9635L244.187 90.6354C242.757 88.9166 240.412 88.2864 238.239 88.9739C236.123 89.7187 234.636 91.6666 234.522 93.901L234.179 100.089L226.745 102.208H226.687C223.771 103.068 222.113 106.047 222.913 108.969C223.714 111.891 226.745 113.609 229.661 112.75L233.55 111.661L233.15 119.911C233.035 122.203 234.35 124.323 236.466 125.24C237.667 125.755 238.983 125.812 240.184 125.469C241.098 125.182 241.899 124.724 242.585 124.036L250.763 115.615L252.593 117.849C254.537 120.198 258.026 120.484 260.313 118.536C262.658 116.589 262.944 113.094 260.999 110.802L258.426 107.708L263.401 102.552C265.117 100.604 265.403 97.9114 264.145 95.7916Z" fill="white"/>
<path d="M111.685 0.916699C110.37 -0.171843 108.483 -0.286426 107.053 0.687533L101.563 4.52607L97.3887 2.06253C96.0162 1.26045 94.3578 1.37503 93.0997 2.34899C91.8416 3.32295 91.3269 4.92712 91.7844 6.47399L92.9853 10.599L88.582 13.6927C86.8664 14.8959 86.4661 17.3021 87.667 19.0209C88.8679 20.7396 91.2697 21.198 92.9853 19.9948L95.2728 18.3907L96.874 23.948C97.3315 25.4948 98.6468 26.5834 100.248 26.698C101.163 26.7552 102.021 26.5261 102.764 26.0105C103.279 25.6094 103.736 25.0938 104.022 24.5209L107.454 17.073L109.169 18.1042C110.999 19.1927 113.344 18.5625 114.43 16.7865C115.517 14.9532 114.945 12.6042 113.115 11.5157L110.713 10.0834L112.829 5.55732C113.401 3.89587 113.001 2.00524 111.685 0.916699Z" fill="#DD8178"/>
<path d="M373.028 201.896C374.171 200.578 374.343 198.688 373.371 197.255L369.711 191.583L372.342 187.458C373.199 186.141 373.085 184.479 372.227 183.161C371.312 181.901 369.711 181.328 368.167 181.672L363.992 182.76L361.019 178.234C359.875 176.458 357.473 176 355.757 177.146C353.985 178.292 353.47 180.698 354.671 182.474L356.215 184.823L350.611 186.255C349.067 186.656 347.923 187.974 347.751 189.578C347.637 190.495 347.866 191.354 348.38 192.099C348.723 192.615 349.238 193.073 349.867 193.417L357.187 197.083L356.101 198.802C354.957 200.578 355.471 202.927 357.244 204.073C359.017 205.219 361.419 204.703 362.505 202.927L364.049 200.578L368.51 202.813C369.997 203.557 371.884 203.214 373.028 201.896Z" fill="#B2D3CC"/>
<path d="M315.956 41.3072C317.214 42.3385 319.044 42.1093 320.073 40.8489L334.198 23.3177C335.228 22.0572 334.999 20.2239 333.741 19.1927C332.483 18.1614 330.653 18.3906 329.623 19.651L315.498 37.1822C314.526 38.4427 314.698 40.276 315.956 41.3072Z" fill="black"/>
<path d="M325.963 74.0781C326.65 74.5937 327.507 74.8802 328.422 74.651L350.439 70.0677C352.04 69.7239 353.07 68.177 352.727 66.5729C352.383 64.9687 350.839 63.9374 349.238 64.2812L327.221 68.8645C325.62 69.2083 324.591 70.7552 324.934 72.3593C325.105 73.0468 325.449 73.6198 325.963 74.0781Z" fill="black"/>
<path d="M285.361 37.2969C285.361 38.2136 285.818 39.0157 286.448 39.5886C286.962 39.9896 287.591 40.2188 288.335 40.2188C289.936 40.2188 291.251 38.9011 291.251 37.2396L291.08 14.724C291.08 13.1198 289.764 11.8021 288.106 11.8021C286.505 11.8021 285.189 13.1198 285.189 14.7813L285.361 37.2969Z" fill="black"/>
<path d="M13.6675 213.01C14.2966 212.495 14.4682 211.578 14.125 210.833L12.7526 207.969L14.1822 206.193C14.6397 205.62 14.6969 204.818 14.3538 204.188C14.0107 203.557 13.2672 203.156 12.5238 203.271L10.5223 203.557L9.37856 201.266C8.92106 200.406 7.89171 200.005 6.97672 200.464C6.06174 200.922 5.71862 202.01 6.17611 202.87L6.74798 204.073L4.06021 204.417C3.31678 204.531 2.68773 205.047 2.51617 205.792C2.4018 206.193 2.45898 206.651 2.68773 206.995C2.8021 207.281 3.03085 207.51 3.31678 207.682L6.51923 209.802L5.89018 210.547C5.26113 211.292 5.3755 212.438 6.11892 213.068C6.86235 213.698 8.00608 213.583 8.63513 212.839L9.49293 211.807L11.4373 213.125C12.1807 213.641 13.0385 213.583 13.6675 213.01Z" fill="#F9AE16"/>
<path d="M293.996 242H197.408C187.286 242 179.051 233.75 179.051 223.609V74.3646C179.051 64.224 187.286 55.974 197.408 55.974H293.996C304.118 55.974 312.353 64.224 312.353 74.3646V223.609C312.353 233.75 304.118 242 293.996 242ZM197.408 63.1355C191.232 63.1355 186.199 68.1771 186.199 74.3646V223.609C186.199 229.797 191.232 234.839 197.408 234.839H293.996C300.172 234.839 305.205 229.797 305.205 223.609V74.3646C305.205 68.1771 300.172 63.1355 293.996 63.1355H197.408Z" fill="black"/>
<path d="M184.77 132.401H35.856V89.5469H184.77V132.401ZM42.7183 125.526H177.907V96.4219H42.7183V125.526Z" fill="black"/>
<path d="M294.854 197.542H195.921V161.276H294.854V197.542ZM202.44 191.01H288.392V167.75H202.44V191.01Z" fill="black"/>
<path d="M266.832 149.531H224.629C222.742 149.531 221.198 147.984 221.198 146.094C221.198 144.203 222.742 142.656 224.629 142.656H266.832C268.72 142.656 270.264 144.203 270.264 146.094C270.264 147.984 268.72 149.531 266.832 149.531Z" fill="black"/>
<path d="M67.9376 241.828H47.8079C41.5746 241.828 36.485 236.729 36.485 230.484V67.4896C36.485 61.2448 41.5746 56.1459 47.8079 56.1459H67.9376C74.1709 56.1459 79.2605 61.2448 79.2605 67.4896V230.542C79.2605 236.729 74.1709 241.828 67.9376 241.828ZM47.8079 63.0209C45.3489 63.0209 43.3474 65.0261 43.3474 67.4896V230.542C43.3474 233.005 45.3489 235.01 47.8079 235.01H67.9376C70.3966 235.01 72.3981 233.005 72.3981 230.542V67.4896C72.3981 65.0261 70.3966 63.0209 67.9376 63.0209H47.8079Z" fill="black"/>
<path d="M102.593 241.828H82.4629C76.2296 241.828 71.14 236.729 71.14 230.484V67.4896C71.14 61.2448 76.2296 56.1459 82.4629 56.1459H102.593C108.826 56.1459 113.916 61.2448 113.916 67.4896V230.542C113.916 236.729 108.826 241.828 102.593 241.828ZM82.4629 63.0209C80.0039 63.0209 78.0024 65.0261 78.0024 67.4896V230.542C78.0024 233.005 80.0039 235.01 82.4629 235.01H102.593C105.052 235.01 107.053 233.005 107.053 230.542V67.4896C107.053 65.0261 105.052 63.0209 102.593 63.0209H82.4629Z" fill="black"/>
<path d="M139.135 241.828H119.005C112.772 241.828 107.682 236.729 107.682 230.484V67.4896C107.682 61.2448 112.772 56.1459 119.005 56.1459H139.135C145.368 56.1459 150.458 61.2448 150.458 67.4896V230.542C150.458 236.729 145.368 241.828 139.135 241.828ZM119.005 63.0209C116.546 63.0209 114.545 65.0261 114.545 67.4896V230.542C114.545 233.005 116.546 235.01 119.005 235.01H139.135C141.594 235.01 143.595 233.005 143.595 230.542V67.4896C143.595 65.0261 141.594 63.0209 139.135 63.0209H119.005Z" fill="black"/>
<path d="M174.533 241.828H154.404C148.17 241.828 143.081 236.729 143.081 230.484V67.4896C143.081 61.2448 148.17 56.1459 154.404 56.1459H174.533C180.767 56.1459 185.856 61.2448 185.856 67.4896V230.542C185.799 236.729 180.767 241.828 174.533 241.828ZM154.404 63.0209C151.945 63.0209 149.943 65.0261 149.943 67.4896V230.542C149.943 233.005 151.945 235.01 154.404 235.01H174.533C176.992 235.01 178.994 233.005 178.994 230.542V67.4896C178.994 65.0261 176.992 63.0209 174.533 63.0209H154.404Z" fill="black"/>
</g>
<defs>
<clipPath id="clip0_224_877">
<rect width="374" height="242" fill="white"/>
</clipPath>
</defs>
</svg>
