<svg width="283" height="227" viewBox="0 0 283 227" fill="none" xmlns="http://www.w3.org/2000/svg">
<path d="M278.093 201.904L207.736 53.0034C205.847 49.0296 201.234 47.3934 197.455 49.3803L179.949 58.5551C176.17 60.5419 174.614 65.3923 176.504 69.3661L246.861 218.325C248.75 222.299 253.363 223.935 257.142 221.948L274.648 212.773C278.427 210.728 279.983 205.878 278.093 201.904Z" fill="#416D61"/>
<path d="M223.995 169.102L242.716 208.721L273.973 192.39L255.252 152.771L223.995 169.102Z" fill="#B2D3CC"/>
<path d="M28.5096 146.212H186.674C190.897 146.212 194.343 142.589 194.343 138.148V117.577C194.343 113.136 190.897 109.513 186.674 109.513H28.5096C24.2859 109.513 20.8403 113.136 20.8403 117.577V138.148C20.8959 142.589 24.2859 146.212 28.5096 146.212Z" fill="#ADACE5"/>
<path d="M170.724 109.572H128.654V146.271H170.724V109.572Z" fill="white"/>
<path d="M268.146 63.0547C267.59 62.1197 266.534 61.6521 265.478 61.9443L261.477 63.1131L259.587 60.7171C258.976 59.9574 257.975 59.6652 257.031 59.9574C256.141 60.308 255.475 61.1846 255.419 62.1781L255.308 64.9831L252.085 65.9182C250.862 66.2688 250.139 67.6713 250.473 68.957C250.806 70.3011 252.14 71.0608 253.363 70.6517L255.03 70.1842L254.863 73.9243C254.808 74.9762 255.363 75.9112 256.253 76.3202C256.753 76.554 257.309 76.6124 257.864 76.4371C258.253 76.3202 258.587 76.0865 258.92 75.7943L262.421 71.9958L263.199 72.9892C264.033 74.0411 265.534 74.158 266.534 73.2814C267.534 72.4049 267.645 70.827 266.812 69.7751L265.7 68.3726L267.812 66.035C268.535 65.2753 268.701 64.0481 268.146 63.0547Z" fill="#FFFB76"/>
<path d="M81.8608 36.2899C80.5826 35.1796 78.7486 35.0627 77.3593 36.0562L72.0241 39.9715L67.9672 37.4587C66.6334 36.6406 65.0218 36.7574 63.7991 37.7509C62.5765 38.7443 62.0763 40.3806 62.5209 41.9584L63.688 46.166L59.4088 49.3217C57.7415 50.5489 57.3525 53.0033 58.5196 54.7564C59.6866 56.5096 62.0208 56.9771 63.688 55.7499L65.911 54.1136L67.467 59.7821C67.9116 61.36 69.1898 62.4703 70.7459 62.5872C71.6351 62.6456 72.4687 62.4119 73.1912 61.8859C73.6914 61.4769 74.136 60.9509 74.4138 60.3665L77.7483 52.7695L79.4155 53.8214C81.1939 54.9318 83.4724 54.2889 84.5284 52.4773C85.5843 50.6073 85.0285 48.2113 83.2501 47.101L80.916 45.6401L82.9723 41.0234C83.5836 39.3287 83.1946 37.4587 81.8608 36.2899Z" fill="#91B4F9"/>
<path d="M198.844 28.9851C200.401 28.9851 201.679 27.641 201.679 26.0048V2.98032C201.679 1.34407 200.401 0 198.844 0C197.288 0 196.01 1.34407 196.01 2.98032V25.9463C196.01 27.641 197.288 28.9851 198.844 28.9851Z" fill="black"/>
<path d="M235.134 41.082C235.968 41.082 236.802 40.7314 237.357 39.9717L251.195 22.2065C252.196 20.9209 252.029 19.0508 250.806 17.9989C249.584 16.9471 247.805 17.1224 246.805 18.408L232.967 36.2317C231.967 37.5173 232.133 39.3873 233.356 40.4392C233.912 40.9067 234.523 41.082 235.134 41.082Z" fill="black"/>
<path d="M163.888 40.0301C164.444 40.7313 165.278 41.1404 166.111 41.1404C166.723 41.1404 167.389 40.9066 167.89 40.4391C169.112 39.3872 169.279 37.5172 168.279 36.2316L154.441 18.4664C153.44 17.1807 151.662 17.0054 150.439 18.0573C149.217 19.1092 149.05 20.9792 150.05 22.2648L163.888 40.0301Z" fill="black"/>
<path d="M146.605 69.6582C147.994 69.6582 149.217 68.5479 149.439 67.0869C149.662 65.4507 148.55 63.9313 146.994 63.6975L125.376 60.4834C123.82 60.2496 122.375 61.4184 122.152 63.0547C121.93 64.691 123.042 66.2103 124.598 66.4441L146.216 69.6582C146.327 69.6582 146.438 69.6582 146.605 69.6582Z" fill="black"/>
<path d="M11.2259 220.545H169.39C173.614 220.545 177.059 216.922 177.059 212.481V191.911C177.059 187.47 173.614 183.846 169.39 183.846H11.2259C7.00224 183.846 3.55664 187.47 3.55664 191.911V212.481C3.55664 216.922 7.00224 220.545 11.2259 220.545Z" fill="#B2D3CC"/>
<path d="M149.661 183.846H107.592V220.545H149.661V183.846Z" fill="#F9AE16"/>
<path d="M11.2259 183.846H169.39C173.614 183.846 177.059 180.223 177.059 175.782V155.212C177.059 150.77 173.614 147.147 169.39 147.147H11.2259C7.00224 147.147 3.55664 150.77 3.55664 155.212V175.782C3.55664 180.223 7.00224 183.846 11.2259 183.846Z" fill="#609FD8"/>
<path d="M213.961 207.631C214.961 206.696 215.239 205.235 214.628 204.007L212.405 199.216L214.739 196.235C215.517 195.3 215.572 193.956 215.072 192.846C214.516 191.735 213.349 191.151 212.182 191.268L208.959 191.735L207.181 187.879C206.458 186.359 204.735 185.775 203.29 186.476C201.845 187.236 201.234 189.047 201.957 190.567L202.901 192.612L198.567 193.196C197.344 193.372 196.399 194.307 196.121 195.534C195.955 196.235 196.066 196.995 196.344 197.579C196.566 198.047 196.899 198.456 197.344 198.748L202.512 202.371L201.512 203.598C200.512 204.884 200.678 206.812 201.901 207.864C203.124 208.916 204.958 208.741 205.958 207.455L207.347 205.702L210.515 207.923C211.515 208.624 212.96 208.566 213.961 207.631Z" fill="#F9AE16"/>
<path d="M169.168 224.052H11.0037C4.94611 224.052 0 218.851 0 212.481V191.911C0 185.541 4.94611 180.34 11.0037 180.34H169.168C175.226 180.34 180.172 185.541 180.172 191.911V212.481C180.116 218.851 175.226 224.052 169.168 224.052ZM11.0037 187.353C8.614 187.353 6.66891 189.398 6.66891 191.911V212.481C6.66891 214.994 8.614 217.039 11.0037 217.039H169.168C171.558 217.039 173.503 214.994 173.503 212.481V191.911C173.503 189.398 171.558 187.353 169.168 187.353H11.0037Z" fill="black"/>
<path d="M169.168 187.353H11.0037C4.94611 187.353 0 182.152 0 175.782V155.212C0 148.842 4.94611 143.641 11.0037 143.641H169.168C175.226 143.641 180.172 148.842 180.172 155.212V175.782C180.116 182.152 175.226 187.353 169.168 187.353ZM11.0037 150.653C8.614 150.653 6.66891 152.699 6.66891 155.212V175.782C6.66891 178.295 8.614 180.34 11.0037 180.34H169.168C171.558 180.34 173.503 178.295 173.503 175.782V155.212C173.503 152.699 171.558 150.653 169.168 150.653H11.0037Z" fill="black"/>
<path d="M186.674 149.719H28.5096C22.452 149.719 17.5059 144.518 17.5059 138.148V117.578C17.5059 111.208 22.452 106.007 28.5096 106.007H186.674C192.731 106.007 197.677 111.208 197.677 117.578V138.148C197.677 144.518 192.731 149.719 186.674 149.719ZM28.5096 113.078C26.1199 113.078 24.1748 115.123 24.1748 117.636V138.206C24.1748 140.719 26.1199 142.764 28.5096 142.764H186.674C189.063 142.764 191.009 140.719 191.009 138.206V117.636C191.009 115.123 189.063 113.078 186.674 113.078H28.5096Z" fill="black"/>
<path d="M152.996 224.052H104.257V180.34H152.996V224.052ZM110.926 217.039H146.327V187.353H110.926V217.039Z" fill="black"/>
<path d="M174.058 149.719H125.32V106.007H174.058V149.719ZM131.989 142.706H167.39V113.019H131.989V142.706Z" fill="black"/>
<path d="M254.03 226.214C252.863 226.214 251.64 226.039 250.529 225.63C247.75 224.636 245.471 222.591 244.193 219.844L173.836 70.8851C171.113 65.1582 173.336 58.204 178.782 55.399L196.288 46.2242C201.734 43.3607 208.348 45.6982 211.015 51.4252L281.372 200.384C282.706 203.131 282.873 206.287 281.928 209.209C280.983 212.13 279.038 214.526 276.426 215.871L258.92 224.987C257.364 225.805 255.697 226.214 254.03 226.214ZM201.179 52.0096C200.512 52.0096 199.9 52.1849 199.289 52.4771L181.728 61.6519C180.672 62.1778 179.894 63.1128 179.56 64.2816C179.171 65.4504 179.282 66.6776 179.783 67.7295L250.14 216.689C250.64 217.799 251.529 218.617 252.64 218.968C253.752 219.377 254.919 219.26 255.919 218.734L273.425 209.559C274.481 209.033 275.259 208.098 275.593 206.929C275.982 205.761 275.87 204.533 275.37 203.482L205.069 54.5224C204.291 52.9446 202.79 52.0096 201.179 52.0096Z" fill="black"/>
<path d="M240.858 212.773L219.185 166.899L256.364 147.44L278.038 193.313L240.858 212.773ZM228.132 170.055L243.859 203.365L269.146 190.158L253.418 156.848L228.132 170.055Z" fill="black"/>
<path d="M71.4127 167.718H30.3989C28.565 167.718 27.0645 166.14 27.0645 164.211C27.0645 162.283 28.565 160.705 30.3989 160.705H71.4127C73.2467 160.705 74.7472 162.283 74.7472 164.211C74.7472 166.14 73.2467 167.718 71.4127 167.718Z" fill="black"/>
</svg>
