<svg width="41" height="41" viewBox="0 0 41 41" fill="none" xmlns="http://www.w3.org/2000/svg">
<path fill-rule="evenodd" clip-rule="evenodd" d="M0 20.5C0 9.17816 9.17817 0 20.5 0C31.8218 0 41 9.17816 41 20.5C41 31.8218 31.8218 41 20.5 41C9.17817 41 0 31.8218 0 20.5ZM3.82964 18.6364H11.2752C11.693 13.4868 13.4165 8.5437 16.2615 4.26742C9.63278 5.99341 4.59947 11.6724 3.82964 18.6364ZM20.5 4.75377C17.3883 8.7627 15.4846 13.58 15.0164 18.6364H25.9836C25.5154 13.58 23.6117 8.7627 20.5 4.75377ZM25.9836 22.3636C25.5154 27.42 23.6117 32.2373 20.5 36.2462C17.3883 32.2373 15.4846 27.42 15.0164 22.3636H25.9836ZM11.2752 22.3636H3.82964C4.59947 29.3276 9.63277 35.0066 16.2615 36.7326C13.4165 32.4563 11.693 27.5132 11.2752 22.3636ZM24.7385 36.7326C27.5835 32.4563 29.307 27.5132 29.7248 22.3636H37.1704C36.4005 29.3276 31.3672 35.0066 24.7385 36.7326ZM37.1704 18.6364H29.7248C29.307 13.4868 27.5835 8.5437 24.7385 4.26742C31.3672 5.99341 36.4005 11.6724 37.1704 18.6364Z" fill="white"/>
</svg>
