<svg width="43" height="43" viewBox="0 0 43 43" fill="none" xmlns="http://www.w3.org/2000/svg">
<rect width="42.5" height="42.6575" rx="2" fill="#B5B2EB" fill-opacity="0.3"/>
<path d="M21.25 30.4075C19.1614 30.4075 17.1584 29.5778 15.6815 28.101C14.2047 26.6241 13.375 24.6211 13.375 22.5325C13.375 20.4439 14.2047 18.4409 15.6815 16.964C17.1584 15.4872 19.1614 14.6575 21.25 14.6575C23.3386 14.6575 25.3416 15.4872 26.8185 16.964C28.2953 18.4409 29.125 20.4439 29.125 22.5325C29.125 24.6211 28.2953 26.6241 26.8185 28.101C25.3416 29.5778 23.3386 30.4075 21.25 30.4075ZM21.25 12.4075C18.5647 12.4075 15.9894 13.4742 14.0905 15.373C12.1917 17.2718 11.125 19.8472 11.125 22.5325C11.125 25.2178 12.1917 27.7931 14.0905 29.692C15.9894 31.5908 18.5647 32.6575 21.25 32.6575C23.9353 32.6575 26.5107 31.5908 28.4095 29.692C30.3083 27.7931 31.375 25.2178 31.375 22.5325C31.375 19.8472 30.3083 17.2718 28.4095 15.373C26.5107 13.4742 23.9353 12.4075 21.25 12.4075ZM21.8125 16.9075H20.125V23.6575L25.4688 26.8638L26.3125 25.48L21.8125 22.8138V16.9075ZM16.615 11.7213L15.175 10L10 14.3312L11.4513 16.0525L16.615 11.7213ZM32.5 14.3425L27.325 10L25.8738 11.7213L31.0488 16.0637L32.5 14.3425Z" fill="#A7A3EE"/>
</svg>
