<svg width="42" height="42" viewBox="0 0 42 42" fill="none" xmlns="http://www.w3.org/2000/svg">
<rect width="42" height="42" rx="2" fill="#76A5B3" fill-opacity="0.3"/>
<path d="M13.438 11L13.156 11.47C13.156 11.47 10 16.652 10 25V26H16.094C16.0287 26.3293 15.9972 26.6643 16 27C16 29.75 18.25 32 21 32C23.75 32 26 29.75 26 27C26 26.656 25.973 26.325 25.906 26H32V25C32 20.39 31.224 17.01 30.437 14.78C29.651 12.552 28.812 11.406 28.812 11.406L28.5 11H13.438ZM14.656 13H27.376C27.521 13.208 27.949 13.732 28.562 15.47C29.212 17.31 29.794 20.2 29.906 24H25C24.085 22.79 22.624 22 21 22C19.376 22 17.915 22.79 17 24H12.094C12.322 17.35 14.326 13.57 14.656 13ZM20 15V17H18V19H20V21H22V19H24V17H22V15H20ZM21 24C22.67 24 24 25.33 24 27C24 28.67 22.67 30 21 30C19.33 30 18 28.67 18 27C18 25.33 19.33 24 21 24ZM21 26C20.7348 26 20.4804 26.1054 20.2929 26.2929C20.1054 26.4804 20 26.7348 20 27C20 27.2652 20.1054 27.5196 20.2929 27.7071C20.4804 27.8946 20.7348 28 21 28C21.2652 28 21.5196 27.8946 21.7071 27.7071C21.8946 27.5196 22 27.2652 22 27C22 26.7348 21.8946 26.4804 21.7071 26.2929C21.5196 26.1054 21.2652 26 21 26Z" fill="#76A5B3"/>
</svg>
