<svg width="255" height="169" viewBox="0 0 255 169" fill="none" xmlns="http://www.w3.org/2000/svg">
<path d="M1.21851 20.9838L27.3982 1.38477H39.5373V104.06H22.718V25.3716L10.1401 34.8786L1.21851 20.9838Z" fill="#006937"/>
<path d="M78.2956 21.8613C88.241 10.5992 100.234 2.99358 111.788 0.0683594L118.662 12.7931C101.111 18.0585 86.4859 31.3683 81.367 50.236C85.9009 43.9467 92.9212 40.729 102.428 40.729C110.472 40.729 117.2 43.6542 122.757 49.5047C128.315 55.3551 131.094 62.8144 131.094 72.0289C131.094 82.2672 127.73 90.4578 121.148 96.6008C114.567 102.597 106.815 105.669 98.0401 105.669C86.9247 105.669 78.0031 102.012 71.4217 94.6994C64.8402 87.3863 61.4763 78.4644 61.4763 67.7873C61.4763 49.7972 68.3503 32.9771 78.2956 21.8613ZM98.1863 88.8489C107.108 88.8489 113.251 81.8284 113.251 73.199C113.251 63.3995 107.254 56.3789 96.7238 56.3789C88.3873 56.3789 82.3908 61.4981 79.3194 67.9336C79.3194 80.0732 86.3397 88.8489 98.1863 88.8489Z" fill="#006937"/>
<path d="M14.2836 160.128V145.112H5.87393V160.128H0.828125V140.383H19.3538V160.128H14.2836Z" fill="#006937"/>
<path d="M24.9355 168.903V140.382H29.9813V142.259C31.2489 140.894 33.6377 139.895 36.0753 139.895C38.7566 139.895 40.9505 140.821 42.5837 142.698C44.2168 144.575 45.0456 146.988 45.0456 149.938C45.0456 153.009 44.0706 155.544 42.1449 157.568C40.2192 159.591 37.7085 160.59 34.5884 160.59C32.6139 160.59 31.0783 160.274 29.9813 159.615V168.879H24.9355V168.903ZM30.0057 146.793V154.789C31.2001 155.544 32.5408 155.935 34.174 155.935C37.5622 155.935 39.7073 153.472 39.7073 150.108C39.7073 146.915 37.8304 144.672 34.5153 144.672C32.8089 144.624 31.2733 145.331 30.0057 146.793Z" fill="#006937"/>
<path d="M66.3738 158.153C64.4481 159.786 61.9374 160.615 58.8173 160.615C55.6241 160.615 53.0646 159.64 51.0902 157.763C49.1645 155.886 48.1895 153.375 48.1895 150.255C48.1895 147.305 49.1645 144.867 51.0414 142.869C52.9184 140.87 55.4778 139.895 58.6467 139.895C61.2305 139.895 63.4731 140.772 65.2769 142.478C67.0807 144.185 68.007 146.379 68.007 149.06C68.007 150.157 67.9095 151.084 67.6901 151.79H53.4303C53.8203 154.74 56.1847 156.398 59.3536 156.398C61.5962 156.398 63.4244 155.788 64.9357 154.594L66.3738 158.153ZM53.2596 148.402H62.9612C63.01 145.94 61.2549 144.112 58.4517 144.112C55.5753 144.112 53.8203 145.55 53.2596 148.402Z" fill="#006937"/>
<path d="M69.0801 164.735V155.423H71.5908C73.1265 153.351 74.0528 149.939 74.3453 145.112L74.6621 140.383H89.2389V155.448H92.5296V164.76H87.8007V160.152H73.809V164.76H69.0801V164.735ZM79.2204 147.135C78.8792 150.962 78.0748 153.717 76.856 155.423H84.1931V145.112H79.3667L79.2204 147.135Z" fill="#006937"/>
<path d="M109.326 160.128V145.112H100.892V160.128H95.8457V140.383H114.371V160.128H109.326Z" fill="#006937"/>
<path d="M119.977 168.903V140.382H125.022V142.259C126.29 140.894 128.679 139.895 131.116 139.895C133.798 139.895 135.991 140.821 137.625 142.698C139.258 144.575 140.087 146.988 140.087 149.938C140.087 153.009 139.112 155.544 137.186 157.568C135.26 159.591 132.75 160.59 129.629 160.59C127.655 160.59 126.119 160.274 125.022 159.615V168.879H119.977V168.903ZM125.022 146.793V154.789C126.217 155.544 127.557 155.935 129.191 155.935C132.579 155.935 134.724 153.472 134.724 150.108C134.724 146.915 132.847 144.672 129.532 144.672C127.85 144.624 126.314 145.331 125.022 146.793Z" fill="#006937"/>
<path d="M149.52 160.128H144.475V140.383H149.52V152.888L158.734 140.383H163.78V160.128H158.734V147.623L149.52 160.128Z" fill="#006937"/>
<path d="M185.499 140.383V160.128H180.453V154.204H177.65L173.579 160.128H167.777L173.043 153.108C171.068 152.401 169.216 150.377 169.216 147.403C169.216 143.235 172.336 140.383 179.039 140.383H185.499ZM177.82 150.475H180.453V144.771H178.21C175.919 144.771 174.603 146.136 174.603 147.745C174.603 149.329 176.187 150.475 177.82 150.475Z" fill="#006937"/>
<path d="M189.033 145.429V140.383H207.023V145.429H200.563V160.128H195.517V145.429H189.033Z" fill="#006937"/>
<path d="M215.677 160.128H210.631V140.383H215.677V152.888L224.891 140.383H229.937V160.128H224.891V147.623L215.677 160.128Z" fill="#006937"/>
<path d="M240.589 160.128H235.543V140.382H240.589V152.888L249.803 140.382H254.849V160.128H249.803V147.622L240.589 160.128ZM243.1 130.51C243.1 132.314 243.807 133.703 245.391 133.703C246.805 133.703 247.487 132.289 247.487 130.51H252.094C252.094 134.508 249.632 137.311 245.391 137.311C240.687 137.311 238.493 134.581 238.493 130.51H243.1Z" fill="#006937"/>
</svg>
