<svg width="251" height="161" viewBox="0 0 251 161" fill="none" xmlns="http://www.w3.org/2000/svg">
<path d="M0.947266 145.427V140.381H18.9367V145.427H12.4771V160.126H7.43125V145.427H0.947266Z" fill="#006937"/>
<path d="M22.5449 160.126V140.381H27.5907V145.768H30.0527C36.2442 145.768 38.7305 148.62 38.7305 152.618C38.7305 156.884 35.9272 160.126 29.6382 160.126H22.5449ZM27.5907 149.815V155.738H29.5652C32.1003 155.738 33.3922 154.763 33.3922 152.789C33.3922 150.814 32.1245 149.815 29.6138 149.815H27.5907ZM41.5337 160.126V140.381H46.5795V160.126H41.5337Z" fill="#006937"/>
<path d="M69.5412 157.177C67.908 159.419 64.983 160.589 61.6922 160.589C58.499 160.589 55.8908 159.614 53.9163 157.737C51.9419 155.86 50.9668 153.35 50.9668 150.229C50.9668 147.28 51.9418 144.842 53.8675 142.843C55.7932 140.869 58.2552 139.869 61.2047 139.869C64.7148 139.869 67.3474 140.747 69.1512 142.551L66.7867 146.548C65.4704 145.281 63.8373 144.623 61.8629 144.623C60.4247 144.623 59.1084 145.159 58.0115 146.207C56.9145 147.207 56.3783 148.572 56.3783 150.254C56.3783 151.96 56.9389 153.325 58.0359 154.373C59.1815 155.373 60.5465 155.909 62.0822 155.909C64.0079 155.909 65.7386 155.129 67.1768 153.496L69.5412 157.177Z" fill="#006937"/>
<path d="M76.8288 153.594C78.6326 153.594 80.022 155.227 80.022 156.836C80.022 158.713 78.6082 160.346 76.8288 160.346C74.7325 160.346 73.3187 158.713 73.3187 156.836C73.2943 155.203 74.7081 153.594 76.8288 153.594Z" fill="#006937"/>
<path d="M108.225 140.381V160.126H103.18V153.325C101.741 154.081 100.108 154.471 98.2556 154.471C93.3073 154.471 91.1135 151.838 91.1135 146.694V140.381H96.5005V146.085C96.5005 148.498 97.5486 149.717 99.6937 149.717C101.108 149.717 102.229 149.449 103.155 148.937V140.381H108.225Z" fill="#006937"/>
<path d="M130.798 158.151C128.872 159.784 126.361 160.613 123.241 160.613C120.048 160.613 117.488 159.638 115.514 157.761C113.588 155.884 112.613 153.373 112.613 150.253C112.613 147.303 113.588 144.865 115.465 142.867C117.342 140.868 119.902 139.893 123.07 139.893C125.654 139.893 127.897 140.77 129.701 142.477C131.505 144.183 132.431 146.377 132.431 149.058C132.431 150.155 132.333 151.082 132.114 151.788H117.854C118.244 154.738 120.608 156.396 123.777 156.396C126.02 156.396 127.848 155.786 129.359 154.592L130.798 158.151ZM117.659 148.4H127.361C127.409 145.938 125.654 144.11 122.851 144.11C119.999 144.11 118.244 145.548 117.659 148.4Z" fill="#006937"/>
<path d="M148.861 160.127V145.428H143.644L143.522 147.524C142.377 158.323 140.11 160.468 134.601 160.517L134.162 155.593C134.82 155.642 135.381 155.471 135.966 155.057C137.16 154.179 138.33 151.23 138.647 146.5L138.964 140.357H153.931V160.103H148.861V160.127Z" fill="#006937"/>
<path d="M3.43359 20.9838L29.6132 1.38477H41.7525V104.06H24.9331V25.3716L12.3552 34.8786L3.43359 20.9838Z" fill="#006937"/>
<path d="M60.3262 88.4101L69.8327 76.1242C75.5366 84.6073 82.8494 88.8489 91.7709 88.8489C102.301 88.8489 108.298 82.8522 108.298 74.6616C108.298 65.3009 101.131 60.1817 89.2847 60.1817H81.9719V43.3617H88.5534C97.3287 43.3617 104.349 37.6575 104.349 29.3206C104.349 21.715 99.9612 16.8884 91.3322 16.8884C83.4344 16.8884 76.9992 20.5449 72.0265 27.858L62.6663 16.0108C68.3703 5.33376 78.4618 0.0683594 92.9411 0.0683594C110.638 0.0683594 122.338 10.1604 122.338 26.1029C122.338 37.6575 117.073 45.8481 106.689 50.3822V50.821C119.121 53.0149 126.287 62.8144 126.287 75.2466C126.287 84.4611 123.07 91.9204 116.781 97.4783C110.492 102.89 102.448 105.669 92.7948 105.669C77.5843 105.669 65.7376 99.0872 60.3262 88.4101Z" fill="#006937"/>
<path d="M152.76 84.0215C160.511 84.0215 165.63 90.8958 165.63 100.403C165.63 112.689 158.756 121.903 147.056 125.267L142.522 117.369C146.763 115.76 149.835 113.274 151.443 109.617C152.906 106.546 153.345 104.352 152.76 102.889C152.175 103.62 150.858 104.059 148.957 104.059C145.008 104.059 141.498 99.964 141.498 94.6986C141.498 88.4093 145.739 84.0215 152.76 84.0215Z" fill="#006937"/>
<path d="M220.475 104.061V80.3663H173.674V67.9341L213.163 1.67773H232.468L195.466 63.5462H220.475V38.243H237.295V63.5462H250.458V80.3663H237.295V104.061H220.475Z" fill="#006937"/>
</svg>
