<svg width="135" height="106" viewBox="0 0 135 106" fill="none" xmlns="http://www.w3.org/2000/svg">
<path d="M0.667969 100.494V88.1055H3.8337L8.48919 93.2751L12.9077 88.1055H15.9888V100.494H12.4845V92.9233L8.43841 97.5423H8.35378L4.1723 92.9233V100.494H0.667969Z" fill="#006937"/>
<path d="M28.9062 100.493V91.2706H25.2833L25.1987 92.586C24.403 99.3615 22.8286 100.707 19.0026 100.738L18.6979 97.6485C19.155 97.6791 19.5444 97.5721 19.9507 97.312C20.7802 96.7614 21.5928 94.9108 21.8129 91.9436L22.0329 88.0894H32.4274V100.478H28.9062V100.493Z" fill="#006937"/>
<path d="M36.3209 105.999V88.1047H39.8253V89.2824C40.7056 88.4259 42.3646 87.7988 44.0575 87.7988C45.9197 87.7988 47.4434 88.38 48.5776 89.5577C49.7119 90.7354 50.2874 92.2496 50.2874 94.1002C50.2874 96.0274 49.6102 97.618 48.2728 98.8875C46.9354 100.157 45.1918 100.784 43.0249 100.784C41.6536 100.784 40.5871 100.585 39.8253 100.172V105.984H36.3209V105.999ZM39.8253 92.1272V97.1439C40.6548 97.618 41.5859 97.8627 42.7201 97.8627C45.0733 97.8627 46.563 96.318 46.563 94.2073C46.563 92.2037 45.2595 90.7966 42.9571 90.7966C41.7721 90.766 40.7056 91.2095 39.8253 92.1272Z" fill="#006937"/>
<path d="M51.2527 103.385V97.5423H52.9964C54.0629 96.2422 54.7062 94.101 54.9094 91.0726L55.1295 88.1055H65.253V97.5576H67.5384V103.4H64.2542V100.509H54.5369V103.4H51.2527V103.385ZM58.2782 92.3421C58.0412 94.7434 57.4826 96.4717 56.6361 97.5423H61.7318V91.0726H58.3798L58.2782 92.3421Z" fill="#006937"/>
<path d="M71.6851 96.394C72.9379 96.394 73.9028 97.4188 73.9028 98.4282C73.9028 99.6059 72.9209 100.631 71.6851 100.631C70.2292 100.631 69.2473 99.6059 69.2473 98.4282C69.2473 97.4035 70.2292 96.394 71.6851 96.394Z" fill="#006937"/>
<path d="M82.4524 105.999V88.1047H85.9567V89.2824C86.837 88.4259 88.4961 87.7988 90.189 87.7988C92.0512 87.7988 93.5748 88.38 94.7091 89.5577C95.8433 90.7354 96.4189 92.2496 96.4189 94.1002C96.4189 96.0274 95.7417 97.618 94.4043 98.8875C93.0669 100.157 91.3233 100.784 89.1563 100.784C87.7851 100.784 86.7185 100.585 85.9567 100.172V105.984H82.4524V105.999ZM85.9567 92.1272V97.1439C86.7862 97.618 87.7173 97.8627 88.8516 97.8627C91.2047 97.8627 92.6945 96.318 92.6945 94.2073C92.6945 92.2037 91.391 90.7966 89.0886 90.7966C87.9036 90.766 86.837 91.2095 85.9567 92.1272Z" fill="#006937"/>
<path d="M112.13 88.1055L106.729 100.494C105.747 102.635 104.867 104.104 104.105 104.838C103.343 105.603 102.463 106 101.43 106C100.432 106 99.4497 105.664 98.4678 105.037L99.602 102.635C100.144 102.941 100.635 103.079 101.041 103.079C101.871 103.079 102.565 102.452 103.14 101.152L103.445 100.494L97.0966 88.1055H101.312L104.511 94.881C104.63 95.1563 104.85 95.7681 105.189 96.6705C105.341 95.8752 105.527 95.2634 105.68 94.8504L108.151 88.1055H112.13V88.1055Z" fill="#006937"/>
<path d="M126.366 83.501C125.841 84.0822 125.232 84.4645 124.537 84.7093C123.843 84.9234 123.048 85.1222 122.1 85.321C121.186 85.4893 120.39 85.7034 119.73 86.0093C118.02 86.7281 117.055 88.2729 116.767 90.6283H116.835C117.681 89.2824 119.662 88.3188 121.643 88.3188C123.539 88.3188 125.062 88.8694 126.18 89.9706C127.314 91.0718 127.889 92.5554 127.889 94.4061C127.889 96.1956 127.212 97.7097 125.875 98.9486C124.537 100.187 122.794 100.799 120.695 100.799C118.409 100.799 116.581 100.08 115.243 98.6733C113.94 97.2662 113.263 95.3391 113.263 92.9378C113.263 87.6305 115.006 84.3116 118.443 82.9657C119.205 82.6598 120.068 82.4456 120.949 82.308C122.743 81.9715 123.691 81.788 124.554 80.9009L126.366 83.501ZM120.593 97.8474C122.76 97.8474 124.131 96.4097 124.131 94.5437C124.131 92.6472 122.912 91.2707 120.745 91.2707C118.883 91.2707 117.478 92.2648 117.004 93.6107C117.038 96.0579 118.443 97.8474 120.593 97.8474Z" fill="#006937"/>
<path d="M132.782 96.394C134.035 96.394 135 97.4188 135 98.4282C135 99.6059 134.018 100.631 132.782 100.631C131.326 100.631 130.344 99.6059 130.344 98.4282C130.344 97.4035 131.326 96.394 132.782 96.394Z" fill="#006937"/>
<path d="M14.9561 13.7418C21.8631 6.67566 30.1923 1.90372 38.2167 0.0683594L42.9906 8.05218C30.8017 11.3558 20.6443 19.7067 17.0892 31.5448C20.238 27.5988 25.1135 25.5799 31.7158 25.5799C37.3024 25.5799 41.9749 27.4152 45.8347 31.086C49.6946 34.7567 51.6245 39.4368 51.6245 45.2182C51.6245 51.642 49.2883 56.781 44.7174 60.6353C40.1466 64.3977 34.7631 66.3249 28.6686 66.3249C20.949 66.3249 14.7529 64.0307 10.1821 59.4423C5.61121 54.8539 3.27502 49.256 3.27502 42.557C3.27502 31.2695 8.04901 20.7162 14.9561 13.7418ZM28.7702 55.7715C34.9662 55.7715 39.2324 51.3667 39.2324 45.9524C39.2324 39.8039 35.0678 35.3991 27.7544 35.3991C21.9647 35.3991 17.8002 38.6109 15.6671 42.6487C15.6671 50.2655 20.5427 55.7715 28.7702 55.7715Z" fill="#006937"/>
<path d="M68.0794 52.7427C73.4628 52.7427 77.0179 57.0558 77.0179 63.0207C77.0179 70.7292 72.244 76.5106 64.118 78.6213L60.9692 73.6658C63.9148 72.6563 66.0479 71.0963 67.1652 68.8021C68.181 66.875 68.4857 65.4984 68.0794 64.5808C67.6731 65.0396 66.7589 65.3149 65.4385 65.3149C62.696 65.3149 60.2582 62.7454 60.2582 59.4417C60.2582 55.4957 63.2038 52.7427 68.0794 52.7427Z" fill="#006937"/>
<path d="M84.8397 65.316V56.8733C93.4735 49.2566 99.0602 44.0258 101.803 41.181C110.233 32.463 114.398 25.2134 114.398 19.2485C114.398 14.0177 111.147 10.8976 105.358 10.8976C100.381 10.8976 96.6224 14.0177 95.0987 19.5238L85.3476 15.5777C87.2775 6.12562 95.4035 0.344238 106.678 0.344238C113.077 0.344238 117.953 1.99606 121.508 5.29971C125.063 8.60336 126.79 12.5494 126.79 17.1378C126.79 20.5332 125.977 24.0204 124.454 27.6911C122.93 31.2701 121.102 34.4819 119.07 37.1432C117.039 39.8045 114.601 42.5575 111.655 45.4023C108.811 48.2471 106.577 50.266 104.951 51.6426C103.428 52.9273 101.701 54.2121 99.9743 55.4968H129.532V65.316H84.8397Z" fill="#006937"/>
</svg>
