<svg width="256" height="169" viewBox="0 0 256 169" fill="none" xmlns="http://www.w3.org/2000/svg">
<path d="M16.0052 1.67773H64.4156V18.4978H30.777L27.8519 38.8281C30.0457 38.3893 31.947 38.243 33.7021 38.243C42.9161 38.243 50.6677 41.1683 56.6641 47.165C62.8068 53.1617 65.8782 61.0598 65.8782 70.8593C65.8782 81.5364 62.5143 90.0195 55.7866 96.3087C49.0589 102.598 40.7223 105.669 30.6307 105.669C24.9268 105.669 19.2228 104.353 13.5189 101.867C7.96119 99.234 3.71979 95.5774 0.648438 91.0433L10.3013 78.3186C14.5426 84.6078 23.318 88.8494 31.0695 88.8494C40.8686 88.8494 47.8888 81.6826 47.8888 71.5906C47.8888 61.0598 39.5523 53.4542 26.0968 53.4542C18.9303 53.4542 13.3726 54.3318 9.27747 56.0869L16.0052 1.67773Z" fill="#006937"/>
<path d="M78.0176 104.061V90.6047C90.4493 78.465 98.4933 70.1282 102.442 65.5941C114.581 51.6992 120.578 40.1446 120.578 30.6376C120.578 22.3007 115.898 17.3279 107.561 17.3279C100.395 17.3279 94.9832 22.3007 92.7893 31.0764L78.7489 24.7872C81.5277 9.72227 93.2281 0.507812 109.462 0.507812C118.677 0.507812 125.697 3.14051 130.816 8.40592C135.935 13.6713 138.421 19.9606 138.421 27.2736C138.421 32.6853 137.251 38.2432 135.057 44.0937C132.863 49.7978 130.231 54.917 127.306 59.1586C124.38 63.4001 120.87 67.788 116.629 72.3221C112.534 76.8562 109.316 80.0739 106.976 82.2678C104.782 84.3155 102.296 86.3632 99.8096 88.4108H142.37V104.061H78.0176Z" fill="#006937"/>
<path d="M167.379 84.0215C175.13 84.0215 180.249 90.8958 180.249 100.403C180.249 112.689 173.375 121.903 161.675 125.267L157.141 117.369C161.382 115.76 164.454 113.274 166.063 109.617C167.525 106.546 167.964 104.352 167.379 102.889C166.794 103.62 165.478 104.059 163.576 104.059C159.627 104.059 156.117 99.964 156.117 94.6986C156.117 88.4093 160.359 84.0215 167.379 84.0215Z" fill="#006937"/>
<path d="M189.318 88.4101L198.825 76.1242C204.529 84.6073 211.842 88.8489 220.763 88.8489C231.294 88.8489 237.29 82.8522 237.29 74.6616C237.29 65.3009 230.123 60.1817 218.277 60.1817H210.964V43.3617H217.546C226.321 43.3617 233.341 37.6575 233.341 29.3206C233.341 21.715 228.953 16.8884 220.324 16.8884C212.427 16.8884 205.991 20.5449 201.019 27.858L191.658 16.0108C197.362 5.33376 207.454 0.0683594 221.933 0.0683594C239.63 0.0683594 251.33 10.1604 251.33 26.1029C251.33 37.6575 246.065 45.8481 235.681 50.3822V50.821C248.113 53.0149 255.279 62.8144 255.279 75.2466C255.279 84.4611 252.062 91.9204 245.773 97.4783C239.484 102.89 231.44 105.669 221.787 105.669C206.576 105.669 194.73 99.0872 189.318 88.4101Z" fill="#006937"/>
<path d="M0.234375 160.128V140.383H4.79265L11.496 148.622L17.8581 140.383H22.2945V160.128H17.2487V148.062L11.4229 155.423H11.301L5.28016 148.062V160.128H0.234375Z" fill="#006937"/>
<path d="M40.9176 160.127V145.428H35.7012L35.5793 147.524C34.4337 158.323 32.1667 160.468 26.6578 160.517L26.219 155.593C26.8771 155.642 27.4378 155.471 28.0228 155.057C29.2172 154.179 30.3873 151.23 30.7042 146.5L31.021 140.357H45.9878V160.103H40.9176V160.127Z" fill="#006937"/>
<path d="M51.5703 168.903V140.382H56.6161V142.259C57.8836 140.894 60.2725 139.895 62.7101 139.895C65.3914 139.895 67.5852 140.821 69.2184 142.698C70.8516 144.575 71.6804 146.988 71.6804 149.938C71.6804 153.009 70.7053 155.544 68.7797 157.568C66.854 159.591 64.3432 160.59 61.2231 160.59C59.2487 160.59 57.713 160.274 56.6161 159.615V168.879H51.5703V168.903ZM56.6161 146.793V154.789C57.8105 155.544 59.1512 155.935 60.7844 155.935C64.1726 155.935 66.3177 153.472 66.3177 150.108C66.3177 146.915 64.4408 144.672 61.1256 144.672C59.4193 144.624 57.8836 145.331 56.6161 146.793Z" fill="#006937"/>
<path d="M73.0215 164.735V155.423H75.5322C77.0679 153.351 77.9942 149.939 78.2867 145.112L78.6036 140.383H93.1803V155.448H96.4711V164.76H91.7422V160.152H77.7504V164.76H73.0215V164.735ZM83.1618 147.135C82.8206 150.962 82.0162 153.717 80.7974 155.423H88.1345V145.112H83.3081L83.1618 147.135Z" fill="#006937"/>
<path d="M102.467 153.594C104.271 153.594 105.66 155.227 105.66 156.836C105.66 158.713 104.247 160.346 102.467 160.346C100.371 160.346 98.957 158.713 98.957 156.836C98.957 155.203 100.371 153.594 102.467 153.594Z" fill="#006937"/>
<path d="M117.994 168.903V140.382H123.04V142.259C124.307 140.894 126.696 139.895 129.134 139.895C131.815 139.895 134.009 140.821 135.642 142.698C137.275 144.575 138.104 146.988 138.104 149.938C138.104 153.009 137.129 155.544 135.203 157.568C133.278 159.591 130.767 160.59 127.647 160.59C125.673 160.59 124.137 160.274 123.04 159.615V168.879H117.994V168.903ZM123.04 146.793V154.789C124.234 155.544 125.575 155.935 127.208 155.935C130.596 155.935 132.741 153.472 132.741 150.108C132.741 146.915 130.865 144.672 127.549 144.672C125.868 144.624 124.332 145.331 123.04 146.793Z" fill="#006937"/>
<path d="M160.749 140.383L152.973 160.128C151.56 163.541 150.292 165.881 149.195 167.051C148.098 168.27 146.831 168.904 145.344 168.904C143.906 168.904 142.492 168.367 141.078 167.368L142.711 163.541C143.491 164.028 144.198 164.248 144.783 164.248C145.978 164.248 146.977 163.248 147.806 161.176L148.244 160.128L139.104 140.383H145.173L149.78 151.182C149.951 151.621 150.268 152.596 150.755 154.034C150.975 152.766 151.243 151.791 151.462 151.133L155.021 140.383H160.749Z" fill="#006937"/>
<path d="M181.224 133.044C180.469 133.971 179.591 134.58 178.592 134.97C177.592 135.312 176.447 135.628 175.082 135.945C173.765 136.213 172.62 136.555 171.669 137.042C169.207 138.188 167.818 140.65 167.403 144.404H167.501C168.72 142.259 171.572 140.723 174.423 140.723C177.154 140.723 179.347 141.601 180.956 143.356C182.589 145.111 183.418 147.476 183.418 150.425C183.418 153.277 182.443 155.691 180.517 157.665C178.592 159.64 176.081 160.615 173.058 160.615C169.768 160.615 167.135 159.469 165.209 157.226C163.332 154.984 162.357 151.912 162.357 148.085C162.357 139.626 164.868 134.336 169.816 132.191C170.913 131.704 172.157 131.362 173.424 131.143C176.008 130.607 177.373 130.314 178.616 128.9L181.224 133.044ZM172.937 155.91C176.057 155.91 178.031 153.619 178.031 150.645C178.031 147.622 176.276 145.428 173.156 145.428C170.475 145.428 168.451 147.012 167.769 149.158C167.793 153.058 169.816 155.91 172.937 155.91Z" fill="#006937"/>
<path d="M190.489 153.594C192.292 153.594 193.682 155.227 193.682 156.836C193.682 158.713 192.268 160.346 190.489 160.346C188.392 160.346 186.979 158.713 186.979 156.836C186.979 155.203 188.392 153.594 190.489 153.594Z" fill="#006937"/>
</svg>
