<svg width="172" height="131" viewBox="0 0 172 131" fill="none" xmlns="http://www.w3.org/2000/svg">
<g clip-path="url(#clip0_1_4959)">
<path d="M114.56 52.8241C114.376 43.6663 108.236 35.4774 99.4754 32.5939C94.8075 31.0715 90.0246 31.6482 85.2648 31.5328C85.0118 31.5328 84.8279 31.579 84.7129 31.6712C87.6102 34.5547 91.1514 38.0148 93.7957 41.1289C94.5085 41.9824 95.3133 43.0666 95.8192 43.8739C96.578 45.0734 96.923 45.7654 97.3369 46.965C97.4748 47.334 97.5208 47.7262 97.5898 48.0953C97.7968 49.2025 96.923 50.2175 95.7962 50.2175H87.0813C88.2081 52.4781 89.3808 53.7468 91.4043 55.6152C95.7732 59.652 100.901 61.4513 106.213 61.5436C106.236 61.5436 106.259 61.5436 106.282 61.5436H111.387C111.616 61.5436 111.846 61.5205 112.076 61.4744C113.525 61.1745 114.606 59.8827 114.606 58.3603V57.1838V53.1009C114.583 52.9856 114.583 52.9164 114.56 52.8241Z" fill="#FAA627"/>
<path d="M53.3481 52.8241C53.5321 43.6663 59.6486 35.4774 68.4095 32.5939C73.0774 31.0715 77.8602 31.6482 82.5971 31.5328C82.85 31.5328 83.034 31.579 83.149 31.6712C80.2517 34.5547 76.7105 38.0148 74.0661 41.1289C73.3533 41.9824 72.5485 43.0666 72.0426 43.8739C71.3068 45.0734 70.9619 45.7654 70.525 46.965C70.387 47.334 70.341 47.7262 70.2721 48.0953C70.0651 49.2025 70.9389 50.2175 72.0656 50.2175H80.7805C79.6538 52.4781 78.4811 53.7468 76.4806 55.6152C72.1346 59.652 67.0068 61.4513 61.7181 61.5436C61.6951 61.5436 61.6721 61.5436 61.6491 61.5436H56.5443C56.3144 61.5436 56.0845 61.5205 55.8775 61.4744C54.4288 61.1745 53.3481 59.8827 53.3481 58.3603V57.1838V53.1009C53.3251 52.9856 53.3481 52.9164 53.3481 52.8241Z" fill="#00B4E2"/>
<path d="M53.3477 8.71949C53.5316 17.9003 59.6481 26.0893 68.409 28.9727C73.0769 30.4952 77.8598 29.9185 82.5966 30.0338C82.8496 30.0338 83.0335 29.9877 83.1485 29.8954C80.2512 27.012 76.7101 23.5288 74.0657 20.4147C73.3529 19.5612 72.5481 18.477 72.0422 17.6697C71.2834 16.4702 70.9614 15.7781 70.5245 14.5786C70.4096 14.2326 70.3636 13.8405 70.2946 13.4714C70.0876 12.3641 70.9614 11.3492 72.0882 11.3492H80.8031C79.6763 9.08857 78.5036 7.81986 76.5031 5.9514C72.1342 1.89153 67.0064 0.0922698 61.7177 0C61.6947 0 61.6717 0 61.6717 0H56.5669C56.3369 0 56.107 0.0230674 55.877 0.0692023C54.4284 0.392146 53.3477 1.66086 53.3477 3.20637V4.38281V8.46575C53.3477 8.55802 53.3477 8.62722 53.3477 8.71949Z" fill="#EC4437"/>
<path d="M114.558 1.22257C114.581 0.322944 114.236 0 113.339 0.0230674C112.695 0.0230674 112.075 0.0230674 111.431 0.0230674C111.385 0.0230674 111.339 0 111.27 0H106.165C106.142 0 106.119 0 106.096 0C105.084 0.0230674 104.072 0.115337 103.084 0.253742C102.854 0.276809 102.624 0.299877 102.394 0.346012C102.164 0.392146 101.934 0.438281 101.727 0.484416C101.313 0.576686 100.899 0.668956 100.462 0.784293C100.301 0.830428 100.163 0.876563 100.025 0.89963C99.5196 1.03803 99.0367 1.22257 98.5308 1.40711C98.4388 1.45325 98.3469 1.47632 98.2549 1.49938C97.657 1.73006 97.0822 1.9838 96.5073 2.28368C96.4613 2.30674 96.4153 2.32981 96.3693 2.35288C95.9094 2.58355 95.4495 2.86036 95.0127 3.1141C94.6907 3.32171 94.3688 3.52932 94.0699 3.73693C93.9779 3.80613 93.9089 3.85226 93.8169 3.8984C93.748 3.94453 93.656 4.01373 93.587 4.05987C93.1041 4.40588 92.6442 4.77496 92.1843 5.16711C92.0234 5.30551 91.8394 5.44392 91.6784 5.58232L91.6555 5.60539C89.7009 7.38158 88.2063 9.27311 87.1026 11.28C85.5849 14.0942 84.8031 17.116 84.7111 20.3685C84.6881 21.4527 84.6881 22.4216 84.6881 23.6211C84.6881 23.8748 84.6881 23.8748 84.7111 23.8748C86.1138 21.4527 87.6774 20.2071 90.0458 18.5693C91.5635 17.5313 92.8742 16.9776 94.5298 16.1472C95.1966 15.8243 96.1394 15.3629 97.1052 14.8554C98.3928 14.2095 99.7495 13.5175 100.577 13.0331C100.646 12.987 100.807 12.8716 100.876 12.8255C101.129 12.664 101.865 12.1796 101.865 12.1796C101.957 12.0873 102.302 11.9028 102.302 11.9028L103.268 11.2569C103.291 11.28 103.314 11.3261 103.337 11.3492C103.337 11.3492 102.854 11.9951 102.601 12.2949C102.417 12.5026 102.049 12.9408 101.681 13.2868C100.922 13.9789 100.094 14.6478 99.2436 15.2706C98.0249 16.1472 96.8062 16.9776 95.5645 17.8081C94.9897 18.2002 94.4378 18.5693 93.8629 18.9845C92.4373 19.9995 91.5635 20.5992 90.2528 21.7295C88.9881 22.8137 87.4475 24.9359 86.4127 26.6198C85.9758 27.3349 85.148 28.9035 84.7111 29.7339C84.6881 29.7801 84.6421 29.8493 84.6191 29.8954C84.7111 29.9646 84.8491 29.9877 85.033 29.9877C85.079 29.9877 85.102 29.9877 85.125 29.9877C88.2523 29.8954 91.4025 30.1261 94.5068 29.8493C94.5987 29.8493 94.6907 29.8262 94.7827 29.8262C96.3003 29.6878 97.818 29.411 99.3126 28.9266C101.497 28.2115 103.544 27.1504 105.337 25.8355C109.338 22.9752 112.305 18.7769 113.638 13.7943C113.661 13.7482 113.661 13.7021 113.684 13.6559C113.937 12.7102 114.144 11.7413 114.259 10.7494C114.765 7.58919 114.466 4.40588 114.558 1.22257Z" fill="#8DC63F"/>
<path d="M7.33524 107.079H0V74.9004H7.33524V88.9254L17.8207 74.9004H26.6276L14.5785 89.7558L27.5934 107.079H18.2806L7.33524 91.7858V107.079Z" fill="#112043"/>
<path d="M35.6872 90.8843C35.6872 93.514 36.561 95.7515 38.3085 97.5969C40.0331 99.3962 42.1256 100.296 44.655 100.296C47.4833 100.296 49.6908 99.4192 51.2544 97.6661C52.8181 95.8669 53.5999 93.5832 53.5999 90.8612C53.5999 88.047 52.7491 85.7864 51.0245 84.0563C49.2769 82.3032 47.1614 81.4266 44.632 81.4266C42.0336 81.4266 39.8952 82.3032 38.1936 84.0563C36.538 85.8325 35.6872 88.0931 35.6872 90.8843ZM28.168 90.8843C28.168 86.2939 29.6856 82.4647 32.7209 79.4198C35.8021 76.3287 39.7802 74.7832 44.655 74.7832C49.5069 74.7832 53.4389 76.2595 56.4972 79.1891C59.6014 82.1187 61.1421 86.0171 61.1421 90.8843C61.1421 95.567 59.5784 99.4192 56.4512 102.441C53.3469 105.463 49.4149 106.985 44.655 106.985C39.8262 106.985 35.8711 105.509 32.7669 102.579C29.7086 99.6268 28.168 95.7515 28.168 90.8843Z" fill="#112043"/>
<path d="M74.7552 106.962H67.4199V74.7832H74.8012L84.2059 88.3699L94.0705 74.7832H100.992V106.962H93.6566V86.4784L84.7118 99.0271H83.654L74.7552 86.5937V106.962Z" fill="#112043"/>
<path d="M114.812 90.8843C114.812 93.514 115.686 95.7515 117.433 97.5969C119.158 99.3962 121.25 100.296 123.78 100.296C126.608 100.296 128.815 99.4192 130.379 97.6661C131.943 95.8669 132.724 93.5832 132.724 90.8612C132.724 88.047 131.874 85.7864 130.149 84.0563C128.401 82.3032 126.286 81.4266 123.757 81.4266C121.158 81.4266 119.02 82.3032 117.341 84.0563C115.64 85.8325 114.812 88.0931 114.812 90.8843ZM107.27 90.8843C107.27 86.2939 108.787 82.4647 111.822 79.4198C114.904 76.3287 118.882 74.7832 123.757 74.7832C128.608 74.7832 132.54 76.2595 135.599 79.1891C138.703 82.1187 140.244 86.0171 140.244 90.8843C140.244 95.567 138.68 99.4192 135.553 102.441C132.448 105.463 128.516 106.985 123.757 106.985C118.951 106.985 114.973 105.509 111.868 102.579C108.81 99.6268 107.27 95.7515 107.27 90.8843Z" fill="#112043"/>
<path d="M168.39 98.0352L171.103 103.364C170.16 104.425 168.758 105.301 166.895 105.993C165.056 106.639 163.101 106.962 161.009 106.962C156.203 106.962 152.271 105.486 149.258 102.556C146.246 99.5576 144.729 95.6592 144.729 90.8612C144.729 86.1785 146.154 82.3263 148.983 79.3044C151.811 76.2826 155.812 74.7832 160.94 74.7832C162.894 74.7832 164.711 75.0831 166.389 75.6828C168.068 76.2826 169.425 77.0669 170.413 78.0357L167.263 83.3643C165.194 82.0956 163.078 81.4497 160.917 81.4497C158.41 81.4497 156.318 82.2801 154.662 83.941C153.03 85.5788 152.225 87.8855 152.225 90.8843C152.225 93.6062 153.099 95.8668 154.846 97.6892C156.594 99.4423 158.847 100.319 161.629 100.319C164.136 100.296 166.389 99.5576 168.39 98.0352Z" fill="#112043"/>
<path d="M51.5311 130.999H47.875V114.99H57.0038V118.427H51.5311V130.999Z" fill="#112043"/>
<path d="M65.5342 118.383C65.5112 118.383 65.4422 118.383 65.3273 118.406C65.2123 118.406 65.0053 118.429 64.7524 118.429C64.4995 118.429 64.2235 118.452 63.9246 118.452V122.097C64.5684 122.166 65.1203 122.212 65.5802 122.212C66.201 122.212 66.7069 122.05 67.1208 121.728C67.5117 121.405 67.7187 120.897 67.7187 120.251C67.7417 119.006 67.0059 118.383 65.5342 118.383ZM63.9476 125.557V130.978H60.3145V115.015C61.0043 115.015 61.7861 115.015 62.6139 114.992C63.4647 114.969 64.3155 114.969 65.1893 114.969C67.4427 114.969 69.0754 115.476 70.1101 116.468C71.1219 117.437 71.6277 118.706 71.6277 120.251C71.6277 121.751 71.0989 123.019 70.0181 124.057C68.9374 125.095 67.5117 125.603 65.7412 125.603C64.9134 125.626 64.3385 125.603 63.9476 125.557Z" fill="#112043"/>
<path d="M84.7124 114.99H88.3915L83.0338 127.216C82.4819 128.508 81.8151 129.477 81.0562 130.076C80.2974 130.699 79.4006 130.999 78.3429 130.999C77.906 130.999 77.4461 130.93 76.9632 130.791C76.4803 130.653 76.1354 130.492 75.9055 130.307L77.1932 127.193C77.5841 127.447 77.952 127.585 78.2969 127.585C78.8948 127.585 79.2857 127.377 79.4926 126.939L79.6996 126.455L72.8242 114.99H76.9402L81.4242 122.81L84.7124 114.99Z" fill="#112043"/>
<path d="M103.451 130.999H99.7946V118.427H94.2069V130.999H90.5508V114.99H103.451V130.999Z" fill="#112043"/>
<path d="M119.916 130.999H116.26V118.427H110.672V130.999H107.039V114.99H119.916V130.999Z" fill="#112043"/>
</g>
<defs>
<clipPath id="clip0_1_4959">
<rect width="171.102" height="131" fill="white"/>
</clipPath>
</defs>
</svg>
