<svg width="48" height="28" viewBox="0 0 48 28" fill="none" xmlns="http://www.w3.org/2000/svg">
<path fill-rule="evenodd" clip-rule="evenodd" d="M31.7357 2.16899C31.7357 0.971089 32.7125 0 33.9175 0H45.8182C47.0232 0 48 0.971089 48 2.16899V13.9999C48 15.1978 47.0232 16.1689 45.8182 16.1689C44.6132 16.1689 43.6364 15.1978 43.6364 13.9999V7.40544L28.518 22.4351C28.1088 22.8419 27.5539 23.0704 26.9752 23.0704C26.3965 23.0704 25.8416 22.8419 25.4324 22.4351L17.0579 14.1097L3.72461 27.3647C2.87256 28.2118 1.49111 28.2118 0.63905 27.3647C-0.213009 26.5177 -0.213018 25.1444 0.639029 24.2973L15.5151 9.50855C15.9242 9.10178 16.4792 8.87326 17.0579 8.87326C17.6365 8.87326 18.1915 9.10178 18.6006 9.50855L26.9752 17.834L40.5509 4.33798H33.9175C32.7125 4.33798 31.7357 3.36689 31.7357 2.16899Z" fill="white"/>
</svg>
