<svg width="138" height="146" viewBox="0 0 138 146" fill="none" xmlns="http://www.w3.org/2000/svg">
<path d="M54.3105 104.492V91.0364C66.7422 78.8967 74.7863 70.5598 78.7351 66.0257C90.8743 52.1309 96.8708 40.5762 96.8708 31.0693C96.8708 22.7324 92.1906 17.7595 83.8541 17.7595C76.6876 17.7595 71.2761 22.7324 69.0823 31.508L55.0418 25.2188C57.8207 10.1539 69.5211 0.939453 85.7554 0.939453C94.9695 0.939453 101.99 3.57217 107.109 8.83757C112.228 14.103 114.714 20.3922 114.714 27.7052C114.714 33.1169 113.544 38.6749 111.35 44.5253C109.156 50.2295 106.524 55.3486 103.599 59.5902C100.673 63.8318 97.1633 68.2196 92.9219 72.7537C88.8267 77.2878 85.6091 80.5055 83.2691 82.6995C81.0752 84.7471 78.5889 86.7948 76.1026 88.8424H118.663V104.492H54.3105Z" fill="#006937"/>
<path d="M3.5109 145.541C2.73087 145.541 1.9996 145.273 1.36583 144.785C0.537048 144.127 0.073907 143.152 0.073907 142.128V108.098C0.0495311 107.976 -0.779248 101.175 3.97404 92.9115C8.16669 85.6472 7.92293 78.5535 7.92293 78.4804L10.3605 78.3585C10.3849 78.6754 10.6774 86.2078 6.09474 94.1303C1.75584 101.638 2.48712 107.879 2.51149 107.952V142.128C2.51149 142.518 2.73087 142.762 2.87713 142.884C3.12089 143.079 3.46215 143.152 3.75466 143.079C6.9479 142.348 11.238 141.47 13.6756 141.47C16.2838 141.47 20.5009 142.348 23.5966 143.079C23.9135 143.152 24.2304 143.079 24.4741 142.884C24.6204 142.787 24.8398 142.543 24.8398 142.128V108.123C24.8641 107.903 25.5954 101.638 21.2565 94.1547C16.6982 86.2322 16.9664 78.7241 16.9907 78.4072L19.4283 78.5048C19.4283 78.5779 19.1846 85.6716 23.3772 92.9359C28.1549 101.2 27.3261 108.001 27.2774 108.293V142.128C27.2774 143.177 26.8142 144.152 25.9854 144.785C25.1567 145.444 24.0841 145.687 23.036 145.444C18.8433 144.444 15.5282 143.908 13.6756 143.908C11.9449 143.908 8.62983 144.469 4.29093 145.468C4.04717 145.492 3.77904 145.541 3.5109 145.541ZM24.2791 77.0178H3.09651V74.5801H24.2791V77.0178V77.0178Z" fill="#006937"/>
<path d="M50.9219 143.495V129.234H54.2126L59.0634 135.182L63.6704 129.234H66.8637V143.495H63.2073V134.768L58.9903 140.082H58.8928L54.5539 134.768V143.495H50.9219Z" fill="#006937"/>
<path d="M83.1464 142.081C81.757 143.251 79.9532 143.86 77.6862 143.86C75.3705 143.86 73.5423 143.153 72.1041 141.812C70.7147 140.447 70.0078 138.643 70.0078 136.401C70.0078 134.28 70.7147 132.5 72.0798 131.087C73.4448 129.673 75.273 128.941 77.5643 128.941C79.4413 128.941 81.0501 129.575 82.342 130.818C83.6339 132.062 84.3164 133.646 84.3164 135.572C84.3164 136.376 84.2433 137.035 84.0971 137.546H73.7861C74.0786 139.667 75.7849 140.862 78.0762 140.862C79.685 140.862 81.0257 140.423 82.0982 139.57L83.1464 142.081ZM73.6642 135.036H80.6601C80.6844 133.256 79.4169 131.94 77.3937 131.94C75.3461 131.94 74.0786 132.988 73.6642 135.036Z" fill="#006937"/>
<path d="M99.7231 141.373C98.5531 142.981 96.4324 143.835 94.0436 143.835C91.7278 143.835 89.8509 143.128 88.4371 141.787C87.0233 140.422 86.3164 138.618 86.3164 136.375C86.3164 134.255 87.0233 132.475 88.4127 131.061C89.8022 129.647 91.5816 128.916 93.7023 128.916C96.2374 128.916 98.1387 129.55 99.4306 130.842L97.7243 133.718C96.7736 132.792 95.6036 132.329 94.1654 132.329C93.1173 132.329 92.1666 132.719 91.3866 133.474C90.5822 134.206 90.2165 135.181 90.2165 136.4C90.2165 137.643 90.6309 138.618 91.411 139.374C92.2397 140.105 93.2148 140.495 94.3361 140.495C95.7255 140.495 96.9686 139.934 98.0168 138.764L99.7231 141.373Z" fill="#006937"/>
<path d="M100.867 132.891V129.234H113.86V132.891H109.204V143.519H105.547V132.891H100.867Z" fill="#006937"/>
<path d="M115.152 136.376C115.152 134.182 115.859 132.403 117.273 131.013C118.687 129.599 120.613 128.893 122.904 128.893C125.195 128.893 127.097 129.599 128.51 131.013C129.924 132.403 130.655 134.182 130.655 136.376C130.655 138.57 129.924 140.35 128.51 141.764C127.097 143.153 125.22 143.86 122.904 143.86C120.588 143.86 118.687 143.153 117.273 141.764C115.859 140.325 115.152 138.546 115.152 136.376ZM122.904 140.447C125.195 140.447 126.804 138.79 126.804 136.352C126.804 133.963 125.146 132.305 122.904 132.305C120.71 132.305 119.028 133.963 119.028 136.352C119.052 138.741 120.661 140.447 122.904 140.447Z" fill="#006937"/>
<path d="M132.166 122.457L135.481 119.971H137.017V132.939H134.896V122.993L133.312 124.188L132.166 122.457Z" fill="#006937"/>
</svg>
