<svg width="215" height="147" viewBox="0 0 215 147" fill="none" xmlns="http://www.w3.org/2000/svg">
<path d="M74.5957 104.932V91.4758C87.0274 79.3362 95.0715 70.9993 99.0203 66.4652C111.16 52.5704 117.156 41.0157 117.156 31.5087C117.156 23.1718 112.476 18.199 104.139 18.199C96.9727 18.199 91.5613 23.1719 89.3675 31.9475L75.3269 25.6583C78.1058 10.5934 89.8061 1.37891 106.04 1.37891C115.255 1.37891 122.275 4.01162 127.394 9.27703C132.513 14.5424 134.999 20.8317 134.999 28.1447C134.999 33.5564 133.829 39.1143 131.635 44.9648C129.441 50.669 126.809 55.7881 123.884 60.0297C120.958 64.2713 117.448 68.6591 113.207 73.1932C109.112 77.7273 105.894 80.945 103.554 83.139C101.36 85.1866 98.8741 87.2343 96.3877 89.2819H138.948V104.932H74.5957Z" fill="#006937"/>
<path d="M149.039 89.2812L158.546 76.9953C164.25 85.4784 171.562 89.72 180.484 89.72C191.014 89.72 197.011 83.7233 197.011 75.5327C197.011 66.172 189.844 61.0528 177.998 61.0528H170.685V44.2328H177.266C186.042 44.2328 193.062 38.5286 193.062 30.1917C193.062 22.5861 188.674 17.7595 180.045 17.7595C172.147 17.7595 165.712 21.416 160.739 28.7291L151.379 16.8819C157.083 6.20484 167.175 0.939453 181.654 0.939453C199.351 0.939453 211.051 11.0315 211.051 26.9739C211.051 38.5286 205.786 46.7192 195.402 51.2533V51.6921C207.834 53.886 215 63.6855 215 76.1177C215 85.3322 211.783 92.7915 205.494 98.3494C199.205 103.761 191.161 106.54 181.508 106.54C166.297 106.54 154.451 99.9583 149.039 89.2812Z" fill="#006937"/>
<path d="M39.3477 146.275C39.2745 146.275 39.2015 146.275 39.1284 146.275H3.22266V143.837H39.1528C39.2259 143.837 39.2745 143.837 39.3477 143.837C43.2478 143.837 47.0018 142.229 49.9513 139.279C53.4858 135.769 55.4844 130.747 55.4601 125.53C55.4113 120.362 53.3882 115.438 49.8781 112.001C46.8798 109.076 43.1747 107.54 39.177 107.54H19.8958V105.103H39.1528C43.6867 105.054 48.123 106.858 51.5844 110.246C55.5577 114.146 57.8733 119.704 57.8977 125.506C57.9464 131.381 55.6795 137.036 51.6818 141.01C48.2449 144.398 43.8816 146.275 39.3477 146.275Z" fill="#006937"/>
<path d="M3.41833 146.129C2.83331 146.129 2.3702 145.958 2.07769 145.763C-2.23683 143.179 2.809 129.333 6.07536 122.361C9.68299 114.682 15.0944 106.394 18.9701 105.2C20.0427 104.883 20.8471 105.127 21.3103 105.419C25.6248 108.003 20.579 121.849 17.3126 128.821C13.705 136.5 8.29358 144.788 4.41782 145.982C4.05219 146.08 3.71084 146.129 3.41833 146.129ZM19.9695 107.491C19.8963 107.491 19.7989 107.516 19.7014 107.54C17.4588 108.222 12.7055 114 8.2935 123.409C2.78456 135.135 2.12647 142.96 3.32088 143.691C3.36963 143.715 3.51582 143.715 3.71083 143.666C5.95341 142.984 10.7067 137.182 15.1187 127.797C20.652 116.072 21.2859 108.247 20.0915 107.516C20.0427 107.491 20.0182 107.491 19.9695 107.491Z" fill="#006937"/>
<path d="M57.5816 131.234H56.2166V128.796H57.5816C57.8985 128.796 58.264 128.406 58.264 127.821V124.481C58.264 123.896 57.8985 123.506 57.5816 123.506H56.2166V121.068H57.5816C59.2879 121.068 60.7016 122.604 60.7016 124.481V127.821C60.7016 129.698 59.2879 131.234 57.5816 131.234Z" fill="#006937"/>
<path d="M71.207 143.934V129.674H74.4979L79.3486 135.622L83.9556 129.674H87.1488V143.934H83.4924V135.207L79.2754 140.522H79.178L74.839 135.207V143.934H71.207Z" fill="#006937"/>
<path d="M103.432 142.52C102.042 143.69 100.238 144.299 97.9713 144.299C95.6556 144.299 93.8274 143.593 92.3893 142.252C90.9998 140.887 90.293 139.083 90.293 136.84C90.293 134.719 90.9998 132.94 92.3649 131.526C93.7299 130.112 95.5581 129.381 97.8494 129.381C99.7264 129.381 101.335 130.015 102.627 131.258C103.919 132.501 104.602 134.086 104.602 136.011C104.602 136.816 104.528 137.474 104.382 137.986H94.0712C94.3637 140.107 96.07 141.301 98.3614 141.301C99.9702 141.301 101.311 140.862 102.383 140.009L103.432 142.52ZM93.9493 135.475H100.945C100.97 133.696 99.702 132.379 97.6788 132.379C95.6312 132.379 94.3637 133.427 93.9493 135.475Z" fill="#006937"/>
<path d="M120.008 141.812C118.838 143.421 116.717 144.274 114.329 144.274C112.013 144.274 110.136 143.567 108.722 142.226C107.308 140.861 106.602 139.057 106.602 136.815C106.602 134.694 107.308 132.915 108.698 131.501C110.087 130.087 111.867 129.355 113.987 129.355C116.522 129.355 118.424 129.989 119.716 131.281L118.009 134.158C117.059 133.231 115.889 132.768 114.451 132.768C113.402 132.768 112.452 133.158 111.672 133.914C110.867 134.645 110.502 135.62 110.502 136.839C110.502 138.082 110.916 139.057 111.696 139.813C112.525 140.544 113.5 140.934 114.621 140.934C116.011 140.934 117.254 140.374 118.302 139.204L120.008 141.812Z" fill="#006937"/>
<path d="M121.152 133.33V129.674H134.145V133.33H129.489V143.959H125.857V133.33H121.152Z" fill="#006937"/>
<path d="M135.438 136.816C135.438 134.622 136.144 132.842 137.558 131.453C138.972 130.039 140.898 129.332 143.189 129.332C145.48 129.332 147.382 130.039 148.795 131.453C150.209 132.842 150.941 134.622 150.941 136.816C150.941 139.01 150.209 140.789 148.795 142.203C147.382 143.592 145.505 144.299 143.189 144.299C140.873 144.299 138.972 143.592 137.558 142.203C136.144 140.765 135.438 138.985 135.438 136.816ZM143.213 140.887C145.505 140.887 147.113 139.229 147.113 136.791C147.113 134.402 145.456 132.745 143.213 132.745C141.019 132.745 139.338 134.402 139.338 136.791C139.338 139.18 140.946 140.887 143.213 140.887Z" fill="#006937"/>
<path d="M155.012 122.993C156.28 121.579 157.791 120.604 159.254 120.238L160.131 121.847C157.913 122.505 156.06 124.187 155.427 126.576C155.987 125.772 156.889 125.382 158.084 125.382C159.107 125.382 159.961 125.747 160.643 126.503C161.35 127.234 161.691 128.185 161.691 129.355C161.691 130.647 161.277 131.695 160.424 132.451C159.595 133.207 158.62 133.597 157.499 133.597C156.085 133.597 154.964 133.134 154.135 132.207C153.306 131.281 152.867 130.16 152.867 128.795C152.867 126.528 153.745 124.407 155.012 122.993ZM157.523 131.452C158.644 131.452 159.424 130.574 159.424 129.477C159.424 128.234 158.669 127.356 157.328 127.356C156.28 127.356 155.524 128.015 155.134 128.819C155.134 130.355 156.012 131.452 157.523 131.452Z" fill="#006937"/>
</svg>
