<svg width="144" height="145" viewBox="0 0 144 145" fill="none" xmlns="http://www.w3.org/2000/svg">
<path d="M100.282 102.809V79.1143H53.4805V66.6821L92.9693 0.425781H112.275L75.2725 62.2943H100.282V36.9911H117.101V62.2943H130.264V79.1143H117.101V102.809H100.282Z" fill="#006937"/>
<path d="M3.7277 144.541C2.94768 144.541 2.19203 144.273 1.58264 143.785C0.753858 143.127 0.290701 142.152 0.290701 141.128V107.098C0.266325 106.976 -0.562439 100.175 4.19085 91.9115C8.3835 84.6472 8.13973 77.5535 8.13973 77.4804L10.5773 77.3829C10.6017 77.6998 10.8698 85.2322 6.31154 93.1303C1.97264 100.638 2.70391 106.879 2.72829 106.952V141.128C2.72829 141.518 2.94767 141.762 3.09393 141.884C3.33769 142.079 3.67895 142.152 3.97146 142.079C7.1647 141.348 11.4548 140.47 13.8924 140.47C16.5006 140.47 20.7177 141.348 23.8134 142.079C24.1303 142.152 24.4472 142.079 24.6909 141.884C24.8372 141.787 25.0566 141.543 25.0566 141.128V107.123C25.0809 106.903 25.8122 100.638 21.4733 93.1547C16.8907 85.2322 17.1832 77.7241 17.2075 77.4072L19.6451 77.5048C19.6451 77.5779 19.4014 84.6716 23.594 91.9359C28.3717 100.2 27.5429 107.001 27.4942 107.293V141.128C27.4942 142.177 27.031 143.152 26.2022 143.785C25.3735 144.444 24.2765 144.687 23.2528 144.444C19.0601 143.444 15.745 142.908 13.8924 142.908C12.1617 142.908 8.84663 143.469 4.50773 144.468C4.26397 144.492 3.99584 144.541 3.7277 144.541ZM24.5203 76.0178H3.33768V73.5801H24.5203V76.0178Z" fill="#006937"/>
<path d="M53.3086 141.813V127.553H56.5993L61.4501 133.501L66.0572 127.553H69.2504V141.813H65.594V133.086L61.377 138.4H61.2795L56.9406 133.086V141.813H53.3086Z" fill="#006937"/>
<path d="M85.5331 140.399C84.1437 141.569 82.3399 142.178 80.0729 142.178C77.7572 142.178 75.929 141.471 74.4909 140.131C73.1014 138.766 72.3945 136.962 72.3945 134.719C72.3945 132.598 73.1014 130.819 74.4665 129.405C75.8315 127.991 77.6597 127.26 79.9511 127.26C81.828 127.26 83.4368 127.894 84.7287 129.137C86.0206 130.38 86.7031 131.965 86.7031 133.89C86.7031 134.695 86.63 135.353 86.4838 135.865H76.1728C76.4653 137.986 78.1716 139.18 80.4629 139.18C82.0717 139.18 83.4124 138.741 84.485 137.888L85.5331 140.399ZM76.0753 133.354H83.0712C83.0955 131.574 81.828 130.258 79.8048 130.258C77.7572 130.258 76.4897 131.282 76.0753 133.354Z" fill="#006937"/>
<path d="M102.11 139.691C100.94 141.3 98.8191 142.153 96.4303 142.153C94.1146 142.153 92.2376 141.446 90.8238 140.105C89.41 138.74 88.7031 136.936 88.7031 134.694C88.7031 132.573 89.41 130.793 90.7994 129.38C92.1889 127.966 93.9683 127.234 96.089 127.234C98.6241 127.234 100.525 127.868 101.817 129.16L100.111 132.037C99.1603 131.11 97.9903 130.647 96.5522 130.647C95.504 130.647 94.5533 131.037 93.7733 131.793C92.9689 132.524 92.6033 133.499 92.6033 134.718C92.6033 135.961 93.0176 136.936 93.7977 137.692C94.6264 138.423 95.6015 138.813 96.7228 138.813C98.1122 138.813 99.3554 138.253 100.404 137.083L102.11 139.691Z" fill="#006937"/>
<path d="M103.254 131.209V127.553H116.246V131.209H111.59V141.838H107.934V131.209H103.254Z" fill="#006937"/>
<path d="M117.539 134.695C117.539 132.501 118.246 130.721 119.66 129.332C121.074 127.918 122.999 127.211 125.291 127.211C127.582 127.211 129.483 127.918 130.897 129.332C132.311 130.721 133.042 132.501 133.042 134.695C133.042 136.889 132.311 138.668 130.897 140.082C129.483 141.471 127.606 142.178 125.291 142.178C122.975 142.178 121.074 141.471 119.66 140.082C118.246 138.644 117.539 136.864 117.539 134.695ZM125.315 138.766C127.606 138.766 129.215 137.108 129.215 134.67C129.215 132.281 127.558 130.624 125.315 130.624C123.121 130.624 121.439 132.281 121.439 134.67C121.439 137.059 123.072 138.766 125.315 138.766Z" fill="#006937"/>
<path d="M134.846 131.257V129.551C136.406 128.015 137.43 126.967 137.941 126.382C139.477 124.627 140.233 123.164 140.233 121.97C140.233 120.922 139.648 120.288 138.6 120.288C137.698 120.288 137.015 120.922 136.723 122.018L134.943 121.214C135.284 119.313 136.771 118.143 138.819 118.143C139.989 118.143 140.867 118.484 141.525 119.142C142.183 119.8 142.475 120.605 142.475 121.531C142.475 122.214 142.329 122.92 142.061 123.652C141.793 124.383 141.452 125.017 141.086 125.553C140.72 126.089 140.282 126.65 139.745 127.211C139.233 127.796 138.819 128.186 138.526 128.478C138.258 128.746 137.941 128.99 137.625 129.258H143.012V131.233H134.846V131.257Z" fill="#006937"/>
</svg>
