<svg width="221" height="146" viewBox="0 0 221 146" fill="none" xmlns="http://www.w3.org/2000/svg">
<path d="M79.9277 104.42V90.9641C92.3594 78.8244 100.403 70.4875 104.352 65.9534C116.492 52.0586 122.488 40.504 122.488 30.997C122.488 22.6601 117.808 17.6872 109.471 17.6872C102.305 17.6872 96.8933 22.6601 94.6995 31.4358L80.6591 25.1465C83.4379 10.0816 95.1382 0.867188 111.373 0.867188C120.587 0.867188 127.607 3.4999 132.726 8.76531C137.845 14.0307 140.331 20.3199 140.331 27.633C140.331 33.0446 139.161 38.6026 136.967 44.453C134.773 50.1572 132.141 55.2764 129.216 59.5179C126.291 63.7595 122.78 68.1473 118.539 72.6814C114.444 77.2155 111.226 80.4333 108.886 82.6272C106.692 84.6749 104.206 86.7225 101.72 88.7702H144.28V104.42H79.9277Z" fill="#006937"/>
<path d="M154.371 88.7695L163.878 76.4836C169.582 84.9668 176.894 89.2083 185.816 89.2083C196.346 89.2083 202.343 83.2116 202.343 75.021C202.343 65.6603 195.176 60.5411 183.33 60.5411H176.017V43.7211H182.598C191.374 43.7211 198.394 38.0169 198.394 29.68C198.394 22.0744 194.006 17.2478 185.377 17.2478C177.479 17.2478 171.044 20.9043 166.071 28.2174L156.711 16.3702C162.415 5.69316 172.507 0.427734 186.986 0.427734C204.683 0.427734 216.383 10.5198 216.383 26.4623C216.383 38.0169 211.118 46.2075 200.734 50.7416V51.1804C213.166 53.3743 220.332 63.1738 220.332 75.606C220.332 84.8205 217.115 92.2798 210.826 97.8377C204.537 103.249 196.492 106.028 186.84 106.028C171.629 106.028 159.783 99.4466 154.371 88.7695Z" fill="#006937"/>
<path d="M10.0419 145.762C8.70127 145.762 7.72621 145.128 7.11681 143.885C5.2155 139.985 3.92356 135.719 3.21666 130.892C2.43664 125.7 1.75409 119.557 2.50974 113.317C2.50974 113.268 2.97294 109.855 4.09423 108.466C10.3344 97.496 28.1288 94.4001 40.268 98.4955C43.2175 99.4949 46.6301 100.836 49.482 103.298C50.1402 103.858 50.7008 104.492 51.2371 105.102C51.4809 105.37 51.7246 105.662 51.9684 105.93L52.8215 106.857L51.8708 107.686C51.0421 108.417 50.6033 109.197 50.3595 110.074C51.7733 108.539 53.7234 107.515 56.1366 107.052C58.4767 106.589 60.3049 105.418 61.5724 103.517L62.9863 101.445L63.7419 103.834C64.7413 106.979 64.4244 110.318 62.8644 112.756C61.6943 114.609 59.9149 115.876 57.648 116.486C57.648 116.51 57.6723 116.51 57.6723 116.534C58.1354 117.631 58.5986 118.753 58.9642 119.898C59.5736 121.727 59.988 122.044 61.8893 122.117C62.3525 122.141 62.84 122.214 63.3031 122.312L64.8388 122.58L64.7901 124.554C64.6926 124.871 64.5951 125.213 64.4732 125.529C64.2538 126.188 64.0588 126.797 63.9613 127.382C63.6444 129.6 62.3525 131.16 60.0368 132.16C55.4785 134.159 50.3596 135.183 44.3875 135.329C44.2169 135.329 44.0462 135.329 43.8756 135.329V136.402C43.8756 138.449 43.8756 140.448 43.8512 142.471C43.8269 143.3 43.6318 145.226 42.3643 145.494C41.3892 145.713 39.1467 146.201 38.0985 143.934L37.3428 142.325C36.4166 140.351 35.5147 138.376 34.6372 136.377C34.564 136.231 34.4909 136.036 34.4421 135.963C27.7388 136.572 21.7667 136.06 16.1846 134.451C14.649 137.23 13.4058 139.839 13.1133 142.813C13.0401 143.544 12.4795 145.25 11.2363 145.543C10.8463 145.713 10.432 145.762 10.0419 145.762ZM5.75177 110.538C5.45926 111.269 5.06926 112.488 4.923 113.633C4.19173 119.581 4.84987 125.529 5.60552 130.551C6.28805 135.134 7.50686 139.156 9.2863 142.837C9.48131 143.227 9.65194 143.446 10.5051 143.3C10.6026 143.129 10.7244 142.837 10.7488 142.666C11.1144 138.961 12.6745 135.89 14.5514 132.574L14.9414 131.867L15.7459 131.965C16.0871 131.989 16.2821 132.014 16.4771 132.062C21.9129 133.696 27.7632 134.232 34.3447 133.744C36.1485 133.647 36.6116 134.793 36.9041 135.5C37.7573 137.474 38.6836 139.424 39.5855 141.374L40.3411 142.983C40.463 143.251 40.5361 143.422 41.3405 143.3C41.3893 143.081 41.438 142.764 41.438 142.496C41.4867 140.521 41.4624 138.522 41.4624 136.499V132.964H43.3393C43.7293 132.964 44.0462 132.964 44.3631 132.964C50.0183 132.818 54.8447 131.843 59.1105 129.99C60.6949 129.308 61.4018 128.455 61.5968 127.09C61.7187 126.285 61.9625 125.529 62.2062 124.798C62.2306 124.749 62.255 124.676 62.255 124.627C62.1331 124.603 61.9868 124.603 61.8649 124.579C58.9642 124.506 57.6236 123.482 56.6973 120.703C56.3316 119.606 55.8928 118.558 55.4541 117.509C55.2591 117.022 55.0397 116.534 54.8691 116.071L54.2841 114.609L55.8441 114.414C58.0867 114.121 59.8174 113.097 60.8412 111.488C61.6456 110.221 62.0112 108.612 61.8893 106.93C60.4512 108.222 58.6961 109.075 56.6486 109.489C53.5284 110.123 51.6027 111.708 50.6033 114.487L50.4327 114.95L48.1901 116.144L47.8976 114.414C47.7026 111.903 47.4832 109.148 49.4332 106.808C48.9457 106.247 48.4582 105.687 47.922 105.223C45.3869 103.03 42.2424 101.811 39.5123 100.884C28.2751 97.106 11.6263 100.129 6.19052 109.831L5.75177 110.538ZM48.3364 113.609V113.633C48.312 113.633 48.312 113.633 48.3364 113.609Z" fill="#006937"/>
<path d="M76.5391 143.421V129.16H79.8297L84.6806 135.108L89.2876 129.16H92.4808V143.421H88.8244V134.694L84.6075 140.008H84.5099L80.171 134.694V143.421H76.5391Z" fill="#006937"/>
<path d="M108.764 141.983C107.374 143.153 105.57 143.762 103.303 143.762C100.988 143.762 99.1595 143.055 97.7214 141.715C96.3319 140.35 95.625 138.546 95.625 136.303C95.625 134.182 96.3319 132.403 97.697 130.989C99.062 129.575 100.89 128.844 103.182 128.844C105.058 128.844 106.667 129.478 107.959 130.721C109.251 131.964 109.934 133.548 109.934 135.474C109.934 136.279 109.86 136.937 109.714 137.449H99.4032C99.6957 139.57 101.402 140.764 103.693 140.764C105.302 140.764 106.643 140.325 107.715 139.472L108.764 141.983ZM99.3058 134.938H106.302C106.326 133.158 105.058 131.842 103.035 131.842C100.963 131.842 99.6958 132.89 99.3058 134.938Z" fill="#006937"/>
<path d="M125.34 141.275C124.17 142.884 122.05 143.737 119.661 143.737C117.345 143.737 115.468 143.03 114.054 141.689C112.64 140.324 111.934 138.52 111.934 136.278C111.934 134.157 112.64 132.377 114.03 130.963C115.419 129.55 117.199 128.818 119.319 128.818C121.855 128.818 123.756 129.452 125.048 130.744L123.341 133.621C122.391 132.694 121.221 132.231 119.783 132.231C118.734 132.231 117.784 132.621 117.004 133.377C116.199 134.108 115.834 135.083 115.834 136.302C115.834 137.545 116.248 138.52 117.028 139.276C117.857 140.007 118.832 140.397 119.953 140.397C121.343 140.397 122.586 139.837 123.634 138.667L125.34 141.275Z" fill="#006937"/>
<path d="M126.484 132.793V129.137H139.477V132.793H134.821V143.422H131.165V132.793H126.484Z" fill="#006937"/>
<path d="M140.769 136.279C140.769 134.085 141.476 132.305 142.89 130.916C144.304 129.502 146.23 128.795 148.521 128.795C150.812 128.795 152.714 129.502 154.127 130.916C155.541 132.305 156.272 134.085 156.272 136.279C156.272 138.473 155.541 140.252 154.127 141.666C152.714 143.055 150.837 143.762 148.521 143.762C146.205 143.762 144.304 143.055 142.89 141.666C141.476 140.252 140.769 138.473 140.769 136.279ZM148.545 140.374C150.837 140.374 152.445 138.716 152.445 136.279C152.445 133.89 150.788 132.232 148.545 132.232C146.351 132.232 144.67 133.89 144.67 136.279C144.67 138.668 146.278 140.374 148.545 140.374Z" fill="#006937"/>
<path d="M159.734 119.922H165.853V122.043H161.611L161.246 124.602C161.514 124.553 161.757 124.529 161.977 124.529C163.147 124.529 164.122 124.895 164.878 125.65C165.658 126.406 166.048 127.406 166.048 128.649C166.048 129.99 165.633 131.062 164.78 131.867C163.927 132.671 162.879 133.061 161.611 133.061C160.88 133.061 160.173 132.89 159.442 132.573C158.735 132.232 158.199 131.769 157.809 131.208L159.027 129.599C159.564 130.404 160.685 130.94 161.66 130.94C162.903 130.94 163.781 130.038 163.781 128.771C163.781 127.43 162.733 126.479 161.026 126.479C160.124 126.479 159.417 126.601 158.905 126.821L159.734 119.922Z" fill="#006937"/>
<path d="M24.4225 145.787C22.8137 145.787 21.5705 145.153 20.7173 143.91C19.6204 142.301 18.5479 140.692 17.4754 139.059C17.2072 138.645 17.1585 138.255 17.1097 137.962L16.6953 136.207L18.4261 136.256L25.9094 137.426L26.9332 145.421L25.8119 145.641C25.3488 145.738 24.8856 145.787 24.4225 145.787ZM20.4248 139.035C21.1805 140.229 21.9605 141.375 22.7405 142.545C23.0331 142.959 23.4231 143.325 24.2518 143.374L23.7643 139.571L20.4248 139.035Z" fill="#006937"/>
<path d="M51.1871 145.761C50.334 145.761 49.4077 145.517 48.8471 144.445C48.2133 143.25 47.6282 142.056 46.9945 140.813L45.3613 137.595L53.0884 136.498L53.4541 139.155C53.6248 140.471 53.8197 141.763 53.9416 143.08C54.0147 143.762 53.6491 145.444 52.4303 145.615C52.0647 145.688 51.6259 145.761 51.1871 145.761ZM49.0664 139.57L49.164 139.765C49.7734 140.983 50.3827 142.178 50.9921 143.348C51.0653 143.397 51.309 143.372 51.504 143.324V143.299C51.3821 142.056 51.2115 140.788 51.0409 139.521L51.0165 139.301L49.0664 139.57Z" fill="#006937"/>
<path d="M1.26627 107.783C0.998136 107.783 0.705634 107.759 0.4375 107.734L0.681199 105.321C0.998085 105.346 1.31498 105.37 1.60749 105.346C1.53437 105.248 1.48565 105.151 1.41252 105.053C0.266854 103.274 0.656835 102.006 0.998097 101.397C1.77812 100.031 3.67949 99.422 5.23954 100.056C6.97023 100.763 7.62832 102.786 7.23831 104.346C7.16518 104.663 7.04334 104.956 6.89708 105.224C7.14084 105.224 7.28708 105.224 7.33583 105.224L7.40896 107.661C6.99457 107.661 5.6783 107.661 4.31325 107.198C4.02074 107.32 3.75259 107.393 3.53321 107.466C2.82631 107.661 2.07067 107.783 1.26627 107.783ZM3.97195 102.225C3.60632 102.225 3.26506 102.372 3.14318 102.591C3.07006 102.737 3.09447 103.127 3.48448 103.737C3.67949 104.054 3.97197 104.297 4.28885 104.492C4.60574 104.297 4.84952 104.054 4.92265 103.737C5.02015 103.347 4.92262 102.518 4.36198 102.298C4.21572 102.25 4.09383 102.225 3.97195 102.225Z" fill="#006937"/>
</svg>
