<svg width="148" height="145" viewBox="0 0 148 145" fill="none" xmlns="http://www.w3.org/2000/svg">
<path d="M104.483 103.053V79.3585H57.6816V66.9262L97.1705 0.669922H116.476L79.4737 62.5384H104.483V37.2352H121.303V62.5384H134.466V79.3585H121.303V103.053H104.483Z" fill="#006937"/>
<path d="M23.994 144.542C9.56354 144.542 0.251953 133.133 0.251953 115.484C0.251953 96.0805 11.1236 79.6992 23.994 79.6992C36.8645 79.6992 47.7361 96.0805 47.7361 115.484C47.7361 133.133 38.4002 144.542 23.994 144.542ZM23.994 82.1369C12.4399 82.1369 2.68954 97.3968 2.68954 115.484C2.68954 131.646 11.0505 142.104 23.994 142.104C36.9376 142.104 45.2985 131.646 45.2985 115.484C45.2985 97.3968 35.5238 82.1369 23.994 82.1369Z" fill="#006937"/>
<path d="M57.5098 142.055V127.795H60.8005L65.6513 133.743L70.2583 127.795H73.4516V142.055H69.7952V133.328L65.5782 138.643H65.4807L61.1418 133.328V142.055H57.5098Z" fill="#006937"/>
<path d="M89.7343 140.641C88.3449 141.811 86.541 142.421 84.2741 142.421C81.9584 142.421 80.1302 141.714 78.692 140.373C77.3026 139.008 76.5957 137.204 76.5957 134.961C76.5957 132.84 77.3026 131.061 78.6676 129.647C80.0327 128.233 81.8609 127.502 84.1522 127.502C86.0291 127.502 87.638 128.136 88.9299 129.379C90.2218 130.622 90.9043 132.207 90.9043 134.132C90.9043 134.937 90.8312 135.595 90.6849 136.107H80.374C80.6665 138.228 82.3728 139.422 84.6641 139.422C86.2729 139.422 87.6136 138.983 88.6861 138.13L89.7343 140.641ZM80.2521 133.596H87.2479C87.2723 131.817 86.0048 130.5 83.9816 130.5C81.934 130.5 80.6665 131.549 80.2521 133.596Z" fill="#006937"/>
<path d="M106.311 139.935C105.141 141.544 103.02 142.397 100.631 142.397C98.3157 142.397 96.4388 141.69 95.025 140.35C93.6112 138.984 92.9043 137.181 92.9043 134.938C92.9043 132.817 93.6112 131.038 95.0006 129.624C96.39 128.21 98.1694 127.479 100.29 127.479C102.825 127.479 104.727 128.112 106.018 129.404L104.312 132.281C103.362 131.354 102.191 130.891 100.753 130.891C99.7051 130.891 98.7545 131.281 97.9745 132.037C97.1701 132.768 96.8044 133.743 96.8044 134.962C96.8044 136.205 97.2188 137.18 97.9988 137.936C98.8276 138.667 99.8026 139.058 100.924 139.058C102.313 139.058 103.557 138.497 104.605 137.327L106.311 139.935Z" fill="#006937"/>
<path d="M107.455 131.451V127.795H120.447V131.451H115.792V142.08H112.16V131.451H107.455Z" fill="#006937"/>
<path d="M121.74 134.937C121.74 132.743 122.447 130.963 123.861 129.574C125.275 128.16 127.2 127.453 129.492 127.453C131.783 127.453 133.684 128.16 135.098 129.574C136.512 130.963 137.243 132.743 137.243 134.937C137.243 137.131 136.512 138.91 135.098 140.324C133.684 141.714 131.807 142.421 129.492 142.421C127.176 142.421 125.275 141.714 123.861 140.324C122.447 138.886 121.74 137.106 121.74 134.937ZM129.492 139.008C131.783 139.008 133.392 137.35 133.392 134.912C133.392 132.524 131.734 130.866 129.492 130.866C127.298 130.866 125.616 132.524 125.616 134.912C125.64 137.301 127.249 139.008 129.492 139.008Z" fill="#006937"/>
<path d="M138.756 129.526L139.95 127.966C140.657 129.038 141.583 129.575 142.729 129.575C144.07 129.575 144.825 128.819 144.825 127.771C144.825 126.576 143.924 125.943 142.412 125.943H141.486V123.822H142.315C143.436 123.822 144.314 123.09 144.314 122.042C144.314 121.092 143.753 120.482 142.68 120.482C141.681 120.482 140.877 120.945 140.243 121.872L139.048 120.385C139.78 119.044 141.047 118.361 142.875 118.361C145.118 118.361 146.581 119.629 146.581 121.652C146.581 123.115 145.922 124.139 144.606 124.724V124.772C146.166 125.041 147.092 126.284 147.092 127.868C147.092 129.038 146.678 129.965 145.898 130.672C145.094 131.354 144.094 131.695 142.875 131.695C140.925 131.72 139.438 130.867 138.756 129.526Z" fill="#006937"/>
</svg>
