<svg width="138" height="148" viewBox="0 0 138 148" fill="none" xmlns="http://www.w3.org/2000/svg">
<path d="M73.5506 51.6302V51.1914C65.2141 47.6812 58.9251 38.4667 58.9251 26.912C58.9251 19.0139 61.9965 12.5785 68.2854 7.60557C74.5744 2.48643 82.1797 0 91.3938 0C100.608 0 108.359 2.48643 114.648 7.60557C120.937 12.5785 124.155 19.0139 124.155 26.912C124.155 37.0041 118.158 46.9499 108.359 51.0452V51.4839C118.89 53.6779 126.934 63.1848 126.934 76.0558C126.934 85.2703 123.57 92.4371 116.842 97.7025C110.261 102.968 101.778 105.601 91.54 105.601C81.3022 105.601 72.8194 103.114 66.0916 97.995C59.3639 92.8759 56 86.0016 56 77.5185C56 64.7937 63.1665 55.1405 73.5506 51.6302ZM90.5162 59.8208C81.5946 59.8208 73.9894 65.525 73.9894 74.3007C73.9894 82.6376 80.7172 88.7806 91.3938 88.7806C103.094 88.7806 109.237 82.9301 109.091 74.3007C108.944 65.0862 102.363 59.8208 93.0026 59.8208H90.5162ZM93.0026 43.0008C100.608 43.0008 106.166 36.8578 106.166 29.8373C106.166 21.6467 100.169 16.82 91.2475 16.82C82.4722 16.82 76.7683 22.2317 76.7683 29.8373C76.7683 36.8578 82.4722 43.0008 90.2237 43.0008H93.0026Z" fill="#006937"/>
<path d="M49.5098 143.055V128.795H52.8005L57.6513 134.743L62.2583 128.795H65.4516V143.055H61.7952V134.328L57.5782 139.643H57.4807L53.1418 134.328V143.055H49.5098Z" fill="#006937"/>
<path d="M81.7343 141.641C80.3449 142.811 78.541 143.421 76.2741 143.421C73.9584 143.421 72.1302 142.714 70.692 141.373C69.3026 140.008 68.5957 138.204 68.5957 135.961C68.5957 133.84 69.3026 132.061 70.6676 130.647C72.0327 129.233 73.8609 128.502 76.1522 128.502C78.0291 128.502 79.638 129.136 80.9299 130.379C82.2218 131.622 82.9043 133.207 82.9043 135.132C82.9043 135.937 82.8312 136.595 82.6849 137.107H72.374C72.6665 139.228 74.3728 140.422 76.6641 140.422C78.2729 140.422 79.6136 139.983 80.6861 139.13L81.7343 141.641ZM72.2521 134.596H79.2479C79.2723 132.817 78.0048 131.5 75.9816 131.5C73.934 131.5 72.6665 132.549 72.2521 134.596Z" fill="#006937"/>
<path d="M98.311 140.935C97.1409 142.544 95.0203 143.397 92.6314 143.397C90.3157 143.397 88.4388 142.69 87.025 141.35C85.6112 139.984 84.9043 138.181 84.9043 135.938C84.9043 133.817 85.6112 132.038 87.0006 130.624C88.39 129.21 90.1694 128.479 92.2901 128.479C94.8252 128.479 96.7266 129.112 98.0185 130.404L96.3122 133.281C95.3616 132.354 94.1915 131.891 92.7533 131.891C91.7051 131.891 90.7545 132.281 89.9745 133.037C89.1701 133.768 88.8044 134.743 88.8044 135.962C88.8044 137.205 89.2188 138.18 89.9988 138.936C90.8276 139.667 91.8026 140.058 92.9239 140.058C94.3134 140.058 95.5565 139.497 96.6047 138.327L98.311 140.935Z" fill="#006937"/>
<path d="M99.4551 132.451V128.795H112.447V132.451H107.792V143.08H104.16V132.451H99.4551Z" fill="#006937"/>
<path d="M113.74 135.937C113.74 133.743 114.447 131.963 115.861 130.574C117.275 129.16 119.2 128.453 121.492 128.453C123.783 128.453 125.684 129.16 127.098 130.574C128.512 131.963 129.243 133.743 129.243 135.937C129.243 138.131 128.512 139.91 127.098 141.324C125.684 142.714 123.807 143.421 121.492 143.421C119.176 143.421 117.275 142.714 115.861 141.324C114.447 139.886 113.74 138.106 113.74 135.937ZM121.492 140.008C123.783 140.008 125.392 138.35 125.392 135.912C125.392 133.524 123.734 131.866 121.492 131.866C119.298 131.866 117.616 133.524 117.616 135.912C117.64 138.301 119.249 140.008 121.492 140.008Z" fill="#006937"/>
<path d="M133.923 128.944V125.946H128V124.386L132.997 116H135.435L130.754 123.825H133.923V120.632H136.044V123.825H137.702V125.946H136.044V128.944H133.923V128.944Z" fill="#006937"/>
<path d="M14.918 147.396H12.4804L12.456 146.031C12.456 143.496 11.7492 141.667 10.3841 140.595C7.8978 138.62 3.87578 139.547 3.82703 139.547L3.26635 137.182C3.48574 137.133 8.45843 135.988 11.8954 138.694C12.0904 138.864 12.3098 139.035 12.4804 139.205V132.941C11.5054 132.892 0 131.941 0 120.338V75.6061H2.43758V89.7691L12.4804 96.6434V69H14.918V96.6434L24.9121 89.7935V75.6305H27.3497V120.362C27.3497 131.551 16.5756 132.843 14.918 132.965V147.396ZM14.918 122.629V130.478C16.6487 130.332 24.9121 129.187 24.9121 120.313V116.876L15.4299 123.36L14.918 122.629ZM2.46198 116.901V120.338C2.46198 129.552 11.2129 130.43 12.5048 130.503V122.58L11.9685 123.385L2.46198 116.901ZM2.46198 113.927L12.5048 120.801V110.368L11.9685 111.172L2.48631 104.688V113.927H2.46198ZM14.918 110.416V120.801L24.9121 113.951V104.688L15.4299 111.172L14.918 110.416ZM2.46198 101.714L12.5048 108.588V98.4229L11.9685 99.2273L2.48631 92.7431V101.714H2.46198ZM14.918 98.4717V108.588L24.9121 101.738V92.7431L15.4299 99.2273L14.918 98.4717ZM21.1582 92.158H18.7206V71.2671H21.1582V92.158ZM8.67779 92.1337H6.24021V71.2427H8.67779V92.1337Z" fill="#006937"/>
</svg>
