<svg width="41" height="41" viewBox="0 0 41 41" fill="none" xmlns="http://www.w3.org/2000/svg">
<path fill-rule="evenodd" clip-rule="evenodd" d="M0 20.5C0 9.17816 9.17817 0 20.5 0C31.8218 0 41 9.17816 41 20.5C41 31.8218 31.8218 41 20.5 41C9.17817 41 0 31.8218 0 20.5ZM20.5 3.72728C11.2367 3.72728 3.72727 11.2367 3.72727 20.5C3.72727 29.7633 11.2367 37.2727 20.5 37.2727C29.7633 37.2727 37.2727 29.7633 37.2727 20.5C37.2727 11.2367 29.7633 3.72728 20.5 3.72728ZM20.5 7.45454C21.5293 7.45454 22.3636 8.28892 22.3636 9.31818V19.7281L27.4087 24.7731C28.1365 25.5009 28.1365 26.6809 27.4087 27.4087C26.6809 28.1365 25.5009 28.1365 24.7731 27.4087L19.1822 21.8178C18.8327 21.4683 18.6364 20.9943 18.6364 20.5V9.31818C18.6364 8.28892 19.4707 7.45454 20.5 7.45454Z" fill="white"/>
</svg>
