<svg width="20" height="15" viewBox="0 0 20 15" fill="none" xmlns="http://www.w3.org/2000/svg">
<path fill-rule="evenodd" clip-rule="evenodd" d="M1.04591 0.024535C0.645871 0.107983 0.29135 0.398941 0.103131 0.798347C0.0163209 0.982571 0.000273972 1.06956 0.00183953 1.34818C0.00336595 1.62718 0.0205479 1.71398 0.111194 1.90073C0.352564 2.39811 0.905793 2.71263 1.44266 2.65776C2.58994 2.54055 3.06885 1.17034 2.24301 0.367906C1.94775 0.0810364 1.45401 -0.0605874 1.04591 0.024535ZM5.30333 0.317479C4.90775 0.440178 4.63796 0.819803 4.63796 1.25371C4.63796 1.3861 4.66477 1.5583 4.69757 1.63633C4.78712 1.84964 5.00661 2.06872 5.22384 2.16167L5.41765 2.24465L12.3762 2.23449C18.9445 2.22491 19.3417 2.22047 19.4612 2.15552C19.8137 1.96382 20.0007 1.64914 19.9986 1.25083C19.9966 0.855666 19.8118 0.555012 19.4521 0.36152L19.2955 0.277332L12.3875 0.270089C6.55436 0.263976 5.45205 0.271335 5.30333 0.317479ZM0.958904 6.21312C0.593464 6.32414 0.265245 6.6068 0.10364 6.94975C0.0170254 7.13358 0 7.224 0 7.50067C0 7.77733 0.0170254 7.86775 0.10364 8.05159C0.321918 8.51478 0.732798 8.78802 1.25245 8.81559C1.65781 8.83704 1.92975 8.74125 2.2247 8.47303C2.5184 8.20598 2.65217 7.90167 2.65217 7.50067C2.65217 7.25796 2.63182 7.1571 2.54309 6.96045C2.40603 6.65657 2.10348 6.37075 1.79879 6.25736C1.57616 6.17449 1.15855 6.15249 0.958904 6.21312ZM5.4335 6.52853C4.9492 6.62491 4.63969 7.00395 4.63969 7.50067C4.63969 7.91413 4.84701 8.23694 5.22505 8.41205L5.40117 8.49363H12.3288C18.7881 8.49363 19.2659 8.48911 19.3984 8.42693C19.6077 8.32864 19.7726 8.17748 19.8932 7.97359C19.9839 7.82001 20 7.74864 20 7.50067C20 7.2527 19.9839 7.18132 19.8932 7.02774C19.7726 6.82385 19.6077 6.67269 19.3984 6.57441C19.2661 6.5123 18.7862 6.50731 12.4266 6.50186C8.67025 6.49863 5.52337 6.51066 5.4335 6.52853ZM0.892838 12.4074C0.579687 12.5094 0.2609 12.7921 0.111194 13.1006C0.0205088 13.2875 0.00336595 13.3741 0.00183953 13.6539C0.000195694 13.9515 0.0130724 14.012 0.127593 14.2435C0.413425 14.8215 1.02524 15.1129 1.63049 14.9594C2.25659 14.8006 2.64951 14.3052 2.65108 13.6726C2.65331 12.7578 1.76959 12.1219 0.892838 12.4074ZM5.20521 12.8489C4.83961 13.0187 4.63796 13.3382 4.63796 13.7476C4.63796 14.0422 4.77092 14.3356 4.98395 14.5112C5.28395 14.7586 4.84325 14.7453 12.4088 14.7342L19.2955 14.724L19.4521 14.6398C19.8118 14.4463 19.9966 14.1457 19.9986 13.7505C20.0007 13.3522 19.8137 13.0375 19.4612 12.8458C19.3417 12.7809 18.9448 12.7765 12.3679 12.7674L5.40117 12.7579L5.20521 12.8489Z" fill="#6E5B55"/>
</svg>
