<svg width="15" height="15" viewBox="0 0 15 15" fill="none" xmlns="http://www.w3.org/2000/svg">
<path fill-rule="evenodd" clip-rule="evenodd" d="M5.15625 0.0302877C5.09985 0.0526813 3.98584 0.54666 2.68066 1.12801C0.155537 2.25274 0.102217 2.2805 0.0347461 2.50617C0.0084375 2.5941 0 4.0763 0 8.60426C0 14.5607 0.000263674 14.5867 0.0596191 14.7096C0.148213 14.8929 0.317285 14.9988 0.523447 15C0.677842 15.0009 0.837949 14.9343 3.00847 13.9664C4.28446 13.3974 5.34082 12.9318 5.35591 12.9318C5.37103 12.9318 6.42319 13.396 7.69412 13.9633C9.81516 14.9101 10.0186 14.9951 10.1721 14.9979C10.3356 15.0009 10.3874 14.9769 12.5402 13.9004C14.0433 13.1487 14.7703 12.7701 14.8332 12.706C14.8839 12.6545 14.9411 12.5687 14.9604 12.5153C14.9873 12.4411 14.9961 11.0018 14.9978 6.41821L15 0.418169L14.9379 0.289589C14.8475 0.102663 14.6848 0.00343305 14.4686 0.00343305C14.3046 0.00343305 14.233 0.0364804 12.2253 1.03967L10.1514 2.07594L7.84008 1.04513C6.18583 0.307375 5.49041 0.0108291 5.39379 0.00196558C5.3175 -0.00504892 5.2142 0.00724846 5.15625 0.0302877ZM4.83398 6.66216C4.83398 10.8628 4.82643 11.9619 4.79736 11.9841C4.769 12.0059 1.28086 13.5655 1.12052 13.6282C1.09119 13.6397 1.0853 12.5757 1.09122 8.3255L1.09863 3.00849L2.92969 2.19055C3.93677 1.74071 4.77724 1.37164 4.79736 1.37041C4.82654 1.36862 4.83398 2.44536 4.83398 6.66216ZM7.78564 2.19331L9.63867 3.01861V8.33055C9.63867 13.2572 9.63516 13.6411 9.59027 13.6239C9.56367 13.6137 8.71992 13.2405 7.71527 12.7946L5.88867 11.984V6.67607C5.88867 3.75672 5.89857 1.36815 5.91064 1.36809C5.92271 1.36806 6.76646 1.73942 7.78564 2.19331ZM13.916 6.70254V12.0076L12.3193 12.8072L10.7227 13.6068V8.30182V2.9968L12.312 2.19882C13.1861 1.75993 13.9047 1.40008 13.9087 1.39917C13.9127 1.39826 13.916 3.78478 13.916 6.70254Z" fill="#222222" fill-opacity="0.2"/>
</svg>
