<svg width="16" height="24" viewBox="0 0 16 24" fill="none" xmlns="http://www.w3.org/2000/svg">
<path fill-rule="evenodd" clip-rule="evenodd" d="M7.36802 0.0109063C5.37871 0.206981 3.70991 0.983727 2.34251 2.35001C0.440709 4.25029 -0.375454 6.96545 0.162411 9.6027C0.279636 10.1774 0.487843 10.8111 0.73079 11.3325C0.832288 11.5504 2.42001 14.4503 4.25904 17.7767C7.75979 24.1089 7.6942 23.9999 8.00179 23.9999C8.30934 23.9999 8.2438 24.1088 11.746 17.7734C13.5859 14.4452 15.1736 11.5453 15.2743 11.3292C16.1475 9.45527 16.238 7.18724 15.5169 5.25041C15.0968 4.12186 14.4983 3.18656 13.6611 2.35001C12.444 1.13402 11.0295 0.404134 9.29282 0.0961846C8.9157 0.029341 7.71899 -0.0237117 7.36802 0.0109063ZM8.40084 4.01833C9.40817 4.1304 10.2248 4.5376 10.9212 5.27523C11.6815 6.08054 12.0304 7.03488 11.9781 8.16573C11.947 8.83642 11.87 9.14676 11.591 9.72476C11.0958 10.7511 10.2174 11.4959 9.10503 11.8328C8.72848 11.9468 8.60848 11.9608 8.00179 11.9608C7.39511 11.9608 7.27511 11.9468 6.89856 11.8328C6.09418 11.5892 5.40801 11.1318 4.89742 10.4987C4.59433 10.123 4.24876 9.45537 4.12835 9.01317C4.01042 8.57997 3.98347 7.67794 4.07501 7.22673C4.42021 5.52431 5.83024 4.21778 7.53233 4.02302C7.72599 4.00088 7.90556 3.9802 7.93138 3.97705C7.9572 3.97391 8.16846 3.99249 8.40084 4.01833Z" fill="#EBEBEB"/>
</svg>
