<svg width="16" height="16" viewBox="0 0 16 16" fill="none" xmlns="http://www.w3.org/2000/svg">
<path fill-rule="evenodd" clip-rule="evenodd" d="M0.976903 0.042234C0.480687 0.162897 0.106157 0.572382 0.0171444 1.09149C-0.0297539 1.36506 0.0246794 2.48958 0.118351 3.18266C0.503574 6.03205 1.60181 8.52204 3.46514 10.7707C3.79896 11.1736 4.82616 12.2009 5.22902 12.5347C7.47751 14.3982 9.96731 15.4965 12.8165 15.8818C13.5147 15.9762 14.6338 16.0299 14.911 15.9824C15.441 15.8915 15.8554 15.4983 15.9649 14.9825C15.9882 14.8724 16 14.29 16 13.2459C16 11.5718 15.9934 11.4864 15.8416 11.1888C15.7556 11.0202 15.5496 10.7999 15.3911 10.707C15.1527 10.5672 15.0003 10.5331 14.4836 10.5036C13.512 10.4481 12.8898 10.3486 12.1083 10.1236C11.7098 10.0088 11.6464 9.99889 11.3859 10.0103C11.1341 10.0213 11.0759 10.0355 10.8935 10.131C10.7797 10.1905 10.2646 10.5593 9.74886 10.9505C9.23307 11.3418 8.80095 11.6618 8.78854 11.6618C8.74727 11.6618 8.14159 11.3089 7.77716 11.0725C6.42496 10.1954 5.39548 9.09121 4.55575 7.61734C4.36571 7.2838 4.33279 7.20597 4.36196 7.15926C4.38128 7.1283 4.70985 6.69002 5.09211 6.18526C5.47436 5.68054 5.81934 5.21077 5.85874 5.14135C5.89813 5.07194 5.95328 4.9256 5.98133 4.81613C6.0457 4.56493 6.02691 4.40024 5.87065 3.84486C5.65385 3.07438 5.54689 2.39584 5.51088 1.56229C5.49002 1.07967 5.4415 0.845227 5.31931 0.636732C5.14482 0.338936 4.79909 0.09392 4.4637 0.0302896C4.21626 -0.0166436 1.17616 -0.00623133 0.976903 0.042234Z" fill="#EBEBEB"/>
</svg>
