<svg width="16" height="16" viewBox="0 0 16 16" fill="none" xmlns="http://www.w3.org/2000/svg">
<path fill-rule="evenodd" clip-rule="evenodd" d="M3.43907 0.0533935C3.27827 0.12595 3.14567 0.272721 3.10108 0.427501C3.08265 0.491484 3.06749 0.68672 3.0674 0.861305L3.0672 1.17872L2.42626 1.19267C1.70886 1.20825 1.52184 1.24636 1.12004 1.45871C0.796426 1.62976 0.414913 2.0177 0.248529 2.34494C-0.0215094 2.87605 0.000428575 2.32282 0.000428575 8.60045C0.000428575 14.8666 -0.0205034 14.3267 0.242363 14.8439C0.48407 15.3196 0.952686 15.7126 1.50565 15.9035L1.78532 16H8H14.2147L14.4743 15.9119C15.2034 15.6645 15.7417 15.1061 15.9426 14.3887C15.9959 14.1984 15.9996 13.8274 15.9996 8.60045C15.9996 2.32103 16.0217 2.87642 15.7505 2.3429C15.5598 1.96786 15.1733 1.59638 14.7826 1.41256C14.4021 1.23354 14.1232 1.18526 13.4696 1.18526H12.9328L12.9326 0.864559C12.9324 0.483631 12.8976 0.344025 12.7673 0.200884C12.4859 -0.108082 11.9492 -0.0428789 11.7656 0.322562C11.7108 0.43185 11.6996 0.515951 11.6996 0.819693V1.18526H8.00256H4.30556L4.29485 0.783899C4.28518 0.420336 4.27681 0.372215 4.20596 0.272658C4.02851 0.0232947 3.7085 -0.0681906 3.43907 0.0533935ZM3.07298 2.74182C3.08765 3.16959 3.1371 3.30187 3.33354 3.43907C3.56979 3.60408 3.87047 3.58787 4.09472 3.39805C4.26876 3.25072 4.3004 3.14869 4.3004 2.735V2.37419H8H11.6996V2.735C11.6996 3.14869 11.7312 3.25072 11.9053 3.39805C12.1341 3.59172 12.4488 3.60142 12.6924 3.42227C12.8644 3.29577 12.9128 3.15526 12.927 2.74182L12.9396 2.37419H13.4542C13.893 2.37419 13.995 2.38361 14.1461 2.43814C14.3694 2.51868 14.5688 2.70325 14.6803 2.93252L14.7664 3.10945L14.7769 4.07155L14.7876 5.03365H8H1.21244L1.22354 4.07155C1.23317 3.23151 1.24194 3.09359 1.2924 2.9843C1.3845 2.78494 1.50461 2.63591 1.64584 2.54581C1.87833 2.39747 1.97676 2.37876 2.53644 2.37638L3.06035 2.37419L3.07298 2.74182ZM14.7752 10.157L14.7664 14.0914L14.6816 14.2635C14.58 14.4697 14.4049 14.6436 14.2017 14.7401L14.0524 14.8111H8H1.94759L1.79743 14.7397C1.58983 14.6411 1.41858 14.4716 1.31836 14.2656L1.23363 14.0914L1.2248 10.157L1.21594 6.22258H8H14.7841L14.7752 10.157Z" fill="#EBEBEB"/>
</svg>
