<svg width="16" height="10" viewBox="0 0 16 10" fill="none" xmlns="http://www.w3.org/2000/svg">
<path fill-rule="evenodd" clip-rule="evenodd" d="M0.372312 0.029875C0.228937 0.0733125 0.129531 0.158375 0.0640313 0.293719C0.00246875 0.420844 0 0.478938 0 1.79213C0 3.28938 0.000156254 3.29069 0.185656 3.44678C0.293281 3.53734 0.305625 3.54113 0.644719 3.5875C1.33197 3.68147 1.81544 4.32063 1.69384 4.97447C1.59391 5.51191 1.20134 5.88791 0.653094 5.97125C0.525937 5.99059 0.391312 6.012 0.353969 6.01881C0.25425 6.03703 0.0915312 6.18516 0.042625 6.30222C0.00884375 6.38309 0 6.68725 0 7.77038C0 9.06962 0.00303125 9.14275 0.0620313 9.26356C0.0961563 9.33344 0.175969 9.42578 0.239406 9.46875L0.35475 9.54688L2.568 9.5555L4.78125 9.56413V4.78206V0L2.61719 0.00268745C1.42694 0.0041562 0.41675 0.0164063 0.372312 0.029875ZM5.79581 0.0386875C5.78756 0.060375 5.78444 2.20859 5.78884 4.8125L5.79688 9.54688H10.7188H15.6406L15.7556 9.47538C15.8231 9.43341 15.8973 9.34869 15.9353 9.27022C15.9977 9.14125 16 9.08825 16 7.77038C16 6.68725 15.9912 6.38309 15.9574 6.30222C15.9085 6.18516 15.7458 6.03703 15.646 6.01881C15.6087 6.012 15.4756 5.99087 15.3503 5.97184C14.8038 5.88891 14.4054 5.50838 14.3062 4.97447C14.1802 4.297 14.7074 3.64128 15.4321 3.57425C15.6786 3.55147 15.8032 3.48991 15.919 3.33369C15.9827 3.24769 15.9846 3.21016 15.9931 1.83766C16.0017 0.461969 16.0004 0.42675 15.9362 0.294219C15.8973 0.213906 15.8237 0.129438 15.7556 0.0871251L15.6406 0.015625L10.7257 0.00743747C6.79122 0.000874968 5.80784 0.00709372 5.79581 0.0386875Z" fill="#EBEBEB"/>
</svg>
