<svg width="258" height="77" viewBox="0 0 258 77" fill="none" xmlns="http://www.w3.org/2000/svg">
<rect x="44" y="8" width="214" height="32" rx="4" fill="#242424"/>
<path d="M70.234 20.234L65.914 30.224C65.578 30.992 65.164 31.55 64.672 31.898C64.192 32.258 63.616 32.438 62.944 32.438C62.5 32.438 62.05 32.378 61.594 32.258V31.088C62.05 31.148 62.404 31.178 62.656 31.178C63.112 31.178 63.496 31.076 63.808 30.872C64.132 30.668 64.408 30.302 64.636 29.774L65.104 28.73L61.468 20.234H62.962L65.86 27.218L68.758 20.234H70.234ZM78.4001 20.234V29H77.0141V21.476H73.7561L73.7201 22.556C73.6721 24.092 73.5581 25.328 73.3781 26.264C73.1981 27.2 72.9101 27.902 72.5141 28.37C72.1181 28.838 71.5781 29.072 70.8941 29.072C70.7261 29.072 70.5701 29.048 70.4261 29V27.83C70.5701 27.854 70.6901 27.866 70.7861 27.866C71.3501 27.866 71.7521 27.428 71.9921 26.552C72.2321 25.664 72.3701 24.32 72.4061 22.52L72.4601 20.234H78.4001ZM82.4516 29.198C82.1396 29.198 81.8696 29.09 81.6416 28.874C81.4256 28.658 81.3176 28.388 81.3176 28.064C81.3176 27.74 81.4256 27.47 81.6416 27.254C81.8696 27.038 82.1396 26.93 82.4516 26.93C82.7636 26.93 83.0276 27.038 83.2436 27.254C83.4716 27.47 83.5856 27.74 83.5856 28.064C83.5856 28.388 83.4716 28.658 83.2436 28.874C83.0276 29.09 82.7636 29.198 82.4516 29.198ZM100.821 16.922C101.925 16.922 102.927 17.192 103.827 17.732C104.727 18.272 105.435 19.01 105.951 19.946C106.467 20.882 106.725 21.92 106.725 23.06C106.725 24.2 106.467 25.238 105.951 26.174C105.435 27.11 104.727 27.848 103.827 28.388C102.927 28.928 101.925 29.198 100.821 29.198C99.7415 29.198 98.7575 28.94 97.8695 28.424C96.9935 27.896 96.2975 27.182 95.7815 26.282C95.2655 25.382 94.9895 24.38 94.9535 23.276H93.0635V29H91.6595V17.12H93.0635V22.016H95.0255C95.1695 21.044 95.5115 20.174 96.0515 19.406C96.5915 18.626 97.2755 18.02 98.1035 17.588C98.9315 17.144 99.8375 16.922 100.821 16.922ZM100.839 27.902C101.703 27.902 102.471 27.692 103.143 27.272C103.815 26.852 104.337 26.27 104.709 25.526C105.081 24.782 105.267 23.954 105.267 23.042C105.267 22.13 105.081 21.308 104.709 20.576C104.337 19.844 103.815 19.268 103.143 18.848C102.471 18.428 101.703 18.218 100.839 18.218C99.9755 18.218 99.2075 18.428 98.5355 18.848C97.8635 19.268 97.3415 19.844 96.9695 20.576C96.5975 21.308 96.4115 22.13 96.4115 23.042C96.4115 23.966 96.5975 24.8 96.9695 25.544C97.3415 26.276 97.8635 26.852 98.5355 27.272C99.2075 27.692 99.9755 27.902 100.839 27.902ZM113.738 20.036C114.566 20.036 115.31 20.24 115.97 20.648C116.63 21.044 117.146 21.59 117.518 22.286C117.89 22.982 118.076 23.756 118.076 24.608C118.076 25.46 117.884 26.24 117.5 26.948C117.128 27.644 116.612 28.196 115.952 28.604C115.292 29 114.554 29.198 113.738 29.198C113.09 29.198 112.478 29.072 111.902 28.82C111.338 28.556 110.876 28.196 110.516 27.74V32.24H109.13V20.234H110.426V21.638C110.762 21.134 111.224 20.744 111.812 20.468C112.412 20.18 113.054 20.036 113.738 20.036ZM113.54 27.92C114.128 27.92 114.656 27.782 115.124 27.506C115.604 27.218 115.976 26.822 116.24 26.318C116.516 25.814 116.654 25.25 116.654 24.626C116.654 24.002 116.516 23.438 116.24 22.934C115.976 22.43 115.604 22.034 115.124 21.746C114.656 21.458 114.128 21.314 113.54 21.314C113.012 21.314 112.514 21.434 112.046 21.674C111.59 21.914 111.218 22.28 110.93 22.772C110.642 23.264 110.498 23.876 110.498 24.608C110.498 25.34 110.636 25.958 110.912 26.462C111.2 26.954 111.572 27.32 112.028 27.56C112.496 27.8 113 27.92 113.54 27.92ZM127.739 20.036V29H126.353V22.808L121.007 29.198H120.503V20.234H121.889V26.444L127.235 20.036H127.739ZM137.176 20.234V29H135.79V25.796H134.134L131.722 29H130.102L132.658 25.616C132.01 25.424 131.5 25.106 131.128 24.662C130.768 24.206 130.588 23.666 130.588 23.042C130.588 22.19 130.87 21.512 131.434 21.008C131.998 20.492 132.748 20.234 133.684 20.234H137.176ZM135.79 21.476H133.774C133.222 21.476 132.79 21.614 132.478 21.89C132.166 22.166 132.01 22.544 132.01 23.024C132.01 23.492 132.166 23.87 132.478 24.158C132.802 24.434 133.24 24.572 133.792 24.572H135.79V21.476ZM145.396 17.12H152.434V18.38H146.8V29H145.396V17.12ZM155.961 20.036C156.993 20.036 157.821 20.342 158.445 20.954C159.069 21.566 159.381 22.448 159.381 23.6V29H158.085V27.866C157.761 28.298 157.347 28.628 156.843 28.856C156.339 29.084 155.769 29.198 155.133 29.198C154.233 29.198 153.495 28.976 152.919 28.532C152.355 28.088 152.073 27.488 152.073 26.732C152.073 25.988 152.361 25.394 152.937 24.95C153.513 24.506 154.275 24.284 155.223 24.284H157.995V23.528C157.995 22.808 157.803 22.262 157.419 21.89C157.047 21.506 156.531 21.314 155.871 21.314C155.343 21.314 154.875 21.434 154.467 21.674C154.059 21.902 153.675 22.25 153.315 22.718L152.397 21.962C152.793 21.314 153.303 20.834 153.927 20.522C154.551 20.198 155.229 20.036 155.961 20.036ZM155.313 28.046C155.793 28.046 156.237 27.944 156.645 27.74C157.053 27.524 157.377 27.23 157.617 26.858C157.869 26.486 157.995 26.078 157.995 25.634V25.418H155.385C154.773 25.418 154.305 25.526 153.981 25.742C153.657 25.946 153.495 26.252 153.495 26.66C153.495 27.104 153.669 27.446 154.017 27.686C154.365 27.926 154.797 28.046 155.313 28.046ZM162.321 20.234H168.225V21.476H163.707V29H162.321V20.234ZM173.118 20.036C174.15 20.036 174.978 20.342 175.602 20.954C176.226 21.566 176.538 22.448 176.538 23.6V29H175.242V27.866C174.918 28.298 174.504 28.628 174 28.856C173.496 29.084 172.926 29.198 172.29 29.198C171.39 29.198 170.652 28.976 170.076 28.532C169.512 28.088 169.23 27.488 169.23 26.732C169.23 25.988 169.518 25.394 170.094 24.95C170.67 24.506 171.432 24.284 172.38 24.284H175.152V23.528C175.152 22.808 174.96 22.262 174.576 21.89C174.204 21.506 173.688 21.314 173.028 21.314C172.5 21.314 172.032 21.434 171.624 21.674C171.216 21.902 170.832 22.25 170.472 22.718L169.554 21.962C169.95 21.314 170.46 20.834 171.083 20.522C171.708 20.198 172.386 20.036 173.118 20.036ZM172.47 28.046C172.95 28.046 173.394 27.944 173.802 27.74C174.21 27.524 174.534 27.23 174.774 26.858C175.026 26.486 175.152 26.078 175.152 25.634V25.418H172.542C171.93 25.418 171.462 25.526 171.138 25.742C170.814 25.946 170.652 26.252 170.652 26.66C170.652 27.104 170.826 27.446 171.174 27.686C171.522 27.926 171.954 28.046 172.47 28.046ZM184.085 20.036C184.913 20.036 185.657 20.24 186.317 20.648C186.977 21.044 187.493 21.59 187.865 22.286C188.237 22.982 188.423 23.756 188.423 24.608C188.423 25.46 188.231 26.24 187.847 26.948C187.475 27.644 186.959 28.196 186.299 28.604C185.639 29 184.901 29.198 184.085 29.198C183.437 29.198 182.825 29.072 182.249 28.82C181.685 28.556 181.223 28.196 180.863 27.74V32.24H179.477V20.234H180.773V21.638C181.109 21.134 181.571 20.744 182.159 20.468C182.759 20.18 183.401 20.036 184.085 20.036ZM183.887 27.92C184.475 27.92 185.003 27.782 185.471 27.506C185.951 27.218 186.323 26.822 186.587 26.318C186.863 25.814 187.001 25.25 187.001 24.626C187.001 24.002 186.863 23.438 186.587 22.934C186.323 22.43 185.951 22.034 185.471 21.746C185.003 21.458 184.475 21.314 183.887 21.314C183.359 21.314 182.861 21.434 182.393 21.674C181.937 21.914 181.565 22.28 181.277 22.772C180.989 23.264 180.845 23.876 180.845 24.608C180.845 25.34 180.983 25.958 181.259 26.462C181.547 26.954 181.919 27.32 182.375 27.56C182.843 27.8 183.347 27.92 183.887 27.92ZM198.086 20.036V29H196.7V22.808L191.354 29.198H190.85V20.234H192.236V26.444L197.582 20.036H198.086ZM201.134 20.234H202.52V23.726H206.822V20.234H208.208V29H206.822V24.95H202.52V29H201.134V20.234ZM214.391 20.036C215.423 20.036 216.251 20.342 216.875 20.954C217.499 21.566 217.811 22.448 217.811 23.6V29H216.515V27.866C216.191 28.298 215.777 28.628 215.273 28.856C214.769 29.084 214.199 29.198 213.563 29.198C212.663 29.198 211.925 28.976 211.349 28.532C210.785 28.088 210.503 27.488 210.503 26.732C210.503 25.988 210.791 25.394 211.367 24.95C211.943 24.506 212.705 24.284 213.653 24.284H216.425V23.528C216.425 22.808 216.233 22.262 215.849 21.89C215.477 21.506 214.961 21.314 214.301 21.314C213.773 21.314 213.305 21.434 212.897 21.674C212.489 21.902 212.105 22.25 211.745 22.718L210.827 21.962C211.223 21.314 211.733 20.834 212.357 20.522C212.981 20.198 213.659 20.036 214.391 20.036ZM213.743 28.046C214.223 28.046 214.667 27.944 215.075 27.74C215.483 27.524 215.807 27.23 216.047 26.858C216.299 26.486 216.425 26.078 216.425 25.634V25.418H213.815C213.203 25.418 212.735 25.526 212.411 25.742C212.087 25.946 211.925 26.252 211.925 26.66C211.925 27.104 212.099 27.446 212.447 27.686C212.795 27.926 213.227 28.046 213.743 28.046ZM221.075 27.38H222.713L221.975 32.222H220.841L221.075 27.38ZM234.261 21.566C234.993 21.566 235.665 21.704 236.277 21.98C236.901 22.244 237.399 22.652 237.771 23.204C238.143 23.756 238.329 24.434 238.329 25.238C238.329 26.03 238.131 26.726 237.735 27.326C237.351 27.926 236.835 28.388 236.187 28.712C235.551 29.036 234.861 29.198 234.117 29.198C233.169 29.198 232.347 28.97 231.651 28.514C230.967 28.058 230.421 27.47 230.013 26.75L230.985 26.03C231.357 26.594 231.789 27.05 232.281 27.398C232.785 27.734 233.391 27.902 234.099 27.902C234.903 27.902 235.563 27.662 236.079 27.182C236.607 26.69 236.871 26.048 236.871 25.256C236.871 24.476 236.607 23.87 236.079 23.438C235.563 23.006 234.819 22.79 233.847 22.79H231.165V17.12H237.663V18.38H232.569V21.71C233.121 21.614 233.685 21.566 234.261 21.566ZM244.245 21.566C244.977 21.566 245.649 21.704 246.261 21.98C246.885 22.244 247.383 22.652 247.755 23.204C248.127 23.756 248.313 24.434 248.313 25.238C248.313 26.03 248.115 26.726 247.719 27.326C247.335 27.926 246.819 28.388 246.171 28.712C245.535 29.036 244.845 29.198 244.101 29.198C243.153 29.198 242.331 28.97 241.635 28.514C240.951 28.058 240.405 27.47 239.997 26.75L240.969 26.03C241.341 26.594 241.773 27.05 242.265 27.398C242.769 27.734 243.375 27.902 244.083 27.902C244.887 27.902 245.547 27.662 246.063 27.182C246.591 26.69 246.855 26.048 246.855 25.256C246.855 24.476 246.591 23.87 246.063 23.438C245.547 23.006 244.803 22.79 243.831 22.79H241.149V17.12H247.647V18.38H242.553V21.71C243.105 21.614 243.669 21.566 244.245 21.566Z" fill="white"/>
<g clip-path="url(#clip0_22_1141)">
<path d="M33.9997 3.1168C31.4191 3.09663 28.8604 3.59154 26.4734 4.57257C24.0865 5.5536 21.9192 7.00101 20.0986 8.83006C18.278 10.6591 16.8406 12.833 15.8707 15.2245C14.9007 17.616 14.4176 20.177 14.4497 22.7575C14.4497 33.7565 25.1852 48.2858 33.9997 65.1668C42.8142 48.2886 53.5497 33.7565 53.5497 22.7575C53.5819 20.177 53.0988 17.616 52.1288 15.2245C51.1588 12.833 49.7215 10.6591 47.9009 8.83006C46.0803 7.00101 43.913 5.5536 41.5261 4.57257C39.1391 3.59154 36.5804 3.09663 33.9997 3.1168ZM33.9997 31.1668C32.3186 31.1668 30.6752 30.6683 29.2774 29.7343C27.8796 28.8003 26.7901 27.4728 26.1468 25.9196C25.5034 24.3664 25.3351 22.6574 25.6631 21.0085C25.991 19.3597 26.8006 17.8451 27.9893 16.6564C29.1781 15.4677 30.6926 14.6581 32.3415 14.3301C33.9903 14.0022 35.6994 14.1705 37.2526 14.8138C38.8057 15.4572 40.1332 16.5466 41.0672 17.9445C42.0012 19.3423 42.4997 20.9857 42.4997 22.6668C42.4997 24.9211 41.6042 27.0832 40.0102 28.6772C38.4161 30.2713 36.2541 31.1668 33.9997 31.1668Z" fill="#E1202E"/>
</g>
<circle cx="34" cy="74" r="3" fill="#E1202E"/>
<defs>
<clipPath id="clip0_22_1141">
<rect width="68" height="68" fill="white"/>
</clipPath>
</defs>
</svg>
