<svg width="30" height="30" viewBox="0 0 30 30" fill="none" xmlns="http://www.w3.org/2000/svg">
<g clip-path="url(#clip0_22_1156)">
<path d="M5.55561 1.27129C3.49428 2.60816 3.08934 6.78701 3.86758 10.1929C4.47367 12.8452 5.76227 16.4031 7.93516 19.7533C9.97926 22.9051 12.8311 25.7312 15.0056 27.3663C17.798 29.4658 21.7787 30.8004 23.84 29.4635C24.8823 28.7875 26.4309 26.9406 26.5016 26.6092C26.5016 26.6092 25.5935 25.209 25.3942 24.9017L22.349 20.2063C22.1227 19.8574 20.7036 20.1763 19.9826 20.5847C19.0101 21.1357 18.1145 22.6141 18.1145 22.6141C17.4477 22.9994 16.8892 22.6155 15.7223 22.0785C14.2881 21.4186 12.6756 19.3683 11.3922 17.5112C10.22 15.5822 9.00555 13.2736 8.98797 11.695C8.9735 10.4105 8.8508 9.74406 9.47453 9.2923C9.47453 9.2923 11.1897 9.0775 12.0894 8.41434C12.7563 7.92262 13.6262 6.75695 13.3999 6.40797L10.3547 1.71262C10.1554 1.40535 9.24731 0.00519609 9.24731 0.00519609C8.91584 -0.0654094 6.59793 0.595294 5.55561 1.27129Z" fill="#E1202E"/>
</g>
<defs>
<clipPath id="clip0_22_1156">
<rect width="30" height="30" fill="white"/>
</clipPath>
</defs>
</svg>
