<svg width="30" height="30" viewBox="0 0 30 30" fill="none" xmlns="http://www.w3.org/2000/svg">
<g clip-path="url(#clip0_22_1150)">
<path d="M14.9997 1.37526C13.8612 1.36636 12.7323 1.58471 11.6793 2.01751C10.6262 2.45032 9.67005 3.08888 8.86684 3.89582C8.06363 4.70275 7.42949 5.66183 7.00157 6.7169C6.57364 7.77196 6.36052 8.9018 6.37469 10.0403C6.37469 14.8928 11.1109 21.3028 14.9997 28.7503C18.8884 21.304 23.6247 14.8928 23.6247 10.0403C23.6389 8.9018 23.4257 7.77196 22.9978 6.7169C22.5699 5.66183 21.9357 4.70275 21.1325 3.89582C20.3293 3.08888 19.3732 2.45032 18.3201 2.01751C17.267 1.58471 16.1382 1.36636 14.9997 1.37526ZM14.9997 13.7503C14.258 13.7503 13.533 13.5303 12.9163 13.1183C12.2996 12.7062 11.819 12.1205 11.5351 11.4353C11.2513 10.7501 11.177 9.9961 11.3217 9.26867C11.4664 8.54124 11.8236 7.87306 12.348 7.34861C12.8725 6.82416 13.5407 6.46701 14.2681 6.32232C14.9955 6.17762 15.7495 6.25189 16.4347 6.53571C17.12 6.81954 17.7056 7.30019 18.1177 7.91687C18.5298 8.53356 18.7497 9.25858 18.7497 10.0003C18.7497 10.9948 18.3546 11.9487 17.6513 12.6519C16.9481 13.3552 15.9942 13.7503 14.9997 13.7503Z" fill="#E1202E"/>
</g>
<defs>
<clipPath id="clip0_22_1150">
<rect width="30" height="30" fill="white"/>
</clipPath>
</defs>
</svg>
