<svg width="30" height="31" viewBox="0 0 30 31" fill="none" xmlns="http://www.w3.org/2000/svg">
<g clip-path="url(#clip0_19_241)">
<mask id="mask0_19_241" style="mask-type:luminance" maskUnits="userSpaceOnUse" x="0" y="0" width="30" height="31">
<path d="M30 0.5H0V30.5H30V0.5Z" fill="white"/>
</mask>
<g mask="url(#mask0_19_241)">
<path d="M14.9997 1.87526C13.8612 1.86636 12.7323 2.08471 11.6793 2.51751C10.6262 2.95032 9.67005 3.58888 8.86684 4.39582C8.06363 5.20275 7.42949 6.16183 7.00157 7.2169C6.57364 8.27196 6.36052 9.4018 6.37469 10.5403C6.37469 15.3928 11.1109 21.8028 14.9997 29.2503C18.8884 21.804 23.6247 15.3928 23.6247 10.5403C23.6389 9.4018 23.4257 8.27196 22.9978 7.2169C22.5699 6.16183 21.9357 5.20275 21.1325 4.39582C20.3293 3.58888 19.3732 2.95032 18.3201 2.51751C17.267 2.08471 16.1382 1.86636 14.9997 1.87526ZM14.9997 14.2503C14.258 14.2503 13.533 14.0303 12.9163 13.6183C12.2996 13.2062 11.819 12.6205 11.5351 11.9353C11.2513 11.2501 11.177 10.4961 11.3217 9.76867C11.4664 9.04124 11.8236 8.37306 12.348 7.84861C12.8725 7.32416 13.5407 6.96701 14.2681 6.82232C14.9955 6.67762 15.7495 6.75189 16.4347 7.03571C17.12 7.31954 17.7056 7.80019 18.1177 8.41687C18.5298 9.03356 18.7497 9.75858 18.7497 10.5003C18.7497 11.4948 18.3546 12.4487 17.6513 13.1519C16.9481 13.8552 15.9942 14.2503 14.9997 14.2503Z" fill="#FF6C4F"/>
</g>
</g>
<defs>
<clipPath id="clip0_19_241">
<rect width="30" height="30" fill="white" transform="translate(0 0.5)"/>
</clipPath>
</defs>
</svg>
