<svg width="30" height="30" viewBox="0 0 30 30" fill="none" xmlns="http://www.w3.org/2000/svg">
<path fill-rule="evenodd" clip-rule="evenodd" d="M2.5 15C2.5 8.09644 8.09644 2.5 15 2.5C21.9035 2.5 27.5 8.09644 27.5 15C27.5 21.9035 21.9035 27.5 15 27.5C8.09644 27.5 2.5 21.9035 2.5 15ZM19.7901 18.1934C19.4071 18.7677 18.631 18.923 18.0566 18.5401L14.8064 16.3732C14.1464 15.9332 13.75 15.1926 13.75 14.3995V14.375V8.75C13.75 8.05965 14.3096 7.5 15 7.5C15.6904 7.5 16.25 8.05965 16.25 8.75V14.331L19.4434 16.4599C20.0177 16.8429 20.173 17.619 19.7901 18.1934Z" fill="#E1202E"/>
</svg>
