<svg width="26" height="25" viewBox="0 0 26 25" fill="none" xmlns="http://www.w3.org/2000/svg">
<path fill-rule="evenodd" clip-rule="evenodd" d="M0.5 12.5C0.5 5.59644 6.09644 0 13 0C19.9035 0 25.5 5.59644 25.5 12.5C25.5 19.4035 19.9035 25 13 25C6.09644 25 0.5 19.4035 0.5 12.5ZM17.7901 15.6934C17.4071 16.2677 16.631 16.423 16.0566 16.0401L12.8064 13.8732C12.1464 13.4332 11.75 12.6926 11.75 11.8995V11.875V6.25C11.75 5.55965 12.3096 5 13 5C13.6904 5 14.25 5.55965 14.25 6.25V11.831L17.4434 13.9599C18.0177 14.3429 18.173 15.119 17.7901 15.6934Z" fill="#FF6C4F"/>
</svg>
