<svg width="22" height="19" viewBox="0 0 22 19" fill="none" xmlns="http://www.w3.org/2000/svg">
<path d="M0 14.5856C0.0269068 14.4063 0.0440294 14.2247 0.0831666 14.0475C0.26173 13.2754 0.662886 12.6148 1.28908 12.0548C2.23816 11.2061 3.17256 10.342 4.12164 9.49114C5.40338 8.34056 6.68757 7.19435 7.97176 6.04596C8.82055 5.28692 9.66689 4.5257 10.5255 3.77323C11.3204 3.07982 12.1203 2.39078 12.9324 1.71268C13.6858 1.08271 14.6104 0.780842 15.6157 0.667096C16.3545 0.583974 17.0981 0.583974 17.8197 0.769905C19.9184 1.31676 21.2686 2.53953 21.819 4.42945C22.2153 5.7944 21.9413 7.08936 21.1145 8.27931C20.8993 8.58992 20.5935 8.8546 20.3024 9.11928C19.121 10.1977 17.9322 11.2717 16.7409 12.3413C15.0458 13.8704 13.3433 15.395 11.6433 16.9218C11.4207 17.123 11.1981 17.3243 10.9804 17.5212C10.5866 17.169 10.205 16.8277 9.80387 16.4668C9.99222 16.3028 10.1928 16.1343 10.386 15.9615C11.9197 14.59 13.4534 13.2163 14.9847 11.8426C15.9875 10.9436 16.988 10.0402 17.9835 9.13678C18.4728 8.69492 18.962 8.25087 19.4365 7.79589C19.8597 7.38903 20.1018 6.89467 20.2168 6.3522C20.344 5.74409 20.3513 5.13818 20.1263 4.54101C19.7569 3.55667 19.0305 2.87201 17.9933 2.41047C17.0565 1.99486 15.4323 2.03861 14.5101 2.52859C14.0747 2.75827 13.7249 3.06888 13.3727 3.38168C11.9271 4.66132 10.479 5.94096 9.04069 7.22716C7.47521 8.62492 5.91216 10.0271 4.35401 11.4336C3.674 12.046 3.01356 12.676 2.33845 13.2907C1.98866 13.61 1.78808 13.9928 1.71959 14.4281C1.55326 15.4759 1.94708 16.3159 2.92306 16.9218C3.44163 17.2433 4.02869 17.3418 4.65243 17.3046C5.08294 17.2783 5.49144 17.1865 5.84612 16.9655C6.06137 16.8321 6.25706 16.6681 6.44541 16.5018C8.13075 15.0144 9.81855 13.5269 11.4941 12.0285C12.2744 11.3329 13.0351 10.6177 13.7959 9.90456C13.9475 9.76457 14.0821 9.60489 14.1946 9.43645C14.2655 9.32927 14.3071 9.19584 14.3218 9.06897C14.3854 8.54618 14.1848 8.10869 13.7323 7.77402C13.1428 7.34091 12.3087 7.34747 11.7412 7.80683C11.1835 8.25962 10.6429 8.72773 10.1096 9.2024C8.7276 10.4274 7.35535 11.6611 5.97821 12.8904C5.94641 12.9188 5.91461 12.9451 5.88526 12.9691C5.49633 12.6213 5.11474 12.2779 4.71848 11.9257C4.87258 11.7901 5.02913 11.6545 5.18568 11.5167C6.18123 10.6264 7.17678 9.73394 8.17478 8.84585C8.97465 8.13494 9.78919 7.43715 10.5842 6.72406C11.5235 5.88409 13.0987 5.75503 14.2337 6.28876C15.2757 6.77874 15.8604 7.55965 15.9998 8.60086C16.0756 9.1674 15.9288 9.70551 15.6549 10.2174C15.606 10.3092 15.5619 10.4033 15.5032 10.4908C15.4445 10.5805 15.3809 10.6702 15.3002 10.7445C14.2044 11.7311 13.111 12.7176 12.0102 13.6997C10.5328 15.0144 9.04559 16.3203 7.57305 17.6393C6.89793 18.2452 6.09562 18.6214 5.16122 18.7636C4.87992 18.8052 4.58639 18.792 4.29775 18.7964C3.34868 18.8095 2.51212 18.5142 1.76362 18.0155C0.883033 17.4315 0.332666 16.6462 0.0905048 15.6903C0.0464754 15.5219 0.0342451 15.3447 0.00733823 15.1719C0 14.9794 0 14.7825 0 14.5856Z" fill="white"/>
</svg>
