<svg width="940" height="529" viewBox="0 0 940 529" fill="none" xmlns="http://www.w3.org/2000/svg">
<path d="M231.387 436.289H233.755H236.568L238.27 435.623L240.638 436.658H242.119L243.154 438.506L242.415 440.353L239.676 441.684L239.898 443.532H241.452L241.89 445.824L242.838 447.937L244.882 449.977L246.268 451.361L246.851 453.839L248.894 455.88L246.851 458.648L244.954 460.542H241.744L238.461 460.761L236.784 459.086L235.616 456.717H234.12L232.552 458.285H229.999L227.153 455.443L226.606 453.803L224.454 451.653V447.937L222.63 446.114H219.274L216.502 447.136L215.48 444.949L212.708 442.763L210.227 441.452L206.872 443.055L203.807 443.493L201.327 442.763L199.576 439.411L197.095 437.225L195.344 440.14H193.448V437.809L195.199 436.06L194.031 433.582L192.573 429.792L191.989 425.857L189.8 423.234L186.298 421.922L185.277 419.446L183.38 417.55L179.878 418.134H177.835V415.364L176.814 412.45L173.239 411.793L171.415 413.615L168.06 414.781L165.141 413.178H162.077L160.618 415.364H157.554H154.198L153.468 416.967L151.571 418.861L151.28 421.63L147.705 420.976L145.589 418.861V415.946L146.538 413.104L145.005 411.574H142.525L142.42 408.653L140.641 406.876L140.234 404.693H138.149L136.778 403.322L136.167 400.377L134.083 399.615L133.016 400.681L131.084 398.853L133.727 396.314L133.32 392.251L129.863 388.9L126.915 389.003V387.276L124.982 386.26L121.729 385.853L120.814 382.4L121.017 379.861L122.084 378.795L120.915 375.799L122.969 374.87L124.375 374.795L125.818 373.353L128.371 371.987L131.258 370.212L132.072 368.733H134.514L134.81 364.151L133.626 362.007L134.144 358.164L133.626 355.872L136.66 352.62L138.066 353.285L139.731 352.139L141.026 350.845V349.7H142.691L144.949 347.446L146.725 347.003L148.131 345.598L147.613 344.267V342.862L145.244 340.94V338.279L146.898 336.615L149.329 336.105L151.12 334.315L154.064 333.803L157.263 332.78L161.038 332.333L162.894 330.479L163.662 327.412L165.326 325.75L167.373 327.795H170.317L171.469 324.855H174.412L177.867 325.622L182.346 324.471L184.01 322.81H186.57L187.593 325.238L189.193 326.836H191.944L192.936 327.826L195.208 325.557L198.727 324.343L200.199 325.813L201.926 323.96H206.022L206.534 317.058L208.261 315.076L209.221 314.118V311.433L211.268 310.411L208.069 307.087L209.605 305.681L212.369 306.908L217.559 301.723L219.128 300.376L220.222 300.741L222.995 304.02L222.484 305.623L223.797 306.278L224.067 308.493L222.275 310.283V313.223L219.46 313.862V315.779L217.541 317.697V319.87L219.076 321.404V323.577L219.716 325.878L218.82 327.923L219.843 328.946L221.508 326.9L222.531 323.96L225.091 323.321L227.779 324.6L229.442 326.261L231.745 324.088L232.961 325.302L233.665 326.9L235.841 326.645L237.185 325.302H239.552L241.781 324.423V322.674L240.304 321.198L241.671 318.521L244.626 320.16L245.666 319.121L246.705 320.16L248.128 318.739L249.988 319.395L250.754 320.597L250.426 322.456L251.958 324.314L253.818 323.658L256.992 325.079L259.071 327.156L261.369 325.953L263.996 326.937L265.473 325.461L266.95 325.953L267.99 326.991L269.467 326.5L270.343 324.642H271.875L275.267 326.937L278.55 328.686L282.271 330.107L287.305 330.872V333.167L284.35 334.698V337.649L282.709 341.693L279.754 344.316L277.565 347.596L275.596 349.563H273.079L270.671 351.64V355.356L272.531 358.308L271.547 361.587L270.07 363.062V364.101L271.656 365.74L269.851 367.543L268.045 369.019L265.528 368.472L262.901 370.221L263.011 371.642L264.16 372.79L262.573 374.374L261.479 375.467L259.728 372.844H257.758L256.226 375.358L255.569 378.091L253.162 379.293H250.317L249.441 378.419L248.456 380.386V382.9L247.308 384.048L245.396 386.163L247.27 388.754L250.657 391.2H252.747L254.474 393.718L256.328 391.867L256.92 394.306L256.254 396.522L254.478 399.776V401.548L251.184 402.326L249.223 404.285L246.189 403.177V401.179L244.561 399.554L242.193 398.371L239.973 397.706L236.791 400.072L237.382 402.879L238.788 404.285L239.232 408.203L241.083 411.159L244.709 411.528L246.263 410.493L249.816 411.603L250.851 414.781V417.589H249.15L248.113 416.184L245.671 416.406V417.441L243.413 418.216L240.417 421.21V422.838L238.493 425.423V427.937H236.939L234.941 431.56L234.57 433.703L232.276 434.738L231.387 436.289V436.289Z" fill="#C19253" stroke="#505353"/>
<path d="M81.8264 307.809L82.5557 304.894L83.4312 301.688L81.2425 299.502L82.7019 298.482L82.5557 296.004L83.4312 292.506L85.0359 288.717L86.2038 285.511L89.1217 284.636L90.1433 282.45L92.9151 280.119L95.3961 279.899L97.3659 282.304L98.2414 279.827H100.284L101.159 278.296L101.962 276.548L102.254 273.487L103.567 272.175L103.787 270.354L106.049 268.459L106.925 270.353L108.246 271.673H110.794L112.068 272.945L114.285 272.803L115.984 273.84H119.098L120.749 275.489L122.778 275.726L124.005 274.5H126.458L128.015 272.945H129.949L131.554 273.746C131.554 273.746 132.308 274.924 132.733 274.924C133.158 274.924 133.252 277.044 133.252 277.044H135.329L136.744 278.741H138.632L139.009 277.516L140.236 278.741C140.236 278.741 142.217 279.683 142.595 279.683C142.973 279.683 144.671 280.626 144.671 280.626L145.992 281.38L147.69 282.04L150.05 281.569L152.125 282.228L151.371 284.679L151.37 287.601L153.168 287.274L155.856 287.019L157.391 288.553L161.038 291.046L162.446 289.64L165.197 292.387V298.139L168.653 301.591L171.852 300.184L175.435 299.29L178.635 300.696L181.579 299.29L183.498 303.381L187.273 304.084L190.153 306.96L191.176 309.772L196.552 312.584L198.535 315.46L199.878 314.118L203.078 314.885L204.869 312.072L208.261 315.076L206.534 317.058L206.022 323.96H201.926L200.199 325.813L198.727 324.343L195.208 325.557L192.936 327.826L191.944 326.836H189.193L187.593 325.238L186.57 322.81H184.01L182.346 324.471L177.868 325.622L174.412 324.855H171.469L170.317 327.795H167.373L165.326 325.75L163.662 327.412L162.894 330.479L161.038 332.333L157.263 332.78L154.064 333.803L151.12 334.315L149.329 336.105L146.898 336.615L145.244 338.279V340.94L146.651 341.901L147.613 342.862V344.267L148.131 345.598L146.725 347.003L144.949 347.446L144.061 348.333L142.691 349.7H141.026V350.845L139.731 352.139L138.066 353.285L136.66 352.62L134.995 354.505L133.626 355.872L134.144 358.164L133.626 362.007L134.81 364.151L134.514 368.733H132.072L131.258 370.212L128.371 371.987L125.819 373.353L124.375 374.795L122.969 374.87L120.915 375.799L122.084 378.795L121.017 379.861H118.068L115.831 378.643L115.323 377.017L113.187 376.61L111.154 378.44H106.986L105.918 381.942L102.511 385.344H98.7492L97.4272 386.665H95.3944L94.3762 385.244H91.8487V383.402L90.7264 382.282L88.2462 381.115V378.055L86.3359 375.908L85.9113 375.432L85.0359 372.079L82.8472 370.767L80.5132 368.145L81.3887 365.084L80.5132 360.566L77.7406 358.526L74.5303 356.049L73.5095 352.696L71.3209 350.947L70.5907 348.907L72.4879 346.721L73.9473 343.515V340.454L72.3417 337.54L70.7369 335.062L72.1963 333.897L73.0718 331.711H74.8227L76.1359 330.544L77.1567 326.609L77.4491 324.278L76.2812 321.362L74.6765 319.76L72.4879 319.468L70.8831 317.72L69.5699 315.825L67.6001 317.5L66.0681 315.971L64.7549 313.785L66.0681 311.452L68.8398 308.683L70.7369 306.497L71.4662 303.874L73.6548 303.729L75.2604 305.477L76.1359 307.664L79.0538 308.683L81.8264 307.809V307.809Z" fill="#644924" stroke="#505353"/>
<path d="M272.97 427.751L277.931 427.606L281.287 428.625H283.767L286.539 430.084L289.457 429.5L291.136 427.824H292.668L296.461 429.792H300.401L303.611 429.21L306.237 430.666L309.448 429.792H313.095L314.846 427.314L318.056 427.606L320.974 429.355H324.622L325.935 431.978H328.562V430.229L329.383 428.535L330.86 427.059V425.092L332.063 424.873L333.596 423.343L334.198 421.813V419.244L336.277 417.168L337.863 415.582L340.654 415.091L341.694 414.052V412.085L339.505 410.882L338.794 409.188L337.426 407.822L335.456 406.838V405.198L337.754 404.105L336.769 401.154L336.988 398.859L338.739 397.11L340.052 394.924L342.241 393.393L344.539 395.689L343.116 397.11V398.859L345.086 399.514L347.603 400.28L349.244 401.045L351.105 402.247H353.512L355.044 400.826L357.561 402.138L359.75 402.794H363.252L366.152 401.428L368.505 399.077L369.818 397.218L373.954 394.801L374.404 391.749L378.357 388.877L383.209 387.531L382.939 382.954L384.647 378.736L386.354 375.326L391.026 374.609L394.53 376.134H399.563L400.821 378.019L405.493 378.557L409.132 377.166L412.502 380.531L415.288 379.814L419.152 381.789L420.23 378.199L425.981 375.776L431.372 379.725L434.697 376.405L439.908 374.161L442.065 370.571L437.932 368.776L434.248 366.353L434.231 361.878L437.692 358.453L438.932 357.214L439.151 353.934L441.267 351.821V348.178L439.079 345.117L440.538 342.348L442.654 339.651L444.624 337.684L443.602 335.352L444.186 332.291L443.602 328.793L441.924 330.47L440.245 328.793L436.89 328.065L436.161 325.004L437.62 323.547L437.328 320.195L436.015 317.572L434.264 315.823H432.513L430.909 312.908L432.222 311.888V309.265L431.2 307.516V306.058L433.17 304.237L431.929 301.686L428.719 299.791V297.751L427.406 296.439L428.646 294.253L428.172 291.593L426.749 290.172L426.822 287.84L428.864 288.277L429.412 286.492L430.98 284.925L431.929 282.155L430.762 279.969H431.856L432.659 277.856L431.273 274.504V272.245L429.012 271.808L429.084 268.966L427.333 270.642L426.458 269.768L424.707 271.298L423.759 270.351L423.394 268.456L420.621 268.019L418.798 266.198L418.397 264.631L417.12 263.356L416.974 260.66L419.637 258.656L421.789 256.506L422.883 254.757H425.801V249.729L426.093 246.232L422.956 244.483L422.117 242.771L421.424 243.463L420.512 241.532L421.278 240.767L422.518 239.528L425.291 239.091L424.999 237.561L426.385 236.176L425.875 234.282L423.832 233.188L421.862 232.679L420.768 231.586L420.184 229.983H418.798L418.652 228.234L416.974 229.91L417.193 231.587L417.777 233.481L416.026 235.084L413.691 232.752L412.232 231.294L409.167 233.335L410.189 236.541L412.378 238.727V239.894L415.004 241.205L416.682 242.881L417.631 245.14V246.889L415.15 244.556L412.889 242.298L410.628 243.682L408.877 242.225L405.813 239.894V237.27V233.626L408.439 231.003L409.023 227.214V222.987L409.752 219.927H407.417L406.396 222.113L407.417 224.591L406.25 227.652L404.499 230.42H401.435L397.787 234.064L395.452 236.396L397.568 238.509L397.203 241.496L398.079 244.266L399.1 247.472L396.183 250.387L394.869 254.175L392.827 257.382L393.265 262.045L391.514 263.794L391.951 266.564H394.578L395.745 268.166L397.933 267.146L399.612 265.471L401.654 267.511L405.229 268.75L406.396 269.916L408.293 271.664L409.752 274.579L408.731 276.91L409.606 279.681L408.731 281.575L406.396 282.304L406.687 284.927V286.676L407.928 287.914L411.211 288.862V290.901L407.855 290.174L404.937 287.258V285.072L404.791 281.575L407.126 279.243L405.375 274.724L403.989 273.34L403.041 270.499L399.685 270.936H396.621L394.651 272.904L392.682 274.871L392.973 277.64L393.702 280.7L392.827 284.198L391.003 286.02L388.742 288.279L387.429 289.591V292.651L384.511 294.254L380.863 295.274L379.987 296.149H378.09C378.09 296.149 375.974 297.096 376.558 297.679C377.142 298.262 376.048 300.23 376.048 300.23H373.421L371.67 297.752L369.19 297.898L366.272 295.858L364.084 294.837L361.895 291.486V288.716L364.084 289.445L365.616 290.975L368.023 292.505L370.212 291.048L373.86 291.777L375.902 290.611L378.091 287.405L381.884 283.616L385.095 282.741L385.679 277.348L388.889 274.871L389.327 272.539L386.773 269.988L385.679 266.127L386.846 263.357L388.45 257.82L389.472 251.553L392.39 247.18L393.119 243.245L393.995 238.29L391.515 236.104L392.682 232.315L396.84 228.161L397.497 222.842L398.956 221.384L397.643 216.429H394.579L392.828 214.68H389.326L387.575 212.203L384.802 213.661L383.198 217.158L381.738 220.656L379.841 224.882L377.361 227.359L376.267 228.453L373.13 229.983L370.212 231.003L368.607 233.043L367.585 235.959L369.483 236.541V238.727L368.169 240.476L367.44 243.974V246.306L364.522 247.764L363.136 249.147L364.668 252.281L367.441 254.176L366.857 258.257L368.462 262.046L370.797 262.774L367.441 265.835V268.895L364.523 270.644L362.481 267.438V264.523L360 261.171L357.666 257.528L354.236 254.102L353.092 251.771L351.902 253.52L349.604 255.815L351.027 257.164L351.318 258.257L352.413 258.622V263.577H351.027L350.37 265.18L349.203 265.763L348.984 267.366L348.762 268.458L351.68 269.916V271.811L348.981 272.904L351.242 275.162L347.74 276.911L345.114 279.535H342.341L341.32 282.741H336.359L331.69 283.762L327.021 286.385V289.591L323.195 289.445L320.357 289.882L318.825 291.631L316.089 293.052L313.353 295.784L310.836 296.112V293.817L308.976 293.161L306.732 295.402L303.722 298.408L302.409 300.922L302.956 304.092L299.454 306.278L299.126 308.902L296.171 310.76L294.201 314.476L294.749 316.99L293.545 319.286V321.253L289.934 324.86L289.44 327.429L288.071 328.795L287.305 330.872V333.167L284.351 334.698V337.649L282.709 341.693L279.754 344.316L277.566 347.596L275.596 349.563H273.079L270.672 351.64V355.356L272.532 358.307L271.547 361.587L270.07 363.062V364.101L271.656 365.74L269.851 367.543L268.045 369.018L265.528 368.472L262.902 370.221L263.011 371.642L264.161 372.79L262.573 374.374L261.479 375.467L259.728 372.844H257.758L256.226 375.358L255.57 378.091L253.162 379.293H250.317L249.442 378.419L248.457 380.386V382.9L247.308 384.048L245.396 386.163L247.27 388.754L250.658 391.2H252.747L254.475 393.718L256.329 391.867L256.921 394.305L256.254 396.522L254.478 399.776V401.548L251.185 402.326L249.224 404.285L246.189 403.177V401.179L244.562 399.554L242.194 398.371L239.973 397.706L236.791 400.071L237.383 402.879L238.789 404.285L239.233 408.203L241.083 411.159L244.71 411.528L246.264 410.493L249.816 411.603L250.852 414.781V417.589H249.15L248.113 416.184L245.672 416.406V417.44L243.414 418.216L240.417 421.21V422.837L238.493 425.423V427.937H236.939L234.941 431.56L234.571 433.703L232.276 434.738L231.388 436.289H236.569L238.271 435.623L240.639 436.658H242.119L243.155 438.506L242.415 440.353L239.677 441.684L239.899 443.532H241.453L241.891 445.824L243.058 442.763L245.976 443.491L248.457 442.763L249.478 440.14L248.457 436.495L250.937 435.476L254.731 435.331L257.211 437.807H259.254L261.078 435.986L259.108 434.019L257.503 432.415L255.898 431.396L257.941 429.355L256.92 427.169L257.941 423.963H261.005L264.361 425.712L266.695 427.751L269.322 427.023L272.97 427.751V427.751ZM416.628 224.972L415.171 226.427L413.582 227.75L415.039 228.808L416.231 227.75H418.085L419.806 226.162L418.217 224.576L416.628 224.972V224.972ZM411.861 210.292L410.67 211.35L411.464 212.54L413.053 211.482L415.039 212.011L414.509 210.821L411.861 210.292ZM405.77 215.583L405.108 217.302L406.167 218.228L407.359 216.773L405.77 215.583V215.583ZM391.603 206.986L390.146 208.044L390.676 209.235L389.617 210.689L389.881 211.615L392.265 212.276L394.516 211.218L395.84 211.351V210.028L393.722 209.499L394.781 208.309L393.588 206.59L392.133 207.119L391.603 206.986Z" fill="#D9BD96" stroke="#505353"/>
<path d="M478.157 107.562L477.828 109.749L475.858 110.623L472.904 112.591V115.323L474.108 116.525L472.521 118.11L471.481 120.133L472.904 122.1L473.451 124.068L475.968 126.254L478.266 124.068H479.798L482.096 122.756L484.832 121.881L484.066 119.258V115.979L485.707 114.558L484.34 113.192L481.549 110.404L480.564 108.218L478.157 107.562ZM469.949 108.874L467.651 108.983L466.666 109.967L467.432 110.732L468.253 111.552L469.949 109.967V108.874ZM442.591 111.17L441.496 111.388L440.785 112.099L441.879 113.192L443.357 112.7L444.232 111.825L442.591 111.17ZM486.675 123L483.762 123.926C483.762 123.926 482.04 124.323 481.643 124.455C481.246 124.587 479.259 125.249 479.259 125.249L478.333 127.234L477.803 128.952L476.611 130.407L477.009 132.127L474.757 133.847L475.817 134.773L477.406 134.243L478.729 136.094L478.863 137.813L480.055 139.268L483.1 139.532L483.497 141.252L485.615 139.93L486.675 141.649L489.587 142.707L492.369 141.384L493.694 139.532L492.634 137.416L490.912 135.034L492.237 134.108L492.766 131.861L492.104 129.347L492.369 126.834L489.19 125.116L487.999 126.571L486.94 128.556L486.013 128.158L486.675 125.646V123ZM469.84 125.488L470.168 127.893V129.423L472.575 130.079L473.56 131.063L475.038 129.587L475.858 127.456L474.436 126.363L471.7 125.707L469.84 125.488ZM431.458 128.291L430.664 129.085L431.591 129.613L433.048 130.672L433.445 129.348L431.458 128.291ZM500.315 132.259L498.99 132.392L497.136 134.639L497.27 136.624L496.475 137.946L497.003 141.517L495.414 143.105L495.546 146.675L494.753 149.717L494.089 152.76L495.283 153.421L497.798 151.436L499.255 150.511L502.565 148.793L505.214 148.528L508.524 146.014L510.113 142.972L509.054 140.327L507.862 138.342L506.272 139.005L504.684 136.226L503.492 135.036L502.035 136.755L501.108 139.268V137.418L501.24 134.11L500.315 132.259ZM514.086 145.749L512.761 146.543L514.615 147.469L515.938 148.395L517.395 147.998L516.998 146.279L515.542 146.675L514.086 145.749ZM509.49 154.49L507.156 156.967L504.53 158.862L502.341 164.254L501.611 166.587V170.085L502.779 170.959L503.071 173.436H502.049L498.694 174.457H495.483L496.358 176.059L498.109 177.371L499.422 179.12L496.505 178.537L493.587 179.12L493.149 181.453L488.624 181.307L486.802 183.128V181.015L488.187 178.392L485.56 178.829L484.832 180.431L481.621 180.868L477.828 181.743L476.368 183.201L478.994 184.076L478.119 185.095L474.179 186.262L472.794 187.645L467.323 188.448L465.791 189.978L461.777 191.509L460.174 194.859L456.087 194.714L456.234 196.9L458.276 197.046L456.234 198.649L454.774 200.688L456.015 201.928L455.212 203.749L456.379 205.061L454.628 205.498C454.628 205.498 454.628 203.312 453.534 204.405L451.855 206.082L453.315 207.539L455.066 208.123L456.525 210.309L455.066 211.766H452.294L448.5 213.369H442.81V214.244L439.308 212.932H432.451L429.532 215.556L430.262 219.199L431.429 220.365L430.115 223.28L429.24 226.778L430.408 227.943L432.449 231.295L435.223 232.315L435.076 234.356L436.681 236.542L436.097 238.873H432.157L429.604 236.323L428.655 235.376L429.678 232.462L425.883 230.421L423.914 228.454L421.506 228.817L418.589 228.235L418.734 229.984H420.121L420.706 231.586L421.946 232.826L423.77 233.19L425.812 234.283L426.323 236.178L424.936 237.562L425.229 239.092L422.455 239.529L420.449 241.534L421.361 243.464L421.946 242.663L422.893 244.485L426.031 246.234L425.738 249.732V254.76H422.821L421.727 256.509L419.574 258.658L416.912 260.663L417.057 263.358L418.334 264.633L418.734 266.2L420.559 268.022L423.332 268.459L423.697 270.355L424.645 271.301L426.396 269.771C426.396 269.771 427.035 270.882 427.272 270.645C427.509 270.408 429.023 268.97 429.023 268.97L428.949 271.812L431.211 272.249V274.507L432.596 277.859L431.795 279.972H430.7L431.866 282.158L430.919 284.928L429.349 286.494L428.802 288.279L426.761 287.842L426.687 290.175L428.11 291.596L428.583 294.255L427.344 296.441L428.657 297.753V299.794L431.866 301.688L433.108 304.238L431.136 306.06V307.517L432.159 309.266V311.889L430.846 312.91L432.449 315.824H434.2L435.951 317.573L437.264 320.196L437.557 323.549L436.098 325.006L436.827 328.066L440.183 328.795L441.861 330.471L443.54 328.795L444.123 332.293L443.54 335.354L444.561 337.685L442.591 339.652L440.476 342.349L439.015 345.118L441.204 348.178V351.821L439.089 353.935L438.87 357.215L437.629 358.453L434.2 361.877L434.246 366.352L437.931 368.775L442.064 370.57L439.908 374.16L434.696 376.404L431.372 379.724L425.981 375.778L420.231 378.199L419.152 381.791L415.287 379.817L412.502 380.532L409.132 377.168L405.493 378.558L400.82 378.02L399.563 376.136H394.531L391.027 374.611L386.354 375.327L382.939 382.958L383.21 387.533L378.357 388.879L374.402 391.751L373.954 394.803L369.818 397.218L368.505 399.077L366.152 401.428L363.252 402.793H359.75L357.561 402.137L355.044 400.825L354.059 402.246H351.105L349.244 401.044L347.603 400.279L345.086 399.514L343.116 398.858V397.109L344.539 395.688L342.241 393.393L340.052 394.923L339.038 396.612L336.988 398.858L336.769 401.153L337.754 404.105L335.456 405.198V406.837L337.426 407.821L338.794 409.189L339.505 410.881L341.693 412.084V414.051L340.654 415.091L337.863 415.582L334.197 419.245V421.812L333.595 423.342L332.063 424.872L330.86 425.091V427.059L329.382 428.536L328.562 430.228V431.977L330.75 432.999L331.918 436.642L331.188 438.682V441.451L329.363 443.273L330.167 445.823L333.377 446.698L336.295 444.949L338.41 447.061L337.463 450.487L340.38 451.362L341.986 449.758L344.612 451.362H347.531V453.401L344.029 455.005L343.154 458.94H345.633L348.697 457.483L350.303 459.814L353.805 457.92L357.89 456.754L360.297 454.349L362.559 454.275L365.623 454.13L367.812 451.944H370.438L371.169 453.985L369.418 456.316H367.374V458.94L369.855 459.959L371.678 461.782L373.357 465.353L374.961 466.955L377.442 469.433L379.193 475.262V480.071L381.527 482.257V485.755L384.008 490.127L384.738 493.917L385.759 497.27L387.655 501.058L390.867 500.475L392.47 497.123L394.806 496.395L396.41 498.289V500.475L398.016 502.077L399.767 503.826L402.976 503.244L404.436 504.703L408.083 504.118L409.908 502.298H413.629L415.415 504.083L418.151 505.285L420.195 507.179L420.778 510.677L423.259 512.28L424.425 514.904L427.489 516.798V520.296L431.429 521.315L434.93 522.482L438.725 521.025L440.987 518.765L441.789 521.752L443.394 524.668L444.708 526.854L448.938 527.583L450.836 525.687L454.483 523.648L458.86 523.793L461.268 521.389L464.696 520.588L465.281 517.527H468.198L471.117 514.612L475.932 511.551H479.726L480.747 508.491H483.956L486.511 505.941L489.647 507.324L492.128 509.802L496.068 508.2L499.424 509.22L502.196 511.988L504.53 514.32L508.762 515.778L511.681 516.653L515.766 515.923L519.705 516.945H523.937H526.709L529.992 513.666L533.42 511.406V507.908L530.867 505.357V502.079L529.043 499.893L529.628 496.103L531.597 494.136L533.42 490.419L535.682 488.16L535.751 488.092L535.571 485.397L534.149 483.976L533.629 481.489L535.188 479.931V477.363L536.884 475.668L540.715 471.843L541.754 470.804L543.067 469.493L545.092 470.75L544.654 472.717L547.39 474.029L549.031 475.559L552.643 476.652L554.284 478.292L556.145 479.275L558.224 481.352L562.929 480.369L564.68 482.227L566.869 484.085H569.167V486.162L570.809 488.785H573.216H574.967L575.733 491.408L579.016 489.55H581.424V485.287L584.816 481.899L588.756 477.199L590.725 472.171L595.923 466.979L601.778 459.929L602.654 449.545L604.733 442.658L601.559 441.675L599.918 433.805L598.495 427.356L599.589 425.279L601.122 423.749L598.605 422L596.197 421.235L595.322 417.3L599.918 413.911H602.216V410.96L604.405 409.976L607.578 411.069L610.861 409.867V407.025L613.159 405.385L614.363 406.697H618.084L620.272 405.167L621.64 406.533L626.182 407.462L628.042 405.604L630.012 406.697L632.912 403.801H635.155V398.062L637.782 396.75L639.423 393.362L642.159 394.018L643.472 395.329L640.299 398.281L642.925 398.499L645.114 397.297L648.397 398.171L649.71 395.657L652.008 394.236L652.555 391.394L651.515 390.356V388.553L649.163 389.536L644.949 385.328L646.099 382.322L644.785 381.011L645.88 378.497L644.84 377.458L647.357 374.944L649.71 375.108L651.078 376.474H652.883L654.616 375.166L654.604 375.154L655.105 373.561L650.958 369.417L649.773 366.142L647.95 365.959V363.865L645.991 361.727L644.395 360.133H642.07V362.364L640.022 364.412L636.833 363.956V361.863L635.465 360.68V358.039L632.64 357.676L629.359 356.127L626.26 356.492L623.162 356.038L621.43 358.13L620.565 360.997L618.513 363.045L619.334 365.868L618.241 369.146L615.507 371.877V376.975L611.678 379.612V382.616L610.039 380.341V377.791L608.125 375.882L606.303 376.7L605.846 379.065L601.016 380.886H598.738L597.827 383.617L596.368 385.803L593.224 386.028L589.717 382.525L589.351 375.243L589.805 370.874V366.779L590.353 363.137V359.587L587.802 358.494L585.979 357.857L585.705 356.127L584.862 354.149L583.198 352.485V350.53L584.337 349.392L584.657 346.706L583.062 345.114H580.967L578.688 344.021V341.927L579.599 341.017L578.597 340.016L577.776 336.831L575.954 333.553L573.767 332.006L571.306 332.734L568.936 332.916V330.095L570.896 329.548V327.682L568.847 325.636L568.755 323.907L566.614 323.771L565.019 325.364L563.015 324.454L560.371 325.455L559.094 323.907H557.728L556.543 325.091H554.173L552.624 324.363V321.45L553.535 320.539V318.628L552.805 316.444L554.539 313.713L555.541 310.892L552.533 307.886L551.713 303.881L549.16 302.514V299.966L550.163 299.056L549.16 298.055V295.688L546.427 294.595L545.607 295.415L544.786 292.957L546.154 291.591L547.611 289.224L549.799 288.587L548.977 282.944L548.339 279.302V277.39L545.788 272.748L545.514 267.921L542.963 266.193L541.869 263.643L541.08 261.682L541.082 260.48L544.146 259.277L547.32 254.796L549.509 254.14L552.463 255.015L553.339 253.047V250.642L551.697 249.003L552.463 246.161L554.652 245.396V243.1L554.542 240.149L556.95 238.51L559.741 235.722L560.342 233.698H561.546L561.327 230.747H559.029L556.95 226.812V223.205L555.09 221.347L551.15 218.505V216.975L548.195 215.882L547.159 213.709L547.662 210.779L546.42 209.539L545.124 207.587L544.464 205.897L545.468 204.842L545.759 203.443L544.596 202.519L544.218 199.961H542.467L540.279 200.106L540.424 202.439L540.279 203.605L542.029 203.751L543.124 204.844L541.737 207.54L539.403 208.415L536.922 210.454C536.922 210.454 536.484 213.077 535.171 213.077C533.858 213.077 531.524 213.807 531.524 213.807L528.898 215.409L529.481 218.324L526.854 219.491L527.584 216.867L528.167 213.077L530.575 210.673L531.669 207.394L535.171 206.519L536.047 202.002L538.235 199.816L539.111 195.734V194.277L542.029 190.779L543.707 189.102L545.094 186.26L546.552 184.221V181.306L548.23 179.63L546.407 176.498L543.488 174.894L542.32 173.729L545.239 174.312L545.531 171.251L543.562 169.284L542.029 167.754L541.007 168.92L539.256 167.461L537.797 164.548L536.12 162.871L533.858 163.964L532.181 162.288L529.188 164.401H526.271L523.06 166.15L524.373 167.461L523.645 169.94C523.645 169.94 521.309 168.918 520.434 168.918C519.558 168.918 519.705 167.024 519.705 167.024L521.601 165.129L519.486 163.016H516.641L515.728 163.926L511.096 163.672L512.992 161.194L515.254 158.936L514.598 155.947L512.409 156.239L509.49 154.49ZM519.78 157.52L519.249 158.314L520.442 159.108L520.971 158.183L519.78 157.52ZM464.695 165.06L464.033 166.117L464.96 166.912L466.151 165.192L464.695 165.06ZM486.809 165.59L485.483 167.175L483.762 167.573L485.352 168.763L486.94 167.175L486.809 165.59ZM442.481 181.671L441.77 182.382L442.7 183.201L444.232 182.764L442.481 181.671ZM439.669 189.396L438.212 190.585L439.005 192.173L440.33 191.908L439.669 189.396ZM451.056 201.298L449.466 202.092C449.466 202.092 450.128 204.077 450.128 203.812C450.128 203.547 451.32 203.283 451.32 203.283L451.056 201.298ZM439.139 206.722L438.874 208.176H441.124L442.317 209.366L442.449 207.382L441.124 207.119L439.139 206.722ZM424.574 220.078L423.382 220.476L422.455 221.666L422.983 223.253L423.91 224.443L425.235 222.99L425.764 221.27L424.574 220.078ZM537.432 486.454L537.384 486.502L537.432 486.454Z" fill="#F2E8DB" stroke="#505353"/>
<path d="M831.622 0.882776C831.562 0.874819 831.48 0.916931 831.37 1.02624C830.495 1.90068 828.014 2.62994 828.014 2.62994L825.388 6.27287H824.367L820.865 7.58452L818.822 9.62545L817.363 11.6647L817.071 14.288L815.465 14.1428V15.4545L817.801 16.0369L815.027 17.9326L814.152 20.5559L816.778 21.2835L820.865 21.5755L824.367 20.8463V22.5951L820.865 24.4909L818.895 26.4584L815.903 24.1988L812.548 25.2202L810.212 22.8872L808.171 24.0537L804.96 25.5105L802.333 28.2807L797.373 29.7375L794.746 33.5256L791.099 34.9842L788.107 37.9712L785.188 40.8866L782.052 42.7072L777.675 44.603L775.413 46.8625L770.452 51.8171L766.001 56.1175L764.835 60.3429L762.354 63.9875L761.479 66.6108L762.354 69.0872H760.313L757.977 70.3989L757.686 73.4594L755.06 74.7711L754.33 77.5413V79.1433H757.248L758.124 81.1842L761.771 80.6001L766.731 82.7862L768.337 83.0782L769.213 85.4095L768.482 87.7425L765.565 88.47L762.354 89.9286L760.02 90.803H756.664L754.475 88.6169L756.592 86.5026L753.818 83.7341L752.286 85.2643L750.682 88.178L752.724 91.0934L752.141 92.8422L753.6 94.2991L752.724 97.7968L749.077 100.42V103.335L747.179 105.23H744.99L743.677 107.708V112.517L740.905 115.286V117.326L742.292 118.712H739.447L736.82 120.824L733.171 122.428L729.087 118.346L727.117 116.379L723.104 116.597L718.289 117.326L715.517 120.679L712.453 123.74L708.805 129.131V133.358L705.887 137.001L703.115 139.772L700.051 139.917L697.277 138.458L693.338 140.644C693.338 140.644 694.213 144.434 693.776 143.997C693.338 143.56 691.004 141.081 691.004 141.081L688.96 143.414H685.751C685.751 143.414 683.782 142.758 684.73 141.811C685.678 140.864 686.919 139.187 686.919 139.187L684.292 137.293L679.915 139.187L676.851 140.646L675.538 144.289L674.953 146.33L675.829 150.992V153.763L673.349 156.094L674.078 150.41L671.306 149.536L669.117 151.722L666.636 152.888L667.659 148.953C667.659 148.953 670.43 147.932 670.43 147.057C670.43 146.183 669.847 145.601 669.847 145.601L665.615 147.495L660.217 149.536L659.049 152.886L654.964 154.927H652.191L650.295 156.821L653.359 158.717L653.797 160.756L650.587 163.672V166.732L652.338 167.897L653.797 164.109L654.817 164.983V168.189L657.298 169.501L659.487 171.687L660.508 172.271L658.319 174.457L655.548 174.31L653.942 176.059L652.702 177.299L656.131 178.829V181.015L652.921 180.141L650.149 180.286L646.355 181.16L644.312 184.95L645.042 188.738H641.395L638.184 189.613L636.142 187.574L632.493 187.136V189.76L634.391 191.654V193.695L635.266 195.881L636.725 200.69L636.433 203.459L633.078 201.71L631.765 203.021L628.701 202.439L626.512 200.98L623.667 198.139L620.674 198.212V195.881C620.674 195.881 619.361 193.841 619.361 194.569C619.361 195.297 617.757 196.026 617.757 196.026L615.714 193.985L616.882 192.82L618.778 192.236V189.03L617.319 187.572L614.546 189.321V186.552L612.869 184.875H611.191L612.357 181.306L608.856 180.139L607.835 181.16L604.625 178.682C604.625 178.682 604.333 180.067 603.239 180.067C602.144 180.067 602.29 182.762 602.29 182.762L601.123 183.637L599.956 182.325L598.788 182.617L598.205 184.366L595.871 182.762L594.339 181.232L592.514 182.617L590.763 180.868L590.325 182.617L589.742 185.968L591.931 189.321L592.369 192.234C592.369 192.234 593.098 194.858 592.369 194.858C591.639 194.858 588.429 195.442 588.429 195.442L585.365 198.065L582.301 199.23L580.55 196.461L580.112 198.063L579.965 199.23H575.443L573.035 196.825L574.058 195.804L572.961 194.128L568.584 195.44L563.041 196.46L559.392 198.355L556.694 201.051L555.307 202.439L557.35 204.333H555.307L553.556 201.857V198.941L552.024 197.411L550.199 199.963L549.616 201.711L546.698 200.545L544.218 199.963L544.596 202.523L545.759 203.445L545.468 204.844L544.464 205.899L545.124 207.588L546.421 209.54L547.662 210.78L547.159 213.711L548.195 215.884L551.15 216.977V218.507L555.09 221.349L556.95 223.207V226.814L559.029 230.749H561.327L561.546 233.7H560.342L559.741 235.724L556.95 238.511L554.543 240.151L554.652 245.397L552.463 246.163L551.697 249.005L553.339 250.644V253.049L552.463 255.016L549.509 254.142L547.32 254.798L544.146 259.279L541.082 260.482V261.684L541.869 263.645L542.963 266.194L545.514 267.925L545.788 272.749L548.341 277.391V279.302L548.979 282.944L549.799 288.588L547.612 289.225L546.154 291.592L544.786 292.959L545.607 295.416L546.427 294.597L549.162 295.69V298.057L550.165 299.059L549.162 299.97V302.518L551.713 303.884L552.533 307.889L555.541 310.893L554.539 313.715L552.807 316.446L553.535 318.632V320.543L552.624 321.453V324.367L554.175 325.094H556.545L557.73 323.911H559.096L560.372 325.458L563.015 324.457L565.021 325.368L566.614 323.774L568.755 323.911L568.849 325.641L570.899 327.689V329.555L568.94 330.102V332.923L571.31 332.742L573.77 332.013L575.957 333.56L577.78 336.838L578.601 340.023L579.604 341.025L578.693 341.936V344.03L580.971 345.123H583.069L584.662 346.714L584.344 349.401L583.204 350.538V352.496L584.867 354.156L585.71 356.137L585.984 357.865L587.807 358.504L590.36 359.595V363.146L589.812 366.787V370.883L589.356 375.252L589.72 382.534L593.229 386.037L596.373 385.81L597.832 383.625L598.743 380.894H601.021L605.851 379.074L606.308 376.708L608.131 375.889L610.046 377.8V380.35L611.685 382.626V379.62L615.512 376.982V371.884L618.246 369.153L619.341 365.875L618.52 363.052L620.57 361.004L621.435 358.139L623.167 356.045L626.266 356.501L629.366 356.135L632.645 357.683L635.472 358.048V360.688L636.84 361.872V363.966L640.029 364.42L642.079 362.372V360.142H644.402L645.998 361.735L647.957 363.874V365.969L649.78 366.15L650.965 369.428L652.878 371.339L655.113 373.569L654.612 375.163L654.616 375.166L652.884 376.474H651.078L649.71 375.108L647.357 374.944L644.84 377.458L645.88 378.497L644.786 381.011L646.099 382.322L644.95 385.328L649.163 389.536L651.516 388.553V390.356L652.555 391.395L652.008 394.236L649.71 395.657L648.397 398.171L645.114 397.297L642.925 398.499L640.299 398.281L643.472 395.33L642.159 394.018L639.423 393.362L637.782 396.75L635.155 398.062V403.801H632.912L630.012 406.697L628.042 405.604L626.182 407.462L621.64 406.533L620.273 405.167L618.084 406.697H614.363L613.159 405.386L610.861 407.025V409.867L607.578 411.069L604.405 409.976L602.216 410.96V413.911H599.918L595.322 417.3L596.197 421.235L598.605 422L601.122 423.749L599.59 425.279L598.495 427.356L599.918 433.805L601.559 441.675L604.733 442.659L602.654 449.545L601.778 459.929L595.924 466.979L590.726 472.171L588.756 477.199L584.816 481.899L581.424 485.287V489.55H579.016L575.733 491.408L574.967 488.785H573.216H570.809L569.167 486.162V484.085H566.869L564.681 482.227L562.93 480.369L558.224 481.352L556.145 479.276L554.284 478.292L552.643 476.652L549.032 475.559L547.39 474.029L544.654 472.717L545.092 470.75L543.068 469.493L541.754 470.805L540.715 471.843L536.885 475.669L535.188 477.363V479.931L533.629 481.489L534.149 483.976L535.571 485.397L535.753 488.129L537.432 486.454L540.788 488.932H546.479L549.324 491.772L553.482 490.681H557.13L560.924 492.138L563.624 494.833L565.739 499.278L568.001 501.538L571.575 503.068L576.828 503.505L580.477 502.484L584.269 501.61L587.697 498.185H591.858L598.567 497.237L600.612 498.549L605.718 499.278H611.261L613.305 501.319L614.473 503.505L618.412 504.817L622.789 504.233H628.771L633.004 502.921H637.672L639.495 501.101L643.072 497.53L647.74 495.343L651.095 493.012L653.65 490.461L654.891 486.162L660.144 480.915L663.789 479.311L666.563 480.333L669.627 481.935L673.713 479.604L676.631 477.855L680.57 478.584L685.968 479.021L690.783 477.272L693.629 474.43L695.598 469.84L698.663 468.965V464.883L697.349 463.572L695.161 459.346L696.766 455.264V451.329L697.642 445.063L698.808 442.585L697.642 437.923L695.598 435.882L693.774 434.059L691.513 435.882L689.908 433.841L691.076 430.927L692.68 426.118L694.942 423.858L699.538 421.161L699.523 421.136L701.8 418.861L706.762 415.218H710.409L713.766 414.051L718.143 414.781L721.645 412.885H724.709L730.545 413.469L732.296 415.218L735.215 416.53L736.383 419.59L739.592 420.464L741.926 422.796L745.283 425.419L746.743 428.917L750.245 429.499C750.245 429.499 753.016 431.684 753.016 432.268C753.016 432.852 755.498 434.309 755.498 434.309L757.613 436.423L759.437 439.993L763.814 440.867L768.192 439.265L769.796 437.661H773.735L777.967 437.079L780.739 437.806L784.095 438.681L785.773 437.005L788.912 437.808L790.807 439.702L793.143 441.741V445.094L795.184 445.823L797.958 447.425H800.729L801.459 444.802L804.086 443.927L807.15 442.179L810.214 439.702L809.046 436.058L811.673 432.707L814.007 428.917L814.882 426.001L818.384 424.107H820.865L821.448 426.001L823.563 428.118L825.386 429.938V433.146L823.197 435.332L826.116 438.392L826.846 441.598L828.452 444.366L827.869 446.698L829.91 449.466L830.203 452.819L831.661 456.024L830.495 459.085L832.829 462.73L831.516 465.353L829.401 467.466L826.993 466.665L824.658 467.829L822.616 469.87V472.786L821.01 474.388L819.186 476.21L819.259 479.052L821.886 479.926L824.658 482.695L825.971 486.047L827.576 487.651L830.714 490.783L832.246 494.209V497.123L830.495 500.621L829.473 503.973L830.64 505.14L833.412 505.285V502.954V501.495L834.654 500.257L835.455 497.415L834.872 494.937L835.455 491.294V489.837L837.352 491.731L838.591 492.969V490.274L839.687 487.796L840.782 488.889V490.857L842.897 491.731L845.961 489.982L849.608 488.526H851.506L853.695 484.444L855.591 480.364L858.51 475.554V472.202L858.801 465.206L857.925 459.814L858.801 454.568V447.572V441.888L859.676 438.973V433.434L858.801 427.75L857.925 423.525L856.759 418.861L855.153 414.634L855.3 409.244L853.695 403.997L854.57 398.75V392.629L852.308 390.372L849.61 386.218L848.88 384.177L846.837 380.679L843.918 377.764L843.189 375.287L841.729 373.829L838.008 370.113L835.018 365.814L833.121 359.983L832.684 354.446L831.225 351.676L829.838 350.293L827.139 350.656L824.95 348.47L824.367 346.576H821.74H819.259L820.135 344.972L821.156 343.953L822.542 342.568L820.718 340.745C820.718 340.745 818.675 341.62 817.946 341.62C817.217 341.62 813.861 342.204 813.861 342.204L812.475 340.819L809.339 340.455H805.544L802.335 341.183L800.729 342.786L798.103 344.243L799.708 347.159L801.022 349.637L802.407 351.02L802.042 353.425L800.437 352.26L799.416 353.134L797.811 355.321V356.777L794.893 357.944V356.048V353.425L794.018 352.55L793.143 352.842L791.392 351.531V350.074L789.786 351.823V354.009L791.829 354.883V357.215L790.297 358.745L788.546 356.996L787.16 354.446V352.55L785.409 351.676L783.948 350.219L781.833 352.332L779.935 354.228H777.529L775.814 355.939H773.59L772.277 352.988L773.445 349.782V346.139L775.633 342.494V338.414L776.946 333.46V329.525V326.027L775.486 324.423V319.469L776.362 315.824V310.577V306.642L778.113 303.729L776.069 301.688L774.758 298.335L775.486 293.673L777.675 291.487L775.341 286.822L775.779 282.013L778.258 277.058L780.739 274.58L783.073 270.645L785.19 268.531L788.473 265.253H791.828L794.309 263.65L793.433 262.775L792.265 260.881L794.016 259.278H795.767L797.811 257.384L800.073 255.124L799.124 251.99L802.188 253.157L804.084 251.116L802.479 249.514L801.75 246.743L802.48 244.557L804.376 242.663L806.71 242.081L808.754 239.603L812.839 237.709V236.397L815.612 235.96L818.239 234.938L819.333 236.032L816.925 236.834L816.341 238.728V240.622C816.341 240.622 818.31 241.278 817.654 241.934C816.997 242.59 820.427 241.789 820.427 241.789L821.448 239.02V235.96L824.22 234.795L824.658 232.609L823.637 227.507L828.014 226.78V222.845L830.348 222.116L830.495 219.347H828.306L827.065 220.585L825.388 222.116L823.491 222.408L821.448 220.367V217.743L819.041 215.339L818.239 209.581V205.209L815.612 201.129L816.05 197.047L813.424 195.298L813.276 188.887L814.882 186.991L816.195 182.182V179.851H820.135L821.303 176.353L820.135 173.145L824.22 176.935L825.388 179.412L826.848 180.87L829.037 183.056L829.035 179.412L831.661 180.723L832.829 183.639L833.85 180.286L833.559 174.747L832.099 171.25V166.587L830.274 164.768L831.66 162.804L832.973 162.949L833.265 161.055H830.346L827.939 158.651L825.386 156.099L823.635 154.497L824.51 152.164V149.104L827.72 147.355L829.982 145.097L830.931 146.045L828.158 148.666V152.019L831.222 153.913L833.265 156.536L834.943 158.213L836.767 158.869H838.663L840.561 162.512L842.312 164.261V166.739V168.778L841.29 172.276L841.437 175.191L843.188 176.648L844.939 182.042L846.397 185.685L847.71 190.204L848.878 195.013L851.65 198.656L853.401 204.05L854.131 208.712L855.589 213.084L854.495 214.177L853.182 215.489L854.569 217.894L853.546 220.08L852.306 221.32V222.558L855.006 223.14L857.486 226.638L857.923 229.991L859.967 232.032V235.092L862.886 238.153L867.117 242.371C867.117 242.371 868.359 245.213 869.016 245.869L872.955 248.492L877.04 250.678L883.314 252.574L886.232 253.157L888.859 254.905L890.464 257.091L896.008 260.007L900.823 262.046L905.93 264.379L908.557 267.002H911.475L913.591 269.115L916.291 270.5H920.521L922.126 272.686V269.771L921.396 265.836L919.938 259.715L919.355 255.051L916.581 252.427L912.787 248.639L910.308 247.618L908.849 242.371L910.015 239.748V237.125L913.226 236.687V234.938L908.994 233.919L907.755 232.679L905.2 231.733L902.283 227.215L901.261 221.385L902.721 218.179L905.2 216.575L906.951 215.41L905.93 212.787L903.012 210.454L898.051 211.038L895.936 208.924L893.236 208.268L890.172 203.168L889.296 199.671L892.215 198.796L893.381 196.026L890.536 193.184H888.129L886.634 194.678L882.876 193.84L879.083 191.217L878.353 187.864L874.561 184.076L873.538 186.262L872.151 187.645V188.885L873.246 191.362H869.161L866.753 188.957L862.74 186.844L862.302 183.639L861.719 179.557L858.948 176.788L856.904 174.747L855.153 172.999L852.965 169.356L854.57 167.752V163.964H856.321L859.019 161.267L856.321 160.029V157.259L854.716 153.033L856.467 152.886L858.51 154.927L861.282 156.239V153.906L858.802 150.118V147.932L859.968 143.852L858.365 142.248L861.429 137.876L863.325 133.504L866.972 132.339L869.599 133.651L872.08 131.464L870.474 129.861L867.995 127.091L866.534 121.262V117.035L863.763 114.558L862.304 110.039L861.574 105.377L860.114 101.879L859.238 97.7969V92.5503L858.218 87.8877L855.736 84.0979L856.831 83.0049L853.402 80.7471L854.278 79.4354H857.342L859.238 75.3536L862.157 74.1888V71.1282L860.042 69.0139L858.948 66.464L856.612 68.2129L855.008 66.9012L853.11 67.1916L851.578 68.7218H849.025L848.295 70.1069H845.669V68.066L842.459 68.2129L840.708 68.5032L838.52 68.3581L837.644 69.8149L835.82 71.6372L832.684 71.7089L830.933 73.0206V75.7908L829.035 76.5183L827.576 75.0632L829.91 72.293H828.306L825.825 73.3126L826.846 70.9814L829.91 69.6697H832.099L834.435 65.8799L833.85 62.529L832.684 58.302L830.276 55.8973L828.014 53.6378L826.701 54.9494L826.555 52.1809H824.367L821.156 53.0554L819.186 51.0879V49.1204L816.633 48.6832L817.508 47.8088L818.822 47.2247L817.727 46.1316L817.946 44.7482L819.405 45.6227L821.01 46.9343H823.782L825.68 45.4758L827.576 46.9343L829.984 44.5296V40.8133L828.889 38.6272L831.371 34.9825H834.142L836.331 35.857L839.395 34.8374L841.001 31.3396L844.065 27.987L847.42 27.6967L848.733 23.9069L846.253 23.1793V22.0128H849.318L848.295 19.6816V17.7858L846.691 19.8267L845.086 20.264L843.189 17.3486L840.489 14.6536V16.1838L837.061 14.8722L835.455 16.4742L832.829 16.0369L836.186 13.8508V10.7903C836.186 10.7903 837.061 8.167 836.186 9.04144C835.31 9.91588 833.121 9.91588 833.121 9.91588L834.725 6.565L833.267 5.10647L831.371 3.50447C831.371 3.50447 832.041 0.938596 831.622 0.882863L831.622 0.882776ZM755.699 24.2006L754.685 25.2594L752.466 26.4174L750.657 28.226L750.824 31.3344L750.051 32.1064L750.438 34.6135L751.886 36.7347L753.382 40.2069L755.699 40.6885L757.267 39.1207L758.45 36.9755L757.148 35.5785L759.078 32.781L758.741 29.7444V26.1288L756.859 24.6344L755.699 24.2006ZM633.923 97.474L633.127 98.9291L633.989 99.7882L634.983 98.9291L633.923 97.474ZM654.982 108.584L652.07 109.907L650.546 111.692L648.891 113.345H648.229L646.972 111.824L644.919 113.873L643.529 115.263L642.535 116.256L640.548 115.328L640.815 116.387L641.477 117.313L642.934 119.429L645.781 120.421L647.567 118.636H649.951L652.335 117.711L654.518 116.717L655.91 115.328V113.479L657.1 110.172L654.982 108.584ZM637.636 118.636L635.915 119.166H631.677L630.287 120.554L628.102 122.074L626.514 120.488L622.673 121.678L622.938 124.059L623.932 125.051L625.388 126.505L626.382 127.497L624.925 128.687L622.938 126.969L621.88 128.026L620.423 126.571L617.113 127.232L615.656 126.44L614.994 128.158L616.052 129.217L614.066 130.276V132.788L615.656 134.375L615.257 136.226H616.714L618.569 138.079L618.038 140.195L620.423 141.384L623.6 141.517L624.925 142.839H627.307L630.089 142.046V139.93L628.367 138.342L629.294 137.416L630.684 138.805L633.134 134.375L635.451 132.06L636.445 133.053L638.563 130.937L639.225 128.952L636.841 128.158L635.253 129.746L633.268 128.291L630.882 126.836L628.499 125.116L629.294 123.398L630.552 122.141L631.546 125.512L633.068 127.034L635.65 127.497L637.24 126.836H638.563L639.887 125.514L639.225 122.735H637.106L637.636 120.355V118.636ZM610.49 137.813L611.882 139.203L612.742 142.309H614.462V140.591L613.801 139.136L612.609 137.946L610.49 137.813ZM646.772 141.78L645.117 143.302L643.595 144.823L642.072 146.345L642.934 148.395L644.39 149.85L643.462 151.966L644.257 152.76L645.449 150.246L648.494 149.585L651.143 148.526L654.718 146.41L652.865 142.972H650.348L646.772 141.78ZM639.755 142.311L638.166 142.443L636.973 143.502L637.901 146.145L639.425 147.667L640.682 145.22V143.237L639.755 142.311ZM623.991 154.743L623.196 155.404L624.653 156.065L626.507 157.52L627.3 156.461L626.507 155.272L623.991 154.743ZM865.606 168.744L864.091 169.629V172.402L863.84 174.923L865.353 175.933L866.363 177.193L866.49 179.463L868.511 180.219L868.005 177.95L867.121 176.185L868.005 173.284V169.753L865.606 168.744ZM925.575 175.931L923.934 176.308L922.292 177.444L923.176 178.325L924.375 177.128L925.575 175.931ZM917.872 182.742L915.471 183.751L913.201 182.868L911.433 183.499L912.317 185.389H915.347H918.377L920.271 183.499L917.872 182.742ZM549.05 190.32L547.592 190.585L545.143 193.032V194.684H547.195L547.857 196.272L549.579 195.478L551.566 193.495V190.32H549.05ZM921.913 275.801L921.155 278.071L919.957 279.268L921.345 280.655L922.166 282.358L921.913 284.628L921.786 287.528L923.111 288.851L924.563 288.031V285.005L925.89 283.681L924.816 281.097L923.05 279.331L923.175 277.062L921.913 275.801ZM927.342 295.471V297.363L928.603 297.994L929.487 296.86L927.342 295.471ZM818.644 323.972V325.865L819.4 328.008L820.41 327.755L822.842 328.607L824.516 330.279V331.226L826.219 332.927L825.714 335.449L822.811 334.566V336.459L821.927 338.979L825.461 340.115L827.229 343.393L830.51 346.672V348.562L833.54 352.725L835.813 352.977L839.6 354.615L844.398 356.76L846.164 359.659L848.943 363.441L852.099 366.594L855.887 370.377L860.557 376.807L862.704 381.347L865.23 382.104L867.88 383.617L870.406 386.013L872.425 389.922L874.066 392.066L876.465 394.462L878.989 396.983V399.377L882.777 402.907L884.923 405.052L886.564 407.071L888.583 405.432L887.068 402.152L885.049 400.134L884.418 397.613L885.427 395.027H888.647L890.098 393.577C890.098 393.577 893.507 395.217 894.139 395.217C894.771 395.217 894.139 393.705 894.139 393.705L892.371 391.434L889.402 389.733L887.699 391.434L884.923 391.307L883.785 388.911H881.64L879.747 387.021H876.464L874.318 385.634L871.794 383.111L870.153 381.472C870.153 381.472 869.644 377.941 870.024 377.562C870.404 377.184 868.383 374.915 868.383 374.915L866.237 371.636V370.124L866.743 368.232L866.237 365.585H868.131L870.53 364.828L871.792 363.568L872.297 361.928L868.762 360.542L866.741 358.902L863.587 357.011L859.924 355.119L857.147 352.723L852.855 350.328L849.699 347.553L846.416 346.293L844.017 345.662L840.293 341.816L838.337 339.862L837.075 336.457L835.56 334.313H833.667L830.133 332.044L829.375 330.025L826.219 329.395L824.451 327.629L823.567 325.612L821.927 324.855L818.644 323.972ZM938.83 332.291L937.567 332.418V335.193V337.461H939.335L938.83 335.318V333.931V332.291ZM787.714 340.238L785.315 340.744L784.053 342.13V343.895V345.787L786.199 344.904L787.336 346.04L788.598 344.779L789.102 342.255L787.714 340.238ZM937.881 351.396L936.177 353.099L935.672 355.242L936.554 357.259L935.925 360.536L937.565 360.916L938.449 358.899L937.943 356.125L938.322 353.729L937.881 351.396ZM934.409 368.23L933.778 368.861L934.284 371.006L935.294 369.491L934.409 368.23ZM930.874 374.536L930.243 377.815L931.064 378.631L930.37 381.093L930.623 384.874L932.138 385.506L932.642 383.487L931.885 379.455L933.273 378.068L933.02 375.164L930.874 374.536ZM929.612 393.198L927.087 393.575L927.593 396.223L927.844 398.745L928.855 399.123V397.106L929.612 395.466V393.198ZM935.799 395.09V396.223L937.44 397.106V395.213L935.799 395.09Z" fill="#F2E8DB" stroke="#505353"/>
<path d="M192.573 182.181L192.938 179.485L197.388 175.04H204.829L207.163 170.959V163.089L211.833 160.757L217.961 157.697L222.192 159.3H224.673L226.716 161.34L229.221 159.596L228.612 162.652L231.092 162.36L234.594 162.506V164.838L235.324 167.461L233.719 166.441L232.041 164.765L230.509 166.295L231.238 169.064V171.834L233.719 173.145L235.616 175.039V178.1L237.732 179.12V182.546L240.139 184.95L241.306 189.03V193.257L240.577 196.9L241.452 198.941L241.525 203.386L244.079 205.937L243.933 209.142L243.349 214.389L240.796 218.835L236.929 222.696H232.843L228.32 223.571L224.381 222.114L220.076 219.709L217.377 217.012V213.077L214.605 210.309L213.291 207.248L212.27 204.333L210.373 201.127L209.352 195.735L207.309 194.86L207.966 191.581L209.643 189.906L207.601 187.865L206.653 190.415L205.266 191.8L205.85 195.006L205.923 198.723L204.318 200.325L206.434 202.439L205.85 205.646L203.807 210.163L200.233 211.256L197.388 214.098L196.292 219.272L193.593 221.968L195.782 228.818L193.667 232.535L196.658 235.522L199.868 238.728L203.516 236.105L204.245 232.462L202.348 230.567L202.64 227.36V224.883L205.121 222.26H207.601L208.476 228.818L209.279 233.118L211.833 235.668L213.438 239.02L217.596 240.258L218.837 239.02L217.815 236.542L220.295 234.502L220.441 229.401L224.965 230.13L229.196 228.527L232.698 230.421L236.637 229.183H239.336L241.015 230.858L243.495 234.648L241.452 236.688V239.895L243.276 237.635L245.83 235.086L249.332 234.357L252.25 230.13V226.487L253.417 224.009L257.21 222.115V219.783L260.858 217.597V213.954L260.274 210.456H262.754L263.557 212.277L266.84 215.556L269.32 219.346V224.446L268.445 227.07L267.132 228.381L264.943 226.195L261.879 225.467L257.21 227.069V230.859L258.377 234.357V237.272L261.733 238.147L264.943 239.603L268.591 237.855V235.231L272.384 234.357L276.032 236.106L275.448 233.774L281.139 234.794L284.203 234.212L289.747 234.939H292.958L294.562 237.855H296.022V235.231L300.691 233.774H303.173L304.194 237.563H301.422L300.546 240.186L298.358 240.915L301.713 243.976H304.048L308.425 242.082L312.584 242.883L317.107 247.401L318.64 245.871H321.704L325.571 244.632L327.103 246.162L326.665 248.203L324.33 249.806V252.283L327.103 254.615L327.321 251.919L328.562 250.68L331.48 251.408V249.077L334.253 248.64L334.836 245.142L334.399 240.915L337.025 239.603L339.286 238.948L341.986 241.644L343.153 240.478L346.144 244.194L349.573 247.619L352.346 250.389L353.024 251.772L351.834 253.521L350.412 254.942L349.536 255.816L350.959 257.165L351.251 258.258L352.345 258.623V260.881V263.577H350.959L350.302 265.18L349.135 265.763L348.697 268.459L351.615 269.916V271.811L348.916 272.904L351.177 275.163L347.675 276.911L345.049 279.535H342.277L341.255 282.741H336.294L331.625 283.762L326.956 286.385V289.592L323.162 289.446L320.354 289.883L318.822 291.632L316.086 293.053L313.35 295.785L310.833 296.113V293.818L308.973 293.162L306.73 295.402L303.72 298.409L302.407 300.923L302.954 304.092L299.452 306.279L299.124 308.902L296.169 310.76L294.199 314.476L294.746 316.99L293.543 319.286V321.253L289.931 324.86L289.439 327.429L288.071 328.795L287.305 330.872L282.271 330.107L278.55 328.686L275.267 326.937L271.875 324.642H270.343L269.467 326.5L267.99 326.991L266.95 325.953L265.473 325.461L263.996 326.937L261.369 325.953L259.071 327.156L256.992 325.079L253.818 323.658L251.958 324.314L250.426 322.456L250.754 320.597L249.988 319.395L248.128 318.739L246.705 320.16L245.666 319.121L244.626 320.16L241.671 318.521L240.304 321.198L241.781 322.674V324.423L239.552 325.302H237.185L235.841 326.645L233.665 326.9L232.961 325.302L231.745 324.088L229.442 326.261L227.779 324.6L225.091 323.321L222.531 323.961L221.508 326.9L219.843 328.946L218.82 327.923L219.716 325.878L219.076 323.577V321.404L217.541 319.87V317.697L219.46 315.779V313.862L222.275 313.223V310.283L224.067 308.493L223.797 306.279L222.484 305.623L222.995 304.02L221.572 302.599L221.025 302.052L220.222 300.741L219.128 300.376L217.559 301.724L214.352 304.928L212.369 306.908L209.605 305.681L208.069 307.087L211.268 310.411L209.221 311.433V314.118L208.261 315.076L204.869 312.073L203.078 314.885L199.878 314.118L198.535 315.46L196.552 312.584L193.608 310.922L191.176 309.772L190.153 306.96L187.273 304.084L183.498 303.381L181.579 299.29L178.635 300.696L175.435 299.29L171.852 300.185L168.653 301.591L165.197 298.139V295.072V292.387L162.446 289.64L161.038 291.046L157.391 288.553L155.856 287.019L153.168 287.274L151.37 287.601V284.679L152.124 282.229L150.049 281.569L147.689 282.04L144.67 280.627L142.216 279.684L140.235 278.741L139.008 277.516L138.631 278.742H136.743L135.328 277.044H133.252L132.733 274.924L131.554 273.746L129.949 272.945H128.015L126.458 274.501H124.005L122.777 275.726L120.748 275.49L119.097 273.84H115.984L114.284 272.803L112.067 272.945L110.793 271.673H108.245L106.923 270.353L106.047 268.459L103.786 270.354L103.567 272.175L102.254 273.487L101.962 276.548L101.159 278.296L100.284 279.827H98.2413L97.3659 282.304L95.3961 279.899L92.915 280.119V275.163L90.4348 272.831L87.6622 272.102L88.5377 269.916L89.2678 267.585L87.2245 265.544L85.9113 262.63L86.349 260.589L89.1216 257.821L90.7263 254.905L89.9971 252.282L92.332 251.7L95.8338 249.514V246.453L97.2923 244.704L100.94 244.558L102.545 242.663L102.691 240.477L105.755 239.311L108.236 235.96L111.592 236.105L114.51 234.356L118.45 235.23L119.034 233.044L120.347 231.733L122.827 232.898L124.869 235.084L128.08 236.105L129.247 238.728L130.415 241.644L132.166 239.895L131.873 235.668L129.247 233.336V228.381L131.582 227.798L132.311 227.069L129.101 225.758L127.204 223.572H140.562L159.888 223.426L166.016 221.239V217.45L167.038 207.832H171.124L174.626 205.062V201.273L177.252 200.253V195.297L179.586 195.152L184.693 191.071L187.174 192.237L192.573 182.181V182.181ZM201.453 218.228L200.924 219.021L201.851 220.212L203.042 219.021L201.453 218.228ZM324.863 220.079H323.406L321.817 217.699L320.891 218.228L318.111 215.583L315.991 213.334L316.786 210.953L318.905 210.292L319.699 208.97L318.242 207.78L318.375 204.605L317.448 204.341L316.521 201.96L314.535 201.828L312.946 199.58L313.476 196.669L315.594 193.76L318.111 194.024L318.905 194.95L319.831 195.347L320.228 193.627L323.274 192.702L325.658 190.189L324.069 188.47L326.188 187.147L328.571 188.073L329.233 186.089V184.105H332.278L333.735 185.56L335.258 184.039L335.588 182.65L338.9 181.989L337.774 180.865L334.927 179.872V178.815L338.238 177.888L341.68 176.963L343.401 175.244H345.652V173.657L348.831 173.524L347.11 171.805L349.89 171.673L350.949 172.731L350.816 170.086L352.141 168.763L350.684 167.043L351.611 165.588L353.2 167.176H355.187V165.191L358.099 166.249L359.556 164.662L361.013 162.943H362.867L366.044 161.489L368.296 162.282H371.606L373.791 160.1L376.373 160.298L377.564 162.018H380.345L381.669 163.34L384.053 162.678H387.363L389.549 160.497L392.13 159.108L395.573 157.785H398.751L400.605 160.695V163.869L397.824 166.382L395.308 168.763L391.998 169.028L388.025 170.879L384.45 169.557L382.729 171.276L378.624 171.144H373.327L371.341 173.26H367.237L364.191 174.979L365.118 177.095L362.998 177.888L360.483 177.624H358.232L357.967 179.079L355.584 178.417V180.798L353.2 182.518L351.214 183.973V181.724L349.625 183.18L350.022 185.825H348.433L347.307 184.7V185.957V187.941L346.149 186.783L344.66 188.27L343.401 189.528H341.679L340.355 191.247L338.634 194.156H335.854L333.602 196.008V198.522L331.351 199.448L330.556 202.093L328.703 203.944V207.251L327.776 209.631L328.967 213.07L327.908 216.509L329.365 218.758L330.027 221.138L329.233 221.932L326.982 222.99V221.27L324.863 220.079V220.079ZM409.213 90.0737L408.119 90.4016L408.994 91.604V92.697H410.526V90.6202L409.213 90.0737ZM408.885 99.3646L408.119 100.567L405.274 101.113L403.413 102.097L404.836 102.753L404.179 104.283L405.383 104.611H407.791L409.706 102.698L411.129 101.277L410.636 99.146L408.885 99.3646ZM399.802 97.3971L399.201 97.9979L400.349 99.146L402.428 98.3809V96.632H401.225L399.802 97.3971ZM398.216 100.84L396.628 99.0367L395.425 100.239L394.549 101.988V104.174L396.41 104.502L396.847 105.814L399.145 105.267L400.623 103.791L401.718 102.698L402.319 100.895H400.678L398.216 100.84ZM391.704 108.437L390.993 109.147V110.514H392.47L393.017 108.765L391.704 108.437ZM388.64 102.862L387.874 102.097H385.466V103.737L384.153 105.048L384.919 105.814L387.546 105.267L388.53 106.251L390.829 105.704L391.485 104.174L393.127 104.721L392.251 102.753L390.774 101.277L388.64 102.862ZM400.787 84.6085L400.13 85.9201L401.28 87.0674L402.374 85.9743L400.787 84.6085ZM398.379 87.669H396.628V89.6365L398.489 91.4947V93.0249L400.13 92.2598L399.145 90.183L398.379 87.669ZM387.436 93.3528H385.904L385.576 93.6808L386.835 94.9373L387.436 93.3528ZM388.749 95.8669L387.71 96.9048L388.749 98.0529L389.953 97.9436L388.749 95.8669ZM389.734 91.0574V92.4784H391.266L390.938 90.8388L389.734 91.0574ZM391.869 94.6094V95.8669H393.127L392.142 94.8831L391.869 94.6094ZM393.127 97.5064L393.674 98.0529L394.659 97.0692L393.127 97.5064ZM394.659 91.7133V93.2435L395.972 93.3528V91.7133H394.659ZM392.689 88.6527L393.455 90.0737L394.167 89.3628L393.455 88.6527H392.689ZM378.572 97.8343L377.752 98.6537L379.174 100.075L380.761 100.13V97.5064L379.666 96.0855L378.572 97.8343ZM382.183 96.0855L382.73 97.6157H383.825V96.3041L382.183 96.0855ZM376.055 87.3411L374.961 88.4341V89.6365L373.703 90.893L371.459 89.3086L369.599 90.2923V91.604L367.3 89.9644L365.55 90.6202L366.097 93.2435L367.738 92.697V94.4459L369.489 94.8831L371.076 93.2977L373.319 92.3691L375.18 92.9156H377.915L379.885 90.9481L378.025 89.09L379.284 87.8325L377.149 86.5759L376.055 87.3411ZM369.817 84.6085H367.41L365.987 83.1875L365.002 85.155L366.261 86.4115L366.753 87.8876L369.599 86.9039L370.583 87.8876L372.444 87.1225L373.21 87.8876V86.248L371.952 84.9906H370.802L369.817 84.6085ZM371.952 96.1397H371.021L371.349 97.5064L373.319 97.6157L371.952 96.1397ZM372.334 99.0367L371.349 100.02L372.115 100.786L373.976 101.223L372.772 100.02L372.334 99.0367ZM380.323 84.9364V86.3573H381.417L382.512 85.2643L380.323 84.9364ZM33.1278 224.752L35.3988 225.261L37.3449 224.706L38.0864 223.271L39.847 223.548L41.4929 225.192L41.562 227.437L42.9059 227.854L43.1843 229.613L45.2696 229.983L45.7327 228.316L44.5981 227.183L45.5708 226.211L46.1967 226.836L48.1893 228.501V231.002L47.9109 233.177L49.0691 235.075L50.2283 235.861L50.645 238.685L49.6259 240.814L44.7601 243.267L37.3913 234.519L33.1278 224.752ZM334.133 227.883L332.015 228.941L330.426 229.47L330.823 232.909L331.088 234.761L332.545 235.157L333.074 237.934L335.856 238.199L336.782 235.951L335.457 233.703L335.59 231.19L334.133 227.883V227.883ZM287.258 216.377L284.346 217.17L282.624 219.419L281.3 221.138L282.226 223.65L284.346 224.445L286.331 225.237L288.186 223.915L290.436 224.311L291.628 221.535L289.775 219.154L289.641 217.17L287.258 216.377V216.377Z" fill="#C19253" stroke="#505353"/>
<path d="M97.1098 467.019L97.309 464.514L96.5949 462.639L95.0006 462.092L94.0373 460.599L92.0277 459.172L92.0444 455.821L90.7988 454.013L90.4002 451.774L88.8225 450.181V448.456L87.6931 446.98L86.215 445.47L85.1189 443.413L86.1486 441.456L85.2019 438.851L83.7903 437.458L83.3585 435.633L81.98 434.024L81.6977 431.901L80.0369 431.221L77.4129 431.669L76.2669 430.508L75.6192 428.6L74.3902 429.015L72.9287 429.015L72.2976 427.123L70.6036 426.277L69.5739 425.149L67.9464 425.183L66.7008 426.476L64.6414 426.742L63.8941 425.531L62.7149 425.133L61.6686 426.394L61.652 428.135L60.4562 429.894L61.5523 430.839L62.4159 432.581L61.2202 434.489L62.6318 435.915L60.2071 437.773L58.6792 438.188L59.2438 440.311L58.5131 441.837L56.2876 444.608L53.4311 444.591L52.1855 442.716L51.3551 440.958H49.9268L48.4653 442.418L46.3893 442.733L44.6123 444.508L45.3597 447.428L47.5851 450.812L48.5484 454.179L51.8035 456.402L53.9625 457.414L55.2745 460.848L57.7491 462.871L57.1512 465.791L59.2106 467.665L59.7919 472.327L61.8347 474.384L65.0566 474.815L66.8668 476.656L67.3651 478.166L69.8563 478.448L70.587 481.085L72.7626 483.424L71.9156 485.929L70.5704 488.086L72.6464 490.707L73.7757 493.726L73.7923 495.667L76.1507 497.243L76.3832 500.759L78.0107 505.553L78.4425 508.324L81.6645 509.087L85.0525 507.909L87.3444 508.937L90.8818 507.328L90.5829 502.65L91.1642 498.885L90.284 493.941L90.2673 489.844L93.4892 484.586L94.9507 483.292V482.263L96.6281 480.604L98.0232 475.263L97.143 472.476L95.6151 470.95L95.5984 468.578L97.1098 467.019Z" fill="#BF9259" stroke="#505353"/>
<path d="M15.6244 378.357L14.8296 377.662L13.8273 376.866L13.0891 376.329L12.4066 375.872L9.69924 375.804L8.12361 375.985L6.79209 375.218L5.48277 374.812L4.72824 374.339L3.57426 375.376L3.7296 376.819L4.86139 377.405L6.17072 377.811L6.92524 379.908L7.08058 381.531L6.68113 382.839L6.88086 384.643L6.32606 386.334L4.46194 387.258L3.4855 388.273L2.06521 388.431L1 390.167L1.57699 392.286L2.1096 393.864L4.21783 395.262L6.52579 395.014L7.8795 394.315L9.92115 393.368L11.408 393.774L13.3165 395.014L13.8822 396.069L14.4066 396.735L15.3807 397.62L17.6203 398.393L19.9314 398.43L22.5375 398.396L23.6018 400.591L24.2082 402.181L27.269 404.157L30.2481 404.72L31.3038 403.008L33.7984 403.392L31.4198 400.99L31.1521 400.023L30.717 399.287L30.2573 398.797L27.6046 398.375L24.6878 396.777L22.6113 393.565L23.9057 391.648L24.5109 388.853L24.1662 386.312L23.7989 385.963L22.9682 385.343L22.8125 384.88L23.4452 382.116L21.9641 380.637L21.9089 378.346L20.2027 378.064L19.9202 379.207L18.5157 379.078L16.6842 379.381L15.6244 378.357Z" fill="#F2E8DB" stroke="#505353" stroke-linecap="round"/>
<path d="M44.6268 444.512L43.0221 444.22L41.8551 442.763L40.3957 440.722L38.4986 441.014L37.3316 437.517L37.7693 430.813L37.1854 425.857L36.0184 423.381L34.559 421.194L34.8505 416.822L33.0996 415.219L31.9326 412.887L32.8081 410.264L32.0788 407.349L33.6835 405.745L35.4345 405.455L37.7693 408.368L39.958 409.097L40.9797 406.911L43.4599 405.892L46.8155 405.745H48.5664L50.7551 406.474L51.1928 402.831L50.0258 400.645L50.6098 398.749L52.3607 399.041L53.9654 400.208L55.7164 401.81L57.0296 400.498L59.072 401.373L62.4277 401.81L64.9079 402.831L65.4918 400.208L63.7409 398.896L61.2607 398.312L59.6551 396.71L57.9041 396.126L60.0928 393.795L63.3031 392.338L66.0757 393.503L68.5559 392.483L70.8908 394.961L74.3926 398.749L77.6021 395.544L79.7907 394.232L79.2077 391.025L81.2501 388.985L83.2926 389.277L83.1473 386.944L88.5454 386.217L89.567 383.739L90.7341 382.282L91.8564 383.402V385.244H94.3839L95.402 386.665H97.4348L98.7568 385.344H102.519L105.926 381.942L106.993 378.44H111.162L113.195 376.61L115.33 377.017L115.839 378.643L118.076 379.861H121.024L120.822 382.4L121.737 385.853L124.99 386.26L126.922 387.276V389.003L129.871 388.9L133.328 392.251L133.735 396.314L131.091 398.853L133.023 400.681L134.091 399.615L136.175 400.377L136.785 403.322L138.157 404.693H140.242L140.649 406.876L142.428 408.653L142.533 411.574L141.511 413.907L139.615 415.29H136.769L134.507 417.55L132.611 419.444V422.067L130.13 423.088L127.504 422.942L125.607 424.837L123.271 426.443L124.219 429.285L126.335 431.399L125.459 435.187L123.562 437.083L125.459 438.248L128.232 440.871L129.983 442.62L129.254 446.41L130.056 451.364V455.373L128.524 456.903L127.065 455.299L124.876 455.009L125.168 457.632L126.408 460.182L128.232 462.004L126.773 463.461L124.292 463.753H122.25H120.645H119.332C119.332 463.753 117.581 463.972 116.195 463.972C114.809 463.972 115.101 462.879 115.101 462.879L112.912 462.295L111.891 461.275L109.265 460.836V462.875L107.223 463.75L104.741 466.663H101.97L98.9056 467.538L97.1179 467.065L97.3137 464.532L96.5994 462.688L95.021 462.095L94.0491 460.589L92.0624 459.181L92.04 455.798L90.7971 453.978L90.4448 451.795L88.821 450.174L88.828 448.465L87.6419 446.905L86.2157 445.479L85.1276 443.415L86.159 441.439L85.2055 438.843L83.8336 437.46L83.4021 435.704L81.9768 434.003L81.7034 431.89L80.0165 431.221L77.4232 431.688L76.2862 430.531L75.6286 428.6L74.4264 429.012L72.9115 429.016L72.3105 427.123L70.6494 426.301L69.5528 425.117L67.9311 425.192L66.7192 426.427L64.6304 426.716L63.9005 425.547L62.7126 425.161L61.7029 426.394L61.6831 428.165L60.4523 429.904L61.5714 430.812L62.4172 432.581L61.2416 434.478L62.6323 435.929L60.1811 437.773L58.6949 438.215L59.2656 440.281L58.528 441.845L56.2221 444.621L53.4585 444.6L52.2202 442.737L51.3673 440.971L49.9511 440.947L48.4611 442.409L46.3959 442.728L44.6268 444.512Z" fill="#F2E8DB" stroke="#505353"/>
</svg>
