<svg width="20" height="18" viewBox="0 0 20 18" fill="none" xmlns="http://www.w3.org/2000/svg">
<path d="M19.7587 7.75039C19.4268 7.34273 19.0045 7.16802 18.4917 7.16802C16.6214 7.16802 14.7511 7.16802 12.911 7.16802C12.6998 7.16802 12.4887 7.13891 12.2775 7.10979C12.0664 7.08067 11.8854 6.99332 11.7647 6.81861C11.6139 6.61478 11.644 6.35272 11.7044 6.11977C11.7949 5.74123 11.9155 5.33358 12.0362 4.95504C12.2474 4.13973 12.4887 3.32442 12.6998 2.50911C12.7903 2.18881 12.8205 1.86851 12.7602 1.51909C12.6395 1.08232 12.3982 0.703781 12.006 0.412598C11.463 0.0340616 10.8899 -0.111529 10.2262 0.0922984C9.77376 0.237889 9.44193 0.558189 9.17044 0.936726C8.74812 1.54821 8.32579 2.15969 7.93363 2.77117C6.93816 4.2562 5.94268 5.77035 4.94721 7.25538C4.82655 7.43009 4.73605 7.63392 4.67572 7.83774C4.40422 7.83774 4.10256 7.83774 3.83107 7.83774C2.92609 7.83774 1.99095 7.83774 1.08597 7.83774C0.452488 7.83774 0 8.30363 0 8.91512C0 10.2546 0 11.594 0 12.9334C0 14.2729 0 15.6123 0 16.9226C0 17.5341 0.482654 18 1.11614 18C2.59427 18 4.04223 18 5.52036 18C5.61086 18 5.67119 18 5.76169 17.9709C5.85219 18 5.94268 18 6.03318 18C7.72247 18 9.44193 18 11.1312 18C12.8507 18 14.54 18 16.2594 18C16.7119 18 17.0739 17.8544 17.3152 17.4759C17.4661 17.272 17.5867 17.0391 17.6772 16.8353C17.8884 16.1947 18.0694 15.525 18.2504 14.8552C18.4917 13.9235 18.7632 13.0208 19.0045 12.089C19.3364 10.8952 19.6682 9.70131 20 8.50746C20 8.27452 19.9397 7.98333 19.7587 7.75039Z" fill="#828282"/>
</svg>
