<svg width="24" height="16" viewBox="0 0 24 16" fill="none" xmlns="http://www.w3.org/2000/svg">
<path d="M23.9999 2.02496V13.9421C24.0012 14.0213 23.9828 14.1002 23.946 14.1738C23.8358 14.4067 23.5725 14.5714 23.2632 14.6008C23.2332 14.6036 23.2026 14.6048 23.1722 14.6041H0.827693C0.797298 14.6048 0.766903 14.6036 0.736691 14.6008C0.427428 14.5714 0.164307 14.4067 0.0538955 14.1738C0.0170916 14.1002 -0.0012188 14.0213 6.29273e-05 13.9421V2.02496C-0.0012188 1.94572 0.0170916 1.86691 0.0538955 1.79323C0.164307 1.56032 0.427428 1.39567 0.736691 1.36623C0.766903 1.36345 0.797298 1.36227 0.827693 1.36301H23.1722C23.2026 1.36227 23.2332 1.36345 23.2632 1.36623C23.5725 1.39567 23.8358 1.56032 23.946 1.79323C23.9828 1.86691 24.0012 1.94572 23.9999 2.02496V2.02496Z" fill="#285680"/>
<path d="M23.9999 2.02496C24.0012 1.94572 23.9828 1.86691 23.946 1.79323C23.8358 1.56032 23.5725 1.39567 23.2632 1.36623C23.2332 1.36345 23.2026 1.36227 23.1722 1.36301H21.8151L14.4827 5.40814V1.36301H9.51726V5.40814L2.18486 1.36301H0.827693C0.797298 1.36227 0.766903 1.36345 0.736691 1.36623C0.427428 1.39567 0.164307 1.56032 0.0538955 1.79323C0.0170916 1.86691 -0.0012188 1.94572 6.29273e-05 2.02496V2.56783L6.21516 5.99729H0.000246031V9.96977H6.21114L0.000246031 13.3992V13.9421C-0.0012188 14.0213 0.0170916 14.1002 0.0540786 14.1738C0.164307 14.4067 0.427428 14.5714 0.736691 14.6008C0.766903 14.6036 0.797298 14.6048 0.827876 14.6041H2.18504L9.51726 10.5589V14.6041H14.4827V10.5589L21.8151 14.6041H23.1722C23.2026 14.6048 23.233 14.6036 23.2632 14.6008C23.5725 14.5714 23.8356 14.4067 23.946 14.1738C23.9828 14.1002 24.0012 14.0213 23.9999 13.9421V13.3992L17.7848 9.96977H23.9999V5.99729H17.7888L23.9999 2.56783V2.02496Z" fill="#ECF0F1"/>
<path d="M23.9452 14.1738C23.835 14.4067 23.5717 14.5714 23.2624 14.6008L14.8667 9.96973H16.3315L23.9452 14.1738Z" fill="#C03A2B"/>
<path d="M9.13219 5.99727H7.66736L0.0537109 1.79321C0.164123 1.5603 0.427243 1.39565 0.736506 1.36621L9.13219 5.99727Z" fill="#C03A2B"/>
<path d="M23.9456 1.79321L16.3237 5.99727H14.8711L23.2628 1.36621C23.572 1.39565 23.8353 1.5603 23.9456 1.79321V1.79321Z" fill="#C03A2B"/>
<path d="M9.12816 9.96973L0.736506 14.6008C0.427243 14.5714 0.164123 14.4067 0.0537109 14.1738L7.67578 9.96973H9.12816Z" fill="#C03A2B"/>
<path d="M0 7.32129H23.9996V8.64535H0V7.32129Z" fill="#C03A2B"/>
<path d="M11.1724 1.36279H12.8276V14.6039H11.1724V1.36279Z" fill="#C03A2B"/>
</svg>
