<svg width="24" height="20" viewBox="0 0 24 20" fill="none" xmlns="http://www.w3.org/2000/svg">
<path d="M23.9999 2.53084V17.4273C24.0012 17.5263 23.9828 17.6248 23.946 17.7169C23.8358 18.0081 23.5725 18.2139 23.2632 18.2507C23.2332 18.2542 23.2026 18.2556 23.1722 18.2547H0.827693C0.797298 18.2556 0.766903 18.2542 0.736691 18.2507C0.427428 18.2139 0.164307 18.0081 0.0538955 17.7169C0.0170916 17.6248 -0.0012188 17.5263 6.29273e-05 17.4273V2.53084C-0.0012188 2.43178 0.0170916 2.33327 0.0538955 2.24117C0.164307 1.95003 0.427428 1.74422 0.736691 1.70742C0.766903 1.70394 0.797298 1.70248 0.827693 1.70339H23.1722C23.2026 1.70248 23.2332 1.70394 23.2632 1.70742C23.5725 1.74422 23.8358 1.95003 23.946 2.24117C23.9828 2.33327 24.0012 2.43178 23.9999 2.53084Z" fill="#285680"/>
<path d="M23.9999 2.53084C24.0012 2.43178 23.9828 2.33327 23.946 2.24117C23.8358 1.95003 23.5725 1.74422 23.2632 1.70742C23.2332 1.70394 23.2026 1.70248 23.1722 1.70339H21.8151L14.4827 6.75981V1.70339H9.51726V6.75981L2.18486 1.70339H0.827693C0.797298 1.70248 0.766903 1.70394 0.736691 1.70742C0.427428 1.74422 0.164307 1.95003 0.0538955 2.24117C0.0170916 2.33327 -0.0012188 2.43178 6.29273e-05 2.53084V3.20942L6.21516 7.49625H0.000246031V12.4618H6.21114L0.000246031 16.7487V17.4273C-0.0012188 17.5263 0.0170916 17.6248 0.0540786 17.7169C0.164307 18.0081 0.427428 18.2139 0.736691 18.2507C0.766903 18.2542 0.797298 18.2556 0.827876 18.2547H2.18504L9.51726 13.1983V18.2547H14.4827V13.1983L21.8151 18.2547H23.1722C23.2026 18.2556 23.233 18.2542 23.2632 18.2507C23.5725 18.2139 23.8356 18.0081 23.946 17.7169C23.9828 17.6248 24.0012 17.5263 23.9999 17.4273V16.7487L17.7848 12.4618H23.9999V7.49625H17.7888L23.9999 3.20942V2.53084Z" fill="#ECF0F1"/>
<path d="M23.9452 17.717C23.835 18.0081 23.5717 18.214 23.2624 18.2508L14.8667 12.4619H16.3315L23.9452 17.717Z" fill="#C03A2B"/>
<path d="M9.13219 7.49635H7.66736L0.0537109 2.24127C0.164123 1.95013 0.427243 1.74432 0.736506 1.70752L9.13219 7.49635Z" fill="#C03A2B"/>
<path d="M23.9456 2.24127L16.3237 7.49635H14.8711L23.2628 1.70752C23.572 1.74432 23.8353 1.95013 23.9456 2.24127Z" fill="#C03A2B"/>
<path d="M9.12816 12.4619L0.736506 18.2508C0.427243 18.214 0.164123 18.0081 0.0537109 17.717L7.67578 12.4619H9.12816Z" fill="#C03A2B"/>
<path d="M0 9.15186H23.9996V10.8069H0V9.15186Z" fill="#C03A2B"/>
<path d="M11.1724 1.70361H12.8276V18.2549H11.1724V1.70361Z" fill="#C03A2B"/>
</svg>
