<svg width="20" height="14" viewBox="0 0 20 14" fill="none" xmlns="http://www.w3.org/2000/svg">
<g clip-path="url(#clip0_2_13917)">
<path d="M7.13776 1.70587C6.52732 1.12097 5.94817 0.56607 5.3612 -7.9155e-05C5.32207 0.0374136 5.2712 0.0749063 5.22816 0.119899C3.63551 1.64213 2.0507 3.16436 0.458054 4.68283C0.0589151 5.06152 -0.113263 5.49644 0.0784807 6.0176C0.141091 6.18632 0.250658 6.35504 0.383705 6.48251C2.02722 8.06848 3.67856 9.6432 5.32599 11.2217C5.33381 11.2292 5.34555 11.2367 5.35338 11.2404C5.93643 10.6743 6.51558 10.1119 7.12211 9.52322C6.1947 8.63838 5.25164 7.73854 4.28509 6.81245C4.39466 6.81245 4.47292 6.81245 4.5551 6.81245C8.00648 6.81245 11.4579 6.81245 14.9132 6.81245C16.0832 6.81245 17.0458 7.46484 17.3902 8.48841C17.8519 9.85691 16.9284 11.3192 15.4414 11.5591C15.2497 11.5891 15.054 11.5966 14.8584 11.6003C12.9096 11.6041 10.9648 11.6003 9.01607 11.6003C8.9378 11.6003 8.85954 11.6003 8.76563 11.6003C8.76563 12.3915 8.76563 13.1826 8.76563 13.9849C8.8165 13.9887 8.87128 13.9962 8.92606 13.9962C11.0157 13.9962 13.1092 14.0037 15.1988 13.9887C16.2201 13.9812 17.1436 13.6475 17.9615 13.0663C19.0063 12.3277 19.695 11.3416 19.9063 10.1194C20.2467 8.16221 19.5933 6.5425 17.9223 5.33897C17.1515 4.78407 16.2749 4.48787 15.3084 4.44663C14.9836 4.43163 14.6588 4.42038 14.334 4.42038C11.0705 4.41663 7.80691 4.42038 4.54336 4.42038C4.46901 4.42038 4.39075 4.42038 4.29292 4.42038C5.25555 3.5018 6.1947 2.60945 7.13776 1.70587Z" fill="#006937"/>
</g>
<defs>
<clipPath id="clip0_2_13917">
<rect width="20" height="14" fill="white" transform="matrix(1 0 0 -1 0 14)"/>
</clipPath>
</defs>
</svg>
