<svg width="38" height="34" viewBox="0 0 38 34" fill="none" xmlns="http://www.w3.org/2000/svg">
<g clip-path="url(#clip0_118_237)">
<path d="M13.8296 27.6803C12.0853 27.6803 10.7148 29.0706 10.7148 30.8401C10.7148 32.6097 12.0853 34 13.8296 34C15.5739 34 16.9444 32.6097 16.9444 30.8401C16.9444 29.0706 15.4493 27.6803 13.8296 27.6803Z" fill="black"/>
<path d="M28.7803 27.6803C27.036 27.6803 25.6655 29.0706 25.6655 30.8401C25.6655 32.6097 27.036 34 28.7803 34C30.5245 34 31.895 32.6097 31.895 30.8401C31.895 29.0706 30.5245 27.6803 28.7803 27.6803Z" fill="black"/>
<path d="M11.0886 11.6283L17.9411 22.7509L25.7903 17.8216L18.9378 6.69888L11.0886 11.6283ZM20.0591 10.6171L13.9542 14.4089L13.0821 12.8922L19.187 9.10037L20.0591 10.6171Z" fill="black"/>
<path d="M31.3967 15.0409C28.5312 15.0409 26.0393 13.6505 24.6689 11.3755H23.423L26.9115 17.0632C27.0361 17.316 27.1607 17.6952 27.0361 18.0743C26.9115 18.4535 26.7869 18.7063 26.4131 18.9591L18.5639 23.8885C18.3148 24.0149 18.0656 24.1413 17.8164 24.1413C17.6918 24.1413 17.5672 24.1413 17.5672 24.1413C17.1934 24.0149 16.9443 23.8885 16.6951 23.5093L9.84262 12.3866C9.71803 12.1338 9.71803 11.7546 9.71803 11.3755L8.09836 6.57248C7.84918 5.81412 7.22623 5.43494 6.47869 5.43494H1.61967C0.747541 5.43494 0 6.1933 0 7.07806C0 7.96282 0.747541 8.72118 1.61967 8.72118H5.23279L6.60328 13.0186L9.21967 23.5093C9.59344 24.8996 10.7148 25.9108 12.2098 25.9108H30.2754C31.7705 25.9108 33.0164 24.8996 33.2656 23.5093L35.0098 15.1673C35.1344 14.7881 35.1344 14.5353 35.0098 14.1561C34.0131 14.6617 32.7672 15.0409 31.3967 15.0409Z" fill="black"/>
</g>
<defs>
<clipPath id="clip0_118_237">
<rect width="38" height="34" fill="white"/>
</clipPath>
</defs>
</svg>
