<svg width="28" height="29" viewBox="0 0 28 29" fill="none" xmlns="http://www.w3.org/2000/svg">
<path d="M8.33325 28.25C7.59992 28.25 6.97192 27.9805 6.44925 27.4415C5.92658 26.9025 5.6657 26.2553 5.66658 25.5C5.66658 24.7437 5.92792 24.0961 6.45058 23.5571C6.97325 23.0181 7.60081 22.7491 8.33325 22.75C9.06658 22.75 9.69458 23.0195 10.2173 23.5585C10.7399 24.0975 11.0008 24.7447 10.9999 25.5C10.9999 26.2563 10.7386 26.9039 10.2159 27.4429C9.69325 27.9819 9.0657 28.2509 8.33325 28.25ZM21.6666 28.25C20.9333 28.25 20.3053 27.9805 19.7826 27.4415C19.2599 26.9025 18.999 26.2553 18.9999 25.5C18.9999 24.7437 19.2613 24.0961 19.7839 23.5571C20.3066 23.0181 20.9341 22.7491 21.6666 22.75C22.3999 22.75 23.0279 23.0195 23.5506 23.5585C24.0732 24.0975 24.3341 24.7447 24.3333 25.5C24.3333 26.2563 24.0719 26.9039 23.5493 27.4429C23.0266 27.9819 22.399 28.2509 21.6666 28.25ZM7.19992 6.25L10.3999 13.125H19.7333L23.3999 6.25H7.19992ZM3.83325 21.375L7.79992 13.95L2.99992 3.5H0.333252V0.75H4.66658L5.93325 3.5H27.9333L21.2999 15.875H9.79992L8.33325 18.625H24.3333V21.375H3.83325Z" fill="black"/>
</svg>
