<svg width="10" height="13" viewBox="0 0 10 13" fill="none" xmlns="http://www.w3.org/2000/svg">
<g clip-path="url(#clip0_2_13282)">
<path d="M1.33596 1.37055C1.33596 3.59919 1.33596 9.39723 1.33596 11.6259C1.36258 11.6259 1.38574 11.6259 1.41005 11.6259C2.46469 11.6259 3.51818 11.6259 4.57282 11.6259C4.89581 11.6259 5.15629 11.8356 5.23153 12.1526C5.3311 12.5733 5.02894 12.9845 4.60871 12.9964C4.44084 13.0012 4.27298 12.9976 4.10627 12.9976C3.16972 12.9976 2.23316 13.0024 1.2966 12.994C0.645983 12.9881 0.0787219 12.4446 0.0115768 11.7796C0.0046307 11.7188 0 11.6545 0 11.5913C0 9.38531 0 3.60038 0 1.39439C0 0.693619 0.457282 0.134672 1.12642 0.0190686C1.19472 0.00715071 1.26418 0.00119179 1.33364 0.00119179C2.41607 0 3.49965 0 4.58324 0C4.90507 0 5.18176 0.235974 5.23848 0.55418C5.29752 0.88788 5.12503 1.21205 4.81709 1.32527C4.73373 1.35625 4.63996 1.36817 4.55082 1.36817C3.5066 1.37055 2.46122 1.37055 1.41699 1.37055C1.39153 1.37055 1.36721 1.37055 1.33596 1.37055Z" fill="#868586"/>
<path d="M7.70416 7.20072C7.68101 7.20072 7.65786 7.20072 7.6347 7.20072C6.64836 7.20072 4.04128 7.20072 3.05494 7.20072C2.75394 7.20072 2.50273 7.01599 2.41011 6.73354C2.26772 6.29854 2.57566 5.83732 3.02252 5.83255C3.58284 5.82659 5.7639 5.83017 6.32537 5.83017C6.76297 5.83017 7.20057 5.83017 7.63817 5.83017C7.65901 5.83017 7.67869 5.83017 7.7169 5.83017C7.65554 5.76581 7.60692 5.71456 7.55714 5.66332C7.21562 5.31055 6.87295 4.95897 6.53144 4.6062C6.32769 4.39526 6.27327 4.09016 6.39136 3.82677C6.50944 3.56339 6.76992 3.40726 7.05818 3.4311C7.21794 3.44421 7.3557 3.51214 7.468 3.62774C8.24595 4.42743 9.02507 5.22831 9.80187 6.02919C10.0635 6.29854 10.0658 6.72162 9.80419 6.99335C9.17904 7.6393 8.55158 8.28286 7.92412 8.92762C7.77246 9.08374 7.62312 9.24106 7.47031 9.3948C7.27582 9.58906 7.04429 9.64865 6.78844 9.56403C6.53375 9.47941 6.38094 9.28992 6.3381 9.01819C6.30222 8.79294 6.3682 8.59392 6.52565 8.43064C6.90421 8.03974 7.28393 7.65121 7.66364 7.26269C7.67985 7.24601 7.69953 7.23409 7.7169 7.21979C7.71227 7.21264 7.70879 7.20668 7.70416 7.20072Z" fill="#868586"/>
</g>
<defs>
<clipPath id="clip0_2_13282">
<rect width="10" height="13" fill="white"/>
</clipPath>
</defs>
</svg>
