<svg width="33" height="29" viewBox="0 0 33 29" fill="none" xmlns="http://www.w3.org/2000/svg">
<g clip-path="url(#clip0_118_229)">
<path d="M24.6607 0C23.1119 0 21.6823 0.364017 20.491 1.09205C18.5848 2.1841 17.1552 4.12552 16.5596 6.30962C15.9639 4.00418 14.5343 2.1841 12.6282 1.09205C11.3177 0.364017 9.88809 0 8.45848 0C3.81227 0 0 3.88284 0 8.61506C0 10.1925 0.357401 11.6485 1.0722 12.8619C1.0722 12.9833 2.1444 14.318 3.45487 15.7741C6.90975 19.6569 14.1769 26.6946 16.2022 28.7573C16.3213 28.8787 16.4404 29 16.4404 29C16.5596 28.8787 16.5596 28.8787 16.6787 28.7573C18.704 26.8159 25.9711 19.6569 29.426 15.7741C30.7365 14.318 31.8087 12.9833 31.8087 12.8619C32.5235 11.6485 32.8809 10.1925 32.8809 8.61506C33 3.88284 29.3069 0 24.6607 0Z" fill="black"/>
</g>
<defs>
<clipPath id="clip0_118_229">
<rect width="33" height="29" fill="white"/>
</clipPath>
</defs>
</svg>
