<svg width="30" height="20" viewBox="0 0 30 20" fill="none" xmlns="http://www.w3.org/2000/svg">
<path fill-rule="evenodd" clip-rule="evenodd" d="M13.5321 0.0699001C10.7175 0.35324 7.605 1.71259 5.04225 3.7777C3.64712 4.90193 2.15326 6.46714 0.952303 8.06319C0.264747 8.97687 0.0618259 9.35882 0.0131123 9.83076C-0.0455442 10.399 0.0803358 10.7517 0.641262 11.5909C2.86814 14.9224 6.02415 17.5662 9.38983 18.9194C14.7365 21.0692 20.6609 19.9758 25.4448 15.9566C27.0073 14.6438 29.1735 12.118 29.7906 10.8894C30.01 10.4526 30.0619 9.86697 29.9196 9.43217C29.5565 8.32195 27.0014 5.32297 25.1634 3.84968C21.6083 1.00002 17.5127 -0.330877 13.5321 0.0699001ZM17.0653 2.17741C19.4585 2.60188 21.6789 3.63287 23.8189 5.31321C25.0759 6.30018 26.6316 7.98927 27.6605 9.48401L28.0143 9.99804L27.6398 10.5551C26.635 12.0494 24.8492 13.9488 23.5011 14.9571C20.9411 16.8719 18.2984 17.8641 15.4394 17.9843C11.1833 18.163 6.76561 15.9893 3.53744 12.1279C3.03786 11.5303 2.43203 10.7143 2.11574 10.213L1.99267 10.0179L2.54791 9.27503C5.68415 5.07896 9.57074 2.56261 13.6884 2.06209C14.4448 1.97017 16.2431 2.03158 17.0653 2.17741ZM13.96 4.09099C12.701 4.31949 11.6734 4.86729 10.7471 5.80385C9.94181 6.61797 9.42322 7.54316 9.14288 8.66582C8.99443 9.26027 8.99437 10.7429 9.1427 11.337C9.42185 12.4546 9.92393 13.3552 10.7181 14.1627C11.3438 14.7989 11.6197 15.003 12.3477 15.3682C13.8574 16.1256 15.6169 16.2061 17.1823 15.5894C18.6952 14.9935 19.9935 13.6948 20.5898 12.1812C20.8921 11.414 20.9676 10.9781 20.9676 10.0017C20.9676 8.74236 20.7674 7.9964 20.137 6.90713C19.7414 6.22351 18.7786 5.26237 18.0801 4.85378C16.8243 4.1192 15.3296 3.84249 13.96 4.09099ZM15.8459 6.09282C17.7345 6.4859 19.0972 8.2788 18.9832 10.2206C18.9219 11.2635 18.5456 12.0861 17.781 12.8482C15.8689 14.7538 12.6596 14.2167 11.4368 11.7864C10.8574 10.6348 10.8582 9.36695 11.4392 8.21233C12.2609 6.57939 14.0496 5.71905 15.8459 6.09282Z" fill="#6E5B55"/>
</svg>
