<svg width="22" height="22" viewBox="0 0 22 22" fill="none" xmlns="http://www.w3.org/2000/svg">
<path d="M17.7461 0H4.25391C1.90781 0 0 1.90781 0 4.25391V8.74844V17.7547C0 20.1008 1.90781 22.0086 4.25391 22.0086H17.7461C20.0922 22.0086 22 20.1008 22 17.7547V8.73985V4.24531C21.9914 1.90781 20.0836 0 17.7461 0ZM18.9664 2.53516H19.4562V3.01641V6.26484L15.7352 6.27344L15.7266 2.54375L18.9664 2.53516ZM7.85469 8.73985C8.55937 7.76875 9.70234 7.12422 10.9914 7.12422C12.2805 7.12422 13.4234 7.76016 14.1281 8.73985C14.5922 9.37578 14.8586 10.1578 14.8586 11C14.8586 13.1313 13.1227 14.8758 10.9828 14.8758C8.84297 14.8758 7.12422 13.1313 7.12422 11C7.12422 10.1578 7.39922 9.37578 7.85469 8.73985ZM19.8516 17.7461C19.8516 18.9062 18.9062 19.8516 17.7461 19.8516H4.25391C3.09375 19.8516 2.14844 18.9062 2.14844 17.7461V8.73985H5.43125C5.14766 9.43594 4.98438 10.2008 4.98438 11C4.98438 14.3172 7.68281 17.0156 11 17.0156C14.3172 17.0156 17.0156 14.3172 17.0156 11C17.0156 10.2008 16.8523 9.43594 16.5688 8.73985H19.8516V17.7461Z" fill="white"/>
</svg>
