<svg width="125" height="28" viewBox="0 0 125 28" fill="none" xmlns="http://www.w3.org/2000/svg">
<path d="M42.8302 16.6414L44.9695 14.4465L43.7279 11.2539L28.7751 11.2539L26.0215 13.9476L27.2679 16.6414L42.8302 16.6414Z" fill="#F19151"/>
<path d="M38.8217 27.9352L51.9994 14.4465L46.8827 6.34096e-07L39.351 0L43.7279 11.2539L44.9695 14.4465L42.8302 16.6414L31.8221 27.9352H38.8217Z" fill="#F19151"/>
<path d="M15.2569 16.6813H10.6723L7.52385 27.9352H0.933594L8.749 0H15.3393L12.1796 11.2938H16.9279L27.6192 0H34.6188L21.4714 13.4887L22.7131 16.6813L27.09 27.9352H19.5582L15.2569 16.6813Z" fill="#42D6F5"/>
<path d="M71.6987 6.40214H69.96L68.7806 10.6007H66.2812L69.209 0.178664H71.7083L70.5246 4.39216H72.3254L76.3654 0.178664H79.0199L74.0513 5.21104L76.2009 10.6007H73.3445L71.6987 6.40214Z" fill="#243338"/>
<path d="M83.1668 10.7794C82.0387 10.7794 81.0849 10.5462 80.3052 10.0796C79.5359 9.61313 79.0068 8.97292 78.718 8.159C78.4423 7.33516 78.4481 6.41206 78.7353 5.38971C79.0224 4.36735 79.5339 3.44921 80.2697 2.6353C81.0185 1.81146 81.9087 1.16628 82.9401 0.699768C83.9819 0.233256 85.0668 0 86.1949 0C87.3229 0 88.2716 0.233256 89.0409 0.699768C89.8103 1.16628 90.3379 1.81146 90.6239 2.6353C90.9128 3.44921 90.9136 4.36735 90.6264 5.38971C90.3392 6.41206 89.8211 7.33516 89.0723 8.159C88.3262 8.97292 87.4374 9.61313 86.406 10.0796C85.3746 10.5462 84.2948 10.7794 83.1668 10.7794ZM83.7439 8.72477C84.3856 8.72477 85.0042 8.58581 85.5997 8.30789C86.198 8.02004 86.7132 7.62301 87.1451 7.11679C87.5875 6.61058 87.8993 6.03488 88.0805 5.38971C88.2617 4.74453 88.2734 4.16883 88.1155 3.66262C87.9679 3.1564 87.6744 2.76433 87.235 2.48641C86.7985 2.19856 86.2593 2.05464 85.6177 2.05464C84.976 2.05464 84.3561 2.19856 83.7577 2.48641C83.1622 2.76433 82.6433 3.1564 82.201 3.66262C81.769 4.16883 81.4624 4.74453 81.2811 5.38971C81.0999 6.03488 81.0831 6.61058 81.2306 7.11679C81.3886 7.62301 81.6858 8.02004 82.1224 8.30789C82.5618 8.58581 83.1023 8.72477 83.7439 8.72477Z" fill="#243338"/>
<path d="M101.827 2.14397H96.6578L94.2977 10.6007H91.7984L94.7261 0.178664H102.395L101.827 2.14397Z" fill="#243338"/>
<path d="M112.11 8.63544L110.951 12.7596H108.623L109.229 10.6007H101.561L100.954 12.7596H98.6256L99.7997 8.63544H100.234C100.892 8.61559 101.481 8.159 102.001 7.26568C102.521 6.37236 103.045 5.09689 103.572 3.43929L104.613 0.178664H112.964L110.589 8.63544H112.11ZM105.729 3.66262C105.329 4.90334 104.928 5.94555 104.525 6.78924C104.125 7.62301 103.699 8.23841 103.246 8.63544H108.105L109.928 2.14397H106.203L105.729 3.66262Z" fill="#243338"/>
<path d="M122.026 8.36744H116.981L115.391 10.6007H112.814L120.585 0.178664H123.069L125 10.6007H122.361L122.026 8.36744ZM121.749 6.53613L121.146 2.54597L118.302 6.53613H121.749Z" fill="#243338"/>
<path d="M67.4174 21.6425H65.6788L64.4993 25.8411H62L64.9277 15.4191H67.427L66.2434 19.6326H68.0441L72.0841 15.4191H74.7387L69.7701 20.4514L71.9196 25.8411H69.0633L67.4174 21.6425Z" fill="#243338"/>
<path d="M86.732 15.4191L79.7889 23.6674C79.1208 24.4615 78.414 25.062 77.6684 25.4689C76.9331 25.8759 76.1981 26.0794 75.4633 26.0794C74.8941 26.0794 74.3376 25.9602 73.794 25.722L74.9138 23.8907C75.3123 24.0198 75.6563 24.0843 75.9461 24.0843C76.2566 24.0843 76.5555 24.0148 76.843 23.8758C77.1332 23.7269 77.425 23.4986 77.7184 23.191L77.845 23.0718L75.7102 15.4191H78.3958L79.7106 21.0172L84.2638 15.4191H86.732Z" fill="#243338"/>
<path d="M97.2762 23.8758L96.1177 28H93.7891L94.3956 25.8411H86.7269L86.1204 28H83.7919L84.966 23.8758H85.4006C86.0582 23.856 86.647 23.3994 87.167 22.5061C87.687 21.6128 88.2109 20.3373 88.7387 18.6797L89.7788 15.4191H98.1305L95.7549 23.8758H97.2762ZM90.8958 18.903C90.4955 20.1437 90.0941 21.1859 89.6915 22.0296C89.2917 22.8634 88.8653 23.4788 88.4122 23.8758H93.2711L95.0947 17.3844H91.369L90.8958 18.903Z" fill="#243338"/>
<path d="M107.192 23.6078H102.147L100.557 25.8411H97.9802L105.751 15.4191H108.235L110.166 25.8411H107.527L107.192 23.6078ZM106.915 21.7765L106.313 17.7864L103.469 21.7765H106.915Z" fill="#243338"/>
</svg>
