<?xml version="1.0" standalone="no"?>
<!DOCTYPE svg PUBLIC "-//W3C//DTD SVG 20010904//EN"
 "http://www.w3.org/TR/2001/REC-SVG-20010904/DTD/svg10.dtd">
<svg version="1.0" xmlns="http://www.w3.org/2000/svg"
 width="213.000000pt" height="50.000000pt" viewBox="0 0 213.000000 50.000000"
 preserveAspectRatio="xMidYMid meet">

<g transform="translate(0.000000,50.000000) scale(0.100000,-0.100000)"
fill="none" stroke="none">
<path d="M262 463 c32 -2 84 -2 115 0 32 2 6 3 -57 3 -63 0 -89 -1 -58 -3z"/>
<path d="M210 440 c0 -6 41 -10 104 -10 59 0 108 4 111 10 4 6 -33 10 -104 10
-67 0 -111 -4 -111 -10z"/>
<path d="M196 383 c-12 -77 -17 -73 98 -73 58 0 107 3 109 8 3 4 8 28 12 55
l7 47 -110 0 -109 0 -7 -37z m133 3 c23 -28 -17 -68 -45 -45 -17 14 -18 31 -2
47 16 16 33 15 47 -2z"/>
<path d="M290 364 c0 -17 22 -14 28 4 2 7 -3 12 -12 12 -9 0 -16 -7 -16 -16z"/>
<path d="M608 383 c-23 -26 -33 -93 -15 -93 9 0 17 15 21 39 6 37 20 51 53 51
12 0 14 -8 9 -45 -6 -36 -4 -45 7 -45 9 0 17 15 21 38 11 70 10 72 -37 72 -29
0 -49 -6 -59 -17z"/>
<path d="M737 393 c-3 -5 -8 -29 -11 -55 -6 -40 -5 -48 8 -48 9 0 16 9 16 20
0 16 7 20 30 20 23 0 30 -4 30 -20 0 -36 27 -22 34 18 12 72 11 72 -48 72 -30
0 -57 -3 -59 -7z m83 -28 c0 -10 -10 -15 -30 -15 -20 0 -30 5 -30 15 0 10 10
15 30 15 20 0 30 -5 30 -15z"/>
<path d="M875 388 c-2 -7 -6 -31 -7 -53 l-3 -40 55 0 c50 0 55 2 58 24 4 28
-12 41 -50 41 -16 0 -28 5 -28 10 0 6 20 10 45 10 25 0 45 5 45 10 0 15 -110
13 -115 -2z m75 -68 c0 -5 -13 -10 -30 -10 -16 0 -30 5 -30 10 0 6 14 10 30
10 17 0 30 -4 30 -10z"/>
<path d="M1015 388 c-3 -7 -6 -31 -8 -53 l-2 -40 55 0 54 0 8 40 c5 21 6 45 4
52 -7 17 -105 18 -111 1z m85 -20 c-1 -40 -13 -58 -41 -58 -30 0 -33 8 -23 48
5 16 14 22 35 22 17 0 29 -5 29 -12z"/>
<path d="M1150 383 c0 -10 -3 -35 -6 -55 -5 -31 -4 -38 10 -38 9 0 16 8 16 20
0 16 7 20 34 20 38 0 69 23 64 49 -2 12 -17 17 -61 19 -49 3 -57 1 -57 -15z
m90 -13 c0 -5 -13 -10 -30 -10 -16 0 -30 5 -30 10 0 6 14 10 30 10 17 0 30 -4
30 -10z"/>
<path d="M1297 393 c-3 -5 -8 -29 -12 -55 -6 -40 -5 -48 9 -48 9 0 16 8 16 20
0 16 7 20 30 20 23 0 30 -4 30 -20 0 -11 7 -20 15 -20 9 0 15 9 15 24 0 13 3
38 6 55 l7 31 -56 0 c-31 0 -58 -3 -60 -7z m83 -28 c0 -10 -10 -15 -30 -15
-20 0 -30 5 -30 15 0 10 10 15 30 15 20 0 30 -5 30 -15z"/>
<path d="M1430 390 c0 -5 9 -10 21 -10 19 0 21 -5 17 -45 -2 -31 1 -45 9 -45
12 0 18 16 25 65 2 12 12 21 26 23 46 7 20 22 -38 22 -33 0 -60 -4 -60 -10z"/>
<path d="M1575 388 c-3 -7 -6 -31 -8 -53 l-2 -40 55 0 54 0 8 44 c4 24 5 48 2
52 -8 14 -104 11 -109 -3z m85 -20 c-1 -40 -13 -58 -41 -58 -30 0 -33 8 -23
48 5 16 14 22 35 22 17 0 29 -5 29 -12z"/>
<path d="M1710 383 c0 -10 -3 -35 -6 -55 -5 -31 -4 -38 10 -38 9 0 16 8 16 20
0 16 7 20 34 20 38 0 69 23 64 49 -2 12 -17 17 -61 19 -49 3 -57 1 -57 -15z
m90 -13 c0 -5 -13 -10 -30 -10 -16 0 -30 5 -30 10 0 6 14 10 30 10 17 0 30 -4
30 -10z"/>
<path d="M1850 383 c0 -10 -3 -35 -6 -55 -8 -47 6 -49 46 -8 l30 31 0 -31 c0
-16 5 -30 10 -30 13 0 17 12 23 68 6 51 -5 54 -50 10 l-33 -32 6 32 c5 25 3
32 -10 32 -9 0 -16 -8 -16 -17z"/>
<path d="M1984 385 c-4 -8 -3 -27 0 -41 4 -15 2 -32 -5 -40 -9 -11 -8 -14 7
-14 11 0 25 9 32 20 7 11 19 20 27 20 8 0 15 -9 15 -20 0 -11 7 -20 15 -20 9
0 15 9 15 24 0 13 3 38 6 55 l7 31 -57 0 c-41 0 -58 -4 -62 -15z m86 -15 c0
-5 -13 -10 -30 -10 -16 0 -30 5 -30 10 0 6 14 10 30 10 17 0 30 -4 30 -10z"/>
<path d="M439 378 c0 -7 -2 -44 -3 -83 -1 -75 -8 -95 -32 -95 -12 0 -14 9 -8
45 6 43 5 45 -19 45 -27 0 -27 -1 -43 -92 l-6 -38 82 0 83 0 -6 29 c-3 16 -2
53 2 82 5 30 5 64 0 76 -10 27 -48 51 -50 31z"/>
<path d="M117 351 c-13 -16 -29 -55 -37 -90 -7 -33 -16 -61 -20 -61 -4 0 -10
-9 -13 -21 -5 -18 -1 -20 31 -17 l37 3 12 69 c7 38 20 80 28 92 35 54 4 74
-38 25z"/>
<path d="M166 243 c-4 -27 -9 -56 -12 -65 -4 -14 1 -18 24 -18 28 0 30 3 36
50 4 28 9 57 12 65 5 11 -1 15 -24 15 -28 0 -30 -3 -36 -47z"/>
<path d="M256 273 c-2 -10 -10 -44 -17 -75 -8 -36 -17 -58 -26 -58 -15 0 -33
-40 -33 -75 0 -18 7 -24 33 -29 34 -6 94 1 101 13 2 3 7 25 11 49 6 36 4 42
-10 42 -14 0 -16 6 -12 33 21 124 22 117 -11 117 -21 0 -32 -6 -36 -17z m18
-149 c9 -3 16 -16 16 -29 0 -13 -7 -26 -16 -29 -50 -19 -82 15 -44 46 25 20
23 20 44 12z"/>
<path d="M2000 244 c0 -14 3 -14 15 -4 8 7 15 14 15 16 0 2 -7 4 -15 4 -8 0
-15 -7 -15 -16z"/>
<path d="M577 243 c-4 -3 -7 -19 -7 -35 0 -16 -7 -43 -16 -60 -10 -19 -12 -34
-6 -40 6 -6 12 -6 16 1 9 14 106 14 106 0 0 -6 6 -9 13 -6 8 2 12 27 12 75 l0
72 -56 0 c-31 0 -59 -3 -62 -7z m81 -50 c-3 -34 -6 -38 -34 -41 -29 -3 -31 -1
-27 25 8 48 12 53 38 53 24 0 26 -3 23 -37z"/>
<path d="M726 219 c-3 -17 -6 -47 -6 -65 l0 -34 59 0 c65 0 80 10 80 55 0 17
2 39 3 50 3 18 -3 20 -63 23 l-66 3 -7 -32z m104 -4 c0 -10 -11 -15 -35 -15
-24 0 -35 5 -35 15 0 10 11 15 35 15 24 0 35 -5 35 -15z m-2 -57 c-3 -7 -21
-14 -41 -16 -28 -2 -37 1 -37 12 0 12 11 16 41 16 28 0 39 -4 37 -12z"/>
<path d="M886 219 c-9 -49 -7 -99 5 -99 6 0 25 16 42 35 17 19 33 35 37 35 3
0 4 -16 2 -35 -3 -26 0 -35 11 -35 16 0 27 40 27 96 0 43 -14 43 -54 -1 -18
-19 -35 -35 -37 -35 -3 0 -3 16 -1 35 5 46 -23 49 -32 4z"/>
<path d="M1035 240 c-4 -6 -9 -35 -12 -65 -5 -45 -3 -55 9 -55 11 0 18 15 23
55 l6 55 50 0 c27 0 49 5 49 10 0 13 -117 13 -125 0z"/>
<path d="M1182 238 c-5 -7 -13 -37 -17 -65 -6 -43 -4 -53 8 -53 8 0 18 11 21
25 5 21 12 25 41 25 31 0 35 -3 35 -25 0 -14 6 -25 14 -25 13 0 26 48 26 103
0 26 -1 27 -59 27 -35 0 -63 -5 -69 -12z m93 -28 c0 -10 -12 -16 -37 -18 -37
-3 -51 12 -31 32 13 13 68 2 68 -14z"/>
<path d="M1330 240 c0 -5 12 -10 26 -10 26 0 27 -1 20 -55 -5 -45 -3 -55 9
-55 15 0 22 20 27 75 2 24 8 31 31 33 55 7 25 22 -43 22 -40 0 -70 -4 -70 -10z"/>
<path d="M1491 236 c-7 -8 -11 -36 -9 -63 l3 -48 63 -3 c38 -2 62 1 62 8 0 5
-22 10 -50 10 -38 0 -50 4 -50 15 0 11 12 15 45 15 33 0 45 4 45 15 0 11 -12
15 -45 15 -35 0 -43 3 -39 15 5 11 21 15 60 15 30 0 54 5 54 10 0 16 -126 12
-139 -4z"/>
<path d="M1656 228 c-8 -13 -18 -42 -22 -65 -5 -35 -4 -43 9 -43 10 0 18 14
22 40 8 48 29 72 59 68 19 -3 21 -8 18 -55 -3 -41 -1 -53 11 -53 9 0 16 15 21
46 11 86 12 84 -49 84 -46 0 -57 -4 -69 -22z"/>
<path d="M1799 223 c-5 -15 -9 -43 -7 -62 l3 -36 59 -3 c32 -2 64 2 69 7 8 8
-6 11 -46 11 -44 0 -57 3 -57 15 0 11 12 15 45 15 33 0 45 4 45 15 0 11 -11
15 -40 15 -29 0 -40 4 -40 15 0 12 13 15 55 15 30 0 55 5 55 10 0 6 -28 10
-65 10 -62 0 -66 -1 -76 -27z"/>
<path d="M1950 216 c0 -18 -3 -48 -6 -65 -9 -43 10 -41 59 7 l39 37 -4 -37
c-3 -31 -1 -38 14 -38 13 0 18 8 18 28 0 15 3 44 6 65 5 27 3 37 -7 37 -7 0
-31 -17 -52 -37 l-40 -38 6 38 c5 32 3 37 -14 37 -15 0 -19 -7 -19 -34z"/>
<path d="M30 115 c0 -13 12 -15 67 -13 42 2 68 8 71 16 3 9 -15 12 -67 12 -57
0 -71 -3 -71 -15z"/>
<path d="M350 115 c0 -12 14 -15 65 -15 51 0 65 3 65 15 0 12 -14 15 -65 15
-51 0 -65 -3 -65 -15z"/>
</g>
</svg>
