<svg width="96" height="97" viewBox="0 0 96 97" fill="none" xmlns="http://www.w3.org/2000/svg">
<g clip-path="url(#clip0_118_15)">
<path d="M63.6 6.2C63 7.8 61.2 8.8 60.1 9.3C59.9 9.4 59.7 9.5 59.6 9.5C59.6 9.5 59.6 9.5 59.6 9.6C59.9 10.5 60.4 12.3 60.8 13.9C60.8 14.1 60.9 14.2 60.9 14.4C60.9 14.5 60.9 14.5 60.9 14.6C60.9 14.7 60.9 14.8 61 14.9C61.7 14.6 62.5 14.2 63.3 13.9C63.8 14.9 65.3 17.4 68.2 20.1C71.9 23.5 74.5 24.4 74.6 24.4C74.7 24.4 74.9 24.4 75 24.3C75.1 24.2 75.2 24.1 75.2 23.9L75.3 22.5C75.6 22.9 75.9 23.4 76.2 24C76.9 25.3 76.8 26.4 76.8 26.6L76.5 28.1L76.4 28.4C76.4 28.5 76.4 28.5 76.4 28.6C76.4 28.7 76.5 28.8 76.6 28.9C76.6 28.9 76.7 28.9 76.7 29C77.2 29.3 78.5 30.4 77.7 31.8C76.7 33.5 74.5 32.6 74.4 32.6C74.2 32.5 74 32.6 73.9 32.7C73.9 32.7 72.3 34.2 70 35.6C68.1 36.8 65.7 38 63.2 38.4C63.3 38.5 63.5 38.7 63.6 38.8C63.7 38.9 63.9 39.1 64 39.2C66.4 41.8 68 44.6 68.7 47.5L76.3 44.2C75.1 41.2 73.2 38.5 70.8 36.3C72.6 35.2 73.9 34 74.4 33.6C75.5 34 77.5 34.1 78.5 32.3C79.4 30.8 78.6 29.5 77.7 28.7C78.3 28.5 78.8 28.5 79.1 28.7C79.3 28.9 79.5 29.4 79.7 30C79.7 30.2 79.9 30.3 80.1 30.3C80.3 30.3 80.5 30.3 80.6 30.1C83.7 26.1 84.2 22.3 82.2 19.2C81.6 18.3 81.1 17.5 80.5 16.9C80.5 16.9 80.5 16.8 80.4 16.8C80.3 16.7 80.3 16.6 80.2 16.5C80.4 16.5 80.7 16.5 80.9 16.5C81.3 16.5 81.6 16.8 82 17.2C82.4 17.6 82.8 18 83.5 18.1C83.6 18.1 83.8 18.1 83.9 18C84 17.9 84.1 17.7 84 17.6C83.8 16.2 83.6 15.5 83 14.3C82.5 13.4 81.7 12.5 80.6 11.5C79.4 10.5 75.8 7.7 71.9 7.6C69.6 5.1 66.1 4.4 63.6 4.6C63.6 4.8 63.6 4.9 63.6 5.1C63.6 5.3 63.6 5.4 63.6 5.6C63.7 5.7 63.7 6 63.6 6.2Z" fill="black"/>
<path d="M75.5 32.1C75.7 32.1 75.9 32 75.9 31.8C75.9 31.8 76 31.6 76.3 31.4C76.4 31.3 76.5 31.3 76.6 31.3C76.8 31.4 77.1 31.4 77.2 31.2C77.4 31 77.4 30.7 77.2 30.5C77.2 30.5 76.7 30.1 75.9 30.5C75.2 30.8 75.1 31.3 75 31.4C74.9 31.6 75 31.9 75.3 32C75.4 32.1 75.4 32.1 75.5 32.1Z" fill="black"/>
<path d="M68.5 28.8C68.8 28.9 69 28.9 69.3 28.9C70.4 28.9 70.9 28.3 71 28.2C71.2 28 71.1 27.7 70.9 27.5C70.7 27.3 70.4 27.4 70.2 27.5C70.2 27.5 69.7 28 68.7 27.8C67.6 27.5 67.3 26.9 67.3 26.9C67.2 26.7 66.9 26.6 66.7 26.7C66.5 26.8 66.4 27.1 66.5 27.3C66.5 27.4 67 28.4 68.5 28.8Z" fill="black"/>
<path d="M61.7 30.8C61.8 30.8 62 30.8 62.1 30.8C62.4 30.7 62.5 30.5 62.5 30.2C62.4 29.9 62.2 29.8 61.9 29.8C61.5 29.9 61 29.7 60.6 29.3C60.4 29.1 60.1 29.1 59.9 29.3C59.7 29.5 59.7 29.8 59.9 30C60.4 30.5 61 30.8 61.7 30.8Z" fill="black"/>
<path d="M57.8 31.6C57.7 31.3 57.5 31.2 57.2 31.3C56.9 31.4 56.8 31.6 56.9 31.9C57.3 33.3 58.4 34.3 59.9 34.7C60.2 34.8 60.6 34.8 60.9 34.8C61.7 34.8 62.5 34.6 63.2 34.2C63.4 34.1 63.5 33.8 63.4 33.6C63.3 33.4 63 33.3 62.8 33.4C61.9 33.8 60.9 34 60.1 33.8C58.9 33.5 58.1 32.7 57.8 31.6Z" fill="black"/>
<path d="M83.5 35.6C83.4 35.8 83.6 36.1 83.8 36.2L84.6 36.4L83.8 37.6C83.7 37.8 83.7 38 83.8 38.1C83.9 38.3 84.1 38.3 84.3 38.3L86 37.9L86.1 38.5C86.1 38.7 86.3 38.9 86.6 38.9C86.6 38.9 86.6 38.9 86.7 38.9C87 38.9 87.1 38.6 87.1 38.4L87 37.6L88.1 37.3C88.3 37.2 88.4 37.1 88.5 36.9C88.5 36.7 88.4 36.5 88.2 36.4L86.7 36L86.5 34.9C86.5 34.7 86.3 34.6 86.1 34.5C85.9 34.5 85.7 34.5 85.6 34.7L85 35.5L84 35.2C83.8 35.2 83.5 35.3 83.5 35.6Z" fill="black"/>
<path d="M3.00009 35L3.80008 34.8L3.70009 36.2C3.70009 36.4 3.80008 36.6 4.00008 36.7C4.10009 36.7 4.10008 36.7 4.20008 36.7C4.30008 36.7 4.40008 36.7 4.50008 36.6L5.70008 35.3L6.10009 35.8C6.30009 36 6.60009 36 6.80009 35.9C7.00008 35.7 7.00008 35.4 6.90008 35.2L6.40009 34.6L7.20008 33.8C7.30008 33.6 7.40008 33.4 7.30009 33.2C7.20009 33 7.00008 32.9 6.80009 33L5.40009 33.4L4.70008 32.6C4.60009 32.5 4.40008 32.4 4.20008 32.5C4.10008 32.4 4.00008 32.6 4.00008 32.8V33.8L2.90009 34.1C2.70009 34.2 2.50008 34.4 2.60008 34.7C2.50008 34.9 2.80009 35 3.00009 35Z" fill="black"/>
<path d="M19.5 36.1C19.4 35.9 19.3 35.8 19.1 35.8H18.3L18 35.2C17.9 35 17.7 34.9 17.6 34.9C17.4 34.9 17.2 35 17.2 35.2L17 35.7H16.3C16 35.7 15.8 35.9 15.8 36.2C15.8 36.5 16 36.7 16.3 36.7H16.6L16.4 37.4C16.3 37.6 16.4 37.8 16.5 37.9C16.6 38 16.7 38 16.8 38C16.9 38 17 38 17 37.9L17.9 37.4L18 37.6C18.1 37.8 18.4 37.9 18.6 37.8C18.8 37.7 18.9 37.4 18.8 37.2L18.7 36.9L19.2 36.6C19.5 36.5 19.6 36.3 19.5 36.1Z" fill="black"/>
<path d="M8.9 23.3L9.2 23.1L9.3 23.8C9.3 24 9.5 24.1 9.7 24.2H9.8C10 24.2 10.1 24.1 10.2 24L10.7 23.2L10.9 23.4C11.1 23.6 11.4 23.5 11.6 23.3C11.8 23.1 11.7 22.8 11.5 22.6L11.2 22.4L11.5 21.9C11.6 21.7 11.6 21.5 11.5 21.3C11.4 21.1 11.1 21.1 10.9 21.2L10.2 21.6L9.7 21.2C9.5 21.1 9.3 21.1 9.2 21.2C9 21.3 8.9 21.4 9 21.6V22.2L8.4 22.5C8.2 22.6 8.1 22.9 8.2 23.1C8.4 23.3 8.6 23.4 8.9 23.3Z" fill="black"/>
<path d="M89.4 29.6L89.7 29.5V30.2C89.7 30.4 89.8 30.6 90 30.6C90.1 30.6 90.1 30.6 90.2 30.6C90.3 30.6 90.5 30.5 90.5 30.4L91.2 29.7L91.4 29.9C91.6 30.1 91.9 30.1 92.1 29.9C92.3 29.7 92.3 29.4 92.1 29.2L91.9 28.9L92.3 28.5C92.4 28.3 92.5 28.1 92.4 27.9C92.3 27.7 92.1 27.6 91.9 27.7L91 28.1L90.6 27.7C90.5 27.6 90.3 27.5 90.1 27.6C89.9 27.7 89.8 27.8 89.8 28V28.5L89.2 28.7C89 28.8 88.8 29 88.9 29.3C88.9 29.5 89.1 29.7 89.4 29.6Z" fill="black"/>
<path d="M95.6 45.1C95.5 44.9 95.4 44.8 95.2 44.8C95.1 44.8 95.1 44.8 95 44.8L84.2 48.6C84.1 48.6 84 48.7 83.9 48.7L77.3 51L76.4 51.3L75.3 51.7L65 55.3L64.2 55.6L62.6 56.2L61.1 56.7L51 60.2C50.3 59.3 49.2 58.7 48 58.7C46.8 58.7 45.7 59.2 45 60.2L35 56.7L33.5 56.2L31.9 55.6L31 55.3L20.7 51.7L19.6 51.3L18.5 51L11.8 48.7L11.6 48.6L0.600024 44.8C0.500024 44.8 0.500024 44.8 0.400024 44.8C0.200024 44.8 2.44156e-05 44.9 2.44156e-05 45.1C-0.0999756 45.3 2.44081e-05 45.6 0.300024 45.7L10.4 49.2C9.90002 50.2 10.5 51.4 10.8 52.1C10.9 52.2 10.9 52.4 11 52.5C11.1 52.7 11.1 52.8 11.2 53C11.7 54.2 12.4 55.3 13.6 55.7C13.6 55.7 13.7 55.7 13.8 55.7C13.4 57.2 13.6 58.7 14.3 60.3C15.8 63.7 19.7 66.9 25.6 69.7C25.4 70.1 25.3 70.5 25.4 70.9C25.5 71.4 25.8 71.9 26.3 72.1C26.1 72.4 26.1 72.7 26.1 72.8C26.1 73.5 26.6 74.1 27.3 74.5C27 74.8 26.9 75 27 75.3C27.2 75.8 27.8 76.3 28.4 76.3C28.4 76.6 28.6 76.9 28.9 77.1C29.3 77.4 29.9 77.6 30.5 77.4C30.7 77.4 31.1 77.5 31.5 77.7C32.3 78 33.3 78.5 34.8 78.5C35.2 78.5 35.6 78.5 36.1 78.4C37.5 78.2 38.6 77.8 39.5 77.5C40.8 77.1 41.9 76.7 43.5 76.7C44 76.7 44.5 76.7 44.9 76.6C45.6 76.5 46.6 76.4 47.8 76.2C49 76.4 50 76.5 50.7 76.6C51.2 76.7 51.6 76.7 52.1 76.7C53.7 76.7 54.8 77 56.1 77.5C57.1 77.8 58.1 78.2 59.5 78.4C60 78.5 60.4 78.5 60.8 78.5C62.3 78.5 63.4 78 64.1 77.7C64.5 77.5 64.9 77.4 65.1 77.4C65.7 77.5 66.3 77.4 66.7 77.1C67 76.9 67.1 76.6 67.2 76.3C67.8 76.2 68.4 75.8 68.6 75.3C68.7 75 68.7 74.7 68.5 74.5C69.2 74.2 69.7 73.5 69.7 72.8C69.7 72.7 69.7 72.4 69.5 72.1C70 71.9 70.3 71.5 70.4 70.9C70.5 70.5 70.4 70.1 70.2 69.7C76 66.9 80 63.7 81.5 60.3C82.2 58.7 82.4 57.2 82 55.7H82.1C83.3 55.3 83.9 54.2 84.5 53C84.6 52.8 84.6 52.7 84.7 52.5C84.8 52.4 84.8 52.2 84.9 52.1C85.2 51.4 85.8 50.1 85.3 49.2L95.4 45.7C95.6 45.6 95.7 45.4 95.6 45.1ZM84.4 49.6C84.7 50.1 84.3 51.3 84 51.8C83.9 51.9 83.9 52.1 83.8 52.2C83.7 52.3 83.7 52.5 83.6 52.7C83.2 53.6 82.7 54.5 82 54.8C82.1 54.7 82.1 54.5 82 54.4C81.9 54.2 81.8 54.1 81.6 54.1C81.6 54.1 81.5 54.1 81.3 54.1C81.2 54.1 81 54.2 80.8 54.2C80.7 54.3 80.5 54.3 80.4 54.4C80.3 54.5 80.1 54.6 80 54.7C79.8 54.7 79.4 54.1 79.1 53.4C79 53.3 78.9 53.2 78.8 53.1H78.7C78.6 53.1 78.5 53.1 78.5 53.2L77.2 54C76.6 54.3 75.7 53.5 75.1 52.7L77.5 51.9L78.2 51.6L78.8 51.4L79.3 51.2C79.4 51.2 79.4 51.2 79.5 51.2C79.5 51.3 79.4 51.5 79.4 51.7C79.4 51.8 79.3 51.9 79.3 51.9C79.3 52 79.3 52 79.3 52.1C79.3 52.3 79.4 52.4 79.5 52.5C79.6 52.6 79.7 52.6 79.8 52.5C79.9 52.5 80 52.4 80.1 52.3C80.1 52.3 80.1 52.2 80.2 52.2C80.5 51.7 81.4 50.6 82.1 50.2C82 50.5 81.9 50.9 81.7 51.3C81.6 51.5 81.7 51.8 81.9 51.9C82.1 52 82.4 51.9 82.5 51.7C83 50.7 83.8 49.6 84.2 49.3C84.2 49.6 84.3 49.5 84.4 49.6C84.4 49.5 84.4 49.5 84.4 49.6C84.4 49.6 84.4 49.5 84.4 49.6ZM69.6 70.8C69.6 71 69.5 71.3 69.1 71.3C68.9 71.3 68.4 71.4 67.8 71.5C67.5 71.5 67.2 71.5 66.9 71.6C66.7 71.6 66.6 71.6 66.4 71.7C66.1 71.7 66 71.9 66 72.2C66 72.5 66.2 72.6 66.5 72.6C66.5 72.6 66.5 72.6 66.6 72.6C66.8 72.6 67.3 72.5 67.8 72.5C68 72.5 68.1 72.5 68.3 72.5C68.7 72.6 68.8 72.7 68.8 72.9C68.8 73.3 68.3 73.8 67.7 73.9H67.6C67.3 73.8 66.9 73.8 66.6 73.8C66.4 73.8 66.1 73.8 66 73.8C65.7 73.7 65.5 73.9 65.4 74.2C65.3 74.5 65.5 74.7 65.8 74.8C65.9 74.8 66.7 75 67.5 75C67.5 75 67.6 75 67.6 75.1C67.8 75.2 67.7 75.3 67.7 75.3C67.6 75.5 67.3 75.7 67 75.7C66.8 75.7 66.5 75.7 66.3 75.6C66 75.5 65.7 75.4 65.3 75.4C65.1 75.4 64.8 75.5 64.8 75.8C64.8 75.7 65 76 65.2 76C65.2 76 65.6 76.1 66.1 76.2C66.2 76.2 66.3 76.3 66.3 76.3L66.2 76.4C66.1 76.5 65.8 76.6 65.3 76.6C64.8 76.5 64.4 76.7 63.8 77C62.9 77.4 61.6 78 59.7 77.6C58.4 77.4 57.4 77 56.4 76.7C55.3 76.3 54.2 76 52.8 75.9C52.9 75.7 53 75.5 53.1 75.3C53.2 75.1 53.3 74.9 53.3 74.8C53.4 74.6 53.4 74.4 53.5 74.3C54 72.9 54.3 71.7 54.5 70.2C56.1 70.3 57.7 70.2 59.2 69.3H59.3C60.9 68.4 62.5 67.4 64.2 66.7C65.2 66.2 66.4 65.8 67.6 65.8C68.3 65.8 69.6 66.2 69.9 66.9C70 67.1 70 67.4 69.9 67.6C69.6 68.3 68.5 68.8 67.8 69L66.6 69.3C66.6 69.3 66.6 69.3 66.5 69.3C66.2 69.4 66.1 69.6 66.2 69.9C66.3 70.2 66.5 70.3 66.8 70.2C67.1 70.1 67.4 70.1 67.7 70C68.1 69.9 68.5 69.9 68.8 70C68.9 70 68.9 70 69 70.1C69.1 70.2 69.2 70.2 69.2 70.3C69.6 70.3 69.6 70.6 69.6 70.8ZM39.3 76.7C38.3 77 37.3 77.4 36 77.6C34 77.9 32.8 77.4 31.9 77C31.4 76.8 31 76.6 30.6 76.6C30.5 76.6 30.4 76.6 30.4 76.6C29.9 76.7 29.6 76.5 29.5 76.4L29.4 76.3C29.5 76.3 29.5 76.2 29.6 76.2C30.1 76.1 30.5 76 30.5 76C30.7 75.9 30.9 75.7 30.8 75.4C30.7 75.2 30.5 75 30.3 75C30 75 29.6 75.1 29.3 75.2C29.1 75.2 28.8 75.3 28.6 75.3C28.3 75.3 28 75.1 27.9 74.9C27.9 74.9 27.9 74.8 28 74.7L28.1 74.6C28.9 74.6 29.7 74.5 29.8 74.4H29.9C30.1 74.3 30.2 74.1 30.2 73.9C30.1 73.6 29.9 73.5 29.6 73.5C29.4 73.5 29.2 73.5 29 73.5C28.7 73.5 28.3 73.5 28 73.6H27.9C27.3 73.5 26.8 73 26.8 72.6C26.8 72.4 27 72.3 27.3 72.2C27.5 72.2 27.6 72.2 27.8 72.2C28.3 72.3 28.8 72.3 29 72.3C29 72.3 29 72.3 29.1 72.3C29.4 72.3 29.6 72.1 29.6 71.9C29.6 71.6 29.4 71.4 29.2 71.4C29 71.4 28.9 71.4 28.7 71.3C28.4 71.3 28.1 71.2 27.8 71.2C27.3 71.1 26.8 71.1 26.5 71C26.1 70.9 26 70.6 26 70.5C26 70.3 26 70 26.2 69.8C27.5 70.4 28.9 71 30.4 71.5C35 73.2 39.1 74.3 42.5 75C42.6 75.2 42.7 75.4 42.8 75.6C41.5 76 40.4 76.4 39.3 76.7ZM13.6 54.8C12.9 54.5 12.4 53.6 12 52.7C11.9 52.5 11.9 52.4 11.8 52.2C11.7 52 11.7 51.9 11.6 51.8C11.4 51.3 10.9 50.2 11.2 49.6C11.2 49.6 11.2 49.6 11.2 49.5L11.4 49.6C11.8 49.9 12.6 51 13.2 52C13.3 52.2 13.6 52.3 13.8 52.2C14 52.1 14.1 51.8 14 51.6C13.8 51.2 13.6 50.7 13.6 50.5C14.3 50.9 15.2 52 15.5 52.5C15.5 52.5 15.5 52.5 15.5 52.6C15.6 52.7 15.7 52.8 15.8 52.8C15.9 52.8 16 52.8 16.1 52.7C16.2 52.6 16.3 52.5 16.3 52.4C16.3 52.3 16.3 52.2 16.3 52.1C16.3 52 16.2 52 16.2 51.9C16.1 51.7 16.1 51.5 16 51.3C16 51.3 16.1 51.3 16.2 51.3L16.8 51.5L17.4 51.7L18.1 52L20.4 52.8C19.8 53.6 18.9 54.5 18.3 54.1L17 53.3C16.9 53.2 16.7 53.2 16.6 53.3C16.5 53.3 16.4 53.4 16.3 53.6C16 54.3 15.5 54.8 15.4 54.9C15.3 54.8 15.1 54.7 15 54.6C14.9 54.5 14.7 54.4 14.6 54.4C14.4 54.3 14.3 54.3 14.1 54.2C14 54.2 13.9 54.2 13.9 54.2H13.8C13.6 54.2 13.5 54.3 13.4 54.5C13.6 54.5 13.6 54.7 13.6 54.8ZM35.5 59.3C35.6 59.1 35.8 58.9 36.1 59C36.2 59 36.3 59.1 36.4 59.1C37 59.3 37.5 59.5 38 59.8C39.2 60.4 40.3 61 41.4 61.8C42 62.2 42.5 62.6 43.1 63C43.8 63.5 44.6 64.1 45.4 64.6C45.7 64.8 46 64.9 46.3 65.1C46.5 65.2 46.6 65.4 46.5 65.7V65.8C46.4 66 46.3 66 46.1 66C46 66 45.9 66 45.9 65.9C44.8 65.3 43.7 64.5 42.7 63.8C42.2 63.4 41.6 63 41 62.7C39.3 61.6 37.9 60.7 35.8 60C35.6 59.9 35.5 59.6 35.5 59.3ZM51.6 68.1C51.5 68.3 51.4 68.4 51.2 68.4C51.1 68.4 51.1 68.4 51 68.4C50.2 68.1 49.5 67.8 48.8 67.3C48.6 67.2 48.5 66.9 48.7 66.7C48.7 66.7 48.7 66.7 48.7 66.6C48.8 66.4 49.1 66.4 49.3 66.5C49.7 66.7 50.2 67 50.6 67.2C50.9 67.3 51.1 67.4 51.4 67.5C51.6 67.6 51.7 67.8 51.7 68C51.6 68 51.6 68.1 51.6 68.1Z" fill="black"/>
<path d="M10.8 92.6C10.5 91.6 10.1 90.5 9.79998 89.3C10.2 88.7 10.5 88.1 10.8 87.5C11.1 86.9 11.3 86.3 11.6 85.7V85.6V85.5C11.5 85.4 11.4 85.3 11.3 85.2C11.2 85.1 11 85.1 10.9 85H10.4V85.1C10.3 85.5 10.1 86 9.79998 86.6C9.49998 87.2 9.19998 87.8 8.79998 88.6C8.79998 88.4 8.79998 88.1 8.79998 87.9C8.79998 87 8.79998 86 8.69998 85.2V85.1H8.59998C8.49998 85.1 8.39998 85 8.29998 85C8.09998 84.9 7.99998 84.9 7.79998 85C7.69998 85 7.59998 85 7.49998 85L7.09998 85.2V85.3C7.09998 85.9 7.19998 86.6 7.19998 87.4C7.19998 88.2 7.19998 89.3 7.19998 90.6C7.19998 92 7.19998 93.1 7.19998 93.8C7.19998 94.5 7.19998 95.2 7.09998 95.8V95.9H7.19998C7.39998 95.9 7.49998 96 7.59998 96C7.89998 96.1 8.09998 96.1 8.29998 96C8.39998 96 8.49998 95.9 8.49998 95.8C8.49998 95.1 8.59998 94.3 8.59998 93.6C8.59998 92.8 8.59998 91.9 8.59998 91C8.59998 90.8 8.59998 90.6 8.59998 90.5C8.89998 91.7 9.19998 92.7 9.49998 93.6C9.79998 94.7 10.2 95.6 10.5 96.3V96.4L11.1 96.5C11.4 96.3 11.6 96.2 11.7 96.1C11.8 96 11.9 95.8 11.9 95.6V95.5C11.5 94.5 11.2 93.6 10.8 92.6Z" fill="black"/>
<path d="M16.5001 85.2L16.4001 85.1C16.3001 85 16.2001 85 16.1001 85C16.0001 85 15.9001 85 15.8001 85H15.7001C15.6001 85 15.6001 85 15.5001 85C15.4001 85 15.3001 85.1 15.3001 85.1C15.2001 85.2 15.2001 85.2 15.2001 85.3C15.2001 86 15.2001 86.7 15.2001 87.2C15.2001 87.7 15.2001 88.2 15.2001 88.7C15.2001 88.8 15.2001 89.4 15.2001 90.3C15.2001 91.3 15.2001 92.1 15.2001 93V96.1L15.7001 96.3H15.9001C16.0001 96.3 16.2001 96.3 16.3001 96.3C16.4001 96.3 16.5001 96.2 16.6001 96.2H16.7001V96.1C16.7001 95.1 16.7001 94.2 16.8001 93.3C16.8001 92.4 16.8001 91.6 16.8001 90.7C16.8001 89.9 16.8001 89 16.8001 88.1C16.5001 87.2 16.5001 86.2 16.5001 85.2Z" fill="black"/>
<path d="M21.4 84.9H20.5V85.1C20.4 86.6 20.4 87.8 20.4 88.6C20.4 89.4 20.4 90.2 20.4 90.9C20.4 91.6 20.4 92.4 20.4 93.3C20.4 94.1 20.4 95.1 20.5 96.1V96.2H20.6C20.7 96.2 20.9 96.2 21 96.2C21.1 96.2 21.3 96.2 21.5 96.2C22.5 96.2 23.2 95.8 23.6 94.9C24 94.1 24.2 92.7 24.2 90.6C24.2 88.5 24 87 23.6 86.2C23.2 85.3 22.5 84.9 21.4 84.9ZM21.9 91.4C21.9 90.4 21.9 89.5 21.9 88.6C21.9 87.8 21.9 87 22 86.3C22.2 86.4 22.4 86.7 22.5 87.2C22.7 87.9 22.7 88.9 22.7 90.3C22.7 92.1 22.6 93.3 22.5 93.9C22.4 94.5 22.1 94.7 22 94.7C22 94.2 22 93.7 21.9 93.2C21.9 92.7 21.9 92 21.9 91.4Z" fill="black"/>
<path d="M29.8001 90.5C29.8001 90.4 29.7001 90.3 29.7001 90.1C29.1001 88.5 29.0001 87.8 29.0001 87.6C29.0001 87.3 29.1001 87 29.3001 86.6C29.5001 86.3 29.8001 85.9 30.2001 85.5L30.3001 85.4V85.3C30.3001 85 30.2001 84.9 30.1001 84.7C30.0001 84.6 29.8001 84.5 29.6001 84.5C29.4001 84.5 29.3001 84.6 29.0001 84.8C28.8001 85 28.6001 85.2 28.4001 85.4C28.2001 85.7 28.0001 86 27.9001 86.4C27.8001 86.7 27.7001 87.1 27.7001 87.5C27.7001 87.8 27.7001 88.2 27.8001 88.5C27.9001 88.9 28.0001 89.4 28.3001 90.1C28.3001 90.1 28.3001 90.2 28.4001 90.3C29.0001 92 29.3001 93.1 29.3001 93.6C29.3001 94 29.2001 94.3 29.0001 94.5C28.8001 94.8 28.4001 95.1 27.8001 95.5H27.7001V95.6C27.7001 95.8 27.8001 96 27.9001 96.1C28.0001 96.2 28.2001 96.4 28.5001 96.5H28.6001H28.7001C29.4001 96.2 29.9001 95.8 30.3001 95.3C30.6001 94.8 30.8001 94.2 30.8001 93.5C30.8001 93.1 30.7001 92.6 30.6001 92.1C30.2001 91.9 30.0001 91.3 29.8001 90.5Z" fill="black"/>
<path d="M45.6 86.9L45.5 86.8C45.4 86.7 45.3 86.7 45.2 86.7C45 86.6 44.8 86.7 44.6 86.7C44.5 86.7 44.3 86.8 44.2 86.8H44.1V86.9V87V87.1C44.1 87.5 44 87.9 43.8 88.3C43.6 88.7 43.2 89.1 42.8 89.5C42.7 89.6 42.6 89.7 42.4 89.8C41.4 90.6 41 91.3 41 92C41 92.1 41 92.3 41.1 92.4C41.1 92.5 41.2 92.7 41.3 92.8V92.9H41.4C41.4 92.9 41.4 92.9 41.5 92.9C41.6 92.9 41.7 92.9 41.7 92.9C41.8 92.9 41.9 92.9 42 92.9C42.1 92.9 42.2 92.8 42.3 92.8L42.4 92.7V92.6C42.4 92.5 42.4 92.4 42.3 92.3C42.3 92.2 42.3 92.1 42.3 92.1C42.3 91.9 42.3 91.7 42.4 91.5C42.5 91.4 42.5 91.3 42.6 91.2C42.9 91.3 43.2 91.5 43.4 91.8C43.6 92.1 43.7 92.5 43.7 93C43.7 93.6 43.6 94.1 43.3 94.4C43 94.8 42.7 94.9 42.3 94.9C41.8 94.9 41.4 94.7 41.1 94.2C40.8 93.7 40.7 93.1 40.7 92.2C40.7 91.3 40.9 90.5 41.3 89.9C41.7 89.3 42.2 88.9 42.9 88.8H43V88.7C43 88.6 43 88.6 43 88.5C43 88.4 43 88.4 43 88.3V88.2C43 88.1 43 88.1 42.9 88V87.9H42.7C42.4 87.9 42.2 87.8 42 87.6C41.8 87.4 41.7 87.2 41.7 86.9C41.7 86.6 41.8 86.3 42 86.2C42.2 86 42.4 85.9 42.7 85.9C42.8 85.9 42.8 85.9 42.9 85.9C43 85.9 43.1 85.9 43.2 86H43.3L43.4 85.9C43.5 85.8 43.5 85.7 43.5 85.6C43.5 85.5 43.5 85.4 43.5 85.3C43.5 85.2 43.5 85.1 43.5 85C43.5 84.9 43.4 84.8 43.4 84.8H43.3C43.2 84.7 43 84.7 42.9 84.7C42.8 84.7 42.6 84.7 42.5 84.7C41.8 84.7 41.3 84.9 40.9 85.3C40.2 85.8 40 86.3 40 87C40 87.4 40.1 87.7 40.3 88C40.4 88.2 40.6 88.4 40.9 88.6C40.3 89.1 39.8 89.6 39.5 90.2C39.1 90.9 39 91.6 39 92.5C39 93.6 39.3 94.6 39.8 95.3C40.4 96 41.1 96.4 42.1 96.4C42.9 96.4 43.7 96.1 44.2 95.5C44.8 94.9 45 94.1 45 93.2C45 92.6 44.9 92 44.7 91.5C44.5 91.1 44.2 90.7 43.8 90.4C44.4 89.9 44.9 89.4 45.2 88.9C45.5 88.4 45.7 87.8 45.7 87.3C45.6 87 45.6 87 45.6 86.9Z" fill="black"/>
<path d="M57.1 89.7C57.4 89.5 57.6 89.2 57.7 88.9C57.9 88.5 57.9 88.1 57.9 87.5C57.9 86.6 57.7 86 57.3 85.5C56.9 85 56.3 84.8 55.6 84.8C55.4 84.8 55.1 84.8 54.9 84.9C54.7 85 54.5 85 54.3 85.1H54.2V85.2C54.2 85.7 54.2 86.2 54.2 86.8C54.2 87.4 54.2 88 54.2 88.7C54.2 89.8 54.2 90.9 54.1 92.1C54.1 93.3 54 94.6 53.9 95.9V96.1H54.1C54.2 96.1 54.4 96.1 54.7 96.1C55 96.1 55.2 96.1 55.3 96.1C56.2 96.1 56.9 95.8 57.3 95.1C57.7 94.5 58 93.6 58 92.4C58 91.7 57.9 91.1 57.7 90.6C57.6 90.3 57.4 90 57.1 89.7ZM56.2 88.9C56.1 89.1 55.9 89.2 55.7 89.2V87.3C55.7 86.9 55.7 86.5 55.7 86.2H55.8C55.9 86.2 56.1 86.2 56.3 86.6C56.4 86.9 56.5 87.3 56.5 87.9C56.4 88.3 56.3 88.7 56.2 88.9ZM56.2 94.1C56 94.5 55.8 94.7 55.6 94.7C55.6 94.7 55.6 94.7 55.5 94.7C55.5 93.9 55.6 93.1 55.6 92.4C55.6 91.7 55.6 91 55.6 90.4C55.9 90.4 56.1 90.5 56.2 90.8C56.4 91.1 56.4 91.7 56.4 92.4C56.5 93.1 56.4 93.7 56.2 94.1Z" fill="black"/>
<path d="M63.7 84.8C63.4 84.8 63.2 84.9 62.9 85C62.7 85.1 62.5 85.3 62.3 85.6C62 86 61.7 86.6 61.6 87.2C61.5 87.8 61.4 88.9 61.4 90.2C61.4 92.1 61.5 93.6 61.8 94.6C62.1 95.7 62.6 96.2 63.2 96.2C63.5 96.2 63.7 96.1 64 95.9C64.3 95.7 64.5 95.5 64.8 95.2C65.2 94.8 65.4 94.1 65.6 93.3C65.8 92.5 65.8 91.4 65.8 90.1C65.8 88.4 65.6 87 65.3 86.2C65.1 85.3 64.5 84.8 63.7 84.8ZM63.6 86.2C63.9 86.2 64.1 86.5 64.2 87C64.3 87.6 64.4 88.7 64.4 90.2C64.4 91.8 64.3 93 64.1 93.7C63.9 94.3 63.7 94.6 63.4 94.7C63.3 94.4 63.1 93.9 63.1 93.3C63 92.6 63 91.6 63 90.3C63 89.2 63 88.3 63.1 87.7C63.1 87.1 63.2 86.7 63.3 86.3L63.4 86.2C63.5 86.3 63.5 86.2 63.6 86.2Z" fill="black"/>
<path d="M71.5001 84.8C71.2001 84.8 71.0001 84.9 70.7001 85C70.5001 85.1 70.3001 85.3 70.1001 85.6C69.8001 86 69.5001 86.6 69.4001 87.2C69.3001 87.8 69.2001 88.9 69.2001 90.2C69.2001 92.1 69.3001 93.6 69.6001 94.6C69.9001 95.7 70.4001 96.2 71.0001 96.2C71.3001 96.2 71.5001 96.1 71.8001 95.9C72.1001 95.7 72.3001 95.5 72.6001 95.2C73.0001 94.8 73.2001 94.1 73.4001 93.3C73.6001 92.5 73.6001 91.4 73.6001 90.1C73.6001 88.4 73.4001 87 73.1001 86.2C72.8001 85.3 72.2001 84.8 71.5001 84.8ZM71.3001 86.2C71.6001 86.2 71.8001 86.5 71.9001 87C72.0001 87.6 72.1001 88.7 72.1001 90.2C72.1001 91.8 72.0001 93 71.8001 93.7C71.6001 94.3 71.4001 94.6 71.1001 94.7C71.0001 94.4 70.8001 93.9 70.8001 93.3C70.7001 92.6 70.7001 91.6 70.7001 90.3C70.7001 89.2 70.7001 88.3 70.8001 87.7C70.8001 87.1 70.9001 86.7 71.0001 86.3L71.1001 86.2C71.2001 86.3 71.3001 86.2 71.3001 86.2Z" fill="black"/>
<path d="M80.7 92.6C80.4 91.6 80 90.5 79.7 89.3C80.1 88.7 80.4 88.1 80.7 87.5C81 86.9 81.2 86.3 81.5 85.7V85.6V85.5C81.4 85.4 81.3 85.3 81.2 85.2C81.1 85.1 80.9 85.1 80.8 85H80.3V85.1C80.2 85.5 80 86 79.7 86.6C79.4 87.2 79.1 87.8 78.7 88.6C78.7 88.4 78.7 88.1 78.7 87.9C78.7 87 78.7 86 78.6 85.2V85.1H78.5C78.4 85 78.3 85 78.2 84.9C78 84.8 77.9 84.8 77.7 84.9C77.6 84.9 77.5 84.9 77.4 84.9L77 85.2V85.3C77 85.9 77.1 86.6 77.1 87.4C77.1 88.2 77.1 89.3 77.1 90.6C77.1 92 77.1 93.1 77.1 93.8C77.1 94.5 77.1 95.2 77 95.8V95.9H77.1C77.3 95.9 77.4 96 77.5 96C77.8 96.1 78 96.1 78.2 96C78.3 96 78.4 95.9 78.4 95.8C78.4 95.1 78.5 94.3 78.5 93.6C78.5 92.8 78.5 91.9 78.5 91C78.5 90.8 78.5 90.6 78.5 90.5C78.8 91.7 79.1 92.7 79.4 93.6C79.7 94.7 80.1 95.6 80.4 96.3V96.4L81 96.5C81.3 96.3 81.5 96.2 81.6 96.1C81.7 96 81.8 95.8 81.8 95.6V95.5C81.4 94.5 81.1 93.6 80.7 92.6Z" fill="black"/>
<path d="M86.9 90.5C86.9 90.4 86.8 90.3 86.8 90.1C86.2 88.5 86.1 87.8 86.1 87.6C86.1 87.3 86.2 87 86.4 86.6C86.6 86.3 86.9 85.9 87.3 85.5L87.4 85.4V85.3C87.4 85 87.3 84.9 87.2 84.7C87.1 84.6 86.9 84.5 86.7 84.5C86.5 84.5 86.4 84.6 86.1 84.8C85.9 85 85.7 85.2 85.5 85.4C85.3 85.7 85.1 86 85 86.4C84.9 86.7 84.8 87.1 84.8 87.5C84.8 87.8 84.8 88.2 84.9 88.5C85 88.9 85.1 89.4 85.4 90.1C85.4 90.1 85.4 90.2 85.5 90.3C86.1 92 86.4 93.1 86.4 93.6C86.4 94 86.3 94.3 86.1 94.5C85.9 94.8 85.5 95.1 84.9 95.5H84.8V95.6C84.8 95.8 84.9 96 85 96.1C85.1 96.2 85.3 96.4 85.6 96.5H85.7H85.8C86.5 96.2 87 95.8 87.4 95.3C87.7 94.8 87.9 94.2 87.9 93.5C87.9 93.1 87.8 92.6 87.7 92.1C87.3 91.9 87.1 91.3 86.9 90.5Z" fill="black"/>
<path d="M18.3 17C18 20.5 18.8 24.6 22 26.2C22 26.5 22.1 26.7 22.2 27C23 29.1 25.2 29.4 26.5 29.2C27 29.7 28.6 31.3 30.8 32.9C25.9 35.4 21.8 39.5 19.7 44.3L31 49.3L34.3 50.7L35.9 51.4L47.6 56.5L49.5 56L49.8 55.9L61.5 50.8L67.9 48C67.2 45.1 65.5 42.2 63 39.5C62.9 39.4 62.7 39.2 62.6 39.1C62.5 39 62.3 38.8 62.2 38.7C61.5 38.1 60.9 37.5 60.1 36.9C57.8 35.1 55.2 33.6 52.4 32.6C52.2 32.5 52 32.4 51.7 32.4C51.5 32.3 51.3 32.3 51.1 32.2V32.1C51.2 32 51.3 31.9 51.4 31.8C51.5 31.7 51.6 31.6 51.7 31.4C51.7 31.4 51.7 31.4 51.8 31.4C51.8 31.4 51.8 31.4 51.8 31.3C52.2 30.8 52.6 30.3 52.9 29.8C54.6 27.4 55.6 25.1 56 24.3C56 24.3 56.1 24.4 56.2 24.4C56.3 24.5 56.5 24.6 56.7 24.7C57 24.8 57.2 24.9 57.5 25C57.7 25 58 25 58.2 25C58.4 25 58.5 25 58.6 25C59 25 59.3 24.9 59.4 24.9C59.5 24.9 59.5 24.9 59.5 24.9C59.7 24.8 59.9 24.6 59.8 24.3C59.7 24.1 59.5 23.9 59.2 24C59.2 24 58.4 24.2 57.6 24.1C57.4 24.1 57.1 24 56.9 23.9C56.9 23.9 57 23.9 57 23.8C57.9 23.3 58.9 22.4 58.8 21C58.8 20.6 58.7 20.3 58.7 20C59.5 19.4 59.9 18.6 60.2 17.7C60.2 17.1 60.3 16.2 60.1 15.3C60.1 15.1 60 15 60 14.8C60 14.7 59.9 14.5 59.9 14.4C59.5 12.9 59 11 58.7 10.1C58.6 9.90001 58.6 9.80001 58.6 9.70001C58.6 9.60001 58.6 9.60001 58.6 9.50001C58.5 9.30001 58.7 9.00001 58.9 8.90001C58.9 8.90001 62 7.90001 62.7 6.00001C62.7 5.90001 62.8 5.80001 62.8 5.80001C62.8 5.60001 62.9 5.50001 62.9 5.30001C62.9 5.10001 62.9 5.00001 62.9 4.80001C62.8 4.50001 62.7 4.20001 62.5 3.80001C61.9 2.70001 61.2 2.00001 60.7 1.50001C60.1 1.10001 59.3 0.700007 58.3 0.400007C54.7 -0.899993 53.3 1.50001 52.7 4.00001C50.4 2.80001 47.8 2.20001 45.3 2.10001C43.2 2.10001 40.9 2.10001 39.1 3.50001C39 3.60001 38.1 4.50001 37.8 4.90001C37.7 5.00001 37.6 5.00001 37.5 5.00001C36.8 4.60001 35 3.40001 32.9 3.20001C28.5 2.80001 24.2 5.20001 21.2 9.50001C20 7.40001 17.8 5.40001 14.4 8.90001C9.20004 14.2 14.6 17.8 18.3 17ZM58 21C58 22.2 57.1 22.8 56.4 23.1C56.3 23.2 56.1 23.2 56 23.2C55.8 23.3 55.6 23.3 55.6 23.3C55.6 23.3 55.6 23.3 55.5 23.3C55.4 23.3 55.4 23.3 55.3 23.4C55.2 23.4 55.2 23.5 55.2 23.6C55.2 23.6 55.2 23.7 55.1 23.8C54.8 24.6 53.5 27.2 51.6 29.8C51.5 29.9 51.4 30 51.3 30.2C51.3 30.2 51.3 30.3 51.2 30.3C51.1 30.4 51 30.5 50.9 30.6C50.8 30.7 50.7 30.8 50.7 30.9L50.6 31C50.5 31.1 50.4 31.2 50.4 31.3C50.3 31.4 50.3 31.4 50.2 31.5C50.1 31.6 50.1 31.6 50 31.7C48.1 33.8 45.8 35.6 43 36C41.4 36.3 39.8 36.1 38.3 35.7C36.8 35.3 35.3 34.6 34 33.8C33.7 33.7 33.5 33.5 33.2 33.4C33 33.2 32.7 33.1 32.5 32.9C32.2 32.7 32 32.6 31.7 32.4C28.9 30.4 26.9 28.4 26.9 28.4C26.8 28.3 26.7 28.3 26.6 28.3H26.5C26.4 28.3 23.8 28.9 23 26.8V26.7C22.4 24.7 24.8 23.8 24.9 23.8C25.1 23.7 25.2 23.5 25.2 23.3L25.1 21.7C25.6 21.6 26.7 21.5 28.1 21.2C30.2 20.8 31.6 20.1 34.5 18.1C36.7 16.6 38.1 12.5 38.6 10.5C39.5 12 41.5 14.8 43.9 16.1C43.9 16.1 43.9 16.1 44 16.1C41.9 16.5 40.4 18.4 40.1 20.9C40 22.1 40.2 23.1 40.5 24.2C40.6 24.5 40.7 24.8 40.8 25C40.8 25.1 40.9 25.2 41 25.5C41.2 25.9 41.5 26.9 41.7 27.3C41.3 27.5 40.8 27.6 40.4 27.4C40.2 27.3 39.9 27.4 39.8 27.7C39.7 27.9 39.8 28.2 40.1 28.3C40.4 28.4 40.7 28.5 40.9 28.5C41.5 28.5 42.1 28.3 42.5 27.9C42.8 27.6 42.8 27.5 41.9 25.2C41.8 25 41.8 24.8 41.7 24.8C41.6 24.6 41.5 24.3 41.5 24.1C41.2 23.1 41 22.1 41.1 21.1C41.3 19.1 42.6 17.1 45 17.1C45.7 17.1 46.3 17.2 46.9 17.3C47.4 17.4 48 17.5 48.6 17.5C49 17.5 49.4 17.6 49.8 17.6C50 17.6 50.1 17.6 50.3 17.6C50.5 17.6 50.6 17.6 50.8 17.6C50.9 17.6 51 17.6 51.1 17.6C51.3 17.6 51.5 17.6 51.6 17.6C51.8 17.6 52 17.6 52.2 17.6C52.5 17.6 52.8 17.6 53.1 17.6C54.4 17.7 54.8 18.7 54.8 18.7C54.9 18.9 55 19 55.2 19H55.9C57 19 57.6 19.6 57.8 20.6C58 20.7 58 20.8 58 21ZM35 35.5C35.8 35.9 36.7 36.2 37.5 36.5C38.8 36.9 40.1 37.2 41.5 37.2C42.1 37.2 42.7 37.2 43.2 37.1C45.8 36.6 48 35.2 49.9 33.4C49.1 36.9 47 38.9 43.7 39.5C41 39.9 38.7 39.3 36.7 37.5C36.2 37.1 35.7 36.6 35.3 36C35.2 35.7 35.1 35.6 35 35.5ZM33.9 43.6L33.4 42.8L33.1 43C33 43.1 32.8 43.1 32.7 43.1C32.6 43.1 32.5 43 32.5 42.9C32.3 42.7 32.4 42.4 32.6 42.2L32.9 42L32.6 41.5C32.5 41.3 32.5 41.1 32.6 40.9C32.7 40.7 33 40.7 33.2 40.8L33.8 41.1H33.9L34.4 40.7C34.6 40.6 34.8 40.6 34.9 40.7C35.1 40.8 35.2 41 35.1 41.2L35 41.8L35.6 42.1C35.8 42.2 35.9 42.5 35.8 42.7C35.7 42.9 35.4 43 35.2 42.9L34.9 42.7L34.8 43.4C34.8 43.6 34.6 43.7 34.4 43.8H34.3C34.1 43.9 34 43.8 33.9 43.6ZM39.5 47.9C39.5 47.7 39.5 47.5 39.7 47.4L40.4 47V46.4C40.4 46.2 40.5 46 40.7 45.9C40.9 45.8 41.1 45.9 41.2 46L41.6 46.4L42.2 46.1C42.4 46 42.7 46.1 42.8 46.3C42.9 46.5 42.8 46.8 42.6 46.9L42.3 47.1L42.5 47.3L42.8 47.6C42.9 47.7 43 47.9 42.9 48.1C42.8 48.3 42.6 48.4 42.5 48.4H41.5V48.6C41.5 48.9 41.3 49.1 41.1 49.1C40.9 49.1 40.7 48.9 40.6 48.7V48.4H40C39.8 48.4 39.7 48.3 39.6 48.1C39.5 48 39.5 47.9 39.5 47.9ZM52.6 44.8L53.8 44.1L53.7 43C53.7 42.8 53.8 42.6 54 42.5C54.2 42.4 54.4 42.5 54.5 42.6L55.2 43.3L56.2 42.7C56.4 42.6 56.7 42.7 56.8 42.9C56.9 43.1 56.8 43.4 56.6 43.5L56 44L57 45C57.1 45.1 57.2 45.3 57.1 45.5C57 45.7 56.8 45.8 56.7 45.8L54.9 45.7V46.3C54.9 46.6 54.7 46.8 54.5 46.8C54.3 46.8 54.1 46.6 54 46.4V45.7H52.8C52.6 45.7 52.4 45.5 52.4 45.3C52.4 45.1 52.5 44.9 52.6 44.8Z" fill="black"/>
<path d="M26.2001 26.6C26.1001 26.3 25.8001 26 25.4001 25.7C24.4001 25 23.8001 25.3 23.7001 25.4L24.2001 26.2C24.2001 26.2 24.4001 26.1 24.9001 26.5C25.0001 26.6 25.1001 26.7 25.2001 26.7C25.5001 27 25.6001 27.3 25.6001 27.3C25.6001 27.5 25.8001 27.7 26.1001 27.7H26.2001C26.5001 27.7 26.6001 27.4 26.6001 27.2C26.5001 27.2 26.4001 26.9 26.2001 26.6Z" fill="black"/>
<path d="M56.5 20.2C56 20.1 55 20 54.4 21C54.3 21.2 54.2 21.4 54.2 21.5C54.1 21.9 54.1 22.2 54.2 22.4C54.3 22.6 54.4 22.8 54.5 22.9C54.6 23 54.7 23.1 54.9 23.1C55 23.1 55.1 23.1 55.2 23C55.2 23 55.2 23 55.3 22.9C55.4 22.7 55.4 22.5 55.3 22.3C55.3 22.3 55.1 22 55.4 21.4C55.4 21.3 55.5 21.3 55.6 21.2C55.9 20.9 56.3 21 56.4 21C56.6 21 56.7 21 56.8 20.9C56.9 20.8 56.9 20.8 56.9 20.7C56.9 20.5 56.7 20.3 56.5 20.2Z" fill="black"/>
<path d="M35.8 23.2C35.6 23.1 35.3 23.1 35.2 23.3C35.2 23.3 34.7 24 33.5 24.1C32.4 24.2 31.9 23.5 31.9 23.5C31.8 23.3 31.5 23.2 31.3 23.3C31.1 23.4 31 23.7 31.1 23.9C31.1 23.9 31.7 25 33.3 25C33.4 25 33.5 25 33.6 25C35.3 24.9 36 23.9 36 23.8C36 23.6 36 23.3 35.8 23.2Z" fill="black"/>
<path d="M48.7 20.4C48.4 20.3 48.2 20.5 48.1 20.8C48.1 20.8 48 21.1 47.7 21.4C47.6 21.5 47.4 21.6 47.2 21.7C47.1 21.7 47 21.8 46.9 21.8H46.8C45.7 22.1 44.4 21.4 44.4 21.4C44.2 21.3 43.9 21.4 43.8 21.6C43.7 21.8 43.8 22.1 44 22.2C44.1 22.2 45.1 22.7 46.3 22.7C46.6 22.7 46.9 22.7 47.2 22.6H47.3C47.4 22.6 47.5 22.5 47.6 22.5C47.8 22.4 47.9 22.4 48 22.3C48.5 22 48.8 21.6 48.9 21.3C49 21.2 49 21 49 21C49 20.9 49 20.8 49 20.8C49 20.6 48.8 20.5 48.7 20.4Z" fill="black"/>
<path d="M45.2 29.9C45 29.8 44.7 29.9 44.6 30.1C44.5 30.3 44.4 30.4 44.3 30.5C43.7 31.3 42.8 31.9 41.6 31.9C40.6 32 39.6 31.6 38.7 31C38.5 30.8 38.2 30.9 38 31.1C37.8 31.3 37.9 31.6 38.1 31.8C39.1 32.5 40.2 32.9 41.3 32.9C41.4 32.9 41.5 32.9 41.6 32.9C41.8 32.9 42 32.9 42.2 32.8C43.1 32.6 43.9 32.2 44.5 31.6C44.8 31.3 45.1 31 45.3 30.6C45.3 30.5 45.4 30.5 45.4 30.4C45.4 30.3 45.4 30.2 45.4 30.1C45.5 30.1 45.4 30 45.2 29.9Z" fill="black"/>
</g>
<defs>
<clipPath id="clip0_118_15">
<rect width="95.7" height="96.8" fill="white"/>
</clipPath>
</defs>
</svg>
