<svg width="222" height="34" viewBox="0 0 222 34" fill="none" xmlns="http://www.w3.org/2000/svg">
<path d="M10.1658 22.9499C9.34158 20.1166 8.24257 16.9999 7.41832 13.5999C8.51733 11.8999 9.34158 10.1999 10.1658 8.49993C10.9901 6.79993 11.5396 5.09993 12.3639 3.39993V3.1166V2.83327C12.0891 2.54993 11.8144 2.26659 11.5396 1.98326C11.2649 1.69993 10.7153 1.69993 10.4406 1.4166H9.06683V1.69993C8.79208 2.83326 8.24257 4.24993 7.41832 5.94993C6.59406 7.64993 5.7698 9.34993 4.67079 11.6166C4.67079 11.0499 4.67079 10.1999 4.67079 9.63327C4.67079 7.08327 4.67079 4.24993 4.39604 1.98326V1.69993H4.12129C3.84654 1.69993 3.57178 1.4166 3.29703 1.4166C2.74753 1.13327 2.47277 1.13327 1.92327 1.4166C1.64852 1.4166 1.37376 1.4166 1.09901 1.4166L0 1.98326V2.26661C0 3.96661 0.274752 5.94994 0.274752 8.2166C0.274752 10.4833 0.274752 13.5999 0.274752 17.2833C0.274752 21.2499 0.274752 24.3666 0.274752 26.3499C0.274752 28.3333 0.274752 30.3166 0 32.0166V32.2999H0.274752C0.824257 32.2999 1.09901 32.5833 1.37376 32.5833C2.19802 32.8666 2.74753 32.8666 3.29703 32.5833C3.57178 32.5833 3.84653 32.2999 3.84653 32.0166C3.84653 30.0333 4.12129 27.7666 4.12129 25.7833C4.12129 23.5166 4.12129 20.9666 4.12129 18.4166C4.12129 17.8499 4.12129 17.2833 4.12129 16.9999C4.94555 20.3999 5.7698 23.2333 6.59406 25.7833C7.41832 28.8999 8.51733 31.4499 9.34158 33.4333V33.7166L10.9901 33.9999C11.8144 33.4333 12.3639 33.1499 12.6386 32.8666C12.9134 32.5833 13.1881 32.0166 13.1881 31.4499V31.1666C12.0891 28.3333 11.2649 25.7833 10.1658 22.9499Z" fill="black"/>
<path d="M25.8268 1.98341L25.552 1.70008C25.2773 1.41674 25.0025 1.41675 24.7278 1.41675C24.453 1.41675 24.1783 1.41675 23.9035 1.41675H23.6288C23.354 1.41675 23.354 1.41675 23.0793 1.41675C22.8045 1.41675 22.5298 1.70008 22.5298 1.70008C22.255 1.98341 22.255 1.98342 22.255 2.26676C22.255 4.25009 22.255 6.2334 22.255 7.65007C22.255 9.06674 22.255 10.4834 22.255 11.9001C22.255 12.1834 22.255 13.8834 22.255 16.4334C22.255 19.2668 22.255 21.5334 22.255 24.0834V32.8667L23.6288 33.4334H24.1783C24.453 33.4334 25.0025 33.4334 25.2773 33.4334C25.552 33.4334 25.8268 33.1501 26.1015 33.1501H26.3763V32.8667C26.3763 30.0334 26.3763 27.4834 26.651 24.9334C26.651 22.3834 26.651 20.1167 26.651 17.5667C26.651 15.3001 26.651 12.7501 26.651 10.2001C25.8268 7.65007 25.8268 4.81674 25.8268 1.98341Z" fill="black"/>
<path d="M39.2895 1.13327H36.8167V1.69993C36.542 5.94993 36.542 9.34993 36.542 11.6166C36.542 13.8833 36.542 16.1499 36.542 18.1333C36.542 20.1166 36.542 22.3833 36.542 24.9333C36.542 27.1999 36.542 30.0333 36.8167 32.8666V33.1499H37.0915C37.3663 33.1499 37.9158 33.1499 38.1905 33.1499C38.4653 33.1499 39.0148 33.1499 39.5643 33.1499C42.3118 33.1499 44.2351 32.0166 45.3341 29.4666C46.4331 27.1999 46.9826 23.2333 46.9826 17.2833C46.9826 11.3333 46.4331 7.08326 45.3341 4.81659C44.2351 2.26659 42.3118 1.13327 39.2895 1.13327ZM40.6633 19.5499C40.6633 16.7166 40.6633 14.1666 40.6633 11.6166C40.6633 9.34993 40.6633 7.08327 40.938 5.09994C41.4875 5.38327 42.037 6.23326 42.3118 7.64992C42.8613 9.63326 42.8613 12.4666 42.8613 16.4333C42.8613 21.5333 42.5865 24.9333 42.3118 26.6333C42.037 28.3333 41.2128 28.8999 40.938 28.8999C40.938 27.4833 40.938 26.0666 40.6633 24.6499C40.6633 23.2333 40.6633 21.2499 40.6633 19.5499Z" fill="black"/>
<path d="M62.3688 17C62.3688 16.7167 62.094 16.4333 62.094 15.8667C60.4455 11.3333 60.1708 9.34999 60.1708 8.78333C60.1708 7.93333 60.4455 7.08333 60.995 5.94999C61.5445 5.09999 62.3688 3.96667 63.4678 2.83333L63.7426 2.55V2.26667C63.7426 1.41667 63.4678 1.13332 63.1931 0.566658C62.9183 0.283325 62.3688 0 61.8193 0C61.2698 0 60.995 0.283342 60.1708 0.850008C59.6213 1.41668 59.0718 1.98334 58.5223 2.55C57.9728 3.4 57.4233 4.25 57.1485 5.38334C56.8737 6.23334 56.599 7.36667 56.599 8.5C56.599 9.35 56.599 10.4833 56.8737 11.3333C57.1485 12.4667 57.4233 13.8833 58.2475 15.8667C58.2475 15.8667 58.2475 16.15 58.5223 16.4333C60.1708 21.25 60.995 24.3667 60.995 25.7833C60.995 26.9167 60.7203 27.7667 60.1708 28.3333C59.6213 29.1833 58.5223 30.0333 56.8737 31.1667H56.599V31.45C56.599 32.0167 56.8737 32.5833 57.1485 32.8667C57.4233 33.15 57.9728 33.7167 58.797 34H59.0718H59.3465C61.2698 33.15 62.6435 32.0167 63.7426 30.6C64.5668 29.1833 65.1163 27.4833 65.1163 25.5C65.1163 24.3667 64.8416 22.95 64.5668 21.5333C63.4678 20.9667 62.9183 19.2667 62.3688 17Z" fill="black"/>
<path d="M105.78 6.80003L105.505 6.5167C105.23 6.23336 104.956 6.23335 104.681 6.23335C104.131 5.95001 103.582 6.23335 103.032 6.23335C102.757 6.23335 102.208 6.5167 101.933 6.5167H101.658V6.80003V7.08335V7.36668C101.658 8.50002 101.384 9.63336 100.834 10.7667C100.285 11.9 99.1857 13.0334 98.0867 14.1667C97.812 14.45 97.5372 14.7334 96.9877 15.0167C94.2402 17.2834 93.1412 19.2667 93.1412 21.25C93.1412 21.5334 93.1412 22.1 93.4159 22.3834C93.4159 22.6667 93.6907 23.2334 93.9654 23.5167V23.8H94.2402C94.2402 23.8 94.2402 23.8 94.5149 23.8C94.7897 23.8 95.0644 23.8 95.0644 23.8C95.3392 23.8 95.6139 23.8 95.8887 23.8C96.1634 23.8 96.4382 23.5167 96.7129 23.5167L96.9877 23.2333V22.95C96.9877 22.6667 96.9877 22.3834 96.7129 22.1C96.7129 21.8167 96.7129 21.5333 96.7129 21.5333C96.7129 20.9667 96.713 20.4 96.9877 19.8334C97.2625 19.55 97.2624 19.2667 97.5372 18.9833C98.3615 19.2667 99.1857 19.8334 99.7352 20.6834C100.285 21.5334 100.559 22.6667 100.559 24.0834C100.559 25.7834 100.285 27.2 99.4605 28.05C98.6362 29.1834 97.812 29.4667 96.7129 29.4667C95.3392 29.4667 94.2402 28.9 93.4159 27.4833C92.5917 26.0667 92.3169 24.3667 92.3169 21.8167C92.3169 19.2667 92.8664 17 93.9654 15.3C95.0644 13.6 96.4382 12.4667 98.3615 12.1834H98.6362V11.9C98.6362 11.6167 98.6362 11.6167 98.6362 11.3334C98.6362 11.05 98.6362 11.05 98.6362 10.7667V10.4833C98.6362 10.2 98.6362 10.2 98.3615 9.91669V9.63336H97.812C96.9877 9.63336 96.4382 9.35002 95.8887 8.78335C95.3392 8.21668 95.0644 7.65003 95.0644 6.80003C95.0644 5.95003 95.3392 5.10001 95.8887 4.81668C96.4382 4.25001 96.9877 3.96669 97.812 3.96669C98.0867 3.96669 98.0867 3.96669 98.3615 3.96669C98.6362 3.96669 98.911 3.96669 99.1857 4.25002H99.4605L99.7352 3.96669C100.01 3.68336 100.01 3.40002 100.01 3.11668C100.01 2.83335 100.01 2.55003 100.01 2.2667C100.01 1.98336 100.01 1.70002 100.01 1.41669C100.01 1.13336 99.7352 0.850031 99.7352 0.850031H99.4605C99.1857 0.566698 98.6362 0.566681 98.3615 0.566681C98.0867 0.566681 97.5372 0.566681 97.2625 0.566681C95.3392 0.566681 93.9654 1.13336 92.8664 2.2667C90.9432 3.68336 90.3936 5.10002 90.3936 7.08335C90.3936 8.21669 90.6684 9.06669 91.2179 9.91669C91.4927 10.4834 92.0422 11.05 92.8664 11.6167C91.2179 13.0333 89.8441 14.45 89.0199 16.15C87.9209 18.1333 87.6461 20.1167 87.6461 22.6667C87.6461 25.7834 88.4704 28.6167 89.8441 30.6C91.4927 32.5834 93.4159 33.7167 96.1634 33.7167C98.3615 33.7167 100.559 32.8667 101.933 31.1667C103.582 29.4667 104.131 27.2 104.131 24.65C104.131 22.95 103.857 21.25 103.307 19.8334C102.758 18.7 101.933 17.5667 100.834 16.7167C102.483 15.3 103.857 13.8834 104.681 12.4667C105.505 11.05 106.055 9.35003 106.055 7.93336C105.78 7.08336 105.78 7.08336 105.78 6.80003Z" fill="black"/>
<path d="M137.376 14.7334C138.201 14.1667 138.75 13.3167 139.025 12.4667C139.574 11.3334 139.574 10.2001 139.574 8.50006C139.574 5.95006 139.025 4.25006 137.926 2.83339C136.827 1.41673 135.178 0.850067 133.255 0.850067C132.706 0.850067 131.881 0.850063 131.332 1.1334C130.782 1.41673 130.233 1.41672 129.683 1.70005H129.408V1.98338C129.408 3.40005 129.408 4.81673 129.408 6.51673C129.408 8.21673 129.408 9.91671 129.408 11.9C129.408 15.0167 129.408 18.1334 129.134 21.5334C129.134 24.9334 128.859 28.6167 128.584 32.3001V32.8667H129.134C129.408 32.8667 129.958 32.8667 130.782 32.8667C131.607 32.8667 132.156 32.8667 132.431 32.8667C134.904 32.8667 136.827 32.0167 137.926 30.0334C139.025 28.3334 139.849 25.7834 139.849 22.3834C139.849 20.4001 139.574 18.7001 139.025 17.2834C138.75 16.4334 138.201 15.5834 137.376 14.7334ZM134.904 12.4667C134.629 13.0334 134.079 13.3167 133.53 13.3167V7.9334C133.53 6.80007 133.53 5.66672 133.53 4.81672H133.805C134.079 4.81672 134.629 4.81672 135.178 5.95005C135.453 6.80005 135.728 7.93339 135.728 9.63339C135.453 10.7667 135.178 11.9001 134.904 12.4667ZM134.904 27.2C134.354 28.3334 133.805 28.9 133.255 28.9C133.255 28.9 133.255 28.9 132.98 28.9C132.98 26.6334 133.255 24.3667 133.255 22.3834C133.255 20.4001 133.255 18.4167 133.255 16.7167C134.079 16.7167 134.629 17.0001 134.904 17.8501C135.453 18.7001 135.453 20.4001 135.453 22.3834C135.728 24.3667 135.453 26.0667 134.904 27.2Z" fill="black"/>
<path d="M155.51 0.850067C154.686 0.850067 154.136 1.13339 153.312 1.41673C152.762 1.70006 152.213 2.26672 151.663 3.11672C150.839 4.25005 150.015 5.95005 149.74 7.65005C149.465 9.35005 149.191 12.4667 149.191 16.15C149.191 21.5334 149.465 25.7834 150.29 28.6167C151.114 31.7334 152.488 33.15 154.136 33.15C154.96 33.15 155.51 32.8667 156.334 32.3001C157.158 31.7334 157.708 31.1667 158.532 30.3167C159.631 29.1834 160.181 27.2001 160.73 24.9334C161.28 22.6667 161.28 19.5501 161.28 15.8667C161.28 11.0501 160.73 7.08338 159.906 4.81672C159.357 2.26672 157.708 0.850067 155.51 0.850067ZM155.235 4.81672C156.059 4.81672 156.609 5.66672 156.884 7.08339C157.158 8.78339 157.433 11.9 157.433 16.15C157.433 20.6834 157.158 24.0834 156.609 26.0667C156.059 27.7667 155.51 28.6167 154.686 28.9C154.411 28.05 153.861 26.6334 153.861 24.9334C153.587 22.9501 153.587 20.1167 153.587 16.4334C153.587 13.3167 153.587 10.7667 153.861 9.06672C153.861 7.36671 154.136 6.2334 154.411 5.10007L154.686 4.81672C154.96 5.10005 154.96 4.81672 155.235 4.81672Z" fill="black"/>
<path d="M176.941 0.850067C176.116 0.850067 175.567 1.13339 174.743 1.41673C174.193 1.70006 173.643 2.26672 173.094 3.11672C172.27 4.25005 171.445 5.95005 171.171 7.65005C170.896 9.35005 170.621 12.4667 170.621 16.15C170.621 21.5334 170.896 25.7834 171.72 28.6167C172.544 31.7334 173.918 33.15 175.567 33.15C176.391 33.15 176.941 32.8667 177.765 32.3001C178.589 31.7334 179.139 31.1667 179.963 30.3167C181.062 29.1834 181.611 27.2001 182.161 24.9334C182.71 22.6667 182.71 19.5501 182.71 15.8667C182.71 11.0501 182.161 7.08338 181.337 4.81672C180.512 2.26672 178.864 0.850067 176.941 0.850067ZM176.391 4.81672C177.215 4.81672 177.765 5.66672 178.04 7.08339C178.314 8.78339 178.589 11.9 178.589 16.15C178.589 20.6834 178.314 24.0834 177.765 26.0667C177.215 27.7667 176.666 28.6167 175.842 28.9C175.567 28.05 175.017 26.6334 175.017 24.9334C174.743 22.9501 174.743 20.1167 174.743 16.4334C174.743 13.3167 174.743 10.7667 175.017 9.06672C175.017 7.36671 175.292 6.2334 175.567 5.10007L175.842 4.81672C176.116 5.10005 176.391 4.81672 176.391 4.81672Z" fill="black"/>
<path d="M202.218 22.9501C201.394 20.1168 200.295 17.0001 199.47 13.6001C200.569 11.9001 201.394 10.2001 202.218 8.50012C203.042 6.80012 203.592 5.10011 204.416 3.40011V3.11678V2.83345C204.141 2.55012 203.866 2.26678 203.592 1.98345C203.317 1.70011 202.767 1.70012 202.493 1.41679H201.119V1.70012C200.844 2.83345 200.295 4.25012 199.47 5.95012C198.646 7.65012 197.822 9.35012 196.723 11.6168C196.723 11.0501 196.723 10.2001 196.723 9.63346C196.723 7.08346 196.723 4.25011 196.448 1.98345V1.70012H196.173C195.899 1.41678 195.624 1.41679 195.349 1.13346C194.8 0.850126 194.525 0.850126 193.975 1.13346C193.701 1.13346 193.426 1.13346 193.151 1.13346L192.052 1.98345V2.2668C192.052 3.9668 192.327 5.95013 192.327 8.21679C192.327 10.4835 192.327 13.6001 192.327 17.2834C192.327 21.2501 192.327 24.3668 192.327 26.3501C192.327 28.3335 192.327 30.3168 192.052 32.0168V32.3001H192.327C192.876 32.3001 193.151 32.5835 193.426 32.5835C194.25 32.8668 194.8 32.8668 195.349 32.5835C195.624 32.5835 195.899 32.3001 195.899 32.0168C195.899 30.0335 196.173 27.7668 196.173 25.7834C196.173 23.5168 196.173 20.9668 196.173 18.4168C196.173 17.8501 196.173 17.2835 196.173 17.0001C196.998 20.4001 197.822 23.2334 198.646 25.7834C199.47 28.9001 200.569 31.4501 201.394 33.4335V33.7168L203.042 34.0001C203.866 33.4335 204.416 33.1501 204.691 32.8668C204.965 32.5834 205.24 32.0168 205.24 31.4501V31.1668C204.141 28.3335 203.317 25.7834 202.218 22.9501Z" fill="black"/>
<path d="M219.252 17C219.252 16.7167 218.978 16.4333 218.978 15.8667C217.329 11.3333 217.054 9.34999 217.054 8.78333C217.054 7.93333 217.329 7.08333 217.879 5.94999C218.428 5.09999 219.252 3.96667 220.351 2.83333L220.626 2.55V2.26667C220.626 1.41667 220.351 1.13332 220.077 0.566658C219.802 0.283325 219.252 0 218.703 0C218.153 0 217.879 0.283342 217.054 0.850008C216.505 1.41668 215.955 1.98334 215.406 2.55C214.856 3.4 214.307 4.25 214.032 5.38334C213.757 6.23334 213.483 7.36667 213.483 8.5C213.483 9.35 213.483 10.4833 213.757 11.3333C214.032 12.4667 214.307 13.8833 215.131 15.8667C215.131 15.8667 215.131 16.15 215.406 16.4333C217.054 21.25 217.879 24.3667 217.879 25.7833C217.879 26.9167 217.604 27.7667 217.054 28.3333C216.505 29.1833 215.406 30.0333 213.757 31.1667H213.483V31.45C213.483 32.0167 213.757 32.5833 214.032 32.8667C214.307 33.15 214.856 33.7167 215.681 34H215.955H216.23C218.153 33.15 219.527 32.0167 220.626 30.6C221.45 29.1833 222 27.4833 222 25.5C222 24.3667 221.725 22.95 221.45 21.5333C220.351 20.9667 219.802 19.2667 219.252 17Z" fill="black"/>
</svg>
