<svg width="14" height="14" viewBox="0 0 14 14" fill="none" xmlns="http://www.w3.org/2000/svg">
<path d="M6.99992 1.02075C8.11023 1.02075 9.18258 1.49678 9.97871 2.35663L10.6208 1.76213C9.66663 0.731675 8.36498 0.145752 6.99992 0.145752V1.02075ZM9.97871 2.35663C10.776 3.2176 11.2291 4.39205 11.2291 5.62305H12.1041C12.1041 4.18078 11.5739 2.79145 10.6208 1.76213L9.97871 2.35663ZM11.2291 5.62305C11.2291 6.05544 11.0932 6.60442 10.8434 7.235C10.5961 7.85946 10.2494 8.53403 9.85603 9.20859C9.06953 10.5576 8.11537 11.875 7.4534 12.7427L8.14903 13.2734C8.82062 12.3932 9.79922 11.0432 10.612 9.6493C11.0183 8.95239 11.3879 8.23653 11.6569 7.55724C11.9235 6.88401 12.1041 6.2158 12.1041 5.62305H11.2291ZM7.4534 12.7427C7.39454 12.82 7.32244 12.8797 7.24433 12.9196L7.64193 13.699C7.84085 13.5976 8.01334 13.4516 8.14903 13.2734L7.4534 12.7427ZM7.24433 12.9196C7.16646 12.9593 7.08322 12.9791 7.00027 12.9791V13.8541C7.22357 13.8541 7.44284 13.8006 7.64193 13.699L7.24433 12.9196ZM7.00027 12.9791C6.91726 12.9791 6.83408 12.9593 6.75614 12.9196L6.3586 13.699C6.55769 13.8006 6.77691 13.8541 7.00027 13.8541V12.9791ZM6.75614 12.9196C6.67809 12.8797 6.60623 12.8202 6.54737 12.743L5.85128 13.2731C5.98696 13.4513 6.15969 13.5976 6.3586 13.699L6.75614 12.9196ZM6.54737 12.743C5.88546 11.8761 4.93084 10.5583 4.14412 9.20912C3.75073 8.53449 3.40392 7.85981 3.15654 7.23524C2.90672 6.60454 2.77075 6.05544 2.77075 5.62305H1.89575C1.89575 6.2158 2.07633 6.88413 2.34303 7.55747C2.61215 8.23688 2.98181 8.95286 3.38823 9.64989C4.20114 11.044 5.17957 12.3936 5.85128 13.2731L6.54737 12.743ZM2.77075 5.62305C2.77075 4.39205 3.22387 3.2176 4.0211 2.35663L3.37908 1.76213C2.42596 2.79145 1.89575 4.18078 1.89575 5.62305H2.77075ZM4.0211 2.35663C4.81728 1.49678 5.8896 1.02075 6.99992 1.02075V0.145752C5.63488 0.145752 4.33323 0.731675 3.37908 1.76213L4.0211 2.35663Z" fill="#1B263B"/>
<path d="M8.3125 5.25C8.3125 5.97485 7.72485 6.5625 7 6.5625V7.4375C8.20814 7.4375 9.1875 6.45814 9.1875 5.25H8.3125ZM7 6.5625C6.27515 6.5625 5.6875 5.97485 5.6875 5.25H4.8125C4.8125 6.45814 5.79188 7.4375 7 7.4375V6.5625ZM5.6875 5.25C5.6875 4.52513 6.27515 3.9375 7 3.9375V3.0625C5.79188 3.0625 4.8125 4.04188 4.8125 5.25H5.6875ZM7 3.9375C7.72485 3.9375 8.3125 4.52513 8.3125 5.25H9.1875C9.1875 4.04188 8.20814 3.0625 7 3.0625V3.9375Z" fill="#1B263B"/>
</svg>
