<svg width="17" height="17" viewBox="0 0 17 17" fill="none" xmlns="http://www.w3.org/2000/svg">
<path d="M8.50004 1.2395C9.84828 1.2395 11.1504 1.81754 12.1171 2.86163L12.8968 2.13974C11.7382 0.88848 10.1576 0.177002 8.50004 0.177002V1.2395ZM12.1171 2.86163C13.0852 3.9071 13.6355 5.33322 13.6355 6.82801H14.698C14.698 5.07668 14.0542 3.38963 12.8968 2.13974L12.1171 2.86163ZM13.6355 6.82801C13.6355 7.35306 13.4704 8.01967 13.1671 8.78538C12.8668 9.54365 12.4458 10.3628 11.9682 11.1819C11.0131 12.82 9.85452 14.4197 9.0507 15.4732L9.89539 16.1178C10.7109 15.0489 11.8992 13.4097 12.8861 11.717C13.3795 10.8708 13.8283 10.0015 14.1549 9.17666C14.4787 8.35917 14.698 7.54778 14.698 6.82801H13.6355ZM9.0507 15.4732C8.97923 15.5671 8.89168 15.6397 8.79683 15.6881L9.27963 16.6346C9.52117 16.5114 9.73063 16.3341 9.89539 16.1178L9.0507 15.4732ZM8.79683 15.6881C8.70227 15.7363 8.60119 15.7603 8.50047 15.7603V16.8228C8.77162 16.8228 9.03788 16.7579 9.27963 16.6346L8.79683 15.6881ZM8.50047 15.7603C8.39967 15.7603 8.29866 15.7363 8.20403 15.6881L7.7213 16.6346C7.96305 16.7579 8.22924 16.8228 8.50047 16.8228V15.7603ZM8.20403 15.6881C8.10925 15.6397 8.02199 15.5675 7.95052 15.4736L7.10526 16.1174C7.27002 16.3337 7.47976 16.5114 7.7213 16.6346L8.20403 15.6881ZM7.95052 15.4736C7.14677 14.421 5.98759 12.8208 5.03229 11.1825C4.5546 10.3633 4.13348 9.54407 3.83308 8.78566C3.52973 8.01981 3.36462 7.35306 3.36462 6.82801H2.30212C2.30212 7.54778 2.5214 8.35931 2.84525 9.17694C3.17204 10.0019 3.62091 10.8713 4.11442 11.7177C5.10153 13.4106 6.28962 15.0494 7.10526 16.1174L7.95052 15.4736ZM3.36462 6.82801C3.36462 5.33322 3.91484 3.9071 4.88291 2.86163L4.1033 2.13974C2.94595 3.38963 2.30212 5.07668 2.30212 6.82801H3.36462ZM4.88291 2.86163C5.8497 1.81754 7.1518 1.2395 8.50004 1.2395V0.177002C6.84249 0.177002 5.26192 0.88848 4.1033 2.13974L4.88291 2.86163Z" fill="#FF6C4F"/>
<path d="M10.0937 6.375C10.0937 7.25517 9.38017 7.96875 8.5 7.96875V9.03125C9.96703 9.03125 11.1562 7.84203 11.1562 6.375H10.0937ZM8.5 7.96875C7.61982 7.96875 6.90625 7.25517 6.90625 6.375H5.84375C5.84375 7.84203 7.03299 9.03125 8.5 9.03125V7.96875ZM6.90625 6.375C6.90625 5.4948 7.61982 4.78125 8.5 4.78125V3.71875C7.03299 3.71875 5.84375 4.90799 5.84375 6.375H6.90625ZM8.5 4.78125C9.38017 4.78125 10.0937 5.4948 10.0937 6.375H11.1562C11.1562 4.90799 9.96703 3.71875 8.5 3.71875V4.78125Z" fill="#FF6C4F"/>
</svg>
