<svg width="14" height="20" viewBox="0 0 14 20" fill="none" xmlns="http://www.w3.org/2000/svg">
<path d="M7 0C3.13 0 0 3.13 0 7C0 10.7317 3.53669 15.7265 5.58229 18.3034C6.31892 19.2314 7.68108 19.2314 8.41771 18.3034C10.4633 15.7265 14 10.7317 14 7C14 3.13 10.87 0 7 0ZM2 7C2 4.24 4.24 2 7 2C9.76 2 12 4.24 12 7C12 9.22547 10.2803 12.3048 8.52044 14.8307C7.77827 15.896 6.22732 15.8918 5.48826 14.8244C3.73856 12.2973 2 9.19912 2 7Z" fill="#04C8F2"/>
<path d="M7 9.5C8.38071 9.5 9.5 8.38071 9.5 7C9.5 5.61929 8.38071 4.5 7 4.5C5.61929 4.5 4.5 5.61929 4.5 7C4.5 8.38071 5.61929 9.5 7 9.5Z" fill="#04C8F2"/>
</svg>
