<svg width="14" height="12" viewBox="0 0 14 12" fill="none" xmlns="http://www.w3.org/2000/svg">
<path d="M1.63621 6.68578C1.51499 6.57149 1.51499 6.45721 1.51499 6.34292C1.51499 6.17149 1.5756 6.05721 1.63621 6.00006C1.75742 5.88578 1.87863 5.88578 1.99984 5.88578C2.12105 5.88578 2.24227 5.94292 2.36348 6.00006C2.48469 6.11435 2.48469 6.22864 2.48469 6.34292C2.48469 6.45721 2.42408 6.62864 2.36348 6.68578C2.30287 6.80006 2.18166 6.85721 1.99984 6.85721C1.87863 6.85721 1.75742 6.80006 1.63621 6.68578Z" fill="#868586"/>
<path d="M5.51499 4.22864C5.75742 4.34292 5.93924 4.51435 6.06045 4.74292C6.18166 4.97149 6.24227 5.20006 6.24227 5.48578C6.24227 5.77149 6.18166 6.00006 6.06045 6.22864C5.93924 6.45721 5.75742 6.62864 5.51499 6.74292C5.33318 6.80006 5.09075 6.85721 4.78772 6.85721C4.42408 6.85721 4.12105 6.74292 3.93924 6.51435V7.77149H3.09075V4.11435H3.87863V4.40006C4.06045 4.17149 4.36348 4.05721 4.78772 4.05721C5.09075 4.05721 5.33318 4.11435 5.51499 4.22864ZM5.15136 6.00006C5.27257 5.88578 5.33318 5.65721 5.33318 5.42864C5.33318 5.20006 5.27257 5.02864 5.15136 4.85721C5.03015 4.74292 4.84833 4.68578 4.66651 4.68578C4.42408 4.68578 4.24227 4.74292 4.12105 4.91435C3.99984 5.02864 3.93924 5.25721 3.93924 5.48578C3.93924 5.71435 3.99984 5.88578 4.12105 6.05721C4.24227 6.17149 4.42408 6.28578 4.66651 6.28578C4.84833 6.22864 5.03015 6.11435 5.15136 6.00006Z" fill="#868586"/>
<path d="M9.69681 3.08578V6.85721H8.90893V6.57149C8.72711 6.80006 8.42408 6.91435 7.99984 6.91435C7.75742 6.91435 7.45439 6.85721 7.27257 6.74292C7.03015 6.62864 6.90893 6.45721 6.72712 6.22863C6.6059 6.00006 6.5453 5.77149 6.5453 5.48578C6.5453 5.20006 6.6059 4.97149 6.72712 4.74292C6.84833 4.51435 7.03015 4.34292 7.27257 4.22864C7.51499 4.11435 7.75742 4.05721 7.99984 4.05721C8.36348 4.05721 8.66651 4.17149 8.84833 4.40006V3.08578H9.69681ZM8.66651 6.00006C8.78772 5.88578 8.84833 5.65721 8.84833 5.42864C8.84833 5.20006 8.78772 5.02864 8.66651 4.85721C8.5453 4.68578 8.36348 4.62864 8.12105 4.62864C7.87863 4.62864 7.75742 4.68578 7.5756 4.85721C7.45439 4.97149 7.39378 5.20006 7.39378 5.42864C7.39378 5.65721 7.45439 5.82864 7.5756 6.00006C7.69681 6.11435 7.87863 6.22863 8.12105 6.22863C8.36348 6.22863 8.5453 6.11435 8.66651 6.00006Z" fill="#868586"/>
<path d="M11.3938 4.17149H12.1211V4.80006H11.3938V6.85721H10.5453V4.74292H10.1211V4.17149H10.5453V4.05721C10.5453 3.77149 10.6665 3.48578 10.8483 3.31435C11.0301 3.14292 11.3332 3.02864 11.6968 3.02864C11.818 3.02864 11.9392 3.02864 12.0604 3.08578C12.1817 3.08578 12.2423 3.14292 12.3635 3.20006L12.1211 3.77149C11.9998 3.71435 11.9392 3.65721 11.7574 3.65721C11.515 3.65721 11.3938 3.77149 11.3938 4.05721V4.17149Z" fill="#868586"/>
<path d="M13.8788 0.457143C13.697 0.171429 13.3939 0 12.9697 0C12 0 10.9697 0 10 0C9.57576 0 9.15152 0 8.72727 0C8.18182 0 7.69697 0.228571 7.27273 0.571429C7.21212 0.628571 7.09091 0.742857 7.0303 0.8C7.0303 0.8 7.0303 0.8 6.9697 0.857143C6.90909 0.8 6.90909 0.8 6.84848 0.742857C6.54545 0.285714 6.06061 0.0571429 5.45455 0C5.21212 0 4.9697 0 4.72727 0C3.51515 0 2.30303 0 1.09091 0C0.606061 0 0.181818 0.342857 0 0.8C0 0.857143 0 0.971429 0 1.02857C0 1.71429 0 2.45714 0 3.14286C0 5.31429 0 7.54286 0 9.71429C0 10 0.121212 10.2857 0.363636 10.4571C0.545455 10.6286 0.787879 10.7429 1.09091 10.7429C2.06061 10.7429 3.09091 10.7429 4.06061 10.7429C4.48485 10.7429 4.90909 10.7429 5.27273 10.7429C5.81818 10.7429 6.36364 11.1429 6.48485 11.6571C6.54545 11.8857 6.72727 12 6.9697 12C7.0303 12 7.15151 12 7.21212 11.9429C7.33333 11.8857 7.45455 11.7714 7.45455 11.6571C7.57576 11.2 7.93939 10.9143 8.42424 10.7429C8.54545 10.7429 8.60606 10.6857 8.72727 10.6857C10.1212 10.6857 11.5152 10.6857 12.9091 10.6857C13.4545 10.6857 13.8788 10.3429 14 9.88571C14 6.85714 14 3.82857 14 0.742857C14 0.685714 14 0.571429 13.8788 0.457143ZM13.2121 9.71429C13.2121 9.82857 13.1515 9.88571 13.0303 9.94286H12.9697C11.5758 9.94286 10.1818 9.94286 8.78788 9.94286C8.30303 9.94286 7.87879 10.0571 7.51515 10.3429C7.51515 10.3429 7.51515 10.3429 7.45455 10.3429C7.45455 10.2857 7.45455 10.2857 7.45455 10.2286C7.45455 9.42857 7.45455 8.62857 7.45455 7.77143H6.54545C6.54545 8.62857 6.54545 9.42857 6.54545 10.2857V10.3429C6.42424 10.2857 6.36364 10.2286 6.30303 10.1714C6 10 5.63636 9.94286 5.27273 9.94286C4.06061 9.94286 2.84848 9.94286 1.63636 9.94286C1.45455 9.94286 1.27273 9.94286 1.09091 9.94286C0.909091 9.94286 0.848485 9.88571 0.848485 9.71429C0.848485 8.45714 0.848485 7.2 0.848485 5.94286C0.848485 4.34286 0.848485 2.68571 0.848485 1.08571C0.848485 0.971429 0.909091 0.914286 1.0303 0.857143H1.09091C2.48485 0.857143 3.87879 0.857143 5.21212 0.857143C5.81818 0.857143 6.30303 1.2 6.48485 1.71429C6.54545 1.82857 6.54545 2 6.54545 2.11429C6.54545 2.34286 6.54545 2.57143 6.54545 2.74286H7.45455C7.45455 2.51429 7.45455 2.28571 7.45455 2.05714C7.45455 1.48571 7.87879 0.971429 8.48485 0.857143C8.60606 0.857143 8.66667 0.8 8.78788 0.8C10.1818 0.8 11.5758 0.8 12.9091 0.8C13.0303 0.8 13.0909 0.857143 13.1515 0.971429C13.1515 0.971429 13.1515 1.02857 13.1515 1.08571C13.1515 2.4 13.1515 3.71429 13.1515 5.02857C13.2121 6.62857 13.2121 8.17143 13.2121 9.71429Z" fill="#868586"/>
</svg>
