<svg width="18" height="16" viewBox="0 0 18 16" fill="none" xmlns="http://www.w3.org/2000/svg">
<path d="M2.09463 8.87206C1.93945 8.7204 1.93945 8.56875 1.93945 8.41709C1.93945 8.1896 2.01704 8.03794 2.09463 7.96211C2.2498 7.81045 2.40497 7.81045 2.56014 7.81045C2.71532 7.81045 2.87049 7.88628 3.02566 7.96211C3.18083 8.11377 3.18083 8.26543 3.18083 8.41709C3.18083 8.56875 3.10325 8.79623 3.02566 8.87206C2.94807 9.02372 2.7929 9.09955 2.56014 9.09955C2.40497 9.09955 2.2498 9.02372 2.09463 8.87206Z" fill="white"/>
<path d="M7.06014 5.6114C7.37049 5.76306 7.60325 5.99055 7.75842 6.29386C7.91359 6.59718 7.99118 6.9005 7.99118 7.27965C7.99118 7.65879 7.91359 7.96211 7.75842 8.26543C7.60325 8.56874 7.37049 8.79623 7.06014 8.94789C6.82738 9.02372 6.51704 9.09955 6.12911 9.09955C5.66359 9.09955 5.27566 8.94789 5.0429 8.64457V10.3128H3.95669V5.45974H4.96531V5.83889C5.19807 5.53557 5.58601 5.38391 6.12911 5.38391C6.51704 5.38391 6.82738 5.45974 7.06014 5.6114ZM6.59463 7.96211C6.7498 7.81045 6.82738 7.50713 6.82738 7.20382C6.82738 6.9005 6.7498 6.67301 6.59463 6.44552C6.43945 6.29386 6.20669 6.21803 5.97394 6.21803C5.66359 6.21803 5.43083 6.29386 5.27566 6.52135C5.12049 6.67301 5.0429 6.97633 5.0429 7.27965C5.0429 7.58296 5.12049 7.81045 5.27566 8.03794C5.43083 8.1896 5.66359 8.34126 5.97394 8.34126C6.20669 8.26543 6.43945 8.11377 6.59463 7.96211Z" fill="white"/>
<path d="M12.4136 4.09481V9.09955H11.405V8.7204C11.1722 9.02372 10.7843 9.17538 10.2412 9.17538C9.93083 9.17538 9.5429 9.09955 9.31014 8.94789C8.9998 8.79623 8.84463 8.56874 8.61187 8.26543C8.45669 7.96211 8.37911 7.65879 8.37911 7.27965C8.37911 6.9005 8.45669 6.59718 8.61187 6.29386C8.76704 5.99055 8.9998 5.76306 9.31014 5.6114C9.62049 5.45974 9.93083 5.38391 10.2412 5.38391C10.7067 5.38391 11.0946 5.53557 11.3274 5.83889V4.09481H12.4136ZM11.0946 7.96211C11.2498 7.81045 11.3274 7.50713 11.3274 7.20382C11.3274 6.9005 11.2498 6.67301 11.0946 6.44552C10.9395 6.21803 10.7067 6.1422 10.3963 6.1422C10.086 6.1422 9.93083 6.21803 9.69807 6.44552C9.5429 6.59718 9.46531 6.9005 9.46531 7.20382C9.46531 7.50713 9.5429 7.73462 9.69807 7.96211C9.85325 8.11377 10.086 8.26543 10.3963 8.26543C10.7067 8.26543 10.9395 8.11377 11.0946 7.96211Z" fill="white"/>
<path d="M14.586 5.53557H15.517V6.36969H14.586V9.09955H13.4998V6.29386H12.9567V5.53557H13.4998V5.38391C13.4998 5.00476 13.655 4.62562 13.8877 4.39813C14.1205 4.17064 14.5084 4.01898 14.9739 4.01898C15.1291 4.01898 15.2843 4.01898 15.4395 4.09481C15.5946 4.09481 15.6722 4.17064 15.8274 4.24647L15.517 5.00476C15.3619 4.92893 15.2843 4.85311 15.0515 4.85311C14.7412 4.85311 14.586 5.00476 14.586 5.38391V5.53557Z" fill="white"/>
<path d="M17.7672 0.606635C17.5345 0.227488 17.1466 0 16.6034 0C15.3621 0 14.0431 0 12.8017 0C12.2586 0 11.7155 0 11.1724 0C10.4741 0 9.85345 0.303318 9.31034 0.758294C9.23276 0.834123 9.07759 0.985782 9 1.06161C9 1.06161 9 1.06161 8.92241 1.13744C8.84483 1.06161 8.84483 1.06161 8.76724 0.985782C8.37931 0.379147 7.75862 0.0758294 6.98276 0C6.67241 0 6.36207 0 6.05172 0C4.5 0 2.94828 0 1.39655 0C0.775862 0 0.232759 0.454976 0 1.06161C0 1.13744 0 1.2891 0 1.36493C0 2.27488 0 3.26066 0 4.17062C0 7.05213 0 10.0095 0 12.891C0 13.2701 0.155172 13.6493 0.465517 13.8768C0.698276 14.1043 1.00862 14.2559 1.39655 14.2559C2.63793 14.2559 3.9569 14.2559 5.19828 14.2559C5.74138 14.2559 6.28448 14.2559 6.75 14.2559C7.44828 14.2559 8.14655 14.7867 8.30172 15.4692C8.37931 15.7725 8.61207 15.9242 8.92241 15.9242C9 15.9242 9.15517 15.9242 9.23276 15.8483C9.38793 15.7725 9.5431 15.6209 9.5431 15.4692C9.69828 14.8626 10.1638 14.4834 10.7845 14.2559C10.9397 14.2559 11.0172 14.1801 11.1724 14.1801C12.9569 14.1801 14.7414 14.1801 16.5259 14.1801C17.2241 14.1801 17.7672 13.7251 17.9224 13.1185C17.9224 9.09953 17.9224 5.08057 17.9224 0.985782C17.9224 0.909953 17.9224 0.758294 17.7672 0.606635ZM16.9138 12.891C16.9138 13.0427 16.8362 13.1185 16.681 13.1943H16.6034C14.819 13.1943 13.0345 13.1943 11.25 13.1943C10.6293 13.1943 10.0862 13.346 9.62069 13.7251C9.62069 13.7251 9.62069 13.7251 9.5431 13.7251C9.5431 13.6493 9.5431 13.6493 9.5431 13.5735C9.5431 12.5118 9.5431 11.4502 9.5431 10.3128H8.37931C8.37931 11.4502 8.37931 12.5118 8.37931 13.6493V13.7251C8.22414 13.6493 8.14655 13.5735 8.06896 13.4976C7.68103 13.2701 7.21552 13.1943 6.75 13.1943C5.19828 13.1943 3.64655 13.1943 2.09483 13.1943C1.86207 13.1943 1.62931 13.1943 1.39655 13.1943C1.16379 13.1943 1.08621 13.1185 1.08621 12.891C1.08621 11.2227 1.08621 9.5545 1.08621 7.88626C1.08621 5.76303 1.08621 3.56398 1.08621 1.44076C1.08621 1.2891 1.16379 1.21327 1.31897 1.13744H1.39655C3.18103 1.13744 4.96552 1.13744 6.67241 1.13744C7.44828 1.13744 8.06896 1.59242 8.30172 2.27488C8.37931 2.42654 8.37931 2.65403 8.37931 2.80569C8.37931 3.109 8.37931 3.41232 8.37931 3.63981H9.5431C9.5431 3.33649 9.5431 3.03318 9.5431 2.72986C9.5431 1.97156 10.0862 1.2891 10.8621 1.13744C11.0172 1.13744 11.0948 1.06161 11.25 1.06161C13.0345 1.06161 14.819 1.06161 16.5259 1.06161C16.681 1.06161 16.7586 1.13744 16.8362 1.2891C16.8362 1.2891 16.8362 1.36493 16.8362 1.44076C16.8362 3.18483 16.8362 4.92891 16.8362 6.67299C16.9138 8.79621 16.9138 10.8436 16.9138 12.891Z" fill="white"/>
</svg>
