<svg width="36" height="36" viewBox="0 0 36 36" fill="none" xmlns="http://www.w3.org/2000/svg">
<path d="M20.5229 18.4396C21.7778 17.612 22.6406 16.2155 22.6406 14.612C22.6406 12.0775 20.5752 10.0344 18.0131 10.0344C15.451 10.0344 13.3857 12.0775 13.3857 14.612C13.3857 16.2155 14.2223 17.6379 15.5033 18.4396C12.8105 19.4482 10.8759 22.0344 10.8759 25.0603C10.8759 25.0861 10.8759 25.0861 10.8759 25.112H12.1308C12.1308 25.0861 12.1308 25.0861 12.1308 25.0603C12.1308 21.8534 14.7713 19.2413 18.0131 19.2413C21.2549 19.2413 23.8955 21.8534 23.8955 25.0603C23.8955 25.0861 23.8955 25.0861 23.8955 25.112H25.1504C25.1504 25.0861 25.1504 25.0861 25.1504 25.0603C25.1242 22.0344 23.2157 19.4482 20.5229 18.4396ZM14.6144 14.5861C14.6144 12.7499 16.1308 11.2499 17.987 11.2499C19.8432 11.2499 21.3595 12.7499 21.3595 14.5861C21.3595 16.4224 19.8432 17.9224 17.987 17.9224C16.1308 17.9224 14.6144 16.4482 14.6144 14.5861Z" fill="white"/>
</svg>
