<svg width="35" height="36" viewBox="0 0 35 36" fill="none" xmlns="http://www.w3.org/2000/svg">
<path d="M20.4357 20.6121C21.5287 19.2931 22.0624 17.6379 21.9862 15.931C21.9099 14.1983 21.1728 12.569 19.9273 11.3793C17.2839 8.81895 13.09 8.9224 10.5737 11.6379C8.05733 14.3276 8.159 18.5948 10.8278 21.1552C12.0987 22.3707 13.7509 22.9914 15.403 22.9914C16.8772 22.9914 18.326 22.5 19.5461 21.5172L24.5279 26.2759L25.4175 25.319L20.4357 20.6121ZM19.2919 20.0431C18.3006 21.1293 16.9535 21.7241 15.5047 21.7759C14.0559 21.8017 12.6833 21.2845 11.6412 20.2759C9.48072 18.181 9.40447 14.6896 11.4379 12.4914C12.5054 11.3534 13.9288 10.7845 15.3522 10.7845C16.6993 10.7845 18.021 11.2759 19.0631 12.2845C20.1053 13.2931 20.7153 14.6638 20.7407 16.1379C20.817 17.5862 20.2832 18.9827 19.2919 20.0431Z" fill="white"/>
</svg>
