<svg width="36" height="36" viewBox="0 0 36 36" fill="none" xmlns="http://www.w3.org/2000/svg">
<path d="M24.1843 11.2241C25.3346 11.3276 26.1712 12.2327 26.1712 13.3965C26.1712 16.1638 26.1712 18.931 26.1712 21.6983C26.1712 22.9138 25.23 23.819 24.0013 23.819C19.7921 23.819 15.5568 23.819 11.3477 23.819C10.1451 23.819 9.17773 22.8879 9.17773 21.7241C9.17773 18.931 9.17773 16.1379 9.17773 13.3448C9.17773 12.2586 9.96205 11.3793 11.0078 11.25C11.1385 11.2241 24.1058 11.2241 24.1843 11.2241ZM10.2496 13.3189C10.2496 13.3965 10.2496 13.4483 10.2496 13.5C10.2496 16.2155 10.2496 18.931 10.2496 21.6465C10.2496 22.2414 10.6156 22.6293 11.0078 22.7069C11.1908 22.7586 11.3738 22.7586 11.583 22.7586C15.1385 22.7586 18.6941 22.7586 22.2496 22.7586C22.8509 22.7586 23.4522 22.7586 24.0797 22.7586C24.6549 22.7586 25.1254 22.2931 25.1254 21.75C25.1254 18.9827 25.1254 16.2414 25.1254 13.4741C25.1254 13.4224 25.1254 13.3965 25.0993 13.3448C22.6156 15.5431 20.1581 17.6896 17.7006 19.8879C15.1908 17.6896 12.7333 15.5172 10.2496 13.3189ZM10.8248 12.3621C10.8248 12.3879 10.8248 12.3879 10.8248 12.4138C13.0993 14.431 15.4 16.4483 17.6745 18.4655C19.9751 16.4483 22.2496 14.431 24.5241 12.4138C24.5241 12.3879 24.5241 12.3879 24.5241 12.3621C24.3411 12.3362 24.1581 12.2845 23.9751 12.2845C22.9032 12.2845 21.8313 12.2845 20.7594 12.2845C17.6222 12.2845 14.4588 12.2845 11.3215 12.2845C11.1647 12.2845 10.9817 12.3362 10.8248 12.3621Z" fill="white"/>
</svg>
