<svg width="33" height="33" viewBox="0 0 33 33" fill="none" xmlns="http://www.w3.org/2000/svg">
<g clip-path="url(#clip0_118_231)">
<path d="M31.9963 16.4373C31.9963 7.90496 25.0952 1.00381 16.5628 1.00381C8.03052 1.00381 1.00391 7.90496 1.00391 16.4373C1.00391 21.0799 3.13699 25.346 6.39934 28.232C6.39934 28.1065 6.39934 27.981 6.39934 27.8555C6.39934 24.7186 8.156 21.8327 10.6655 20.2015C12.1712 21.5818 14.1788 22.3346 16.4374 22.3346C18.6959 22.3346 20.7035 21.5818 22.2092 20.2015C24.8442 21.9582 26.4754 24.7186 26.4754 27.8555C26.4754 27.981 26.4754 28.1065 26.4754 28.232C29.8632 25.346 31.9963 21.2053 31.9963 16.4373Z" fill="black"/>
<path d="M16.4373 20.2015C20.1794 20.2015 23.213 17.168 23.213 13.4259C23.213 9.68378 20.1794 6.65021 16.4373 6.65021C12.6952 6.65021 9.66162 9.68378 9.66162 13.4259C9.66162 17.168 12.6952 20.2015 16.4373 20.2015Z" fill="white"/>
<path d="M22.2093 20.2015C20.7036 21.5818 18.696 22.3346 16.4374 22.3346C14.1789 22.3346 12.1713 21.5818 10.6656 20.2015C8.03059 21.9582 6.39941 24.7186 6.39941 27.8555C6.39941 27.981 6.39941 28.1065 6.39941 28.232C9.15987 30.4905 12.6732 31.9962 16.4374 31.9962C20.2017 31.9962 23.8405 30.616 26.4755 28.232C26.4755 28.1065 26.4755 27.981 26.4755 27.8555C26.6009 24.7186 24.8443 21.8327 22.2093 20.2015Z" fill="white"/>
<path d="M16.4374 31.8707C24.961 31.8707 31.8708 24.9609 31.8708 16.4373C31.8708 7.91361 24.961 1.00381 16.4374 1.00381C7.9137 1.00381 1.00391 7.91361 1.00391 16.4373C1.00391 24.9609 7.9137 31.8707 16.4374 31.8707Z" stroke="black" stroke-width="1.618" stroke-miterlimit="10"/>
</g>
<defs>
<clipPath id="clip0_118_231">
<rect width="33" height="33" fill="white"/>
</clipPath>
</defs>
</svg>
