<svg width="15" height="15" viewBox="0 0 15 15" fill="none" xmlns="http://www.w3.org/2000/svg">
<path fill-rule="evenodd" clip-rule="evenodd" d="M5.21308 0.0319139C3.91081 0.196537 2.67966 0.801807 1.74518 1.73685C-0.0228826 3.50598 -0.499926 6.18789 0.555296 8.42643C1.42727 10.2762 3.16623 11.5561 5.16329 11.818C6.64512 12.0123 8.16241 11.6314 9.37365 10.7611C9.51763 10.6577 9.64576 10.5731 9.65839 10.5731C9.67102 10.5731 10.6508 11.5423 11.8358 12.7269C14.1065 14.997 14.109 14.9992 14.3712 15C14.5006 15.0004 14.7537 14.894 14.8312 14.8066C14.9157 14.7114 15 14.4935 15 14.3705C15 14.1086 14.9978 14.1062 12.7286 11.8335C11.5447 10.6479 10.5761 9.66881 10.5761 9.65781C10.5761 9.64685 10.6617 9.5168 10.7664 9.36883C11.4946 8.33937 11.8635 7.19093 11.865 5.94875C11.867 4.34196 11.251 2.85566 10.1149 1.72574C9.22021 0.835939 8.1159 0.271957 6.85422 0.0604459C6.45621 -0.00629479 5.62902 -0.0206634 5.21308 0.0319139ZM6.61977 1.29312C7.95618 1.50789 9.09706 2.23075 9.8213 3.32168C10.36 4.13306 10.6074 4.94448 10.6107 5.9106C10.6123 6.37585 10.5791 6.65777 10.4724 7.08434C10.0599 8.73383 8.73795 10.0565 7.08945 10.4693C6.66314 10.5761 6.38139 10.6093 5.91642 10.6077C4.95088 10.6044 4.13995 10.3569 3.32905 9.81783C2.03487 8.95759 1.25735 7.49962 1.25688 5.93227C1.25665 5.14382 1.41827 4.48319 1.78506 3.77311C2.37772 2.62583 3.43001 1.7718 4.70022 1.40719C5.23579 1.25348 6.06606 1.20413 6.61977 1.29312Z" fill="#222222" fill-opacity="0.2"/>
</svg>
