<svg width="35" height="30" viewBox="0 0 35 30" fill="none" xmlns="http://www.w3.org/2000/svg">
<g clip-path="url(#clip0_118_246)">
<path d="M34.2999 11C33.2999 7.2 30.7999 4 27.2999 2C23.8999 0 19.8999 -0.5 15.9999 0.5C12.1999 1.5 8.99995 4 6.99995 7.5C4.99995 11 4.49995 15 5.59995 18.8C5.89995 19.7 6.19995 20.7 6.59995 21.5L0.899948 25.3C-5.14984e-05 26 -0.300052 27.2 0.299948 28.1C0.699948 28.7 1.29995 29 1.89995 29C2.29995 29 2.59995 28.9 2.99995 28.7L8.79995 24.9C9.89995 26.1 11.0999 27.2 12.5999 28C14.8999 29.3 17.4999 30 19.9999 30C25.1999 30 30.1999 27.3 32.9999 22.5C34.8999 18.9 35.3999 14.8 34.2999 11ZM29.5999 20.4C26.5999 25.7 19.7999 27.6 14.4999 24.5C11.8999 23 10.0999 20.7 9.29995 17.8C8.49995 15 8.89995 12 10.2999 9.4C11.7999 6.9 14.1999 5 16.9999 4.2C17.9999 4 18.9999 3.8 19.9999 3.8C21.8999 3.8 23.7999 4.3 25.4999 5.3C28.0999 6.8 29.9 9.1 30.6999 12C31.4999 14.9 30.9999 17.8 29.5999 20.4Z" fill="black"/>
</g>
<defs>
<clipPath id="clip0_118_246">
<rect width="34.9" height="29.8" fill="white"/>
</clipPath>
</defs>
</svg>
