<svg width="17" height="17" viewBox="0 0 17 17" fill="none" xmlns="http://www.w3.org/2000/svg">
<path d="M11.6817 11.0842C12.7746 9.76526 13.3084 8.11009 13.2321 6.40319C13.1559 4.67043 12.4188 3.04112 11.1733 1.85147C8.52989 -0.708878 4.33599 -0.605429 1.81965 2.11009C-0.696694 4.79974 -0.595024 9.06699 2.07382 11.6273C3.3447 12.8428 4.99684 13.4635 6.64898 13.4635C8.1232 13.4635 9.57201 12.9722 10.7921 11.9894L15.7739 16.748L16.6635 15.7911L11.6817 11.0842ZM10.5379 10.5153C9.54659 11.6015 8.19946 12.1963 6.75066 12.248C5.30185 12.2739 3.9293 11.7566 2.88718 10.748C0.72669 8.65319 0.650438 5.16181 2.68384 2.96354C3.75138 1.8256 5.17477 1.25664 6.59815 1.25664C7.94528 1.25664 9.267 1.74802 10.3091 2.75664C11.3512 3.76526 11.9613 5.13595 11.9867 6.61009C12.0629 8.05836 11.5292 9.45492 10.5379 10.5153Z" fill="#047B42"/>
</svg>
