<svg width="17" height="17" viewBox="0 0 17 17" fill="none" xmlns="http://www.w3.org/2000/svg">
<path d="M16.893 5.27282C16.5882 3.57977 15.6651 2.11084 14.2937 1.1356C12.9222 0.160351 11.2636 -0.203095 9.62545 0.108862C7.98731 0.423849 6.56604 1.37789 5.62242 2.79533C4.67881 4.21277 4.32715 5.92702 4.63192 7.62007C4.78431 8.47114 5.09494 9.26466 5.54037 9.97035L0.329991 15.101C-0.094927 15.519 -0.11251 16.2156 0.294826 16.6578C0.502889 16.8849 0.784215 17 1.06554 17C1.32928 17 1.59302 16.9001 1.80109 16.6971L6.99974 11.5786C7.07887 11.6392 7.15213 11.7058 7.23418 11.7634C8.28622 12.5114 9.5053 12.8991 10.7537 12.8991C11.1346 12.8991 11.5215 12.8628 11.9024 12.7901C13.5406 12.4751 14.9618 11.5211 15.9054 10.1036C16.8461 8.67709 17.1978 6.96284 16.893 5.27282ZM14.1472 8.84973C13.5259 9.78257 12.5911 10.4125 11.5127 10.6185C10.4343 10.8245 9.34119 10.5852 8.43861 9.9431C7.53602 9.30101 6.92648 8.33485 6.72721 7.22028C6.52794 6.10572 6.75945 4.97601 7.38071 4.04316C8.00197 3.11032 8.93679 2.48035 10.0152 2.27439C10.2672 2.22593 10.5222 2.2017 10.7713 2.2017C11.5947 2.2017 12.3947 2.45612 13.0893 2.9498C13.9918 3.59188 14.6014 4.55804 14.8007 5.67261C14.9999 6.78718 14.7684 7.91386 14.1472 8.84973Z" fill="white"/>
</svg>
