<svg width="21" height="15" viewBox="0 0 21 15" fill="none" xmlns="http://www.w3.org/2000/svg">
<path d="M20.4803 2.49291C20.2293 1.44074 19.3382 0.664277 18.2652 0.548056C15.7235 0.273575 13.1511 0.272339 10.5903 0.273575C8.02814 0.272339 5.45576 0.273575 2.91411 0.548056C1.84111 0.664277 0.949936 1.44074 0.698972 2.49291C0.341733 3.99266 0.337891 5.62842 0.337891 7.17144C0.337891 8.71447 0.337892 10.3515 0.695131 11.85C0.946095 12.9022 1.83727 13.6786 2.91027 13.7948C5.45192 14.0693 8.0243 14.0705 10.5864 14.0693C13.1473 14.0705 15.721 14.0693 18.2613 13.7948C19.3343 13.6786 20.2268 12.9034 20.4765 11.85C20.8337 10.3502 20.835 8.71447 20.835 7.17144C20.835 5.62718 20.8375 3.99143 20.4803 2.49291ZM8.4366 9.86926V4.38089L13.8554 7.12446L8.4366 9.86926Z" fill="white"/>
</svg>
