<svg width="21" height="18" viewBox="0 0 21 18" fill="none" xmlns="http://www.w3.org/2000/svg">
<path d="M19.5284 0.936987L1.15931 7.65311C0.15417 7.93377 0.186184 8.89198 0.930113 9.12195L5.53326 10.5092L7.29385 15.7231C7.50768 16.2943 7.68309 16.5082 8.04802 16.5131C8.43214 16.5181 8.5794 16.3833 8.97889 16.0421C9.44625 15.618 10.1582 14.9516 11.2824 13.8957L16.0699 17.3119C16.9508 17.7817 17.5872 17.5381 17.8062 16.5218L20.8075 2.18451C21.1289 0.93946 20.3722 0.567304 19.5284 0.936987ZM6.25541 10.1902L16.7191 3.85118C17.2351 3.51735 17.3964 3.88951 17.1634 4.14668L8.47953 11.69L8.03393 15.4548L6.25541 10.1902Z" fill="white"/>
</svg>
