<svg width="20" height="20" viewBox="0 0 20 20" fill="none" xmlns="http://www.w3.org/2000/svg">
<g clip-path="url(#clip0_1_9351)">
<g clip-path="url(#clip1_1_9351)">
<path d="M11.1428 13.6064C11.3174 13.7955 11.4692 13.9732 11.6323 14.1365C12.3479 14.8643 13.0693 15.5864 13.782 16.3171C14.094 16.638 14.386 16.979 14.6894 17.3085C14.9556 17.5979 15.0014 17.9332 14.8984 18.2942C14.7123 18.9447 14.011 19.3745 13.4156 19.1883C13.2525 19.1367 13.0922 19.0393 12.9662 18.9218C12.471 18.4633 11.9873 17.9905 11.5035 17.5148C11.0484 17.0678 10.599 16.6151 10.1438 16.1652C10.1095 16.1337 10.0694 16.1051 10.0207 16.0649C9.59138 16.5148 9.17632 16.9675 8.74123 17.4002C8.17733 17.9619 7.60198 18.512 7.02662 19.0593C6.75755 19.3143 6.43123 19.343 6.0906 19.2427C5.44941 19.0593 5.01145 18.3487 5.18606 17.7584C5.229 17.6094 5.31201 17.4518 5.41792 17.3401C6.13067 16.5836 6.85487 15.8386 7.57049 15.085C8.00272 14.6322 8.42922 14.1766 8.85573 13.721C8.89294 13.6809 8.92729 13.635 8.97882 13.572C8.83856 13.5433 8.71833 13.5176 8.60097 13.4918C7.71934 13.3084 6.83484 13.1451 6.00473 12.7754C5.4122 12.5118 4.89123 12.1536 4.48763 11.6407C4.24145 11.3284 4.19279 10.9874 4.32447 10.6177C4.51053 10.0848 5.03149 9.68934 5.54101 9.72086C5.71276 9.73232 5.90454 9.79249 6.0448 9.88992C6.93216 10.5089 7.9054 10.91 8.97023 11.0819C10.4558 11.3226 11.8756 11.1135 13.2067 10.4028C13.4757 10.2596 13.7276 10.0876 13.9767 9.91284C14.2543 9.71799 14.5463 9.65782 14.8697 9.74665C15.5252 9.9243 15.9603 10.6349 15.7542 11.2252C15.6884 11.4172 15.5567 11.5949 15.4222 11.7525C14.8869 12.38 14.1885 12.7582 13.4271 13.0362C12.7172 13.2941 11.9815 13.4431 11.2402 13.5806C11.2173 13.5892 11.1972 13.5921 11.1428 13.6064Z" fill="white"/>
<path d="M10.0464 9.7668C7.61903 9.80692 5.24606 7.72088 5.18881 4.98153C5.14301 2.70637 7.01219 0.124611 9.99773 0.0501094C12.4451 -0.0100648 14.9011 2.05591 14.9469 4.84972C14.987 7.21943 12.9632 9.79546 10.0464 9.7668ZM9.96052 7.21943C11.3116 7.2223 12.3478 6.2108 12.3535 4.8841C12.3593 3.68062 11.2572 2.59175 10.0321 2.59175C8.72967 2.59175 7.73639 3.62044 7.72208 4.96433C7.70777 6.27097 8.84703 7.23662 9.96052 7.21943Z" fill="white"/>
</g>
</g>
<defs>
<clipPath id="clip0_1_9351">
<rect width="20" height="20" fill="white"/>
</clipPath>
<clipPath id="clip1_1_9351">
<rect width="11.55" height="19.25" fill="white" transform="translate(4.25 0.0500488)"/>
</clipPath>
</defs>
</svg>
