<svg width="25" height="14" viewBox="0 0 25 14" fill="none" xmlns="http://www.w3.org/2000/svg">
<path fill-rule="evenodd" clip-rule="evenodd" d="M12.4729 13.8702H13.939C13.939 13.8702 14.382 13.8232 14.6086 13.5883C14.8174 13.3719 14.8097 12.9663 14.8097 12.9663C14.8097 12.9663 14.7815 11.0672 15.6944 10.7866C16.5946 10.5109 17.7508 12.6226 18.9749 13.4349C19.9019 14.0494 20.6049 13.9147 20.6049 13.9147L23.8802 13.8702C23.8802 13.8702 25.5934 13.7675 24.7816 12.4668C24.715 12.3605 24.3079 11.5049 22.3463 9.74552C20.2925 7.90452 20.5677 8.2025 23.0415 5.01877C24.5486 3.08009 25.1504 1.89562 24.9622 1.3887C24.7829 0.905266 23.6741 1.03262 23.6741 1.03262L19.9864 1.05487C19.9864 1.05487 19.7124 1.01902 19.5101 1.13647C19.3117 1.25146 19.1849 1.51852 19.1849 1.51852C19.1849 1.51852 18.601 3.01951 17.8225 4.29547C16.1797 6.98835 15.5229 7.13054 15.2553 6.96362C14.6304 6.57416 14.7866 5.39834 14.7866 4.56254C14.7866 1.9525 15.1964 0.864465 13.9889 0.582566C13.5882 0.4886 13.2924 0.428016 12.2667 0.416888C10.9505 0.404524 9.83651 0.420598 9.20654 0.719806C8.78656 0.91763 8.46261 1.36026 8.66108 1.38623C8.90436 1.41714 9.45622 1.52965 9.74944 1.91417C10.1272 2.4112 10.1144 3.5252 10.1144 3.5252C10.1144 3.5252 10.332 6.59765 9.6073 6.97846C9.11049 7.24058 8.42804 6.70645 6.96451 4.26209C6.21418 3.01086 5.64823 1.62732 5.64823 1.62732C5.64823 1.62732 5.5394 1.36892 5.34477 1.23044C5.10917 1.06229 4.77882 1.00912 4.77882 1.00912L1.27429 1.03138C1.27429 1.03138 0.748041 1.04498 0.554696 1.26629C0.383119 1.46288 0.540614 1.86966 0.540614 1.86966C0.540614 1.86966 3.28456 8.06897 6.39087 11.1921C9.23854 14.0581 12.4729 13.8702 12.4729 13.8702Z" fill="white"/>
</svg>
