<svg width="12" height="13" viewBox="0 0 12 13" fill="none" xmlns="http://www.w3.org/2000/svg">
<path d="M8.10989 7.247C9.16484 6.53345 9.89011 5.32933 9.89011 3.94683C9.89011 1.76158 8.15385 0 6 0C3.84615 0 2.10989 1.76158 2.10989 3.94683C2.10989 5.32933 2.81319 6.55575 3.89011 7.247C1.62637 8.11664 0 10.3465 0 12.9554C0 12.9777 0 12.9777 0 13H1.05495C1.05495 12.9777 1.05495 12.9777 1.05495 12.9554C1.05495 10.1904 3.27473 7.93825 6 7.93825C8.72528 7.93825 10.9451 10.1904 10.9451 12.9554C10.9451 12.9777 10.9451 12.9777 10.9451 13H12C12 12.9777 12 12.9777 12 12.9554C11.978 10.3465 10.3736 8.11664 8.10989 7.247ZM3.14286 3.92453C3.14286 2.34134 4.41758 1.04803 5.97802 1.04803C7.53846 1.04803 8.81319 2.34134 8.81319 3.92453C8.81319 5.50772 7.53846 6.80103 5.97802 6.80103C4.41758 6.80103 3.14286 5.53002 3.14286 3.92453Z" fill="#868586"/>
</svg>
