<svg width="26" height="16" viewBox="0 0 26 16" fill="none" xmlns="http://www.w3.org/2000/svg">
<path d="M24.8696 12.2075C24.3035 11.528 23.6602 10.9189 23.0381 10.3299C22.8169 10.1205 22.5882 9.90392 22.3677 9.68857C21.7347 9.06967 21.7116 8.83715 22.2128 8.13416C22.5595 7.64959 22.9272 7.16437 23.2827 6.69511C23.6052 6.26937 23.9387 5.82909 24.2583 5.38739L24.3239 5.29657C24.9348 4.4513 25.5666 3.57727 25.9028 2.52289C25.9901 2.24471 26.0818 1.83535 25.8722 1.49305C25.6627 1.15104 25.2564 1.04669 24.9689 0.997957C24.8267 0.97384 24.6855 0.970548 24.5544 0.970548L20.5538 0.967685L20.5208 0.967399C19.9159 0.967399 19.5083 1.25245 19.2747 1.83893C19.0517 2.39929 18.8067 2.99601 18.5272 3.56338C17.9709 4.6932 17.2644 5.99448 16.2421 7.07978L16.1988 7.12594C16.0781 7.25569 15.9413 7.40261 15.8414 7.40261C15.826 7.40261 15.8094 7.39968 15.7905 7.39374C15.5787 7.31122 15.4366 6.7986 15.443 6.56014C15.4431 6.55685 15.4432 6.55355 15.4432 6.55026L15.4404 1.92638C15.4404 1.91035 15.4392 1.89446 15.4371 1.87858C15.3354 1.12692 15.1099 0.659021 14.2582 0.4922C14.2356 0.487692 14.2124 0.485474 14.1894 0.485474H10.0295C9.35182 0.485474 8.97839 0.760931 8.62736 1.17322C8.5326 1.28343 8.33537 1.51287 8.43313 1.79119C8.53232 2.07367 8.85429 2.13407 8.95914 2.15368C9.47956 2.25272 9.77291 2.57105 9.856 3.12726C10.0011 4.09312 10.0189 5.12402 9.91211 6.37163C9.88234 6.71837 9.82344 6.98617 9.7264 7.21497C9.70385 7.26836 9.62391 7.44262 9.5424 7.44269C9.51649 7.44269 9.44156 7.43253 9.30509 7.33849C8.9824 7.11742 8.7463 6.80196 8.47106 6.41228C7.53469 5.08896 6.74882 3.63116 6.06823 1.95458C5.81581 1.3374 5.34441 0.991874 4.74025 0.981712C4.0764 0.971621 3.47453 0.966755 2.9005 0.966755C2.2733 0.966755 1.69182 0.972552 1.12402 0.98436C0.637942 0.992948 0.301725 1.13866 0.124814 1.41776C-0.0523837 1.69709 -0.0408616 2.064 0.159094 2.50814C1.75974 6.06662 3.21103 8.65394 4.86492 10.8977C6.02379 12.4677 7.18616 13.5544 8.52258 14.3174C9.93057 15.1229 11.5085 15.5145 13.3463 15.5145C13.5546 15.5145 13.77 15.5094 13.9872 15.4992C15.0551 15.4472 15.4513 15.0607 15.5014 14.0209C15.5252 13.4895 15.5834 12.9322 15.8446 12.457C16.0095 12.1575 16.1632 12.1575 16.2137 12.1575C16.311 12.1575 16.4317 12.2023 16.5613 12.2863C16.7938 12.438 16.9931 12.6412 17.1565 12.8188C17.3102 12.9875 17.4623 13.1579 17.6145 13.3283C17.943 13.6963 18.2827 14.0766 18.6375 14.4374C19.4141 15.2276 20.2697 15.5751 21.2524 15.4997H24.9203C24.9281 15.4997 24.936 15.4994 24.9438 15.4989C25.3092 15.4748 25.6258 15.272 25.8122 14.9427C26.0432 14.5347 26.0385 14.0142 25.7998 13.55C25.5289 13.0251 25.1775 12.5767 24.8696 12.2075Z" fill="white"/>
</svg>
