<svg width="1362" height="334" viewBox="0 0 1362 334" fill="none" xmlns="http://www.w3.org/2000/svg">
<path d="M1337.73 295H21.2672C12.2516 295 5 302.293 5 311.359V312.641C5 321.707 12.2516 329 21.2672 329H1337.73C1346.75 329 1354 321.707 1354 312.641V311.359C1354 302.391 1346.75 295 1337.73 295Z" fill="#BFA282"/>
<path d="M1337.72 294.929H21.267C12.2516 294.929 5 302.186 5 311.208V312.483C5 321.505 12.2516 328.762 21.267 328.762H1337.72C1346.73 328.762 1353.98 321.505 1353.98 312.483V311.208C1353.98 302.284 1346.73 294.929 1337.72 294.929Z" stroke="#9C7C59" stroke-width="9.2137" stroke-miterlimit="10"/>
<path d="M1275.79 4.25537H83.1012V295.027H1275.79V4.25537Z" stroke="#CEB597" stroke-width="8" stroke-miterlimit="10"/>
<path d="M687.626 4.25537H671.359V295.027H687.626V4.25537Z" fill="#BFA282"/>
<path d="M687.626 4.25537H671.359V295.027H687.626V4.25537Z" stroke="#9C7C59" stroke-width="5.6569" stroke-miterlimit="10"/>
<g clip-path="url(#clip0_25_26)">
<path d="M76.4332 159.826V282.764C76.4332 286.047 73.7808 288.725 70.5294 288.725H55.4706C52.2193 288.725 49.5669 286.047 49.5669 282.764V159.826C49.5669 156.543 52.2193 153.865 55.4706 153.865H70.5294C73.7808 153.865 76.4332 156.543 76.4332 159.826Z" fill="#ADACE5"/>
<path d="M51.4492 179.092H73.738C75.2353 179.092 76.4332 180.302 76.4332 181.813V203.498C76.4332 205.01 75.2353 206.219 73.738 206.219H51.4492C49.9519 206.219 48.754 205.01 48.754 203.498V181.77C48.754 180.302 49.9947 179.092 51.4492 179.092Z" fill="white"/>
<path d="M47 208.768H77.9733V176.5H47V208.768ZM76.5615 203.584H48.4546V181.684H76.5615V203.584Z" fill="black"/>
<path d="M55.4706 291.273H70.5294C75.1925 291.273 79 287.472 79 282.764V159.826C79 155.118 75.1925 151.273 70.5294 151.273H55.4706C50.8075 151.273 47 155.118 47 159.826V282.764C47 287.472 50.8075 291.273 55.4706 291.273ZM70.5294 156.457C72.369 156.457 73.8663 157.969 73.8663 159.826V282.764C73.8663 284.621 72.369 286.133 70.5294 286.133H55.4706C53.631 286.133 52.1337 284.621 52.1337 282.764V159.826C52.1337 157.969 53.631 156.457 55.4706 156.457H70.5294Z" fill="black"/>
</g>
<g clip-path="url(#clip1_25_26)">
<path d="M16.647 158.797V285.247C16.647 288.624 19.3823 291.379 22.7353 291.379H38.2647C41.6176 291.379 44.3529 288.624 44.3529 285.247V158.797C44.3529 155.421 41.6176 152.666 38.2647 152.666H22.7353C19.3823 152.666 16.647 155.421 16.647 158.797Z" fill="#B2D3CC"/>
<path d="M42.4117 178.613H19.4264C17.8823 178.613 16.647 179.857 16.647 181.413V203.717C16.647 205.272 17.8823 206.516 19.4264 206.516H42.4117C43.9559 206.516 45.1911 205.272 45.1911 203.717V181.368C45.1911 179.857 43.9117 178.613 42.4117 178.613Z" fill="white"/>
<path d="M47 209.137H15.0588V175.948H47V209.137ZM16.5147 203.806H45.5V181.279H16.5147V203.806Z" fill="black"/>
<path d="M38.2647 294H22.7353C17.9265 294 14 290.09 14 285.247V158.797C14 153.954 17.9265 150 22.7353 150H38.2647C43.0735 150 47 153.954 47 158.797V285.247C47 290.09 43.0735 294 38.2647 294ZM22.7353 155.332C20.8382 155.332 19.2941 156.887 19.2941 158.797V285.247C19.2941 287.158 20.8382 288.713 22.7353 288.713H38.2647C40.1618 288.713 41.7059 287.158 41.7059 285.247V158.797C41.7059 156.887 40.1618 155.332 38.2647 155.332H22.7353Z" fill="black"/>
</g>
<g clip-path="url(#clip2_25_26)">
<path d="M1357.24 278.864L1338.6 161.36C1338.11 158.223 1335.15 156.068 1332.02 156.564L1317.52 158.863C1314.39 159.36 1312.24 162.325 1312.74 165.462L1331.37 282.966C1331.87 286.104 1334.83 288.258 1337.96 287.762L1352.46 285.463C1355.59 284.966 1357.73 282.001 1357.24 278.864Z" fill="#B2D3CC"/>
<path d="M1315.06 180.119L1320.02 211.374L1345.88 207.272L1340.93 176.017L1315.06 180.119Z" fill="#F9AE16"/>
<path d="M1341.1 161.134L1359.73 278.637C1360.45 283.137 1357.36 287.393 1352.87 288.105L1338.37 290.404C1333.88 291.116 1329.64 288.023 1328.92 283.523L1310.29 166.02C1309.58 161.519 1312.66 157.263 1317.15 156.551L1331.65 154.252C1336.15 153.581 1340.39 156.633 1341.1 161.134ZM1333.87 282.739C1334.15 284.514 1335.82 285.731 1337.59 285.45L1352.09 283.151C1353.86 282.87 1355.07 281.196 1354.79 279.421L1336.16 161.917C1335.88 160.142 1334.21 158.926 1332.43 159.206L1317.94 161.506C1316.16 161.787 1314.95 163.46 1315.23 165.236L1333.87 282.739Z" fill="black"/>
<path d="M1343.01 173.148L1348.75 209.357L1317.94 214.243L1312.19 178.034L1343.01 173.148ZM1343.02 205.186L1338.85 178.886L1317.92 182.205L1322.09 208.505L1343.02 205.186Z" fill="black"/>
</g>
<g clip-path="url(#clip3_25_26)">
<path d="M1283.2 157.926L1303.28 282.771C1303.82 286.105 1306.96 288.391 1310.27 287.858L1325.6 285.392C1328.91 284.86 1331.17 281.705 1330.64 278.372L1310.56 153.526C1310.02 150.192 1306.88 147.907 1303.57 148.44L1288.24 150.906C1284.93 151.438 1282.66 154.592 1283.2 157.926Z" fill="#FF7B94"/>
<path d="M1311.79 173.399L1289.09 177.049C1287.57 177.295 1286.55 178.719 1286.79 180.254L1290.33 202.276C1290.58 203.811 1292 204.843 1293.52 204.598L1316.22 200.948C1317.74 200.702 1318.76 199.278 1318.52 197.743L1314.97 175.678C1314.73 174.186 1313.27 173.161 1311.79 173.399Z" fill="white"/>
<path d="M1321.16 202.807L1289.63 207.88L1284.36 175.111L1315.89 170.039L1321.16 202.807ZM1290.22 202.384L1318.84 197.781L1315.26 175.541L1286.64 180.144L1290.22 202.384Z" fill="black"/>
<path d="M1326.02 287.98L1310.68 290.446C1305.93 291.21 1301.44 287.973 1300.67 283.192L1280.59 158.346C1279.82 153.565 1283.07 149.037 1287.81 148.274L1303.15 145.807C1307.9 145.044 1312.4 148.324 1313.17 153.106L1333.25 277.951C1334.02 282.733 1330.76 287.216 1326.02 287.98ZM1288.66 153.538C1286.79 153.839 1285.51 155.619 1285.81 157.506L1305.9 282.351C1306.2 284.237 1307.97 285.527 1309.84 285.226L1325.18 282.76C1327.05 282.459 1328.33 280.678 1328.02 278.792L1307.94 153.947C1307.64 152.06 1305.87 150.77 1303.99 151.072L1288.66 153.538Z" fill="black"/>
</g>
<defs>
<clipPath id="clip0_25_26">
<rect width="32" height="140" fill="white" transform="matrix(-1 0 0 1 79 151.273)"/>
</clipPath>
<clipPath id="clip1_25_26">
<rect width="33" height="144" fill="white" transform="translate(14 150)"/>
</clipPath>
<clipPath id="clip2_25_26">
<rect width="135.484" height="31.1969" fill="white" transform="translate(1330.22 291.698) rotate(-99.0105)"/>
</clipPath>
<clipPath id="clip3_25_26">
<rect width="33" height="144" fill="white" transform="translate(1279.19 149.661) rotate(-9.13752)"/>
</clipPath>
</defs>
</svg>
