<svg width="1359" height="66" viewBox="0 0 1359 66" fill="none" xmlns="http://www.w3.org/2000/svg">
<path d="M1337.73 5H21.2672C12.2516 5 5 17.0116 5 31.9449V34.0551C5 48.9884 12.2516 61 21.2672 61H1337.73C1346.75 61 1354 48.9884 1354 34.0551V31.9449C1354 17.1739 1346.75 5 1337.73 5Z" fill="#BFA282"/>
<path d="M1337.73 5H21.2672C12.2516 5 5 17.0116 5 31.9449V34.0551C5 48.9884 12.2516 61 21.2672 61H1337.73C1346.75 61 1354 48.9884 1354 34.0551V31.9449C1354 17.1739 1346.75 5 1337.73 5Z" stroke="#9C7C59" stroke-width="9.2137" stroke-miterlimit="10"/>
</svg>
