<svg width="50" height="54" viewBox="0 0 50 54" fill="none" xmlns="http://www.w3.org/2000/svg">
<path d="M10.5868 5.76758C6.78287 7.98844 3.85303 11.0787 2.73267 14.4722C1.36323 18.4749 2.36472 22.737 1.74399 26.8262C1.18556 30.7848 0.12805 34.7873 0.443073 38.7888C0.757895 42.5294 1.82207 47.1829 6.00409 49.8336C10.3734 52.6145 18.047 52.6095 23.5999 53.0409C29.2775 53.4721 49.8033 53.8067 49.8033 53.8067L49.8242 0.000270915C49.8242 0.000270915 47.1416 0.0890179 43.7726 0.0477202C32.0436 -0.118604 19.9407 0.280779 10.5868 5.76758ZM14.0467 42.7817C14.1715 42.8251 14.2339 42.9121 14.3587 42.9555C14.1715 42.9121 14.0467 42.8687 14.0467 42.7817Z" fill="#B2D3CC"/>
</svg>
