<svg width="48" height="48" viewBox="0 0 48 48" fill="none" xmlns="http://www.w3.org/2000/svg">
<path d="M0.299998 18.1216C0.299998 18.2713 0.299994 18.4211 0.374995 18.5709C0.374995 18.7206 0.449996 18.8704 0.449996 19.0202C0.449996 19.1699 0.524996 19.3197 0.599993 19.4694C0.674994 19.6192 0.749995 19.769 0.824996 19.8439C0.899996 19.9936 0.974997 20.0685 1.05 20.2183C1.125 20.368 1.2 20.4429 1.34999 20.5927C1.42499 20.7424 1.575 20.8173 1.65 20.9671C1.49999 21.1169 1.425 21.2666 1.275 21.4164C1.2 21.5661 1.04999 21.7159 0.974993 21.8657C0.899996 22.0154 0.824995 22.1652 0.749995 22.315C0.674994 22.4647 0.599997 22.6145 0.524996 22.8391C0.449995 22.9889 0.449995 23.2136 0.374994 23.3633C0.299994 23.5131 0.299998 23.7377 0.299997 23.8875C0.299997 24.0373 0.299997 24.2619 0.299997 24.4117C0.299997 24.5614 0.299997 24.7861 0.299997 24.9358C0.299997 25.2354 0.374994 25.6098 0.524996 25.9093C0.599997 26.2088 0.749994 26.5084 0.899996 26.8079C1.05 27.1074 1.19999 27.3321 1.425 27.6316C1.65 27.8563 1.87499 28.0809 2.09999 28.3055C2.32499 28.5302 2.625 28.68 2.925 28.9046C3.225 29.0544 3.52499 29.2041 3.82499 29.3539C4.12499 29.5037 4.5 29.5785 4.8 29.6534C5.1 29.7283 5.47499 29.7283 5.84999 29.7283L7.49999 29.7283L9.22499 29.7283L10.95 29.7283L12.75 29.7283L14.475 29.7283L16.2 29.7283L18 29.7283L19.725 29.7283L19.725 29.8032L19.725 29.8781L19.725 29.953L19.725 30.0278L19.725 30.1027L19.725 30.1776L19.725 30.2525L19.725 30.3274C19.65 30.552 19.575 30.8515 19.5 31.1511C19.425 31.4506 19.35 31.7501 19.2 32.1245C19.125 32.499 18.975 32.7985 18.9 33.1729C18.825 33.5473 18.675 33.9217 18.6 34.2961C18.525 34.6705 18.45 35.045 18.375 35.4942C18.3 35.8687 18.225 36.318 18.15 36.6924C18.075 37.0668 18.075 37.5161 18 37.8905C18 38.2649 17.925 38.6393 17.925 39.0137C17.925 39.2384 17.925 39.5379 18 39.7625C18 39.9872 18.075 40.2867 18.15 40.5114C18.225 40.8109 18.3 41.0355 18.3 41.2602C18.3 41.4848 18.45 41.7844 18.525 42.009C18.6 42.2337 18.75 42.5332 18.825 42.7578C18.975 42.9825 19.05 43.282 19.2 43.5066C19.35 43.7313 19.5 43.9559 19.65 44.1806C19.8 44.4052 19.95 44.6299 20.175 44.8545C20.325 45.0792 20.475 45.2289 20.7 45.3787C20.925 45.5285 21 45.9029 21.15 46.0526C21.3 46.2024 21.525 46.3522 21.675 46.5019C21.825 46.6517 22.05 46.7266 22.2 46.8764C22.35 46.9512 22.575 47.101 22.725 47.1759C22.875 47.2508 23.1 47.3256 23.25 47.4005C23.4 47.4754 23.55 47.4754 23.775 47.5503C23.925 47.5503 24.075 47.5503 24.225 47.5503C24.525 47.5503 24.75 47.5503 25.05 47.4754C25.275 47.4754 25.575 47.4005 25.8 47.3256C26.025 47.2508 26.25 47.1759 26.475 47.101C26.7 47.0261 26.85 46.9512 27 46.8764C27.15 46.8015 27.3 46.7266 27.45 46.6517C27.6 46.5768 27.675 46.5019 27.75 46.5019C27.825 46.5019 27.9 46.4271 27.975 46.3522C28.05 46.3522 28.05 46.2773 28.05 46.2773L28.125 46.2024L28.2 46.1275C28.2 46.1275 28.2 46.0526 28.275 46.0526C28.275 46.0526 28.275 45.9778 28.35 45.9778L28.35 45.9029L28.35 45.828L28.35 45.7531L28.35 45.6782L28.35 44.7048L28.35 43.7313L28.35 42.7578L28.35 41.7844L28.35 40.8109L28.35 39.8374L28.35 38.864L28.35 37.8905L29.175 36.1682L30 34.4459L30.75 32.9483L31.5 31.226L32.325 29.5037L33.15 27.7814L33.975 26.0591L34.725 24.3368L34.8 24.2619L34.875 24.187L34.95 24.1121L35.025 24.0373L35.1 23.9624L35.25 24.0373L35.325 23.9624L35.4 23.9624L35.4 23.8875L35.4 22.0903L35.4 3.29488L35.4 1.57259L35.4 1.34794C35.175 1.19817 34.95 1.12329 34.725 1.04841C34.5 0.97353 34.2 0.823765 33.975 0.748882C33.75 0.674 33.45 0.599117 33.225 0.524235C33 0.449352 32.7 0.374473 32.475 0.299591C32.25 0.224708 31.95 0.224708 31.725 0.149826C31.5 0.0749432 31.275 0.0749394 30.975 0.0749393C30.75 0.0749393 30.525 6.0609e-05 30.3 6.05893e-05C30.075 6.05696e-05 29.925 6.05565e-05 29.7 6.05368e-05L27.15 6.03139e-05L24.6 6.0091e-05L22.05 5.98681e-05L19.5 5.96451e-05L16.95 5.94222e-05L14.4 5.91993e-05L11.85 5.89763e-05L9.3 5.87534e-05C9 5.87272e-05 8.7 5.48863e-05 8.475 0.0749374C8.175 0.14982 7.95 0.224706 7.65 0.299589C7.425 0.374471 7.125 0.524232 6.9 0.599115C6.675 0.74888 6.45 0.898645 6.225 1.04841C6 1.19817 5.85 1.42282 5.625 1.57258C5.4 1.72235 5.25 1.947 5.175 2.17164C5.025 2.39629 4.875 2.62093 4.8 2.84558C4.725 3.07023 4.65 3.36976 4.575 3.5944C4.575 3.74417 4.5 3.89393 4.5 3.96882C4.5 4.11858 4.5 4.26835 4.425 4.34323C4.35 4.41811 4.425 4.64275 4.425 4.71764C4.425 4.8674 4.425 5.01717 4.425 5.09205C4.425 5.24181 4.425 5.3167 4.5 5.46646C4.575 5.61623 4.575 5.69111 4.575 5.84087C4.65 5.99064 4.65 6.06552 4.725 6.21528C4.8 6.36505 4.8 6.43993 4.875 6.5897C4.65 6.66458 4.5 6.81434 4.275 6.88923C4.125 7.03899 3.9 7.11387 3.75 7.26363C3.6 7.4134 3.45 7.56316 3.3 7.71293C3.15 7.86269 3.075 8.01246 2.925 8.2371C2.85 8.38687 2.7 8.61152 2.625 8.76128C2.54999 8.91105 2.475 9.13569 2.4 9.36034C2.325 9.58498 2.325 9.80963 2.25 9.9594C2.25 10.184 2.175 10.4087 2.175 10.6333C2.175 10.7082 2.175 10.7831 2.175 10.9329C2.175 11.0826 2.175 11.0826 2.175 11.2324C2.175 11.3073 2.17499 11.3822 2.25 11.5319C2.25 11.6068 2.25 11.6817 2.325 11.7566C2.325 11.8315 2.4 11.9063 2.4 11.9812C2.4 12.0561 2.47499 12.131 2.47499 12.2059C2.47499 12.2807 2.55 12.3556 2.55 12.4305C2.55 12.5054 2.625 12.5803 2.7 12.6552C2.47499 12.73 2.325 12.8798 2.09999 12.9547C1.95 13.1045 1.72499 13.1793 1.575 13.3291C1.42499 13.4789 1.275 13.6286 1.125 13.7784C0.974998 13.9282 0.899997 14.0779 0.749995 14.3026C0.599998 14.5272 0.524997 14.677 0.449996 14.8267C0.374995 14.9765 0.299994 15.2012 0.224994 15.4258C0.149997 15.6504 0.149997 15.8751 0.0749959 16.0249C0.0749959 16.2495 -4.91263e-06 16.4742 -4.93227e-06 16.6988C0.299994 17.822 0.299998 17.9718 0.299998 18.1216Z" fill="#FFDEB3"/>
<path d="M37.425 1.43343e-05L45.525 1.50424e-05C46.875 1.51604e-05 48 1.12325 48 2.47113L48 22.6145C48 23.9623 46.875 25.0856 45.525 25.0856L37.425 25.0856C36.075 25.0856 34.95 23.9623 34.95 22.6145L34.95 2.54601C34.95 1.12325 36.075 1.42163e-05 37.425 1.43343e-05Z" fill="#D1D1E8"/>
<path d="M40.05 17.8219C39.0145 17.8219 38.175 18.6601 38.175 19.694C38.175 20.7279 39.0145 21.566 40.05 21.566C41.0856 21.566 41.925 20.7279 41.925 19.694C41.925 18.6601 41.0856 17.8219 40.05 17.8219Z" fill="white"/>
</svg>
