<svg width="48" height="48" viewBox="0 0 48 48" fill="none" xmlns="http://www.w3.org/2000/svg">
<path d="M47.7 29.4287C47.7 29.279 47.7 29.1292 47.625 28.9794C47.625 28.8297 47.55 28.6799 47.55 28.5301C47.55 28.3804 47.475 28.2306 47.4 28.0808C47.325 27.9311 47.25 27.7813 47.175 27.7064C47.1 27.5567 47.025 27.4818 46.95 27.332C46.875 27.1823 46.8 27.1074 46.65 26.9576C46.575 26.8078 46.425 26.733 46.35 26.5832C46.5 26.4334 46.575 26.2837 46.725 26.1339C46.8 25.9841 46.95 25.8344 47.025 25.6846C47.1 25.5348 47.175 25.3851 47.25 25.2353C47.325 25.0856 47.4 24.9358 47.475 24.7111C47.55 24.5614 47.55 24.3367 47.625 24.187C47.7 24.0372 47.7 23.8126 47.7 23.6628C47.7 23.513 47.7 23.2884 47.7 23.1386C47.7 22.9889 47.7 22.7642 47.7 22.6144C47.7 22.3149 47.625 21.9405 47.475 21.641C47.4 21.3414 47.25 21.0419 47.1 20.7424C46.95 20.4429 46.8 20.2182 46.575 19.9187C46.35 19.694 46.125 19.4694 45.9 19.2447C45.675 19.0201 45.375 18.8703 45.075 18.6457C44.775 18.4959 44.475 18.3462 44.175 18.1964C43.875 18.0466 43.5 17.9717 43.2 17.8969C42.9 17.822 42.525 17.822 42.15 17.822H40.5H38.775H37.05H35.25H33.525H31.8H30H28.275V17.7471V17.6722V17.5973V17.5224V17.4476V17.3727V17.2978V17.2229C28.35 16.9983 28.425 16.6987 28.5 16.3992C28.575 16.0997 28.65 15.8002 28.8 15.4257C28.875 15.0513 29.025 14.7518 29.1 14.3774C29.175 14.003 29.325 13.6286 29.4 13.2542C29.475 12.8797 29.55 12.5053 29.625 12.056C29.7 11.6816 29.775 11.2323 29.85 10.8579C29.925 10.4835 29.925 10.0342 30 9.65981C30 9.2854 30.075 8.91099 30.075 8.53658C30.075 8.31193 30.075 8.0124 30 7.78775C30 7.56311 29.925 7.26358 29.85 7.03893C29.775 6.7394 29.7 6.51476 29.7 6.29011C29.7 6.06546 29.55 5.76593 29.475 5.54129C29.4 5.31664 29.25 5.01711 29.175 4.79246C29.025 4.56782 28.95 4.26829 28.8 4.04364C28.65 3.819 28.5 3.59435 28.35 3.3697C28.2 3.14505 28.05 2.92041 27.825 2.69576C27.675 2.47111 27.525 2.32135 27.3 2.17159C27.075 2.02182 27 1.64741 26.85 1.49765C26.7 1.34788 26.475 1.19812 26.325 1.04835C26.175 0.898587 25.95 0.823705 25.8 0.67394C25.65 0.599058 25.425 0.449294 25.275 0.374411C25.125 0.299529 24.9 0.224647 24.75 0.149765C24.6 0.0748823 24.45 0.0748823 24.225 0C24.075 0 23.925 0 23.775 0C23.475 0 23.25 0 22.95 0.0748823C22.725 0.0748823 22.425 0.149765 22.2 0.224647C21.975 0.299529 21.75 0.374411 21.525 0.449294C21.3 0.524176 21.15 0.599058 21 0.67394C20.85 0.748823 20.7 0.823705 20.55 0.898587C20.4 0.973469 20.325 1.04835 20.25 1.04835C20.175 1.04835 20.1 1.12323 20.025 1.19812C19.95 1.19812 19.95 1.273 19.95 1.273L19.875 1.34788L19.8 1.42276C19.8 1.42276 19.8 1.49765 19.725 1.49765C19.725 1.49765 19.725 1.57253 19.65 1.57253V1.64741V1.72229V1.79717V1.87206V2.84553V3.81899V4.79246V5.76593V6.7394V7.71287V8.68634V9.65981L18.825 11.3821L18 13.1044L17.25 14.602L16.5 16.3243L15.675 18.0466L14.85 19.7689L14.025 21.4912L13.275 23.2135L13.2 23.2884L13.125 23.3633L13.05 23.4381L12.975 23.513L12.9 23.5879L12.75 23.513L12.675 23.5879H12.6V23.6628V25.46V44.2554V45.9777V46.2024C12.825 46.3521 13.05 46.427 13.275 46.5019C13.5 46.5768 13.8 46.7265 14.025 46.8014C14.25 46.8763 14.55 46.9512 14.775 47.0261C15 47.1009 15.3 47.1758 15.525 47.2507C15.75 47.3256 16.05 47.3256 16.275 47.4005C16.5 47.4753 16.725 47.4754 17.025 47.4754C17.25 47.4754 17.475 47.5502 17.7 47.5502C17.925 47.5502 18.075 47.5502 18.3 47.5502H20.85H23.4H25.95H28.5H31.05H33.6H36.15H38.7C39 47.5502 39.3 47.5502 39.525 47.4754C39.825 47.4005 40.05 47.3256 40.35 47.2507C40.575 47.1758 40.875 47.0261 41.1 46.9512C41.325 46.8014 41.55 46.6516 41.775 46.5019C42 46.3521 42.15 46.1275 42.375 45.9777C42.6 45.8279 42.75 45.6033 42.825 45.3786C42.975 45.154 43.125 44.9294 43.2 44.7047C43.275 44.4801 43.35 44.1805 43.425 43.9559C43.425 43.8061 43.5 43.6564 43.5 43.5815C43.5 43.4317 43.5 43.2819 43.575 43.2071C43.65 43.1322 43.575 42.9075 43.575 42.8327C43.575 42.6829 43.575 42.5331 43.575 42.4582C43.575 42.3085 43.575 42.2336 43.5 42.0838C43.425 41.9341 43.425 41.8592 43.425 41.7094C43.35 41.5597 43.35 41.4848 43.275 41.335C43.2 41.1852 43.2 41.1104 43.125 40.9606C43.35 40.8857 43.5 40.7359 43.725 40.6611C43.875 40.5113 44.1 40.4364 44.25 40.2867C44.4 40.1369 44.55 39.9871 44.7 39.8374C44.85 39.6876 44.925 39.5378 45.075 39.3132C45.15 39.1634 45.3 38.9388 45.375 38.789C45.45 38.6392 45.525 38.4146 45.6 38.19C45.675 37.9653 45.675 37.7407 45.75 37.5909C45.75 37.3662 45.825 37.1416 45.825 36.917C45.825 36.8421 45.825 36.7672 45.825 36.6174C45.825 36.4677 45.825 36.4677 45.825 36.3179C45.825 36.243 45.825 36.1681 45.75 36.0184C45.75 35.9435 45.75 35.8686 45.675 35.7937C45.675 35.7188 45.6 35.644 45.6 35.5691C45.6 35.4942 45.525 35.4193 45.525 35.3444C45.525 35.2695 45.45 35.1947 45.45 35.1198C45.45 35.0449 45.375 34.97 45.3 34.8951C45.525 34.8202 45.675 34.6705 45.9 34.5956C46.05 34.4458 46.275 34.371 46.425 34.2212C46.575 34.0714 46.725 33.9217 46.875 33.7719C47.025 33.6221 47.1 33.4724 47.25 33.2477C47.4 33.0231 47.475 32.8733 47.55 32.7235C47.625 32.5738 47.7 32.3491 47.775 32.1245C47.85 31.8998 47.85 31.6752 47.925 31.5254C47.925 31.3008 48 31.0761 48 30.8515C47.7 29.7283 47.7 29.5785 47.7 29.4287Z" fill="#FFDEB3"/>
<path d="M10.575 47.5503H2.475C1.125 47.5503 0 46.427 0 45.0792V24.9358C0 23.588 1.125 22.4647 2.475 22.4647H10.575C11.925 22.4647 13.05 23.588 13.05 24.9358V45.0043C13.05 46.427 11.925 47.5503 10.575 47.5503Z" fill="#D1D1E8"/>
<path d="M7.94998 29.7284C8.98552 29.7284 9.82498 28.8902 9.82498 27.8563C9.82498 26.8224 8.98552 25.9843 7.94998 25.9843C6.91445 25.9843 6.07498 26.8224 6.07498 27.8563C6.07498 28.8902 6.91445 29.7284 7.94998 29.7284Z" fill="white"/>
</svg>
