<svg width="62" height="55" viewBox="0 0 62 55" fill="none" xmlns="http://www.w3.org/2000/svg">
<path d="M28.9035 30.7284C30.1003 31.7076 31.8412 31.49 32.8204 30.2931L46.2578 13.7005C47.237 12.5037 47.0194 10.7628 45.8225 9.78356C44.6257 8.80433 42.8848 9.02193 41.9056 10.2188L28.4683 26.8114C27.5434 28.0083 27.7066 29.7491 28.9035 30.7284Z" fill="#589387"/>
<path d="M34.019 42.0055C34.2113 43.5399 35.6226 44.5821 37.157 44.3898L58.329 41.6286C59.8634 41.4363 60.9056 40.025 60.7133 38.4906C60.521 36.9562 59.1097 35.914 57.5753 36.1063L36.4033 38.8675C34.9083 39.0973 33.8267 40.4711 34.019 42.0055Z" fill="#589387"/>
<path d="M16.6246 27.8073C18.1546 27.5829 19.1669 26.15 18.9425 24.6199L15.7373 3.51062C15.5128 1.9806 14.0799 0.968311 12.5499 1.19277C11.0199 1.41724 10.0076 2.85015 10.232 4.38017L13.4372 25.4895C13.6983 26.9793 15.0946 28.0318 16.6246 27.8073Z" fill="#589387"/>
</svg>
