<svg width="16" height="17" viewBox="0 0 16 17" fill="none" xmlns="http://www.w3.org/2000/svg">
<g clip-path="url(#clip0_432_46)">
<path d="M14.808 16.3342C15.6332 15.624 15.8625 14.5143 15.3582 13.5822L13.5244 9.94254L15.4499 7.67884C16.0917 6.96865 16.1375 5.94777 15.7249 5.10442C15.2665 4.26108 14.3037 3.81722 13.341 3.90599L10.6819 4.26108L9.16905 1.28719C8.57307 0.133144 7.15186 -0.310721 5.95989 0.221916C4.76791 0.79894 4.26361 2.17492 4.8596 3.32897L5.63897 4.88249L2.06304 5.32636C1.05444 5.45951 0.275072 6.1697 0.0458453 7.10181C-0.0916905 7.63445 5.58794e-09 8.21147 0.229226 8.65534C0.412607 9.01043 0.687679 9.32113 1.05444 9.54307L5.31805 12.295L4.49284 13.2271C3.66762 14.2036 3.80516 15.6684 4.81375 16.4673C5.82235 17.2663 7.33524 17.1331 8.16046 16.1566L9.30659 14.8251L11.9198 16.5117C12.8367 17.1331 13.9828 17.0444 14.808 16.3342Z" fill="#F9AE16"/>
</g>
<defs>
<clipPath id="clip0_432_46">
<rect width="16" height="17" fill="white"/>
</clipPath>
</defs>
</svg>
