<svg width="25" height="23" viewBox="0 0 25 23" fill="none" xmlns="http://www.w3.org/2000/svg">
<g clip-path="url(#clip0_432_30)">
<path d="M22.1429 0.791438C20.9694 -0.148347 19.2857 -0.247271 18.0102 0.593589L13.1123 3.90757L9.38777 1.78069C8.16328 1.08821 6.68369 1.18714 5.56124 2.028C4.43879 2.86886 3.9796 4.2538 4.38777 5.58929L5.4592 9.15058L1.53063 11.8215C1.28746e-05 12.8603 -0.35713 14.9377 0.714299 16.4215C1.78573 17.9054 3.92858 18.3011 5.4592 17.2624L7.50001 15.8775L8.92858 20.6753C9.33675 22.0108 10.5102 22.9506 11.9388 23.0495C12.7551 23.099 13.5204 22.9011 14.1837 22.456C14.6429 22.1097 15.051 21.6646 15.3061 21.1699L18.3674 14.7398L19.898 15.6301C21.5306 16.5699 23.6225 16.0258 24.5918 14.4925C25.5612 12.9097 25.051 10.8818 23.4184 9.94197L21.2755 8.70542L23.1633 4.79789C23.7245 3.36348 23.3163 1.73122 22.1429 0.791438Z" fill="#91B4F9"/>
</g>
<defs>
<clipPath id="clip0_432_30">
<rect width="25" height="23" fill="white"/>
</clipPath>
</defs>
</svg>
