<svg width="37" height="33" viewBox="0 0 37 33" fill="none" xmlns="http://www.w3.org/2000/svg">
<g clip-path="url(#clip0_432_27)">
<path d="M36.3482 6.38544C35.1951 4.49535 32.9892 3.57584 30.8835 4.18885L22.7114 6.53869L18.8008 1.78792C17.5474 0.25541 15.4919 -0.306509 13.5867 0.306494C11.7317 0.970581 10.4282 2.70742 10.3279 4.69968L10.0271 10.2167L3.50949 12.0046H3.45935C0.902445 12.7709 -0.551485 15.4272 0.150412 18.0325C0.852309 20.6378 3.50949 22.1703 6.0664 21.404L9.47561 20.4334L9.12467 27.7895C9.02439 29.8328 10.1775 31.7229 12.0325 32.5402C13.0854 33 14.2385 33.0511 15.2913 32.7446C16.0935 32.4892 16.7954 32.0805 17.397 31.4675L24.5664 23.9582L26.1707 25.9505C27.8753 28.0449 30.9336 28.3003 32.939 26.5635C34.9946 24.8266 35.2453 21.7105 33.5406 19.6672L31.2846 16.9087L35.6463 12.3111C37.1504 10.7275 37.4512 8.27553 36.3482 6.38544Z" fill="#FFFB76"/>
</g>
<defs>
<clipPath id="clip0_432_27">
<rect width="37" height="33" fill="white"/>
</clipPath>
</defs>
</svg>
