<svg width="246" height="149" viewBox="0 0 246 149" fill="none" xmlns="http://www.w3.org/2000/svg">
<path d="M133.105 36.5859C126.309 36.5859 120.154 36.1794 118.455 36.0473C118.16 34.1775 118.16 32.2569 118.272 30.001C118.496 24.8388 119.025 19.3311 121.406 14.2095C122.982 10.8459 126.685 4.87079 133.796 2.5539C139.656 0.643474 150.145 0.257324 157.897 0.257324C162.902 0.257324 167.022 0.430075 168.477 0.491046C168.456 1.29383 168.477 2.06613 168.497 2.86891C168.517 3.97655 168.558 5.14516 168.497 6.50685C168.456 7.34012 168.436 8.17339 168.416 8.98633C168.273 13.9656 168.121 18.6502 165.781 23.1011C162.892 28.619 155.455 34.1267 149.199 35.3969C145.282 36.1794 139.88 36.5859 133.105 36.5859Z" fill="#8EC640"/>
<path d="M167.226 86.328C157.664 86.328 144.764 85.8403 137.511 83.5132C128.721 80.6577 124.143 73.2701 122.21 69.1241C119.28 62.8237 118.619 56.0661 118.344 49.6743C118.222 46.8595 118.222 44.4613 118.599 42.1343C120.532 42.0022 128.222 41.4534 136.737 41.4534C145.069 41.4534 151.702 41.9412 156.483 42.9167C164.215 44.4816 173.401 51.2901 176.952 58.0883C179.841 63.5859 180.024 69.3781 180.217 75.4955C180.238 76.5016 180.278 77.5177 180.319 78.5136C180.4 80.2005 180.36 81.6028 180.319 82.995C180.299 84.0111 180.278 84.9968 180.299 86.0232C178.661 86.1146 173.503 86.328 167.226 86.328Z" fill="#F58220"/>
<path d="M51.5569 103.349C39.6951 103.349 29.0336 102.597 26.7039 102.414C26.1241 98.8274 26.2258 95.159 26.3479 91.9986C26.7039 83.7472 27.5992 74.1443 31.6278 65.5067C34.2829 59.8364 40.5191 49.7457 52.5539 45.8436C62.4219 42.6528 80.0112 41.9923 93.0329 41.9923C101.884 41.9923 109.056 42.2971 111.07 42.3987C111.029 43.8417 111.07 45.2339 111.09 46.6972C111.131 48.567 111.172 50.518 111.07 52.7943C111.009 54.1865 110.968 55.5583 110.927 56.9505C110.673 65.273 110.429 73.1484 106.482 80.658C101.599 89.9459 89.045 99.2542 78.4853 101.378C71.9643 102.669 62.9102 103.349 51.5569 103.349Z" fill="#EC2027"/>
<path d="M96.9293 35.9258C90.4693 35.9258 85.2912 35.5498 81.5882 34.808C75.6267 33.5988 68.5157 28.3349 65.7486 23.0711C63.5207 18.8235 63.3782 14.3624 63.2358 9.61684C63.2155 8.81406 63.1951 8.02144 63.1544 7.21865C63.0934 5.90778 63.1341 4.78998 63.1544 3.72298C63.1748 2.96085 63.1951 2.2292 63.1748 1.47722C64.5888 1.40609 68.4953 1.25366 73.236 1.25366C80.6523 1.25366 90.6728 1.63981 96.2782 3.44861C103.074 5.64357 106.604 11.3647 108.099 14.5758C110.388 19.484 110.887 24.7173 111.09 29.656C111.172 31.5257 111.192 33.4971 110.907 35.4177C109.249 35.5295 103.41 35.9258 96.9293 35.9258Z" fill="#016A37"/>
<path d="M73.8366 22.3902V15.8663L74.0401 14.7485L73.3584 15.724L72.2598 16.5776L71.3442 15.4598L74.5487 12.3503H75.7085V22.3902H77.5803V24.1482H71.924V22.3902H73.8366Z" fill="white"/>
<path d="M78.4346 18.3356C78.4346 17.2584 78.516 16.3235 78.6584 15.5614C78.8008 14.7993 79.0348 14.1794 79.3196 13.7018C79.6147 13.2242 79.9605 12.8787 80.3776 12.6449C80.7947 12.4214 81.2729 12.3096 81.8324 12.3096C82.4123 12.3096 82.9108 12.4112 83.3279 12.6449C83.7653 12.8685 84.1214 13.2242 84.3859 13.7018C84.6605 14.1794 84.8843 14.7993 85.0064 15.5614C85.1488 16.3235 85.2099 17.2381 85.2099 18.3356C85.2099 19.4331 85.1285 20.3679 84.9861 21.1301C84.8437 21.8922 84.6097 22.5121 84.3248 22.9897C84.0298 23.4673 83.6839 23.8128 83.2668 24.0465C82.8497 24.2701 82.3716 24.3819 81.8121 24.3819C81.2322 24.3819 80.7337 24.2802 80.3166 24.0465C79.8792 23.823 79.5434 23.4673 79.2586 22.9694C78.9839 22.4714 78.7805 21.8516 78.638 21.0894C78.516 20.3273 78.4346 19.3924 78.4346 18.3356ZM80.4285 18.3356C80.4285 19.809 80.5302 20.9065 80.7642 21.5874C80.988 22.2682 81.3441 22.6239 81.8629 22.6239C82.1172 22.6239 82.3207 22.5426 82.5038 22.4003C82.687 22.2377 82.8395 21.9837 82.9413 21.6585C83.043 21.3333 83.1244 20.876 83.1956 20.3375C83.2566 19.7989 83.277 19.1384 83.277 18.3457C83.277 16.8723 83.1753 15.7951 82.9413 15.1143C82.7378 14.4334 82.3614 14.0778 81.8426 14.0778C81.5882 14.0778 81.3644 14.1591 81.2017 14.3013C81.0185 14.4436 80.8863 14.6976 80.7642 15.0431C80.6625 15.3988 80.5811 15.8256 80.5099 16.3642C80.4489 16.9028 80.4285 17.5734 80.4285 18.3356Z" fill="white"/>
<path d="M85.9933 23.0709C85.9933 22.6949 86.0951 22.4103 86.3291 22.1766C86.5529 21.9734 86.8275 21.8413 87.1633 21.8413C87.5804 21.8413 87.9161 21.9836 88.1399 22.2986C88.3637 22.5933 88.4756 22.9997 88.4756 23.5383C88.4756 24.0159 88.4145 24.4529 88.2721 24.7984C88.1297 25.154 87.9568 25.4386 87.7736 25.6926C87.5702 25.9162 87.3565 26.1296 87.1327 26.2718C86.9089 26.4141 86.7156 26.5157 86.5529 26.5869L85.9323 25.8044C86.1866 25.6825 86.4104 25.4487 86.6139 25.1642C86.8174 24.8695 86.9293 24.585 86.9496 24.27C86.7258 24.2903 86.5122 24.1887 86.3087 24.0058C86.0849 23.8025 85.9933 23.4875 85.9933 23.0709Z" fill="white"/>
<path d="M89.2386 18.3356C89.2386 17.2584 89.32 16.3235 89.4624 15.5614C89.6048 14.7993 89.8388 14.1794 90.1236 13.7018C90.4187 13.2242 90.7645 12.8787 91.1816 12.6449C91.5987 12.4214 92.0769 12.3096 92.6364 12.3096C93.2163 12.3096 93.7148 12.4112 94.1319 12.6449C94.5693 12.8685 94.9254 13.2242 95.1899 13.7018C95.4645 14.1794 95.6883 14.7993 95.8104 15.5614C95.9529 16.3235 96.0139 17.2381 96.0139 18.3356C96.0139 19.4331 95.9325 20.3679 95.7901 21.1301C95.6477 21.8922 95.434 22.5121 95.139 22.9897C94.844 23.4673 94.4981 23.8128 94.081 24.0465C93.6639 24.2701 93.1858 24.3819 92.6262 24.3819C92.0464 24.3819 91.5479 24.2802 91.1308 24.0465C90.6933 23.823 90.3576 23.4673 90.0728 22.9694C89.7981 22.4714 89.5946 21.8516 89.4522 21.0894C89.32 20.3273 89.2386 19.3924 89.2386 18.3356ZM91.2325 18.3356C91.2325 19.809 91.3342 20.9065 91.5682 21.5874C91.792 22.2682 92.1481 22.6239 92.6669 22.6239C92.9212 22.6239 93.1247 22.5426 93.3078 22.4003C93.491 22.2377 93.6435 21.9837 93.7453 21.6585C93.847 21.3232 93.9284 20.876 93.9996 20.3375C94.0606 19.7989 94.081 19.1384 94.081 18.3457C94.081 16.8723 93.9793 15.7951 93.7453 15.1143C93.5418 14.4334 93.1654 14.0778 92.6466 14.0778C92.3923 14.0778 92.1684 14.1591 92.0057 14.3013C91.8225 14.4436 91.6903 14.6976 91.5682 15.0431C91.4665 15.3988 91.3851 15.8256 91.3139 16.3642C91.2529 16.9028 91.2325 17.5734 91.2325 18.3356Z" fill="white"/>
<path d="M104.386 17.6748H101.853V24.1581H99.8796V15.8762H104.386V17.6748Z" fill="white"/>
<path d="M129.412 22.6231C129.951 22.6231 130.368 22.4402 130.653 22.0846C130.948 21.7086 131.07 21.2615 131.07 20.7026C131.07 19.4628 130.449 18.843 129.198 18.843H128.222V17.7251L129.859 14.951L130.653 14.2092L129.554 14.3514H127.265V12.5934H132.586V13.7722L130.653 16.9427L130.032 17.4V17.4813L130.653 17.3796C130.968 17.4 131.253 17.4813 131.548 17.6235C131.843 17.7658 132.087 17.9792 132.301 18.2231C132.515 18.4873 132.698 18.8226 132.82 19.2189C132.942 19.6152 133.003 20.0929 133.003 20.6314C133.003 21.2716 132.922 21.8305 132.728 22.3081C132.545 22.7857 132.291 23.1821 131.975 23.4869C131.66 23.8019 131.294 24.0458 130.856 24.1881C130.419 24.3303 129.961 24.4116 129.483 24.4116C129.066 24.4116 128.628 24.371 128.191 24.2897C127.754 24.2084 127.377 24.0865 127.113 23.9137L127.652 22.2573C127.886 22.3793 128.13 22.4809 128.425 22.552C128.72 22.6231 129.056 22.6231 129.412 22.6231Z" fill="white"/>
<path d="M134.56 18.3356C134.56 17.2584 134.641 16.3235 134.794 15.5614C134.936 14.7993 135.17 14.1794 135.455 13.7018C135.75 13.2242 136.096 12.8787 136.513 12.6449C136.93 12.4214 137.408 12.3096 137.968 12.3096C138.548 12.3096 139.046 12.4112 139.463 12.6449C139.901 12.8685 140.257 13.2242 140.521 13.7018C140.796 14.1794 141.02 14.7993 141.142 15.5614C141.284 16.3235 141.345 17.2381 141.345 18.3356C141.345 19.4331 141.264 20.3679 141.111 21.1301C140.959 21.8922 140.735 22.5121 140.45 22.9897C140.155 23.4673 139.809 23.8128 139.392 24.0465C138.975 24.2701 138.497 24.3819 137.937 24.3819C137.357 24.3819 136.859 24.2802 136.442 24.0465C136.004 23.823 135.669 23.4673 135.384 22.9694C135.119 22.4714 134.906 21.8516 134.763 21.0894C134.641 20.3273 134.56 19.3924 134.56 18.3356ZM136.533 18.3356C136.533 19.809 136.635 20.9065 136.869 21.5874C137.093 22.2682 137.449 22.6239 137.968 22.6239C138.222 22.6239 138.426 22.5426 138.609 22.4003C138.792 22.2377 138.944 21.9837 139.046 21.6585C139.148 21.3232 139.229 20.876 139.3 20.3375C139.361 19.7989 139.382 19.1384 139.382 18.3457C139.382 16.8723 139.28 15.7951 139.046 15.1143C138.843 14.4334 138.466 14.0778 137.947 14.0778C137.703 14.0778 137.469 14.1591 137.306 14.3013C137.123 14.4436 136.991 14.6976 136.869 15.0431C136.767 15.3988 136.686 15.8256 136.615 16.3642C136.554 16.9028 136.533 17.5734 136.533 18.3356Z" fill="white"/>
<path d="M142.525 23.0709C142.525 22.6949 142.627 22.4103 142.861 22.1766C143.095 21.9734 143.359 21.8413 143.695 21.8413C144.112 21.8413 144.448 21.9836 144.671 22.2986C144.895 22.5933 145.007 22.9997 145.007 23.5383C145.007 24.0159 144.946 24.4529 144.804 24.7984C144.661 25.154 144.488 25.4386 144.305 25.6926C144.092 25.9162 143.888 26.1296 143.664 26.2718C143.44 26.4141 143.247 26.5157 143.084 26.5869L142.464 25.8044C142.718 25.6825 142.942 25.4487 143.156 25.1642C143.359 24.8695 143.471 24.585 143.491 24.27C143.267 24.2903 143.054 24.1887 142.85 24.0058C142.627 23.8025 142.525 23.4875 142.525 23.0709Z" fill="white"/>
<path d="M146.177 18.3356C146.177 17.2584 146.259 16.3235 146.401 15.5614C146.544 14.7993 146.778 14.1794 147.062 13.7018C147.357 13.2242 147.703 12.8787 148.12 12.6449C148.538 12.4214 149.016 12.3096 149.575 12.3096C150.155 12.3096 150.654 12.4112 151.071 12.6449C151.508 12.8685 151.864 13.2242 152.129 13.7018C152.403 14.1794 152.627 14.7993 152.749 15.5614C152.892 16.3235 152.953 17.2381 152.953 18.3356C152.953 19.4331 152.871 20.3679 152.729 21.1301C152.586 21.8922 152.352 22.5121 152.068 22.9897C151.773 23.4673 151.427 23.8128 151.01 24.0465C150.593 24.2701 150.114 24.3819 149.555 24.3819C148.975 24.3819 148.477 24.2802 148.059 24.0465C147.622 23.823 147.286 23.4673 147.001 22.9694C146.737 22.4714 146.523 21.8516 146.381 21.0894C146.259 20.3273 146.177 19.3924 146.177 18.3356ZM148.171 18.3356C148.171 19.809 148.273 20.9065 148.507 21.5874C148.741 22.2682 149.087 22.6239 149.606 22.6239C149.85 22.6239 150.064 22.5426 150.247 22.4003C150.43 22.2377 150.582 21.9837 150.684 21.6585C150.786 21.3232 150.867 20.876 150.928 20.3375C150.989 19.7989 151.01 19.1384 151.01 18.3457C151.01 16.8723 150.908 15.7951 150.674 15.1143C150.47 14.4334 150.094 14.0778 149.575 14.0778C149.331 14.0778 149.097 14.1591 148.934 14.3013C148.751 14.4436 148.619 14.6976 148.497 15.0431C148.395 15.3988 148.314 15.8256 148.253 16.3642C148.192 16.9028 148.171 17.5734 148.171 18.3356Z" fill="white"/>
<path d="M162.18 17.6748H159.646V24.1581H157.673V15.8762H162.18V17.6748Z" fill="white"/>
<path d="M132.423 57.3159C132.423 57.8951 132.342 58.4744 132.169 59.0739C132.006 59.6735 131.793 60.273 131.528 60.8319C131.254 61.4111 130.989 61.9497 130.674 62.468C130.358 62.9862 130.053 63.4435 129.758 63.8398L129.026 64.5206V64.6019L130.023 64.3581H132.596V66.1161H126.767V64.9779C126.991 64.6934 127.266 64.3581 127.54 63.9821C127.805 63.6061 128.079 63.2199 128.375 62.8033C128.639 62.3867 128.914 61.9599 129.168 61.5229C129.412 61.0656 129.646 60.6287 129.85 60.1815C130.063 59.7243 130.206 59.2873 130.328 58.8605C130.45 58.4235 130.491 58.0374 130.47 57.6614C130.491 57.2041 130.389 56.818 130.155 56.5436C129.921 56.2794 129.575 56.1067 129.097 56.1067C128.822 56.1067 128.537 56.1676 128.242 56.2896C127.947 56.4115 127.703 56.5639 127.489 56.7468L126.716 55.2937C127.093 54.9787 127.51 54.7348 127.968 54.5519C128.425 54.369 128.985 54.2877 129.605 54.2877C130.002 54.2877 130.379 54.3487 130.725 54.4706C131.081 54.5925 131.365 54.7856 131.62 55.0498C131.864 55.3039 132.057 55.6087 132.2 56.005C132.362 56.3912 132.423 56.818 132.423 57.3159Z" fill="white"/>
<path d="M134.336 65.0589C134.336 64.6829 134.437 64.3983 134.671 64.1646C134.905 63.9614 135.17 63.8293 135.506 63.8293C135.923 63.8293 136.258 63.9715 136.482 64.2866C136.706 64.5813 136.818 64.9877 136.818 65.5263C136.818 66.0039 136.757 66.4409 136.614 66.7864C136.472 67.142 136.299 67.4266 136.116 67.6806C135.902 67.9042 135.699 68.1176 135.475 68.2598C135.251 68.4021 135.058 68.5037 134.895 68.5749L134.275 67.7924C134.519 67.6704 134.753 67.4367 134.956 67.1522C135.16 66.8677 135.272 66.573 135.292 66.258C135.058 66.2783 134.854 66.1767 134.651 65.9938C134.417 65.7803 134.336 65.4755 134.336 65.0589Z" fill="white"/>
<path d="M137.988 60.3236C137.988 59.2464 138.07 58.3217 138.222 57.5494C138.375 56.7771 138.599 56.1674 138.883 55.6898C139.178 55.2122 139.524 54.8565 139.941 54.6329C140.359 54.4094 140.837 54.2976 141.396 54.2976C141.976 54.2976 142.475 54.3992 142.892 54.6329C143.329 54.8565 143.685 55.2122 143.95 55.6898C144.224 56.1674 144.448 56.7873 144.57 57.5494C144.713 58.3115 144.774 59.2261 144.774 60.3236C144.774 61.421 144.692 62.3559 144.55 63.1181C144.407 63.8802 144.173 64.5102 143.889 64.9777C143.594 65.4553 143.248 65.811 142.831 66.0345C142.414 66.2581 141.935 66.3699 141.376 66.3699C140.796 66.3699 140.298 66.2682 139.88 66.0345C139.443 65.811 139.107 65.4553 138.822 64.9574C138.548 64.4594 138.344 63.8396 138.202 63.0774C138.049 62.3051 137.988 61.4007 137.988 60.3236ZM139.962 60.3236C139.962 61.797 140.064 62.8945 140.298 63.5754C140.531 64.2562 140.877 64.6119 141.396 64.6119C141.64 64.6119 141.854 64.5306 142.037 64.3883C142.22 64.2257 142.373 63.9717 142.475 63.6465C142.576 63.3111 142.658 62.864 142.719 62.3255C142.78 61.7869 142.8 61.1264 142.8 60.3337C142.8 58.8603 142.698 57.7933 142.464 57.1023C142.261 56.4214 141.885 56.0658 141.366 56.0658C141.122 56.0658 140.888 56.1471 140.725 56.2893C140.542 56.4316 140.409 56.6856 140.287 57.0311C140.186 57.3868 140.104 57.8136 140.043 58.3522C139.982 58.8908 139.962 59.5513 139.962 60.3236Z" fill="white"/>
<path d="M153.99 59.6638H151.457V66.1471H149.484V57.8652H153.99V59.6638Z" fill="white"/>
<path d="M38.6164 67.2037H40.5086V60.7103L40.7121 59.5925L40.0305 60.5681L38.9318 61.4216L38.0162 60.3038L41.2207 57.1943H42.3805V67.2342H44.2523V68.9922H38.5961V67.2139H38.6164V67.2037Z" fill="white"/>
<path d="M47.8744 67.4374C48.4136 67.4374 48.8307 67.2545 49.1257 66.8988C49.4207 66.5228 49.5428 66.0757 49.5428 65.5168C49.5428 64.2771 48.9222 63.6572 47.6709 63.6572H46.6943V62.5394L48.3322 59.7652L49.1257 59.0234L48.027 59.1657H45.738V57.4077H51.0586V58.5865L49.1257 61.7569L48.5051 62.2142V62.2955L49.1257 62.1939C49.4411 62.2142 49.7259 62.2955 50.0209 62.4378C50.316 62.58 50.5601 62.7934 50.7737 63.0373C50.9772 63.3015 51.1705 63.6369 51.2926 64.0332C51.4147 64.4295 51.4757 64.9071 51.4757 65.4457C51.4757 66.0859 51.3943 66.6448 51.201 67.1224C51.0179 67.6 50.7636 67.9963 50.4482 68.3012C50.1328 68.6162 49.7666 68.8601 49.3292 69.0023C48.8917 69.1446 48.4339 69.2259 47.9558 69.2259C47.5387 69.2259 47.1012 69.1852 46.6638 69.1039C46.2263 69.0226 45.8499 68.9007 45.5854 68.728L46.1246 67.0716C46.3484 67.1935 46.6028 67.2951 46.8978 67.3561C47.1928 67.4171 47.5183 67.4374 47.8744 67.4374Z" fill="white"/>
<path d="M58.6885 65.74V68.9715H56.7962V65.74H52.7066V64.5206L56.9488 57.2955H58.6986V64.043H60.1534V65.74H58.6885ZM56.7962 61.4721L56.9794 59.9783H56.9183L56.4198 61.3196L55.1075 63.5349L54.4463 64.1548L55.3008 64.0328H56.7962V61.4721Z" fill="white"/>
<path d="M60.8452 63.1488C60.8452 62.0717 60.9265 61.1368 61.069 60.3747C61.2114 59.6125 61.4454 58.9927 61.7302 58.515C62.0252 58.0374 62.3711 57.6919 62.7882 57.4582C63.2053 57.2347 63.6835 57.1229 64.243 57.1229C64.8229 57.1229 65.3213 57.2245 65.7384 57.4582C66.1759 57.6818 66.532 58.0374 66.7965 58.515C67.0711 58.9927 67.2949 59.6125 67.417 60.3747C67.5594 61.1368 67.6205 62.0514 67.6205 63.1488C67.6205 64.2463 67.5391 65.1812 67.3967 65.9433C67.2542 66.7055 67.0203 67.3253 66.7354 67.803C66.4404 68.2806 66.0945 68.6261 65.6774 68.8598C65.2603 69.0935 64.7822 69.1951 64.2226 69.1951C63.6428 69.1951 63.1443 69.0935 62.7272 68.8598C62.2897 68.6362 61.954 68.2806 61.6692 67.7826C61.3945 67.2847 61.191 66.6648 61.0486 65.9027C60.9062 65.1406 60.8452 64.226 60.8452 63.1488ZM62.8188 63.1488C62.8188 64.6223 62.9205 65.7198 63.1545 66.4006C63.3884 67.0815 63.7343 67.4371 64.2532 67.4371C64.5075 67.4371 64.711 67.3558 64.8941 67.2136C65.0772 67.051 65.2298 66.7969 65.3315 66.4718C65.4333 66.1364 65.5146 65.6893 65.5858 65.1507C65.6469 64.6121 65.6672 63.9516 65.6672 63.1692C65.6672 61.6957 65.5655 60.6185 65.3315 59.9377C65.1281 59.2569 64.7516 58.9012 64.2328 58.9012C63.9785 58.9012 63.7547 58.9825 63.5919 59.1248C63.4088 59.267 63.2765 59.5211 63.1545 59.8666C63.0527 60.2222 62.9713 60.649 62.9001 61.1876C62.8391 61.716 62.8188 62.3867 62.8188 63.1488Z" fill="white"/>
<path d="M74.7616 65.5267H74.3241V68.9614H72.3506V60.6795H74.3241V64.1955L74.7209 63.9719L76.1146 60.6795H78.2306L76.7148 63.8703L75.9824 64.4902L76.7759 65.1304L78.4544 68.9411H76.2265L74.7616 65.5267Z" fill="white"/>
<path d="M88.4958 71.0342H87.0207L86.8172 68.9612H80.8354L80.6319 71.0342H79.1568V67.0406H80.1741C80.2352 66.9186 80.3369 66.6443 80.4895 66.2175C80.6319 65.7805 80.7642 65.181 80.9066 64.3985C81.049 63.616 81.1813 62.6405 81.2627 61.4821C81.3441 60.3236 81.3847 58.9518 81.3847 57.3868H87.2953V67.0507H88.4958V71.0342ZM85.2098 59.2973H83.3583C83.2973 61.2483 83.1752 62.8946 82.9616 64.2258C82.7581 65.5468 82.5445 66.502 82.341 67.0609H85.2098V59.2973Z" fill="white"/>
<path d="M92.6972 65.5877L91.4968 68.9411H89.2892L90.9475 65.1507L91.4256 64.6528L90.7236 64.0329L89.4317 60.6795H91.5273L92.6464 64.0329H93.2059V60.6795H95.0981V64.1955L95.5966 63.9719L96.7156 60.6795H98.8113L97.4379 64.0329L96.8988 64.5715L97.6007 65.232L99.1368 68.9614H96.8886L95.6881 65.5267H95.0879V68.9614H93.1957V65.3641L92.6972 65.5877Z" fill="white"/>
<path d="M104.244 57.1636L105.76 57.7428L100.907 71.2885L99.371 70.7093L104.244 57.1636Z" fill="white"/>
<path d="M46.3077 83.0156C46.8469 83.0156 47.264 82.8327 47.559 82.477C47.854 82.101 47.9761 81.6539 47.9761 81.095C47.9761 79.8552 47.3555 79.2354 46.1042 79.2354H45.1276V78.1176L46.7655 75.3434L47.559 74.6016L46.4603 74.7438H44.1713V72.9858H49.4919V74.1646L47.559 77.3351L46.9384 77.7924V77.8737L47.559 77.7721C47.8744 77.7924 48.1592 77.8737 48.4542 78.0261C48.7492 78.1684 48.9934 78.3818 49.207 78.6257C49.4105 78.8899 49.6038 79.2252 49.7259 79.6215C49.8479 80.0178 49.909 80.4954 49.909 81.0238C49.909 81.664 49.8276 82.2229 49.6343 82.7005C49.4512 83.1782 49.1969 83.5643 48.8815 83.8793C48.5661 84.1943 48.1999 84.4382 47.7625 84.5805C47.325 84.7228 46.8672 84.804 46.3891 84.804C45.972 84.804 45.5345 84.7634 45.0971 84.6821C44.6596 84.6008 44.2832 84.4789 44.0187 84.3061L44.5681 82.6497C44.7919 82.7717 45.0462 82.8733 45.3412 82.9444C45.6261 82.9952 45.9618 83.0156 46.3077 83.0156Z" fill="white"/>
<path d="M57.2238 75.7287C57.2238 76.308 57.1425 76.8872 56.9695 77.4867C56.8067 78.0863 56.5931 78.6858 56.3286 79.2447C56.0539 79.824 55.7894 80.3625 55.4741 80.8808C55.1587 81.399 54.8535 81.8563 54.5585 82.2425L53.826 82.9233V83.0046L54.823 82.7506H57.3968V84.5086H51.5574V83.3704C51.7812 83.0758 52.0559 82.7506 52.3306 82.3746C52.6052 81.9986 52.8697 81.6124 53.1648 81.1958C53.4394 80.7792 53.7039 80.3524 53.9583 79.9154C54.2126 79.4581 54.4364 79.0212 54.6399 78.5741C54.8433 78.1269 54.9959 77.6798 55.118 77.253C55.2401 76.8161 55.2808 76.4299 55.2604 76.0539C55.2808 75.5966 55.179 75.2105 54.9451 74.9361C54.7111 74.6618 54.3652 74.4992 53.887 74.4992C53.6124 74.4992 53.3275 74.5601 53.0325 74.6821C52.7375 74.804 52.4933 74.9463 52.2797 75.1394L51.5065 73.6862C51.8829 73.3712 52.3 73.1273 52.7578 72.9444C53.2156 72.7615 53.7751 72.6802 54.3957 72.6802C54.7925 72.6802 55.1689 72.7412 55.5148 72.8631C55.8708 72.985 56.1557 73.1781 56.41 73.4423C56.6643 73.6862 56.8474 74.0012 56.9899 74.3975C57.1628 74.804 57.2238 75.241 57.2238 75.7287Z" fill="white"/>
<path d="M58.8612 78.7369C58.8612 77.6598 58.9426 76.7249 59.085 75.9627C59.2274 75.2006 59.4614 74.5807 59.7463 74.1031C60.0413 73.6255 60.3872 73.28 60.8043 73.0463C61.2214 72.8227 61.6995 72.711 62.259 72.711C62.8389 72.711 63.3374 72.8126 63.7545 73.0463C64.1919 73.2699 64.548 73.6255 64.8125 74.1031C65.0872 74.5807 65.311 75.2006 65.4331 75.9627C65.5755 76.7249 65.6365 77.6394 65.6365 78.7369C65.6365 79.8344 65.5551 80.7693 65.4127 81.5314C65.2703 82.2936 65.0363 82.9236 64.7514 83.391C64.4564 83.8686 64.1105 84.2141 63.6934 84.4479C63.2763 84.6714 62.7982 84.7832 62.2387 84.7832C61.6588 84.7832 61.1603 84.6816 60.7432 84.4479C60.3058 84.2243 59.9701 83.8686 59.6852 83.3707C59.4105 82.8728 59.2071 82.2529 59.0647 81.4908C58.9222 80.7185 58.8612 79.7938 58.8612 78.7369ZM60.8348 78.7369C60.8348 80.2104 60.9365 81.2977 61.1705 81.9887C61.3943 82.6695 61.7504 83.0252 62.2692 83.0252C62.5235 83.0252 62.727 82.9439 62.9101 82.8017C63.0932 82.6391 63.2458 82.385 63.3476 82.0598C63.4493 81.7245 63.5307 81.2774 63.6019 80.7388C63.6629 80.2002 63.6833 79.5397 63.6833 78.7471C63.6833 77.2736 63.5815 76.1965 63.3476 75.5156C63.1441 74.8348 62.7677 74.4791 62.2489 74.4791C61.9945 74.4791 61.7707 74.5604 61.6079 74.7027C61.4248 74.8449 61.2926 75.099 61.1705 75.4445C61.0688 75.8001 60.9874 76.227 60.9162 76.7655C60.8551 77.3041 60.8348 77.9646 60.8348 78.7369Z" fill="white"/>
<path d="M72.7682 81.1148H72.3104V84.5495H70.3368V76.2676H72.3104V79.7836L72.7071 79.56L74.1009 76.2676H76.2169L74.7011 79.4584L73.9686 80.0986L74.7621 80.7388L76.4407 84.5495H74.2128L72.7682 81.1148Z" fill="white"/>
<path d="M79.9808 81.1148H79.523V84.5495H77.5494V76.2676H79.523V79.7836L79.9197 79.56L81.3135 76.2676H83.4295L81.9137 79.4584L81.1914 80.0986L81.9849 80.7388L83.6635 84.5495H81.4355L79.9808 81.1148Z" fill="white"/>
<path d="M84.6911 76.7455C85.0268 76.5423 85.4439 76.3899 85.9424 76.2679C86.4408 76.146 87.0004 76.085 87.6514 76.085C88.5874 76.085 89.2486 76.3289 89.625 76.8065C90.0014 77.2841 90.1846 77.9853 90.1846 78.8795C90.1846 79.3978 90.1642 79.916 90.1439 80.4139C90.1235 80.9119 90.1032 81.4098 90.0828 81.8874C90.0625 82.365 90.0828 82.8426 90.1032 83.2796C90.1235 83.7369 90.2049 84.1433 90.327 84.5396H88.7094L88.3941 83.5235H88.333C88.1499 83.8588 87.8956 84.1027 87.5802 84.3059C87.2649 84.5092 86.8478 84.6209 86.3798 84.6209C85.7389 84.6209 85.2201 84.4177 84.8437 83.9604C84.4672 83.5235 84.2841 82.9442 84.2841 82.2227C84.2841 81.2269 84.6402 80.5257 85.3421 80.1091C86.0441 79.6925 87.0004 79.5095 88.211 79.5705C88.272 78.9303 88.2313 78.473 88.0889 78.1783C87.9465 77.8938 87.6514 77.7414 87.1937 77.7414C86.8579 77.7414 86.512 77.782 86.156 77.8633C85.7999 77.9446 85.4947 78.0462 85.1997 78.1987L84.6911 76.7455ZM87.0614 82.9544C87.3564 82.9544 87.6006 82.8731 87.7837 82.7308C87.9668 82.5886 88.1194 82.4158 88.2008 82.2329V80.8712C87.9465 80.8306 87.7023 80.8306 87.4683 80.8509C87.2445 80.8712 87.0309 80.9322 86.8478 80.9932C86.6646 81.0541 86.5324 81.1761 86.4307 81.3285C86.3391 81.4708 86.2781 81.6537 86.2781 81.8976C86.2781 82.2532 86.3391 82.4971 86.4815 82.68C86.624 82.8731 86.8172 82.9544 87.0614 82.9544Z" fill="white"/>
<path d="M94.7111 78.0769C94.6704 79.0321 94.6094 79.9162 94.528 80.7292C94.4466 81.5319 94.3245 82.2229 94.1516 82.8022C93.9888 83.3814 93.7548 83.8387 93.4903 84.1639C93.1953 84.4992 92.8494 84.6618 92.3916 84.6618C92.117 84.6618 91.8728 84.6415 91.6897 84.6008C91.4862 84.5602 91.3133 84.4992 91.1709 84.4179L91.3947 82.7005C91.6694 82.7818 91.8932 82.7818 92.0559 82.6802C92.2187 82.5786 92.3916 82.3042 92.5137 81.8571C92.6358 81.3998 92.7172 80.7393 92.8087 79.8654C92.8698 78.9712 92.9308 77.7924 92.9715 76.2884H97.8953V84.5703H95.9217V78.0769H94.7111Z" fill="white"/>
<path d="M1.51537 23.6295C1.69442 23.6295 2.10134 23.6458 2.70359 23.662C3.30584 23.6783 3.82671 23.6946 4.24991 23.6946C7.00073 23.6946 8.62843 22.4101 8.62843 20.0688C8.62843 17.9877 7.1635 16.7195 4.64056 16.7195C4.05459 16.7195 3.46861 16.752 2.89892 16.817V13.549H7.96108V12.2483H1.51537V23.6295ZM4.55918 18.0202C6.31709 18.0202 7.24489 18.8494 7.24489 20.1664C7.24489 21.5809 6.30082 22.3939 4.46151 22.3939C4.08714 22.3939 3.56628 22.3776 2.89892 22.3288V18.1178C3.50117 18.0527 4.05459 18.0202 4.55918 18.0202Z" fill="#868686"/>
<path d="M15.7058 21.8085C15.1686 22.3126 14.4199 22.5727 13.4595 22.5727C12.0109 22.5727 11.018 21.7435 10.904 20.3777H16.5359C16.5847 20.1339 16.6173 19.8412 16.6173 19.4998C16.6173 18.508 16.2917 17.7113 15.6407 17.0934C14.9896 16.4593 14.1757 16.1504 13.2154 16.1504C12.0434 16.1504 11.1156 16.5081 10.4483 17.2398C9.78092 17.9552 9.43911 18.8657 9.43911 19.9713C9.43911 21.1257 9.7972 22.0524 10.5134 22.7515C11.2296 23.4507 12.1736 23.7921 13.3619 23.7921C14.485 23.7921 15.4128 23.4669 16.1127 22.8328L15.7058 21.8085ZM13.1503 17.3698C14.4036 17.3698 15.2012 18.1015 15.2663 19.3209H10.8227C10.9691 18.1665 11.8481 17.3698 13.1503 17.3698Z" fill="#868686"/>
<path d="M23.3959 23.6295V16.313H18.3012L18.171 18.5893C17.9919 21.9711 16.9339 22.5077 16.3968 22.4589L16.4944 23.7271C18.0245 23.7271 19.0988 23.0117 19.4406 18.8494L19.522 17.6137H22.0937V23.6295H23.3959Z" fill="#868686"/>
<path d="M25.3121 22.719C26.0446 23.4344 26.9887 23.7921 28.1443 23.7921C29.3 23.7921 30.2441 23.4344 30.9603 22.719C31.6927 21.9874 32.0508 21.0769 32.0508 19.9713C32.0508 18.8657 31.6927 17.9552 30.9603 17.2398C30.2441 16.5081 29.3 16.1504 28.1443 16.1504C26.9887 16.1504 26.0446 16.5081 25.3121 17.2398C24.5959 17.9552 24.2379 18.8657 24.2379 19.9713C24.2379 21.0769 24.5959 21.9874 25.3121 22.719ZM25.6214 19.9713C25.6214 19.2071 25.8656 18.573 26.3376 18.1015C26.8096 17.6137 27.4119 17.3698 28.1443 17.3698C28.8768 17.3698 29.4791 17.6137 29.9511 18.1015C30.4231 18.5893 30.6673 19.2071 30.6673 19.9713C30.6673 21.5159 29.6256 22.5727 28.1443 22.5727C27.4119 22.5727 26.7934 22.3288 26.3213 21.841C25.8493 21.3533 25.6214 20.7354 25.6214 19.9713Z" fill="#868686"/>
<path d="M37.6164 16.313L34.5238 19.89L37.828 23.6295H39.6348L36.1189 19.8087L39.3255 16.313H37.6164ZM34.2145 23.6295V16.313H32.9124V23.6295H34.2145Z" fill="#868686"/>
<path d="M199.062 12.2483L194.553 17.695L199.241 23.6295H200.852L196.067 17.6788L200.673 12.2483H199.062ZM194.26 23.6295V12.2483H192.876V23.6295H194.26ZM186.3 23.6295H187.912L192.6 17.695L188.091 12.2483H186.479L191.086 17.695L186.3 23.6295Z" fill="#868686"/>
<path d="M206.86 18.1828V23.6295H208.162V16.313H206.86L202.628 21.7598V16.313H201.326V23.6295H202.628L206.86 18.1828Z" fill="#868686"/>
<path d="M210.814 26.8813V23.2881C211.319 23.6295 212.019 23.7921 212.881 23.7921C214.004 23.7921 214.932 23.4182 215.632 22.6703C216.332 21.9223 216.69 20.9793 216.69 19.8575C216.69 18.7681 216.381 17.8739 215.762 17.191C215.16 16.4919 214.33 16.1504 213.304 16.1504C212.311 16.1504 211.335 16.5732 210.814 17.1747V16.313H209.512V26.8813H210.814ZM212.93 17.3698C214.411 17.3698 215.306 18.3942 215.306 19.9062C215.306 21.4671 214.314 22.5727 212.767 22.5727C212.035 22.5727 211.384 22.3776 210.814 22.0036V18.3779C211.351 17.7113 212.067 17.3698 212.93 17.3698Z" fill="#868686"/>
<path d="M195.171 55.9441L192.046 63.0818L187.782 55.9441H186.219L191.379 64.4638L191.184 64.8866C190.809 65.6507 190.353 66.0409 189.784 66.0409C189.474 66.0409 189.181 65.9434 188.905 65.7483L188.416 66.9189C188.758 67.1953 189.23 67.3254 189.8 67.3254C191.021 67.3254 191.835 66.5287 192.632 64.724L196.571 55.9441H195.171Z" fill="#868686"/>
<path d="M196.937 67.3254V61.2283H200.274V60.0089H195.635V67.3254H196.937Z" fill="#868686"/>
<path d="M206.338 67.3254V60.0089H201.243L201.113 62.2851C200.934 65.667 199.876 66.2035 199.339 66.1547L199.436 67.4229C200.966 67.4229 202.041 66.7076 202.382 62.5453L202.464 61.3096H205.036V67.3254H206.338Z" fill="#868686"/>
<path d="M213.446 65.5044C212.909 66.0084 212.16 66.2686 211.2 66.2686C209.751 66.2686 208.759 65.4394 208.645 64.0736H214.276C214.325 63.8297 214.358 63.5371 214.358 63.1956C214.358 62.2038 214.032 61.4071 213.381 60.7893C212.73 60.1552 211.916 59.8463 210.956 59.8463C209.784 59.8463 208.856 60.204 208.189 60.9356C207.521 61.651 207.18 62.5615 207.18 63.6671C207.18 64.8215 207.538 65.7483 208.254 66.4474C208.97 67.1465 209.914 67.488 211.102 67.488C212.226 67.488 213.153 67.1628 213.853 66.5287L213.446 65.5044ZM210.891 61.0657C212.144 61.0657 212.942 61.7974 213.007 63.0168H208.563C208.71 61.8624 209.589 61.0657 210.891 61.0657Z" fill="#868686"/>
<path d="M215.107 67.3254C215.319 67.3254 215.726 67.3416 216.36 67.3579C216.995 67.3742 217.467 67.3904 217.793 67.3904C220.039 67.3904 221.162 66.675 221.162 65.2605C221.162 64.3175 220.592 63.7484 219.453 63.5371V63.5045C220.316 63.3745 220.918 62.6916 220.918 61.8299C220.918 60.5779 219.86 59.9438 217.76 59.9438C217.37 59.9438 216.865 59.9601 216.263 59.9764C215.66 59.9926 215.286 60.0089 215.107 60.0089V67.3254ZM217.972 64.0411C219.176 64.0411 219.779 64.415 219.779 65.163C219.779 65.9434 219.16 66.3336 217.907 66.3336C217.695 66.3336 217.191 66.3173 216.409 66.2848V64.0411H217.972ZM217.858 61.0007C218.981 61.0007 219.534 61.3584 219.534 62.09C219.534 62.7891 218.948 63.2281 218.053 63.2281H216.409V61.0494C217.06 61.0169 217.549 61.0007 217.858 61.0007Z" fill="#868686"/>
<path d="M222.719 66.4149C223.451 67.1303 224.395 67.488 225.551 67.488C226.707 67.488 227.651 67.1303 228.367 66.4149C229.099 65.6832 229.458 64.7727 229.458 63.6671C229.458 62.5615 229.099 61.651 228.367 60.9356C227.651 60.204 226.707 59.8463 225.551 59.8463C224.395 59.8463 223.451 60.204 222.719 60.9356C222.003 61.651 221.645 62.5615 221.645 63.6671C221.645 64.7727 222.003 65.6832 222.719 66.4149ZM223.028 63.6671C223.028 62.903 223.272 62.2689 223.744 61.7974C224.216 61.3096 224.819 61.0657 225.551 61.0657C226.284 61.0657 226.886 61.3096 227.358 61.7974C227.83 62.2851 228.074 62.903 228.074 63.6671C228.074 65.2117 227.032 66.2686 225.551 66.2686C224.819 66.2686 224.2 66.0247 223.728 65.5369C223.256 65.0491 223.028 64.4313 223.028 63.6671Z" fill="#868686"/>
<path d="M230.245 69.1139V67.3254H236.169V69.1139H237.39V66.106H236.169V60.0089H231.172L231.058 61.9437C230.928 63.846 230.456 65.4556 229.935 66.106H229.024V69.1139H230.245ZM232.393 61.2283H234.867V66.106H231.319C231.71 65.5857 232.165 64.1549 232.312 62.4477L232.393 61.2283Z" fill="#868686"/>
<path d="M240.15 67.3254C241.208 67.3254 241.989 67.0815 242.462 66.5775C242.95 66.0734 243.194 65.4556 243.194 64.724C243.194 63.2444 242.38 62.2038 240.297 62.2038H239.092V60.0089H237.79V67.3254H240.15ZM245.896 67.3254V60.0089H244.594V67.3254H245.896ZM240.053 63.4232C241.224 63.4232 241.81 63.8785 241.81 64.7727C241.81 65.667 241.29 66.106 240.036 66.106H239.092V63.4232H240.053Z" fill="#868686"/>
<path d="M8.59588 120.094C8.48194 121.329 8.00991 122.305 7.17978 123.037C6.36593 123.752 5.35675 124.11 4.13597 124.11C2.94775 124.11 1.90602 123.768 0.978227 123.069L0.375977 124.223C1.36888 125.02 2.62221 125.41 4.16853 125.41C5.94272 125.41 7.35882 124.874 8.41683 123.785C9.47484 122.695 10.012 121.264 10.012 119.525C10.012 117.769 9.49112 116.354 8.43311 115.297C7.3751 114.241 6.00783 113.704 4.29874 113.704C2.70359 113.704 1.45026 114.094 0.555024 114.891L1.09217 115.931C1.88974 115.314 2.85009 115.005 3.9732 115.005C6.5287 115.005 8.30289 116.435 8.5796 118.793H2.94775V120.094H8.59588Z" fill="#868686"/>
<path d="M17.6501 125.248V117.931H16.3479V120.939H12.2787V117.931H10.9765V125.248H12.2787V122.159H16.3479V125.248H17.6501Z" fill="#868686"/>
<path d="M24.7662 123.427C24.2291 123.931 23.4803 124.191 22.52 124.191C21.0713 124.191 20.0784 123.362 19.9645 121.996H25.5964C25.6452 121.752 25.6777 121.459 25.6777 121.118C25.6777 120.126 25.3522 119.33 24.7011 118.712C24.05 118.078 23.2362 117.769 22.2758 117.769C21.1039 117.769 20.1761 118.126 19.5087 118.858C18.8414 119.573 18.4996 120.484 18.4996 121.59C18.4996 122.744 18.8577 123.671 19.5738 124.37C20.29 125.069 21.2341 125.41 22.4223 125.41C23.5454 125.41 24.4732 125.085 25.1731 124.451L24.7662 123.427ZM22.2107 118.988C23.4641 118.988 24.2616 119.72 24.3267 120.939H19.8831C20.0296 119.785 20.9086 118.988 22.2107 118.988Z" fill="#868686"/>
<path d="M27.7292 128.5V124.906C28.2337 125.248 28.9337 125.41 29.7963 125.41C30.9195 125.41 31.8472 125.036 32.5472 124.289C33.2471 123.541 33.6052 122.598 33.6052 121.476C33.6052 120.386 33.2959 119.492 32.6774 118.809C32.0751 118.11 31.245 117.769 30.2195 117.769C29.2266 117.769 28.25 118.191 27.7292 118.793V117.931H26.427V128.5H27.7292ZM29.8452 118.988C31.3264 118.988 32.2216 120.012 32.2216 121.525C32.2216 123.085 31.2287 124.191 29.6824 124.191C28.9499 124.191 28.2988 123.996 27.7292 123.622V119.996C28.2663 119.33 28.9825 118.988 29.8452 118.988Z" fill="#868686"/>
<path d="M35.7564 125.248V119.151H39.0932V117.931H34.4542V125.248H35.7564Z" fill="#868686"/>
<path d="M44.8741 123.427C44.3369 123.931 43.5882 124.191 42.6279 124.191C41.1792 124.191 40.1863 123.362 40.0724 121.996H45.7042C45.753 121.752 45.7856 121.459 45.7856 121.118C45.7856 120.126 45.4601 119.33 44.809 118.712C44.1579 118.078 43.344 117.769 42.3837 117.769C41.2118 117.769 40.284 118.126 39.6166 118.858C38.9492 119.573 38.6074 120.484 38.6074 121.59C38.6074 122.744 38.9655 123.671 39.6817 124.37C40.3979 125.069 41.342 125.41 42.5302 125.41C43.6533 125.41 44.5811 125.085 45.281 124.451L44.8741 123.427ZM42.3186 118.988C43.5719 118.988 44.3695 119.72 44.4346 120.939H39.991C40.1375 119.785 41.0164 118.988 42.3186 118.988Z" fill="#868686"/>
<path d="M48.1497 119.232V125.248H49.4519V119.232H52.1376V117.931H45.464V119.232H48.1497Z" fill="#868686"/>
<path d="M58.0776 119.801V125.248H59.3797V117.931H58.0776L53.8455 123.378V117.931H52.5434V125.248H53.8455L58.0776 119.801Z" fill="#868686"/>
<path d="M64.929 117.931V121.264C64.4896 121.573 63.9361 121.72 63.2525 121.72C62.1945 121.72 61.6736 121.151 61.6736 119.996V117.931H60.2901V120.143C60.2901 122.012 61.1528 122.939 62.8944 122.939C63.692 122.939 64.3593 122.76 64.929 122.402V125.248H66.2312V117.931H64.929Z" fill="#868686"/>
<path d="M73.343 123.427C72.8059 123.931 72.0571 124.191 71.0968 124.191C69.6481 124.191 68.6552 123.362 68.5413 121.996H74.1731C74.222 121.752 74.2545 121.459 74.2545 121.118C74.2545 120.126 73.929 119.33 73.2779 118.712C72.6268 118.078 71.813 117.769 70.8526 117.769C69.6807 117.769 68.7529 118.126 68.0855 118.858C67.4182 119.573 67.0763 120.484 67.0763 121.59C67.0763 122.744 67.4344 123.671 68.1506 124.37C68.8668 125.069 69.8109 125.41 70.9991 125.41C72.1222 125.41 73.05 125.085 73.7499 124.451L73.343 123.427ZM70.7875 118.988C72.0408 118.988 72.8384 119.72 72.9035 120.939H68.4599C68.6064 119.785 69.4853 118.988 70.7875 118.988Z" fill="#868686"/>
<path d="M80.5402 123.248C79.9868 123.882 79.2869 124.191 78.4405 124.191C77.6918 124.191 77.057 123.947 76.5524 123.476C76.0478 123.004 75.8036 122.37 75.8036 121.59C75.8036 120.842 76.0478 120.224 76.5361 119.736C77.0407 119.232 77.6267 118.988 78.3103 118.988C79.1567 118.988 79.8566 119.248 80.41 119.752L81.0123 118.728C80.3775 118.094 79.4171 117.769 78.1312 117.769C77.0732 117.769 76.178 118.143 75.4781 118.874C74.7782 119.606 74.4201 120.516 74.4201 121.59C74.4201 122.744 74.7782 123.671 75.4944 124.37C76.2268 125.069 77.1709 125.41 78.3428 125.41C79.4985 125.41 80.5565 124.971 81.1588 124.191L80.5402 123.248Z" fill="#868686"/>
<path d="M86.5429 117.931L83.4503 121.508L86.7545 125.248H88.5613L85.0454 121.427L88.252 117.931H86.5429ZM83.141 125.248V117.931H81.8389V125.248H83.141Z" fill="#868686"/>
<path d="M89.3189 119.476C90.0025 119.118 90.6699 118.939 91.3373 118.939C92.6883 118.939 92.9975 119.687 92.9975 121.248C92.558 120.939 91.9558 120.777 91.1745 120.777C89.5468 120.777 88.4074 121.655 88.4074 123.102C88.4074 124.484 89.3026 125.362 90.6536 125.362C91.6465 125.362 92.4278 125.004 92.9975 124.305V125.248H94.2346V120.76C94.2346 118.76 93.437 117.769 91.4186 117.769C90.5071 117.769 89.6933 117.996 88.9771 118.435L89.3189 119.476ZM91.1094 124.191C90.2793 124.191 89.7909 123.752 89.7909 123.037C89.7909 122.256 90.4909 121.833 91.3535 121.833C91.9883 121.833 92.5418 121.996 92.9975 122.321V123.248C92.4604 123.882 91.8419 124.191 91.1094 124.191Z" fill="#868686"/>
<path d="M98.6043 117.931C96.3255 117.931 95.3326 118.956 95.3326 120.37C95.3326 121.492 96.0651 122.289 96.9115 122.484L94.7955 125.248H96.3744L98.1648 122.809H99.5809V125.248H100.883V117.931H98.6043ZM96.7162 120.403C96.7162 119.671 97.2371 119.151 98.3927 119.151H99.5809V121.59H98.0835C97.3835 121.59 96.7162 121.118 96.7162 120.403Z" fill="#868686"/>
<path d="M111.382 125.248V127.036H112.603V124.028H111.382V117.931H110.08V124.028H106.174V117.931H104.871V125.248H111.382Z" fill="#868686"/>
<path d="M118.772 123.427C118.235 123.931 117.487 124.191 116.526 124.191C115.078 124.191 114.085 123.362 113.971 121.996H119.603C119.651 121.752 119.684 121.459 119.684 121.118C119.684 120.126 119.358 119.33 118.707 118.712C118.056 118.078 117.242 117.769 116.282 117.769C115.11 117.769 114.182 118.126 113.515 118.858C112.848 119.573 112.506 120.484 112.506 121.59C112.506 122.744 112.864 123.671 113.58 124.37C114.296 125.069 115.24 125.41 116.429 125.41C117.552 125.41 118.479 125.085 119.179 124.451L118.772 123.427ZM116.217 118.988C117.47 118.988 118.268 119.72 118.333 120.939H113.889C114.036 119.785 114.915 118.988 116.217 118.988Z" fill="#868686"/>
<path d="M127.107 125.248V117.931H125.805V120.939H121.735V117.931H120.433V125.248H121.735V122.159H125.805V125.248H127.107Z" fill="#868686"/>
<path d="M135.118 125.248V117.931H133.816V120.939H129.747V117.931H128.445V125.248H129.747V122.159H133.816V125.248H135.118Z" fill="#868686"/>
<path d="M137.042 124.337C137.774 125.053 138.718 125.41 139.874 125.41C141.03 125.41 141.974 125.053 142.69 124.337C143.423 123.606 143.781 122.695 143.781 121.59C143.781 120.484 143.423 119.573 142.69 118.858C141.974 118.126 141.03 117.769 139.874 117.769C138.718 117.769 137.774 118.126 137.042 118.858C136.326 119.573 135.968 120.484 135.968 121.59C135.968 122.695 136.326 123.606 137.042 124.337ZM137.351 121.59C137.351 120.825 137.595 120.191 138.067 119.72C138.539 119.232 139.142 118.988 139.874 118.988C140.607 118.988 141.209 119.232 141.681 119.72C142.153 120.208 142.397 120.825 142.397 121.59C142.397 123.134 141.355 124.191 139.874 124.191C139.142 124.191 138.523 123.947 138.051 123.459C137.579 122.972 137.351 122.354 137.351 121.59Z" fill="#868686"/>
<path d="M150.274 123.248C149.721 123.882 149.021 124.191 148.174 124.191C147.426 124.191 146.791 123.947 146.286 123.476C145.782 123.004 145.537 122.37 145.537 121.59C145.537 120.842 145.782 120.224 146.27 119.736C146.774 119.232 147.36 118.988 148.044 118.988C148.89 118.988 149.59 119.248 150.144 119.752L150.746 118.728C150.111 118.094 149.151 117.769 147.865 117.769C146.807 117.769 145.912 118.143 145.212 118.874C144.512 119.606 144.154 120.516 144.154 121.59C144.154 122.744 144.512 123.671 145.228 124.37C145.961 125.069 146.905 125.41 148.077 125.41C149.232 125.41 150.29 124.971 150.893 124.191L150.274 123.248Z" fill="#868686"/>
<path d="M153.235 119.232V125.248H154.537V119.232H157.223V117.931H150.549V119.232H153.235Z" fill="#868686"/>
<path d="M160.103 125.248C161.161 125.248 161.942 125.004 162.431 124.5C162.919 123.996 163.163 123.378 163.163 122.646C163.163 121.167 162.349 120.126 160.266 120.126H158.931V117.931H157.629V125.248H160.103ZM160.022 121.346C161.193 121.346 161.779 121.801 161.779 122.695C161.779 123.589 161.193 124.028 160.005 124.028H158.931V121.346H160.022Z" fill="#868686"/>
<path d="M4.57545 148.205C2.7687 146.596 1.75952 144.32 1.75952 141.913C1.75952 139.458 2.60593 137.507 4.57545 135.621L3.7616 134.906C1.5642 136.889 0.457362 139.23 0.457362 141.913C0.457362 144.693 1.54792 147.035 3.74532 148.921L4.57545 148.205Z" fill="#868686"/>
<path d="M9.43364 138.255L6.341 141.832L9.64524 145.571H11.452L7.93615 141.751L11.1427 138.255H9.43364ZM6.03174 145.571V138.255H4.72957V145.571H6.03174Z" fill="#868686"/>
<path d="M12.2096 139.8C12.8933 139.442 13.5606 139.263 14.228 139.263C15.579 139.263 15.8882 140.011 15.8882 141.572C15.4488 141.263 14.8465 141.1 14.0652 141.1C12.4375 141.1 11.2981 141.978 11.2981 143.425C11.2981 144.807 12.1934 145.685 13.5444 145.685C14.5373 145.685 15.3185 145.328 15.8882 144.628V145.571H17.1253V141.084C17.1253 139.084 16.3277 138.092 14.3094 138.092C13.3979 138.092 12.584 138.32 11.8678 138.759L12.2096 139.8ZM14.0001 144.515C13.17 144.515 12.6817 144.076 12.6817 143.36C12.6817 142.58 13.3816 142.157 14.2443 142.157C14.8791 142.157 15.4325 142.32 15.8882 142.645V143.572C15.3511 144.206 14.7326 144.515 14.0001 144.515Z" fill="#868686"/>
<path d="M24.604 145.571V138.255H19.5092L19.379 140.531C19.2 143.913 18.142 144.45 17.6048 144.401L17.7025 145.669C19.2325 145.669 20.3068 144.954 20.6486 140.791L20.73 139.556H23.3018V145.571H24.604Z" fill="#868686"/>
<path d="M26.5202 144.661C27.2527 145.376 28.1967 145.734 29.3524 145.734C30.5081 145.734 31.4521 145.376 32.1683 144.661C32.9008 143.929 33.2589 143.019 33.2589 141.913C33.2589 140.808 32.9008 139.897 32.1683 139.182C31.4521 138.45 30.5081 138.092 29.3524 138.092C28.1967 138.092 27.2527 138.45 26.5202 139.182C25.804 139.897 25.4459 140.808 25.4459 141.913C25.4459 143.019 25.804 143.929 26.5202 144.661ZM26.8295 141.913C26.8295 141.149 27.0736 140.515 27.5457 140.043C28.0177 139.556 28.6199 139.312 29.3524 139.312C30.0849 139.312 30.6871 139.556 31.1592 140.043C31.6312 140.531 31.8753 141.149 31.8753 141.913C31.8753 143.458 30.8336 144.515 29.3524 144.515C28.6199 144.515 28.0014 144.271 27.5294 143.783C27.0573 143.295 26.8295 142.677 26.8295 141.913Z" fill="#868686"/>
<path d="M35.4226 148.823V145.23C35.9272 145.571 36.6271 145.734 37.4898 145.734C38.6129 145.734 39.5407 145.36 40.2406 144.612C40.9405 143.864 41.2986 142.921 41.2986 141.799C41.2986 140.71 40.9893 139.816 40.3708 139.133C39.7686 138.434 38.9384 138.092 37.913 138.092C36.9201 138.092 35.9435 138.515 35.4226 139.117V138.255H34.1204V148.823H35.4226ZM37.5386 139.312C39.0198 139.312 39.9151 140.336 39.9151 141.848C39.9151 143.409 38.9222 144.515 37.3758 144.515C36.6434 144.515 35.9923 144.32 35.4226 143.946V140.32C35.9597 139.653 36.6759 139.312 37.5386 139.312Z" fill="#868686"/>
<path d="M47.6819 140.125V145.571H48.984V138.255H47.6819L43.4498 143.702V138.255H42.1477V145.571H43.4498L47.6819 140.125Z" fill="#868686"/>
<path d="M55.8681 140.125V145.571H57.1702V138.255H55.8681L51.636 143.702V138.255H50.3339V145.571H51.636L55.8681 140.125ZM51.3756 134.515C51.3756 135.865 52.2871 136.792 53.8497 136.792C55.2821 136.792 56.2587 135.816 56.2587 134.515H55.0379C54.9728 135.377 54.5822 135.8 53.8497 135.8C53.0847 135.8 52.6615 135.377 52.5964 134.515H51.3756Z" fill="#868686"/>
<path d="M65.1937 145.571V138.255H63.8915V141.263H59.8223V138.255H58.5201V145.571H59.8223V142.482H63.8915V145.571H65.1937Z" fill="#868686"/>
<path d="M67.1174 144.661C67.8499 145.376 68.794 145.734 69.9496 145.734C71.1053 145.734 72.0494 145.376 72.7655 144.661C73.498 143.929 73.8561 143.019 73.8561 141.913C73.8561 140.808 73.498 139.897 72.7655 139.182C72.0494 138.45 71.1053 138.092 69.9496 138.092C68.794 138.092 67.8499 138.45 67.1174 139.182C66.4012 139.897 66.0431 140.808 66.0431 141.913C66.0431 143.019 66.4012 143.929 67.1174 144.661ZM67.4267 141.913C67.4267 141.149 67.6708 140.515 68.1429 140.043C68.6149 139.556 69.2172 139.312 69.9496 139.312C70.6821 139.312 71.2843 139.556 71.7564 140.043C72.2284 140.531 72.4726 141.149 72.4726 141.913C72.4726 143.458 71.4308 144.515 69.9496 144.515C69.2172 144.515 68.5986 144.271 68.1266 143.783C67.6546 143.295 67.4267 142.677 67.4267 141.913Z" fill="#868686"/>
<path d="M80.3495 143.572C79.7961 144.206 79.0962 144.515 78.2498 144.515C77.501 144.515 76.8662 144.271 76.3616 143.799C75.857 143.328 75.6129 142.694 75.6129 141.913C75.6129 141.165 75.857 140.547 76.3454 140.06C76.8499 139.556 77.4359 139.312 78.1195 139.312C78.966 139.312 79.6659 139.572 80.2193 140.076L80.8215 139.052C80.1867 138.418 79.2264 138.092 77.9405 138.092C76.8825 138.092 75.9873 138.466 75.2873 139.198C74.5874 139.93 74.2293 140.84 74.2293 141.913C74.2293 143.068 74.5874 143.994 75.3036 144.693C76.0361 145.393 76.9802 145.734 78.1521 145.734C79.3078 145.734 80.3658 145.295 80.968 144.515L80.3495 143.572Z" fill="#868686"/>
<path d="M83.3106 139.556V145.571H84.6128V139.556H87.2985V138.255H80.6249V139.556H83.3106Z" fill="#868686"/>
<path d="M90.1784 145.571C91.2364 145.571 92.0177 145.328 92.506 144.824C92.9943 144.32 93.2385 143.702 93.2385 142.97C93.2385 141.49 92.4246 140.45 90.3412 140.45H89.0065V138.255H87.7043V145.571H90.1784ZM90.097 141.669C91.269 141.669 91.8549 142.125 91.8549 143.019C91.8549 143.913 91.269 144.352 90.0807 144.352H89.0065V141.669H90.097Z" fill="#868686"/>
<path d="M93.6253 148.921C95.8227 147.035 96.9133 144.693 96.9133 141.913C96.9133 139.23 95.8064 136.889 93.609 134.906L92.7952 135.621C94.7647 137.507 95.6111 139.458 95.6111 141.913C95.6111 144.32 94.602 146.596 92.7952 148.205L93.6253 148.921Z" fill="#868686"/>
<path d="M100.439 137.296L102.099 135.995V145.571H103.401V134.125H102.489L99.7549 136.239L100.439 137.296Z" fill="#868686"/>
<path d="M112.62 139.881C112.62 138.092 112.311 136.678 111.693 135.637C111.09 134.58 110.163 134.06 108.925 134.06C107.688 134.06 106.761 134.58 106.142 135.637C105.54 136.678 105.231 138.092 105.231 139.881C105.231 141.669 105.54 143.084 106.158 144.141C106.793 145.181 107.721 145.702 108.958 145.702C111.432 145.702 112.62 143.474 112.62 139.881ZM108.958 144.482C107.395 144.482 106.614 142.954 106.614 139.881C106.614 136.808 107.379 135.28 108.925 135.28C110.537 135.28 111.237 136.84 111.237 139.881C111.237 142.938 110.569 144.482 108.958 144.482Z" fill="#868686"/>
<path d="M120.791 139.881C120.791 138.092 120.481 136.678 119.863 135.637C119.261 134.58 118.333 134.06 117.096 134.06C115.859 134.06 114.931 134.58 114.312 135.637C113.71 136.678 113.401 138.092 113.401 139.881C113.401 141.669 113.71 143.084 114.329 144.141C114.964 145.181 115.891 145.702 117.128 145.702C119.602 145.702 120.791 143.474 120.791 139.881ZM117.128 144.482C115.566 144.482 114.784 142.954 114.784 139.881C114.784 136.808 115.549 135.28 117.096 135.28C118.707 135.28 119.407 136.84 119.407 139.881C119.407 142.938 118.74 144.482 117.128 144.482Z" fill="#868686"/>
<path d="M125.789 145.571V139.474H129.126V138.255H124.487V145.571H125.789Z" fill="#868686"/>
<path d="M128.373 144.693C128.373 145.198 128.763 145.62 129.3 145.62C129.805 145.62 130.163 145.198 130.163 144.693C130.163 144.254 129.772 143.832 129.3 143.832C128.763 143.832 128.373 144.238 128.373 144.693Z" fill="#868686"/>
<path d="M139.631 145.571V138.255H133.038V145.571H134.341V139.474H138.328V145.571H139.631Z" fill="#868686"/>
<path d="M142.272 148.823V145.23C142.777 145.571 143.477 145.734 144.34 145.734C145.463 145.734 146.391 145.36 147.09 144.612C147.79 143.864 148.148 142.921 148.148 141.799C148.148 140.71 147.839 139.816 147.221 139.133C146.618 138.434 145.788 138.092 144.763 138.092C143.77 138.092 142.793 138.515 142.272 139.117V138.255H140.97V148.823H142.272ZM144.388 139.312C145.87 139.312 146.765 140.336 146.765 141.848C146.765 143.409 145.772 144.515 144.226 144.515C143.493 144.515 142.842 144.32 142.272 143.946V140.32C142.81 139.653 143.526 139.312 144.388 139.312Z" fill="#868686"/>
<path d="M149.583 144.661C150.316 145.376 151.26 145.734 152.416 145.734C153.571 145.734 154.515 145.376 155.232 144.661C155.964 143.929 156.322 143.019 156.322 141.913C156.322 140.808 155.964 139.897 155.232 139.182C154.515 138.45 153.571 138.092 152.416 138.092C151.26 138.092 150.316 138.45 149.583 139.182C148.867 139.897 148.509 140.808 148.509 141.913C148.509 143.019 148.867 143.929 149.583 144.661ZM149.893 141.913C149.893 141.149 150.137 140.515 150.609 140.043C151.081 139.556 151.683 139.312 152.416 139.312C153.148 139.312 153.75 139.556 154.222 140.043C154.694 140.531 154.939 141.149 154.939 141.913C154.939 143.458 153.897 144.515 152.416 144.515C151.683 144.515 151.065 144.271 150.593 143.783C150.121 143.295 149.893 142.677 149.893 141.913Z" fill="#868686"/>
<path d="M157.109 147.36V145.571H163.034V147.36H164.255V144.352H163.034V138.255H158.037L157.923 140.19C157.793 142.092 157.321 143.702 156.8 144.352H155.888V147.36H157.109ZM159.258 139.474H161.732V144.352H158.183C158.574 143.832 159.03 142.401 159.176 140.694L159.258 139.474Z" fill="#868686"/>
<path d="M169.831 138.255L168.138 142.889C168.008 143.279 167.894 143.653 167.796 144.011C167.552 143.377 167.405 143.003 167.357 142.905L165.208 138.255H163.645L167.161 145.571L166.999 145.962C166.494 147.132 166.038 147.62 165.436 147.62C165.241 147.62 164.964 147.539 164.622 147.376L164.199 148.368C164.655 148.677 165.11 148.823 165.582 148.823C166.12 148.823 166.592 148.596 166.999 148.14C167.405 147.701 167.861 146.84 168.382 145.571L171.312 138.255H169.831Z" fill="#868686"/>
<path d="M176.337 138.255L173.244 141.832L176.548 145.571H178.355L174.839 141.751L178.046 138.255H176.337ZM172.935 145.571V138.255H171.633V145.571H172.935Z" fill="#868686"/>
<path d="M180.48 139.556V145.571H181.782V139.556H184.468V138.255H177.794V139.556H180.48Z" fill="#868686"/>
<path d="M185.264 139.8C185.948 139.442 186.615 139.263 187.283 139.263C188.634 139.263 188.943 140.011 188.943 141.572C188.504 141.263 187.901 141.1 187.12 141.1C185.492 141.1 184.353 141.978 184.353 143.425C184.353 144.807 185.248 145.685 186.599 145.685C187.592 145.685 188.373 145.328 188.943 144.628V145.571H190.18V141.084C190.18 139.084 189.382 138.092 187.364 138.092C186.453 138.092 185.639 138.32 184.923 138.759L185.264 139.8ZM187.055 144.515C186.225 144.515 185.736 144.076 185.736 143.36C185.736 142.58 186.436 142.157 187.299 142.157C187.934 142.157 188.487 142.32 188.943 142.645V143.572C188.406 144.206 187.787 144.515 187.055 144.515Z" fill="#868686"/>
</svg>
