<svg width="246" height="85" viewBox="0 0 246 85" fill="none" xmlns="http://www.w3.org/2000/svg">
<path d="M28.6792 83.2879C15.6353 83.2879 3.89326 82.2719 1.23853 82.0433C0.676959 77.7 0.676959 73.3059 0.855642 68.0736C1.23853 56.9741 2.23405 44.0458 6.67561 32.3874C9.61112 24.7422 16.5032 11.1789 29.8023 5.92124C40.7275 1.62873 60.1785 0.714355 74.5752 0.714355C84.2752 0.714355 92.1628 1.12075 94.4601 1.24774C94.4091 3.1781 94.4601 5.03226 94.4856 6.98801C94.5367 9.50256 94.5877 12.1187 94.4601 15.192C94.3835 17.0716 94.3325 18.9257 94.307 20.7799C94.0262 32.0065 93.7454 42.598 89.4059 52.707C84.0199 65.2035 70.1337 77.7254 58.4682 80.5956C51.2443 82.3735 41.238 83.2879 28.6792 83.2879Z" fill="#006937"/>
<path d="M58.6464 81.3065C71.3329 78.1824 84.9383 64.9493 90.0691 52.9862C95.2254 41.0484 94.7404 28.1963 95.1999 15.2172C95.4041 9.50233 95.0467 5.28603 95.1999 0.587134C95.1999 0.587134 49.0486 -2.4354 29.521 5.23523C18.1364 9.73093 10.3509 20.7289 5.98591 32.1078C1.62093 43.4868 0.523308 55.8563 0.114889 68.0226C-0.063794 72.8993 -0.114846 77.8522 0.57436 82.6781C0.57436 82.7035 37.8936 86.4118 58.6464 81.3065Z" fill="#006937"/>
<path d="M14.8441 27.0034C16.1715 27.0034 16.2225 27.5622 16.2225 28.0956V28.248L16.0694 33.2009C16.0694 33.4803 16.0438 33.8613 16.3246 34.0899C16.4267 34.1915 16.6309 34.2677 16.9628 34.2677C17.167 34.2677 17.3967 34.1915 17.5754 34.0137C17.8307 33.7597 17.8562 33.3533 17.8562 32.9977C17.8562 32.0325 17.7796 32.3373 17.7796 30.9149V27.8924C17.7796 27.3336 17.6775 26.978 19.2601 26.978H20.3067C20.9449 26.978 21.3533 27.0542 21.3533 27.867C21.3533 28.0956 21.3278 28.3242 21.3022 28.6798C21.2767 29.5942 21.2767 29.899 21.2767 30.0768V38.865L21.3533 41.7859C21.3533 42.0653 21.3022 42.4717 21.2001 42.6495C20.9959 43.0305 20.5875 43.1067 20.3067 43.1067H18.7241C18.0859 43.1067 17.6775 43.1067 17.6775 41.8113V40.5413C17.6775 38.9158 17.8051 38.4078 17.8051 37.8998C17.8051 37.468 17.5754 37.4172 17.4733 37.4172C17.3201 37.4172 17.0649 37.5696 16.7075 37.6712C16.3757 37.7728 16.0949 37.8236 15.6354 37.8236C14.8696 37.8236 13.9252 37.722 13.2615 36.9854C12.4702 36.0964 12.4957 34.5979 12.4957 33.5311V28.375C12.4957 27.4098 12.4702 27.0542 13.8486 27.0542H14.8441V27.0034Z" fill="#8DC63F"/>
<path d="M14.8441 27.0034C16.1715 27.0034 16.2225 27.5622 16.2225 28.0956V28.248L16.0694 33.2009C16.0694 33.4803 16.0438 33.8613 16.3246 34.0899C16.4267 34.1915 16.6309 34.2677 16.9628 34.2677C17.167 34.2677 17.3967 34.1915 17.5754 34.0137C17.8307 33.7597 17.8562 33.3533 17.8562 32.9977C17.8562 32.0325 17.7796 32.3373 17.7796 30.9149V27.8924C17.7796 27.3336 17.6775 26.978 19.2601 26.978H20.3067C20.9449 26.978 21.3533 27.0542 21.3533 27.867C21.3533 28.0956 21.3278 28.3242 21.3022 28.6798C21.2767 29.5942 21.2767 29.899 21.2767 30.0768V38.865L21.3533 41.7859C21.3533 42.0653 21.3022 42.4717 21.2001 42.6495C20.9959 43.0305 20.5875 43.1067 20.3067 43.1067H18.7241C18.0859 43.1067 17.6775 43.1067 17.6775 41.8113V40.5413C17.6775 38.9158 17.8051 38.4078 17.8051 37.8998C17.8051 37.468 17.5754 37.4172 17.4733 37.4172C17.3201 37.4172 17.0649 37.5696 16.7075 37.6712C16.3757 37.7728 16.0949 37.8236 15.6354 37.8236C14.8696 37.8236 13.9252 37.722 13.2615 36.9854C12.4702 36.0964 12.4957 34.5979 12.4957 33.5311V28.375C12.4957 27.4098 12.4702 27.0542 13.8486 27.0542H14.8441V27.0034Z" stroke="#8DC63F" stroke-width="0.563" stroke-linecap="round" stroke-linejoin="round"/>
<path d="M33.1205 41.5822C33.1205 43.0554 32.9162 43.1062 31.9973 43.1062H30.8486C30.0318 43.1062 29.7765 43.0554 29.7765 41.7346V35.5117H29.3171L27.5047 41.7346C27.1218 43.03 27.0708 43.1062 26.1518 43.1062H24.3395C23.446 43.1062 23.3184 42.4458 23.3184 41.2266V28.4253L23.2929 27.9427C23.2674 27.4093 23.3439 27.0283 24.3395 27.0283H25.7179C26.6368 27.0283 26.6368 27.5109 26.6368 28.3745V34.6227H27.0963C27.7855 32.5654 28.3981 30.4318 29.0107 28.1205L29.1384 27.6125C29.2405 27.2315 29.3936 27.0283 30.0063 27.0283H32.0484C32.712 27.0283 33.0949 27.1299 33.0949 28.6793V41.5822H33.1205Z" fill="#8DC63F"/>
<path d="M33.1205 41.5822C33.1205 43.0554 32.9162 43.1062 31.9973 43.1062H30.8486C30.0318 43.1062 29.7765 43.0554 29.7765 41.7346V35.5117H29.3171L27.5047 41.7346C27.1218 43.03 27.0708 43.1062 26.1518 43.1062H24.3395C23.446 43.1062 23.3184 42.4458 23.3184 41.2266V28.4253L23.2929 27.9427C23.2674 27.4093 23.3439 27.0283 24.3395 27.0283H25.7179C26.6368 27.0283 26.6368 27.5109 26.6368 28.3745V34.6227H27.0963C27.7855 32.5654 28.3981 30.4318 29.0107 28.1205L29.1384 27.6125C29.2405 27.2315 29.3936 27.0283 30.0063 27.0283H32.0484C32.712 27.0283 33.0949 27.1299 33.0949 28.6793V41.5822H33.1205Z" stroke="#8DC63F" stroke-width="0.563" stroke-linecap="round" stroke-linejoin="round"/>
<path d="M41.9526 41.9622C41.9781 42.6226 41.876 43.1814 40.37 43.1814C38.6342 43.1814 37.1537 42.9274 36.1326 41.4034C35.035 39.8033 34.8818 37.3903 34.8818 34.7996C34.8818 31.8278 35.1626 29.5927 36.3113 28.3735C37.511 27.129 39.3234 27.002 40.5997 27.002C41.2379 27.002 41.876 27.0528 41.8505 28.1957L41.825 29.1609L41.876 29.9991C41.9271 30.8881 41.3655 31.0151 41.0847 31.0151H40.6252C40.421 31.0151 40.2168 31.0659 40.0636 31.1167C38.7873 31.5231 38.8384 32.9454 38.8384 35.1298C38.8384 37.5173 38.9915 38.3047 39.2213 38.7111C39.4 39.0159 39.7573 39.3969 40.37 39.3715L41.2634 39.3207C41.9781 39.2699 41.9015 40.1081 41.9015 40.7176L41.9526 41.9622Z" fill="#8DC63F"/>
<path d="M41.9526 41.9622C41.9781 42.6226 41.876 43.1814 40.37 43.1814C38.6342 43.1814 37.1537 42.9274 36.1326 41.4034C35.035 39.8033 34.8818 37.3903 34.8818 34.7996C34.8818 31.8278 35.1626 29.5927 36.3113 28.3735C37.511 27.129 39.3234 27.002 40.5997 27.002C41.2379 27.002 41.876 27.0528 41.8505 28.1957L41.825 29.1609L41.876 29.9991C41.9271 30.8881 41.3655 31.0151 41.0847 31.0151H40.6252C40.421 31.0151 40.2168 31.0659 40.0636 31.1167C38.7873 31.5231 38.8384 32.9454 38.8384 35.1298C38.8384 37.5173 38.9915 38.3047 39.2213 38.7111C39.4 39.0159 39.7573 39.3969 40.37 39.3715L41.2634 39.3207C41.9781 39.2699 41.9015 40.1081 41.9015 40.7176L41.9526 41.9622Z" stroke="#8DC63F" stroke-width="0.563" stroke-linecap="round" stroke-linejoin="round"/>
<path d="M48.9467 40.6932L49.0233 42.1664C49.0743 43.0554 48.5127 43.1062 48.2064 43.1062H47.6704L46.2664 43.157C45.9856 43.157 45.2199 43.157 45.2454 42.268L45.2964 41.0742V35.2831C45.2964 33.9116 45.2964 32.54 45.322 31.2192V31.0922C45.322 30.9144 45.2454 30.7366 44.6583 30.7366H44.0201C42.9736 30.7366 42.9991 30.0762 42.9991 29.0603V28.2475C42.9991 27.8157 43.0501 27.0283 44.0457 27.0283H44.9901L47.3641 27.1045L48.9977 27.0791C49.738 27.0791 50.759 26.9267 51.0398 27.2061C51.1675 27.3331 51.2185 27.6379 51.2185 28.1205V29.2635C51.2185 30.5842 50.8101 30.7366 50.4272 30.7366H49.6869C49.0998 30.7366 48.9211 30.8636 48.9211 31.27L48.9467 40.6932Z" fill="#8DC63F"/>
<path d="M48.9467 40.6932L49.0233 42.1664C49.0743 43.0554 48.5127 43.1062 48.2064 43.1062H47.6704L46.2664 43.157C45.9856 43.157 45.2199 43.157 45.2454 42.268L45.2964 41.0742V35.2831C45.2964 33.9116 45.2964 32.54 45.322 31.2192V31.0922C45.322 30.9144 45.2454 30.7366 44.6583 30.7366H44.0201C42.9736 30.7366 42.9991 30.0762 42.9991 29.0603V28.2475C42.9991 27.8157 43.0501 27.0283 44.0457 27.0283H44.9901L47.3641 27.1045L48.9977 27.0791C49.738 27.0791 50.759 26.9267 51.0398 27.2061C51.1675 27.3331 51.2185 27.6379 51.2185 28.1205V29.2635C51.2185 30.5842 50.8101 30.7366 50.4272 30.7366H49.6869C49.0998 30.7366 48.9211 30.8636 48.9211 31.27L48.9467 40.6932Z" stroke="#8DC63F" stroke-width="0.563" stroke-linecap="round" stroke-linejoin="round"/>
<path d="M54.0005 43.1067C53.6687 43.1067 53.1326 43.0559 52.9029 42.9035C52.7498 42.8019 52.6221 42.5733 52.6221 41.3795V40.6175C52.6221 39.5253 52.7242 38.4078 52.7242 37.3156C52.7242 30.9149 52.52 31.8039 52.52 29.391V28.0194C52.52 27.1304 52.6732 27.0034 53.8219 27.0034H54.8684C56.0682 27.0034 56.1958 27.0796 56.1958 28.7052V31.8039C56.1958 33.0485 56.4766 32.9977 56.885 32.9977H57.7529C58.7484 32.9977 59.4631 33.3533 59.9226 33.7089C61.0458 34.5471 61.4542 35.9186 61.4542 38.0776C61.4542 40.1603 60.9947 41.0747 60.7905 41.4049C59.8716 42.9797 58.3145 43.1067 57.1147 43.1067H54.0005ZM56.1192 38.8904C56.1192 39.7285 56.5787 39.8047 56.8595 39.8047C57.2934 39.8047 57.9826 39.5761 57.9826 37.849C57.9826 37.1632 57.855 36.2742 56.8595 36.2742C56.1447 36.2742 56.1192 36.7568 56.1192 37.0108V38.8904ZM64.6194 27.0034C65.8192 27.0034 65.9468 27.0796 65.9468 28.7052L65.8702 39.3222L65.9213 41.7859C65.9468 42.8781 65.6915 43.1067 64.4918 43.1067H63.7005C62.7815 43.1067 62.2455 43.1829 62.2455 41.9129V40.7191C62.2455 39.9825 62.3221 40.4143 62.2965 38.865C62.271 37.595 62.3221 31.6769 62.3476 30.3816V29.7212C62.3476 29.391 62.2965 29.0608 62.3221 28.7052C62.3476 28.2226 62.2965 28.502 62.2965 28.2226V27.994C62.2965 27.105 62.4497 26.978 63.5984 26.978H64.6194V27.0034Z" fill="#8DC63F"/>
<path d="M54.0005 43.1067C53.6687 43.1067 53.1326 43.0559 52.9029 42.9035C52.7498 42.8019 52.6221 42.5733 52.6221 41.3795V40.6175C52.6221 39.5253 52.7242 38.4078 52.7242 37.3156C52.7242 30.9149 52.52 31.8039 52.52 29.391V28.0194C52.52 27.1304 52.6732 27.0034 53.8219 27.0034H54.8684C56.0682 27.0034 56.1958 27.0796 56.1958 28.7052V31.8039C56.1958 33.0485 56.4766 32.9977 56.885 32.9977H57.7529C58.7484 32.9977 59.4631 33.3533 59.9226 33.7089C61.0458 34.5471 61.4542 35.9186 61.4542 38.0776C61.4542 40.1603 60.9947 41.0747 60.7905 41.4049C59.8716 42.9797 58.3145 43.1067 57.1147 43.1067H54.0005ZM56.1192 38.8904C56.1192 39.7285 56.5787 39.8047 56.8595 39.8047C57.2934 39.8047 57.9826 39.5761 57.9826 37.849C57.9826 37.1632 57.855 36.2742 56.8595 36.2742C56.1447 36.2742 56.1192 36.7568 56.1192 37.0108V38.8904ZM64.6194 27.0034C65.8192 27.0034 65.9468 27.0796 65.9468 28.7052L65.8702 39.3222L65.9213 41.7859C65.9468 42.8781 65.6915 43.1067 64.4918 43.1067H63.7005C62.7815 43.1067 62.2455 43.1829 62.2455 41.9129V40.7191C62.2455 39.9825 62.3221 40.4143 62.2965 38.865C62.271 37.595 62.3221 31.6769 62.3476 30.3816V29.7212C62.3476 29.391 62.2965 29.0608 62.3221 28.7052C62.3476 28.2226 62.2965 28.502 62.2965 28.2226V27.994C62.2965 27.105 62.4497 26.978 63.5984 26.978H64.6194V27.0034Z" stroke="#8DC63F" stroke-width="0.563" stroke-linecap="round" stroke-linejoin="round"/>
<path d="M77.7664 41.5819C77.7664 43.055 77.5622 43.1058 76.6433 43.1058H75.4946C74.6778 43.1058 74.4225 43.055 74.4225 41.7343V35.5114H73.963L72.1507 41.7343C71.7678 43.0296 71.7167 43.1058 70.7978 43.1058H68.9854C68.092 43.1058 67.9644 42.4455 67.9644 41.2263V28.425L67.9389 27.9424C67.9133 27.409 67.9899 27.028 68.9854 27.028H70.3894C71.3083 27.028 71.3083 27.5106 71.3083 28.3742V34.6224H71.7423C72.4315 32.5651 73.0441 30.4315 73.6567 28.1202L73.7844 27.6122C73.8865 27.2312 74.0396 27.028 74.6523 27.028H76.6944C77.3836 27.028 77.7409 27.1296 77.7409 28.679V41.5819H77.7664ZM71.3849 23.7515C71.487 23.7515 71.6146 23.8023 71.6657 23.8531C71.7423 23.9547 71.7423 24.0817 71.8699 24.3611C71.9465 24.5389 72.2017 24.9198 72.8909 24.9198C73.5036 24.9198 73.7333 24.6405 73.912 24.3611C74.0396 24.1325 74.0396 24.0563 74.1162 23.9039C74.1928 23.7515 74.2438 23.7261 74.3715 23.7261H75.6223C75.7244 23.7261 75.903 23.7515 75.9541 24.0309V24.2341C75.903 24.9706 75.6478 25.4786 75.1373 25.9104C74.5502 26.4184 73.8354 26.5708 72.8909 26.5708C72.1252 26.5708 71.2317 26.4946 70.5425 25.8342C70.032 25.3262 69.8533 24.7421 69.8278 24.2341V24.0563C69.8533 23.9547 69.9044 23.7515 70.1596 23.7515H71.3849Z" fill="#8DC63F"/>
<path d="M77.7664 41.5819C77.7664 43.055 77.5622 43.1058 76.6433 43.1058H75.4946C74.6778 43.1058 74.4225 43.055 74.4225 41.7343V35.5114H73.963L72.1507 41.7343C71.7678 43.0296 71.7167 43.1058 70.7978 43.1058H68.9854C68.092 43.1058 67.9644 42.4455 67.9644 41.2263V28.425L67.9389 27.9424C67.9133 27.409 67.9899 27.028 68.9854 27.028H70.3894C71.3083 27.028 71.3083 27.5106 71.3083 28.3742V34.6224H71.7423C72.4315 32.5651 73.0441 30.4315 73.6567 28.1202L73.7844 27.6122C73.8865 27.2312 74.0396 27.028 74.6523 27.028H76.6944C77.3836 27.028 77.7409 27.1296 77.7409 28.679V41.5819H77.7664ZM71.3849 23.7515C71.487 23.7515 71.6146 23.8023 71.6657 23.8531C71.7423 23.9547 71.7423 24.0817 71.8699 24.3611C71.9465 24.5389 72.2017 24.9198 72.8909 24.9198C73.5036 24.9198 73.7333 24.6405 73.912 24.3611C74.0396 24.1325 74.0396 24.0563 74.1162 23.9039C74.1928 23.7515 74.2438 23.7261 74.3715 23.7261H75.6223C75.7244 23.7261 75.903 23.7515 75.9541 24.0309V24.2341C75.903 24.9706 75.6478 25.4786 75.1373 25.9104C74.5502 26.4184 73.8354 26.5708 72.8909 26.5708C72.1252 26.5708 71.2317 26.4946 70.5425 25.8342C70.032 25.3262 69.8533 24.7421 69.8278 24.2341V24.0563C69.8533 23.9547 69.9044 23.7515 70.1596 23.7515H71.3849V23.7515Z" stroke="#8DC63F" stroke-width="0.563" stroke-linecap="round" stroke-linejoin="round"/>
<path d="M16.4001 47.8813C17.0383 47.8813 17.4467 47.9575 17.4467 48.7703C17.4467 48.9989 17.4212 49.2021 17.3957 49.5831C17.3701 50.4975 17.3701 50.7769 17.3701 50.9547V59.7429C17.3701 61.6986 17.4467 61.6224 17.4467 62.7146C17.4467 63.8068 16.9107 63.9592 16.4001 63.9592H14.792C14.3836 63.9592 13.7709 63.883 13.7709 62.6638V54.028C13.7709 53.5708 13.822 53.4692 13.8475 52.9358C13.8986 52.4786 13.9496 52.2247 13.9496 51.8691C13.9496 51.1833 13.5412 51.1071 13.286 51.1071C12.2394 51.1071 12.2139 51.8183 12.2139 52.504V62.6892C12.2139 63.2988 12.3925 63.9592 10.8099 63.9592H9.9165C9.30387 63.9592 8.53809 64.0608 8.53809 63.0448C8.53809 62.9432 8.56361 62.8162 8.56361 62.7146C8.61466 62.232 8.58914 61.724 8.58914 61.2415V49.2021C8.58914 48.2369 8.56361 47.8813 9.94203 47.8813H16.4001Z" fill="#8DC63F"/>
<path d="M16.4001 47.8813C17.0383 47.8813 17.4467 47.9575 17.4467 48.7703C17.4467 48.9989 17.4212 49.2021 17.3957 49.5831C17.3701 50.4975 17.3701 50.7769 17.3701 50.9547V59.7429C17.3701 61.6986 17.4467 61.6224 17.4467 62.7146C17.4467 63.8068 16.9107 63.9592 16.4001 63.9592H14.792C14.3836 63.9592 13.7709 63.883 13.7709 62.6638V54.028C13.7709 53.5708 13.822 53.4692 13.8475 52.9358C13.8986 52.4786 13.9496 52.2247 13.9496 51.8691C13.9496 51.1833 13.5412 51.1071 13.286 51.1071C12.2394 51.1071 12.2139 51.8183 12.2139 52.504V62.6892C12.2139 63.2988 12.3925 63.9592 10.8099 63.9592H9.9165C9.30387 63.9592 8.53809 64.0608 8.53809 63.0448C8.53809 62.9432 8.56361 62.8162 8.56361 62.7146C8.61466 62.232 8.58914 61.724 8.58914 61.2415V49.2021C8.58914 48.2369 8.56361 47.8813 9.94203 47.8813H16.4001V47.8813Z" stroke="#8DC63F" stroke-width="0.563" stroke-linecap="round" stroke-linejoin="round"/>
<path d="M19.3878 60.7582L19.4899 53.367C19.5154 51.1318 19.4133 49.9889 19.3878 49.5571L19.3622 49.0491C19.3367 48.7697 19.3878 48.5157 19.5409 48.2363C19.6941 47.9569 19.8472 47.9061 20.2301 47.8807L20.8938 47.8299C23.5485 47.6521 25.948 47.3981 27.403 48.9475C28.6282 50.2683 28.7303 52.4272 28.7303 53.6464C28.7303 56.3895 27.939 57.6341 27.5306 58.1929C26.918 59.0057 25.6927 59.8692 24.3398 59.793L23.9059 59.7676C23.6506 59.7422 23.2422 59.793 23.0635 59.9454C22.8593 60.1232 22.8083 60.4788 22.8083 60.7074C22.8083 60.9614 22.8083 61.3932 22.8593 62.3076L22.9104 63.095C22.9614 63.8569 22.4509 63.9585 22.0935 63.9585C21.8127 63.9585 21.5064 63.8823 21.2512 63.8823C20.8427 63.8823 20.4343 64.0093 20.0259 63.9839C19.4133 63.9585 19.3878 63.5268 19.3878 63.222L19.4133 62.5108L19.3878 60.7582ZM22.7317 54.4338C22.7317 55.6275 22.7317 56.2879 23.7272 56.2879C24.3909 56.2879 24.6461 56.0085 24.7738 55.7037C25.0035 55.2465 25.029 54.7386 25.029 54.256C25.029 52.732 24.978 51.97 24.6206 51.5128C24.3654 51.208 24.059 51.081 23.7272 51.081C22.7827 51.081 22.7317 51.9446 22.7317 52.4272V54.4338Z" fill="#8DC63F"/>
<path d="M19.3878 60.7582L19.4899 53.367C19.5154 51.1318 19.4133 49.9889 19.3878 49.5571L19.3622 49.0491C19.3367 48.7697 19.3878 48.5157 19.5409 48.2363C19.6941 47.9569 19.8472 47.9061 20.2301 47.8807L20.8938 47.8299C23.5485 47.6521 25.948 47.3981 27.403 48.9475C28.6282 50.2683 28.7303 52.4272 28.7303 53.6464C28.7303 56.3895 27.939 57.6341 27.5306 58.1929C26.918 59.0057 25.6927 59.8692 24.3398 59.793L23.9059 59.7676C23.6506 59.7422 23.2422 59.793 23.0635 59.9454C22.8593 60.1232 22.8083 60.4788 22.8083 60.7074C22.8083 60.9614 22.8083 61.3932 22.8593 62.3076L22.9104 63.095C22.9614 63.8569 22.4509 63.9585 22.0935 63.9585C21.8127 63.9585 21.5064 63.8823 21.2512 63.8823C20.8427 63.8823 20.4343 64.0093 20.0259 63.9839C19.4133 63.9585 19.3878 63.5268 19.3878 63.222L19.4133 62.5108L19.3878 60.7582ZM22.7317 54.4338C22.7317 55.6275 22.7317 56.2879 23.7272 56.2879C24.3909 56.2879 24.6461 56.0085 24.7738 55.7037C25.0035 55.2465 25.029 54.7386 25.029 54.256C25.029 52.732 24.978 51.97 24.6206 51.5128C24.3654 51.208 24.059 51.081 23.7272 51.081C22.7827 51.081 22.7317 51.9446 22.7317 52.4272V54.4338Z" stroke="#8DC63F" stroke-width="0.563" stroke-linecap="round" stroke-linejoin="round"/>
<path d="M40.2675 56.4665C40.2675 57.965 40.1909 60.3018 39.6548 61.5463C39.0422 63.0449 37.5617 64.2387 34.8049 64.2387C33.7583 64.2387 32.3544 64.0609 31.3078 62.6639C30.3888 61.4448 30.0825 59.5906 30.0825 56.0601C30.0825 53.4693 30.1591 51.285 30.9504 49.8372C32.048 47.8307 34.2178 47.5767 35.443 47.5767C36.6683 47.5767 37.9446 47.7545 38.9912 48.9482C40.2164 50.3452 40.2675 52.2248 40.2675 53.8757V56.4665ZM34.0646 58.219C34.0646 59.2096 34.0901 59.743 34.3454 60.0478C34.5496 60.3018 34.8304 60.3526 35.0346 60.3526C35.4685 60.3526 35.7493 60.2256 35.9791 59.8192C36.2854 59.2858 36.2599 58.6254 36.2599 56.8729V53.0883C36.2599 52.1232 35.9025 51.3612 35.1878 51.3612C34.9325 51.3612 34.5751 51.4628 34.3709 51.793C34.0391 52.301 34.0646 53.2915 34.0646 53.7487V58.219Z" fill="#8DC63F"/>
<path d="M40.2675 56.4665C40.2675 57.965 40.1909 60.3018 39.6548 61.5463C39.0422 63.0449 37.5617 64.2387 34.8049 64.2387C33.7583 64.2387 32.3543 64.0609 31.3078 62.6639C30.3888 61.4448 30.0825 59.5906 30.0825 56.0601C30.0825 53.4693 30.1591 51.285 30.9504 49.8372C32.048 47.8307 34.2178 47.5767 35.443 47.5767C36.6683 47.5767 37.9446 47.7545 38.9912 48.9482C40.2164 50.3452 40.2675 52.2248 40.2675 53.8757V56.4665V56.4665ZM34.0646 58.219C34.0646 59.2096 34.0901 59.743 34.3454 60.0478C34.5496 60.3018 34.8304 60.3526 35.0346 60.3526C35.4685 60.3526 35.7493 60.2256 35.9791 59.8192C36.2854 59.2858 36.2599 58.6254 36.2599 56.8729V53.0883C36.2599 52.1232 35.9025 51.3612 35.1878 51.3612C34.9325 51.3612 34.5751 51.4628 34.3709 51.793C34.0391 52.301 34.0646 53.2915 34.0646 53.7487V58.219V58.219Z" stroke="#8DC63F" stroke-width="0.563" stroke-linecap="round" stroke-linejoin="round"/>
<path d="M50.0956 47.8813C51.0401 47.8813 51.0656 48.6433 51.0656 49.1259V52.5294C51.0656 53.1644 51.0401 53.7994 51.0146 54.4598V55.4504V56.4664C51.0401 57.1775 51.0656 57.9395 51.0656 58.6761V59.6921C51.0656 60.1493 51.1932 60.6573 51.5761 60.6573H51.6527C51.9846 60.6573 52.393 60.8351 52.3674 61.6732C52.3674 62.1812 52.3164 62.6638 52.3164 63.121C52.3164 63.7814 52.3674 64.4418 52.3674 65.1276C52.3674 65.9403 51.9335 65.9403 51.5506 65.9403H49.4319C48.7172 65.9403 48.5896 65.4832 48.6662 65.1276L48.7172 64.9244C48.9725 63.756 47.9004 63.9846 47.2112 63.9846H46.1391C45.7051 63.9846 45.3733 63.8322 45.0414 64.01C44.6585 64.2386 44.7351 64.645 44.7096 64.9244L44.6585 65.3562C44.633 65.5594 44.5564 65.9403 43.7141 65.9403C43.3822 65.9403 42.9993 65.8641 42.6675 65.8641C42.3612 65.8641 42.0549 65.9403 41.723 65.9403C41.3657 65.9403 41.0083 65.8895 41.0083 65.1276C41.0083 64.5688 41.0594 63.9338 41.0594 63.4004C41.0594 62.74 41.0338 62.1304 41.0338 61.4446C41.0338 60.7335 41.3657 60.6319 41.6975 60.6319H41.8762C42.1059 60.6319 42.4378 59.3873 42.4633 59.2857C42.8207 57.9395 43.3312 55.9076 43.5099 50.1927L43.5609 48.7703C43.5864 48.0845 43.9949 47.8813 44.6075 47.8813H50.0956ZM46.6496 60.8351C46.9048 60.8351 47.2877 60.8097 47.492 60.5303C47.6196 60.3525 47.6196 60.0223 47.6196 59.1333C47.6451 57.0505 47.5685 56.3902 47.543 55.298C47.4664 53.7486 47.6196 53.4438 47.6196 52.3262C47.6196 51.9961 47.6706 51.2087 47.3388 51.2087H47.1091C46.7517 51.2087 46.7517 51.6405 46.7262 51.8945L46.6241 53.7486C46.522 55.5266 46.4199 56.1616 46.1646 57.6347C46.037 58.3967 45.8838 59.2095 45.6796 59.8953C45.603 60.1493 45.552 60.3017 45.552 60.4541C45.552 60.5303 45.603 60.6573 45.7306 60.7335C45.8072 60.7843 46.088 60.8351 46.2156 60.8351H46.6496Z" fill="#8DC63F"/>
<path d="M50.0956 47.8813C51.0401 47.8813 51.0656 48.6433 51.0656 49.1259V52.5294C51.0656 53.1644 51.0401 53.7994 51.0146 54.4598V55.4504V56.4664C51.0401 57.1775 51.0656 57.9395 51.0656 58.6761V59.6921C51.0656 60.1493 51.1932 60.6573 51.5761 60.6573H51.6527C51.9846 60.6573 52.393 60.8351 52.3674 61.6732C52.3674 62.1812 52.3164 62.6638 52.3164 63.121C52.3164 63.7814 52.3674 64.4418 52.3674 65.1276C52.3674 65.9403 51.9335 65.9403 51.5506 65.9403H49.4319C48.7172 65.9403 48.5896 65.4832 48.6662 65.1276L48.7172 64.9244C48.9725 63.756 47.9004 63.9846 47.2112 63.9846H46.1391C45.7051 63.9846 45.3733 63.8322 45.0414 64.01C44.6585 64.2386 44.7351 64.645 44.7096 64.9244L44.6585 65.3562C44.633 65.5594 44.5564 65.9403 43.7141 65.9403C43.3822 65.9403 42.9993 65.8641 42.6675 65.8641C42.3612 65.8641 42.0549 65.9403 41.723 65.9403C41.3657 65.9403 41.0083 65.8895 41.0083 65.1276C41.0083 64.5688 41.0594 63.9338 41.0594 63.4004C41.0594 62.74 41.0338 62.1304 41.0338 61.4446C41.0338 60.7335 41.3657 60.6319 41.6975 60.6319H41.8762C42.1059 60.6319 42.4378 59.3873 42.4633 59.2857C42.8207 57.9395 43.3312 55.9076 43.5099 50.1927L43.5609 48.7703C43.5864 48.0845 43.9949 47.8813 44.6075 47.8813H50.0956V47.8813ZM46.6496 60.8351C46.9048 60.8351 47.2877 60.8097 47.492 60.5303C47.6196 60.3525 47.6196 60.0223 47.6196 59.1333C47.6451 57.0505 47.5685 56.3902 47.543 55.298C47.4664 53.7486 47.6196 53.4438 47.6196 52.3262C47.6196 51.9961 47.6706 51.2087 47.3388 51.2087H47.1091C46.7517 51.2087 46.7517 51.6405 46.7262 51.8945L46.6241 53.7486C46.522 55.5266 46.4199 56.1616 46.1646 57.6347C46.037 58.3967 45.8838 59.2095 45.6796 59.8953C45.603 60.1493 45.552 60.3017 45.552 60.4541C45.552 60.5303 45.603 60.6573 45.7306 60.7335C45.8072 60.7843 46.088 60.8351 46.2156 60.8351H46.6496V60.8351Z" stroke="#8DC63F" stroke-width="0.563" stroke-linecap="round" stroke-linejoin="round"/>
<path d="M62.2204 47.8814C63.318 47.8814 63.1904 48.2116 63.0883 48.7195L62.348 53.4184C61.8885 56.4918 61.327 58.9301 60.893 60.9113C60.7143 61.8003 60.5357 62.5368 59.8209 63.2226C59.0041 64.01 57.8554 64.1878 56.8344 64.1878C56.1962 64.1878 55.1241 64.1116 54.6391 63.9338C54.1541 63.756 54.0775 63.502 54.0775 63.0448L54.052 60.9113C54.052 60.6827 54.0265 60.4287 54.1796 60.2255C54.2562 60.1239 54.4349 60.0731 54.5625 60.0731C54.6646 60.0731 54.7923 60.1239 54.8688 60.1493C54.9709 60.2001 55.0986 60.2509 55.2773 60.2509C55.5325 60.2509 55.7623 60.2001 55.8899 60.0731C55.9665 60.0223 56.0431 59.8699 56.0431 59.6413C56.0431 59.3619 55.9409 59.1079 55.7878 58.5745C55.6857 58.2951 55.558 57.8887 55.4815 57.5585L53.2096 49.4815C53.1586 49.3291 53.1075 49.2021 53.0565 49.0243C53.0054 48.8211 53.0054 48.6179 53.0054 48.3894C53.0054 48.1608 52.9799 47.856 53.9499 47.856H56.4004C56.8599 47.856 57.0641 47.9322 57.1662 48.1608C57.447 48.7703 58.0086 53.0882 58.2383 56.7712H58.7233C58.8509 55.1202 59.0296 52.3771 59.1317 50.8785C59.1828 49.6339 59.2338 49.4815 59.3104 48.7957C59.3359 48.5417 59.3614 48.2878 59.5657 48.0846C59.8209 47.8306 60.1272 47.8306 60.357 47.8306H62.2204V47.8814Z" fill="#8DC63F"/>
<path d="M62.2204 47.8814C63.318 47.8814 63.1904 48.2116 63.0883 48.7195L62.348 53.4184C61.8885 56.4918 61.327 58.9301 60.893 60.9113C60.7143 61.8003 60.5357 62.5368 59.8209 63.2226C59.0041 64.01 57.8554 64.1878 56.8344 64.1878C56.1962 64.1878 55.1241 64.1116 54.6391 63.9338C54.1541 63.756 54.0775 63.502 54.0775 63.0448L54.052 60.9113C54.052 60.6827 54.0265 60.4287 54.1796 60.2255C54.2562 60.1239 54.4349 60.0731 54.5625 60.0731C54.6646 60.0731 54.7923 60.1239 54.8688 60.1493C54.9709 60.2001 55.0986 60.2509 55.2773 60.2509C55.5325 60.2509 55.7623 60.2001 55.8899 60.0731C55.9665 60.0223 56.0431 59.8699 56.0431 59.6413C56.0431 59.3619 55.9409 59.1079 55.7878 58.5745C55.6857 58.2951 55.558 57.8887 55.4815 57.5585L53.2096 49.4815C53.1586 49.3291 53.1075 49.2021 53.0565 49.0243C53.0054 48.8211 53.0054 48.6179 53.0054 48.3894C53.0054 48.1608 52.9799 47.856 53.9499 47.856H56.4004C56.8599 47.856 57.0641 47.9322 57.1662 48.1608C57.447 48.7703 58.0086 53.0882 58.2383 56.7712H58.7233C58.8509 55.1202 59.0296 52.3771 59.1317 50.8785C59.1828 49.6339 59.2338 49.4815 59.3104 48.7957C59.3359 48.5417 59.3614 48.2878 59.5657 48.0846C59.8209 47.8306 60.1272 47.8306 60.357 47.8306H62.2204V47.8814Z" stroke="#8DC63F" stroke-width="0.563" stroke-linecap="round" stroke-linejoin="round"/>
<path d="M67.3765 47.8813C67.8615 47.8813 68.2444 47.8813 68.2444 48.8973V49.0497L68.1423 53.4184H68.4741L69.7249 48.5417C69.827 48.0845 69.9802 47.8813 70.5928 47.8813H72.9412C73.2986 47.8813 73.5794 47.9575 73.5794 48.3131C73.5794 48.6179 73.4262 48.9481 73.3241 49.1513L71.2565 54.0788C71.1799 54.2566 71.1288 54.4344 71.1033 54.663C71.5628 56.3394 71.9201 57.4823 72.252 58.5237L73.1199 61.2414C73.3751 62.0542 73.7836 63.1464 73.7836 63.5782C73.7836 63.7814 73.707 64.0354 73.0688 64.0354C72.7115 64.0354 72.3796 63.9846 72.0223 63.9846C71.767 63.9846 71.4607 64.0354 71.1799 64.0354C70.1078 64.0354 70.0312 63.9846 69.776 62.8162L68.4741 57.3045H68.1933V62.7908C68.1933 64.01 67.836 64.0354 67.1978 64.0354H66.1257C64.6962 64.0354 64.7473 63.756 64.7473 62.5368L64.7728 51.2849C64.7728 50.9801 64.7473 50.6499 64.7473 50.3451V49.7863V48.8719C64.7473 48.1607 64.9005 47.9321 66.0491 47.9321H67.3765V47.8813Z" fill="#8DC63F"/>
<path d="M67.3765 47.8813C67.8615 47.8813 68.2444 47.8813 68.2444 48.8973V49.0497L68.1423 53.4184H68.4741L69.7249 48.5417C69.827 48.0845 69.9802 47.8813 70.5928 47.8813H72.9412C73.2986 47.8813 73.5794 47.9575 73.5794 48.3131C73.5794 48.6179 73.4262 48.9481 73.3241 49.1513L71.2565 54.0788C71.1799 54.2566 71.1288 54.4344 71.1033 54.663C71.5628 56.3394 71.9201 57.4823 72.252 58.5237L73.1199 61.2414C73.3751 62.0542 73.7836 63.1464 73.7836 63.5782C73.7836 63.7814 73.707 64.0354 73.0688 64.0354C72.7115 64.0354 72.3796 63.9846 72.0223 63.9846C71.767 63.9846 71.4607 64.0354 71.1799 64.0354C70.1078 64.0354 70.0312 63.9846 69.776 62.8162L68.4741 57.3045H68.1933V62.7908C68.1933 64.01 67.836 64.0354 67.1978 64.0354H66.1257C64.6962 64.0354 64.7473 63.756 64.7473 62.5368L64.7728 51.2849C64.7728 50.9801 64.7473 50.6499 64.7473 50.3451V49.7863V48.8719C64.7473 48.1607 64.9005 47.9321 66.0491 47.9321H67.3765V47.8813Z" stroke="#8DC63F" stroke-width="0.563" stroke-linecap="round" stroke-linejoin="round"/>
<path d="M80.4208 61.5462L80.4974 63.0194C80.5484 63.9084 79.9868 63.9592 79.6805 63.9592H79.1445L77.7406 64.01C77.4598 64.01 76.6684 64.01 76.7195 63.121L76.7706 61.9272V56.1362C76.7706 54.7646 76.7706 53.4184 76.7961 52.0723V51.9453C76.7961 51.7675 76.7195 51.5897 76.1324 51.5897H75.4942C74.4477 51.5897 74.4732 50.9293 74.4732 49.9133V49.1005C74.4732 48.6687 74.5243 47.8813 75.5198 47.8813H76.4642L78.8382 47.9575L80.4719 47.9321C81.2121 47.9321 82.2332 47.7797 82.5139 48.0591C82.6416 48.1861 82.6926 48.4909 82.6926 48.9735V50.1165C82.6926 51.4373 82.2842 51.5897 81.9013 51.5897H81.1611C80.574 51.5897 80.3953 51.6913 80.3953 52.1231L80.4208 61.5462Z" fill="#8DC63F"/>
<path d="M80.4208 61.5462L80.4974 63.0194C80.5484 63.9084 79.9868 63.9592 79.6805 63.9592H79.1445L77.7406 64.01C77.4598 64.01 76.6684 64.01 76.7195 63.121L76.7706 61.9272V56.1362C76.7706 54.7646 76.7706 53.4184 76.7961 52.0723V51.9453C76.7961 51.7675 76.7195 51.5897 76.1324 51.5897H75.4942C74.4477 51.5897 74.4732 50.9293 74.4732 49.9133V49.1005C74.4732 48.6687 74.5243 47.8813 75.5198 47.8813H76.4642L78.8382 47.9575L80.4719 47.9321C81.2121 47.9321 82.2332 47.7797 82.5139 48.0591C82.6416 48.1861 82.6926 48.4909 82.6926 48.9735V50.1165C82.6926 51.4373 82.2842 51.5897 81.9013 51.5897H81.1611C80.574 51.5897 80.3953 51.6913 80.3953 52.1231L80.4208 61.5462Z" stroke="#8DC63F" stroke-width="0.563" stroke-linecap="round" stroke-linejoin="round"/>
<path d="M84.8879 28.3487C85.0921 28.2471 85.2452 28.0947 85.4494 28.0947C85.7813 28.0947 86.1131 28.5773 86.1131 28.8821C86.1131 29.1614 85.8068 29.3138 85.3984 29.4154L84.4029 29.6694L85.0921 29.9488C85.526 30.1266 86.0621 30.2536 86.0621 30.6092C86.0621 30.8124 85.8579 31.0664 85.7302 31.1934C85.6281 31.2696 85.4239 31.3966 85.2452 31.3966C85.1942 31.3966 84.99 31.3458 84.0966 30.6854L83.8413 30.4822C83.9434 31.2188 84.0966 31.7268 84.0966 32.057C84.0966 32.3364 83.9689 32.4634 83.3818 32.4634C83.1266 32.4634 82.8968 32.4126 82.7692 32.2348C82.6671 32.1078 82.6671 32.0062 82.6671 31.8792C82.6671 31.5998 82.7181 31.5998 82.7181 31.3966L82.8202 30.4822L82.1566 30.8632C81.8758 31.0156 81.5184 31.2696 81.2887 31.2696C81.0079 31.2696 80.6761 30.7616 80.6761 30.5076C80.6761 29.9742 81.3908 29.9488 82.08 29.7964L82.4118 29.7202C82.08 29.5932 81.9268 29.5424 81.6971 29.4662C81.6205 29.4408 81.5439 29.39 81.4418 29.39C81.3397 29.3646 81.2376 29.3138 81.1355 29.2884C80.6761 29.136 80.625 28.9836 80.625 28.8567C80.625 28.5519 81.0079 28.0693 81.3908 28.0439H81.4163C81.5184 28.0439 81.646 28.1455 81.7737 28.2471C81.9013 28.3487 81.8503 28.2979 82.1055 28.4503C82.2842 28.5773 82.4374 28.6789 82.7692 28.8821C82.7437 28.7551 82.7437 28.6281 82.7437 28.4757C82.7437 28.4249 82.7181 28.3487 82.7181 28.2979C82.6926 28.0439 82.6671 27.9423 82.6416 27.7645L82.5905 27.3581C82.5395 27.0787 82.8203 26.8501 83.3053 26.8501C84.071 26.8501 84.1731 27.2057 84.1731 27.3835C84.1731 27.6883 84.02 28.4757 83.9179 28.8313L84.8879 28.3487Z" fill="#8DC63F"/>
<path d="M84.8879 28.3487C85.0921 28.2471 85.2452 28.0947 85.4494 28.0947C85.7813 28.0947 86.1131 28.5773 86.1131 28.8821C86.1131 29.1614 85.8068 29.3138 85.3984 29.4154L84.4029 29.6694L85.0921 29.9488C85.526 30.1266 86.0621 30.2536 86.0621 30.6092C86.0621 30.8124 85.8579 31.0664 85.7302 31.1934C85.6281 31.2696 85.4239 31.3966 85.2452 31.3966C85.1942 31.3966 84.99 31.3458 84.0966 30.6854L83.8413 30.4822C83.9434 31.2188 84.0966 31.7268 84.0966 32.057C84.0966 32.3364 83.9689 32.4634 83.3818 32.4634C83.1266 32.4634 82.8968 32.4126 82.7692 32.2348C82.6671 32.1078 82.6671 32.0062 82.6671 31.8792C82.6671 31.5998 82.7181 31.5998 82.7181 31.3966L82.8202 30.4822L82.1566 30.8632C81.8758 31.0156 81.5184 31.2696 81.2887 31.2696C81.0079 31.2696 80.6761 30.7616 80.6761 30.5076C80.6761 29.9742 81.3908 29.9488 82.08 29.7964L82.4118 29.7202C82.08 29.5932 81.9268 29.5424 81.6971 29.4662C81.6205 29.4408 81.5439 29.39 81.4418 29.39C81.3397 29.3646 81.2376 29.3138 81.1355 29.2884C80.6761 29.136 80.625 28.9837 80.625 28.8567C80.625 28.5519 81.0079 28.0693 81.3908 28.0439H81.4163C81.5184 28.0439 81.646 28.1455 81.7737 28.2471C81.9013 28.3487 81.8503 28.2979 82.1055 28.4503C82.2842 28.5773 82.4374 28.6789 82.7692 28.8821C82.7437 28.7551 82.7437 28.6281 82.7437 28.4757C82.7437 28.4249 82.7181 28.3487 82.7181 28.2979C82.6926 28.0439 82.6671 27.9423 82.6416 27.7645L82.5905 27.3581C82.5395 27.0787 82.8203 26.8501 83.3053 26.8501C84.071 26.8501 84.1731 27.2057 84.1731 27.3835C84.1731 27.6883 84.02 28.4757 83.9179 28.8313L84.8879 28.3487Z" stroke="#8DC63F" stroke-width="0.563" stroke-linecap="round" stroke-linejoin="round"/>
<path fill-rule="evenodd" clip-rule="evenodd" d="M57.243 8.28369C50.5807 8.89328 44.582 12.4746 39.7065 16.7925C38.0473 18.2657 36.4647 19.9166 35.4692 21.7962C35.5202 20.9834 35.4692 20.196 35.3671 19.434C34.8821 16.0305 33.7079 12.7286 31.2318 10.6966L30.8745 10.722C30.2618 12.6778 29.9045 14.6589 29.8789 16.6147C29.8534 17.5037 29.9045 18.3927 30.1597 19.2054C30.4405 20.0436 30.9255 20.7802 31.436 21.4406C32.355 22.6344 33.4015 23.7265 34.5502 24.6917C34.5502 24.7679 34.5247 24.8695 34.4992 24.9457C37.741 24.6409 40.9318 24.0313 44.046 23.1678C45.7562 22.6852 47.4409 22.1264 48.9215 21.1612C50.3254 20.2722 51.4485 19.0531 52.4951 17.8085C54.767 15.0399 56.5793 11.9158 57.8556 8.63928L57.243 8.28369Z" fill="#8DC63F"/>
<path d="M57.243 8.28369C50.5807 8.89328 44.582 12.4746 39.7065 16.7925C38.0473 18.2657 36.4647 19.9166 35.4692 21.7962C35.5202 20.9834 35.4692 20.196 35.3671 19.434C34.8821 16.0305 33.7079 12.7286 31.2318 10.6966L30.8745 10.722C30.2618 12.6778 29.9045 14.6589 29.8789 16.6147C29.8534 17.5037 29.9045 18.3927 30.1597 19.2054C30.4405 20.0436 30.9255 20.7802 31.436 21.4406C32.355 22.6344 33.4015 23.7265 34.5502 24.6917C34.5502 24.7679 34.5247 24.8695 34.4992 24.9457C37.741 24.6409 40.9318 24.0313 44.046 23.1678C45.7562 22.6852 47.4409 22.1264 48.9215 21.1612C50.3254 20.2722 51.4485 19.0531 52.4951 17.8085C54.767 15.0399 56.5793 11.9158 57.8556 8.63928L57.243 8.28369Z" stroke="#8DC63F" stroke-width="0.563" stroke-linecap="round" stroke-linejoin="round"/>
<path d="M115.765 11.0082C115.933 11.0082 116.256 11.0082 116.748 11.0222C117.239 11.0362 117.647 11.0502 117.97 11.0502C120.344 11.0502 121.734 9.97196 121.734 7.99753C121.734 6.21914 120.484 5.16891 118.195 5.16891C117.661 5.16891 117.113 5.19692 116.537 5.25293V1.93421H121.186V1.20605H115.765V11.0082ZM118.167 5.89707C120.007 5.89707 120.962 6.69525 120.962 8.03954C120.962 9.50986 119.978 10.322 118.082 10.322C117.984 10.322 117.464 10.308 116.537 10.28V5.98109C117.029 5.92508 117.563 5.89707 118.167 5.89707Z" fill="#006937"/>
<path d="M127.885 9.67789C127.394 10.196 126.705 10.4481 125.835 10.4481C124.318 10.4481 123.306 9.52386 123.25 8.01153H128.461C128.489 7.84349 128.503 7.64745 128.503 7.4234C128.503 6.56922 128.236 5.88307 127.689 5.36496C127.141 4.84684 126.467 4.58079 125.638 4.58079C124.641 4.58079 123.854 4.88885 123.278 5.50499C122.716 6.12112 122.435 6.90529 122.435 7.8575C122.435 8.85171 122.744 9.63588 123.362 10.238C123.98 10.8401 124.795 11.1342 125.792 11.1342C126.776 11.1342 127.548 10.8401 128.124 10.238L127.885 9.67789ZM125.568 5.26694C126.902 5.26694 127.745 6.07911 127.759 7.4094H123.208C123.334 6.13512 124.205 5.26694 125.568 5.26694Z" fill="#006937"/>
<path d="M131.2 11.1342C132.759 11.1342 133.812 10.4201 133.812 9.2578C133.812 8.48764 133.321 7.84349 132.436 7.77348V7.74547C133.194 7.47942 133.574 6.97531 133.574 6.23315C133.574 5.21092 132.759 4.58079 131.298 4.58079C130.245 4.58079 129.458 4.86085 128.924 5.40697L129.219 5.96709C129.795 5.50499 130.455 5.26694 131.2 5.26694C132.197 5.26694 132.801 5.64502 132.801 6.35917C132.801 6.98931 132.225 7.50742 131.509 7.50742H130.512V8.10955H131.579C132.478 8.10955 133.04 8.50164 133.04 9.15978C133.04 9.95795 132.267 10.4481 131.088 10.4481C130.427 10.4481 129.599 10.196 129.093 9.73391L128.714 10.294C128.91 10.5321 129.262 10.7421 129.767 10.8962C130.273 11.0502 130.75 11.1342 131.2 11.1342Z" fill="#006937"/>
<path d="M137.71 13.8088V10.6021C138.202 10.9522 138.876 11.1342 139.733 11.1342C140.702 11.1342 141.475 10.8121 142.079 10.182C142.683 9.53786 142.978 8.72569 142.978 7.75948C142.978 6.82127 142.711 6.05111 142.177 5.46298C141.643 4.87485 140.927 4.58079 140.028 4.58079C139.129 4.58079 138.202 4.98688 137.71 5.547V4.70681H136.98V13.8088H137.71ZM139.831 5.26694C141.334 5.26694 142.205 6.27515 142.205 7.80149C142.205 8.57165 141.966 9.21579 141.503 9.7059C141.039 10.196 140.435 10.4481 139.677 10.4481C138.946 10.4481 138.286 10.252 137.71 9.87394V6.24715C138.146 5.70103 138.988 5.26694 139.831 5.26694Z" fill="#006937"/>
<path d="M143.951 5.75704C144.555 5.43497 145.145 5.26694 145.72 5.26694C146.662 5.32295 147.083 5.547 147.237 6.23315C147.364 6.69525 147.378 7.01732 147.378 7.73147C146.942 7.4094 146.367 7.25537 145.664 7.25537C144.962 7.25537 144.386 7.4234 143.937 7.77348C143.487 8.12356 143.262 8.59966 143.262 9.21579C143.262 10.35 144.035 11.0922 145.215 11.0922C146.142 11.0922 146.858 10.7421 147.378 10.042V11.0082H148.108V7.10133C148.108 5.42097 147.448 4.58079 145.763 4.58079C145.046 4.58079 144.372 4.77683 143.754 5.15491L143.951 5.75704ZM145.44 10.4061C144.639 10.4061 144.035 9.94395 144.035 9.17378C144.035 8.3196 144.822 7.8575 145.735 7.8575C146.367 7.8575 146.914 8.02553 147.378 8.36161V9.41183C146.872 10.07 146.226 10.4061 145.44 10.4061Z" fill="#006937"/>
<path d="M154.114 9.57987C153.622 10.154 152.962 10.4481 152.147 10.4481C151.389 10.4481 150.757 10.21 150.265 9.74791C149.774 9.2718 149.521 8.64167 149.521 7.8575C149.521 7.11534 149.759 6.4992 150.251 6.0091C150.743 5.51899 151.319 5.26694 152.007 5.26694C152.836 5.26694 153.496 5.49098 154.001 5.95308L154.353 5.36496C153.805 4.84684 152.976 4.58079 151.894 4.58079C150.996 4.58079 150.251 4.90286 149.647 5.53299C149.043 6.16313 148.748 6.9333 148.748 7.8575C148.748 8.85171 149.057 9.63588 149.675 10.238C150.307 10.8401 151.108 11.1342 152.091 11.1342C153.046 11.1342 153.959 10.7701 154.479 10.112L154.114 9.57987Z" fill="#006937"/>
<path d="M156.613 5.43497V11.0082H157.343V5.43497H159.857V4.70681H154.098V5.43497H156.613Z" fill="#006937"/>
<path d="M165.084 5.75704V11.0082H165.814V4.70681H165.084L160.87 9.95795V4.70681H160.14V11.0082H160.87L165.084 5.75704Z" fill="#006937"/>
<path d="M168.611 5.43497V11.0082H169.341V5.43497H171.855V4.70681H166.097V5.43497H168.611Z" fill="#006937"/>
<path d="M176.919 9.67789C176.427 10.196 175.739 10.4481 174.868 10.4481C173.351 10.4481 172.34 9.52386 172.284 8.01153H177.495C177.523 7.84349 177.537 7.64745 177.537 7.4234C177.537 6.56922 177.27 5.88307 176.722 5.36496C176.174 4.84684 175.5 4.58079 174.672 4.58079C173.674 4.58079 172.888 4.88885 172.312 5.50499C171.75 6.12112 171.469 6.90529 171.469 7.8575C171.469 8.85171 171.778 9.63588 172.396 10.238C173.014 10.8401 173.829 11.1342 174.826 11.1342C175.809 11.1342 176.582 10.8401 177.158 10.238L176.919 9.67789ZM174.601 5.26694C175.936 5.26694 176.778 6.07911 176.792 7.4094H172.242C172.368 6.13512 173.239 5.26694 174.601 5.26694Z" fill="#006937"/>
<path d="M183.19 11.0082V4.70681H179.102L179.004 6.66724C178.878 8.62767 178.498 9.60788 178.063 10.014C177.782 10.308 177.585 10.35 177.375 10.35L177.431 11.0642C177.993 11.0642 178.386 10.8962 178.821 10.336C179.271 9.77591 179.58 8.58566 179.706 6.80727L179.791 5.43497H182.459V11.0082H183.19Z" fill="#006937"/>
<path d="M186.265 11.0082C188.105 11.0082 188.863 10.126 188.863 8.89372C188.863 7.50742 188.034 6.82127 186.363 6.82127H185.141V4.70681H184.411V11.0082H186.265ZM186.237 7.50742C187.473 7.50742 188.091 7.96952 188.091 8.90773C188.091 9.84593 187.557 10.322 186.223 10.322H185.141V7.50742H186.237Z" fill="#006937"/>
<path d="M195.101 11.0082V4.70681H194.371V7.46541H190.269V4.70681H189.539V11.0082H190.269V8.15156H194.371V11.0082H195.101Z" fill="#006937"/>
<path d="M198.055 11.0082C199.895 11.0082 200.639 10.126 200.639 8.89372C200.639 7.50742 199.81 6.82127 198.139 6.82127H197.043V4.70681H196.313V11.0082H198.055ZM198.012 7.50742C199.248 7.50742 199.867 7.96952 199.867 8.90773C199.867 9.84593 199.347 10.322 197.998 10.322H197.043V7.50742H198.012ZM202.816 11.0082V4.70681H202.086V11.0082H202.816Z" fill="#006937"/>
<path d="M208.444 4.70681L206.407 7.31138L204.399 4.70681H203.5L205.874 7.78748L203.359 11.0082H204.216L206.379 8.22158L208.542 11.0082H209.441L206.927 7.75948L209.301 4.70681H208.444Z" fill="#006937"/>
<path d="M219.029 4.70681L216.571 7.73147L219.198 11.0082H220.083L217.386 7.73147L219.914 4.70681H219.029ZM216.122 11.0082V4.70681H215.391V11.0082H216.122ZM211.472 11.0082H212.357L214.942 7.73147L212.498 4.70681H211.599L214.127 7.73147L211.472 11.0082Z" fill="#006937"/>
<path d="M225.432 5.75704V11.0082H226.162V4.70681H225.432L221.218 9.95795V4.70681H220.488V11.0082H221.218L225.432 5.75704Z" fill="#006937"/>
<path d="M228.102 13.8088V10.6021C228.594 10.9522 229.268 11.1342 230.125 11.1342C231.094 11.1342 231.866 10.8121 232.47 10.182C233.074 9.53786 233.369 8.72569 233.369 7.75948C233.369 6.82127 233.102 6.05111 232.569 5.46298C232.035 4.87485 231.319 4.58079 230.42 4.58079C229.521 4.58079 228.594 4.98688 228.102 5.547V4.70681H227.372V13.8088H228.102ZM230.223 5.26694C231.726 5.26694 232.597 6.27515 232.597 7.80149C232.597 8.57165 232.358 9.21579 231.894 9.7059C231.431 10.196 230.827 10.4481 230.068 10.4481C229.338 10.4481 228.678 10.252 228.102 9.87394V6.24715C228.537 5.70103 229.38 5.26694 230.223 5.26694Z" fill="#006937"/>
<path d="M234.623 10.21C235.241 10.8261 236.042 11.1342 237.011 11.1342C237.98 11.1342 238.781 10.8261 239.399 10.21C240.017 9.59387 240.326 8.8097 240.326 7.8575C240.326 6.90529 240.017 6.12112 239.399 5.50499C238.781 4.88885 237.98 4.58079 237.011 4.58079C236.042 4.58079 235.241 4.88885 234.623 5.50499C234.005 6.12112 233.696 6.90529 233.696 7.8575C233.696 8.8097 234.005 9.59387 234.623 10.21ZM237.011 10.4481C236.267 10.4481 235.663 10.21 235.185 9.7199C234.708 9.2298 234.469 8.61366 234.469 7.8575C234.469 7.10133 234.708 6.4852 235.185 5.99509C235.677 5.50499 236.281 5.26694 237.011 5.26694C237.756 5.26694 238.36 5.50499 238.837 5.99509C239.315 6.4852 239.553 7.10133 239.553 7.8575C239.553 8.62767 239.315 9.2438 238.837 9.73391C238.374 10.21 237.756 10.4481 237.011 10.4481Z" fill="#006937"/>
<path d="M241.112 11.0082C241.295 11.0082 241.604 11.0082 242.067 11.0222C242.531 11.0362 242.896 11.0502 243.177 11.0502C245.059 11.0502 246 10.4621 246 9.2718C246 8.41762 245.494 7.91351 244.483 7.75948V7.73147C245.284 7.60544 245.761 7.00331 245.761 6.28916C245.761 5.16891 244.89 4.66481 243.149 4.66481C242.84 4.66481 242.46 4.67881 242.011 4.69281C241.575 4.70681 241.266 4.70681 241.112 4.70681V11.0082ZM243.359 8.10955C244.609 8.10955 245.227 8.47363 245.227 9.20179C245.227 9.97196 244.567 10.364 243.261 10.364C242.854 10.364 242.39 10.35 241.842 10.336V8.10955H243.359ZM243.233 5.35095C244.399 5.35095 244.989 5.70103 244.989 6.40118C244.989 7.07333 244.427 7.50742 243.514 7.50742H241.842V5.37896C242.306 5.36496 242.769 5.35095 243.233 5.35095Z" fill="#006937"/>
<path d="M115.765 26.0114C115.933 26.0114 116.256 26.0114 116.748 26.0254C117.239 26.0394 117.647 26.0534 117.97 26.0534C120.344 26.0534 121.734 24.9752 121.734 23.0008C121.734 21.2224 120.484 20.1722 118.195 20.1722C117.661 20.1722 117.113 20.2002 116.537 20.2562V16.9375H121.186V16.2093H115.765V26.0114ZM118.167 20.9003C120.007 20.9003 120.962 21.6985 120.962 23.0428C120.962 24.5131 119.978 25.3253 118.082 25.3253C117.984 25.3253 117.464 25.3113 116.537 25.2833V20.9843C117.029 20.9283 117.563 20.9003 118.167 20.9003Z" fill="#006937"/>
<path d="M127.885 24.6811C127.394 25.1993 126.705 25.4513 125.835 25.4513C124.318 25.4513 123.306 24.5271 123.25 23.0148H128.461C128.489 22.8468 128.503 22.6507 128.503 22.4267C128.503 21.5725 128.236 20.8863 127.689 20.3682C127.141 19.8501 126.467 19.584 125.638 19.584C124.641 19.584 123.854 19.8921 123.278 20.5082C122.716 21.1244 122.435 21.9085 122.435 22.8608C122.435 23.855 122.744 24.6391 123.362 25.2413C123.98 25.8434 124.795 26.1375 125.792 26.1375C126.776 26.1375 127.548 25.8434 128.124 25.2413L127.885 24.6811ZM125.568 20.2702C126.902 20.2702 127.745 21.0824 127.759 22.4127H123.208C123.334 21.1384 124.205 20.2702 125.568 20.2702Z" fill="#006937"/>
<path d="M131.2 26.1375C132.759 26.1375 133.812 25.4233 133.812 24.2611C133.812 23.4909 133.321 22.8467 132.436 22.7767V22.7487C133.194 22.4827 133.574 21.9786 133.574 21.2364C133.574 20.2142 132.759 19.584 131.298 19.584C130.245 19.584 129.458 19.8641 128.924 20.4102L129.219 20.9703C129.795 20.5082 130.455 20.2702 131.2 20.2702C132.197 20.2702 132.801 20.6483 132.801 21.3624C132.801 21.9926 132.225 22.5107 131.509 22.5107H130.512V23.1128H131.579C132.478 23.1128 133.04 23.5049 133.04 24.163C133.04 24.9612 132.267 25.4513 131.088 25.4513C130.427 25.4513 129.599 25.1993 129.093 24.7372L128.714 25.2973C128.91 25.5353 129.262 25.7454 129.767 25.8994C130.273 26.0534 130.75 26.1375 131.2 26.1375Z" fill="#006937"/>
<path d="M141.896 24.5831C141.404 25.1572 140.744 25.4513 139.93 25.4513C139.171 25.4513 138.539 25.2133 138.047 24.7512C137.556 24.2751 137.303 23.6449 137.303 22.8608C137.303 22.1186 137.542 21.5025 138.033 21.0124C138.525 20.5222 139.101 20.2702 139.789 20.2702C140.618 20.2702 141.278 20.4942 141.784 20.9563L142.135 20.3682C141.587 19.8501 140.758 19.584 139.677 19.584C138.778 19.584 138.033 19.9061 137.429 20.5362C136.825 21.1664 136.53 21.9366 136.53 22.8608C136.53 23.855 136.839 24.6391 137.457 25.2413C138.09 25.8434 138.89 26.1375 139.873 26.1375C140.828 26.1375 141.741 25.7734 142.261 25.1152L141.896 24.5831Z" fill="#006937"/>
<path d="M147.415 19.7101L145.715 24.135C145.533 24.6531 145.406 24.9892 145.364 25.1432L144.915 24.163L142.752 19.7101H141.881L144.999 26.0114L144.859 26.3475C144.311 27.6358 143.847 28.1399 143.215 28.1399C143.019 28.1399 142.766 28.0699 142.471 27.9299L142.232 28.49C142.597 28.7 142.962 28.812 143.314 28.812C143.763 28.812 144.156 28.616 144.493 28.2239C144.845 27.8458 145.238 27.1037 145.687 26.0114L148.244 19.7101H147.415Z" fill="#006937"/>
<path d="M152.785 19.7101L150.748 22.3146L148.74 19.7101H147.841L150.215 22.7907L147.7 26.0114H148.557L150.72 23.2248L152.883 26.0114H153.782L151.268 22.7627L153.642 19.7101H152.785Z" fill="#006937"/>
<path d="M154.488 25.2133C155.106 25.8294 155.906 26.1375 156.876 26.1375C157.845 26.1375 158.645 25.8294 159.263 25.2133C159.881 24.5971 160.191 23.813 160.191 22.8608C160.191 21.9085 159.881 21.1244 159.263 20.5082C158.645 19.8921 157.845 19.584 156.876 19.584C155.906 19.584 155.106 19.8921 154.488 20.5082C153.87 21.1244 153.561 21.9085 153.561 22.8608C153.561 23.813 153.87 24.5971 154.488 25.2133ZM156.876 25.4513C156.131 25.4513 155.527 25.2133 155.05 24.7232C154.572 24.2331 154.333 23.6169 154.333 22.8608C154.333 22.1046 154.572 21.4885 155.05 20.9983C155.541 20.5082 156.145 20.2702 156.876 20.2702C157.62 20.2702 158.224 20.5082 158.702 20.9983C159.179 21.4885 159.418 22.1046 159.418 22.8608C159.418 23.6309 159.179 24.2471 158.702 24.7372C158.238 25.2133 157.62 25.4513 156.876 25.4513Z" fill="#006937"/>
<path d="M161.707 26.0114V20.3962H164.783V19.7101H160.976V26.0114H161.707Z" fill="#006937"/>
<path d="M165.183 25.2133C165.801 25.8294 166.602 26.1375 167.571 26.1375C168.54 26.1375 169.341 25.8294 169.959 25.2133C170.577 24.5971 170.886 23.813 170.886 22.8608C170.886 21.9085 170.577 21.1244 169.959 20.5082C169.341 19.8921 168.54 19.584 167.571 19.584C166.602 19.584 165.801 19.8921 165.183 20.5082C164.565 21.1244 164.256 21.9085 164.256 22.8608C164.256 23.813 164.565 24.5971 165.183 25.2133ZM167.571 25.4513C166.826 25.4513 166.222 25.2133 165.745 24.7232C165.267 24.2331 165.029 23.6169 165.029 22.8608C165.029 22.1046 165.267 21.4885 165.745 20.9983C166.236 20.5082 166.84 20.2702 167.571 20.2702C168.315 20.2702 168.919 20.5082 169.397 20.9983C169.874 21.4885 170.113 22.1046 170.113 22.8608C170.113 23.6309 169.874 24.2471 169.397 24.7372C168.933 25.2133 168.315 25.4513 167.571 25.4513Z" fill="#006937"/>
<path d="M174.704 26.0114V20.8163L177.247 24.219H177.289L179.747 20.8163V26.0114H180.477V19.7101H179.817L177.289 23.2248L174.662 19.7101H173.974V26.0114H174.704Z" fill="#006937"/>
<path d="M182.186 25.2133C182.804 25.8294 183.605 26.1375 184.574 26.1375C185.543 26.1375 186.344 25.8294 186.962 25.2133C187.58 24.5971 187.889 23.813 187.889 22.8608C187.889 21.9085 187.58 21.1244 186.962 20.5082C186.344 19.8921 185.543 19.584 184.574 19.584C183.605 19.584 182.804 19.8921 182.186 20.5082C181.568 21.1244 181.259 21.9085 181.259 22.8608C181.259 23.813 181.568 24.5971 182.186 25.2133ZM184.574 25.4513C183.829 25.4513 183.225 25.2133 182.748 24.7232C182.27 24.2331 182.031 23.6169 182.031 22.8608C182.031 22.1046 182.27 21.4885 182.748 20.9983C183.239 20.5082 183.843 20.2702 184.574 20.2702C185.318 20.2702 185.922 20.5082 186.4 20.9983C186.877 21.4885 187.116 22.1046 187.116 22.8608C187.116 23.6309 186.877 24.2471 186.4 24.7372C185.936 25.2133 185.318 25.4513 184.574 25.4513Z" fill="#006937"/>
<path d="M193.583 26.0114V19.7101H189.496L189.398 21.6705C189.271 23.6309 188.892 24.6111 188.456 25.0172C188.176 25.3113 187.979 25.3533 187.768 25.3533L187.824 26.0674C188.386 26.0674 188.779 25.8994 189.215 25.3393C189.664 24.7792 189.973 23.5889 190.1 21.8105L190.184 20.4382H192.853V26.0114H193.583Z" fill="#006937"/>
<path d="M195.282 25.2133C195.9 25.8294 196.7 26.1375 197.669 26.1375C198.639 26.1375 199.439 25.8294 200.057 25.2133C200.675 24.5971 200.984 23.813 200.984 22.8608C200.984 21.9085 200.675 21.1244 200.057 20.5082C199.439 19.8921 198.639 19.584 197.669 19.584C196.7 19.584 195.9 19.8921 195.282 20.5082C194.664 21.1244 194.355 21.9085 194.355 22.8608C194.355 23.813 194.664 24.5971 195.282 25.2133ZM197.669 25.4513C196.925 25.4513 196.321 25.2133 195.843 24.7232C195.366 24.2331 195.127 23.6169 195.127 22.8608C195.127 22.1046 195.366 21.4885 195.843 20.9983C196.335 20.5082 196.939 20.2702 197.669 20.2702C198.414 20.2702 199.018 20.5082 199.495 20.9983C199.973 21.4885 200.212 22.1046 200.212 22.8608C200.212 23.6309 199.973 24.2471 199.495 24.7372C199.032 25.2133 198.414 25.4513 197.669 25.4513Z" fill="#006937"/>
<path d="M205.984 19.7101L202.922 22.7627L206.195 26.0114H207.178L203.807 22.7207L206.925 19.7101H205.984ZM202.501 26.0114V19.7101H201.77V26.0114H202.501Z" fill="#006937"/>
<path d="M207.767 20.7603C208.371 20.4382 208.961 20.2702 209.537 20.2702C210.478 20.3262 210.899 20.5503 211.054 21.2364C211.18 21.6985 211.194 22.0206 211.194 22.7347C210.759 22.4127 210.183 22.2586 209.481 22.2586C208.778 22.2586 208.203 22.4267 207.753 22.7767C207.304 23.1268 207.079 23.6029 207.079 24.219C207.079 25.3533 207.851 26.0955 209.031 26.0955C209.958 26.0955 210.675 25.7454 211.194 25.0452V26.0114H211.925V22.1046C211.925 20.4242 211.265 19.584 209.579 19.584C208.863 19.584 208.188 19.7801 207.57 20.1582L207.767 20.7603ZM209.256 25.4093C208.455 25.4093 207.851 24.9472 207.851 24.177C207.851 23.3229 208.638 22.8608 209.551 22.8608C210.183 22.8608 210.731 23.0288 211.194 23.3649V24.4151C210.689 25.0732 210.043 25.4093 209.256 25.4093Z" fill="#006937"/>
<path d="M115.765 41.0147C115.933 41.0147 116.256 41.0147 116.748 41.0287C117.239 41.0427 117.647 41.0567 117.97 41.0567C120.344 41.0567 121.734 39.9785 121.734 38.004C121.734 36.2257 120.484 35.1754 118.195 35.1754C117.661 35.1754 117.113 35.2034 116.537 35.2594V31.9407H121.186V31.2126H115.765V41.0147ZM118.167 35.9036C120.007 35.9036 120.962 36.7018 120.962 38.046C120.962 39.5164 119.978 40.3285 118.082 40.3285C117.984 40.3285 117.464 40.3145 116.537 40.2865V35.9876C117.029 35.9316 117.563 35.9036 118.167 35.9036Z" fill="#006937"/>
<path d="M127.885 39.6844C127.394 40.2025 126.705 40.4546 125.835 40.4546C124.318 40.4546 123.306 39.5304 123.25 38.018H128.461C128.489 37.85 128.503 37.654 128.503 37.4299C128.503 36.5757 128.236 35.8896 127.689 35.3715C127.141 34.8534 126.467 34.5873 125.638 34.5873C124.641 34.5873 123.854 34.8954 123.278 35.5115C122.716 36.1276 122.435 36.9118 122.435 37.864C122.435 38.8582 122.744 39.6424 123.362 40.2445C123.98 40.8467 124.795 41.1407 125.792 41.1407C126.776 41.1407 127.548 40.8467 128.124 40.2445L127.885 39.6844ZM125.568 35.2734C126.902 35.2734 127.745 36.0856 127.759 37.4159H123.208C123.334 36.1416 124.205 35.2734 125.568 35.2734Z" fill="#006937"/>
<path d="M131.2 41.1407C132.759 41.1407 133.812 40.4266 133.812 39.2643C133.812 38.4941 133.321 37.85 132.436 37.78V37.752C133.194 37.4859 133.574 36.9818 133.574 36.2397C133.574 35.2174 132.759 34.5873 131.298 34.5873C130.245 34.5873 129.458 34.8674 128.924 35.4135L129.219 35.9736C129.795 35.5115 130.455 35.2734 131.2 35.2734C132.197 35.2734 132.801 35.6515 132.801 36.3657C132.801 36.9958 132.225 37.5139 131.509 37.5139H130.512V38.1161H131.579C132.478 38.1161 133.04 38.5081 133.04 39.1663C133.04 39.9645 132.267 40.4546 131.088 40.4546C130.427 40.4546 129.599 40.2025 129.093 39.7404L128.714 40.3005C128.91 40.5386 129.262 40.7486 129.767 40.9027C130.273 41.0567 130.75 41.1407 131.2 41.1407Z" fill="#006937"/>
<path d="M141.194 34.7133L138.132 37.766L141.404 41.0147H142.388L139.017 37.724L142.135 34.7133H141.194ZM137.71 41.0147V34.7133H136.98V41.0147H137.71Z" fill="#006937"/>
<path d="M142.942 40.2165C143.56 40.8326 144.361 41.1407 145.33 41.1407C146.299 41.1407 147.1 40.8326 147.718 40.2165C148.336 39.6004 148.645 38.8162 148.645 37.864C148.645 36.9118 148.336 36.1276 147.718 35.5115C147.1 34.8954 146.299 34.5873 145.33 34.5873C144.361 34.5873 143.56 34.8954 142.942 35.5115C142.324 36.1276 142.015 36.9118 142.015 37.864C142.015 38.8162 142.324 39.6004 142.942 40.2165ZM145.33 40.4546C144.586 40.4546 143.982 40.2165 143.504 39.7264C143.026 39.2363 142.788 38.6202 142.788 37.864C142.788 37.1078 143.026 36.4917 143.504 36.0016C143.996 35.5115 144.6 35.2734 145.33 35.2734C146.074 35.2734 146.678 35.5115 147.156 36.0016C147.634 36.4917 147.872 37.1078 147.872 37.864C147.872 38.6342 147.634 39.2503 147.156 39.7404C146.692 40.2165 146.074 40.4546 145.33 40.4546Z" fill="#006937"/>
<path d="M154.993 41.0147V34.7133H154.263V37.4719H150.161V34.7133H149.431V41.0147H150.161V38.1581H154.263V41.0147H154.993Z" fill="#006937"/>
<path d="M161.121 39.5864C160.629 40.1605 159.969 40.4546 159.155 40.4546C158.396 40.4546 157.764 40.2165 157.272 39.7544C156.781 39.2783 156.528 38.6482 156.528 37.864C156.528 37.1218 156.767 36.5057 157.258 36.0156C157.75 35.5255 158.326 35.2734 159.014 35.2734C159.843 35.2734 160.503 35.4975 161.009 35.9596L161.36 35.3715C160.812 34.8534 159.983 34.5873 158.902 34.5873C158.003 34.5873 157.258 34.9094 156.654 35.5395C156.05 36.1696 155.755 36.9398 155.755 37.864C155.755 38.8582 156.064 39.6424 156.683 40.2445C157.315 40.8467 158.115 41.1407 159.098 41.1407C160.054 41.1407 160.967 40.7766 161.486 40.1185L161.121 39.5864Z" fill="#006937"/>
<path d="M166.745 39.6844C166.253 40.2025 165.565 40.4546 164.694 40.4546C163.177 40.4546 162.166 39.5304 162.11 38.018H167.321C167.349 37.85 167.363 37.654 167.363 37.4299C167.363 36.5757 167.096 35.8896 166.548 35.3715C166.001 34.8534 165.326 34.5873 164.498 34.5873C163.5 34.5873 162.714 34.8954 162.138 35.5115C161.576 36.1276 161.295 36.9118 161.295 37.864C161.295 38.8582 161.604 39.6424 162.222 40.2445C162.84 40.8467 163.655 41.1407 164.652 41.1407C165.635 41.1407 166.408 40.8467 166.984 40.2445L166.745 39.6844ZM164.427 35.2734C165.762 35.2734 166.604 36.0856 166.619 37.4159H162.068C162.194 36.1416 163.065 35.2734 164.427 35.2734Z" fill="#006937"/>
<path d="M168.838 43.8153V40.6086C169.329 40.9587 170.003 41.1407 170.86 41.1407C171.829 41.1407 172.602 40.8186 173.206 40.1885C173.81 39.5444 174.105 38.7322 174.105 37.766C174.105 36.8278 173.838 36.0576 173.304 35.4695C172.77 34.8814 172.054 34.5873 171.155 34.5873C170.256 34.5873 169.329 34.9934 168.838 35.5535V34.7133H168.107V43.8153H168.838ZM170.959 35.2734C172.461 35.2734 173.332 36.2817 173.332 37.808C173.332 38.5782 173.094 39.2223 172.63 39.7124C172.167 40.2025 171.563 40.4546 170.804 40.4546C170.074 40.4546 169.413 40.2585 168.838 39.8804V36.2537C169.273 35.7075 170.116 35.2734 170.959 35.2734Z" fill="#006937"/>
<path d="M174.881 41.0147C175.064 41.0147 175.373 41.0147 175.836 41.0287C176.3 41.0427 176.665 41.0567 176.946 41.0567C178.828 41.0567 179.769 40.4686 179.769 39.2783C179.769 38.4241 179.264 37.92 178.252 37.766V37.738C179.053 37.612 179.531 37.0098 179.531 36.2957C179.531 35.1754 178.66 34.6713 176.918 34.6713C176.609 34.6713 176.23 34.6853 175.78 34.6993C175.345 34.7133 175.036 34.7133 174.881 34.7133V41.0147ZM177.129 38.1161C178.379 38.1161 178.997 38.4801 178.997 39.2083C178.997 39.9785 178.337 40.3706 177.03 40.3706C176.623 40.3706 176.16 40.3565 175.612 40.3425V38.1161H177.129ZM177.002 35.3575C178.168 35.3575 178.758 35.7075 178.758 36.4077C178.758 37.0798 178.196 37.5139 177.283 37.5139H175.612V35.3855C176.075 35.3715 176.539 35.3575 177.002 35.3575Z" fill="#006937"/>
<path d="M180.837 35.7635C181.441 35.4415 182.031 35.2734 182.607 35.2734C183.548 35.3295 183.969 35.5535 184.124 36.2397C184.25 36.7018 184.264 37.0238 184.264 37.738C183.829 37.4159 183.253 37.2619 182.551 37.2619C181.848 37.2619 181.273 37.4299 180.823 37.78C180.374 38.1301 180.149 38.6062 180.149 39.2223C180.149 40.3565 180.921 41.0987 182.101 41.0987C183.028 41.0987 183.745 40.7486 184.264 40.0485V41.0147H184.995V37.1078C184.995 35.4275 184.335 34.5873 182.649 34.5873C181.933 34.5873 181.258 34.7833 180.64 35.1614L180.837 35.7635ZM182.326 40.4126C181.525 40.4126 180.921 39.9505 180.921 39.1803C180.921 38.3261 181.708 37.864 182.621 37.864C183.253 37.864 183.801 38.032 184.264 38.3681V39.4183C183.759 40.0765 183.113 40.4126 182.326 40.4126Z" fill="#006937"/>
<path d="M191.646 41.0147V34.7133H190.916V37.4719H186.814V34.7133H186.084V41.0147H186.814V38.1581H190.916V41.0147H191.646Z" fill="#006937"/>
<path d="M194.445 35.4415V41.0147H195.176V35.4415H197.69V34.7133H191.931V35.4415H194.445Z" fill="#006937"/>
<path d="M198.231 40.2165C198.849 40.8326 199.649 41.1407 200.619 41.1407C201.588 41.1407 202.388 40.8326 203.006 40.2165C203.624 39.6004 203.933 38.8162 203.933 37.864C203.933 36.9118 203.624 36.1276 203.006 35.5115C202.388 34.8954 201.588 34.5873 200.619 34.5873C199.649 34.5873 198.849 34.8954 198.231 35.5115C197.613 36.1276 197.304 36.9118 197.304 37.864C197.304 38.8162 197.613 39.6004 198.231 40.2165ZM200.619 40.4546C199.874 40.4546 199.27 40.2165 198.793 39.7264C198.315 39.2363 198.076 38.6202 198.076 37.864C198.076 37.1078 198.315 36.4917 198.793 36.0016C199.284 35.5115 199.888 35.2734 200.619 35.2734C201.363 35.2734 201.967 35.5115 202.445 36.0016C202.922 36.4917 203.161 37.1078 203.161 37.864C203.161 38.6342 202.922 39.2503 202.445 39.7404C201.981 40.2165 201.363 40.4546 200.619 40.4546Z" fill="#006937"/>
<path d="M204.719 41.0147C204.902 41.0147 205.211 41.0147 205.674 41.0287C206.138 41.0427 206.503 41.0567 206.784 41.0567C208.666 41.0567 209.607 40.4686 209.607 39.2783C209.607 38.4241 209.102 37.92 208.09 37.766V37.738C208.891 37.612 209.369 37.0098 209.369 36.2957C209.369 35.1754 208.498 34.6713 206.756 34.6713C206.447 34.6713 206.068 34.6853 205.618 34.6993C205.183 34.7133 204.874 34.7133 204.719 34.7133V41.0147ZM206.967 38.1161C208.217 38.1161 208.835 38.4801 208.835 39.2083C208.835 39.9785 208.175 40.3706 206.868 40.3706C206.461 40.3706 205.997 40.3565 205.45 40.3425V38.1161H206.967ZM206.84 35.3575C208.006 35.3575 208.596 35.7075 208.596 36.4077C208.596 37.0798 208.034 37.5139 207.121 37.5139H205.45V35.3855C205.913 35.3715 206.377 35.3575 206.84 35.3575Z" fill="#006937"/>
<path d="M115.765 56.0179C115.933 56.0179 116.256 56.0179 116.748 56.0319C117.239 56.0459 117.647 56.06 117.97 56.06C120.344 56.06 121.734 54.9817 121.734 53.0073C121.734 51.2289 120.484 50.1787 118.195 50.1787C117.661 50.1787 117.113 50.2067 116.537 50.2627V46.944H121.186V46.2158H115.765V56.0179ZM118.167 50.9068C120.007 50.9068 120.962 51.705 120.962 53.0493C120.962 54.5196 119.978 55.3318 118.082 55.3318C117.984 55.3318 117.464 55.3178 116.537 55.2898V50.9909C117.029 50.9348 117.563 50.9068 118.167 50.9068Z" fill="#006937"/>
<path d="M127.885 54.6877C127.394 55.2058 126.705 55.4578 125.835 55.4578C124.318 55.4578 123.306 54.5336 123.25 53.0213H128.461C128.489 52.8533 128.503 52.6572 128.503 52.4332C128.503 51.579 128.236 50.8928 127.689 50.3747C127.141 49.8566 126.467 49.5905 125.638 49.5905C124.641 49.5905 123.854 49.8986 123.278 50.5148C122.716 51.1309 122.435 51.9151 122.435 52.8673C122.435 53.8615 122.744 54.6456 123.362 55.2478C123.98 55.8499 124.795 56.144 125.792 56.144C126.776 56.144 127.548 55.8499 128.124 55.2478L127.885 54.6877ZM125.568 50.2767C126.902 50.2767 127.745 51.0889 127.759 52.4192H123.208C123.334 51.1449 124.205 50.2767 125.568 50.2767Z" fill="#006937"/>
<path d="M131.2 56.144C132.759 56.144 133.812 55.4298 133.812 54.2676C133.812 53.4974 133.321 52.8533 132.436 52.7832V52.7552C133.194 52.4892 133.574 51.9851 133.574 51.2429C133.574 50.2207 132.759 49.5905 131.298 49.5905C130.245 49.5905 129.458 49.8706 128.924 50.4167L129.219 50.9769C129.795 50.5148 130.455 50.2767 131.2 50.2767C132.197 50.2767 132.801 50.6548 132.801 51.3689C132.801 51.9991 132.225 52.5172 131.509 52.5172H130.512V53.1193H131.579C132.478 53.1193 133.04 53.5114 133.04 54.1695C133.04 54.9677 132.267 55.4578 131.088 55.4578C130.427 55.4578 129.599 55.2058 129.093 54.7437L128.714 55.3038C128.91 55.5418 129.262 55.7519 129.767 55.9059C130.273 56.06 130.75 56.144 131.2 56.144Z" fill="#006937"/>
<path d="M141.194 49.7166L138.132 52.7692L141.404 56.0179H142.388L139.017 52.7272L142.135 49.7166H141.194ZM137.71 56.0179V49.7166H136.98V56.0179H137.71Z" fill="#006937"/>
<path d="M143.511 58.8186V55.6119C144.002 55.9619 144.676 56.144 145.533 56.144C146.502 56.144 147.275 55.8219 147.879 55.1918C148.483 54.5476 148.778 53.7355 148.778 52.7692C148.778 51.831 148.511 51.0609 147.977 50.4727C147.443 49.8846 146.727 49.5905 145.828 49.5905C144.929 49.5905 144.002 49.9966 143.511 50.5568V49.7166H142.78V58.8186H143.511ZM145.631 50.2767C147.134 50.2767 148.005 51.2849 148.005 52.8112C148.005 53.5814 147.766 54.2256 147.303 54.7157C146.839 55.2058 146.235 55.4578 145.477 55.4578C144.747 55.4578 144.086 55.2618 143.511 54.8837V51.2569C143.946 50.7108 144.789 50.2767 145.631 50.2767Z" fill="#006937"/>
<path d="M149.751 50.7668C150.355 50.4447 150.945 50.2767 151.521 50.2767C152.462 50.3327 152.883 50.5568 153.038 51.2429C153.164 51.705 153.178 52.0271 153.178 52.7412C152.743 52.4192 152.167 52.2651 151.465 52.2651C150.762 52.2651 150.186 52.4332 149.737 52.7832C149.287 53.1333 149.063 53.6094 149.063 54.2256C149.063 55.3598 149.835 56.102 151.015 56.102C151.942 56.102 152.658 55.7519 153.178 55.0517V56.0179H153.909V52.1111C153.909 50.4307 153.248 49.5905 151.563 49.5905C150.847 49.5905 150.172 49.7866 149.554 50.1647L149.751 50.7668ZM151.24 55.4158C150.439 55.4158 149.835 54.9537 149.835 54.1835C149.835 53.3294 150.622 52.8673 151.535 52.8673C152.167 52.8673 152.715 53.0353 153.178 53.3714V54.4216C152.672 55.0797 152.026 55.4158 151.24 55.4158Z" fill="#006937"/>
<path d="M159.914 54.5896C159.422 55.1638 158.762 55.4578 157.948 55.4578C157.189 55.4578 156.557 55.2198 156.065 54.7577C155.574 54.2816 155.321 53.6514 155.321 52.8673C155.321 52.1251 155.56 51.509 156.051 51.0189C156.543 50.5288 157.119 50.2767 157.807 50.2767C158.636 50.2767 159.296 50.5007 159.802 50.9628L160.153 50.3747C159.605 49.8566 158.776 49.5905 157.695 49.5905C156.796 49.5905 156.051 49.9126 155.447 50.5428C154.843 51.1729 154.548 51.9431 154.548 52.8673C154.548 53.8615 154.857 54.6456 155.475 55.2478C156.108 55.8499 156.908 56.144 157.891 56.144C158.846 56.144 159.759 55.7799 160.279 55.1217L159.914 54.5896Z" fill="#006937"/>
<path d="M165.825 50.7668V56.0179H166.555V49.7166H165.825L161.611 54.9677V49.7166H160.88V56.0179H161.611L165.825 50.7668Z" fill="#006937"/>
<path d="M169.351 50.4447V56.0179H170.082V50.4447H172.596V49.7166H166.837V50.4447H169.351Z" fill="#006937"/>
<path d="M177.66 54.6877C177.168 55.2058 176.48 55.4578 175.609 55.4578C174.092 55.4578 173.081 54.5336 173.024 53.0213H178.236C178.264 52.8533 178.278 52.6572 178.278 52.4332C178.278 51.579 178.011 50.8928 177.463 50.3747C176.915 49.8566 176.241 49.5905 175.412 49.5905C174.415 49.5905 173.628 49.8986 173.053 50.5148C172.491 51.1309 172.21 51.9151 172.21 52.8673C172.21 53.8615 172.519 54.6456 173.137 55.2478C173.755 55.8499 174.569 56.144 175.567 56.144C176.55 56.144 177.323 55.8499 177.898 55.2478L177.66 54.6877ZM175.342 50.2767C176.676 50.2767 177.519 51.0889 177.533 52.4192H172.982C173.109 51.1449 173.98 50.2767 175.342 50.2767Z" fill="#006937"/>
<path d="M183.931 56.0179V49.7166H179.843L179.745 51.677C179.618 53.6374 179.239 54.6176 178.804 55.0237C178.523 55.3178 178.326 55.3598 178.115 55.3598L178.172 56.074C178.733 56.074 179.127 55.9059 179.562 55.3458C180.012 54.7857 180.321 53.5954 180.447 51.817L180.531 50.4447H183.2V56.0179H183.931Z" fill="#006937"/>
<path d="M190.152 54.6877C189.66 55.2058 188.972 55.4578 188.101 55.4578C186.584 55.4578 185.573 54.5336 185.517 53.0213H190.728C190.756 52.8533 190.77 52.6572 190.77 52.4332C190.77 51.579 190.503 50.8928 189.955 50.3747C189.407 49.8566 188.733 49.5905 187.904 49.5905C186.907 49.5905 186.12 49.8986 185.545 50.5148C184.983 51.1309 184.702 51.9151 184.702 52.8673C184.702 53.8615 185.011 54.6456 185.629 55.2478C186.247 55.8499 187.062 56.144 188.059 56.144C189.042 56.144 189.815 55.8499 190.39 55.2478L190.152 54.6877ZM187.834 50.2767C189.168 50.2767 190.011 51.0889 190.025 52.4192H185.474C185.601 51.1449 186.472 50.2767 187.834 50.2767Z" fill="#006937"/>
<path d="M196.458 50.7668V56.0179H197.189V49.7166H196.458L192.244 54.9677V49.7166H191.514V56.0179H192.244L196.458 50.7668ZM192.483 46.4399C192.483 47.4901 193.228 48.2323 194.45 48.2323C195.573 48.2323 196.36 47.4621 196.36 46.4399H195.7C195.7 47.126 195.18 47.6721 194.45 47.6721C193.677 47.6721 193.143 47.126 193.143 46.4399H192.483Z" fill="#006937"/>
<path d="M115.765 71.0212C115.933 71.0212 116.256 71.0212 116.748 71.0352C117.239 71.0492 117.647 71.0632 117.97 71.0632C120.344 71.0632 121.734 69.985 121.734 68.0105C121.734 66.2322 120.484 65.1819 118.195 65.1819C117.661 65.1819 117.113 65.2099 116.537 65.2659V61.9472H121.186V61.2191H115.765V71.0212ZM118.167 65.9101C120.007 65.9101 120.962 66.7083 120.962 68.0526C120.962 69.5229 119.978 70.335 118.082 70.335C117.984 70.335 117.464 70.321 116.537 70.293V65.9941C117.029 65.9381 117.563 65.9101 118.167 65.9101Z" fill="#006937"/>
<path d="M127.885 69.6909C127.394 70.209 126.705 70.4611 125.835 70.4611C124.318 70.4611 123.306 69.5369 123.25 68.0246H128.461C128.489 67.8565 128.503 67.6605 128.503 67.4364C128.503 66.5822 128.236 65.8961 127.689 65.378C127.141 64.8599 126.467 64.5938 125.638 64.5938C124.641 64.5938 123.854 64.9019 123.278 65.518C122.716 66.1341 122.435 66.9183 122.435 67.8705C122.435 68.8647 122.744 69.6489 123.362 70.251C123.98 70.8532 124.795 71.1472 125.792 71.1472C126.776 71.1472 127.548 70.8532 128.124 70.251L127.885 69.6909ZM125.568 65.28C126.902 65.28 127.745 66.0921 127.759 67.4224H123.208C123.334 66.1481 124.205 65.28 125.568 65.28Z" fill="#006937"/>
<path d="M131.2 71.1472C132.759 71.1472 133.812 70.4331 133.812 69.2708C133.812 68.5007 133.321 67.8565 132.436 67.7865V67.7585C133.194 67.4924 133.574 66.9883 133.574 66.2462C133.574 65.2239 132.759 64.5938 131.298 64.5938C130.245 64.5938 129.458 64.8739 128.924 65.42L129.219 65.9801C129.795 65.518 130.455 65.28 131.2 65.28C132.197 65.28 132.801 65.658 132.801 66.3722C132.801 67.0023 132.225 67.5204 131.509 67.5204H130.512V68.1226H131.579C132.478 68.1226 133.04 68.5147 133.04 69.1728C133.04 69.971 132.267 70.4611 131.088 70.4611C130.427 70.4611 129.599 70.209 129.093 69.7469L128.714 70.307C128.91 70.5451 129.262 70.7551 129.767 70.9092C130.273 71.0632 130.75 71.1472 131.2 71.1472Z" fill="#006937"/>
<path d="M138.202 71.0212V61.9472H142.851V61.2191H137.429V71.0212H138.202Z" fill="#006937"/>
<path d="M144.263 71.0212V62.4653L148.111 67.7165H148.238L152.016 62.4233V71.0212H152.789V61.2191H152.044L148.238 66.5962L144.277 61.2191H143.49V71.0212H144.263Z" fill="#006937"/>
<path d="M154.1 66.1201C154.1 67.5765 154.564 68.7807 155.505 69.7329C156.446 70.6711 157.626 71.1472 159.03 71.1472C160.435 71.1472 161.601 70.6711 162.542 69.7189C163.483 68.7527 163.96 67.5624 163.96 66.1201C163.96 64.6638 163.483 63.4596 162.542 62.5214C161.601 61.5691 160.435 61.093 159.03 61.093C157.612 61.093 156.446 61.5691 155.505 62.5354C154.564 63.5016 154.1 64.6918 154.1 66.1201ZM154.915 66.1201C154.915 64.8879 155.308 63.8656 156.095 63.0535C156.881 62.2273 157.864 61.8212 159.03 61.8212C160.196 61.8212 161.165 62.2273 161.952 63.0535C162.752 63.8656 163.146 64.8879 163.146 66.1201C163.146 67.3384 162.752 68.3606 161.98 69.1868C161.207 70.013 160.224 70.4191 159.03 70.4191C157.864 70.4191 156.895 70.013 156.095 69.1868C155.308 68.3606 154.915 67.3384 154.915 66.1201Z" fill="#006937"/>
</svg>
