<svg width="35" height="40" viewBox="0 0 35 40" fill="none" xmlns="http://www.w3.org/2000/svg">
<path d="M13.0333 3.357H13.3333H25C26.0905 3.357 26.9667 4.25324 26.9667 5.34915V10.4256C26.9667 11.1988 27.5828 11.8177 28.3333 11.8177C29.0839 11.8177 29.7 11.1988 29.7 10.4256V5.34915C29.7 2.70689 27.5915 0.572705 25 0.572705H11.6667C11.3057 0.572705 10.9586 0.718255 10.7019 0.978835L13.0333 3.357ZM13.0333 3.357V3.657V12.1177C13.0333 12.8909 12.4172 13.5099 11.6667 13.5099H3.33333H3.03333V13.8099V32.4235C3.03333 33.5195 3.90958 34.4157 5 34.4157H8.33333C9.08384 34.4157 9.7 35.0346 9.7 35.8078C9.7 36.581 9.08384 37.2 8.33333 37.2H5C2.40854 37.2 0.3 35.0659 0.3 32.4235V12.1177C0.3 11.7471 0.445078 11.3925 0.701885 11.1317C0.701887 11.1317 0.701889 11.1317 0.701891 11.1317L10.7019 0.978841L13.0333 3.357ZM26.9254 29.8944L26.9254 29.8943L24.7587 26.9613L24.7 26.8819V26.7831V22.2706C24.7 21.4974 24.0839 20.8785 23.3333 20.8785C22.5828 20.8785 21.9667 21.4974 21.9667 22.2706V27.3471C21.9667 27.6494 22.0633 27.9431 22.2413 28.1841L26.9254 29.8944ZM26.9254 29.8944C27.3809 30.511 27.2566 31.3857 26.6516 31.8464C26.0494 32.305 25.1949 32.1824 24.7413 31.5684C24.7413 31.5684 24.7413 31.5684 24.7413 31.5684L22.2413 28.1841L26.9254 29.8944ZM5.47661 10.2151L4.97379 10.7256H5.69035H10H10.3V10.4256V6.05006V5.31795L9.78626 5.83954L5.47661 10.2151ZM23.3333 18.5863C18.561 18.5863 14.7 22.513 14.7 27.3471C14.7 32.1812 18.561 36.1078 23.3333 36.1078C28.1056 36.1078 31.9667 32.1812 31.9667 27.3471C31.9667 22.513 28.1056 18.5863 23.3333 18.5863ZM11.9667 27.3471C11.9667 20.9666 17.06 15.802 23.3333 15.802C29.6067 15.802 34.7 20.9666 34.7 27.3471C34.7 33.7276 29.6067 38.8921 23.3333 38.8921C17.06 38.8921 11.9667 33.7276 11.9667 27.3471Z" fill="#FF6C4F" stroke="#E9E9E9" stroke-width="0.6"/>
</svg>
