<svg width="50" height="50" viewBox="0 0 50 50" fill="none" xmlns="http://www.w3.org/2000/svg">
<g clip-path="url(#clip0_16_22383)">
<path d="M49.4255 20.6959V19.9579C49.4255 19.0688 49.0399 18.2252 48.3676 17.6433L43.8141 13.7028C43.2564 13.2204 42.5432 12.9547 41.8059 12.9547H30.9836C30.3163 12.9547 29.6563 13.1772 29.1253 13.5813L24.6744 16.9677L18.7914 18.0116C17.9599 18.1587 17.2194 18.65 16.7594 19.3602L16.4527 19.8346C16.066 20.4318 15.8615 21.1237 15.8615 21.8356C15.8615 22.3579 15.9701 22.8653 16.1847 23.3452C16.3991 23.8221 16.7061 24.2404 17.098 24.5889L17.5114 24.956C18.1393 25.5142 18.9477 25.8216 19.7876 25.8216H20.7288C21.0434 26.4211 21.5052 26.9315 22.0665 27.3041H15.1724V13.3972C15.1724 12.8734 14.7479 12.4489 14.2241 12.4489H3.95114C3.52304 12.4489 3.14806 12.7357 3.03595 13.1488L0.0330842 24.212C0.0110632 24.2929 0 24.3765 0 24.4604V32.0455C0 32.5693 0.42451 32.9938 0.948273 32.9938H3.78161C3.75632 33.1754 3.7422 33.3606 3.7422 33.5491C3.7422 35.7558 5.53749 37.551 7.74412 37.551C9.95075 37.551 11.7459 35.7557 11.7459 33.5491C11.7459 33.3606 11.7318 33.1754 11.7065 32.9938H27.8105C27.7852 33.1754 27.7711 33.3606 27.7711 33.5491C27.7711 35.7558 29.5664 37.551 31.773 37.551C33.9797 37.551 35.7749 35.7557 35.7749 33.5491C35.7749 33.3606 35.7607 33.1754 35.7355 32.9938H36.9227C36.8974 33.1754 36.8833 33.3606 36.8833 33.5491C36.8833 35.7558 38.6786 37.551 40.8852 37.551C43.0918 37.551 44.887 35.7557 44.887 33.5491C44.887 33.3606 44.8729 33.1754 44.8476 32.9938H46.4631C46.9868 32.9938 47.4113 32.5693 47.4113 32.0455V28.2524C47.4113 27.7286 46.9868 27.3041 46.4631 27.3041H44.68C45.2413 26.9315 45.7031 26.4211 46.0177 25.8216H46.495C47.6022 25.8216 48.6679 25.2983 49.3454 24.422C49.7675 23.8763 49.9999 23.1957 49.9999 22.5057C50 21.8521 49.7982 21.2224 49.4255 20.6959ZM44.6253 16.913H42.7659L42.2596 14.9437C42.3726 14.9912 42.4789 15.0555 42.573 15.137L44.6253 16.913ZM40.8077 16.913H35.7557L36.227 14.8511H40.2775L40.8077 16.913ZM30.2737 15.0905C30.4765 14.9361 30.7286 14.8511 30.9836 14.8511H34.2815L33.8102 16.913H27.8784L30.2737 15.0905ZM22.169 23.9684C22.169 22.8075 23.1135 21.8632 24.2743 21.8632C25.4351 21.8632 26.3796 22.8076 26.3796 23.9684C26.3796 25.1293 25.4351 26.0738 24.2743 26.0738C23.1135 26.0738 22.169 25.1293 22.169 23.9684ZM4.67635 14.3455H8.21815V21.9528L2.27006 23.2111L4.67635 14.3455ZM7.74412 35.6545C6.58323 35.6545 5.63875 34.71 5.63875 33.5492C5.63875 32.3883 6.58323 31.4439 7.74412 31.4439C8.90502 31.4439 9.84939 32.3883 9.84939 33.5492C9.84939 34.71 8.90491 35.6545 7.74412 35.6545ZM7.74412 29.5472C6.46079 29.5472 5.31749 30.1551 4.58469 31.0972H1.89655V28.4109H3.477C4.00076 28.4109 4.42527 27.9864 4.42527 27.4626C4.42527 26.9388 4.00076 26.5143 3.477 26.5143H1.89655V25.2286L9.36261 23.6492C9.80103 23.5565 10.1146 23.1696 10.1146 22.7214V14.3455H13.2758L13.2753 31.0972H10.9035C10.1706 30.1551 9.02735 29.5472 7.74412 29.5472ZM31.7731 35.6545C30.6121 35.6545 29.6678 34.71 29.6678 33.5492C29.6678 32.3883 30.6123 31.4439 31.7731 31.4439C32.934 31.4439 33.8784 32.3883 33.8784 33.5492C33.8784 34.71 32.9339 35.6545 31.7731 35.6545ZM40.8853 35.6545C39.7243 35.6545 38.7799 34.71 38.7799 33.5492C38.7799 32.3883 39.7244 31.4439 40.8853 31.4439C42.0462 31.4439 42.9906 32.3883 42.9906 33.5492C42.9906 34.71 42.0462 35.6545 40.8853 35.6545ZM45.5149 31.0972H44.0446C43.3118 30.1551 42.1685 29.5472 40.8852 29.5472C39.6019 29.5472 38.4586 30.1551 37.7258 31.0972H34.9325C34.1997 30.1551 33.0564 29.5472 31.773 29.5472C30.4897 29.5472 29.3464 30.1551 28.6136 31.0972H15.1718V29.2007H45.5149V31.0972ZM26.482 27.3041C27.0433 26.9315 27.505 26.4211 27.8197 25.8216H38.9271C39.2417 26.4211 39.7036 26.9315 40.2648 27.3041H26.482ZM40.3671 23.9684C40.3671 22.8075 41.3116 21.8632 42.4724 21.8632C43.6334 21.8632 44.5778 22.8076 44.5778 23.9684C44.5778 25.1293 43.6333 26.0738 42.4724 26.0738C41.3116 26.0738 40.3671 25.1293 40.3671 23.9684ZM47.8452 23.2618C47.5242 23.677 47.0195 23.9249 46.4952 23.9249H46.4734C46.4499 21.7383 44.6646 19.9665 42.4725 19.9665C40.2804 19.9665 38.4952 21.7383 38.4717 23.9249H28.2752C28.2517 21.7383 26.4665 19.9665 24.2744 19.9665C22.0824 19.9665 20.2971 21.7383 20.2737 23.9249H19.7878C19.4129 23.9249 19.0521 23.7876 18.7714 23.5381L18.3581 23.1712C18.2299 23.0571 18.1221 22.9265 18.0326 22.7837H18.8067C19.3304 22.7837 19.7549 22.3592 19.7549 21.8354C19.7549 21.3117 19.3304 20.8872 18.8067 20.8872H18.0317C18.0364 20.8798 18.0404 20.872 18.0452 20.8647L18.3518 20.3904C18.5262 20.1212 18.8067 19.9348 19.1222 19.8791L25.1494 18.8096H46.8169L47.1264 19.0776C47.3822 19.2988 47.5288 19.6198 47.5288 19.9579V21.028C47.5288 21.2653 47.6178 21.4941 47.7782 21.669C47.9879 21.8975 48.1034 22.1946 48.1034 22.5056C48.1035 22.7818 48.0141 23.0433 47.8452 23.2618Z" fill="#FF6C4F"/>
</g>
<defs>
<clipPath id="clip0_16_22383">
<rect width="50" height="50" fill="white"/>
</clipPath>
</defs>
</svg>
