<svg width="41" height="40" viewBox="0 0 41 40" fill="none" xmlns="http://www.w3.org/2000/svg">
<path d="M1 15.3351C1 14.3304 1 13.8281 1.08326 13.4104C1.42519 11.6949 2.76895 10.3539 4.48794 10.0127C4.90654 9.92963 5.4099 9.92963 6.41667 9.92963H20.5H34.5833C35.5902 9.92963 36.0935 9.92963 36.5121 10.0127C38.2311 10.3539 39.5749 11.6949 39.9168 13.4104C40 13.8281 40 14.3304 40 15.3351C40 16.3398 40 16.8421 39.9168 17.2599C39.5749 18.9754 38.2311 20.3164 36.5121 20.6575C36.0935 20.7406 35.5902 20.7406 34.5833 20.7406H20.5H6.41667C5.4099 20.7406 4.90654 20.7406 4.48794 20.6575C2.76895 20.3164 1.42519 18.9754 1.08326 17.2599C1 16.8421 1 16.3398 1 15.3351Z" stroke="#FF6C4F" stroke-width="2" stroke-linejoin="round"/>
<path d="M3.16663 20.7405V29.3893C3.16663 33.4663 3.16663 35.5048 4.43584 36.7714C5.70503 38.0381 7.74778 38.0381 11.8333 38.0381H14H27H29.1666C33.2521 38.0381 35.2948 38.0381 36.5641 36.7714C37.8333 35.5048 37.8333 33.4663 37.8333 29.3893V20.7405" stroke="#FF6C4F" stroke-width="2" stroke-linecap="round" stroke-linejoin="round"/>
<path d="M20.5 9.92963V38.0381" stroke="#FF6C4F" stroke-width="2" stroke-linecap="round" stroke-linejoin="round"/>
<path d="M19.1465 8.24129L14.8578 2.89147C13.2444 0.878887 10.2322 0.71655 8.40596 2.53904C5.67611 5.26325 7.60102 9.92968 11.4616 9.92968H18.3333C19.2065 9.92968 19.6921 8.92174 19.1465 8.24129Z" stroke="#FF6C4F" stroke-width="2" stroke-linecap="round" stroke-linejoin="round"/>
<path d="M21.8535 8.24129L26.1422 2.89147C27.7557 0.878887 30.7678 0.71655 32.5941 2.53904C35.3239 5.26325 33.399 9.92968 29.5384 9.92968H22.6666C21.7935 9.92968 21.3079 8.92174 21.8535 8.24129Z" stroke="#FF6C4F" stroke-width="2" stroke-linecap="round" stroke-linejoin="round"/>
</svg>
