<svg width="43" height="40" viewBox="0 0 43 40" fill="none" xmlns="http://www.w3.org/2000/svg">
<path d="M2.31975 16.7717C1.69814 16.198 2.0358 15.1609 2.87659 15.0614L14.7901 13.6513C15.1327 13.6107 15.4304 13.396 15.5749 13.0833L20.5999 2.21185C20.9545 1.44462 22.0475 1.44446 22.4022 2.21171L27.427 13.083C27.5715 13.3957 27.8674 13.6111 28.2099 13.6516L40.124 15.0614C40.9648 15.1609 41.3016 16.1982 40.6801 16.7719L31.8731 24.901C31.6197 25.1349 31.507 25.4828 31.574 25.8207L33.9115 37.563C34.0766 38.3918 33.1927 39.034 32.4539 38.6213L21.9854 32.7721C21.6844 32.604 21.3187 32.6048 21.0174 32.7729L10.548 38.6197C9.80921 39.0324 8.92379 38.3918 9.0888 37.563L11.4265 25.8213C11.4938 25.4836 11.3813 25.1347 11.1279 24.901L2.31975 16.7717Z" stroke="#FF6C4F" stroke-width="2" stroke-linecap="round" stroke-linejoin="round"/>
</svg>
