<svg width="47" height="43" viewBox="0 0 47 43" fill="none" xmlns="http://www.w3.org/2000/svg">
<path d="M43.7951 1.63635H2.90746C1.854 1.63635 1 2.48859 1 3.53987V32.1303C1 33.1816 1.854 34.0339 2.90746 34.0339H43.7951C44.8485 34.0339 45.7025 33.1816 45.7025 32.1303V3.53987C45.7025 2.48859 44.8485 1.63635 43.7951 1.63635Z" stroke="#FF6C4F" stroke-width="2"/>
<path d="M1 27.871H45.7025" stroke="#FF6C4F" stroke-width="2"/>
<path d="M14.8999 41.5537C16.2755 40.9116 17.3723 39.7951 17.9883 38.4098C18.6043 37.0245 18.698 35.4638 18.2521 34.015" stroke="#FF6C4F" stroke-width="2"/>
<path d="M32.643 41.5537C31.2661 40.9131 30.168 39.7968 29.5518 38.411C28.9356 37.0252 28.8429 35.4637 29.2908 34.015" stroke="#FF6C4F" stroke-width="2"/>
<path d="M9.65906 41.5537H37.0434" stroke="#FF6C4F" stroke-width="2" stroke-linecap="round"/>
<path d="M8.99817 9.51431L11.7366 11.4273L15.1266 6.66846" stroke="#FF6C4F" stroke-width="2"/>
<path d="M8.60156 18.7492L11.3306 20.6527L14.7205 15.8939" stroke="#FF6C4F" stroke-width="2"/>
<path d="M20.1407 9.797H39.8008" stroke="#FF6C4F" stroke-width="2"/>
<path d="M20.1407 19.39H39.8008" stroke="#FF6C4F" stroke-width="2"/>
</svg>
