<svg width="25" height="25" viewBox="0 0 25 25" fill="none" xmlns="http://www.w3.org/2000/svg">
<path d="M23.3594 12.1094C23.2031 11.875 22.9688 11.7188 22.6562 11.7188C20.9375 11.7188 19.2969 12.5 18.2812 13.9062L17.5781 14.8438C16.7187 15.8594 15.3906 16.4062 14.0625 16.4062H11.7188C11.25 16.4062 10.9375 16.0938 10.9375 15.625C10.9375 15.1562 11.25 14.8438 11.7188 14.8438H13.2031C14.4531 14.8438 15.625 13.8281 15.625 12.5781V12.5C15.625 12.1094 15.2344 11.7188 14.8437 11.7188H10.0781C7.26562 11.7188 5 12.9688 3.75 15L1.64063 18.2812C1.48438 18.5156 1.48438 18.8281 1.64063 19.0625L3.98438 22.9688C4.0625 23.125 4.29688 23.2812 4.45312 23.3594C4.53125 23.3594 4.53125 23.3594 4.60938 23.3594C4.76563 23.3594 4.92188 23.2813 5.07813 23.2031C8.04688 21.25 11.4844 20.2344 15 20.2344C17.5781 20.2344 19.9219 18.8281 21.1719 16.5625L23.2812 12.8125C23.4375 12.6562 23.4375 12.3438 23.3594 12.1094Z" fill="#FF6C4F"/>
<path d="M18.5156 6.40625L13.0469 1.71875C12.7344 1.48437 12.3437 1.48437 12.0312 1.71875L6.5625 6.40625C6.25 6.64062 6.17188 7.03125 6.32813 7.26562C6.40625 7.57812 6.71875 7.8125 7.03125 7.8125H7.8125V10.1562C7.8125 10.625 8.125 10.9375 8.59375 10.9375H9.76562C10.3906 10.9375 10.9375 10.3906 10.9375 9.76562C10.9375 9.14062 11.4844 8.59375 12.1094 8.59375H12.8906C13.5156 8.59375 14.0625 9.14062 14.0625 9.76562C14.0625 10.3906 14.6094 10.9375 15.2344 10.9375H16.4062C16.875 10.9375 17.1875 10.625 17.1875 10.1562V7.8125H17.9688C18.2812 7.8125 18.5938 7.57812 18.6719 7.26562C18.8281 7.03125 18.75 6.64062 18.5156 6.40625Z" fill="#FF6C4F"/>
</svg>
