<svg width="27" height="26" viewBox="0 0 27 26" fill="none" xmlns="http://www.w3.org/2000/svg">
<path d="M25.1858 11.388C25.0347 11.1362 23.5432 10.492 23.5432 10.492C23.8026 10.358 23.9799 10.3303 23.9799 9.7762C23.9799 9.17176 23.9769 8.97028 23.574 8.97028H22.2069C22.2014 8.95819 22.1953 8.9456 22.1898 8.93301C21.3073 7.00585 21.1889 6.51877 19.8728 5.86295C18.1073 4.985 14.7975 4.94067 13.4999 4.94067C12.2024 4.94067 8.8926 4.985 7.12864 5.86295C5.81096 6.51776 5.8437 6.85474 4.81162 8.93301C4.81162 8.93855 4.80104 8.95315 4.79147 8.97028H3.42291C3.02297 8.97028 3.01995 9.17176 3.01995 9.7762C3.01995 10.3303 3.19726 10.358 3.45666 10.492C3.45666 10.492 2.01557 11.1866 1.81409 11.388C1.61261 11.5895 1.41113 12.9999 1.41113 15.4176C1.41113 17.8354 1.61261 20.2532 1.61261 20.2532H2.21403C2.21403 20.9584 2.31779 21.0591 2.62001 21.0591H6.64962C6.95184 21.0591 7.05258 20.9584 7.05258 20.2532H19.9473C19.9473 20.9584 20.0481 21.0591 20.3503 21.0591H24.4806C24.6821 21.0591 24.7828 20.908 24.7828 20.2532H25.3873C25.3873 20.2532 25.5888 17.785 25.5888 15.4176C25.5888 13.0503 25.3369 11.6399 25.1858 11.388ZM6.91457 13.6517C5.99718 13.752 5.07512 13.8034 4.15227 13.8058C3.12372 13.8058 3.08846 13.8718 3.01592 13.2296C2.98864 12.9356 2.99726 12.6395 3.04161 12.3476L3.07335 12.194H3.22446C3.8289 12.194 4.39657 12.2197 5.46844 12.5355C6.01361 12.6991 6.52638 12.9557 6.98408 13.294C7.20369 13.4532 7.25406 13.6043 7.25406 13.6043L6.91457 13.6517ZM19.364 17.2783L19.1414 17.8354H7.8585C7.8585 17.8354 7.87815 17.8047 7.60665 17.2723C7.40517 16.8784 7.65702 16.6265 8.05545 16.4835C8.82712 16.2054 11.0822 15.4176 13.4999 15.4176C15.9177 15.4176 18.2176 16.0966 18.9651 16.4835C19.2421 16.6265 19.5862 16.7273 19.364 17.2813V17.2783ZM6.41893 10.4013C6.25622 10.4107 6.09315 10.4119 5.93034 10.4048C6.0618 10.1711 6.13484 9.91069 6.26328 9.63869C6.66624 8.7824 7.12713 7.81328 7.94766 7.40478C9.13337 6.81444 11.5909 6.54849 13.4999 6.54849C15.409 6.54849 17.8665 6.81243 19.0522 7.40478C19.8728 7.81328 20.3316 8.7829 20.7366 9.63869C20.8661 9.91321 20.9381 10.1756 21.0731 10.4109C20.9724 10.4164 20.8565 10.4109 20.58 10.4013H6.41893ZM23.9336 13.2276C23.8258 13.8562 23.9266 13.8058 22.8476 13.8058C21.9248 13.8034 21.0027 13.752 20.0853 13.6517C19.9418 13.626 19.901 13.3837 20.0158 13.294C20.4712 12.9519 20.9847 12.6949 21.5315 12.5355C22.6033 12.2197 23.2068 12.1773 23.8026 12.1985C23.8427 12.2 23.8807 12.2163 23.9094 12.2442C23.9382 12.2721 23.9556 12.3096 23.9583 12.3496C23.9868 12.6428 23.9785 12.9384 23.9336 13.2296V13.2276Z" fill="#FF6C4F"/>
</svg>
