<svg width="48" height="46" viewBox="0 0 48 46" fill="none" xmlns="http://www.w3.org/2000/svg">
<g clip-path="url(#clip0_121_128)">
<path d="M40.7361 30.3886C41.4519 28.3185 40.7951 26.2476 39.0696 25.0786L32.4811 20.6155L33.6186 14.8822C33.9128 12.7588 33.0403 11.0063 31.4716 9.94363C29.9029 8.88097 27.7361 9.03908 26.2948 10.1532L22.0787 13.3364L16.7452 9.72338C14.8137 8.18271 11.9018 8.76515 10.4997 10.8349C8.98968 13.064 9.63668 15.825 11.5681 17.3657L14.3918 19.2785L8.84225 23.4166C7.40094 24.5308 6.68514 26.6009 7.13609 28.3001C7.33214 29.362 8.05764 30.318 8.84199 30.8494C9.46946 31.2744 10.2048 31.5403 11.048 31.6469L20.9113 32.2893L20.4014 34.7312C19.8915 37.1731 21.5974 39.7224 24.1269 40.0423C26.5486 40.5214 29.1077 38.7708 29.4607 36.2226L30.0883 32.9313L36.0495 33.253C38.1574 33.5196 39.9713 32.1933 40.7361 30.3886Z" fill="#FDCA15"/>
</g>
<defs>
<clipPath id="clip0_121_128">
<rect width="36" height="30" fill="white" transform="translate(17.5103 0.485962) rotate(34.1145)"/>
</clipPath>
</defs>
</svg>
