<svg width="24" height="22" viewBox="0 0 24 22" fill="none" xmlns="http://www.w3.org/2000/svg">
<g clip-path="url(#clip0_121_136)">
<path d="M4.69993 15.1L6.79993 14L7.49993 18.8C7.69993 20.1 8.69993 21.2 9.99993 21.5C10.1999 21.5 10.4999 21.6 10.6999 21.6C11.7999 21.6 12.7999 21.1 13.3999 20.1L17.0999 14.3L18.3999 15.4C19.7999 16.5 21.7999 16.3 22.8999 14.9C23.9999 13.5 23.7999 11.5 22.3999 10.4L20.4999 8.89997L22.7999 5.39997C23.5999 4.19997 23.4999 2.59997 22.4999 1.49997C21.4999 0.399973 19.8999 0.0999729 18.5999 0.799973L13.4999 3.39997L10.2999 0.799973C9.49993 -0.100027 7.99993 -0.200027 6.89993 0.399973C5.69993 1.09997 5.09993 2.39997 5.29993 3.69997L5.79993 7.29997L1.79993 9.39997C0.199928 10.2 -0.400071 12.2 0.399929 13.7C1.19993 15.3 3.09993 15.9 4.69993 15.1Z" fill="#B0D0C9"/>
</g>
<defs>
<clipPath id="clip0_121_136">
<rect width="23.7" height="21.6" fill="white"/>
</clipPath>
</defs>
</svg>
