<svg width="25" height="25" viewBox="0 0 25 25" fill="none" xmlns="http://www.w3.org/2000/svg">
<g clip-path="url(#clip0_16_22298)">
<path d="M24.5652 17.3974L20.3825 20.9592V22.2377C20.3825 22.5113 20.1497 22.6993 19.876 22.6993H17.0862C16.8126 22.6993 16.5798 22.5032 16.5798 22.2377V19.3703C16.5798 19.2192 16.6574 19.0598 16.7758 18.9823L21.8857 15.8085L22.3922 9.06888C22.3922 8.48478 22.8538 8.02321 23.4379 8.02321C24.022 8.02321 24.4836 8.48478 24.4836 9.02803L24.99 16.3109C25.0308 16.8991 24.9573 17.087 24.5652 17.3974ZM4.5015 14.8854V14.3012V9.849C4.5015 9.34251 4.57911 8.99532 4.81193 8.49291L7.2913 3.34219C7.56497 2.75809 8.33697 2.25977 8.99459 2.25977H16.0079C16.7023 2.25977 17.4824 2.72133 17.7479 3.34219L20.2273 8.49291C20.4601 8.9994 20.5378 9.38336 20.5378 9.849V14.3053V14.8894C20.5378 15.0855 20.3417 15.2775 20.1497 15.2775H18.1768C17.944 15.2775 17.7888 15.0814 17.7888 14.8894V14.3053V13.6436H7.25046V14.3012V14.8854C7.25046 15.0814 7.0544 15.2734 6.86242 15.2734H4.88954C4.69757 15.2734 4.5015 15.0773 4.5015 14.8854ZM17.944 9.65294C17.2496 9.65294 16.7023 10.237 16.7023 10.8947C16.7023 11.5523 17.2456 12.1364 17.944 12.1364C18.6384 12.1364 19.1857 11.5931 19.1857 10.8947C19.1857 10.1962 18.6384 9.65294 17.944 9.65294ZM6.74805 8.33769H18.2912L16.5879 4.7759C16.2407 4.08151 15.9303 3.92221 15.2319 3.92221H9.77476C9.08037 3.92221 8.76994 4.07334 8.45951 4.7759L6.74805 8.33769ZM5.8576 10.8906C5.8576 11.5482 6.40086 12.1323 7.09933 12.1323C7.7978 12.1323 8.34105 11.5891 8.34105 10.8906C8.34105 10.1921 7.7978 9.64886 7.09933 9.64886C6.40086 9.6489 5.8576 10.233 5.8576 10.8906ZM8.25936 19.0231L3.14949 15.8494L2.643 9.10973C2.67976 8.48886 2.18144 8.0273 1.59733 8.0273C1.01323 8.0273 0.514907 8.48886 0.514907 9.06888L0.00841373 16.3559C-0.0283479 16.94 0.0451754 17.1278 0.433215 17.4383L4.61587 21V22.2786C4.61587 22.5522 4.8487 22.7401 5.12237 22.7401H7.95301C8.22668 22.7401 8.45951 22.5441 8.45951 22.2786V19.4112C8.45134 19.26 8.37373 19.1089 8.25936 19.0231Z" fill="#FF6C4F"/>
</g>
<defs>
<clipPath id="clip0_16_22298">
<rect width="25" height="25" fill="white"/>
</clipPath>
</defs>
</svg>
