<svg width="497" height="602" viewBox="0 0 497 602" fill="none" xmlns="http://www.w3.org/2000/svg">
<path d="M334.2 364.259H127.4L103.2 417.709H358.9L334.2 364.259Z" fill="#B2D3CC"/>
<path d="M325.9 346.478H136.8L144.7 330.695H319.8L325.9 346.478Z" fill="#71AD9F"/>
<path d="M133.4 557.225L125.2 478.103L122.1 463.057C122.1 463.057 126.8 461.9 127.5 460.532C129 457.586 125.5 447.275 125.5 447.275C125.5 447.275 160 428.02 195 381.515C213.7 356.684 232.4 298.499 232.4 298.499C232.4 298.499 253.5 367.205 270.5 384.04C277.1 390.563 288.3 408.345 301.8 420.865C319 436.858 338.2 447.38 338.2 447.38L334.5 452.43L341 464.951H348.5C348.5 464.951 339.7 495.043 338.6 513.561C337.8 527.765 334.9 559.33 334.9 559.33L133.4 557.225Z" fill="#B5BCBB"/>
<path d="M417.9 96.3797C417.9 96.3797 407.5 120.158 396.8 126.366L433.7 138.571L417.9 96.3797Z" fill="#CEB597"/>
<path d="M367.4 188.759V173.503C360.8 177.606 354.3 181.71 347.7 185.918L354.7 191.916C358.9 190.758 363.1 189.706 367.4 188.759Z" fill="#DD8178"/>
<path d="M361.3 197.597L367.4 202.753V196.124C365.4 196.545 363.3 197.071 361.3 197.597Z" fill="#DD8178"/>
<path d="M367.4 165.296V157.405C367.4 157.405 349.4 175.502 337.3 177.08L342 181.184C350.5 175.818 358.9 170.452 367.4 165.296Z" fill="#DD8178"/>
<path d="M302.4 193.704L331.3 221.271L337.4 178.448C337.4 178.343 313 191.916 302.4 193.704ZM314.8 198.018H314.5C313.7 198.018 313.2 197.387 313.1 196.545C313.1 195.809 313.7 195.072 314.5 195.072H314.8C315.6 195.072 316.1 195.704 316.2 196.545C316.2 197.387 315.5 198.018 314.8 198.018ZM325.2 204.226C325.2 205.068 324.6 205.594 323.8 205.699C323.1 205.699 322.4 205.068 322.4 204.226V203.91C322.4 203.069 323 202.543 323.8 202.437C324.5 202.437 325.2 203.069 325.2 203.91V204.226ZM324.1 194.441C322.3 194.441 322.3 191.6 324.1 191.6C325.8 191.495 325.8 194.441 324.1 194.441ZM328.7 212.643C326.9 212.643 326.9 209.802 328.7 209.802C330.5 209.802 330.5 212.643 328.7 212.643ZM330.4 201.701C328.6 201.701 328.6 198.86 330.4 198.86C332.2 198.86 332.2 201.701 330.4 201.701ZM331.3 190.443C329.5 190.443 329.5 187.602 331.3 187.602C333.1 187.602 333.1 190.443 331.3 190.443Z" fill="#47392B"/>
<path d="M302.1 194.546C302.1 194.546 275.8 203.279 265.1 203.069L288.9 235.58L302.1 194.546Z" fill="#CEB597"/>
<path d="M396.6 126.471C396.6 126.471 379.2 152.986 367.4 156.142L402.8 172.24L396.6 126.471Z" fill="#589387"/>
<path d="M46.9 96.3797C46.9 96.3797 57.3 120.158 68 126.366L31.1 138.571L46.9 96.3797Z" fill="#CEB597"/>
<path d="M97.2999 157.405L97.3999 202.753L127.4 177.08C115.3 175.502 97.2999 157.405 97.2999 157.405ZM102.3 168.663C104.1 168.663 104.1 171.504 102.3 171.504C100.5 171.609 100.5 168.663 102.3 168.663ZM102.3 180.868C104.1 180.868 104.1 183.709 102.3 183.709C100.5 183.709 100.5 180.868 102.3 180.868ZM102.9 193.178C101.1 193.178 101.1 190.337 102.9 190.337C104.6 190.337 104.6 193.178 102.9 193.178ZM110.1 174.45C111.9 174.45 111.9 177.291 110.1 177.291C108.3 177.396 108.3 174.45 110.1 174.45ZM110.4 187.707C108.6 187.707 108.6 184.866 110.4 184.866C112.1 184.866 112.1 187.707 110.4 187.707ZM117.3 181.289C115.5 181.289 115.5 178.448 117.3 178.448C119.1 178.448 119.1 181.289 117.3 181.289Z" fill="#DD8178"/>
<path d="M149.2 189.18C138.7 184.656 127.4 178.343 127.4 178.343L128.8 188.023C135.6 187.812 142.4 188.338 149.2 189.18Z" fill="#47392B"/>
<path d="M144 211.17L158.3 197.492C148.8 196.23 139.3 194.967 129.7 195.177L131.2 205.489C135.4 207.488 139.7 209.382 144 211.17Z" fill="#47392B"/>
<path d="M132.4 213.906L133.4 221.271L138.4 216.536C136.4 215.695 134.4 214.748 132.4 213.906Z" fill="#47392B"/>
<path d="M162.7 194.546C162.7 194.546 189 203.279 199.7 203.069L176 235.475L162.7 194.546Z" fill="#CEB597"/>
<path d="M68.1 126.471C68.1 126.471 85.5 152.986 97.3 156.142L62 172.24L68.1 126.471Z" fill="#589387"/>
<path d="M430.3 72.6009C394.5 151.723 318.8 206.225 231.2 206.225C142.9 206.225 66.6 150.776 31.2 70.6018" stroke="black" stroke-width="3.4005" stroke-miterlimit="10" stroke-linecap="round" stroke-linejoin="round"/>
<path d="M153.1 311.757L233.7 148.567L308.2 311.757H153.1Z" fill="#E2EDEB"/>
<path d="M321.1 549.334C321.1 549.334 327.5 542.811 329.9 542.916C337.7 543.232 337 556.173 337 556.173L335 564.064H325.5L321.1 549.334Z" fill="#FFDEB3"/>
<path d="M78.9999 471.685L75.5999 477.892C75.9999 477.998 76.3999 478.208 76.7999 478.419C78.4999 478.524 80.1999 479.26 81.5999 480.944C85.2999 485.047 84.6999 490.939 81.4999 495.043C78.3999 499.146 72.2999 501.356 68.1999 497.252C67.3999 496.41 66.8999 495.464 66.6999 494.411L63.3999 500.619C63.3999 500.619 63.2999 509.562 74.5999 509.878C84.7999 510.194 95.5999 499.883 96.3999 486.31C97.3999 468.844 78.9999 471.685 78.9999 471.685Z" fill="#F49976"/>
<path d="M393 509.247C392.8 507.879 392.5 506.616 392.1 505.354C392.1 505.249 392 505.038 392 504.933C391.2 507.143 389.9 509.036 388 510.089C384.6 511.982 380.1 510.615 378.1 507.143C377.1 505.459 376.7 503.46 376.7 501.461C375 495.148 381.2 489.782 386.8 490.518C386.8 490.518 386.9 490.518 386.9 490.413C385.8 487.362 384.6 484.416 383.5 481.365C383.5 479.786 382.2 478.103 380.3 478.629C375.5 479.892 361.2 489.887 366.7 507.774C370.4 519.979 379.6 522.609 384.9 521.873C386.3 521.662 387.5 521.136 388.6 520.505C388.9 520.4 389.2 520.295 389.5 520.084C390.4 519.768 391.3 519.137 392 518.401C393.7 516.507 395.3 515.244 395.6 512.824C395.7 511.667 393.8 509.563 393 509.247Z" fill="#F49976"/>
<path d="M411.6 528.922C411.6 528.922 393.2 536.813 375.9 538.181C368.3 538.813 364.3 539.339 358.6 538.497C358.9 542.179 356.5 544.81 356.3 548.492C356.5 548.598 357.8 548.387 358 548.492C358.3 548.808 357.4 549.545 357.5 549.965C357.7 550.386 357.8 550.807 357.8 551.333C357.8 552.07 357.6 552.701 357.2 553.227C357.2 553.227 357.2 553.122 357.3 553.122C357 553.543 356.9 553.858 356.6 554.174C356.2 554.595 355.6 555.016 355 555.121C354.8 555.226 354.3 555.226 354.1 555.226C353.9 555.226 353.3 555.121 353.1 555.121C352.8 555.016 352.5 554.911 352.2 554.7C352.1 554.7 352.1 554.595 352 554.595C351.8 554.805 351.5 555.121 351.3 555.226C351 555.437 350.2 555.963 349.5 556.173C347.6 556.804 346 555.437 345.3 553.648C342.9 547.651 344.8 541.127 345 534.92C339.6 533.341 336.6 531.763 336.6 531.763L333.9 572.166C333.9 572.166 370.2 576.69 382.2 577.216C401.6 577.953 430.5 567.957 430.5 567.957L411.6 528.922Z" fill="#416D61"/>
<path d="M31.1 568.273L50.8 527.134C50.8 527.134 61 534.604 87.5 534.604C113.7 534.604 131.4 526.713 131.4 526.713L133.1 572.482C133.1 572.587 65.4 589 31.1 568.273Z" fill="#416D61"/>
<path d="M209.3 498.62C208.6 499.777 207.8 500.83 206.9 501.777C206.2 501.145 205.2 501.04 204.3 501.987C204.1 502.197 204 502.303 203.8 502.513C200.5 505.985 194.7 505.669 190.4 505.669C190.2 505.669 190.1 505.669 189.9 505.669C187.4 504.828 185.1 503.776 182.8 502.303C182.2 501.882 181.5 501.987 180.9 502.303C180.4 501.987 179.9 501.566 179.5 501.145C178.7 500.198 177.9 499.146 176.9 498.41C174.8 496.726 172.3 499.251 174 501.461C175 502.618 176 503.67 177.1 504.617C178.3 505.88 179.5 507.248 181.1 508.089C181.3 508.195 181.6 508.3 181.9 508.405C183.5 510.404 185.6 511.877 188 512.719C190.1 513.561 192.4 513.876 194.7 513.982C196.9 514.087 199.4 514.297 201.4 513.14C202 512.824 206.4 510.615 206.5 509.983C210.6 507.143 209.9 505.143 212.7 500.83C214.3 498.515 210.7 496.41 209.3 498.62Z" fill="#FFDEB3"/>
<path d="M232.7 534.288C228.3 528.186 233.4 491.676 261.9 488.519C286 485.784 301.3 491.36 311.5 509.247C319.4 523.135 321 535.025 321 535.025L316.9 541.443C316.9 541.443 320.7 547.756 316.6 549.65C311.9 551.754 289 556.068 280.2 557.12C265.7 559.014 232.7 534.288 232.7 534.288Z" fill="#609FD8"/>
<path d="M246.7 540.391C242.3 534.288 247.4 497.778 275.9 494.622C282.2 493.885 287.9 493.78 293.1 494.306C284.6 490.203 274.1 489.256 261 490.729C232.4 493.991 227.3 530.395 231.8 536.498C231.8 536.498 263.1 559.961 278.2 559.435C263.3 552.806 246.7 540.391 246.7 540.391Z" fill="#418CC4"/>
<path d="M187.5 39.1423C187.5 39.1423 187 69.3392 195.3 93.8545C198.7 103.85 222.8 126.366 222.8 126.366L227.9 124.262L209.2 59.5541C209.2 59.5541 203.7 50.1899 201 47.77C198.3 45.0344 187.5 39.1423 187.5 39.1423Z" fill="#589387"/>
<path d="M211 47.3491L220.9 3.68451C220.9 3.68451 246 34.4075 245.4 66.6036C244.9 94.2754 239.5 113.846 234.9 123.525C234.2 124.998 228.8 125.63 228.1 124.262C224.4 116.371 219.9 105.954 216.5 100.273C208.3 86.6998 209 59.4489 209 59.4489L218.5 57.9759L211 47.3491Z" fill="#CEB597"/>
<path d="M241.1 86.6998C242.315 86.6998 243.3 85.6635 243.3 84.3851C243.3 83.1067 242.315 82.0703 241.1 82.0703C239.885 82.0703 238.9 83.1067 238.9 84.3851C238.9 85.6635 239.885 86.6998 241.1 86.6998Z" fill="white"/>
<path d="M238.3 99.957C239.515 99.957 240.5 98.9207 240.5 97.6423C240.5 96.3639 239.515 95.3275 238.3 95.3275C237.085 95.3275 236.1 96.3639 236.1 97.6423C236.1 98.9207 237.085 99.957 238.3 99.957Z" fill="white"/>
<path d="M211.1 77.4408C212.315 77.4408 213.3 76.4045 213.3 75.1261C213.3 73.8477 212.315 72.8113 211.1 72.8113C209.885 72.8113 208.9 73.8477 208.9 75.1261C208.9 76.4045 209.885 77.4408 211.1 77.4408Z" fill="white"/>
<path d="M219 20.8347C220.215 20.8347 221.2 19.7983 221.2 18.5199C221.2 17.2415 220.215 16.2052 219 16.2052C217.785 16.2052 216.8 17.2415 216.8 18.5199C216.8 19.7983 217.785 20.8347 219 20.8347Z" fill="white"/>
<path d="M238.7 43.7718C239.915 43.7718 240.9 42.7354 240.9 41.457C240.9 40.1786 239.915 39.1423 238.7 39.1423C237.485 39.1423 236.5 40.1786 236.5 41.457C236.5 42.7354 237.485 43.7718 238.7 43.7718Z" fill="white"/>
<path d="M226.8 18.7303C228.015 18.7303 229 17.694 229 16.4156C229 15.1372 228.015 14.1008 226.8 14.1008C225.585 14.1008 224.6 15.1372 224.6 16.4156C224.6 17.694 225.585 18.7303 226.8 18.7303Z" fill="white"/>
<path d="M234.3 32.3032C235.515 32.3032 236.5 31.2668 236.5 29.9885C236.5 28.7101 235.515 27.6737 234.3 27.6737C233.085 27.6737 232.1 28.7101 232.1 29.9885C232.1 31.2668 233.085 32.3032 234.3 32.3032Z" fill="white"/>
<path d="M270.5 39.9839L276.4 49.769L276.3 38.4057L270.5 39.9839Z" fill="#ADACE5"/>
<path d="M265 45.5604L274.9 69.1288C274.9 69.1288 271.2 84.9112 271.2 83.7538C271.2 82.5964 258.2 52.3995 258.2 52.3995L265 45.5604Z" fill="#ADACE5"/>
<path d="M251.8 64.9201L265 99.2205C265 99.2205 257.9 111.741 257.9 110.689C257.9 109.637 243.3 70.2861 243.3 70.2861L247.7 62.8158L251.8 64.9201Z" fill="#ADACE5"/>
<path d="M305.3 479.681C304.6 479.366 304 479.05 303.3 478.839C305.9 474.631 306.9 469.475 305.7 464.32C305.7 464.214 305.6 464.109 305.6 464.004C304.9 461.584 301.4 460.321 299.6 462.426C299.5 462.636 299.3 462.741 299.2 462.952C299 462.636 298.8 462.321 298.5 462.11C298 461.689 297.5 461.374 297 461.163C296.4 458.428 292.9 457.481 291 459.48C290.8 459.69 290.7 459.795 290.5 460.006C290.8 458.743 291 457.481 291.2 456.218C291.5 454.429 290.9 452.535 289.1 451.799C288.2 451.378 287 451.378 286.1 451.904C286 451.273 285.8 450.642 285.6 450.115C285.5 449.695 285.3 449.274 285 448.853C284.9 448.642 284.9 448.432 284.8 448.222C284.3 446.222 282.3 445.276 280.6 445.591C280.1 443.908 278.6 443.171 277.1 443.382C277 442.54 276.6 441.803 276.1 441.277C274.6 439.699 272.6 440.015 271.1 441.277C270.4 441.909 269.7 442.54 269.1 443.171C269 443.066 268.9 443.066 268.8 442.961C267 441.803 265 442.645 263.9 444.329C262.3 446.538 261.1 448.958 260.1 451.483C258.5 450.642 256.4 450.852 255.5 452.851C254.8 454.324 254.2 455.797 253.5 457.27C252.6 457.375 251.7 457.586 250.8 457.901C248.9 458.638 247.9 460.427 248.3 462.531C248.7 464.635 250.2 466.529 252.1 467.371C252.3 474.42 253.4 481.575 256 488.098C258.3 493.885 262.4 499.146 268.3 500.304C272.4 502.303 277.1 501.882 281.2 499.988C283.1 499.146 284.8 497.989 286.4 496.726C289.5 495.569 292.2 493.254 295 491.255C296.6 489.992 298.5 488.73 300 488.625C302.9 488.309 306.1 487.993 306.9 484.416C307.3 482.417 306.8 480.312 305.3 479.681Z" fill="#FFDEB3"/>
<path d="M227.5 467.792C227.5 465.687 227.2 463.583 226.7 461.689C225.3 457.06 220.7 454.324 216.5 457.165C216.2 457.375 215.9 457.586 215.6 457.901C215.4 457.796 215.2 457.691 215 457.586C214.9 457.165 214.8 456.744 214.8 456.323C213.9 452.22 208.3 451.694 206.4 455.166C205.7 456.534 205 457.796 204.3 459.164C203.1 459.059 202 459.374 201.2 459.901C201 459.795 200.9 459.795 200.7 459.69C200.7 459.69 200.7 459.69 200.7 459.585C200.4 457.691 200 455.797 199.5 454.008C199.1 452.22 197.7 451.062 196.2 450.747C196 450.642 195.9 450.536 195.7 450.431C195.8 450.01 196 449.589 196.1 449.063C196.8 446.538 195.3 443.802 192.9 443.171C190.5 442.435 188 444.013 187.3 446.538C186.3 450.115 183.8 453.693 180.9 455.797C177 458.638 173.6 460.216 168.9 461.163C166.2 461.689 163.6 461.794 161.2 463.267C158.3 465.161 156.4 468.528 156.9 472.106C157.2 474.315 158.4 476.104 159.7 477.787C159.1 478.313 158.5 478.839 157.9 479.471C154.3 482.732 158.1 488.73 162.4 487.572C162.6 487.572 162.7 487.467 162.8 487.467C162.9 487.467 163 487.467 163.1 487.467C163.4 487.572 163.9 487.678 163.8 487.678C164.8 488.098 165.6 488.835 166.2 489.361C168.4 491.255 170.5 493.359 172.8 495.148C174.9 496.726 177.1 498.094 179.5 499.146C179.9 499.672 180.3 500.198 180.9 500.514C183.9 502.092 187 502.934 190.2 503.249C197.8 506.406 206.7 503.249 212.3 497.147C215.5 493.78 217.8 489.571 219.7 485.363C220.6 483.258 221.5 481.154 222.4 479.155C222.6 478.734 222.7 478.419 222.9 477.998C223.9 477.998 224.9 477.472 225.8 476.525C226.4 475.893 226.9 475.157 227.5 474.526C228.8 472.737 229.2 469.58 227.5 467.792Z" fill="#FFDEB3"/>
<path d="M292.7 506.09C292.6 506.616 292.8 507.143 293.4 507.353L295.1 507.879L293.4 510.404C293.2 510.72 293.2 511.246 293.4 511.562C293.6 511.877 294 512.088 294.4 511.982L298 511.036L298.2 512.403C298.3 512.929 298.7 513.245 299.1 513.245H299.2C299.7 513.14 300.1 512.614 300 512.088L299.8 510.509L302.1 509.878C302.5 509.773 302.8 509.352 302.8 508.931C302.8 508.51 302.5 508.089 302.1 507.984L299.3 507.143L299 504.828C298.9 504.407 298.7 504.091 298.3 503.986C297.9 503.881 297.5 504.091 297.3 504.407L296.2 506.196L293.9 505.459C293.4 505.249 292.9 505.564 292.7 506.09Z" fill="white"/>
<path d="M379.5 343.742L385.7 341.848L385.2 352.896C385.1 354.369 386 355.842 387.3 356.368C387.7 356.579 388.2 356.684 388.7 356.684C389.6 356.684 390.5 356.263 391.2 355.526L400.4 345.426L403.5 349.319C404.7 350.897 406.9 351.002 408.4 349.74C409.9 348.477 410 346.162 408.8 344.584L405.2 340.165L411.1 333.747C412.2 332.589 412.4 330.801 411.6 329.328C410.8 327.96 409.2 327.223 407.7 327.749L397.7 330.801L392.6 324.488C391.7 323.33 390.2 322.91 388.9 323.436C387.6 323.962 386.6 325.224 386.6 326.697L386.2 334.273L377.8 336.798C376 337.324 374.9 339.323 375.4 341.322C375.9 343.321 377.6 344.268 379.5 343.742Z" fill="#FFFB76"/>
<path d="M379.5 342.269L385.7 340.375L385.2 351.423C385.1 352.896 386 354.369 387.3 354.895C387.7 355.106 388.2 355.211 388.7 355.211C389.6 355.211 390.5 354.79 391.2 354.053L400.4 343.953L403.5 347.846C404.7 349.424 406.9 349.529 408.4 348.267C409.9 347.004 410 344.689 408.8 343.111L405.2 338.692L411.1 332.274C412.2 331.116 412.4 329.328 411.6 327.855C410.8 326.487 409.2 325.75 407.7 326.276L397.7 329.328L392.6 323.015C391.7 321.857 390.2 321.437 388.9 321.963C387.6 322.489 386.6 323.751 386.6 325.224L386.2 332.8L377.8 335.325C376 335.851 374.9 337.85 375.4 339.849C375.9 341.848 377.6 342.795 379.5 342.269Z" stroke="black" stroke-width="2.7204" stroke-miterlimit="10" stroke-linecap="round" stroke-linejoin="round"/>
<path d="M19 310.073C18.7 308.916 17.8 308.179 16.7 308.179H12.5L11.3 305.233C10.9 304.286 9.99999 303.76 8.99999 303.76C8 303.76 7.1 304.497 6.8 305.444L5.8 308.074H2.4C1.1 308.074 0 309.126 0 310.599C0 311.967 1.1 313.124 2.4 313.124H4.2L3 316.702C2.7 317.649 3 318.806 3.7 319.437C4.1 319.858 4.7 320.069 5.2 320.069C5.6 320.069 6 319.963 6.4 319.753L10.9 317.017L11.4 318.28C11.9 319.543 13.4 320.174 14.6 319.543C15.8 319.016 16.4 317.438 15.8 316.176L15.1 314.492L17.8 312.809C18.8 312.388 19.2 311.23 19 310.073Z" fill="#FFFB76"/>
<path d="M102.9 247.891C102.5 246.418 101.2 245.365 99.8001 245.365H94.1001L92.4001 241.367C91.9001 240.105 90.6001 239.263 89.3001 239.368C88.0001 239.473 86.8001 240.315 86.4001 241.683L85.2 245.365H80.6C78.8 245.365 77.4 246.838 77.3 248.732C77.3 250.626 78.7 252.204 80.5 252.204H82.9001L81.3001 257.044C80.9001 258.412 81.3001 259.885 82.3001 260.832C82.9001 261.358 83.6001 261.569 84.4001 261.569C85.0001 261.569 85.5001 261.463 86.0001 261.148L92.0001 257.465L92.7001 259.149C93.4001 260.832 95.3001 261.674 97.0001 260.937C98.6001 260.201 99.4001 258.202 98.7001 256.413L97.7001 254.098L101.4 251.889C102.6 250.942 103.3 249.364 102.9 247.891Z" fill="#517AE0"/>
<path d="M351.6 245.997L353.7 244.839L354.4 249.89C354.6 251.257 355.6 252.415 356.9 252.731C357.1 252.731 357.4 252.836 357.6 252.836C358.7 252.836 359.7 252.31 360.3 251.257L364 245.155L365.3 246.312C366.7 247.47 368.7 247.259 369.8 245.786C370.9 244.313 370.7 242.209 369.3 241.052L367.4 239.473L369.7 235.791C370.5 234.528 370.4 232.845 369.4 231.687C368.4 230.53 366.8 230.214 365.5 230.951L360.4 233.686L357.2 230.951C356.2 230.109 354.7 230.004 353.6 230.635C352.4 231.372 351.8 232.739 352 234.107L352.5 237.895L348.4 240.105C346.8 240.946 346.2 243.051 347 244.629C348.1 246.207 350 246.838 351.6 245.997Z" fill="#B0D0C9"/>
<path d="M225.9 398.139L227.9 399.086L224.9 402.453C224.1 403.4 223.9 404.767 224.4 405.925C224.5 406.135 224.6 406.346 224.7 406.451C225.3 407.293 226.3 407.713 227.3 407.608L233.5 406.872V408.45C233.5 410.133 234.8 411.501 236.4 411.501C238 411.501 239.3 410.133 239.3 408.45V406.135L243.1 405.714C244.4 405.609 245.5 404.557 245.7 403.084C245.9 401.716 245.2 400.348 244 399.822L239.3 397.613V393.72C239.3 392.457 238.6 391.3 237.4 390.879C236.3 390.458 235 390.774 234.2 391.615L232 394.141L228.2 392.352C226.7 391.615 225 392.352 224.3 393.93C223.7 395.614 224.4 397.402 225.9 398.139Z" fill="white"/>
<path d="M224.3 397.508L226.7 398.665L223 402.874C222 404.031 221.8 405.714 222.4 407.082C222.5 407.293 222.7 407.503 222.8 407.713C223.6 408.66 224.7 409.292 226 409.081L233.6 408.24V410.239C233.6 412.343 235.2 414.026 237.2 414.026C239.2 414.026 240.8 412.343 240.8 410.239V407.503L245.4 406.977C247 406.767 248.3 405.504 248.6 403.821C248.9 402.137 248 400.454 246.5 399.822L240.8 397.087V392.352C240.8 390.774 239.9 389.406 238.5 388.88C237.1 388.354 235.6 388.669 234.6 389.827L231.9 392.983L227.3 390.774C225.5 389.932 223.4 390.774 222.6 392.668C221.7 394.456 222.5 396.666 224.3 397.508Z" stroke="black" stroke-width="2.7204" stroke-miterlimit="10" stroke-linecap="round" stroke-linejoin="round"/>
<path d="M320.9 496.2L321.6 495.99V497.463C321.6 497.883 321.8 498.304 322.2 498.41C322.3 498.41 322.4 498.515 322.6 498.515C322.9 498.515 323.1 498.41 323.3 498.199L324.7 496.621L325 497.042C325.3 497.463 326 497.463 326.4 497.147C326.8 496.831 326.8 496.095 326.5 495.674L326 495.148L326.8 494.201C327.1 493.885 327.1 493.359 326.9 492.938C326.7 492.518 326.2 492.412 325.8 492.518L324.2 493.044L323.4 492.097C323.1 491.781 322.7 491.676 322.4 491.781C322 491.886 321.8 492.307 321.8 492.728V493.885L320.5 494.306C320 494.517 319.7 495.043 319.9 495.569C319.8 496.095 320.4 496.41 320.9 496.2Z" fill="white"/>
<path d="M238.2 436.437C238.1 435.806 237.8 435.07 237.5 434.333C236.2 431.913 234.7 430.335 233.7 429.493C232.4 428.651 230.8 427.81 228.8 427.073C221.5 424.338 218.5 429.598 217.4 434.754C212.7 432.229 207.5 430.861 202.2 430.756C197.9 430.651 193.1 430.861 189.6 433.702C189.4 433.807 187.5 435.806 187 436.753C186.9 436.963 186.6 437.069 186.4 436.858C185.1 435.911 181.2 433.386 177.1 433.071C168.1 432.229 159.2 437.384 153.1 446.749C150.6 442.224 146.1 437.91 139.2 445.486C128.6 457.06 139.7 464.635 147.3 463.057C146.7 470.527 148.3 479.366 154.9 482.943C154.9 483.469 155.1 484.1 155.3 484.732C156.8 489.361 161.4 489.887 164.1 489.466C165.2 490.624 166.7 492.623 173 497.357C176.6 500.093 181.7 502.934 181.6 502.829C183.3 503.67 185 504.407 186.7 505.038C189.3 505.88 192.1 506.511 194.8 506.511C196 506.511 197.2 506.406 198.4 506.196C203.7 505.249 208.3 501.987 212.1 498.094C212.1 498.094 215.5 494.096 215.7 493.885C215.7 493.885 215.8 493.885 215.8 493.78C216.6 492.728 217.4 491.571 218.1 490.518C221.6 485.363 223.7 480.418 224.4 478.734V478.629C224.5 478.734 225.5 478.208 226.7 477.682C228.7 476.735 230.5 474.631 230.5 471.58C230.5 470.738 230.4 470.001 230.2 469.37C231.7 468.002 232.7 466.319 233.3 464.425C233.4 463.162 233.4 461.268 233.1 459.164C233 458.848 233 458.533 232.9 458.112C232.9 458.112 232.9 458.112 232.9 458.007C232.8 457.691 232.8 457.375 232.7 457.06C231.9 453.798 230.8 449.8 230.2 447.801C230.1 447.38 230 447.064 229.9 446.854C229.8 446.643 229.8 446.538 229.8 446.538C229.6 446.012 229.9 445.486 230.4 445.276C230.5 445.276 236.7 443.066 238.2 438.963C238.3 438.752 238.3 438.647 238.4 438.437C238.5 438.121 238.5 437.7 238.5 437.384C238.3 437.069 238.3 436.753 238.2 436.437ZM225 476.104C224.7 476.209 224.4 476.314 224.2 476.419C223.7 476.525 223.4 476.63 223.3 476.63H223.2C223.1 476.63 223 476.735 222.9 476.84C222.8 476.946 222.7 477.051 222.6 477.261C222.6 477.261 222.5 477.472 222.4 477.787C221.7 479.471 219.2 485.047 215.3 490.624C215.1 490.834 214.9 491.15 214.7 491.36C214.7 491.465 214.6 491.465 214.5 491.571C214.3 491.781 214.1 492.097 213.9 492.307C213.7 492.518 213.6 492.728 213.4 492.938C213.4 492.938 213.4 492.938 213.4 493.044C213.3 493.149 213.3 493.254 213.2 493.254C213 493.464 212.9 493.675 212.7 493.885C212.6 493.991 212.5 494.201 212.4 494.306C212.3 494.411 212.2 494.622 212.1 494.727C208.2 499.146 203.4 503.039 197.8 504.091C194.6 504.723 191.3 504.302 188.2 503.355C185.1 502.408 182.1 501.04 179.3 499.357C178.8 499.041 178.3 498.725 177.8 498.41C177.3 498.094 176.8 497.778 176.3 497.463C175.8 497.042 175.2 496.726 174.7 496.305C168.9 492.097 164.9 487.678 164.9 487.572C164.7 487.362 164.5 487.257 164.2 487.257C164.1 487.257 164.1 487.257 164 487.257C163.8 487.257 158.4 488.414 156.9 483.995C156.9 483.89 156.9 483.89 156.8 483.785C155.6 479.576 160.5 477.577 160.7 477.472C161.1 477.366 161.4 476.946 161.3 476.419L161.1 472.947C162.2 472.842 164.3 472.526 167.2 471.895C171.6 470.948 174.4 469.475 180.3 465.267C184.8 462.005 187.6 453.167 188.7 448.853C190.6 452.115 194.6 458.007 199.6 460.848C199.6 460.848 199.7 460.848 199.7 460.953C195.4 461.9 192.3 465.793 191.7 471.264C191.4 473.789 191.9 476.104 192.5 478.419C192.7 479.05 192.9 479.681 193 480.207C193 480.312 193.1 480.628 193.4 481.259C193.7 482.101 194.5 484.205 194.8 485.152C194 485.678 193 485.784 192.1 485.468C191.6 485.258 191.1 485.468 190.9 485.994C190.7 486.52 190.9 487.046 191.4 487.257C191.9 487.467 192.5 487.572 193.1 487.572C194.3 487.572 195.5 487.151 196.4 486.31C197.1 485.784 197 485.363 195.1 480.418C194.9 479.997 194.8 479.576 194.8 479.471C194.6 478.945 194.5 478.419 194.3 477.892C193.7 475.683 193.3 473.579 193.5 471.369C193.9 467.055 196.5 462.741 201.4 462.741C201.4 462.741 201.4 462.741 201.5 462.741C203 462.741 204.2 462.952 205.5 463.162C206.6 463.373 207.7 463.478 209.1 463.583C210 463.688 210.8 463.688 211.6 463.688C211.9 463.688 212.2 463.688 212.6 463.688C212.9 463.688 213.2 463.688 213.6 463.688C213.8 463.688 214.1 463.688 214.3 463.688C214.7 463.688 215.1 463.688 215.4 463.688C215.4 463.688 215.4 463.688 215.5 463.688C215.9 463.688 216.3 463.688 216.7 463.688C217.4 463.688 218 463.688 218.5 463.794C221.2 464.004 221.9 466.214 222 466.214C222.1 466.634 222.5 466.95 222.9 466.95H224.3C226.5 466.95 227.8 468.107 228.1 470.527C228.1 470.843 228.2 471.159 228.2 471.474C228.4 474.105 226.5 475.473 225 476.104Z" fill="black"/>
<path d="M163.3 483.679C163 483.153 162.5 482.522 161.7 481.891C159.7 480.312 158.4 481.049 158.2 481.154L159.2 482.838C159.2 482.838 159.2 482.838 159.1 482.838C159.1 482.838 159.6 482.627 160.5 483.364C160.7 483.574 160.9 483.679 161 483.89C161.7 484.626 161.8 485.258 161.8 485.258C161.9 485.784 162.3 486.099 162.7 486.099C162.8 486.099 162.8 486.099 162.9 486.099C163.4 485.994 163.8 485.468 163.7 484.942C163.8 484.837 163.7 484.311 163.3 483.679Z" fill="black"/>
<path d="M225.2 469.791C224.2 469.475 222.1 469.475 221 471.474C220.8 471.895 220.6 472.211 220.5 472.632C220.3 473.368 220.3 474.105 220.5 474.631C220.6 475.052 220.8 475.473 221 475.683C221.2 475.893 221.5 475.999 221.7 475.999C221.9 475.999 222.1 475.893 222.3 475.788L222.4 475.683C222.7 475.262 222.7 474.736 222.4 474.42C222.3 474.315 221.9 473.684 222.6 472.527C222.7 472.316 222.8 472.211 222.9 472.106C223.5 471.58 224.3 471.685 224.5 471.79C224.8 471.895 225.2 471.79 225.4 471.58C225.5 471.474 225.6 471.264 225.7 471.159C226 470.527 225.8 470.001 225.2 469.791Z" fill="black"/>
<path d="M182.8 476.314C182.4 475.999 181.8 476.104 181.5 476.525C181.5 476.63 180.5 477.892 178 478.103C175.6 478.313 174.8 476.84 174.7 476.84C174.4 476.314 173.9 476.209 173.4 476.525C172.9 476.84 172.8 477.366 173 477.892C173.1 477.998 174.3 480.207 177.5 480.207C177.7 480.207 177.9 480.207 178.1 480.207C181.6 479.892 183 477.787 183 477.682C183.3 477.261 183.2 476.63 182.8 476.314Z" fill="black"/>
<path d="M209.3 470.317C208.8 470.212 208.3 470.527 208.2 471.053C208.2 471.053 208 471.79 207.4 472.421C207.2 472.632 206.8 472.947 206.4 473.158C206.2 473.263 206 473.368 205.7 473.473C205.6 473.473 205.5 473.473 205.4 473.579C203.1 474.105 200.4 472.842 200.4 472.737C199.9 472.527 199.4 472.737 199.1 473.158C198.9 473.684 199.1 474.21 199.5 474.526C199.6 474.631 201.8 475.683 204.1 475.683C204.7 475.683 205.3 475.578 205.9 475.472C206 475.472 206.1 475.472 206.2 475.367C206.4 475.262 206.6 475.157 206.8 475.157C207.1 475.052 207.4 474.841 207.7 474.736C208.7 474.105 209.3 473.263 209.6 472.632C209.9 472.106 210 471.685 210 471.58C210 471.369 210 471.264 210 471.053C209.9 470.633 209.6 470.422 209.3 470.317Z" fill="black"/>
<path d="M202.2 490.834C201.7 490.624 201.2 490.834 200.9 491.36C200.9 491.36 200.9 491.36 200.9 491.465C200.8 491.781 200.6 492.097 200.4 492.412C199.2 494.201 197.2 495.358 194.9 495.464C192.9 495.569 190.8 494.832 188.9 493.464C188.5 493.149 187.9 493.254 187.6 493.675C187.3 494.096 187.4 494.727 187.8 495.043C189.8 496.621 192.2 497.463 194.4 497.463C194.6 497.463 194.8 497.463 195 497.463C195.4 497.463 195.8 497.357 196.2 497.252C198 496.937 199.6 495.99 200.9 494.727C201.5 494.096 202.1 493.359 202.5 492.517C202.6 492.412 202.6 492.202 202.7 492.097C202.8 491.886 202.8 491.781 202.8 491.571C202.7 491.255 202.5 490.939 202.2 490.834Z" fill="black"/>
<path d="M318.6 455.376C318.2 452.43 317.9 450.747 316.5 448.222C315.4 446.223 313.9 444.329 311.6 442.33C309.2 440.12 301.8 434.123 293.9 433.807C293.4 433.176 292.8 432.544 292.2 432.018C291.7 431.282 290.6 430.44 288.7 429.598C287.5 428.967 286.2 428.441 285 428.125C272.8 424.022 262.3 427.81 254.3 435.701C249.4 440.436 245.6 447.38 246.5 448.958C248.3 452.115 251 448.327 251.3 450.431C251.6 452.43 251.3 454.64 251.3 455.797C249.4 456.113 247.5 457.165 246.7 459.901C245.5 464.109 248.5 467.055 250.6 468.318C250.6 469.791 250.8 472.316 251.7 477.998C253.7 490.939 260.1 499.883 266.8 502.092C268.4 502.618 270.1 502.829 271.8 502.829C279.4 502.829 287.8 498.094 287.8 498.094C289.1 497.463 290.4 496.621 291.6 495.779C296.2 492.623 298 490.939 299 489.992C301.3 490.729 305.4 491.045 307.5 487.152C309.2 483.89 307.7 481.049 306 479.366C307.1 479.05 308.2 478.839 308.9 479.471C309.3 479.892 309.8 480.839 310.1 482.101C310.2 482.312 310.3 482.522 310.5 482.732C311 483.048 311.5 482.943 311.8 482.522C318.1 473.894 319.2 465.793 315.1 459.059C313.9 457.165 312.8 455.482 311.6 454.009C311.6 454.009 311.5 453.903 311.4 453.798C311.2 453.588 311.1 453.377 311 453.272C311.5 453.272 311.9 453.167 312.4 453.272C313.3 453.272 313.8 453.903 314.7 454.745C315.5 455.587 316.4 456.428 317.8 456.744C318.1 456.849 318.4 456.744 318.7 456.534C318.6 456.008 318.7 455.692 318.6 455.376ZM305.6 485.994C303.6 489.677 299.1 487.783 298.9 487.678C298.6 487.572 298.2 487.572 297.9 487.888C297.8 487.993 294.6 491.044 289.8 494.201C288.2 495.253 286.4 496.305 284.4 497.252C280.6 498.936 272.8 501.882 267.1 499.883C263.5 498.62 260.1 495.253 257.6 490.624C256.7 488.835 255.9 486.836 255.2 484.942C255 484.416 253.7 479.681 253.4 477.998C252.3 472.211 252.2 467.581 252.2 467.476C252.2 467.055 252 466.74 251.6 466.529C251.4 466.424 247 464.32 248.2 460.216C249.2 456.849 252.8 457.375 253.9 457.691C254.1 457.691 254.2 457.796 254.2 457.796C254.5 457.901 254.8 457.796 255 457.691C255.1 457.586 255.2 457.481 255.3 457.375L255.6 456.849L255.8 456.639C257.4 456.323 258.9 454.85 261.5 450.01C263.4 446.538 266.5 443.803 269.3 442.014C269.8 443.697 270.3 445.696 270.7 447.38C270.8 447.696 270.9 448.011 270.9 448.432C270.9 448.537 271 448.643 271 448.748C271.1 448.958 271.1 449.169 271.1 449.379C272.6 448.642 274.2 447.906 275.8 447.169C276.8 449.274 279.8 454.745 285.8 460.532C293.3 467.897 298.6 469.791 298.8 469.896C299.1 470.001 299.4 469.896 299.6 469.791C299.8 469.58 300 469.37 300 469.054L300.2 466.108C300.8 466.95 301.4 468.002 302.1 469.37C303.4 472.106 303.4 474.526 303.4 474.946L302.7 478.103L302.6 478.734C302.6 478.839 302.6 479.05 302.6 479.155C302.7 479.471 302.8 479.681 303.1 479.892C303.1 479.892 303.2 479.997 303.4 480.102C304.4 480.523 307.3 482.943 305.6 485.994Z" fill="black"/>
<path d="M301.7 483.364C300.4 484.1 300 485.152 299.9 485.258C299.7 485.784 300 486.415 300.5 486.52C300.6 486.52 300.7 486.625 300.8 486.625C301.2 486.625 301.5 486.415 301.7 485.994C301.7 485.994 301.9 485.573 302.6 485.152C302.9 484.942 303.1 484.942 303.2 484.942C303.6 485.258 304.1 485.152 304.4 484.732C304.8 484.311 304.7 483.679 304.3 483.259C304.3 483.259 303.3 482.522 301.7 483.364Z" fill="black"/>
<path d="M251 459.374C250.5 459.374 250 459.69 250 460.321C250 460.848 250.3 461.268 250.7 461.374C250.8 461.374 250.9 461.584 251 461.9C251.2 462.636 251 463.057 251 463.162C250.8 463.583 250.9 464.004 251.2 464.32C251.3 464.425 251.4 464.53 251.5 464.53C252 464.74 252.6 464.53 252.8 464.109C252.9 464.004 253.3 462.952 252.9 461.479C252.3 459.585 251.1 459.374 251 459.374Z" fill="black"/>
<path d="M290 476.946C290 476.946 289 478.103 287 477.577C284.8 476.946 284.2 475.683 284.2 475.578C284 475.052 283.4 474.841 282.9 475.052C282.4 475.262 282.2 475.893 282.4 476.419C282.4 476.525 283.4 478.629 286.5 479.471C287.1 479.681 287.6 479.681 288.1 479.681C290.3 479.681 291.4 478.313 291.5 478.208C291.8 477.787 291.8 477.156 291.4 476.84C291 476.525 290.4 476.525 290 476.946Z" fill="black"/>
<path d="M265 471.58C267.2 471.895 268.5 470.633 268.5 470.633C268.9 470.212 268.9 469.686 268.6 469.265C268.3 468.844 267.6 468.844 267.3 469.16C267.3 469.16 266.2 470.212 264.2 469.37C262.1 468.423 261.7 467.055 261.7 467.055C261.6 466.529 261 466.214 260.5 466.319C260 466.424 259.7 467.055 259.8 467.581C259.8 467.687 260.5 469.896 263.4 471.264C264 471.369 264.5 471.58 265 471.58Z" fill="black"/>
<path d="M269 481.891C269.9 483.048 271.2 483.679 272.6 483.679C272.9 483.679 273.2 483.679 273.5 483.574C274 483.469 274.4 482.943 274.2 482.417C274.1 481.891 273.6 481.47 273.1 481.68C272.2 481.891 271.2 481.47 270.5 480.628C270.2 480.207 269.5 480.207 269.1 480.523C268.7 480.838 268.7 481.47 269 481.891Z" fill="black"/>
<path d="M274.9 489.256C273 490.203 271.1 490.518 269.3 490.098C266.9 489.466 265.2 487.783 264.6 485.468C264.5 484.942 263.9 484.626 263.4 484.732C262.9 484.837 262.6 485.468 262.7 485.994C263.4 489.045 265.7 491.255 268.8 492.097C269.5 492.307 270.2 492.307 270.9 492.307C272.5 492.307 274.1 491.886 275.7 491.044C276.2 490.834 276.4 490.203 276.1 489.677C276 489.256 275.4 489.045 274.9 489.256Z" fill="black"/>
<path d="M230.7 96.3797V122.894" stroke="black" stroke-width="3.4005" stroke-miterlimit="10" stroke-linecap="round" stroke-linejoin="round"/>
<path d="M430.3 246.312C434.056 246.312 437.1 243.109 437.1 239.158C437.1 235.206 434.056 232.003 430.3 232.003C426.544 232.003 423.5 235.206 423.5 239.158C423.5 243.109 426.544 246.312 430.3 246.312Z" fill="#91B4F9"/>
<path d="M443.9 469.16C447.656 469.16 450.7 465.956 450.7 462.005C450.7 458.053 447.656 454.85 443.9 454.85C440.145 454.85 437.1 458.053 437.1 462.005C437.1 465.956 440.145 469.16 443.9 469.16Z" fill="#FF7391"/>
<path d="M316.1 129.838C317.923 129.838 319.4 128.284 319.4 126.366C319.4 124.449 317.923 122.894 316.1 122.894C314.278 122.894 312.8 124.449 312.8 126.366C312.8 128.284 314.278 129.838 316.1 129.838Z" fill="#FFFB76"/>
<path d="M489.7 388.88C493.511 388.88 496.6 385.63 496.6 381.62C496.6 377.61 493.511 374.36 489.7 374.36C485.889 374.36 482.8 377.61 482.8 381.62C482.8 385.63 485.889 388.88 489.7 388.88Z" fill="#517AE0"/>
<path d="M16.4 429.704C20.2108 429.704 23.3 426.453 23.3 422.444C23.3 418.434 20.2108 415.184 16.4 415.184C12.5892 415.184 9.5 418.434 9.5 422.444C9.5 426.453 12.5892 429.704 16.4 429.704Z" fill="#91B4F9"/>
<path d="M99.7 330.59C101.633 330.59 103.2 328.941 103.2 326.908C103.2 324.874 101.633 323.225 99.7 323.225C97.767 323.225 96.2 324.874 96.2 326.908C96.2 328.941 97.767 330.59 99.7 330.59Z" fill="#589387"/>
<path d="M156.6 146.568C160.853 146.568 164.3 142.94 164.3 138.466C164.3 133.992 160.853 130.364 156.6 130.364C152.347 130.364 148.9 133.992 148.9 138.466C148.9 142.94 152.347 146.568 156.6 146.568Z" fill="#FF7391"/>
<path d="M19.4 206.751C21.4987 206.751 23.2 204.961 23.2 202.753C23.2 200.545 21.4987 198.755 19.4 198.755C17.3013 198.755 15.6 200.545 15.6 202.753C15.6 204.961 17.3013 206.751 19.4 206.751Z" fill="#B0D0C9"/>
<path d="M176.3 261.779H285" stroke="white" stroke-width="5.1007" stroke-miterlimit="10" stroke-linecap="round" stroke-linejoin="round"/>
<path d="M336.6 448.958C246.1 393.194 230.5 299.762 230.5 299.762" stroke="black" stroke-width="3.4005" stroke-miterlimit="10" stroke-linecap="round" stroke-linejoin="round"/>
<path d="M229.8 299.762C229.8 299.762 216.4 391.931 125.9 447.696" stroke="black" stroke-width="3.4005" stroke-miterlimit="10" stroke-linecap="round" stroke-linejoin="round"/>
<path d="M369.6 426.442L334.2 453.588C334.2 453.588 335.9 458.954 341 464.32C346.1 469.686 378.7 440.015 378.7 440.015L369.6 426.442Z" stroke="black" stroke-width="3.4005" stroke-miterlimit="10" stroke-linecap="round" stroke-linejoin="round"/>
<path d="M350.5 462.005C350.5 462.005 342.7 532.71 345.1 555.963L357.5 553.753C357.5 553.753 362.2 479.892 360.9 454.85" stroke="black" stroke-width="3.4005" stroke-miterlimit="10" stroke-linecap="round" stroke-linejoin="round"/>
<path d="M177.9 258.517L195.5 224.217L213.1 258.517H177.9Z" fill="#F7AAAE"/>
<path d="M230.8 224.217L213.1 258.517L195.5 224.217H230.8Z" fill="#C7E0D8"/>
<path d="M213.2 258.517L230.8 224.217L248.4 258.517H213.2Z" fill="#ADACE5"/>
<path d="M248.5 258.728L266.1 224.322L283.7 258.728H248.5Z" fill="#F7AAAE"/>
<path d="M266.1 224.217L248.5 258.517L230.8 224.217H266.1Z" fill="#C7E0D8"/>
<path d="M364.7 430.23L236.1 151.828" stroke="black" stroke-width="3.4005" stroke-miterlimit="10" stroke-linecap="round" stroke-linejoin="round"/>
<path d="M348.5 464.425C338.5 486.52 332.3 571.114 334.4 571.429C334.4 571.429 383.8 588.58 430.1 568.168L404.9 515.139" stroke="black" stroke-width="3.4005" stroke-miterlimit="10" stroke-linecap="round" stroke-linejoin="round"/>
<path d="M243.6 121.842L253.8 100.273" stroke="black" stroke-width="3.4005" stroke-miterlimit="10" stroke-linecap="round" stroke-linejoin="round"/>
<path d="M97.3999 429.809L229.7 152.144" stroke="black" stroke-width="3.4005" stroke-miterlimit="10" stroke-linecap="round" stroke-linejoin="round"/>
<path d="M120.5 464.425C130.5 486.52 135.2 572.166 133.1 572.482C133.1 572.482 71.5999 588.895 31.2 568.168L51.6999 525.134L90.2999 444.118" stroke="black" stroke-width="3.4005" stroke-miterlimit="10" stroke-linecap="round" stroke-linejoin="round"/>
<path d="M243.6 123.946C243.6 123.946 254.4 122.368 268.8 89.9615C280.4 63.8679 275.3 35.2492 275.3 35.2492L255.6 55.2402L257 68.4974L248.5 62.3949C248.5 62.3949 247.6 62.6053 245.4 66.7088" stroke="black" stroke-width="3.4005" stroke-miterlimit="10" stroke-linecap="round" stroke-linejoin="round"/>
<path d="M95 429.493L125.9 448.958C125.9 448.958 127.3 456.323 125.9 462.005C124.5 467.687 86.1 445.17 87.5 439.804C88.9 434.438 95 429.493 95 429.493Z" stroke="black" stroke-width="3.4005" stroke-miterlimit="10" stroke-linecap="round" stroke-linejoin="round"/>
<path d="M405.1 515.139C406.3 512.614 407.1 510.299 407.1 509.983C407.1 508.931 382.4 459.059 371.6 446.223" stroke="black" stroke-width="3.4005" stroke-miterlimit="10" stroke-linecap="round" stroke-linejoin="round"/>
<path d="M367.2 449.905C367.2 449.905 398 515.665 399 521.767C399.7 525.766 402.9 519.979 405.1 515.139" stroke="black" stroke-width="3.4005" stroke-miterlimit="10" stroke-linecap="round" stroke-linejoin="round"/>
<path d="M238.2 116.371C238.2 116.371 246.4 92.0658 244.3 59.4489C242.8 35.144 220.2 2.5271 220.2 2.5271C220.2 2.5271 215 17.9938 213 33.0397C212.1 39.5631 211 47.3491 211 47.3491C211.5 48.4012 220.4 60.1854 219.2 59.5541H209C209 59.5541 204.2 89.9615 226.3 120.369" stroke="black" stroke-width="3.4005" stroke-miterlimit="10" stroke-linecap="round" stroke-linejoin="round"/>
<path d="M221.8 124.683C221.8 124.683 181 102.482 187.5 39.1423C187.5 39.1423 200.1 44.1926 206.5 53.4516" stroke="black" stroke-width="3.4005" stroke-miterlimit="10" stroke-linecap="round" stroke-linejoin="round"/>
<path d="M222.7 32.3032C223.915 32.3032 224.9 31.2668 224.9 29.9885C224.9 28.7101 223.915 27.6737 222.7 27.6737C221.485 27.6737 220.5 28.7101 220.5 29.9885C220.5 31.2668 221.485 32.3032 222.7 32.3032Z" fill="white"/>
<path d="M228.5 43.7718C229.715 43.7718 230.7 42.7354 230.7 41.457C230.7 40.1786 229.715 39.1423 228.5 39.1423C227.285 39.1423 226.3 40.1786 226.3 41.457C226.3 42.7354 227.285 43.7718 228.5 43.7718Z" fill="white"/>
<path d="M233.9 53.4516C235.115 53.4516 236.1 52.4152 236.1 51.1368C236.1 49.8584 235.115 48.8221 233.9 48.8221C232.685 48.8221 231.7 49.8584 231.7 51.1368C231.7 52.4152 232.685 53.4516 233.9 53.4516Z" fill="white"/>
<path d="M223.7 53.4516C224.915 53.4516 225.9 52.4152 225.9 51.1368C225.9 49.8584 224.915 48.8221 223.7 48.8221C222.485 48.8221 221.5 49.8584 221.5 51.1368C221.5 52.4152 222.485 53.4516 223.7 53.4516Z" fill="white"/>
<path d="M216.6 67.0245C217.815 67.0245 218.8 65.9881 218.8 64.7097C218.8 63.4313 217.815 62.395 216.6 62.395C215.385 62.395 214.4 63.4313 214.4 64.7097C214.4 65.9881 215.385 67.0245 216.6 67.0245Z" fill="white"/>
<path d="M239.7 65.2358C240.915 65.2358 241.9 64.1994 241.9 62.9211C241.9 61.6427 240.915 60.6063 239.7 60.6063C238.485 60.6063 237.5 61.6427 237.5 62.9211C237.5 64.1994 238.485 65.2358 239.7 65.2358Z" fill="white"/>
<path d="M228.8 65.9723C230.015 65.9723 231 64.9359 231 63.6575C231 62.3791 230.015 61.3428 228.8 61.3428C227.585 61.3428 226.6 62.3791 226.6 63.6575C226.6 64.9359 227.585 65.9723 228.8 65.9723Z" fill="white"/>
<path d="M230.2 87.4363C231.415 87.4363 232.4 86.4 232.4 85.1216C232.4 83.8432 231.415 82.8068 230.2 82.8068C228.985 82.8068 228 83.8432 228 85.1216C228 86.4 228.985 87.4363 230.2 87.4363Z" fill="white"/>
<path d="M219 87.4363C220.215 87.4363 221.2 86.4 221.2 85.1216C221.2 83.8432 220.215 82.8068 219 82.8068C217.785 82.8068 216.8 83.8432 216.8 85.1216C216.8 86.4 217.785 87.4363 219 87.4363Z" fill="white"/>
<path d="M224.7 99.957C225.915 99.957 226.9 98.9207 226.9 97.6423C226.9 96.3639 225.915 95.3275 224.7 95.3275C223.485 95.3275 222.5 96.3639 222.5 97.6423C222.5 98.9207 223.485 99.957 224.7 99.957Z" fill="white"/>
<path d="M223.7 77.0199C224.915 77.0199 225.9 75.9836 225.9 74.7052C225.9 73.4268 224.915 72.3904 223.7 72.3904C222.485 72.3904 221.5 73.4268 221.5 74.7052C221.5 75.9836 222.485 77.0199 223.7 77.0199Z" fill="white"/>
<path d="M236.3 77.0199C237.515 77.0199 238.5 75.9836 238.5 74.7052C238.5 73.4268 237.515 72.3904 236.3 72.3904C235.085 72.3904 234.1 73.4268 234.1 74.7052C234.1 75.9836 235.085 77.0199 236.3 77.0199Z" fill="white"/>
<path d="M216.9 43.7718C218.115 43.7718 219.1 42.7354 219.1 41.457C219.1 40.1786 218.115 39.1423 216.9 39.1423C215.685 39.1423 214.7 40.1786 214.7 41.457C214.7 42.7354 215.685 43.7718 216.9 43.7718Z" fill="white"/>
<path d="M216.4 130.364C216.4 130.364 214.4 124.998 226.9 123.525C236.8 122.368 247.5 123.841 248.3 127.418C249.3 132.048 240.5 128.155 229.6 130.259C219.7 132.363 217.1 132.469 216.4 130.364Z" stroke="black" stroke-width="3.4005" stroke-miterlimit="10" stroke-linecap="round" stroke-linejoin="round"/>
<path d="M245.6 130.049C245.6 130.049 252.2 132.469 248 135.415C247 136.151 241.9 136.467 235.4 135.415C228.9 134.363 221.8 132.574 221.8 132.574" stroke="black" stroke-width="3.4005" stroke-miterlimit="10" stroke-linecap="round" stroke-linejoin="round"/>
<path d="M221.2 132.89C221.2 132.89 214.4 134.994 217.8 139.729C220.2 142.99 222.9 140.676 226.6 140.465C232.4 140.149 239.8 141.412 241.2 141.517C244.9 141.833 251.7 143.622 248.3 136.151" stroke="black" stroke-width="3.4005" stroke-miterlimit="10" stroke-linecap="round" stroke-linejoin="round"/>
<path d="M222.5 152.881C221.1 152.565 218.4 148.567 221.1 147.199C223.8 145.726 244.2 143.306 246.6 144.358C249 145.41 251 153.617 240.8 151.828C236.7 151.092 230.9 151.828 230.9 151.828C230.9 151.828 224.8 153.407 222.5 152.881Z" stroke="black" stroke-width="3.4005" stroke-miterlimit="10" stroke-linecap="round" stroke-linejoin="round"/>
<path d="M313.3 396.561C313.3 396.561 325.9 426.652 354.4 437.7" stroke="black" stroke-width="3.4005" stroke-miterlimit="10" stroke-linecap="round" stroke-linejoin="round"/>
<path d="M152.8 396.561C152.8 396.561 135.1 429.493 111.7 439.804" stroke="black" stroke-width="3.4005" stroke-miterlimit="10" stroke-linecap="round" stroke-linejoin="round"/>
<path d="M210.1 484.205C213.027 484.205 215.4 483.169 215.4 481.891C215.4 480.612 213.027 479.576 210.1 479.576C207.173 479.576 204.8 480.612 204.8 481.891C204.8 483.169 207.173 484.205 210.1 484.205Z" fill="#F9BFA0"/>
<path d="M178.563 488.5C181.435 487.903 183.572 486.402 183.337 485.148C183.101 483.894 180.582 483.361 177.71 483.958C174.839 484.555 172.701 486.055 172.937 487.31C173.172 488.564 175.691 489.097 178.563 488.5Z" fill="#F9BFA0"/>
<path d="M234 182.551H233.2C231.3 182.551 229.7 180.868 229.7 178.869V156.142C229.7 154.143 231.3 152.46 233.2 152.46H234C235.9 152.46 237.5 154.143 237.5 156.142V178.869C237.5 180.973 235.9 182.551 234 182.551Z" fill="white" stroke="black" stroke-width="3.0415" stroke-miterlimit="10" stroke-linecap="round" stroke-linejoin="round"/>
<path d="M320.5 549.334C320.5 549.334 290.1 551.333 279.4 555.752C268.6 560.277 258.5 566.169 260 577.532C261.9 591.736 281.8 587.527 299.8 580.794C313.7 575.533 325.6 563.959 325.6 563.959L320.5 549.334Z" fill="#447091"/>
<path d="M305.5 572.271C287.5 579.11 267.6 583.319 265.7 569.01C265.2 565.643 265.8 562.802 267.1 560.277C261.4 564.17 257.6 569.22 258.6 576.48C260.5 590.684 280.4 586.475 298.4 579.742C312.3 574.481 324.2 562.907 324.2 562.907L323.8 561.75C319 565.327 312.5 569.536 305.5 572.271Z" fill="#346584"/>
<path d="M103.2 453.588C103.2 453.588 103.2 492.412 96.4 521.031" stroke="black" stroke-width="3.4005" stroke-miterlimit="10" stroke-linecap="round" stroke-linejoin="round"/>
<path d="M122.9 529.659C120.9 529.343 82.4001 542.179 50.8 527.134" stroke="black" stroke-width="3.4005" stroke-miterlimit="10" stroke-linecap="round" stroke-linejoin="round"/>
<path d="M359.6 538.286C359.6 538.286 382.7 542.179 411.6 529.027" stroke="black" stroke-width="3.4005" stroke-miterlimit="10" stroke-linecap="round" stroke-linejoin="round"/>
<path d="M336.1 533.552L343.9 535.025" stroke="black" stroke-width="3.4005" stroke-miterlimit="10" stroke-linecap="round" stroke-linejoin="round"/>
<path d="M258.4 577.637C258.4 577.637 260.7 589.842 280.1 586.475C302.5 582.582 325.4 564.064 325.4 564.064L320.1 549.755L279.3 555.858" stroke="black" stroke-width="2.7204" stroke-miterlimit="10" stroke-linecap="round" stroke-linejoin="round"/>
<path d="M316.7 542.495C316.7 542.495 317.4 546.388 317.4 548.598" stroke="black" stroke-width="2.7204" stroke-miterlimit="10" stroke-linecap="round" stroke-linejoin="round"/>
<path d="M284.4 491.781C286.664 491.781 288.5 489.85 288.5 487.467C288.5 485.085 286.664 483.153 284.4 483.153C282.136 483.153 280.3 485.085 280.3 487.467C280.3 489.85 282.136 491.781 284.4 491.781Z" fill="#F9BFA0"/>
<path d="M258.6 480.312C260.864 480.312 262.7 478.381 262.7 475.999C262.7 473.616 260.864 471.685 258.6 471.685C256.336 471.685 254.5 473.616 254.5 475.999C254.5 478.381 256.336 480.312 258.6 480.312Z" fill="#F9BFA0"/>
<path d="M218.8 141.833C218.8 141.833 216.4 145.726 220.2 146.883" stroke="black" stroke-width="3.4005" stroke-miterlimit="10" stroke-linecap="round" stroke-linejoin="round"/>
<path d="M140.9 547.545C140.9 547.545 143.6 523.241 155.5 511.772C167.4 500.304 172.8 498.515 172.8 498.515C172.8 498.515 178.9 511.036 190.8 513.561C202.7 516.086 212.2 509.668 213.2 496.411C213.2 496.411 240.4 506.09 249.2 530.08C258 554.069 256.7 556.91 256.7 556.91L204.3 577.637L140.9 547.545Z" fill="#ED8EA9"/>
<path d="M188.2 548.598C188.2 548.598 207.6 548.598 211.3 539.654C214.3 532.605 210.9 525.24 214.7 523.872C219.8 522.083 229.3 539.759 229.3 539.759L235.8 552.806L210 574.586L186.5 561.75L188.2 548.598Z" fill="#D36A8D" stroke="#D36A8D" stroke-width="0.255" stroke-miterlimit="10"/>
<path d="M233.1 586.896C242.8 584.371 262 577.953 269.5 570.062C277 562.17 283.8 554.7 278.7 546.072C273.6 537.445 243.3 545.757 223.3 556.804C208.8 564.801 193.4 577.532 193.4 577.532L202.6 594.367C202.5 594.367 224.1 589.211 233.1 586.896Z" fill="#E89EB1"/>
<path d="M278.6 545.757C276.4 542.074 269.6 541.443 260.9 542.916C262.8 543.442 264.2 544.389 265 545.757C270.1 554.385 263.3 561.855 255.8 569.746C248.3 577.637 229.1 584.055 219.4 586.581C214.9 587.738 207.3 589.632 200.8 591.21L202.4 594.156C202.4 594.156 224 589.001 233 586.686C242.7 584.161 261.9 577.742 269.4 569.851C276.9 561.96 283.7 554.385 278.6 545.757Z" fill="#D36A8D" stroke="#D36A8D" stroke-width="0.255" stroke-miterlimit="10"/>
<path d="M220.5 577.637C220.5 577.637 229.7 577.953 239.2 577.637C248.7 577.322 254.8 576.901 255.5 582.267C256 585.844 253.1 585.844 253.1 585.844C253.1 585.844 254.1 587.633 253.1 589.106C252.1 590.579 251.1 591.21 251.1 591.21C251.1 591.21 251.8 593.314 250.1 594.472C248.4 595.629 247.7 595.208 247.7 595.208C247.7 595.208 248.7 598.049 245.3 598.47C241.9 598.786 242.2 597.733 242.2 597.733C242.2 597.733 238.1 600.574 235.7 600.574C233.3 600.574 222.1 595.945 220.4 596.26C218.7 596.576 216.7 596.26 216.7 596.26C216.7 596.26 220.8 583.003 220.5 577.637Z" fill="#FFDEB3"/>
<path d="M161.5 580.057C161.5 580.057 157.9 582.267 161.6 585.844C161.6 585.844 159.9 589.106 163.3 591.21C163.3 591.21 162.6 595.103 166.4 595.524C166.4 595.524 166.1 599.101 170.8 598.365C170.8 598.365 179 601.942 186.4 599.417C193.9 596.892 202.4 594.367 202.4 594.367L197 582.162L161.5 580.057Z" fill="#FFDEB3"/>
<path d="M220.5 576.901C220.5 576.901 220.5 579.005 218.8 587.317C217.7 592.578 216.4 595.524 216.4 595.524C216.4 595.524 125.4 579.531 133.8 548.282C142.3 516.402 222 576.375 220.5 576.901Z" fill="#F4B3C1"/>
<path d="M138.2 549.334C138.2 549.334 136.5 546.809 135.8 547.545C135.1 548.282 134.1 554.7 130.7 547.545C128.3 542.495 124.3 535.551 127 534.709C130.4 533.657 133.5 537.971 133.8 538.286C134.1 538.602 133.8 536.182 135.5 536.182C137.2 536.182 137.9 537.971 138.9 538.286C139.9 538.602 140.9 537.55 143.3 538.286C145.7 539.023 151.5 540.812 151.1 541.864C150.8 542.916 149.4 547.545 145 547.545C141.6 547.545 141.3 545.757 141.3 545.757C141.3 545.757 141.3 550.071 138.2 549.334Z" fill="#FFDEB3"/>
<path d="M261.6 538.286C261.8 539.759 261.3 541.548 264 542.179C266.7 542.916 270.1 540.391 270.1 540.391C270.1 540.391 269.9 542.074 271.8 542.916C274.2 543.968 275.5 543.232 275.5 543.232C275.5 543.232 279.9 546.493 283.3 539.339C286.2 533.236 284.7 529.659 283.3 530.08C281.9 530.5 279.3 531.658 278.5 531.868C277.5 532.184 277.2 533.026 275.4 533.657C272.3 534.709 271.7 535.13 271.7 535.13C271.7 535.13 267.6 534.078 266.6 534.393C265.7 534.709 261.3 535.34 261.6 538.286Z" fill="#FFDEB3"/>
<path d="M142.9 537.024C142.9 537.024 145.3 513.245 173.5 497.463C173.5 497.463 176.2 511.456 190.8 513.561C201.7 515.139 207.1 510.404 209.5 506.406C213 500.619 212.9 496.411 212.9 496.411" stroke="black" stroke-width="2.0403" stroke-miterlimit="10" stroke-linecap="round" stroke-linejoin="round"/>
<path d="M254.5 544.705C254.5 544.705 246.3 508.616 213.4 496.411" stroke="black" stroke-width="2.0403" stroke-miterlimit="10" stroke-linecap="round" stroke-linejoin="round"/>
<path d="M133.4 549.65C124.9 577.216 214.3 598.996 216.7 596.155C219.1 593.314 220.4 577.532 220.4 577.532C220.4 577.532 208.2 565.748 195.2 557.12" stroke="black" stroke-width="2.7204" stroke-miterlimit="10" stroke-linecap="round" stroke-linejoin="round"/>
<path d="M261.7 543.126C261.7 543.126 223.2 550.702 209.3 566.484" stroke="black" stroke-width="2.7204" stroke-miterlimit="10" stroke-linecap="round" stroke-linejoin="round"/>
<path d="M212 556.173C205.5 557.646 206.2 550.807 206.2 550.807C206.2 550.807 281 515.034 285.8 515.034C299.4 515.034 298.4 524.714 298.4 524.714L212 556.173Z" fill="#FCF0BE"/>
<path d="M255.5 490.308C255.5 490.308 239.2 496.41 234.4 509.247" stroke="black" stroke-width="2.0403" stroke-miterlimit="10" stroke-linecap="round" stroke-linejoin="round"/>
<path d="M295 493.149C295 493.149 318.1 507.774 321.2 535.025C321.2 535.025 319.6 550.176 280.5 551.754" stroke="black" stroke-width="2.0403" stroke-miterlimit="10" stroke-linecap="round" stroke-linejoin="round"/>
<path d="M320.5 549.65C320.5 549.65 327.6 537.129 335.1 545.757" stroke="black" stroke-width="2.0403" stroke-miterlimit="10" stroke-linecap="round" stroke-linejoin="round"/>
<path d="M220.5 577.637C220.5 577.637 235.7 577.742 238.1 577.637C240.5 577.637 252.2 576.48 253.8 579.742C253.8 579.742 287.1 567.221 278.6 545.02" stroke="black" stroke-width="2.0403" stroke-miterlimit="10" stroke-linecap="round" stroke-linejoin="round"/>
<path d="M253.8 579.741C256.2 584.792 250.7 585.107 250.7 585.107C250.7 585.107 253.8 585.213 253.5 588.264C253.1 591.21 250.7 591.21 250.7 591.21C250.7 591.21 251.4 592.052 250.7 593.84C250 595.524 248 595.208 248 595.208C248 595.208 249 596.05 248 597.418C247 598.786 243.2 598.47 243.2 598.47L241.5 598.259C241.5 598.259 238.8 600.995 236.1 600.679C233.4 600.364 221.8 596.366 220.5 596.366C219.1 596.366 217.5 596.366 217.5 596.366L221.1 577.742" stroke="black" stroke-width="2.0403" stroke-miterlimit="10" stroke-linecap="round" stroke-linejoin="round"/>
<path d="M198 554.384C198 554.384 170.5 538.286 160.9 533.657C150.7 528.712 130.2 514.613 119.1 516.086C115.7 516.507 107.9 524.293 107.9 524.293L150.4 539.654L195.3 557.225" fill="#FCF0BE"/>
<path d="M298 522.504C298 522.504 294.9 511.456 280.3 516.086C275.9 517.454 206.6 551.649 202.4 552.911C199 553.964 195.3 551.859 195.3 551.859C195.3 551.859 127.6 515.034 119.1 516.086C110.3 517.243 108 524.187 108 524.187" stroke="black" stroke-width="2.7204" stroke-miterlimit="10" stroke-linecap="round" stroke-linejoin="round"/>
<path d="M101.8 521.768L195.3 557.225C195.3 557.225 198.4 552.596 202.4 553.332C206.5 554.069 210.2 557.225 210.2 557.225L303 521.768" stroke="black" stroke-width="2.7204" stroke-miterlimit="10" stroke-linecap="round" stroke-linejoin="round"/>
<path d="M222.5 530.711C222.5 530.711 227.9 537.866 228.3 539.654" stroke="black" stroke-width="2.7204" stroke-miterlimit="10" stroke-linecap="round" stroke-linejoin="round"/>
<path d="M171.9 527.134L169.1 536.813" stroke="black" stroke-width="2.7204" stroke-miterlimit="10" stroke-linecap="round" stroke-linejoin="round"/>
<path d="M202.5 594.366C202.5 594.366 195.9 596.471 192 597.628C188.1 598.786 180.4 600.469 177.8 600.153C175.2 599.838 170.5 598.365 170.5 598.365C170.5 598.365 167.9 598.68 167.2 597.628C166.5 596.576 166.1 595.524 166.1 595.524C166.1 595.524 165.4 596.05 164.4 594.682C163.4 593.314 162.7 592.578 163.4 591.526C163.4 591.526 157.3 590.053 161.4 585.844C161.4 585.844 158.3 583.74 160 580.162" stroke="black" stroke-width="2.0403" stroke-miterlimit="10" stroke-linecap="round" stroke-linejoin="round"/>
<path d="M251.4 518.19C251.4 518.19 249.5 522.504 248.2 527.134" stroke="black" stroke-width="2.7204" stroke-miterlimit="10" stroke-linecap="round" stroke-linejoin="round"/>
<path d="M325.6 564.379L333.7 563.959" stroke="black" stroke-width="2.0403" stroke-miterlimit="10" stroke-linecap="round" stroke-linejoin="round"/>
<path d="M211.5 575.007C211 574.796 210.4 574.586 209.9 574.27C208.9 573.849 208 573.323 207.1 572.797C206.7 572.587 206.1 572.692 205.8 573.008L205.7 573.113C205.4 573.534 205.6 574.165 206 574.481C206 574.481 206 574.481 206.1 574.586C207.6 575.533 209.2 576.269 210.8 576.901C210.9 576.901 211 577.006 211.1 577.006C211.5 577.006 211.9 576.795 212 576.375C212 576.269 212.1 576.164 212.1 576.059C212.1 575.533 211.9 575.112 211.5 575.007Z" fill="white"/>
<path d="M201 569.641C200.4 569.325 199.8 568.904 199.2 568.483C197.5 567.431 195.9 566.169 194.4 565.011C193.3 564.17 192.1 563.223 190.9 562.486C188.4 560.697 186.2 559.224 183.6 557.962C182.5 557.436 181.4 556.91 180.2 556.489C180 556.384 179.8 556.278 179.5 556.278C179 556.068 178.4 556.384 178.3 556.91C178.1 557.436 178.4 558.067 178.9 558.172C183.3 559.751 186.2 561.644 189.8 564.17C191 565.011 192.1 565.853 193.3 566.695C195.5 568.273 197.7 569.956 200.1 571.429C200.3 571.535 200.4 571.535 200.6 571.535C200.9 571.535 201.3 571.324 201.5 571.009C201.5 570.903 201.6 570.903 201.6 570.798C201.6 570.377 201.4 569.851 201 569.641Z" fill="white"/>
<path d="M218.1 517.875L220.5 517.98L220.6 519.558C220.6 520.084 221.1 520.505 221.6 520.505C221.6 520.505 221.6 520.505 221.7 520.505C222.2 520.505 222.6 519.979 222.6 519.453L222.5 518.085L226.2 518.19C226.6 518.19 227 517.98 227.1 517.559C227.3 517.138 227.2 516.717 226.9 516.402L224.8 514.297L226.4 513.455C226.9 513.245 227 512.614 226.8 512.088C226.6 511.562 226 511.456 225.5 511.667L223.4 512.824L221.9 511.351C221.6 511.035 221.2 511.035 220.8 511.141C220.4 511.351 220.2 511.667 220.3 512.088L220.4 514.402L217.8 515.875C217.4 516.086 217.2 516.507 217.3 517.033C217.3 517.559 217.7 517.875 218.1 517.875Z" fill="#DB4D7D"/>
<path d="M178.1 522.609C178.2 522.82 178.4 522.925 178.6 522.925C178.9 523.03 179.2 522.925 179.4 522.715L179.8 522.399L180.9 524.188C181.1 524.503 181.4 524.608 181.7 524.608C181.8 524.608 181.8 524.608 181.9 524.608C182.3 524.503 182.6 524.188 182.6 523.767L182.8 522.294L183.4 522.609C183.9 522.82 184.4 522.715 184.7 522.188C184.9 521.662 184.8 521.136 184.3 520.821L183.1 520.189L183.3 519.032C183.4 518.611 183.2 518.19 182.8 517.98C182.5 517.769 182 517.769 181.7 518.085L180.8 518.927L180.6 518.822L179.3 518.085C178.9 517.875 178.4 517.98 178.2 518.295C177.9 518.611 177.9 519.137 178.1 519.558L178.8 520.715L178.2 521.136C177.9 521.557 177.8 522.188 178.1 522.609Z" fill="white"/>
<path d="M194.7 535.761C194.9 536.077 195.2 536.287 195.5 536.287H196.7V537.024C196.7 537.55 197.2 537.971 197.7 537.971C197.7 537.971 197.7 537.971 197.8 537.971C198.3 537.971 198.7 537.445 198.7 536.919V536.393L200.7 536.498C201.1 536.498 201.5 536.287 201.6 535.866C201.8 535.446 201.7 535.025 201.4 534.709L200.7 534.078L200.3 533.657L200.9 533.341C201.4 533.131 201.5 532.5 201.3 531.973C201.1 531.447 200.5 531.342 200 531.553L198.8 532.184L198 531.447C197.7 531.132 197.3 531.132 196.9 531.237C196.5 531.447 196.3 531.763 196.4 532.184L196.5 533.446L195 534.288C194.6 534.499 194.4 534.92 194.5 535.446C194.6 535.656 194.6 535.761 194.7 535.761Z" fill="white"/>
<path d="M284.4 529.764C284.4 529.764 284.5 530.185 284.5 530.711C284.7 532.5 285 536.077 284 538.181C282.6 541.022 280.6 543.547 278.6 543.863C277.2 544.073 276.2 543.547 276.2 543.547C276.2 543.547 273.8 545.336 272.1 544.284C270.5 543.232 269.7 541.443 269.7 541.443C269.7 541.443 268 543.232 265.6 543.547C263.6 543.863 262.1 542.285 261.5 541.759C260.5 540.706 260.1 538.286 261.3 538.076C262.5 537.866 270 534.183 272.4 534.078" stroke="black" stroke-width="2.7204" stroke-miterlimit="10" stroke-linecap="round" stroke-linejoin="round"/>
<path d="M152.1 541.127C152.1 541.127 151.4 545.02 149.7 546.178C148 547.335 144.9 547.861 143.2 547.23C142.2 546.914 141.2 545.757 141.2 545.757C141.2 545.757 141.5 549.334 138.8 549.334C136.8 549.334 136.1 546.809 136.1 546.809C136.1 546.809 135.6 546.704 134.7 547.861C133.3 549.65 130.3 549.65 129.3 546.809C129 546.072 124.9 537.866 125.9 535.761C126.9 533.657 127.9 533.657 129.3 533.973C130.7 534.288 133 537.866 133 537.866C133 537.866 133.4 535.025 134.4 534.604C136.1 533.867 138.5 534.604 138.8 536.708C139.1 538.286 141.2 537.76 141.2 537.76C141.2 537.76 151.8 539.339 152.1 541.127Z" stroke="black" stroke-width="2.7204" stroke-miterlimit="10" stroke-linecap="round" stroke-linejoin="round"/>
<g clip-path="url(#clip0_118_51)">
<path d="M232.9 322.7C235.1 324.5 238.3 324.1 240.1 321.9L264.8 291.4C266.6 289.2 266.2 286 264 284.2C261.8 282.4 258.6 282.8 256.8 285L232.1 315.5C230.4 317.7 230.7 320.9 232.9 322.7Z" fill="black"/>
<g clip-path="url(#clip1_118_51)">
<path d="M232.9 322.7C235.1 324.5 238.3 324.1 240.1 321.9L264.8 291.4C266.6 289.2 266.2 286 264 284.2C261.8 282.4 258.6 282.8 256.8 285L232.1 315.5C230.4 317.7 230.7 320.9 232.9 322.7Z" fill="black"/>
</g>
</g>
<defs>
<clipPath id="clip0_118_51">
<rect width="35" height="40.9" fill="white" transform="translate(231 283)"/>
</clipPath>
<clipPath id="clip1_118_51">
<rect width="35" height="40.9" fill="white" transform="translate(231 283)"/>
</clipPath>
</defs>
</svg>
