<svg width="511" height="632" viewBox="0 0 511 632" fill="none" xmlns="http://www.w3.org/2000/svg">
<path d="M343.891 381.767H131.094L106.192 437.881H369.307L343.891 381.767Z" fill="#B2D3CC"/>
<path d="M335.35 363.098H140.767L148.896 346.529H329.073L335.35 363.098Z" fill="#71AD9F"/>
<path d="M137.268 584.353L128.83 501.286L125.641 485.49C125.641 485.49 130.477 484.275 131.197 482.839C132.741 479.746 129.139 468.921 129.139 468.921C129.139 468.921 164.639 448.706 200.654 399.882C219.897 373.813 239.139 312.728 239.139 312.728C239.139 312.728 260.851 384.859 278.344 402.533C285.135 409.382 296.66 428.05 310.551 441.195C328.25 457.985 348.007 469.031 348.007 469.031L344.199 474.333L350.888 487.478H358.605C358.605 487.478 349.55 519.07 348.418 538.511C347.595 553.424 344.611 586.562 344.611 586.562L137.268 584.353Z" fill="#B5BCBB"/>
<path d="M430.018 100.532C430.018 100.532 419.316 125.496 408.306 132.013L446.276 144.827L430.018 100.532Z" fill="#CEB597"/>
<path d="M378.054 197.517V181.5C371.262 185.808 364.574 190.116 357.782 194.534L364.985 200.831C369.307 199.616 373.629 198.511 378.054 197.517Z" fill="#DD8178"/>
<path d="M371.776 206.796L378.053 212.208V205.249C375.995 205.691 373.834 206.243 371.776 206.796Z" fill="#DD8178"/>
<path d="M378.053 172.884V164.599C378.053 164.599 359.531 183.599 347.081 185.256L351.917 189.564C360.663 183.93 369.307 178.297 378.053 172.884Z" fill="#DD8178"/>
<path d="M311.169 202.708L340.907 231.649L347.184 186.692C347.184 186.581 322.076 200.831 311.169 202.708ZM323.928 207.237H323.62C322.797 207.237 322.282 206.575 322.179 205.691C322.179 204.918 322.797 204.144 323.62 204.144H323.928C324.752 204.144 325.266 204.807 325.369 205.691C325.369 206.575 324.649 207.237 323.928 207.237ZM334.63 213.755C334.63 214.638 334.013 215.191 333.189 215.301C332.469 215.301 331.749 214.638 331.749 213.755V213.423C331.749 212.54 332.366 211.987 333.189 211.877C333.91 211.877 334.63 212.54 334.63 213.423V213.755ZM333.498 203.482C331.646 203.482 331.646 200.499 333.498 200.499C335.247 200.389 335.247 203.482 333.498 203.482ZM338.232 222.592C336.379 222.592 336.379 219.609 338.232 219.609C340.084 219.609 340.084 222.592 338.232 222.592ZM339.981 211.104C338.129 211.104 338.129 208.121 339.981 208.121C341.833 208.121 341.833 211.104 339.981 211.104ZM340.907 199.284C339.055 199.284 339.055 196.302 340.907 196.302C342.759 196.302 342.759 199.284 340.907 199.284Z" fill="#47392B"/>
<path d="M310.86 203.592C310.86 203.592 283.797 212.76 272.787 212.54L297.277 246.672L310.86 203.592Z" fill="#CEB597"/>
<path d="M408.1 132.124C408.1 132.124 390.196 159.96 378.054 163.274L414.48 180.174L408.1 132.124Z" fill="#589387"/>
<path d="M48.26 100.532C48.26 100.532 58.9615 125.496 69.9718 132.013L32.0018 144.827L48.26 100.532Z" fill="#CEB597"/>
<path d="M100.121 164.599L100.224 212.208L131.094 185.256C118.643 183.599 100.121 164.599 100.121 164.599ZM105.266 176.419C107.119 176.419 107.119 179.401 105.266 179.401C103.414 179.512 103.414 176.419 105.266 176.419ZM105.266 189.232C107.119 189.232 107.119 192.215 105.266 192.215C103.414 192.215 103.414 189.232 105.266 189.232ZM105.884 202.156C104.032 202.156 104.032 199.174 105.884 199.174C107.633 199.174 107.633 202.156 105.884 202.156ZM113.293 182.494C115.145 182.494 115.145 185.476 113.293 185.476C111.44 185.587 111.44 182.494 113.293 182.494ZM113.601 196.412C111.749 196.412 111.749 193.43 113.601 193.43C115.351 193.43 115.351 196.412 113.601 196.412ZM120.701 189.674C118.849 189.674 118.849 186.692 120.701 186.692C122.553 186.692 122.553 189.674 120.701 189.674Z" fill="#DD8178"/>
<path d="M153.526 197.959C142.722 193.209 131.094 186.581 131.094 186.581L132.535 196.744C139.532 196.523 146.529 197.075 153.526 197.959Z" fill="#47392B"/>
<path d="M148.176 221.045L162.89 206.685C153.115 205.36 143.34 204.034 133.461 204.255L135.005 215.08C139.326 217.179 143.751 219.167 148.176 221.045Z" fill="#47392B"/>
<path d="M136.239 223.917L137.268 231.649L142.413 226.679C140.355 225.795 138.297 224.801 136.239 223.917Z" fill="#47392B"/>
<path d="M167.418 203.592C167.418 203.592 194.481 212.76 205.491 212.54L181.104 246.562L167.418 203.592Z" fill="#CEB597"/>
<path d="M70.0748 132.124C70.0748 132.124 87.9794 159.96 100.122 163.274L63.798 180.174L70.0748 132.124Z" fill="#589387"/>
<path d="M442.777 75.5673C405.939 158.634 328.044 215.853 237.904 215.853C147.044 215.853 68.5312 157.64 32.1047 73.4686" stroke="black" stroke-width="3.4005" stroke-miterlimit="10" stroke-linecap="round" stroke-linejoin="round"/>
<path d="M157.539 326.646L240.476 155.32L317.137 326.646H157.539Z" fill="#E2EDEB"/>
<path d="M330.411 576.068C330.411 576.068 336.996 569.22 339.466 569.33C347.492 569.661 346.772 583.248 346.772 583.248L344.714 591.533H334.938L330.411 576.068Z" fill="#FFDEB3"/>
<path d="M81.2907 494.548L77.7921 501.065C78.2037 501.175 78.6153 501.396 79.0269 501.617C80.7762 501.728 82.5255 502.501 83.966 504.268C87.7733 508.576 87.1559 514.762 83.8632 519.07C80.6733 523.378 74.3964 525.698 70.1775 521.39C69.3543 520.506 68.8398 519.512 68.634 518.407L65.2383 524.925C65.2383 524.925 65.1354 534.314 76.7631 534.645C87.2588 534.977 98.372 524.151 99.1952 509.902C100.224 491.565 81.2907 494.548 81.2907 494.548Z" fill="#F49976"/>
<path d="M404.396 533.982C404.19 532.546 403.881 531.221 403.47 529.895C403.47 529.785 403.367 529.564 403.367 529.453C402.544 531.773 401.206 533.761 399.251 534.866C395.752 536.854 391.122 535.418 389.064 531.773C388.035 530.006 387.623 527.907 387.623 525.808C385.874 519.181 392.254 513.547 398.016 514.32C398.016 514.32 398.119 514.32 398.119 514.21C396.987 511.006 395.752 507.913 394.62 504.71C394.62 503.053 393.283 501.286 391.328 501.838C386.388 503.164 371.674 513.657 377.333 532.436C381.141 545.249 390.607 548.011 396.061 547.238C397.502 547.017 398.736 546.465 399.868 545.802C400.177 545.691 400.486 545.581 400.794 545.36C401.721 545.029 402.647 544.366 403.367 543.593C405.116 541.604 406.763 540.279 407.071 537.738C407.174 536.523 405.219 534.314 404.396 533.982Z" fill="#F49976"/>
<path d="M423.535 554.639C423.535 554.639 404.601 562.923 386.799 564.359C378.979 565.022 374.863 565.574 368.998 564.691C369.306 568.557 366.837 571.318 366.631 575.185C366.837 575.295 368.175 575.074 368.38 575.185C368.689 575.516 367.763 576.289 367.866 576.731C368.072 577.173 368.175 577.615 368.175 578.167C368.175 578.94 367.969 579.603 367.557 580.155C367.557 580.155 367.557 580.045 367.66 580.045C367.351 580.487 367.248 580.818 366.94 581.149C366.528 581.591 365.911 582.033 365.293 582.144C365.088 582.254 364.573 582.254 364.367 582.254C364.161 582.254 363.544 582.144 363.338 582.144C363.03 582.033 362.721 581.923 362.412 581.702C362.309 581.702 362.309 581.591 362.206 581.591C362.001 581.812 361.692 582.144 361.486 582.254C361.177 582.475 360.354 583.027 359.634 583.248C357.679 583.911 356.032 582.475 355.312 580.597C352.843 574.301 354.798 567.452 355.003 560.935C349.447 559.278 346.36 557.621 346.36 557.621L343.582 600.038C343.582 600.038 380.934 604.788 393.282 605.341C413.245 606.114 442.983 595.62 442.983 595.62L423.535 554.639Z" fill="#416D61"/>
<path d="M32.0018 595.951L52.2731 552.761C52.2731 552.761 62.7688 560.604 90.0373 560.604C116.997 560.604 135.21 552.319 135.21 552.319L136.96 600.37C136.96 600.48 67.2964 617.712 32.0018 595.951Z" fill="#416D61"/>
<path d="M215.369 522.826C214.649 524.041 213.825 525.145 212.899 526.14C212.179 525.477 211.15 525.366 210.224 526.36C210.018 526.581 209.915 526.692 209.709 526.913C206.314 530.558 200.346 530.227 195.921 530.227C195.715 530.227 195.612 530.227 195.406 530.227C192.834 529.343 190.467 528.238 188.1 526.692C187.483 526.25 186.763 526.361 186.145 526.692C185.631 526.361 185.116 525.919 184.705 525.477C183.882 524.483 183.058 523.378 182.029 522.605C179.869 520.837 177.296 523.488 179.045 525.808C180.074 527.023 181.103 528.128 182.235 529.122C183.47 530.448 184.705 531.884 186.351 532.767C186.557 532.878 186.866 532.988 187.174 533.099C188.821 535.197 190.982 536.744 193.451 537.628C195.612 538.511 197.979 538.843 200.346 538.953C202.609 539.064 205.182 539.285 207.24 538.069C207.857 537.738 212.385 535.418 212.488 534.756C216.707 531.773 215.986 529.674 218.867 525.145C220.514 522.715 216.809 520.506 215.369 522.826Z" fill="#FFDEB3"/>
<path d="M239.448 560.272C234.92 553.865 240.168 515.535 269.494 512.221C294.293 509.349 310.037 515.204 320.532 533.982C328.662 548.563 330.308 561.045 330.308 561.045L326.089 567.784C326.089 567.784 329.999 574.411 325.78 576.4C320.944 578.609 297.38 583.138 288.325 584.242C273.404 586.231 239.448 560.272 239.448 560.272Z" fill="#609FD8"/>
<path d="M253.854 566.679C249.326 560.272 254.574 521.942 283.9 518.628C290.383 517.855 296.248 517.745 301.599 518.297C292.853 513.989 282.048 512.995 268.568 514.541C239.139 517.965 233.891 556.185 238.522 562.592C238.522 562.592 270.729 587.225 286.267 586.673C270.935 579.713 253.854 566.679 253.854 566.679Z" fill="#418CC4"/>
<path d="M192.937 40.4406C192.937 40.4406 192.422 72.143 200.963 97.8805C204.462 108.374 229.26 132.013 229.26 132.013L234.508 129.804L215.266 61.8701C215.266 61.8701 209.607 52.0391 206.828 49.4984C204.05 46.6264 192.937 40.4406 192.937 40.4406Z" fill="#589387"/>
<path d="M217.118 49.0566L227.306 3.21512C227.306 3.21512 253.133 35.4699 252.516 69.2711C252.001 98.3224 246.445 118.868 241.711 129.031C240.991 130.577 235.435 131.24 234.714 129.804C230.907 121.519 226.277 110.584 222.778 104.619C214.34 90.3692 215.06 61.7597 215.06 61.7597L224.836 60.2132L217.118 49.0566Z" fill="#CEB597"/>
<path d="M248.091 90.3692C249.341 90.3692 250.355 89.2812 250.355 87.939C250.355 86.5969 249.341 85.5089 248.091 85.5089C246.841 85.5089 245.827 86.5969 245.827 87.939C245.827 89.2812 246.841 90.3692 248.091 90.3692Z" fill="white"/>
<path d="M245.21 104.287C246.46 104.287 247.474 103.199 247.474 101.857C247.474 100.515 246.46 99.427 245.21 99.427C243.96 99.427 242.946 100.515 242.946 101.857C242.946 103.199 243.96 104.287 245.21 104.287Z" fill="white"/>
<path d="M217.221 80.6486C218.471 80.6486 219.485 79.5605 219.485 78.2184C219.485 76.8763 218.471 75.7883 217.221 75.7883C215.971 75.7883 214.957 76.8763 214.957 78.2184C214.957 79.5605 215.971 80.6486 217.221 80.6486Z" fill="white"/>
<path d="M225.35 21.2203C226.601 21.2203 227.614 20.1323 227.614 18.7901C227.614 17.448 226.601 16.36 225.35 16.36C224.1 16.36 223.087 17.448 223.087 18.7901C223.087 20.1323 224.1 21.2203 225.35 21.2203Z" fill="white"/>
<path d="M245.621 45.3009C246.872 45.3009 247.885 44.2129 247.885 42.8708C247.885 41.5286 246.872 40.4406 245.621 40.4406C244.371 40.4406 243.358 41.5286 243.358 42.8708C243.358 44.2129 244.371 45.3009 245.621 45.3009Z" fill="white"/>
<path d="M233.377 19.011C234.627 19.011 235.641 17.923 235.641 16.5809C235.641 15.2388 234.627 14.1507 233.377 14.1507C232.127 14.1507 231.113 15.2388 231.113 16.5809C231.113 17.923 232.127 19.011 233.377 19.011Z" fill="white"/>
<path d="M241.094 33.2606C242.344 33.2606 243.358 32.1726 243.358 30.8304C243.358 29.4883 242.344 28.4003 241.094 28.4003C239.844 28.4003 238.83 29.4883 238.83 30.8304C238.83 32.1726 239.844 33.2606 241.094 33.2606Z" fill="white"/>
<path d="M278.344 41.3243L284.415 51.5972L284.312 39.6674L278.344 41.3243Z" fill="#ADACE5"/>
<path d="M272.684 47.1787L282.871 71.9221C282.871 71.9221 279.064 88.4913 279.064 87.2762C279.064 86.0612 265.687 54.3587 265.687 54.3587L272.684 47.1787Z" fill="#ADACE5"/>
<path d="M259.101 67.5036L272.684 103.514C272.684 103.514 265.378 116.659 265.378 115.554C265.378 114.45 250.355 73.1372 250.355 73.1372L254.883 65.2944L259.101 67.5036Z" fill="#ADACE5"/>
<path d="M314.153 502.943C313.432 502.611 312.815 502.28 312.095 502.059C314.77 497.64 315.799 492.228 314.564 486.815C314.564 486.705 314.461 486.594 314.461 486.484C313.741 483.943 310.14 482.618 308.287 484.827C308.185 485.048 307.979 485.158 307.876 485.379C307.67 485.048 307.464 484.716 307.156 484.496C306.641 484.054 306.127 483.722 305.612 483.501C304.995 480.629 301.393 479.635 299.438 481.734C299.232 481.955 299.129 482.065 298.924 482.286C299.232 480.961 299.438 479.635 299.644 478.31C299.953 476.432 299.335 474.444 297.483 473.67C296.557 473.228 295.322 473.228 294.396 473.781C294.293 473.118 294.087 472.455 293.881 471.903C293.779 471.461 293.573 471.019 293.264 470.577C293.161 470.356 293.161 470.136 293.058 469.915C292.544 467.816 290.486 466.822 288.736 467.153C288.222 465.386 286.679 464.612 285.135 464.833C285.032 463.95 284.621 463.176 284.106 462.624C282.563 460.967 280.505 461.299 278.961 462.624C278.241 463.287 277.52 463.95 276.903 464.612C276.8 464.502 276.697 464.502 276.594 464.392C274.742 463.176 272.684 464.06 271.552 465.828C269.906 468.147 268.671 470.688 267.642 473.339C265.996 472.455 263.835 472.676 262.909 474.775C262.188 476.321 261.571 477.868 260.851 479.414C259.925 479.525 258.999 479.746 258.072 480.077C256.117 480.85 255.088 482.728 255.5 484.937C255.912 487.147 257.455 489.135 259.41 490.019C259.616 497.42 260.748 504.931 263.423 511.78C265.79 517.855 270.009 523.378 276.08 524.593C280.299 526.692 285.135 526.25 289.354 524.262C291.309 523.378 293.058 522.163 294.705 520.837C297.895 519.622 300.673 517.192 303.554 515.093C305.2 513.768 307.156 512.442 308.699 512.332C311.683 512.001 314.976 511.669 315.799 507.913C316.211 505.815 315.696 503.605 314.153 502.943Z" fill="#FFDEB3"/>
<path d="M234.097 490.46C234.097 488.251 233.788 486.042 233.273 484.054C231.833 479.193 227.099 476.321 222.778 479.304C222.469 479.525 222.16 479.746 221.851 480.077C221.646 479.967 221.44 479.856 221.234 479.746C221.131 479.304 221.028 478.862 221.028 478.42C220.102 474.112 214.34 473.56 212.385 477.205C211.664 478.641 210.944 479.967 210.224 481.403C208.989 481.292 207.857 481.624 207.034 482.176C206.828 482.065 206.725 482.065 206.519 481.955C206.519 481.955 206.519 481.955 206.519 481.844C206.211 479.856 205.799 477.868 205.285 475.99C204.873 474.112 203.432 472.897 201.889 472.566C201.683 472.455 201.58 472.345 201.374 472.234C201.477 471.792 201.683 471.351 201.786 470.798C202.506 468.147 200.963 465.275 198.493 464.613C196.024 463.839 193.451 465.496 192.731 468.147C191.702 471.903 189.129 475.659 186.145 477.868C182.132 480.85 178.634 482.507 173.797 483.501C171.019 484.054 168.344 484.164 165.874 485.711C162.89 487.699 160.935 491.234 161.449 494.989C161.758 497.309 162.993 499.187 164.331 500.954C163.713 501.507 163.096 502.059 162.478 502.722C158.774 506.146 162.684 512.442 167.109 511.227C167.315 511.227 167.418 511.117 167.52 511.117C167.623 511.117 167.726 511.117 167.829 511.117C168.138 511.227 168.652 511.338 168.549 511.338C169.578 511.78 170.402 512.553 171.019 513.105C173.283 515.093 175.444 517.303 177.81 519.18C179.971 520.837 182.235 522.273 184.705 523.378C185.116 523.93 185.528 524.483 186.145 524.814C189.232 526.471 192.422 527.355 195.715 527.686C203.535 531 212.693 527.686 218.456 521.279C221.749 517.744 224.115 513.326 226.07 508.908C226.996 506.698 227.923 504.489 228.849 502.39C229.054 501.948 229.157 501.617 229.363 501.175C230.392 501.175 231.421 500.623 232.347 499.629C232.965 498.966 233.479 498.193 234.097 497.53C235.434 495.652 235.846 492.338 234.097 490.46Z" fill="#FFDEB3"/>
<path d="M301.187 530.669C301.084 531.221 301.29 531.773 301.907 531.994L303.656 532.546L301.907 535.197C301.701 535.529 301.701 536.081 301.907 536.413C302.113 536.744 302.525 536.965 302.936 536.854L306.641 535.86L306.846 537.296C306.949 537.849 307.361 538.18 307.772 538.18H307.875C308.39 538.069 308.801 537.517 308.699 536.965L308.493 535.308L310.859 534.645C311.271 534.535 311.58 534.093 311.58 533.651C311.58 533.209 311.271 532.767 310.859 532.657L307.978 531.773L307.67 529.343C307.567 528.901 307.361 528.57 306.949 528.459C306.538 528.349 306.126 528.57 305.92 528.901L304.788 530.779L302.422 530.006C301.907 529.785 301.393 530.116 301.187 530.669Z" fill="white"/>
<path d="M390.504 360.227L396.884 358.238L396.369 369.837C396.267 371.383 397.193 372.93 398.53 373.482C398.942 373.703 399.456 373.813 399.971 373.813C400.897 373.813 401.823 373.371 402.543 372.598L412.01 361.994L415.2 366.081C416.435 367.738 418.699 367.848 420.242 366.523C421.786 365.197 421.889 362.767 420.654 361.11L416.949 356.471L423.02 349.733C424.152 348.518 424.358 346.64 423.535 345.093C422.712 343.657 421.065 342.884 419.522 343.436L409.232 346.64L403.984 340.012C403.058 338.797 401.514 338.355 400.177 338.907C398.839 339.46 397.81 340.785 397.81 342.332L397.398 350.285L388.755 352.936C386.903 353.488 385.771 355.587 386.285 357.686C386.8 359.785 388.549 360.779 390.504 360.227Z" fill="#FFFB76"/>
<path d="M390.504 358.68L396.884 356.692L396.369 368.29C396.267 369.837 397.193 371.383 398.53 371.935C398.942 372.156 399.456 372.267 399.971 372.267C400.897 372.267 401.823 371.825 402.543 371.052L412.01 360.447L415.2 364.535C416.435 366.191 418.699 366.302 420.242 364.976C421.786 363.651 421.889 361.221 420.654 359.564L416.949 354.924L423.02 348.186C424.152 346.971 424.358 345.093 423.535 343.547C422.712 342.111 421.065 341.338 419.522 341.89L409.232 345.093L403.984 338.466C403.058 337.251 401.514 336.809 400.177 337.361C398.839 337.913 397.81 339.239 397.81 340.785L397.398 348.739L388.755 351.39C386.903 351.942 385.771 354.041 386.285 356.139C386.8 358.238 388.549 359.232 390.504 358.68Z" stroke="black" stroke-width="2.7204" stroke-miterlimit="10" stroke-linecap="round" stroke-linejoin="round"/>
<path d="M19.5509 324.879C19.2422 323.664 18.3161 322.89 17.1842 322.89H12.8624L11.6277 319.798C11.2161 318.803 10.29 318.251 9.26096 318.251C8.23197 318.251 7.30587 319.024 6.99717 320.018L5.96818 322.78H2.46959C1.1319 322.78 0 323.885 0 325.431C0 326.867 1.1319 328.082 2.46959 328.082H4.32178L3.08699 331.838C2.77829 332.832 3.08699 334.047 3.80729 334.71C4.21888 335.152 4.83628 335.373 5.35078 335.373C5.76238 335.373 6.17398 335.262 6.58557 335.041L11.2161 332.169L11.7306 333.495C12.2451 334.82 13.7885 335.483 15.0233 334.82C16.2581 334.268 16.8755 332.611 16.2581 331.286L15.5378 329.518L18.3161 327.751C19.3451 327.309 19.7567 326.094 19.5509 324.879Z" fill="#FFFB76"/>
<path d="M105.884 259.596C105.472 258.05 104.135 256.945 102.694 256.945H96.8287L95.0794 252.747C94.5649 251.422 93.2272 250.538 91.8895 250.649C90.5518 250.759 89.317 251.643 88.9054 253.079L87.6706 256.945H82.9372C81.085 256.945 79.6444 258.491 79.5415 260.48C79.5415 262.468 80.9821 264.125 82.8343 264.125H85.3039L83.6575 269.206C83.2459 270.642 83.6575 272.189 84.6865 273.183C85.3039 273.735 86.0242 273.956 86.8474 273.956C87.4648 273.956 87.9793 273.846 88.4938 273.514L94.6678 269.648L95.3881 271.415C96.1084 273.183 98.0635 274.067 99.8127 273.293C101.459 272.52 102.282 270.421 101.562 268.543L100.533 266.113L104.34 263.794C105.575 262.799 106.295 261.143 105.884 259.596Z" fill="#517AE0"/>
<path d="M361.795 257.608L363.956 256.393L364.676 261.695C364.882 263.131 365.911 264.346 367.249 264.677C367.455 264.677 367.763 264.788 367.969 264.788C369.101 264.788 370.13 264.235 370.747 263.131L374.555 256.724L375.892 257.939C377.333 259.154 379.391 258.933 380.523 257.387C381.655 255.84 381.449 253.631 380.008 252.416L378.053 250.759L380.42 246.893C381.243 245.567 381.14 243.8 380.111 242.585C379.082 241.37 377.436 241.039 376.098 241.812L370.85 244.684L367.558 241.812C366.529 240.928 364.985 240.818 363.853 241.48C362.618 242.254 362.001 243.69 362.207 245.126L362.721 249.102L358.502 251.422C356.856 252.306 356.239 254.515 357.062 256.172C358.194 257.829 360.149 258.491 361.795 257.608Z" fill="#B0D0C9"/>
<path d="M232.45 417.335L234.508 418.329L231.421 421.864C230.598 422.858 230.392 424.294 230.907 425.509C231.01 425.73 231.112 425.951 231.215 426.061C231.833 426.945 232.862 427.387 233.891 427.277L240.271 426.503V428.16C240.271 429.928 241.608 431.364 243.255 431.364C244.901 431.364 246.239 429.928 246.239 428.16V425.73L250.149 425.288C251.487 425.178 252.618 424.073 252.824 422.527C253.03 421.091 252.31 419.655 251.075 419.102L246.239 416.783V412.696C246.239 411.37 245.518 410.155 244.284 409.713C243.152 409.271 241.814 409.603 240.991 410.486L238.727 413.137L234.817 411.26C233.273 410.486 231.524 411.26 230.804 412.917C230.186 414.684 230.907 416.562 232.45 417.335Z" fill="white"/>
<path d="M230.804 416.672L233.274 417.887L229.466 422.306C228.437 423.521 228.232 425.288 228.849 426.724C228.952 426.945 229.158 427.166 229.261 427.387C230.084 428.381 231.216 429.044 232.553 428.823L240.374 427.939V430.038C240.374 432.247 242.02 434.015 244.078 434.015C246.136 434.015 247.783 432.247 247.783 430.038V427.166L252.516 426.614C254.162 426.393 255.5 425.067 255.809 423.3C256.117 421.533 255.191 419.765 253.648 419.102L247.783 416.23V411.26C247.783 409.603 246.856 408.167 245.416 407.614C243.975 407.062 242.432 407.394 241.403 408.609L238.624 411.922L233.891 409.603C232.039 408.719 229.878 409.603 229.055 411.591C228.129 413.469 228.952 415.789 230.804 416.672Z" stroke="black" stroke-width="2.7204" stroke-miterlimit="10" stroke-linecap="round" stroke-linejoin="round"/>
<path d="M330.205 520.285L330.925 520.064V521.611C330.925 522.052 331.131 522.494 331.543 522.605C331.646 522.605 331.749 522.715 331.954 522.715C332.263 522.715 332.469 522.605 332.675 522.384L334.115 520.727L334.424 521.169C334.733 521.611 335.453 521.611 335.865 521.279C336.276 520.948 336.276 520.175 335.967 519.733L335.453 519.181L336.276 518.186C336.585 517.855 336.585 517.303 336.379 516.861C336.173 516.419 335.659 516.309 335.247 516.419L333.601 516.971L332.778 515.977C332.469 515.646 332.057 515.535 331.749 515.646C331.337 515.756 331.131 516.198 331.131 516.64V517.855L329.793 518.297C329.279 518.518 328.97 519.07 329.176 519.622C329.073 520.175 329.691 520.506 330.205 520.285Z" fill="white"/>
<path d="M245.107 457.543C245.004 456.88 244.695 456.107 244.387 455.334C243.049 452.793 241.506 451.136 240.477 450.253C239.139 449.369 237.493 448.485 235.435 447.712C227.923 444.84 224.836 450.363 223.704 455.776C218.868 453.125 213.517 451.689 208.063 451.578C203.639 451.468 198.699 451.689 195.098 454.671C194.892 454.781 192.937 456.88 192.422 457.874C192.32 458.095 192.011 458.206 191.805 457.985C190.467 456.991 186.454 454.34 182.235 454.008C172.974 453.125 163.816 458.537 157.539 468.368C154.967 463.618 150.337 459.089 143.236 467.043C132.329 479.193 143.751 487.147 151.571 485.49C150.954 493.333 152.6 502.611 159.392 506.367C159.392 506.919 159.597 507.582 159.803 508.245C161.347 513.105 166.08 513.657 168.858 513.216C169.99 514.431 171.534 516.529 178.017 521.5C181.721 524.372 186.969 527.355 186.866 527.244C188.615 528.128 190.364 528.901 192.114 529.564C194.789 530.448 197.67 531.11 200.449 531.11C201.683 531.11 202.918 531 204.153 530.779C209.607 529.785 214.34 526.361 218.25 522.273C218.25 522.273 221.749 518.076 221.955 517.855C221.955 517.855 222.058 517.855 222.058 517.745C222.881 516.64 223.704 515.425 224.424 514.32C228.026 508.908 230.187 503.716 230.907 501.949V501.838C231.01 501.949 232.039 501.396 233.274 500.844C235.332 499.85 237.184 497.641 237.184 494.437C237.184 493.553 237.081 492.78 236.875 492.117C238.419 490.681 239.448 488.914 240.065 486.926C240.168 485.6 240.168 483.612 239.859 481.403C239.756 481.071 239.756 480.74 239.653 480.298C239.653 480.298 239.653 480.298 239.653 480.188C239.55 479.856 239.55 479.525 239.448 479.193C238.624 475.769 237.493 471.572 236.875 469.473C236.772 469.031 236.669 468.7 236.566 468.479C236.464 468.258 236.464 468.147 236.464 468.147C236.258 467.595 236.566 467.043 237.081 466.822C237.184 466.822 243.564 464.502 245.107 460.194C245.21 459.973 245.21 459.863 245.313 459.642C245.416 459.31 245.416 458.869 245.416 458.537C245.21 458.206 245.21 457.874 245.107 457.543ZM231.524 499.187C231.216 499.297 230.907 499.408 230.701 499.518C230.187 499.629 229.878 499.739 229.775 499.739H229.672C229.569 499.739 229.466 499.85 229.363 499.96C229.261 500.071 229.158 500.181 229.055 500.402C229.055 500.402 228.952 500.623 228.849 500.954C228.129 502.722 225.556 508.576 221.543 514.431C221.337 514.652 221.131 514.983 220.926 515.204C220.926 515.314 220.823 515.314 220.72 515.425C220.514 515.646 220.308 515.977 220.102 516.198C219.897 516.419 219.794 516.64 219.588 516.861C219.588 516.861 219.588 516.861 219.588 516.971C219.485 517.082 219.485 517.192 219.382 517.192C219.176 517.413 219.073 517.634 218.868 517.855C218.765 517.965 218.662 518.186 218.559 518.297C218.456 518.407 218.353 518.628 218.25 518.739C214.237 523.378 209.298 527.465 203.536 528.57C200.243 529.233 196.847 528.791 193.657 527.797C190.467 526.802 187.38 525.366 184.499 523.599C183.985 523.268 183.47 522.936 182.956 522.605C182.441 522.273 181.927 521.942 181.412 521.611C180.898 521.169 180.28 520.837 179.766 520.396C173.798 515.977 169.682 511.338 169.682 511.227C169.476 511.006 169.27 510.896 168.961 510.896C168.858 510.896 168.858 510.896 168.756 510.896C168.55 510.896 162.993 512.111 161.45 507.472C161.45 507.361 161.45 507.361 161.347 507.251C160.112 502.832 165.154 500.733 165.36 500.623C165.771 500.513 166.08 500.071 165.977 499.518L165.771 495.873C166.903 495.763 169.064 495.431 172.048 494.769C176.576 493.774 179.457 492.228 185.528 487.809C190.159 484.385 193.04 475.106 194.172 470.577C196.127 474.002 200.243 480.188 205.388 483.17C205.388 483.17 205.491 483.17 205.491 483.281C201.066 484.275 197.876 488.362 197.259 494.106C196.95 496.757 197.465 499.187 198.082 501.617C198.288 502.28 198.494 502.943 198.596 503.495C198.596 503.605 198.699 503.937 199.008 504.6C199.317 505.483 200.14 507.693 200.449 508.687C199.625 509.239 198.596 509.349 197.67 509.018C197.156 508.797 196.641 509.018 196.436 509.57C196.23 510.123 196.436 510.675 196.95 510.896C197.465 511.117 198.082 511.227 198.699 511.227C199.934 511.227 201.169 510.785 202.095 509.902C202.815 509.349 202.712 508.908 200.757 503.716C200.552 503.274 200.449 502.832 200.449 502.722C200.243 502.169 200.14 501.617 199.934 501.065C199.317 498.745 198.905 496.536 199.111 494.216C199.523 489.687 202.198 485.158 207.24 485.158C207.24 485.158 207.24 485.158 207.343 485.158C208.886 485.158 210.121 485.379 211.459 485.6C212.591 485.821 213.723 485.932 215.163 486.042C216.089 486.153 216.913 486.153 217.736 486.153C218.044 486.153 218.353 486.153 218.765 486.153C219.073 486.153 219.382 486.153 219.794 486.153C220 486.153 220.308 486.153 220.514 486.153C220.926 486.153 221.337 486.153 221.646 486.153C221.646 486.153 221.646 486.153 221.749 486.153C222.16 486.153 222.572 486.153 222.984 486.153C223.704 486.153 224.321 486.153 224.836 486.263C227.614 486.484 228.334 488.804 228.437 488.804C228.54 489.245 228.952 489.577 229.363 489.577H230.804C233.068 489.577 234.406 490.792 234.714 493.333C234.714 493.664 234.817 493.995 234.817 494.327C235.023 497.088 233.068 498.524 231.524 499.187Z" fill="black"/>
<path d="M168.035 507.14C167.726 506.588 167.212 505.925 166.389 505.262C164.331 503.605 162.993 504.379 162.787 504.489L163.816 506.256C163.816 506.256 163.816 506.256 163.713 506.256C163.713 506.256 164.228 506.036 165.154 506.809C165.36 507.03 165.565 507.14 165.668 507.361C166.389 508.134 166.492 508.797 166.492 508.797C166.594 509.349 167.006 509.681 167.418 509.681C167.52 509.681 167.52 509.681 167.623 509.681C168.138 509.57 168.549 509.018 168.447 508.466C168.549 508.355 168.447 507.803 168.035 507.14Z" fill="black"/>
<path d="M231.73 492.559C230.701 492.228 228.54 492.228 227.408 494.327C227.203 494.769 226.997 495.1 226.894 495.542C226.688 496.315 226.688 497.088 226.894 497.641C226.997 498.082 227.203 498.524 227.408 498.745C227.614 498.966 227.923 499.077 228.129 499.077C228.334 499.077 228.54 498.966 228.746 498.856L228.849 498.745C229.158 498.303 229.158 497.751 228.849 497.42C228.746 497.309 228.334 496.646 229.055 495.431C229.158 495.21 229.261 495.1 229.363 494.99C229.981 494.437 230.804 494.548 231.01 494.658C231.319 494.769 231.73 494.658 231.936 494.437C232.039 494.327 232.142 494.106 232.245 493.995C232.553 493.333 232.348 492.78 231.73 492.559Z" fill="black"/>
<path d="M188.1 499.408C187.689 499.077 187.071 499.187 186.763 499.629C186.763 499.739 185.734 501.065 183.161 501.286C180.692 501.507 179.868 499.96 179.766 499.96C179.457 499.408 178.942 499.297 178.428 499.629C177.913 499.96 177.81 500.513 178.016 501.065C178.119 501.175 179.354 503.495 182.647 503.495C182.853 503.495 183.058 503.495 183.264 503.495C186.866 503.164 188.306 500.954 188.306 500.844C188.615 500.402 188.512 499.739 188.1 499.408Z" fill="black"/>
<path d="M215.369 493.112C214.854 493.001 214.34 493.333 214.237 493.885C214.237 493.885 214.031 494.658 213.414 495.321C213.208 495.542 212.796 495.873 212.385 496.094C212.179 496.205 211.973 496.315 211.665 496.425C211.562 496.425 211.459 496.425 211.356 496.536C208.989 497.088 206.211 495.763 206.211 495.652C205.696 495.431 205.182 495.652 204.873 496.094C204.667 496.646 204.873 497.199 205.285 497.53C205.388 497.641 207.652 498.745 210.018 498.745C210.636 498.745 211.253 498.635 211.87 498.524C211.973 498.524 212.076 498.524 212.179 498.414C212.385 498.303 212.591 498.193 212.796 498.193C213.105 498.082 213.414 497.861 213.723 497.751C214.752 497.088 215.369 496.205 215.678 495.542C215.986 494.99 216.089 494.548 216.089 494.437C216.089 494.216 216.089 494.106 216.089 493.885C215.986 493.443 215.678 493.222 215.369 493.112Z" fill="black"/>
<path d="M208.063 514.652C207.549 514.431 207.034 514.652 206.726 515.204C206.726 515.204 206.726 515.204 206.726 515.314C206.623 515.646 206.417 515.977 206.211 516.309C204.976 518.186 202.918 519.401 200.552 519.512C198.494 519.622 196.333 518.849 194.378 517.413C193.966 517.082 193.349 517.192 193.04 517.634C192.731 518.076 192.834 518.739 193.246 519.07C195.304 520.727 197.773 521.611 200.037 521.611C200.243 521.611 200.449 521.611 200.655 521.611C201.066 521.611 201.478 521.5 201.889 521.39C203.742 521.058 205.388 520.064 206.726 518.739C207.343 518.076 207.96 517.303 208.372 516.419C208.475 516.309 208.475 516.088 208.578 515.977C208.681 515.756 208.681 515.646 208.681 515.425C208.578 515.093 208.372 514.762 208.063 514.652Z" fill="black"/>
<path d="M327.838 477.426C327.427 474.333 327.118 472.566 325.677 469.915C324.546 467.816 323.002 465.828 320.635 463.729C318.166 461.409 310.551 455.113 302.422 454.782C301.908 454.119 301.29 453.456 300.673 452.904C300.158 452.13 299.026 451.247 297.071 450.363C295.837 449.7 294.499 449.148 293.264 448.817C280.71 444.509 269.906 448.485 261.674 456.77C256.632 461.741 252.722 469.031 253.648 470.688C255.5 474.002 258.278 470.025 258.587 472.234C258.896 474.333 258.587 476.653 258.587 477.868C256.632 478.199 254.677 479.304 253.853 482.176C252.619 486.594 255.706 489.687 257.867 491.013C257.867 492.559 258.072 495.21 258.998 501.175C261.056 514.762 267.642 524.151 274.536 526.471C276.183 527.023 277.932 527.244 279.681 527.244C287.502 527.244 296.145 522.273 296.145 522.273C297.483 521.611 298.821 520.727 300.055 519.843C304.789 516.529 306.641 514.762 307.67 513.768C310.037 514.541 314.256 514.873 316.416 510.785C318.166 507.361 316.622 504.379 314.873 502.611C316.005 502.28 317.137 502.059 317.857 502.722C318.269 503.164 318.783 504.158 319.092 505.483C319.195 505.704 319.298 505.925 319.503 506.146C320.018 506.477 320.532 506.367 320.841 505.925C327.324 496.867 328.456 488.362 324.237 481.292C323.002 479.304 321.87 477.537 320.635 475.99C320.635 475.99 320.532 475.88 320.43 475.769C320.224 475.548 320.121 475.327 320.018 475.217C320.532 475.217 320.944 475.106 321.459 475.217C322.385 475.217 322.899 475.88 323.825 476.763C324.648 477.647 325.575 478.531 327.015 478.862C327.324 478.973 327.633 478.862 327.941 478.641C327.838 478.089 327.941 477.758 327.838 477.426ZM314.461 509.57C312.403 513.437 307.773 511.448 307.567 511.338C307.258 511.227 306.847 511.227 306.538 511.559C306.435 511.669 303.142 514.873 298.203 518.186C296.557 519.291 294.705 520.396 292.647 521.39C288.736 523.157 280.71 526.25 274.845 524.151C271.141 522.826 267.642 519.291 265.07 514.431C264.143 512.553 263.32 510.454 262.6 508.466C262.394 507.913 261.056 502.943 260.748 501.175C259.616 495.1 259.513 490.24 259.513 490.129C259.513 489.687 259.307 489.356 258.896 489.135C258.69 489.025 254.162 486.815 255.397 482.507C256.426 478.973 260.13 479.525 261.262 479.856C261.468 479.856 261.571 479.967 261.571 479.967C261.88 480.077 262.188 479.967 262.394 479.856C262.497 479.746 262.6 479.635 262.703 479.525L263.012 478.973L263.217 478.752C264.864 478.42 266.407 476.874 269.083 471.793C271.038 468.147 274.228 465.275 277.109 463.398C277.623 465.165 278.138 467.264 278.549 469.031C278.652 469.362 278.755 469.694 278.755 470.136C278.755 470.246 278.858 470.357 278.858 470.467C278.961 470.688 278.961 470.909 278.961 471.13C280.504 470.357 282.151 469.583 283.797 468.81C284.826 471.019 287.913 476.763 294.087 482.839C301.805 490.571 307.258 492.559 307.464 492.67C307.773 492.78 308.082 492.67 308.287 492.559C308.493 492.338 308.699 492.118 308.699 491.786L308.905 488.693C309.522 489.577 310.14 490.681 310.86 492.117C312.198 494.989 312.198 497.53 312.198 497.972L311.477 501.286L311.374 501.949C311.374 502.059 311.374 502.28 311.374 502.39C311.477 502.722 311.58 502.943 311.889 503.164C311.889 503.164 311.992 503.274 312.198 503.385C313.227 503.826 316.211 506.367 314.461 509.57Z" fill="black"/>
<path d="M310.448 506.809C309.111 507.582 308.699 508.687 308.596 508.797C308.39 509.349 308.699 510.012 309.214 510.123C309.317 510.123 309.419 510.233 309.522 510.233C309.934 510.233 310.243 510.012 310.448 509.57C310.448 509.57 310.654 509.129 311.374 508.687C311.683 508.466 311.889 508.466 311.992 508.466C312.403 508.797 312.918 508.687 313.227 508.245C313.638 507.803 313.535 507.14 313.124 506.698C313.124 506.698 312.095 505.925 310.448 506.809Z" fill="black"/>
<path d="M258.278 481.624C257.764 481.624 257.249 481.955 257.249 482.618C257.249 483.17 257.558 483.612 257.97 483.722C258.072 483.722 258.175 483.943 258.278 484.275C258.484 485.048 258.278 485.49 258.278 485.6C258.072 486.042 258.175 486.484 258.484 486.815C258.587 486.926 258.69 487.036 258.793 487.036C259.307 487.257 259.925 487.036 260.13 486.594C260.233 486.484 260.645 485.379 260.233 483.833C259.616 481.845 258.381 481.624 258.278 481.624Z" fill="black"/>
<path d="M298.409 500.071C298.409 500.071 297.38 501.286 295.322 500.733C293.058 500.071 292.441 498.745 292.441 498.635C292.235 498.082 291.617 497.862 291.103 498.082C290.588 498.303 290.383 498.966 290.588 499.518C290.588 499.629 291.617 501.838 294.807 502.722C295.425 502.943 295.939 502.943 296.454 502.943C298.717 502.943 299.849 501.507 299.952 501.396C300.261 500.954 300.261 500.292 299.849 499.96C299.438 499.629 298.82 499.629 298.409 500.071Z" fill="black"/>
<path d="M272.684 494.437C274.948 494.769 276.285 493.443 276.285 493.443C276.697 493.001 276.697 492.449 276.388 492.007C276.08 491.565 275.359 491.565 275.051 491.897C275.051 491.897 273.919 493.001 271.861 492.117C269.7 491.123 269.288 489.687 269.288 489.687C269.185 489.135 268.568 488.804 268.054 488.914C267.539 489.025 267.23 489.687 267.333 490.24C267.333 490.35 268.053 492.67 271.038 494.106C271.655 494.216 272.169 494.437 272.684 494.437Z" fill="black"/>
<path d="M276.8 505.262C277.726 506.477 279.064 507.14 280.505 507.14C280.813 507.14 281.122 507.14 281.431 507.03C281.945 506.919 282.357 506.367 282.151 505.815C282.048 505.262 281.534 504.821 281.019 505.041C280.093 505.262 279.064 504.821 278.344 503.937C278.035 503.495 277.315 503.495 276.903 503.826C276.491 504.158 276.491 504.821 276.8 505.262Z" fill="black"/>
<path d="M282.871 512.995C280.916 513.989 278.961 514.32 277.109 513.878C274.639 513.216 272.89 511.448 272.273 509.018C272.17 508.466 271.552 508.134 271.038 508.245C270.523 508.355 270.215 509.018 270.318 509.57C271.038 512.774 273.405 515.093 276.594 515.977C277.315 516.198 278.035 516.198 278.755 516.198C280.402 516.198 282.048 515.756 283.695 514.873C284.209 514.652 284.415 513.989 284.106 513.437C284.003 512.995 283.386 512.774 282.871 512.995Z" fill="black"/>
<path d="M237.389 100.532V128.368" stroke="black" stroke-width="3.4005" stroke-miterlimit="10" stroke-linecap="round" stroke-linejoin="round"/>
<path d="M442.777 257.939C446.641 257.939 449.774 254.576 449.774 250.428C449.774 246.279 446.641 242.916 442.777 242.916C438.913 242.916 435.78 246.279 435.78 250.428C435.78 254.576 438.913 257.939 442.777 257.939Z" fill="#91B4F9"/>
<path d="M456.772 491.897C460.636 491.897 463.769 488.534 463.769 484.385C463.769 480.237 460.636 476.874 456.772 476.874C452.907 476.874 449.774 480.237 449.774 484.385C449.774 488.534 452.907 491.897 456.772 491.897Z" fill="#FF7391"/>
<path d="M325.266 135.658C327.141 135.658 328.662 134.026 328.662 132.013C328.662 130 327.141 128.368 325.266 128.368C323.391 128.368 321.87 130 321.87 132.013C321.87 134.026 323.391 135.658 325.266 135.658Z" fill="#FFFB76"/>
<path d="M503.9 407.614C507.821 407.614 511 404.202 511 399.993C511 395.783 507.821 392.371 503.9 392.371C499.979 392.371 496.8 395.783 496.8 399.993C496.8 404.202 499.979 407.614 503.9 407.614Z" fill="#517AE0"/>
<path d="M16.8756 450.474C20.7968 450.474 23.9757 447.061 23.9757 442.852C23.9757 438.642 20.7968 435.23 16.8756 435.23C12.9543 435.23 9.77551 438.642 9.77551 442.852C9.77551 447.061 12.9543 450.474 16.8756 450.474Z" fill="#91B4F9"/>
<path d="M102.591 346.419C104.58 346.419 106.192 344.688 106.192 342.553C106.192 340.417 104.58 338.687 102.591 338.687C100.602 338.687 98.9894 340.417 98.9894 342.553C98.9894 344.688 100.602 346.419 102.591 346.419Z" fill="#589387"/>
<path d="M161.141 153.222C165.517 153.222 169.064 149.414 169.064 144.716C169.064 140.019 165.517 136.211 161.141 136.211C156.765 136.211 153.218 140.019 153.218 144.716C153.218 149.414 156.765 153.222 161.141 153.222Z" fill="#FF7391"/>
<path d="M19.9628 216.406C22.1223 216.406 23.873 214.526 23.873 212.208C23.873 209.89 22.1223 208.011 19.9628 208.011C17.8033 208.011 16.0526 209.89 16.0526 212.208C16.0526 214.526 17.8033 216.406 19.9628 216.406Z" fill="#B0D0C9"/>
<path d="M181.412 274.177H293.264" stroke="white" stroke-width="5.1007" stroke-miterlimit="10" stroke-linecap="round" stroke-linejoin="round"/>
<path d="M346.361 470.688C253.236 412.143 237.184 314.054 237.184 314.054" stroke="black" stroke-width="3.4005" stroke-miterlimit="10" stroke-linecap="round" stroke-linejoin="round"/>
<path d="M236.463 314.054C236.463 314.054 222.675 410.818 129.551 469.362" stroke="black" stroke-width="3.4005" stroke-miterlimit="10" stroke-linecap="round" stroke-linejoin="round"/>
<path d="M380.317 447.049L343.891 475.548C343.891 475.548 345.64 481.182 350.888 486.815C356.136 492.449 389.681 461.299 389.681 461.299L380.317 447.049Z" stroke="black" stroke-width="3.4005" stroke-miterlimit="10" stroke-linecap="round" stroke-linejoin="round"/>
<path d="M360.663 484.385C360.663 484.385 352.637 558.615 355.107 583.027L367.866 580.708C367.866 580.708 372.703 503.164 371.365 476.874" stroke="black" stroke-width="3.4005" stroke-miterlimit="10" stroke-linecap="round" stroke-linejoin="round"/>
<path d="M183.058 270.753L201.169 234.742L219.279 270.753H183.058Z" fill="#F7AAAE"/>
<path d="M237.492 234.742L219.279 270.753L201.169 234.742H237.492Z" fill="#C7E0D8"/>
<path d="M219.382 270.753L237.492 234.742L255.603 270.753H219.382Z" fill="#ADACE5"/>
<path d="M255.706 270.974L273.816 234.853L291.926 270.974H255.706Z" fill="#F7AAAE"/>
<path d="M273.816 234.742L255.705 270.753L237.492 234.742H273.816Z" fill="#C7E0D8"/>
<path d="M375.275 451.026L242.946 158.745" stroke="black" stroke-width="3.4005" stroke-miterlimit="10" stroke-linecap="round" stroke-linejoin="round"/>
<path d="M358.605 486.926C348.315 510.123 341.935 598.934 344.096 599.265C344.096 599.265 394.929 617.27 442.571 595.841L416.64 540.168" stroke="black" stroke-width="3.4005" stroke-miterlimit="10" stroke-linecap="round" stroke-linejoin="round"/>
<path d="M250.663 127.263L261.159 104.619" stroke="black" stroke-width="3.4005" stroke-miterlimit="10" stroke-linecap="round" stroke-linejoin="round"/>
<path d="M100.224 450.584L236.36 159.076" stroke="black" stroke-width="3.4005" stroke-miterlimit="10" stroke-linecap="round" stroke-linejoin="round"/>
<path d="M123.994 486.926C134.284 510.123 139.12 600.038 136.959 600.37C136.959 600.37 73.6759 617.602 32.1045 595.841L53.1989 550.662L92.9182 465.607" stroke="black" stroke-width="3.4005" stroke-miterlimit="10" stroke-linecap="round" stroke-linejoin="round"/>
<path d="M250.663 129.472C250.663 129.472 261.776 127.816 276.594 93.7934C288.53 66.399 283.283 36.3535 283.283 36.3535L263.011 57.3412L264.452 71.2593L255.705 64.8525C255.705 64.8525 254.779 65.0735 252.516 69.3815" stroke="black" stroke-width="3.4005" stroke-miterlimit="10" stroke-linecap="round" stroke-linejoin="round"/>
<path d="M97.7548 450.253L129.551 470.688C129.551 470.688 130.991 478.42 129.551 484.385C128.11 490.35 88.5968 466.711 90.0373 461.078C91.4779 455.444 97.7548 450.253 97.7548 450.253Z" stroke="black" stroke-width="3.4005" stroke-miterlimit="10" stroke-linecap="round" stroke-linejoin="round"/>
<path d="M416.847 540.168C418.081 537.517 418.905 535.087 418.905 534.756C418.905 533.651 393.488 481.292 382.375 467.816" stroke="black" stroke-width="3.4005" stroke-miterlimit="10" stroke-linecap="round" stroke-linejoin="round"/>
<path d="M377.847 471.682C377.847 471.682 409.54 540.72 410.569 547.127C411.29 551.325 414.582 545.249 416.846 540.168" stroke="black" stroke-width="3.4005" stroke-miterlimit="10" stroke-linecap="round" stroke-linejoin="round"/>
<path d="M245.107 121.519C245.107 121.519 253.545 96.0027 251.384 61.7597C249.84 36.2431 226.585 2 226.585 2C226.585 2 221.234 18.2378 219.176 34.0338C218.25 40.8824 217.118 49.0566 217.118 49.0566C217.633 50.1612 226.791 62.5329 225.556 61.8701H215.06C215.06 61.8701 210.121 93.7935 232.862 125.717" stroke="black" stroke-width="3.4005" stroke-miterlimit="10" stroke-linecap="round" stroke-linejoin="round"/>
<path d="M228.231 130.246C228.231 130.246 186.248 106.938 192.937 40.4406C192.937 40.4406 205.902 45.7428 212.488 55.4634" stroke="black" stroke-width="3.4005" stroke-miterlimit="10" stroke-linecap="round" stroke-linejoin="round"/>
<path d="M229.157 33.2606C230.408 33.2606 231.421 32.1726 231.421 30.8304C231.421 29.4883 230.408 28.4003 229.157 28.4003C227.907 28.4003 226.894 29.4883 226.894 30.8304C226.894 32.1726 227.907 33.2606 229.157 33.2606Z" fill="white"/>
<path d="M235.126 45.3009C236.376 45.3009 237.39 44.2129 237.39 42.8708C237.39 41.5286 236.376 40.4406 235.126 40.4406C233.876 40.4406 232.862 41.5286 232.862 42.8708C232.862 44.2129 233.876 45.3009 235.126 45.3009Z" fill="white"/>
<path d="M240.682 55.4633C241.932 55.4633 242.946 54.3753 242.946 53.0332C242.946 51.6911 241.932 50.603 240.682 50.603C239.432 50.603 238.418 51.6911 238.418 53.0332C238.418 54.3753 239.432 55.4633 240.682 55.4633Z" fill="white"/>
<path d="M230.186 55.4633C231.437 55.4633 232.45 54.3753 232.45 53.0332C232.45 51.6911 231.437 50.603 230.186 50.603C228.936 50.603 227.923 51.6911 227.923 53.0332C227.923 54.3753 228.936 55.4633 230.186 55.4633Z" fill="white"/>
<path d="M222.881 69.7129C224.131 69.7129 225.144 68.6249 225.144 67.2827C225.144 65.9406 224.131 64.8526 222.881 64.8526C221.63 64.8526 220.617 65.9406 220.617 67.2827C220.617 68.6249 221.63 69.7129 222.881 69.7129Z" fill="white"/>
<path d="M246.651 67.835C247.901 67.835 248.914 66.747 248.914 65.4049C248.914 64.0628 247.901 62.9748 246.651 62.9748C245.4 62.9748 244.387 64.0628 244.387 65.4049C244.387 66.747 245.4 67.835 246.651 67.835Z" fill="white"/>
<path d="M235.434 68.6083C236.685 68.6083 237.698 67.5202 237.698 66.1781C237.698 64.836 236.685 63.748 235.434 63.748C234.184 63.748 233.171 64.836 233.171 66.1781C233.171 67.5202 234.184 68.6083 235.434 68.6083Z" fill="white"/>
<path d="M236.875 91.1424C238.125 91.1424 239.139 90.0544 239.139 88.7122C239.139 87.3701 238.125 86.2821 236.875 86.2821C235.625 86.2821 234.611 87.3701 234.611 88.7122C234.611 90.0544 235.625 91.1424 236.875 91.1424Z" fill="white"/>
<path d="M225.35 91.1424C226.601 91.1424 227.614 90.0544 227.614 88.7122C227.614 87.3701 226.601 86.2821 225.35 86.2821C224.1 86.2821 223.087 87.3701 223.087 88.7122C223.087 90.0544 224.1 91.1424 225.35 91.1424Z" fill="white"/>
<path d="M231.215 104.287C232.466 104.287 233.479 103.199 233.479 101.857C233.479 100.515 232.466 99.427 231.215 99.427C229.965 99.427 228.952 100.515 228.952 101.857C228.952 103.199 229.965 104.287 231.215 104.287Z" fill="white"/>
<path d="M230.186 80.2067C231.437 80.2067 232.45 79.1187 232.45 77.7765C232.45 76.4344 231.437 75.3464 230.186 75.3464C228.936 75.3464 227.923 76.4344 227.923 77.7765C227.923 79.1187 228.936 80.2067 230.186 80.2067Z" fill="white"/>
<path d="M243.152 80.2067C244.402 80.2067 245.416 79.1187 245.416 77.7765C245.416 76.4344 244.402 75.3464 243.152 75.3464C241.901 75.3464 240.888 76.4344 240.888 77.7765C240.888 79.1187 241.901 80.2067 243.152 80.2067Z" fill="white"/>
<path d="M223.189 45.3009C224.44 45.3009 225.453 44.2129 225.453 42.8708C225.453 41.5286 224.44 40.4406 223.189 40.4406C221.939 40.4406 220.926 41.5286 220.926 42.8708C220.926 44.2129 221.939 45.3009 223.189 45.3009Z" fill="white"/>
<path d="M222.675 136.211C222.675 136.211 220.617 130.577 233.479 129.031C243.666 127.816 254.677 129.362 255.5 133.118C256.529 137.978 247.474 133.891 236.258 136.1C226.071 138.309 223.395 138.42 222.675 136.211Z" stroke="black" stroke-width="3.4005" stroke-miterlimit="10" stroke-linecap="round" stroke-linejoin="round"/>
<path d="M252.722 135.879C252.722 135.879 259.513 138.42 255.191 141.513C254.162 142.286 248.915 142.617 242.226 141.513C235.538 140.408 228.232 138.53 228.232 138.53" stroke="black" stroke-width="3.4005" stroke-miterlimit="10" stroke-linecap="round" stroke-linejoin="round"/>
<path d="M227.614 138.862C227.614 138.862 220.617 141.071 224.116 146.042C226.585 149.466 229.363 147.036 233.171 146.815C239.139 146.484 246.753 147.809 248.194 147.92C252.001 148.251 258.999 150.129 255.5 142.286" stroke="black" stroke-width="3.4005" stroke-miterlimit="10" stroke-linecap="round" stroke-linejoin="round"/>
<path d="M228.952 159.849C227.511 159.518 224.733 155.321 227.511 153.885C230.29 152.338 251.281 149.797 253.751 150.902C256.22 152.007 258.278 160.623 247.782 158.745C243.564 157.972 237.595 158.745 237.595 158.745C237.595 158.745 231.318 160.402 228.952 159.849Z" stroke="black" stroke-width="3.4005" stroke-miterlimit="10" stroke-linecap="round" stroke-linejoin="round"/>
<path d="M322.385 415.678C322.385 415.678 335.35 447.27 364.677 458.869" stroke="black" stroke-width="3.4005" stroke-miterlimit="10" stroke-linecap="round" stroke-linejoin="round"/>
<path d="M157.231 415.678C157.231 415.678 139.017 450.253 114.939 461.078" stroke="black" stroke-width="3.4005" stroke-miterlimit="10" stroke-linecap="round" stroke-linejoin="round"/>
<path d="M216.192 507.693C219.204 507.693 221.646 506.605 221.646 505.262C221.646 503.92 219.204 502.832 216.192 502.832C213.18 502.832 210.739 503.92 210.739 505.262C210.739 506.605 213.18 507.693 216.192 507.693Z" fill="#F9BFA0"/>
<path d="M183.741 512.201C186.696 511.575 188.895 509.999 188.653 508.682C188.41 507.366 185.818 506.806 182.863 507.433C179.908 508.059 177.709 509.635 177.951 510.952C178.194 512.268 180.786 512.828 183.741 512.201Z" fill="#F9BFA0"/>
<path d="M240.785 191H239.962C238.007 191 236.36 189.232 236.36 187.133V163.274C236.36 161.175 238.007 159.408 239.962 159.408H240.785C242.74 159.408 244.387 161.175 244.387 163.274V187.133C244.387 189.343 242.74 191 240.785 191Z" fill="white" stroke="black" stroke-width="3.0415" stroke-miterlimit="10" stroke-linecap="round" stroke-linejoin="round"/>
<path d="M329.794 576.068C329.794 576.068 298.512 578.167 287.502 582.806C276.389 587.556 265.996 593.742 267.539 605.672C269.494 620.584 289.971 616.166 308.493 609.096C322.796 603.573 335.041 591.422 335.041 591.422L329.794 576.068Z" fill="#447091"/>
<path d="M314.359 600.149C295.837 607.329 275.36 611.747 273.405 596.724C272.89 593.19 273.508 590.207 274.845 587.556C268.98 591.643 265.07 596.945 266.099 604.567C268.054 619.479 288.531 615.061 307.053 607.992C321.356 602.468 333.601 590.318 333.601 590.318L333.189 589.103C328.25 592.858 321.562 597.277 314.359 600.149Z" fill="#346584"/>
<path d="M106.192 475.548C106.192 475.548 106.192 516.309 99.1952 546.354" stroke="black" stroke-width="3.4005" stroke-miterlimit="10" stroke-linecap="round" stroke-linejoin="round"/>
<path d="M126.464 555.412C124.406 555.081 84.7895 568.557 52.2732 552.761" stroke="black" stroke-width="3.4005" stroke-miterlimit="10" stroke-linecap="round" stroke-linejoin="round"/>
<path d="M370.027 564.47C370.027 564.47 393.797 568.557 423.535 554.749" stroke="black" stroke-width="3.4005" stroke-miterlimit="10" stroke-linecap="round" stroke-linejoin="round"/>
<path d="M345.846 559.499L353.872 561.045" stroke="black" stroke-width="3.4005" stroke-miterlimit="10" stroke-linecap="round" stroke-linejoin="round"/>
<path d="M265.893 605.782C265.893 605.782 268.26 618.596 288.222 615.061C311.272 610.974 334.836 591.533 334.836 591.533L329.382 576.51L287.399 582.917" stroke="black" stroke-width="2.7204" stroke-miterlimit="10" stroke-linecap="round" stroke-linejoin="round"/>
<path d="M325.884 568.888C325.884 568.888 326.604 572.975 326.604 575.295" stroke="black" stroke-width="2.7204" stroke-miterlimit="10" stroke-linecap="round" stroke-linejoin="round"/>
<path d="M292.647 515.646C294.977 515.646 296.866 513.618 296.866 511.117C296.866 508.616 294.977 506.588 292.647 506.588C290.317 506.588 288.428 508.616 288.428 511.117C288.428 513.618 290.317 515.646 292.647 515.646Z" fill="#F9BFA0"/>
<path d="M266.099 503.606C268.429 503.606 270.318 501.578 270.318 499.077C270.318 496.575 268.429 494.548 266.099 494.548C263.769 494.548 261.88 496.575 261.88 499.077C261.88 501.578 263.769 503.606 266.099 503.606Z" fill="#F9BFA0"/>
<path d="M225.145 148.251C225.145 148.251 222.675 152.338 226.585 153.553" stroke="black" stroke-width="3.4005" stroke-miterlimit="10" stroke-linecap="round" stroke-linejoin="round"/>
<path d="M144.986 574.19C144.986 574.19 147.764 548.674 160.009 536.633C172.254 524.593 177.811 522.715 177.811 522.715C177.811 522.715 184.087 535.86 196.333 538.511C208.578 541.162 218.353 534.424 219.382 520.506C219.382 520.506 247.371 530.669 256.426 555.854C265.481 581.039 264.143 584.021 264.143 584.021L210.224 605.782L144.986 574.19Z" fill="#ED8EA9"/>
<path d="M193.657 575.295C193.657 575.295 213.62 575.295 217.427 565.906C220.514 558.505 217.015 550.773 220.926 549.337C226.174 547.459 235.949 566.016 235.949 566.016L242.637 579.713L216.089 602.579L191.908 589.103L193.657 575.295Z" fill="#D36A8D" stroke="#D36A8D" stroke-width="0.255" stroke-miterlimit="10"/>
<path d="M239.859 615.503C249.84 612.852 269.597 606.114 277.314 597.829C285.032 589.545 292.029 581.702 286.781 572.644C281.533 563.586 250.355 572.313 229.775 583.911C214.854 592.306 199.008 605.672 199.008 605.672L208.475 623.346C208.372 623.346 230.598 617.933 239.859 615.503Z" fill="#E89EB1"/>
<path d="M286.679 572.313C284.415 568.446 277.418 567.784 268.466 569.33C270.421 569.882 271.861 570.877 272.684 572.313C277.932 581.37 270.935 589.213 263.218 597.498C255.5 605.782 235.743 612.521 225.762 615.172C221.132 616.387 213.311 618.375 206.623 620.032L208.269 623.125C208.269 623.125 230.496 617.712 239.756 615.282C249.738 612.631 269.494 605.893 277.212 597.608C284.929 589.324 291.927 581.37 286.679 572.313Z" fill="#D36A8D" stroke="#D36A8D" stroke-width="0.255" stroke-miterlimit="10"/>
<path d="M226.894 605.782C226.894 605.782 236.361 606.114 246.136 605.782C255.912 605.451 262.188 605.009 262.909 610.643C263.423 614.398 260.439 614.398 260.439 614.398C260.439 614.398 261.468 616.276 260.439 617.823C259.41 619.369 258.381 620.032 258.381 620.032C258.381 620.032 259.101 622.241 257.352 623.456C255.603 624.671 254.883 624.229 254.883 624.229C254.883 624.229 255.912 627.212 252.413 627.654C248.914 627.985 249.223 626.88 249.223 626.88C249.223 626.88 245.004 629.863 242.535 629.863C240.065 629.863 228.54 625.003 226.791 625.334C225.042 625.665 222.984 625.334 222.984 625.334C222.984 625.334 227.203 611.416 226.894 605.782Z" fill="#FFDEB3"/>
<path d="M166.183 608.323C166.183 608.323 162.479 610.643 166.286 614.398C166.286 614.398 164.537 617.823 168.035 620.032C168.035 620.032 167.315 624.119 171.225 624.561C171.225 624.561 170.916 628.317 175.753 627.543C175.753 627.543 184.191 631.299 191.805 628.648C199.523 625.997 208.269 623.346 208.269 623.346L202.713 610.532L166.183 608.323Z" fill="#FFDEB3"/>
<path d="M226.894 605.009C226.894 605.009 226.894 607.218 225.144 615.945C224.013 621.468 222.675 624.561 222.675 624.561C222.675 624.561 129.036 607.771 137.68 574.964C146.426 541.494 228.437 604.457 226.894 605.009Z" fill="#F4B3C1"/>
<path d="M142.207 576.068C142.207 576.068 140.458 573.417 139.738 574.19C139.018 574.963 137.989 581.702 134.49 574.19C132.02 568.888 127.904 561.598 130.683 560.714C134.181 559.609 137.371 564.138 137.68 564.47C137.989 564.801 137.68 562.26 139.429 562.26C141.178 562.26 141.899 564.138 142.928 564.47C143.957 564.801 144.986 563.696 147.455 564.47C149.925 565.243 155.893 567.121 155.482 568.225C155.173 569.33 153.732 574.19 149.205 574.19C145.706 574.19 145.397 572.312 145.397 572.312C145.397 572.312 145.397 576.841 142.207 576.068Z" fill="#FFDEB3"/>
<path d="M269.186 564.47C269.392 566.016 268.877 567.894 271.655 568.557C274.434 569.33 277.932 566.679 277.932 566.679C277.932 566.679 277.726 568.446 279.681 569.33C282.151 570.435 283.489 569.661 283.489 569.661C283.489 569.661 288.016 573.086 291.515 565.574C294.499 559.168 292.956 555.412 291.515 555.854C290.074 556.296 287.399 557.511 286.576 557.732C285.547 558.063 285.238 558.947 283.386 559.609C280.196 560.714 279.579 561.156 279.579 561.156C279.579 561.156 275.36 560.051 274.331 560.383C273.405 560.714 268.877 561.377 269.186 564.47Z" fill="#FFDEB3"/>
<path d="M147.044 563.144C147.044 563.144 149.513 538.18 178.531 521.611C178.531 521.611 181.309 536.302 196.333 538.511C207.549 540.168 213.105 535.197 215.575 531C219.176 524.925 219.073 520.506 219.073 520.506" stroke="black" stroke-width="2.0403" stroke-miterlimit="10" stroke-linecap="round" stroke-linejoin="round"/>
<path d="M261.88 571.208C261.88 571.208 253.442 533.32 219.588 520.506" stroke="black" stroke-width="2.0403" stroke-miterlimit="10" stroke-linecap="round" stroke-linejoin="round"/>
<path d="M137.268 576.4C128.522 605.34 220.514 628.206 222.984 625.223C225.453 622.241 226.791 605.672 226.791 605.672C226.791 605.672 214.237 593.3 200.86 584.242" stroke="black" stroke-width="2.7204" stroke-miterlimit="10" stroke-linecap="round" stroke-linejoin="round"/>
<path d="M269.289 569.551C269.289 569.551 229.672 577.504 215.369 594.073" stroke="black" stroke-width="2.7204" stroke-miterlimit="10" stroke-linecap="round" stroke-linejoin="round"/>
<path d="M218.147 583.248C211.459 584.795 212.179 577.615 212.179 577.615C212.179 577.615 289.148 540.058 294.087 540.058C308.081 540.058 307.052 550.22 307.052 550.22L218.147 583.248Z" fill="#FCF0BE"/>
<path d="M262.909 514.099C262.909 514.099 246.136 520.506 241.197 533.982" stroke="black" stroke-width="2.0403" stroke-miterlimit="10" stroke-linecap="round" stroke-linejoin="round"/>
<path d="M303.554 517.082C303.554 517.082 327.324 532.436 330.514 561.045C330.514 561.045 328.867 576.952 288.634 578.609" stroke="black" stroke-width="2.0403" stroke-miterlimit="10" stroke-linecap="round" stroke-linejoin="round"/>
<path d="M329.793 576.399C329.793 576.399 337.099 563.255 344.817 572.312" stroke="black" stroke-width="2.0403" stroke-miterlimit="10" stroke-linecap="round" stroke-linejoin="round"/>
<path d="M226.894 605.782C226.894 605.782 242.534 605.893 245.004 605.782C247.473 605.782 259.513 604.567 261.159 607.992C261.159 607.992 295.425 594.847 286.678 571.539" stroke="black" stroke-width="2.0403" stroke-miterlimit="10" stroke-linecap="round" stroke-linejoin="round"/>
<path d="M261.159 607.992C263.629 613.294 257.97 613.625 257.97 613.625C257.97 613.625 261.159 613.736 260.851 616.939C260.439 620.032 257.97 620.032 257.97 620.032C257.97 620.032 258.69 620.916 257.97 622.793C257.249 624.561 255.191 624.229 255.191 624.229C255.191 624.229 256.22 625.113 255.191 626.549C254.162 627.985 250.252 627.654 250.252 627.654L248.503 627.433C248.503 627.433 245.725 630.305 242.946 629.973C240.168 629.642 228.232 625.444 226.894 625.444C225.453 625.444 223.807 625.444 223.807 625.444L227.511 605.893" stroke="black" stroke-width="2.0403" stroke-miterlimit="10" stroke-linecap="round" stroke-linejoin="round"/>
<path d="M203.741 581.37C203.741 581.37 175.444 564.47 165.565 559.609C155.07 554.418 133.975 539.616 122.553 541.162C119.055 541.604 111.029 549.778 111.029 549.778L154.761 565.906L200.963 584.353" fill="#FCF0BE"/>
<path d="M306.641 547.901C306.641 547.901 303.451 536.302 288.428 541.162C283.9 542.598 212.591 578.498 208.269 579.824C204.77 580.928 200.963 578.719 200.963 578.719C200.963 578.719 131.3 540.058 122.553 541.162C113.498 542.377 111.132 549.668 111.132 549.668" stroke="black" stroke-width="2.7204" stroke-miterlimit="10" stroke-linecap="round" stroke-linejoin="round"/>
<path d="M104.752 547.127L200.963 584.353C200.963 584.353 204.153 579.492 208.269 580.266C212.488 581.039 216.295 584.353 216.295 584.353L311.786 547.127" stroke="black" stroke-width="2.7204" stroke-miterlimit="10" stroke-linecap="round" stroke-linejoin="round"/>
<path d="M228.952 556.517C228.952 556.517 234.508 564.028 234.92 565.906" stroke="black" stroke-width="2.7204" stroke-miterlimit="10" stroke-linecap="round" stroke-linejoin="round"/>
<path d="M176.885 552.761L174.003 562.923" stroke="black" stroke-width="2.7204" stroke-miterlimit="10" stroke-linecap="round" stroke-linejoin="round"/>
<path d="M208.372 623.346C208.372 623.346 201.581 625.555 197.568 626.77C193.554 627.985 185.631 629.752 182.956 629.421C180.28 629.09 175.444 627.543 175.444 627.543C175.444 627.543 172.769 627.875 172.048 626.77C171.328 625.665 170.917 624.561 170.917 624.561C170.917 624.561 170.196 625.113 169.167 623.677C168.138 622.241 167.418 621.468 168.138 620.363C168.138 620.363 161.861 618.817 166.08 614.398C166.08 614.398 162.89 612.189 164.64 608.433" stroke="black" stroke-width="2.0403" stroke-miterlimit="10" stroke-linecap="round" stroke-linejoin="round"/>
<path d="M258.69 543.372C258.69 543.372 256.734 547.901 255.397 552.761" stroke="black" stroke-width="2.7204" stroke-miterlimit="10" stroke-linecap="round" stroke-linejoin="round"/>
<path d="M335.041 591.863L343.376 591.422" stroke="black" stroke-width="2.0403" stroke-miterlimit="10" stroke-linecap="round" stroke-linejoin="round"/>
<path d="M217.633 603.021C217.118 602.8 216.501 602.579 215.987 602.248C214.958 601.806 214.031 601.253 213.105 600.701C212.694 600.48 212.076 600.591 211.768 600.922L211.665 601.033C211.356 601.474 211.562 602.137 211.973 602.469C211.973 602.469 211.973 602.469 212.076 602.579C213.62 603.573 215.266 604.346 216.913 605.009C217.016 605.009 217.118 605.12 217.221 605.12C217.633 605.12 218.045 604.899 218.147 604.457C218.147 604.346 218.25 604.236 218.25 604.125C218.25 603.573 218.045 603.131 217.633 603.021Z" fill="white"/>
<path d="M206.828 597.387C206.211 597.056 205.593 596.614 204.976 596.172C203.227 595.068 201.58 593.742 200.037 592.527C198.905 591.643 197.67 590.649 196.435 589.876C193.863 587.998 191.599 586.452 188.924 585.126C187.792 584.574 186.66 584.021 185.425 583.58C185.219 583.469 185.013 583.359 184.705 583.359C184.19 583.138 183.573 583.469 183.47 584.021C183.264 584.574 183.573 585.237 184.087 585.347C188.615 587.004 191.599 588.992 195.303 591.643C196.538 592.527 197.67 593.411 198.905 594.294C201.169 595.951 203.432 597.719 205.902 599.265C206.108 599.376 206.211 599.376 206.417 599.376C206.725 599.376 207.137 599.155 207.343 598.823C207.343 598.713 207.446 598.713 207.446 598.602C207.446 598.161 207.24 597.608 206.828 597.387Z" fill="white"/>
<path d="M224.424 543.04L226.894 543.151L226.997 544.808C226.997 545.36 227.511 545.802 228.026 545.802C228.026 545.802 228.026 545.802 228.128 545.802C228.643 545.802 229.055 545.249 229.055 544.697L228.952 543.261L232.759 543.372C233.171 543.372 233.582 543.151 233.685 542.709C233.891 542.267 233.788 541.825 233.479 541.494L231.318 539.284L232.965 538.401C233.479 538.18 233.582 537.517 233.376 536.965C233.171 536.412 232.553 536.302 232.039 536.523L229.878 537.738L228.334 536.192C228.026 535.86 227.614 535.86 227.202 535.971C226.791 536.192 226.585 536.523 226.688 536.965L226.791 539.395L224.115 540.941C223.704 541.162 223.498 541.604 223.601 542.156C223.601 542.709 224.013 543.04 224.424 543.04Z" fill="#DB4D7D"/>
<path d="M183.264 548.011C183.367 548.232 183.573 548.342 183.779 548.342C184.088 548.453 184.396 548.342 184.602 548.122L185.014 547.79L186.146 549.668C186.351 549.999 186.66 550.11 186.969 550.11C187.072 550.11 187.072 550.11 187.175 550.11C187.586 549.999 187.895 549.668 187.895 549.226L188.101 547.68L188.718 548.011C189.233 548.232 189.747 548.122 190.056 547.569C190.262 547.017 190.159 546.465 189.644 546.133L188.409 545.47L188.615 544.255C188.718 543.814 188.512 543.372 188.101 543.151C187.792 542.93 187.277 542.93 186.969 543.261L186.043 544.145L185.837 544.034L184.499 543.261C184.088 543.04 183.573 543.151 183.367 543.482C183.059 543.813 183.059 544.366 183.264 544.808L183.985 546.023L183.367 546.465C183.059 546.906 182.956 547.569 183.264 548.011Z" fill="white"/>
<path d="M200.346 561.819C200.551 562.15 200.86 562.371 201.169 562.371H202.404V563.144C202.404 563.697 202.918 564.138 203.433 564.138C203.433 564.138 203.433 564.138 203.535 564.138C204.05 564.138 204.462 563.586 204.462 563.034V562.481L206.52 562.592C206.931 562.592 207.343 562.371 207.446 561.929C207.651 561.487 207.549 561.045 207.24 560.714L206.52 560.051L206.108 559.609L206.725 559.278C207.24 559.057 207.343 558.394 207.137 557.842C206.931 557.29 206.314 557.179 205.799 557.4L204.564 558.063L203.741 557.29C203.433 556.958 203.021 556.958 202.609 557.069C202.198 557.29 201.992 557.621 202.095 558.063L202.198 559.389L200.654 560.272C200.243 560.493 200.037 560.935 200.14 561.487C200.243 561.708 200.243 561.819 200.346 561.819Z" fill="white"/>
<path d="M292.647 555.522C292.647 555.522 292.75 555.964 292.75 556.516C292.956 558.394 293.264 562.15 292.235 564.359C290.795 567.342 288.737 569.993 286.679 570.324C285.238 570.545 284.209 569.993 284.209 569.993C284.209 569.993 281.74 571.871 279.99 570.766C278.344 569.661 277.521 567.784 277.521 567.784C277.521 567.784 275.772 569.661 273.302 569.993C271.244 570.324 269.7 568.667 269.083 568.115C268.054 567.01 267.642 564.47 268.877 564.249C270.112 564.028 277.83 560.162 280.299 560.051" stroke="black" stroke-width="2.7204" stroke-miterlimit="10" stroke-linecap="round" stroke-linejoin="round"/>
<path d="M156.51 567.452C156.51 567.452 155.79 571.539 154.041 572.754C152.291 573.969 149.101 574.522 147.352 573.859C146.323 573.528 145.294 572.313 145.294 572.313C145.294 572.313 145.603 576.068 142.825 576.068C140.767 576.068 140.046 573.417 140.046 573.417C140.046 573.417 139.532 573.307 138.606 574.522C137.165 576.4 134.078 576.4 133.049 573.417C132.74 572.644 128.521 564.028 129.55 561.819C130.579 559.609 131.608 559.609 133.049 559.941C134.49 560.272 136.856 564.028 136.856 564.028C136.856 564.028 137.268 561.045 138.297 560.604C140.046 559.83 142.516 560.604 142.825 562.813C143.133 564.47 145.294 563.917 145.294 563.917C145.294 563.917 156.201 565.574 156.51 567.452Z" stroke="black" stroke-width="2.7204" stroke-miterlimit="10" stroke-linecap="round" stroke-linejoin="round"/>
</svg>
