<svg width="25" height="25" viewBox="0 0 25 25" fill="none" xmlns="http://www.w3.org/2000/svg">
<path d="M23.3594 13.6719C23.2031 13.4375 22.9688 13.2812 22.6562 13.2812C20.9375 13.2812 19.2969 14.0625 18.2812 15.4687L17.5781 16.4062C16.7187 17.4219 15.3906 17.9688 14.0625 17.9688H11.7188C11.25 17.9688 10.9375 17.6562 10.9375 17.1875C10.9375 16.7188 11.25 16.4062 11.7188 16.4062H13.2031C14.4531 16.4062 15.625 15.3906 15.625 14.1406V14.0625C15.625 13.6719 15.2344 13.2812 14.8437 13.2812H10.0781C7.26562 13.2812 5 14.5313 3.75 16.5625L1.64063 19.8437C1.48438 20.0781 1.48438 20.3906 1.64063 20.625L3.98438 24.5312C4.0625 24.6875 4.29688 24.8438 4.45312 24.9219C4.53125 24.9219 4.53125 24.9219 4.60938 24.9219C4.76563 24.9219 4.92188 24.8438 5.07813 24.7656C8.04688 22.8125 11.4844 21.7969 15 21.7969C17.5781 21.7969 19.9219 20.3906 21.1719 18.125L23.2812 14.375C23.4375 14.2187 23.4375 13.9062 23.3594 13.6719Z" fill="#FF6C4F"/>
<path d="M10.0781 11.7188H14.8438C16.0938 11.7188 17.1875 12.7344 17.1875 13.9844V14.1406L22.0313 9.14062C23.9062 7.1875 23.9062 4.14062 22.0313 2.1875C21.0938 1.32812 19.9219 0.78125 18.6719 0.78125C17.4219 0.78125 16.1719 1.32813 15.2344 2.26563L14.8438 2.65625L14.4531 2.26563C13.5156 1.32813 12.3438 0.78125 11.0156 0.78125C9.76563 0.78125 8.59375 1.32813 7.65625 2.26563C5.78125 4.21875 5.78125 7.26562 7.65625 9.21875L10.0781 11.7188ZM10.9375 7.03125H12.1875L13.5156 5.70312C13.6719 5.54688 13.9063 5.46875 14.2188 5.46875C14.4531 5.54688 14.6875 5.70312 14.7656 5.85938L15.5469 7.42188L16.4844 5.15625C16.5625 4.92188 16.7969 4.6875 17.1094 4.6875C17.4219 4.6875 17.6562 4.76562 17.8125 5L19.375 7.34375C19.6094 7.73437 19.5312 8.20312 19.1406 8.4375C18.75 8.67188 18.2812 8.59375 18.0469 8.20312L17.3438 7.10938L16.3281 9.60938C16.25 9.92188 15.9375 10.1562 15.625 10.1562C15.3125 10.1562 15.0781 10 14.9219 9.6875L13.8281 7.5L13.0469 8.28125C12.8906 8.51563 12.7344 8.59375 12.5 8.59375H10.9375C10.4688 8.59375 10.1562 8.28125 10.1562 7.8125C10.1562 7.34375 10.4688 7.03125 10.9375 7.03125Z" fill="#FF6C4F"/>
</svg>
