<svg width="336" height="280" viewBox="0 0 336 280" fill="none" xmlns="http://www.w3.org/2000/svg">
<rect width="336" height="280" fill="#B2D3CC"/>
<g opacity="0.5" clip-path="url(#clip0_264_3)">
<path d="M228.175 172.637C238.392 165.869 245 154.995 245 142.678C245 122.151 226.398 105.452 203.52 105.452C202.798 105.452 202.132 105.452 201.465 105.507C202.132 102.012 202.465 98.4614 202.465 94.8553C202.409 59.0157 170.036 30 130.055 30C90.0742 30 57.7008 59.0157 57.7008 94.8553C57.7008 100.903 58.6448 106.728 60.3107 112.22C58.4227 111.998 56.4236 111.832 54.4801 111.832C31.5467 111.832 13 128.476 13 149.059C13 168.865 30.325 185.12 52.0924 186.23C51.5926 188.338 51.315 190.502 51.315 192.665C51.315 213.193 75.1369 229.892 104.512 229.892C120.004 229.892 133.942 225.287 143.66 217.908C153.433 226.508 168.481 232.055 185.417 232.055C214.792 232.055 238.614 215.412 238.614 194.829C238.614 186.507 234.727 178.851 228.175 172.637Z" fill="#DFEDED"/>
</g>
<g clip-path="url(#clip1_264_3)">
<path d="M52.8741 199.92C52.8327 203.464 52.7913 207.398 52.6671 211.332C52.6257 213.147 52.4187 214.919 52.2945 216.735C52.2531 217.383 51.9633 217.729 51.4251 217.772C50.7627 217.815 50.2659 217.426 50.1418 216.821C50.1004 216.562 50.1832 216.043 49.9762 215.87C49.6864 215.611 49.5208 216.475 49.3966 216.605C49.1896 216.865 48.817 216.951 48.5272 216.951C47.9062 216.951 47.5336 216.605 47.5336 215.914C47.4508 214.012 47.4095 212.11 47.3681 210.208C47.3267 208.306 47.2853 206.404 47.2439 204.502C47.2439 203.637 47.2439 202.73 47.2439 201.865C47.2439 201.649 47.2439 201.39 47.1197 201.173C47.0369 201.001 46.8299 200.784 46.6643 200.784C46.2089 200.784 45.7949 200.828 45.3395 200.957C44.3874 201.173 43.4352 201.433 42.483 201.692C40.7443 202.124 39.047 202.6 37.3082 202.946C36.1905 203.205 35.0313 203.119 33.8721 202.989C33.6652 202.946 33.4168 202.903 33.2098 202.903C32.9614 202.903 32.7958 203.032 32.7544 203.292C32.6716 203.897 32.6302 204.502 32.6302 205.107C32.6716 206.663 32.713 208.263 32.7544 209.819C32.8372 211.591 32.92 213.32 33.0028 215.092C33.0028 215.395 33.0028 215.741 32.9614 216.043C32.92 216.346 32.6716 216.519 32.4232 216.562C32.1334 216.605 31.885 216.432 31.8022 216.13C31.6366 215.438 31.4296 214.703 31.3468 213.968C30.9743 210.51 30.6845 207.009 30.8501 203.464C30.8915 202.211 30.8501 201.001 30.8087 199.747C30.8087 199.315 30.9329 198.493 30.7673 198.061C30.6845 197.888 30.5603 197.586 30.2705 197.932C30.1463 198.104 30.1877 198.71 30.1877 198.926C29.6081 205.193 29.7737 211.461 29.9807 217.686C29.9807 218.291 30.0635 218.896 30.0635 219.501C30.0635 219.977 29.7737 220.279 29.3183 220.323C29.1527 220.366 28.9457 220.323 28.7801 220.323C28.035 220.279 27.8694 220.106 27.828 219.328C27.7866 218.377 27.7866 217.383 27.7866 216.432C27.5382 210.986 27.621 205.583 27.5796 200.136C27.5382 197.499 27.414 194.906 27.2898 192.269C27.207 188.984 27.0828 185.699 27 182.413C27 182.024 27 181.679 27.0414 181.29C27.0828 180.944 27.414 180.728 27.7452 180.857C28.3661 181.03 28.7387 181.419 28.7801 182.111C28.8629 183.321 28.9457 184.531 29.0285 185.699C29.0699 186.174 29.0285 186.606 29.0699 187.082C29.1113 187.298 29.2355 187.86 29.5667 187.73C29.8151 187.644 29.7737 186.952 29.8151 186.736C29.9393 185.655 30.0635 184.575 29.9807 183.494C29.9807 183.364 29.9807 183.235 29.9807 183.062C30.0221 182.586 30.3533 182.327 30.8087 182.37C31.471 182.457 32.0092 182.673 32.1748 183.451C32.2576 183.926 32.4646 184.445 32.506 184.92C32.7544 187.73 32.7958 190.583 32.7544 193.393C32.7544 194.041 32.7544 194.69 32.7958 195.338C32.8372 195.813 33.0856 195.986 33.541 195.857C34.2033 195.727 34.8243 195.554 35.4867 195.381C36.6044 195.035 37.7636 195.079 38.9228 195.208C40.1647 195.338 41.3653 195.554 42.6072 195.77C43.7664 195.986 44.9669 196.246 46.1261 196.462C46.2917 196.505 46.4987 196.505 46.6643 196.505C47.0783 196.505 47.3267 196.246 47.3681 195.813C47.4509 195.035 47.4922 194.257 47.5336 193.479C47.6164 190.799 47.989 188.119 47.8648 185.439C47.8234 184.575 47.7406 183.667 47.6992 182.802C47.6992 182.5 47.6578 182.154 47.6578 181.851C47.6578 181.419 47.9062 181.16 48.3202 181.16C48.4858 181.16 48.6928 181.246 48.8584 181.203C49.0654 181.16 49.2724 181.073 49.438 180.944C49.6036 180.814 49.6864 180.555 49.852 180.425C50.1004 180.209 50.3901 180.122 50.7213 180.252C51.4251 180.511 51.9633 180.944 52.1289 181.765C52.2117 182.111 52.2531 182.5 52.2945 182.846C52.4187 188.422 52.6671 193.955 52.8741 199.92ZM33.3754 200.871C34.1205 200.784 34.8657 200.741 35.6109 200.655C36.2319 200.612 36.977 200.655 37.5566 200.439C38.5088 200.093 37.5566 199.747 37.0598 199.704C36.3561 199.617 35.6937 199.444 35.0313 199.315C34.4517 199.185 33.9135 199.099 33.334 198.969C33.0442 198.926 32.7958 199.099 32.7544 199.401C32.713 199.574 32.713 199.747 32.713 199.963C32.7544 200.612 33.0028 200.871 33.3754 200.871ZM40.9513 198.061C41.2411 198.061 42.7314 198.234 42.3174 197.586C42.1932 197.413 41.7793 197.413 41.6137 197.326C41.4067 197.24 41.1997 197.24 40.9513 197.197C40.2061 197.11 39.4609 197.067 38.7158 197.024C38.4674 197.024 38.1362 196.981 37.8878 197.11C37.598 197.283 37.4738 197.542 37.9292 197.629C38.8814 197.759 39.7921 197.975 40.7443 198.061C40.7443 198.061 40.8271 198.061 40.9513 198.061Z" fill="white"/>
<path d="M208.491 199.92C208.408 203.464 208.367 207.398 208.284 211.332C208.243 213.147 208.036 214.919 207.911 216.735C207.87 217.383 207.58 217.729 207.042 217.772C206.38 217.815 205.883 217.426 205.759 216.821C205.717 216.562 205.8 216.043 205.593 215.87C205.303 215.611 205.138 216.475 205.013 216.605C204.807 216.865 204.434 216.951 204.144 216.951C203.523 216.951 203.151 216.605 203.151 215.914C203.068 214.012 203.026 212.11 202.985 210.208C202.944 208.306 202.902 206.404 202.861 204.502C202.861 203.637 202.861 202.73 202.861 201.865C202.861 201.649 202.861 201.39 202.737 201.173C202.654 201.001 202.447 200.784 202.281 200.784C201.826 200.784 201.412 200.828 200.956 200.957C200.004 201.173 199.052 201.433 198.1 201.692C196.361 202.124 194.664 202.6 192.925 202.946C191.807 203.205 190.648 203.119 189.489 202.989C189.282 202.946 189.034 202.903 188.827 202.903C188.578 202.903 188.413 203.032 188.371 203.292C188.289 203.897 188.247 204.502 188.247 205.107C188.289 206.663 188.33 208.263 188.371 209.819C188.454 211.591 188.537 213.32 188.62 215.092C188.62 215.395 188.62 215.741 188.578 216.043C188.537 216.346 188.289 216.519 188.04 216.562C187.75 216.605 187.502 216.432 187.419 216.13C187.254 215.438 187.047 214.703 186.964 213.968C186.591 210.467 186.343 206.966 186.467 203.421C186.508 202.168 186.467 200.957 186.426 199.704C186.426 199.272 186.55 198.45 186.384 198.018C186.301 197.845 186.177 197.543 185.887 197.888C185.763 198.061 185.805 198.666 185.805 198.883C185.225 205.107 185.432 211.375 185.598 217.643C185.598 218.248 185.68 218.853 185.68 219.458C185.68 219.934 185.391 220.236 184.935 220.279C184.77 220.323 184.563 220.279 184.397 220.279C183.652 220.236 183.486 220.063 183.445 219.285C183.403 218.334 183.403 217.34 183.403 216.389C183.197 210.986 183.238 205.539 183.197 200.136C183.155 197.499 183.031 194.862 182.948 192.226C182.824 188.941 182.741 185.655 182.658 182.37C182.658 181.981 182.658 181.635 182.7 181.246C182.741 180.9 183.072 180.684 183.403 180.814C184.024 180.987 184.397 181.376 184.438 182.068C184.521 183.278 184.604 184.488 184.687 185.655C184.728 186.131 184.687 186.563 184.728 187.039C184.77 187.255 184.894 187.817 185.225 187.687C185.473 187.601 185.432 186.909 185.473 186.693C185.598 185.612 185.722 184.531 185.639 183.451C185.639 183.321 185.639 183.191 185.639 183.019C185.68 182.543 186.012 182.284 186.467 182.327C187.129 182.413 187.668 182.63 187.833 183.408C187.916 183.883 188.123 184.402 188.164 184.877C188.413 187.687 188.454 190.54 188.413 193.35C188.413 193.998 188.413 194.646 188.454 195.295C188.496 195.77 188.744 195.943 189.199 195.813C189.862 195.684 190.483 195.511 191.145 195.338C192.263 194.992 193.422 195.035 194.581 195.165C195.823 195.295 197.024 195.511 198.266 195.727C199.425 195.943 200.625 196.202 201.784 196.419C201.95 196.462 202.157 196.462 202.323 196.462C202.737 196.462 202.985 196.202 203.026 195.77C203.109 194.992 203.151 194.214 203.192 193.436C203.275 190.756 203.647 188.076 203.523 185.396C203.482 184.531 203.399 183.624 203.358 182.759C203.358 182.457 203.316 182.111 203.316 181.808C203.316 181.376 203.565 181.117 203.979 181.117C204.144 181.117 204.351 181.203 204.517 181.16C204.724 181.117 204.931 181.03 205.096 180.9C205.262 180.771 205.345 180.511 205.51 180.382C205.759 180.166 206.048 180.079 206.38 180.209C207.083 180.468 207.622 180.9 207.787 181.722C207.87 182.068 207.911 182.457 207.953 182.802C208.036 188.422 208.243 193.955 208.491 199.92ZM188.992 200.871C189.737 200.784 190.483 200.741 191.228 200.655C191.849 200.612 192.594 200.655 193.174 200.439C194.126 200.093 193.174 199.747 192.677 199.704C191.973 199.617 191.311 199.444 190.648 199.315C190.069 199.185 189.53 199.099 188.951 198.969C188.661 198.926 188.413 199.099 188.371 199.401C188.33 199.574 188.33 199.747 188.33 199.963C188.371 200.612 188.578 200.871 188.992 200.871ZM196.568 198.061C196.858 198.061 198.348 198.234 197.934 197.586C197.81 197.413 197.396 197.413 197.231 197.326C197.024 197.24 196.817 197.24 196.568 197.197C195.823 197.11 195.078 197.067 194.333 197.024C194.084 197.024 193.753 196.981 193.505 197.11C193.215 197.283 193.091 197.543 193.546 197.629C194.498 197.759 195.409 197.975 196.361 198.061C196.361 198.061 196.444 198.061 196.568 198.061Z" fill="white"/>
<path d="M223.353 204.502C223.353 205.755 223.353 206.966 223.353 208.219C223.353 211.159 223.353 214.141 223.394 217.081C223.394 218.248 222.815 218.637 221.904 218.205C221.283 217.902 221.117 217.772 221.117 217.081C221.117 213.234 221.117 209.343 221.159 205.496C221.2 203.205 221.324 200.914 221.407 198.666C221.531 196.419 221.697 194.214 221.738 191.966C221.78 190.626 221.697 189.286 221.697 187.903C221.697 186.909 221.738 185.958 221.656 184.964C221.531 183.797 221.49 182.63 221.407 181.506C221.407 181.376 221.366 181.246 221.366 181.073C221.283 180.339 221.697 179.95 222.442 180.252C222.649 180.339 222.856 180.468 222.98 180.641C223.312 181.073 223.643 181.333 224.222 181.376C224.885 181.419 225.257 181.895 225.464 182.5C225.588 182.802 225.671 183.148 225.671 183.451C225.795 184.661 226.002 185.871 226.002 187.082C226.085 189.892 226.044 192.658 226.044 195.468C226.044 196.851 226.085 198.277 226.085 199.661C226.085 199.963 226.127 200.309 226.209 200.612C226.251 200.828 226.251 201.173 226.499 201.13C226.665 201.13 226.872 200.914 226.996 200.741C227.162 200.525 227.327 200.309 227.451 200.05C228.859 197.499 230.515 195.122 232.088 192.744C233.123 191.188 234.365 189.762 235.648 188.422C236.269 187.773 236.849 187.082 237.47 186.39C238.546 185.18 239.581 184.013 240.658 182.802C241.072 182.327 241.568 181.895 242.065 181.506C242.686 181.03 243.307 181.073 243.762 181.506C244.011 181.765 244.218 182.111 243.969 182.5C243.721 182.932 243.804 183.235 244.218 183.537C244.425 183.667 244.549 183.97 244.632 184.229C244.756 184.531 244.715 184.877 244.466 185.137C241.568 188.595 239.209 192.442 236.766 196.202C236.435 196.721 235.731 197.456 235.773 198.148C235.814 198.537 236.145 198.796 236.311 199.099C236.6 199.617 236.807 200.223 237.097 200.741C238.298 202.989 240.037 204.848 241.072 207.182C241.32 207.701 241.527 208.263 241.817 208.738C242.313 209.646 243.059 210.381 243.638 211.245C244.094 211.894 244.425 212.628 244.797 213.363C245.129 214.055 245.418 214.876 245.874 215.568C246.164 216.043 246.536 216.173 246.95 216.519C247.281 216.821 247.571 217.124 247.488 217.643C247.405 218.161 246.536 218.55 247.033 219.069C247.199 219.285 247.447 219.458 247.613 219.674C247.695 219.761 247.695 219.934 247.654 220.063C247.612 220.15 247.447 220.279 247.364 220.279C247.116 220.279 246.826 220.236 246.578 220.15C245.087 219.458 243.597 218.68 242.438 217.426C242.107 217.037 241.693 216.778 241.32 216.432C239.084 214.401 237.304 211.937 235.731 209.343C235.069 208.263 234.365 207.139 233.744 206.058C233.289 205.323 232.792 204.761 231.84 204.761C231.426 204.761 231.219 204.459 231.26 203.983C231.301 203.032 231.508 202.038 231.881 201.173C232.005 200.914 232.336 200.568 232.254 200.266C232.171 199.92 231.922 200.006 231.757 200.266C230.97 201.346 230.225 202.47 229.48 203.551C229.19 203.94 228.9 204.459 228.528 204.718C228.238 204.934 227.948 204.977 227.658 205.15C226.996 205.626 226.251 206.404 226.251 207.312C226.251 209.646 226.251 211.98 226.251 214.314C226.251 214.746 226.334 215.135 226.334 215.568C226.334 216.13 225.878 216.519 225.34 216.389C224.347 216.216 223.974 215.784 223.933 214.66C223.891 212.412 223.933 210.208 223.974 207.96C224.015 206.534 224.222 205.107 224.347 203.637C224.388 203.421 224.347 203.162 224.347 202.946C224.305 200.05 224.222 197.197 224.181 194.301C224.14 193.09 224.305 191.664 224.015 190.497C223.933 190.151 223.767 189.892 223.56 190.324C223.394 190.67 223.436 191.232 223.394 191.621C223.312 194.257 223.229 196.937 223.187 199.574C223.353 201.26 223.353 202.859 223.353 204.502ZM234.945 203.335C235.027 202.946 234.572 202.384 234.365 202.081C234.117 201.692 233.744 201.735 233.537 202.168C233.247 202.73 233.371 203.075 233.91 203.335C234.158 203.421 234.82 203.767 234.945 203.335Z" fill="white"/>
<path d="M167.506 216.519C167.548 214.098 167.258 211.721 167.01 209.343C166.886 208.003 166.761 206.663 166.637 205.323C166.43 203.378 166.182 201.476 165.975 199.531C165.685 196.894 165.437 194.257 165.188 191.621C165.147 191.188 165.271 188.595 164.36 188.897C163.988 189.027 163.491 189.978 163.325 190.367C161.297 194.43 159.227 198.494 157.447 202.686C156.246 205.583 154.963 208.522 153.058 211.072C152.023 212.499 151.113 214.012 150.119 215.481C149.995 215.654 149.788 215.914 149.581 215.957C149.001 216.043 148.629 216.389 148.215 216.778C147.552 217.383 146.724 217.686 145.979 218.118C145.482 218.377 144.986 218.637 144.655 219.156C144.282 219.761 143.744 219.804 143.123 219.588C142.916 219.501 142.667 219.415 142.46 219.328C141.674 218.939 141.55 218.507 141.839 217.643C142.046 217.081 142.253 216.519 142.336 215.914C142.585 214.098 142.792 212.239 142.792 210.381C142.874 205.194 142.833 200.006 142.75 194.819C142.75 194.084 142.667 193.306 142.585 192.572C142.543 192.139 142.502 191.664 142.46 191.232C142.295 188.897 142.088 186.563 141.922 184.229C141.881 183.364 141.839 182.543 141.839 181.679C141.839 181.073 142.046 180.814 142.585 180.771C143.206 180.728 143.785 180.511 144.365 180.295C145.4 179.95 146.269 180.511 146.517 181.635C146.559 181.895 146.6 182.111 146.6 182.37C146.6 184.445 147.014 186.433 147.221 188.465C147.387 190.021 147.552 191.534 147.718 193.09C148.091 196.419 148.422 199.747 148.794 203.032C148.877 203.637 148.794 206.534 149.954 205.799C150.409 205.496 150.823 204.588 151.113 204.156C151.485 203.594 151.858 203.032 152.272 202.47C153.058 201.303 153.845 200.136 154.59 198.969C155.17 198.018 155.749 197.024 156.37 196.159C156.701 195.684 157.115 195.252 157.488 194.776C158.978 192.917 160.262 190.799 161.587 188.854C162.414 187.644 163.035 186.261 163.532 184.877C163.698 184.445 163.698 183.883 163.781 183.408C163.863 182.889 164.195 182.63 164.65 182.586C165.23 182.5 165.809 182.5 166.265 182.932C166.72 183.364 167.134 183.192 167.506 182.802C167.755 182.586 168.086 182.413 168.293 182.197C168.873 181.635 169.535 181.722 170.197 181.851C171.191 182.068 171.729 183.148 171.191 184.056C170.694 184.877 170.611 185.742 170.653 186.65C170.736 189.027 170.86 191.448 170.901 193.825C170.943 196.678 170.943 199.531 170.86 202.341C170.777 205.194 170.529 208.003 170.363 210.856C170.239 212.499 170.073 214.141 169.949 215.784C169.908 216.648 169.949 217.47 169.949 218.334C169.949 218.594 170.032 218.853 170.032 219.069C169.866 220.496 168.997 220.712 167.838 220.193C167.465 220.02 167.382 219.588 167.382 219.156C167.506 218.205 167.506 217.383 167.506 216.519ZM147.884 208.781C147.966 208.133 147.718 207.355 147.635 206.706C147.387 204.934 147.097 203.119 146.849 201.346C146.642 199.617 146.476 197.888 146.269 196.159C146.228 195.9 146.103 194.041 145.524 194.646C145.317 194.863 145.441 195.77 145.4 196.03C145.358 197.067 145.275 198.104 145.275 199.142C145.234 200.439 145.234 201.735 145.193 203.032C145.151 205.755 145.069 208.522 145.027 211.245C145.027 211.505 144.944 212.326 145.11 212.499C145.441 212.888 145.648 212.283 145.731 211.98C145.896 211.461 146.352 211.116 146.724 210.726C147.18 210.294 147.635 209.646 147.801 208.997C147.842 208.911 147.842 208.868 147.884 208.781ZM169.162 193.998C169.162 193.868 169.162 193.782 169.162 193.652C169.245 191.361 169.287 189.07 169.245 186.822C169.245 186.044 169.121 184.748 168.045 185.18C167.382 185.439 166.968 186.433 167.01 187.125C167.134 189.07 167.258 191.015 167.424 192.917C167.548 194.56 167.796 196.159 167.838 197.802C167.879 198.883 168.003 200.006 168.127 201.087C168.21 201.649 168.293 202.168 168.376 202.686C168.5 203.464 168.914 203.248 169.038 202.6C169.204 201.822 169.162 201.001 169.204 200.223C169.287 198.191 169.121 196.073 169.162 193.998ZM149.912 210.251C149.995 210.554 149.995 210.683 150.036 210.856C150.119 211.115 150.409 211.202 150.616 210.986C151.444 210.078 152.065 208.997 152.644 207.917C153.39 206.447 154.3 204.977 154.88 203.421C155.377 202.038 153.928 203.897 153.679 204.243C153.1 205.064 152.52 205.842 151.941 206.663C151.361 207.485 150.864 208.306 150.368 209.17C150.119 209.559 149.995 209.992 149.912 210.251ZM148.505 213.234C148.463 213.104 148.38 213.017 148.215 212.974C147.966 212.931 147.552 213.406 147.428 213.579C146.973 214.141 147.387 214.66 147.966 214.185C148.173 214.055 148.587 213.536 148.505 213.234Z" fill="white"/>
<path d="M284.209 216.519C284.25 214.098 283.96 211.721 283.712 209.343C283.588 208.003 283.464 206.663 283.339 205.323C283.132 203.378 282.884 201.476 282.677 199.531C282.387 196.894 282.139 194.257 281.89 191.621C281.849 191.188 281.973 188.595 281.062 188.897C280.69 189.027 280.193 189.978 280.028 190.367C277.999 194.43 275.929 198.494 274.149 202.686C272.948 205.583 271.665 208.522 269.761 211.072C268.726 212.499 267.815 214.012 266.821 215.481C266.697 215.654 266.49 215.914 266.283 215.957C265.704 216.043 265.331 216.389 264.917 216.778C264.255 217.383 263.427 217.686 262.682 218.118C262.185 218.377 261.688 218.637 261.357 219.156C260.984 219.761 260.446 219.804 259.825 219.588C259.618 219.501 259.37 219.415 259.163 219.328C258.376 218.939 258.252 218.507 258.542 217.643C258.749 217.081 258.956 216.519 259.038 215.914C259.287 214.098 259.494 212.239 259.494 210.381C259.577 205.194 259.535 200.006 259.452 194.819C259.452 194.084 259.37 193.306 259.287 192.572C259.245 192.139 259.204 191.664 259.163 191.232C258.997 188.897 258.79 186.563 258.624 184.229C258.583 183.364 258.542 182.543 258.542 181.679C258.542 181.073 258.749 180.814 259.287 180.771C259.908 180.728 260.487 180.511 261.067 180.295C262.102 179.95 262.971 180.511 263.22 181.635C263.261 181.895 263.303 182.111 263.303 182.37C263.303 184.445 263.717 186.433 263.923 188.465C264.089 190.021 264.255 191.534 264.42 193.09C264.793 196.419 265.124 199.747 265.497 203.032C265.579 203.637 265.497 206.534 266.656 205.799C267.111 205.496 267.525 204.588 267.815 204.156C268.188 203.594 268.56 203.032 268.974 202.47C269.761 201.303 270.547 200.136 271.292 198.969C271.872 198.018 272.452 197.024 273.073 196.159C273.404 195.684 273.818 195.252 274.19 194.776C275.681 192.917 276.964 190.799 278.289 188.854C279.117 187.644 279.738 186.261 280.235 184.877C280.4 184.445 280.4 183.883 280.483 183.408C280.566 182.889 280.897 182.63 281.352 182.586C281.932 182.5 282.511 182.5 282.967 182.932C283.422 183.364 283.836 183.192 284.209 182.802C284.457 182.586 284.788 182.413 284.995 182.197C285.575 181.635 286.237 181.722 286.9 181.851C287.893 182.068 288.431 183.148 287.893 184.056C287.396 184.877 287.314 185.742 287.355 186.65C287.438 189.027 287.562 191.448 287.603 193.825C287.645 196.678 287.645 199.531 287.562 202.341C287.479 205.194 287.231 208.003 287.065 210.856C286.941 212.499 286.775 214.141 286.651 215.784C286.61 216.648 286.651 217.47 286.651 218.334C286.651 218.594 286.734 218.853 286.734 219.069C286.568 220.496 285.699 220.712 284.54 220.193C284.167 220.02 284.085 219.588 284.085 219.156C284.25 218.205 284.209 217.383 284.209 216.519ZM264.586 208.781C264.669 208.133 264.42 207.355 264.337 206.706C264.089 204.934 263.799 203.119 263.551 201.346C263.344 199.617 263.178 197.888 262.971 196.159C262.93 195.9 262.806 194.041 262.226 194.646C262.019 194.863 262.143 195.77 262.102 196.03C262.061 197.067 261.978 198.104 261.978 199.142C261.936 200.439 261.936 201.735 261.895 203.032C261.854 205.755 261.771 208.522 261.729 211.245C261.729 211.505 261.647 212.326 261.812 212.499C262.143 212.888 262.35 212.283 262.433 211.98C262.599 211.461 263.054 211.116 263.427 210.726C263.882 210.294 264.337 209.646 264.503 208.997C264.544 208.911 264.586 208.868 264.586 208.781ZM285.865 193.998C285.865 193.868 285.865 193.782 285.865 193.652C285.947 191.361 285.989 189.07 285.948 186.822C285.948 186.044 285.823 184.748 284.747 185.18C284.085 185.439 283.671 186.433 283.712 187.125C283.836 189.07 283.96 191.015 284.126 192.917C284.25 194.56 284.499 196.159 284.54 197.802C284.581 198.883 284.706 200.006 284.83 201.087C284.913 201.649 284.995 202.168 285.078 202.686C285.202 203.464 285.616 203.248 285.741 202.6C285.906 201.822 285.865 201.001 285.906 200.223C285.989 198.191 285.823 196.073 285.865 193.998ZM266.614 210.251C266.697 210.554 266.697 210.683 266.739 210.856C266.821 211.115 267.111 211.202 267.318 210.986C268.146 210.078 268.767 208.997 269.347 207.917C270.092 206.447 271.003 204.977 271.582 203.421C272.079 202.038 270.63 203.897 270.382 204.243C269.802 205.064 269.223 205.842 268.643 206.663C268.063 207.485 267.567 208.306 267.07 209.17C266.821 209.559 266.739 209.992 266.614 210.251ZM265.207 213.234C265.165 213.104 265.083 213.017 264.917 212.974C264.669 212.931 264.255 213.406 264.13 213.579C263.675 214.141 264.089 214.66 264.669 214.185C264.876 214.055 265.29 213.536 265.207 213.234Z" fill="white"/>
<path d="M66.8668 197.759C66.8668 197.543 66.8668 197.326 66.8668 197.11C66.8668 196.03 66.784 194.949 66.8254 193.868C66.9496 190.972 67.3222 188.119 68.2743 185.396C68.4399 184.921 68.6055 184.445 68.8125 184.013C69.1437 183.321 69.5577 182.759 70.4685 182.889C70.7582 182.932 71.1308 182.759 71.4206 182.586C71.9588 182.284 72.497 181.938 72.9938 181.549C76.8438 178.782 81.6874 180.684 84.9165 183.753C86.2827 185.05 87.4832 186.39 88.4354 188.033C89.2634 189.459 89.6774 191.015 90.0913 192.615C90.5467 194.56 90.8365 196.548 90.8779 198.537C90.9193 200.612 90.7537 202.73 90.5881 204.804C90.5053 205.885 90.2983 206.966 90.1327 208.046C89.7602 210.424 88.8908 212.672 87.7316 214.703C86.2413 217.34 84.0472 219.112 81.2321 219.977C78.5412 220.798 75.9331 220.366 73.4491 219.112C71.9174 218.334 70.841 216.951 69.9303 215.481C68.5641 213.277 67.8603 210.77 67.405 208.219C66.9082 205.583 66.8668 202.859 66.784 200.179C66.7426 199.315 66.8254 198.537 66.8668 197.759ZM85.6203 194.906C85.6203 194.863 85.6203 194.819 85.6203 194.776C85.5789 194.214 85.4547 193.652 85.4547 193.133C85.4133 191.318 84.8751 189.589 84.0058 188.033C83.7988 187.644 83.4676 187.341 83.1778 187.039C82.267 186.131 81.0665 185.915 79.8659 185.785C78.4584 185.612 77.0922 185.915 75.7675 186.174C75.2293 186.261 74.8153 186.563 74.4427 186.995C73.3663 188.206 72.5798 189.632 71.9174 191.145C71.255 192.744 71.0066 194.344 71.4206 196.073C71.6276 196.937 71.7104 197.845 71.7932 198.71C71.876 199.574 71.7518 199.704 70.8824 199.747C70.5099 199.79 70.3857 199.963 70.3443 200.309C70.3443 200.568 70.3029 200.828 70.3443 201.044C70.5513 202.6 70.7582 204.199 70.9652 205.755C71.4206 208.738 72.5798 211.461 74.1115 214.012C74.7739 215.092 75.6019 216 76.8438 216.562C78.0444 217.081 79.7417 216.303 80.1971 215.092C80.3213 214.703 80.4455 214.357 80.6111 213.968C80.8595 213.363 80.9009 213.32 81.5633 213.32C82.1842 213.32 82.3498 213.234 82.474 212.672C82.5982 212.196 82.681 211.677 82.7224 211.202C82.8466 209.646 83.2606 208.176 83.5504 206.663C84.0058 204.372 84.5439 202.124 84.9579 199.833C85.1649 198.623 85.2477 197.37 85.4133 196.159C85.5789 195.684 85.6617 195.381 85.6203 194.906ZM88.6838 200.914C88.6838 200.266 88.7252 199.617 88.6838 198.969C88.6424 197.888 88.601 196.808 88.4768 195.684C88.4354 195.381 88.5182 194.819 88.187 194.69C87.6074 194.473 87.7316 195.9 87.7316 196.159C87.6902 196.937 87.6074 197.715 87.5246 198.493C87.3176 199.963 87.0693 201.476 86.7381 202.903C86.0343 206.101 85.1649 209.257 84.7923 212.499C84.7509 212.888 84.5853 213.45 84.9993 213.709C85.5789 214.055 85.9515 212.931 86.1585 212.542C86.8623 211.202 87.359 209.819 87.7316 208.349C88.3526 205.972 88.6424 203.464 88.6838 200.914ZM79.8245 182.673C79.4519 182.673 79.1207 182.716 78.7482 182.802C78.4998 182.889 78.2514 183.062 78.003 183.191C77.9202 183.235 77.8788 183.364 77.9202 183.451C77.9616 183.581 78.0444 183.753 78.1686 183.753C78.3756 183.797 78.624 183.84 78.8724 183.84C80.1143 183.84 81.3149 184.013 82.474 184.575C82.6396 184.661 82.8466 184.704 83.0122 184.704C83.095 184.704 83.2192 184.704 83.2606 184.618C83.302 184.575 83.302 184.402 83.2606 184.359C82.3912 183.364 81.1079 182.673 79.8245 182.673ZM71.7104 185.612C71.8346 185.396 71.669 185.223 71.462 185.223C71.255 185.223 70.9238 185.266 70.841 185.439C70.5513 185.872 69.9717 186.693 70.1787 187.298C70.3443 187.817 70.5513 187.601 70.7582 187.298C71.048 186.693 71.4206 186.174 71.7104 185.612ZM73.118 184.575C73.118 184.575 73.1594 184.575 73.118 184.575C73.325 184.575 73.7389 184.099 73.8631 184.013C74.1115 183.84 74.5255 183.624 74.4841 183.278C74.4841 183.235 74.4841 183.191 74.4013 183.148C74.3599 183.148 74.3599 183.148 74.3185 183.191C73.9459 183.408 73.5319 183.71 73.2008 184.013C73.1594 184.142 72.7868 184.531 73.118 184.575Z" fill="white"/>
<path d="M122.175 192.744C122.217 194.257 121.885 195.684 121.347 197.067C121.306 197.24 121.223 197.37 121.14 197.543C121.057 197.845 121.14 198.061 121.389 198.148C121.596 198.234 121.761 198.277 121.968 198.364C123.003 198.71 123.955 199.228 124.783 199.963C125.901 200.871 126.977 201.822 127.971 202.859C128.882 203.81 129.627 204.891 130.124 206.188C131.076 208.565 130.538 210.77 128.592 212.499C128.302 212.758 128.012 212.974 127.723 213.234C127.102 213.709 126.522 214.141 126.108 214.833C125.942 215.136 125.694 215.352 125.404 215.568C124.245 216.476 123.086 217.383 121.72 217.988C121.14 218.248 120.561 218.377 119.94 218.594C119.484 218.766 118.987 218.896 118.532 219.026C117.414 219.372 116.297 219.717 115.179 220.063C114.889 220.15 114.599 220.15 114.309 220.15C113.523 220.236 112.736 220.323 111.95 220.366C111.287 220.409 110.625 220.452 110.004 220.106C109.797 219.977 109.797 219.588 110.087 219.588C111.039 219.458 111.991 219.415 112.902 219.285C113.15 219.242 113.399 219.199 113.606 219.156C113.771 219.112 113.978 219.112 114.102 219.069C114.516 218.939 113.937 218.594 113.73 218.55C113.316 218.464 112.943 218.377 112.529 218.291C111.784 218.161 111.039 218.075 110.335 217.945C109.838 217.859 109.466 217.988 109.217 218.507C109.135 218.723 108.928 218.983 108.762 219.069C108.348 219.199 107.851 219.285 107.437 218.939C107.106 218.637 106.733 218.464 106.32 218.421C105.781 218.334 105.657 217.988 105.616 217.513C105.45 215.438 105.243 213.363 105.078 211.288C104.953 209.343 104.829 207.398 104.705 205.453C104.705 205.237 104.705 205.021 104.705 204.804C104.953 201.692 104.953 198.58 104.829 195.468C104.705 192.139 104.664 188.811 104.664 185.482C104.664 184.921 104.746 184.359 104.871 183.797C104.995 183.105 105.45 182.889 106.071 183.148C106.195 183.191 106.278 183.278 106.361 183.364C106.527 183.537 106.733 183.537 106.899 183.364C108.307 181.981 110.045 181.29 111.826 180.684C113.44 180.122 115.096 180.079 116.711 180.511C118.159 180.901 119.236 181.765 119.981 183.105C121.016 184.964 121.678 186.952 121.637 189.157C121.637 189.502 121.72 189.848 121.72 190.194C122.01 191.015 122.092 191.88 122.175 192.744ZM109.3 209.603C109.3 209.992 109.342 210.337 109.342 210.726C109.342 211.159 109.342 211.591 109.342 212.023C109.342 212.888 109.383 213.752 109.383 214.66C109.383 214.963 109.383 215.265 109.383 215.568C109.383 215.87 109.549 216.043 109.838 216.086C110.459 216.173 111.08 216.303 111.701 216.346C114.682 216.432 117.663 216.346 120.643 216.086C120.933 216.043 121.223 216 121.471 215.87C122.051 215.525 122.589 215.136 123.127 214.703C123.79 214.185 124.204 213.493 124.369 212.672C124.659 211.505 124.742 210.337 124.452 209.214C124.162 207.96 123.831 206.706 123.169 205.583C122.092 203.724 120.726 202.341 118.573 201.995C117.952 201.908 117.456 201.952 116.876 202.124C116.255 202.341 115.593 202.557 114.972 202.6C113.937 202.686 112.902 202.643 111.867 202.686C111.205 202.73 110.542 202.816 109.88 202.946C109.424 203.032 109.176 203.335 109.135 203.854C109.135 204.156 109.093 204.459 109.093 204.761C109.093 205.755 109.135 206.75 109.135 207.744C109.259 208.435 109.3 208.997 109.3 209.603ZM108.969 194.517C109.01 194.776 109.052 194.992 109.093 195.252C109.176 195.641 109.093 196.116 109.093 196.505C109.093 197.629 109.135 198.71 109.135 199.834C109.135 199.963 109.135 200.093 109.135 200.223C109.176 200.698 109.383 200.871 109.797 200.612C111.08 199.79 112.488 199.315 114.02 199.228C114.309 199.185 114.599 199.142 114.848 198.969C116.131 198.148 117.166 196.981 117.952 195.684C118.615 194.56 119.112 193.306 119.443 191.966C119.774 190.41 119.857 188.941 119.277 187.384C118.822 186.174 118.077 185.353 116.959 184.791C115.883 184.272 114.682 183.97 113.523 183.71C113.109 183.624 112.736 183.753 112.364 184.056C111.784 184.532 111.494 184.488 110.956 184.056C110.832 183.97 110.749 183.797 110.625 183.667C110.459 183.494 110.252 183.537 110.087 183.71C110.004 183.84 109.921 184.013 109.838 184.142C109.3 185.266 109.176 186.477 109.093 187.687C109.01 189.07 108.969 190.497 108.928 191.923C108.928 192.572 108.928 193.263 108.845 193.912C108.928 194.084 108.928 194.301 108.969 194.517ZM121.057 199.747C120.85 199.747 120.561 199.747 120.395 199.877C120.022 200.093 120.436 200.352 120.685 200.482C121.968 200.957 123.003 201.779 123.997 202.73C125.404 204.113 126.439 205.755 127.06 207.657C127.226 208.219 127.35 208.781 127.433 209.343C127.474 209.646 127.516 209.905 127.598 210.208C127.64 210.424 127.681 210.51 127.888 210.554C128.137 210.597 128.219 210.467 128.344 210.251C128.882 209.386 128.964 208.435 128.716 207.528C128.385 205.928 127.64 204.545 126.522 203.378C125.404 202.254 124.162 201.346 122.92 200.439C122.341 199.963 121.761 199.747 121.057 199.747ZM115.303 181.808C114.641 181.851 113.937 182.024 113.233 182.154C113.15 182.154 113.067 182.197 113.026 182.241C112.985 182.284 112.902 182.37 112.902 182.457C112.902 182.716 113.15 182.716 113.316 182.759C113.606 182.846 113.895 182.932 114.185 182.975C115.344 183.105 116.462 183.408 117.538 183.84C117.787 183.926 118.077 184.142 118.366 183.883C118.532 183.753 118.408 183.321 118.118 182.975C117.828 182.673 117.497 182.413 117.125 182.197C116.504 181.895 115.883 181.808 115.303 181.808ZM106.858 206.015C106.899 206.793 106.982 207.571 107.065 208.349C107.106 208.738 107.147 209.127 107.189 209.516C107.189 209.646 107.272 210.51 107.52 210.121C107.603 210.035 107.561 209.775 107.603 209.646C107.644 209.473 107.644 209.257 107.686 209.084C107.727 208.695 107.727 208.306 107.644 207.917C107.561 207.528 107.603 207.052 107.603 206.62C107.603 205.885 107.603 205.15 107.603 204.415C107.603 204.113 107.603 203.464 107.23 203.464C106.858 203.421 106.816 204.113 106.816 204.372C106.816 204.891 106.816 205.453 106.858 206.015ZM106.899 199.661C106.858 199.963 106.816 200.266 106.775 200.568C106.775 200.741 106.816 200.914 106.899 201.044C106.94 201.087 107.023 201.174 107.106 201.174C107.189 201.174 107.313 201.174 107.313 201.13C107.396 200.957 107.561 200.741 107.561 200.568C107.561 200.006 107.561 199.444 107.52 198.839C107.52 198.666 107.603 197.456 107.147 197.802C107.023 197.888 107.065 198.191 107.023 198.364C106.982 198.753 106.94 199.142 106.94 199.574C106.899 199.574 106.899 199.617 106.899 199.661ZM106.858 186.822C106.692 186.779 106.568 187.99 106.568 188.119C106.568 188.335 106.568 188.595 106.609 188.811C106.609 188.897 106.692 189.07 106.775 189.07C106.982 189.113 106.899 188.724 106.899 188.638C106.899 188.292 106.899 187.99 106.94 187.644C106.94 187.471 107.065 186.952 106.858 186.822C106.899 186.822 106.858 186.822 106.858 186.822Z" fill="white"/>
<path d="M304.453 192.572C304.453 190.929 304.453 189.243 304.453 187.601C304.411 185.353 304.411 183.105 304.37 180.9C304.328 178.955 304.204 177.01 304.121 175.065C304.121 174.892 304.08 174.719 304.121 174.589C304.163 174.417 304.246 174.157 304.411 174.114C304.535 174.071 304.784 174.114 304.908 174.2C305.281 174.417 305.529 174.762 305.488 175.281C305.488 175.886 305.488 176.491 305.529 177.053C305.529 177.313 305.529 177.961 305.777 178.091C306.067 178.22 306.191 177.745 306.274 177.572C306.398 177.313 306.44 177.053 306.564 176.794C306.812 176.275 307.185 176.146 307.723 176.362C308.303 176.621 308.592 177.097 308.675 177.745C308.758 178.782 308.882 179.82 308.882 180.814C308.924 182.024 308.841 183.278 308.799 184.488C308.758 185.439 308.758 186.39 308.717 187.341C308.675 189.502 308.592 191.621 308.551 193.782C308.51 196.721 308.468 199.661 308.427 202.6C308.427 202.859 308.427 203.162 308.385 203.421C308.303 203.897 307.971 204.156 307.599 204.113C307.102 204.07 306.771 203.81 306.729 203.335C306.688 202.903 306.605 202.47 306.605 202.038C306.522 199.79 306.233 197.542 306.357 195.252C306.398 194.819 306.315 194.344 306.398 193.912C306.398 193.739 306.605 193.35 306.315 193.306C306.026 193.263 306.026 193.955 306.026 194.171C306.026 196.548 306.026 198.926 306.108 201.303C306.15 202.427 306.274 203.508 306.398 204.632C306.44 205.064 306.357 205.41 305.984 205.669C305.653 205.885 305.322 205.799 304.991 205.583C304.701 205.41 304.577 205.15 304.535 204.804C304.494 203.464 304.453 202.081 304.453 200.741C304.411 198.061 304.453 195.295 304.453 192.572ZM307.392 213.968C306.688 214.012 305.984 214.228 305.281 214.357C305.115 214.401 304.991 214.444 304.867 214.53C304.287 214.919 303.707 215.438 303.79 216.216C303.873 216.994 304.039 217.772 304.618 218.377C305.115 218.939 305.694 219.372 306.357 219.717C308.054 220.582 309.793 219.155 309.876 217.729C309.917 217.383 309.959 217.037 310 216.692C309.959 215.049 308.841 213.839 307.392 213.968ZM308.137 216.821C307.723 216.994 307.392 216.865 307.226 216.432C307.143 216.303 307.102 216.13 307.102 216C306.978 215.438 307.185 215.006 307.557 214.963C308.096 214.919 308.551 215.222 308.634 215.741C308.634 215.827 308.634 215.914 308.634 215.957C308.592 216.475 308.51 216.648 308.137 216.821ZM306.274 217.643C306.398 217.729 306.564 217.859 306.647 218.032C306.729 218.205 306.771 218.248 306.564 218.291C306.357 218.334 306.15 218.161 306.026 218.032C305.943 217.945 305.819 217.815 305.819 217.686C305.819 217.556 305.86 217.513 305.943 217.513C306.067 217.513 306.233 217.599 306.274 217.643Z" fill="white"/>
</g>
<g clip-path="url(#clip2_264_3)">
<path d="M270.565 56.2379C264.071 43.6366 267.245 28.8127 276.558 19.1887C270.774 18.6645 264.634 19.2306 258.558 21.3693C248.555 24.8499 240.641 32.2304 236.736 41.8124C232.81 51.3316 232.893 63.0523 238.323 73.494C243.669 83.9567 253.17 90.813 263.173 93.0774C273.217 95.4258 283.784 93.1823 292.408 87.0179C297.921 83.076 302.076 78.0649 305.021 72.7182C291.51 75.1294 277.164 69.1747 270.565 56.2379Z" fill="#F9DD62"/>
<path d="M261.335 49.0461C257.639 52.0864 256.198 52.5686 254.339 53.1347C252.481 53.6799 251.019 53.5121 249.704 53.4492C248.388 53.4073 246.759 52.5476 246.759 52.5476C246.759 52.5476 248.096 53.4912 252.502 52.6735C256.929 51.8557 261.335 49.0461 261.335 49.0461Z" fill="white"/>
<path d="M257.534 55.9234C257.555 55.9234 257.576 55.9024 257.576 55.9024C257.66 55.8605 257.722 55.7766 257.743 55.6928C257.764 55.6089 257.764 55.504 257.722 55.4411L256.323 52.8622L256.511 52.7783C257.263 52.4638 258.015 52.0864 258.746 51.6251L258.892 51.5412L260.479 53.617C260.562 53.7428 260.729 53.7847 260.876 53.7218C260.917 53.7009 260.938 53.7009 260.959 53.6799C261.105 53.5541 261.147 53.3444 261.022 53.1976L259.477 51.1848L259.644 51.08C260.061 50.8074 260.479 50.4929 260.876 50.1784L261.001 50.0735L262.525 51.5203C262.63 51.6041 262.755 51.6461 262.88 51.5832C262.922 51.5622 262.985 51.5412 263.006 51.4993C263.068 51.4364 263.11 51.3525 263.089 51.2477C263.089 51.1638 263.047 51.0799 262.985 51.017L261.523 49.6332L261.69 49.4864C261.753 49.4445 261.815 49.3816 261.878 49.3397C261.941 49.2768 261.982 49.1929 262.003 49.109C262.003 49.0252 261.982 48.9203 261.92 48.8574C261.836 48.7526 261.669 48.7106 261.544 48.7526C261.502 48.7735 261.46 48.7945 261.439 48.8155C259.56 50.4719 257.618 51.667 255.655 52.4009C250.748 54.225 247.302 52.4428 247.156 52.359C247.072 52.317 246.968 52.2961 246.884 52.338C246.801 52.359 246.738 52.4219 246.697 52.5057C246.613 52.6735 246.676 52.8831 246.843 52.967C246.864 52.988 247.031 53.0718 247.281 53.1767L247.49 53.2605L245.569 56.175C245.464 56.3427 245.506 56.5524 245.673 56.6572C245.757 56.7202 245.882 56.7201 245.987 56.6992C246.049 56.6782 246.112 56.6363 246.154 56.5734L248.179 53.4912L248.304 53.5331C248.889 53.7009 249.495 53.8057 250.142 53.8686L250.372 53.8896L249.328 57.1605C249.265 57.3492 249.369 57.5379 249.557 57.5798C249.62 57.6008 249.704 57.6008 249.766 57.5798C249.871 57.5379 249.954 57.454 249.975 57.3492L251.04 53.8686H251.186C251.729 53.8686 252.293 53.8267 252.836 53.7638L253.003 53.7428L253.588 56.6992C253.629 56.8879 253.797 57.0137 253.984 56.9718C254.005 56.9718 254.026 56.9718 254.026 56.9508C254.193 56.8879 254.277 56.7202 254.235 56.5524L253.65 53.617L253.838 53.5751C254.381 53.4702 254.924 53.3025 255.467 53.1138L255.613 53.0718L257.054 55.7347C257.2 55.9234 257.367 55.9863 257.534 55.9234Z" fill="#231F20"/>
<path d="M259.268 75.8843C259.268 78.7987 256.908 81.168 254.005 81.168C251.103 81.168 248.743 78.7987 248.743 75.8843C248.743 72.9698 251.103 70.6005 254.005 70.6005C256.929 70.6005 259.268 72.9698 259.268 75.8843Z" fill="#F49A9A"/>
<path d="M275.013 70.8102C273.781 71.1666 272.486 70.7683 271.4 69.8667C272.403 71.3134 273.948 72.0682 275.347 71.6698C276.934 71.2086 277.895 69.4263 277.79 67.3925C277.456 69.0699 276.454 70.3908 275.013 70.8102Z" fill="#231F20"/>
</g>
<defs>
<clipPath id="clip0_264_3">
<rect width="232" height="202" fill="white" transform="translate(13 30)"/>
</clipPath>
<clipPath id="clip1_264_3">
<rect width="283" height="46.295" fill="white" transform="translate(27 174.071)"/>
</clipPath>
<clipPath id="clip2_264_3">
<rect width="71" height="75" fill="white" transform="translate(234 19)"/>
</clipPath>
</defs>
</svg>
