<svg width="288" height="47" viewBox="0 0 288 47" fill="none" xmlns="http://www.w3.org/2000/svg">
<path d="M14.0999 30.1246C12.8999 26.3368 11.6999 22.1281 10.5999 17.709C11.8999 15.4995 12.9999 13.29 13.9999 11.0804C14.9999 8.87091 15.8999 6.55618 16.6999 4.13621L16.7999 3.92577L16.6999 3.71532C16.3999 3.18924 16.0999 2.76836 15.6999 2.45272C15.2999 2.13707 14.7999 1.92666 14.1999 1.82144L12.2999 1.71625L12.1999 2.13708C11.7999 3.50489 11.0999 5.3988 9.99991 7.81877C9.09991 9.9231 7.89991 12.4483 6.49991 15.4995C6.49991 14.6578 6.49991 13.7109 6.49991 12.8691C6.49991 9.397 6.39991 5.92486 6.29991 2.66316V2.34752L6.0999 2.13708C5.7999 1.82143 5.3999 1.61102 5.0999 1.50581C4.4999 1.29538 4.09991 1.19015 3.3999 1.29536C3.1999 1.29536 2.8999 1.40059 2.3999 1.50581L0.999901 2.24233V2.66316C1.0999 4.8727 1.1999 7.5031 1.1999 10.5544C1.1999 13.6056 1.2999 17.7091 1.2999 22.7595C1.2999 28.1255 1.2999 32.2289 1.1999 34.8593C1.0999 37.5949 0.999902 40.1201 0.899902 42.4348V42.9609L1.2999 43.0662C1.8999 43.2766 2.39991 43.3818 2.79991 43.487C3.79991 43.6974 4.6999 43.6974 5.1999 43.3818C5.4999 43.1714 5.7999 42.9609 5.99991 42.5401L6.0999 42.4348V42.2244C6.1999 39.4888 6.29991 36.648 6.39991 33.8072C6.49991 30.9663 6.49991 27.5994 6.49991 23.9168C6.49991 23.2855 6.49991 22.549 6.49991 21.9177C7.59991 26.442 8.59991 30.335 9.59991 33.5967C10.7999 37.8054 11.9999 41.1723 13.0999 43.5922L13.1999 43.9079L15.1999 44.2235L15.3999 44.1183C16.3999 43.5922 17.0999 43.0662 17.4999 42.5401C17.8999 42.014 18.0999 41.3827 18.0999 40.6462V40.3305L17.9999 40.2253C16.5999 37.3845 15.2999 34.0176 14.0999 30.1246Z" fill="black"/>
<path d="M34.0999 2.66324V2.3476L33.7999 2.13716C33.3999 1.92673 32.9998 1.7163 32.6998 1.61108C32.3998 1.50586 31.9999 1.40063 31.5999 1.40063C31.4999 1.40063 31.2999 1.40063 31.0999 1.40063C30.8999 1.40063 30.5998 1.40067 30.4998 1.50589H30.3998C30.0998 1.61111 29.7999 1.82154 29.5999 2.03197C29.3999 2.2424 29.2998 2.55801 29.1998 2.97887V3.08413C29.1998 5.81974 29.0999 8.13451 29.0999 10.1336C29.0999 12.0275 29.0999 13.9214 29.0999 15.71C29.0999 16.1309 29.0999 18.2352 29.0999 21.8126C29.0999 25.3899 29.0998 28.7568 29.1998 31.8081L29.2999 43.2766L30.9998 44.1183H31.5999C32.0999 44.1183 32.4998 44.1183 32.8998 44.0131C33.2998 43.9079 33.6998 43.8027 33.9998 43.5923L34.2999 43.3818V43.0662C34.3999 39.4888 34.4998 36.0167 34.4998 32.6498C34.5998 29.2829 34.5999 26.1264 34.5999 22.9699C34.5999 20.0239 34.5998 16.7622 34.4998 13.3953C34.3998 10.0284 34.2999 6.45101 34.0999 2.66324Z" fill="black"/>
<path d="M51.6999 1.40063H48.4999V1.92671C48.2999 7.50315 48.1999 11.9222 48.0999 15.0787C47.9999 18.2352 47.9999 21.076 47.9999 23.6012C47.9999 26.3368 47.9999 29.2828 48.0999 32.4393C48.1999 35.5958 48.2999 39.1731 48.3999 42.9609V43.487H48.8999C49.3999 43.487 49.8999 43.5922 50.3999 43.5922C50.8999 43.5922 51.5999 43.5922 52.2999 43.5922C55.7999 43.5922 58.2999 42.014 59.6999 38.8575C61.0999 35.8063 61.6999 30.5454 61.6999 22.6542C61.6999 14.6578 60.9999 9.29186 59.4999 6.2406C58.1999 3.08413 55.4999 1.40063 51.6999 1.40063ZM53.3999 25.6003C53.3999 21.9177 53.3999 18.4456 53.4999 15.0787C53.4999 12.0274 53.5999 9.08144 53.6999 6.45105C54.3999 6.66148 54.9999 7.92403 55.4999 10.0283C56.0999 12.6587 56.3999 16.5517 56.3999 21.6021C56.3999 28.2307 56.0999 32.8602 55.5999 35.2801C55.0999 37.5949 54.2999 38.2262 53.6999 38.4366C53.5999 36.5427 53.5999 34.6489 53.4999 32.755C53.3999 30.5455 53.3999 28.1255 53.3999 25.6003Z" fill="black"/>
<path d="M81.5 22.4438C81.4 22.1282 81.2 21.7073 81 21.076C78.9 14.8683 78.3999 12.5536 78.3999 11.7118C78.3999 10.5545 78.6999 9.29186 79.3999 8.13448C80.0999 6.87189 81.1 5.50406 82.5 4.03104L82.7 3.82066L82.6 3.50496C82.4 2.55801 82.1 1.82153 81.7 1.29545C81.2 0.76937 80.7 0.453735 80 0.453735C79.5 0.453735 78.8 0.769383 78 1.50589C77.2 2.13719 76.5 2.9789 75.7 3.92585C74.8 5.08322 74.2 6.34581 73.8 7.6084C73.4 8.87099 73.2 10.344 73.2 11.817C73.2 13.0796 73.3 14.3422 73.6 15.71C73.9 17.0778 74.4999 19.0769 75.3999 21.8125C75.4999 22.023 75.5 22.2334 75.6 22.4438C77.7 28.7568 78.8 32.9654 78.8 34.9645C78.8 36.3323 78.4999 37.3845 77.8999 38.3315C77.1999 39.2784 75.8 40.541 73.6 42.014L73.3 42.2245V42.6453C73.3 43.3818 73.6 44.0131 74.1 44.5392C74.6 45.0652 75.3 45.4862 76.3 45.907L76.5 46.0122L76.7 45.907C79.2 44.7496 81.1 43.2766 82.3 41.3827C83.5 39.4888 84.2 37.2793 84.2 34.6489C84.2 33.1759 84 31.4924 83.5 29.4933C83.2 27.5994 82.5 25.2846 81.5 22.4438Z" fill="black"/>
<path d="M137.9 8.76574V8.45011L137.6 8.23966C137.3 8.02923 137 7.92406 136.7 7.81884C136 7.60841 135.3 7.60841 134.5 7.81884C134.1 7.92406 133.6 8.13449 133 8.34492L132.6 8.45011V8.871C132.6 8.97622 132.6 9.18665 132.6 9.39708C132.6 9.60751 132.6 9.71269 132.6 9.81791C132.6 11.3961 132.2 12.8692 131.5 14.1318C130.8 15.4996 129.5 16.9726 127.8 18.5509C127.5 18.8665 127 19.2873 126.3 19.8134C122.9 22.6543 121.2 25.4951 121.2 28.1255C121.2 28.6516 121.3 29.1777 121.4 29.5986C121.5 30.1246 121.7 30.6507 121.9 31.282L122.1 31.5976H122.5C122.5 31.5976 122.6 31.5976 122.7 31.5976C123.2 31.7029 123.4 31.7029 123.5 31.7029C123.9 31.7029 124.3 31.5977 124.6 31.4924C125 31.3872 125.4 31.1768 125.8 30.9664L126.2 30.7559L126.1 30.335C126 30.0194 125.9 29.7038 125.9 29.3881C125.9 29.0725 125.8 28.7568 125.8 28.4412C125.8 27.5994 125.9 26.9681 126.1 26.3368C126.3 25.916 126.5 25.4951 126.9 25.1795C128.1 25.7056 129 26.4421 129.6 27.389C130.2 28.4412 130.5 29.9142 130.5 31.8081C130.5 33.9124 130 35.701 128.9 37.1741C127.9 38.5419 126.7 39.1732 125.2 39.1732C123.3 39.1732 121.9 38.3315 120.9 36.7532C119.8 35.0698 119.3 32.5446 119.3 29.2829C119.3 25.8107 120 22.8647 121.5 20.55C122.9 18.2352 124.8 16.8674 127.1 16.4466L127.4 16.3413L127.5 16.0257C127.6 15.8152 127.6 15.6048 127.6 15.3944C127.6 15.184 127.6 14.9735 127.7 14.8683V14.7631V14.6579C127.7 14.5527 127.6 14.4474 127.6 14.237C127.5 14.0266 127.5 13.8161 127.4 13.5005L127.3 13.0796H126.5C125.5 13.0796 124.7 12.764 124 12.0275C123.4 11.291 123 10.4492 123 9.29183C123 8.02923 123.3 7.18756 123.9 6.45104C124.5 5.81975 125.3 5.50407 126.4 5.50407C126.7 5.50407 126.9 5.50405 127.2 5.60926C127.5 5.71448 127.8 5.81975 128.1 5.92496L128.5 6.13534L128.8 5.81971C129 5.50406 129.2 5.18845 129.3 4.8728C129.4 4.55716 129.5 4.24151 129.5 3.82064C129.5 3.50499 129.5 3.18932 129.4 2.87367C129.3 2.55802 129.2 2.24235 129 1.9267L128.9 1.71632L128.7 1.61107C128.2 1.40064 127.7 1.1902 127.2 1.08499C126.7 0.979772 126.2 0.979797 125.8 0.979797C123.4 0.979797 121.5 1.71628 120 3.18931C118.6 4.66233 117.8 6.66148 117.8 9.08144C117.8 10.5545 118.1 11.817 118.7 12.8692C119.2 13.7109 119.9 14.4474 120.8 14.9735C118.6 16.657 117 18.6561 115.8 20.9708C114.5 23.496 113.9 26.3368 113.9 29.4933C113.9 33.702 114.9 37.2793 116.9 39.8045C118.9 42.4349 121.7 43.8027 125 43.8027C128 43.8027 130.6 42.6453 132.6 40.2254C134.6 37.9106 135.6 34.9646 135.6 31.4924C135.6 29.0725 135.2 26.9681 134.4 25.2847C133.7 23.7064 132.5 22.3386 131 21.076C133.2 19.0769 134.9 17.2883 136 15.4996C137.2 13.6057 137.7 11.5014 137.7 9.29183C137.7 9.18661 137.7 9.08143 137.7 8.871C137.9 8.871 137.9 8.76574 137.9 8.76574Z" fill="black"/>
<path d="M178.8 19.3926C179.7 18.5508 180.4 17.6039 180.9 16.4465C181.5 15.0787 181.7 13.3953 181.7 11.2909C181.7 8.02925 181 5.50409 179.6 3.82064C178.2 2.03197 176.1 1.19025 173.4 1.19025C172.5 1.19025 171.7 1.29545 170.9 1.50588C170.1 1.71631 169.3 2.03195 168.6 2.34759L168.3 2.55804V2.97886C168.4 4.87275 168.4 6.87189 168.5 8.87099C168.5 10.9753 168.5 13.2901 168.5 15.9205C168.5 19.9187 168.4 24.2325 168.3 28.7567C168.2 33.281 168 38.0157 167.7 42.8557V43.4869H168.3C168.8 43.4869 169.5 43.5922 170.4 43.5922C171.6 43.6974 172.3 43.6974 172.6 43.6974C175.7 43.6974 178.1 42.5401 179.8 40.1201C181.4 37.8053 182.2 34.4384 182.2 30.0193C182.2 27.3889 181.9 25.1794 181.3 23.3908C180.7 21.8125 179.9 20.5499 178.8 19.3926ZM175.7 16.3413C175.3 17.0778 174.7 17.3934 173.8 17.3934H173.7V10.1336C173.7 8.66057 173.7 7.29276 173.7 5.92496C173.8 5.92496 173.9 5.92496 174 5.92496C174.4 5.92496 175.1 6.03016 175.6 7.29275C176.1 8.34491 176.3 10.0284 176.3 12.0275C176.4 14.1318 176.2 15.4996 175.7 16.3413ZM175.8 36.0166C175.2 37.4897 174.5 38.2262 173.6 38.2262C173.5 38.2262 173.4 38.2262 173.3 38.121C173.5 35.0697 173.6 32.1237 173.7 29.3881C173.8 26.7577 173.8 24.1273 173.8 21.7073C174.8 21.7073 175.5 22.2334 176 23.2856C176.5 24.4429 176.8 26.5472 176.8 29.2828C176.8 32.2289 176.4 34.4384 175.8 36.0166Z" fill="black"/>
<path d="M202.6 1.08502C201.6 1.08502 200.7 1.29547 199.9 1.82154C199.2 2.24241 198.4 3.08415 197.6 4.1363C196.5 5.71454 195.6 7.71365 195.2 10.1336C194.7 12.5536 194.5 16.3413 194.5 21.4969C194.5 28.6516 195 34.1228 196.1 37.9105C197.2 41.9087 198.9 43.9078 201.2 43.9078C202.1 43.9078 203.1 43.5922 204.1 42.9609C205.1 42.3296 206 41.4879 206.9 40.3305C208.2 38.647 209.2 36.2271 209.8 33.1758C210.4 30.1246 210.7 26.0211 210.7 21.076C210.7 14.5526 210.1 9.6075 208.8 6.34581C207.3 2.87369 205.3 1.08502 202.6 1.08502ZM202.1 6.45106C203 6.45106 203.8 7.50318 204.2 9.50228C204.7 11.817 205 15.9204 205 21.6021C205 27.5994 204.7 31.9133 204 34.6489C203.5 36.9636 202.7 38.121 201.6 38.3314C201.1 37.0688 200.7 35.3854 200.4 33.0706C200.1 30.5455 200 26.6525 200 21.8125C200 17.7091 200.1 14.4475 200.2 12.2379C200.4 10.1336 200.6 8.34492 201 7.08233C201.2 6.97712 201.3 6.87191 201.5 6.7667C201.7 6.55627 201.9 6.45106 202.1 6.45106Z" fill="black"/>
<path d="M230.1 1.08502C229.1 1.08502 228.2 1.29547 227.4 1.82154C226.7 2.24241 225.9 3.08415 225.1 4.1363C224 5.71454 223.1 7.71365 222.7 10.1336C222.2 12.5536 222 16.3413 222 21.4969C222 28.6516 222.5 34.1228 223.6 37.9105C224.7 41.9087 226.4 43.9078 228.7 43.9078C229.6 43.9078 230.6 43.5922 231.6 42.9609C232.6 42.3296 233.5 41.4879 234.4 40.3305C235.7 38.647 236.7 36.2271 237.3 33.1758C237.9 30.1246 238.2 26.0211 238.2 21.076C238.2 14.5526 237.6 9.6075 236.3 6.34581C234.9 2.87369 232.8 1.08502 230.1 1.08502ZM229.6 6.45106C230.5 6.45106 231.3 7.50318 231.7 9.50228C232.2 11.817 232.5 15.9204 232.5 21.6021C232.5 27.5994 232.2 31.9133 231.5 34.6489C231 36.9636 230.2 38.121 229.1 38.3314C228.6 37.0688 228.2 35.3854 227.9 33.0706C227.6 30.5455 227.5 26.6525 227.5 21.8125C227.5 17.7091 227.6 14.4475 227.7 12.2379C227.9 10.1336 228.1 8.34492 228.5 7.08233C228.7 6.97712 228.8 6.87191 229 6.7667C229.3 6.55627 229.4 6.45106 229.6 6.45106Z" fill="black"/>
<path d="M263.1 30.1246C261.9 26.3368 260.7 22.1282 259.6 17.7091C260.9 15.4996 262 13.29 263 11.0805C264 8.87096 264.9 6.55624 265.7 4.13627L265.8 3.92583L265.7 3.71538C265.4 3.1893 265.1 2.76843 264.7 2.45278C264.3 2.13713 263.8 1.92672 263.2 1.82151L261.3 1.71632L261.2 2.13714C260.8 3.50495 260.1 5.39886 259 7.81883C258.1 9.92315 256.9 12.4483 255.5 15.4996C255.5 14.6579 255.5 13.7109 255.5 12.8692C255.5 9.39706 255.4 5.92492 255.3 2.66322V2.34759H255C254.7 2.03194 254.3 1.82153 254 1.71632C253.4 1.50589 253 1.40066 252.3 1.50587C252.1 1.50587 251.8 1.6111 251.3 1.71632L249.9 2.45278V2.87367C250 5.0832 250.1 7.7136 250.1 10.7649C250.1 13.8161 250.2 17.9195 250.2 22.9699C250.2 28.3359 250.2 32.4393 250.1 35.0697C250 37.8053 249.9 40.3305 249.8 42.6453V43.1714L250.2 43.2766C250.8 43.487 251.3 43.5922 251.7 43.6974C252.7 43.9079 253.6 43.9079 254.1 43.5922C254.4 43.3818 254.7 43.1714 254.9 42.7505L255 42.6453V42.4348C255.1 39.6992 255.2 36.8584 255.3 34.0176C255.4 31.1767 255.4 27.8099 255.4 24.1273C255.4 23.496 255.4 22.7595 255.4 22.1282C256.5 26.6525 257.5 30.5455 258.5 33.8072C259.7 38.0158 260.9 41.3827 262 43.8027L262.1 44.1183L264.1 44.434L264.3 44.3288C265.3 43.8027 266 43.2766 266.4 42.7505C266.8 42.2244 267 41.5931 267 40.8566V40.541L266.9 40.4358C265.7 37.3845 264.4 34.0176 263.1 30.1246Z" fill="black"/>
<path d="M285.1 22.4438C285 22.1282 284.8 21.7073 284.6 21.076C282.5 14.8683 282 12.5536 282 11.7118C282 10.5545 282.3 9.29186 283 8.13448C283.7 6.87189 284.7 5.50406 286.1 4.03104L286.3 3.82066L286.2 3.50496C286 2.55801 285.7 1.82153 285.3 1.29545C284.8 0.76937 284.3 0.453735 283.6 0.453735C283.1 0.453735 282.4 0.769383 281.6 1.50589C280.8 2.13719 280.1 2.9789 279.3 3.92585C278.4 5.08322 277.8 6.34581 277.4 7.6084C277 8.87099 276.8 10.344 276.8 11.817C276.8 13.0796 276.9 14.3422 277.2 15.71C277.5 17.0778 278.1 19.0769 279 21.8125C279.1 22.023 279.1 22.2334 279.2 22.4438C281.3 28.7568 282.4 32.9654 282.4 34.9645C282.4 36.3323 282.1 37.3845 281.5 38.3315C280.8 39.2784 279.4 40.541 277.2 42.014L276.9 42.2245V42.6453C276.9 43.3818 277.2 44.0131 277.7 44.5392C278.2 45.0652 278.9 45.4862 279.9 45.907L280.1 46.0122L280.3 45.907C282.8 44.7496 284.7 43.2766 285.9 41.3827C287.1 39.4888 287.8 37.2793 287.8 34.6489C287.8 33.1759 287.6 31.4924 287.1 29.4933C286.8 27.5994 286 25.2846 285.1 22.4438Z" fill="black"/>
</svg>
