<svg width="520" height="227" viewBox="0 0 520 227" fill="none" xmlns="http://www.w3.org/2000/svg">
<path d="M101.455 224.464H137.915V173.103H166.449V136.644H137.915V81.7961H101.455V136.644H47.2399L127.452 2.5363H85.6024L0 146.155V173.103H101.455V224.464Z" fill="#868586"/>
<path d="M187.193 113.5C187.193 181.346 211.289 227 262.333 227C313.061 227 335.888 181.346 335.888 113.5C335.888 45.6536 312.427 0 261.699 0C210.655 0 187.193 45.6536 187.193 113.5ZM226.19 113.5C226.19 59.9204 236.653 34.2402 261.699 34.2402C287.063 34.2402 297.208 58.6522 297.208 113.5C297.208 168.348 287.697 193.077 262.333 193.077C238.555 193.077 226.19 167.714 226.19 113.5Z" fill="#868586"/>
<path d="M455.006 224.464H491.466V173.103H520V136.644H491.466V81.7961H455.006V136.644H400.791L481.003 2.5363H439.153L353.551 146.155V173.103H455.006V224.464Z" fill="#868586"/>
</svg>
