<svg width="15" height="12" viewBox="0 0 15 12" fill="none" xmlns="http://www.w3.org/2000/svg">
<path d="M11.3536 11.3536C11.1583 11.5488 10.8417 11.5488 10.6464 11.3536L7.46447 8.17157C7.2692 7.97631 7.2692 7.65973 7.46447 7.46447C7.65973 7.2692 7.97631 7.2692 8.17157 7.46447L11 10.2929L13.8284 7.46447C14.0237 7.2692 14.3403 7.2692 14.5355 7.46447C14.7308 7.65973 14.7308 7.97631 14.5355 8.17157L11.3536 11.3536ZM11.5 1V11H10.5V1H11.5Z" fill="#11BE73"/>
<path d="M4.35355 0.646446C4.15829 0.451184 3.84171 0.451184 3.64645 0.646446L0.464466 3.82843C0.269204 4.02369 0.269204 4.34027 0.464466 4.53553C0.659728 4.7308 0.976311 4.7308 1.17157 4.53553L4 1.70711L6.82843 4.53553C7.02369 4.7308 7.34027 4.7308 7.53553 4.53553C7.7308 4.34027 7.7308 4.02369 7.53553 3.82843L4.35355 0.646446ZM4.5 11L4.5 1H3.5L3.5 11H4.5Z" fill="#11BE73"/>
</svg>
