<svg width="18" height="18" viewBox="0 0 18 18" fill="none" xmlns="http://www.w3.org/2000/svg">
<path d="M8.16663 6.49999H9.83329V4.83332H8.16663M8.99996 15.6667C5.32496 15.6667 2.33329 12.675 2.33329 8.99999C2.33329 5.32499 5.32496 2.33332 8.99996 2.33332C12.675 2.33332 15.6666 5.32499 15.6666 8.99999C15.6666 12.675 12.675 15.6667 8.99996 15.6667ZM8.99996 0.666656C7.90561 0.666656 6.82198 0.882205 5.81093 1.30099C4.79988 1.71978 3.88122 2.33361 3.1074 3.10743C1.5446 4.67024 0.666626 6.78985 0.666626 8.99999C0.666626 11.2101 1.5446 13.3297 3.1074 14.8925C3.88122 15.6664 4.79988 16.2802 5.81093 16.699C6.82198 17.1178 7.90561 17.3333 8.99996 17.3333C11.2101 17.3333 13.3297 16.4553 14.8925 14.8925C16.4553 13.3297 17.3333 11.2101 17.3333 8.99999C17.3333 7.90564 17.1177 6.82201 16.699 5.81096C16.2802 4.79991 15.6663 3.88125 14.8925 3.10743C14.1187 2.33361 13.2 1.71978 12.189 1.30099C11.1779 0.882205 10.0943 0.666656 8.99996 0.666656ZM8.16663 13.1667H9.83329V8.16666H8.16663V13.1667Z" fill="#EC6262"/>
</svg>
